<svg xmlns="http://www.w3.org/2000/svg" xmlns:xlink="http://www.w3.org/1999/xlink" width="50" height="47" version="1.1" viewBox="0 0 50 47"><title>Group 9</title><desc>Created with Sketch.</desc><g id="Page-1" fill="none" fill-rule="evenodd" stroke="none" stroke-width="1"><g id="Coverfox_Insurance_7.18" fill-rule="nonzero" transform="translate(-41.000000, -464.000000)"><g id="Group-9" transform="translate(41.000000, 464.000000)"><circle id="Oval" cx="44" cy="30" r="6" fill="#F9C19B"/><circle id="Oval" cx="6" cy="30" r="6" fill="#F9C19B"/><path id="Shape" fill="#FFD5AB" d="M46,26.5 C46,37.8190184 36.8190184,47 25.5,47 C14.1809816,47 5,37.8190184 5,26.5 C5,15.1809816 14.1809816,6 25.5,6 C36.8609407,6 46,15.1809816 46,26.5 Z"/><path id="Shape" fill="#442106" d="M17,28.5 C17,29.852459 15.8983051,31 14.5,31 C13.1440678,31 12,29.8934426 12,28.5 C12,27.147541 13.1016949,26 14.5,26 C15.8559322,26 17,27.1065574 17,28.5 Z"/><path id="Shape" fill="#442106" d="M34,28.5 C34,29.852459 35.1016949,31 36.5,31 C37.8559322,31 39,29.8934426 39,28.5 C39,27.147541 37.8983051,26 36.5,26 C35.1016949,26 34,27.1065574 34,28.5 Z"/><path id="Shape" fill="#935D4A" d="M30.3457138,35.0177441 C29.92033,34.9246178 29.4524077,35.2039966 29.3673309,35.7161912 C29.3247926,35.8093174 28.8143319,38.1840376 26.0067983,38.1840376 C23.3694183,38.1840376 22.6888041,35.9490069 22.6462657,35.7161912 C22.561189,35.2971229 22.2208819,35.0177441 21.8380364,35.0177441 C21.7529596,35.0177441 21.7104212,35.0177441 21.6253444,35.0643072 C21.1999606,35.2039966 20.9021918,35.7161912 21.029807,36.1818226 C21.3701141,37.4855905 22.8164193,40 26.0067983,40 C29.2822542,40 30.6860209,37.4855905 30.9837897,36.1352594 C31.0688664,35.6230649 30.8136361,35.1108704 30.3457138,35.0177441 Z"/><path id="Shape" fill="#59351C" d="M25.5,13 C27.9583333,13 30,10.9624811 30,8.41558257 C30,7.77885792 29.875,7.18458159 29.625,6.59030526 C29.625,6.59030526 29.625,6.59030526 29.625,6.54785695 C27.75,1.83609458 28.9166667,0.732438535 28.875,0.732438535 C29.0416667,0.605093606 29.0833333,0.392852058 29,0.22305882 C28.9166667,0.0532655819 28.7083333,-0.0316310372 28.5,0.0108172723 C21.4166667,2.60016416 21.0833333,7.56661638 21.0416667,7.77885792 C21.0416667,7.82130623 21.0416667,7.82130623 21.0416667,7.86375454 C21,8.07599609 21,8.24578933 21,8.37313426 C21,10.9624811 23,13 25.5,13 Z"/></g></g></g></svg>