<svg xmlns="http://www.w3.org/2000/svg" xmlns:xlink="http://www.w3.org/1999/xlink" width="49" height="42" version="1.1" viewBox="0 0 49 42"><title>Group 4</title><desc>Created with Sketch.</desc><g id="Page-1" fill="none" fill-rule="evenodd" stroke="none" stroke-width="1"><g id="Coverfox_Insurance_7.18" fill-rule="nonzero" transform="translate(-41.000000, -223.000000)"><g id="Group-4" transform="translate(41.000000, 223.000000)"><ellipse id="Oval" cx="42.915" cy="23.655" fill="#F9C19B" rx="5.927" ry="5.983"/><ellipse id="Oval" cx="6.244" cy="23.655" fill="#F9C19B" rx="5.927" ry="5.983"/><ellipse id="Oval" cx="24.579" cy="19.97" fill="#FFD5AB" rx="19.758" ry="19.811"/><path id="Shape" fill="#BFBBB8" d="M40.1483871,25.7943396 C38.5677419,29.8754717 37.0266129,30.5490566 34.3790323,31.3018868 C33.8653226,28.9245283 31.6919355,27.1415094 28.4516129,27.1415094 L20.7064516,27.1415094 C17.466129,27.1415094 15.2927419,28.9245283 14.7790323,31.3018868 C11.933871,31.2622642 9.87903226,28.409434 9.00967742,25.8735849 C8.575,24.645283 7.42903226,23.3377358 6.4016129,23.1396226 L4.97903226,22.7433962 C4.97903226,35.0660377 13.5935484,41.8415094 24.5790323,41.8415094 C35.5645161,41.8415094 44.1790323,35.2641509 44.1790323,22.7830189 C44.1790323,22.7830189 43.7443548,22.9415094 42.7564516,23.1396226 C41.7685484,23.2981132 40.6225806,24.5660377 40.1483871,25.7943396 Z"/><path id="Shape" fill="#442106" d="M16.5967742,21.2773585 C16.5967742,22.5849057 15.5693548,23.6150943 14.3048387,23.6150943 C13.0403226,23.6150943 12.0129032,22.545283 12.0129032,21.2773585 C12.0129032,20.009434 13.0403226,18.9396226 14.3048387,18.9396226 C15.5693548,18.9 16.5967742,19.9698113 16.5967742,21.2773585 Z"/><path id="Shape" fill="#442106" d="M32.5612903,21.2773585 C32.5612903,22.5849057 33.5887097,23.6150943 34.8532258,23.6150943 C36.1177419,23.6150943 37.1056452,22.545283 37.1056452,21.2773585 C37.1056452,20.009434 36.0782258,18.9396226 34.8532258,18.9396226 C33.5887097,18.9 32.5612903,19.9698113 32.5612903,21.2773585 Z"/><path id="Shape" fill="#442106" d="M28.7282258,30.4698113 C28.2935484,30.390566 27.858871,30.6283019 27.7798387,31.0641509 C27.7403226,31.1433962 27.266129,33.2037736 24.5790323,33.2037736 C22.0895161,33.2037736 21.4572581,31.2622642 21.3782258,31.0641509 C21.2991935,30.7075472 20.9830645,30.4698113 20.6274194,30.4698113 C20.5483871,30.4698113 20.508871,30.4698113 20.4298387,30.509434 C19.9951613,30.6283019 19.7580645,31.0641509 19.8766129,31.4603774 C20.1927419,32.609434 21.5758065,34.7886792 24.6185484,34.7886792 C27.7403226,34.7886792 29.083871,32.609434 29.3604839,31.4207547 C29.4,30.9849057 29.1233871,30.5490566 28.7282258,30.4698113 Z" opacity=".8"/><path id="Shape" fill="#E2A586" d="M13.158871,13.6698113 C12.8822581,13.6698113 12.6056452,13.5113208 12.4475806,13.2339623 C12.25,12.8377358 12.4080645,12.3622642 12.8032258,12.1641509 C12.9612903,12.0849057 17.0709677,9.98490566 24.5395161,9.98490566 C32.3241935,9.98490566 36.1572581,12.0849057 36.3153226,12.1641509 C36.7104839,12.3622642 36.8290323,12.8773585 36.6314516,13.2339623 C36.433871,13.6301887 35.9201613,13.7490566 35.5645161,13.5509434 C35.525,13.5509434 31.8895161,11.5698113 24.5790323,11.5698113 C17.5056452,11.5698113 13.5935484,13.5509434 13.5540323,13.590566 C13.3959677,13.6301887 13.2774194,13.6698113 13.158871,13.6698113 Z"/><path id="Shape" fill="#E2A586" d="M34.4185484,9.19245283 C34.3,9.19245283 34.1419355,9.15283019 34.0233871,9.07358491 C33.983871,9.07358491 30.8620968,7.36981132 24.5395161,7.36981132 C18.4540323,7.36981132 15.0556452,9.07358491 15.016129,9.11320755 C14.6209677,9.31132075 14.1467742,9.15283019 13.9491935,8.75660377 C13.7516129,8.36037736 13.9096774,7.88490566 14.3048387,7.68679245 C14.4629032,7.60754717 18.058871,5.78490566 24.5395161,5.78490566 C31.3362903,5.78490566 34.6556452,7.60754717 34.8137097,7.68679245 C35.208871,7.88490566 35.3274194,8.4 35.1298387,8.75660377 C34.9717742,9.03396226 34.6951613,9.19245283 34.4185484,9.19245283 Z"/></g></g></g></svg>