<svg xmlns="http://www.w3.org/2000/svg" xmlns:xlink="http://www.w3.org/1999/xlink" width="48" height="47" version="1.1" viewBox="0 0 48 47"><title>Group 6</title><desc>Created with Sketch.</desc><g id="Page-1" fill="none" fill-rule="evenodd" stroke="none" stroke-width="1"><g id="Coverfox_Insurance_7.18" fill-rule="nonzero" transform="translate(-42.000000, -342.000000)"><g id="Group-6" transform="translate(42.000000, 342.000000)"><path id="Shape" fill="#4C2D18" d="M34.6926829,10.7206612 C34.6926829,16.5859504 29.9317073,21.3247934 24.0390244,21.3247934 C18.1463415,21.3247934 13.3853659,16.5859504 13.3853659,10.7206612 C13.3853659,4.8553719 18.1463415,0.116528926 24.0390244,0.116528926 C29.9317073,0.116528926 34.6926829,4.8553719 34.6926829,10.7206612 Z"/><ellipse id="Oval" cx="42.146" cy="31.036" fill="#F9C19B" rx="5.854" ry="5.865"/><ellipse id="Oval" cx="5.932" cy="31.036" fill="#F9C19B" rx="5.854" ry="5.865"/><path id="Shape" fill="#FFD5AB" d="M43.5512195,27.4231405 C43.5512195,38.1438017 34.8097561,46.8446281 24.0390244,46.8446281 C13.2682927,46.8446281 4.52682927,38.1438017 4.52682927,27.4231405 C4.52682927,16.7024793 13.2682927,8.00165289 24.0390244,8.00165289 C34.8097561,8.00165289 43.5512195,16.7024793 43.5512195,27.4231405 Z"/><path id="Shape" fill="#442106" d="M16.1560976,30.5305785 C16.1560976,31.8123967 15.1414634,32.822314 13.8926829,32.822314 C12.6439024,32.822314 11.6292683,31.7735537 11.6292683,30.5305785 C11.6292683,29.2876033 12.6439024,28.238843 13.8926829,28.238843 C15.1414634,28.238843 16.1560976,29.2876033 16.1560976,30.5305785 Z"/><path id="Shape" fill="#442106" d="M31.9219512,30.5305785 C31.9219512,31.8123967 32.9365854,32.822314 34.1853659,32.822314 C35.4341463,32.822314 36.4097561,31.7735537 36.4097561,30.5305785 C36.4097561,29.2876033 35.395122,28.238843 34.1853659,28.238843 C32.9365854,28.238843 31.9219512,29.2876033 31.9219512,30.5305785 Z"/><path id="Shape" fill="#935D4A" d="M28.1365854,37.7165289 C27.7073171,37.638843 27.2780488,37.8719008 27.2,38.2991736 C27.1609756,38.3768595 26.6926829,40.3966942 24.0390244,40.3966942 C21.5804878,40.3966942 20.9560976,38.4933884 20.8780488,38.2991736 C20.8,37.9495868 20.4878049,37.7165289 20.1365854,37.7165289 C20.0585366,37.7165289 20.0195122,37.7165289 19.9414634,37.7553719 C19.5121951,37.8719008 19.2780488,38.2991736 19.395122,38.6876033 C19.7073171,39.8140496 21.0731707,41.9504132 24.0780488,41.9504132 C27.1609756,41.9504132 28.4878049,39.8140496 28.7609756,38.6487603 C28.8,38.2214876 28.5658537,37.7942149 28.1365854,37.7165289 Z"/><path id="Shape" fill="#59351C" d="M34.7707317,10.2933884 C31.5707317,8.31239669 27.8634146,7.26363636 24.0780488,7.26363636 C13.0341463,7.26363636 3.94146341,16.1975207 3.78536585,27.1900826 C3.78536585,27.4231405 3.86341463,27.6173554 4.0195122,27.7727273 C4.17560976,27.8892562 4.37073171,27.9669421 4.56585366,27.9669421 C4.60487805,27.9669421 4.60487805,27.9669421 4.64390244,27.9669421 C17.6780488,26.8793388 27.902439,20.0818182 29.8536585,17.168595 C31.8439024,20.0429752 37.0731707,25.6363636 43.395122,26.685124 C43.4341463,26.685124 43.4731707,26.685124 43.5121951,26.685124 C43.7073171,26.685124 43.902439,26.607438 44.0195122,26.4909091 C44.2146341,26.3355372 44.2926829,26.1024793 44.2536585,25.8694215 C43.8243902,19.4991736 40.2341463,13.6727273 34.7707317,10.2933884 Z"/><ellipse id="Oval" cx="13.034" cy="36.745" fill="#FCB19A" rx="3.629" ry="2.797"/><ellipse id="Oval" cx="35.044" cy="36.745" fill="#FCB19A" rx="3.629" ry="2.797"/></g></g></g></svg>