<svg xmlns="http://www.w3.org/2000/svg" xmlns:xlink="http://www.w3.org/1999/xlink" width="49" height="47" version="1.1" viewBox="0 0 49 47"><title>Group 10</title><desc>Created with Sketch.</desc><g id="Page-1" fill="none" fill-rule="evenodd" stroke="none" stroke-width="1"><g id="Coverfox_Insurance_7.18" fill-rule="nonzero" transform="translate(-156.000000, -463.000000)"><g id="Group-10" transform="translate(156.000000, 463.000000)"><circle id="Oval" cx="42.308" cy="30.769" r="5.769" fill="#F9C19B"/><circle id="Oval" cx="5.769" cy="30.769" r="5.769" fill="#F9C19B"/><circle id="Oval" cx="24.519" cy="26.442" r="19.712" fill="#FFD5AB" transform="translate(24.519231, 26.442308) rotate(-80.723244) translate(-24.519231, -26.442308)"/><path id="Shape" fill="#442106" d="M16.3461538,29.3269231 C16.3461538,30.6273644 15.2868318,31.7307692 13.9423077,31.7307692 C12.6385267,31.7307692 11.5384615,30.6667718 11.5384615,29.3269231 C11.5384615,28.0264817 12.5977836,26.9230769 13.9423077,26.9230769 C15.2460887,26.9230769 16.3461538,27.9870744 16.3461538,29.3269231 Z"/><path id="Shape" fill="#442106" d="M32.6923077,29.3269231 C32.6923077,30.6273644 33.7516297,31.7307692 35.0961538,31.7307692 C36.3999348,31.7307692 37.5,30.6667718 37.5,29.3269231 C37.5,28.0264817 36.440678,26.9230769 35.0961538,26.9230769 C33.7516297,26.9230769 32.6923077,27.9870744 32.6923077,29.3269231 Z"/><path id="Shape" fill="#935D4A" d="M29.178571,35.5939847 C28.7695481,35.5044402 28.3196228,35.7730737 28.2378182,36.2655684 C28.1969159,36.3551129 27.7060884,38.6384977 25.0065369,38.6384977 C22.4705945,38.6384977 21.8161578,36.4894297 21.7752555,36.2655684 C21.6934509,35.8626182 21.3662326,35.5939847 20.9981119,35.5939847 C20.9163073,35.5939847 20.875405,35.5939847 20.7936004,35.6387569 C20.3845775,35.7730737 20.0982614,36.2655684 20.2209683,36.7132909 C20.5481866,37.9669139 21.9388647,40.3846154 25.0065369,40.3846154 C28.1560136,40.3846154 29.5057894,37.9669139 29.7921054,36.6685187 C29.87391,36.1760239 29.6284963,35.6835292 29.178571,35.5939847 Z"/><path id="Shape" fill="#59351C" d="M24.5192308,16.3461538 C26.8830128,16.3461538 28.8461538,14.5559092 28.8461538,11.3822938 C28.8461538,10.6092336 28.7259615,9.02242593 28.4855769,8.29005313 C28.4855769,8.29005313 28.4855769,8.24936576 28.4855769,8.24936576 C26.6826923,2.30900866 27.8044872,0.925637834 27.7644231,0.925637834 C27.9246795,0.762888325 27.9647436,0.478076684 27.8846154,0.274639797 C27.8044872,0.030515533 27.6041667,-0.0508592217 27.4038462,0.030515533 C20.5929487,3.28550572 20.2724359,9.55136183 20.2323718,9.83617347 C20.2323718,9.87686085 20.2323718,9.87686085 20.2323718,9.91754823 C20.1923077,10.1616725 20.1923077,11.1788569 20.1923077,11.3822938 C20.1923077,14.5559092 22.1153846,16.3461538 24.5192308,16.3461538 Z"/><path id="Shape" fill="#F27288" d="M25,11.7271611 C25,12.1471976 24.3102889,12.4832269 23.4582928,12.4832269 L18.5491723,15.2134644 C17.0886076,16.0955412 15.3846154,13.4493109 15.3846154,10.0050113 C15.3846154,6.60271528 17.2914638,4.25051063 18.5491723,4.9225691 L23.4582928,7.65280663 C24.3102889,7.65280663 25,7.98883587 25,8.40887241 L25,11.7271611 Z"/><path id="Shape" fill="#F27288" d="M25,11.7271611 C25,12.1471976 25.6897111,12.4832269 26.5417072,12.4832269 L31.4508277,15.2134644 C32.9113924,16.0955412 34.6153846,13.4493109 34.6153846,10.0050113 C34.6153846,6.60271528 32.7085362,4.25051063 31.4508277,4.9225691 L26.5417072,7.65280663 C25.6897111,7.65280663 25,7.98883587 25,8.40887241 L25,11.7271611 Z"/><circle id="Oval" cx="25" cy="9.615" r="3.846" fill="#FF8A98"/><ellipse id="Oval" cx="13.462" cy="35.577" fill="#FCB19A" rx="3.846" ry="2.885"/><ellipse id="Oval" cx="35.577" cy="35.577" fill="#FCB19A" rx="3.846" ry="2.885"/></g></g></g></svg>