<svg xmlns="http://www.w3.org/2000/svg" xmlns:xlink="http://www.w3.org/1999/xlink" width="49" height="47" version="1.1" viewBox="0 0 49 47"><title>Group</title><desc>Created with Sketch.</desc><g id="Page-1" fill="none" fill-rule="evenodd" stroke="none" stroke-width="1"><g id="Coverfox_Insurance_7.18" fill-rule="nonzero" transform="translate(-156.000000, -220.000000)"><g id="Group" transform="translate(156.000000, 220.000000)"><path id="Shape" fill="#AAA6A3" d="M36,11 C36,17.0842491 31.0842491,22 25,22 C18.9157509,22 14,17.0842491 14,11 C14,4.91575092 18.9157509,0 25,0 C31.043956,0 36,4.91575092 36,11 Z"/><circle id="Oval" cx="43" cy="32" r="6" fill="#F9C19B"/><circle id="Oval" cx="6" cy="32" r="6" fill="#F9C19B"/><path id="Shape" fill="#FFD5AB" d="M45,27.5 C45,38.264 36.04,47 25,47 C13.96,47 5,38.264 5,27.5 C5,16.736 13.96,8 25,8 C36.04,8 45,16.736 45,27.5 Z"/><path id="Shape" fill="#442106" d="M17,30.5 C17,31.8983051 15.8793103,33 14.5,33 C13.1206897,33 12,31.8559322 12,30.5 C12,29.1440678 13.1206897,28 14.5,28 C15.8793103,28 17,29.1440678 17,30.5 Z"/><path id="Shape" fill="#442106" d="M33,30.5 C33,31.8983051 34.1304348,33 35.5217391,33 C36.9130435,33 38,31.8559322 38,30.5 C38,29.1440678 36.8695652,28 35.5217391,28 C34.1304348,28 33,29.1440678 33,30.5 Z"/><path id="Shape" fill="#935D4A" d="M29.331782,38.0139357 C28.875094,37.9407969 28.418406,38.1602133 28.3353718,38.5624767 C28.2938547,38.6356155 27.7956495,40.5372241 24.9724871,40.5372241 C22.3569101,40.5372241 21.6926366,38.7453236 21.6096024,38.5624767 C21.5265682,38.2333521 21.1944315,38.0139357 20.8207776,38.0139357 C20.7377434,38.0139357 20.6962263,38.0139357 20.6131922,38.0505051 C20.1565041,38.1602133 19.9074016,38.5624767 20.0319528,38.9281706 C20.3640896,39.9886832 21.8171879,42 25.0140042,42 C28.2938547,42 29.7054359,39.9886832 29.9960555,38.8916012 C30.0375726,38.4893379 29.746953,38.0870745 29.331782,38.0139357 Z"/><path id="Shape" fill="#BFBBB8" d="M35.384912,10.0731707 C32.1436491,8.06378987 28.3885274,7 24.5543504,7 C13.3680405,7 4.15811039,16.0619137 4,27.2120075 C4,27.4484053 4.07905519,27.6454034 4.23716558,27.8030019 C4.39527597,27.9212008 4.59291396,28 4.79055194,28 C4.83007954,28 4.83007954,28 4.86960713,28 C18.0718245,26.8968105 28.428055,20.0018762 30.4044348,17.0469043 C32.4203423,19.9624765 37.7170403,25.6360225 44.120511,26.6998124 C44.1600386,26.6998124 44.1995662,26.6998124 44.2390938,26.6998124 C44.4367317,26.6998124 44.6343697,26.6210131 44.7529525,26.5028143 C44.9505905,26.3452158 45.0296457,26.108818 44.9901181,25.8724203 C44.5157869,19.4108818 40.9187756,13.5009381 35.384912,10.0731707 Z"/><path id="Shape" fill="#E2A586" d="M16.7444041,41 C16.7077473,41 16.6710905,41 16.6344337,41 C16.2312089,40.9617345 15.9379545,40.5790795 16.0112681,40.1581591 C16.3045225,37.8622293 17.9174216,37.0586539 17.9907352,37.0586539 C18.3573032,36.9055919 18.7971848,37.0586539 18.943812,37.4413088 C19.0904392,37.8239638 18.943812,38.2831498 18.577244,38.4362117 C18.5405872,38.4744772 17.6241672,38.9336632 17.4408833,40.3494866 C17.4042265,40.693876 17.1109721,41 16.7444041,41 Z"/><path id="Shape" fill="#E2A586" d="M32.3018907,41 C31.9362879,41 31.6072454,40.7357531 31.5706852,40.3205081 C31.3878838,38.9237747 30.4373166,38.4330305 30.4373166,38.4330305 C30.0717139,38.2820323 29.8889125,37.8290377 30.0717139,37.4515422 C30.217955,37.0740467 30.6566783,36.8852989 31.022281,37.0740467 C31.0954016,37.1117962 32.740614,37.8667872 32.9965359,40.1317603 C33.0330962,40.5470054 32.7771743,40.9245009 32.3750112,40.9622504 C32.3750112,41 32.3384509,41 32.3018907,41 Z"/><path id="Shape" fill="#442106" d="M17.2067039,36 L10.7932961,36 C8.72067039,36 7,34.3107143 7,32.1892857 L7,28.8107143 C7,26.7285714 8.68156425,25 10.7932961,25 L17.2067039,25 C19.2793296,25 21,26.6892857 21,28.8107143 L21,32.1892857 C21,34.3107143 19.3184358,36 17.2067039,36 Z M10.7932961,26.6107143 C9.58100559,26.6107143 8.56424581,27.6321429 8.56424581,28.85 L8.56424581,32.2285714 C8.56424581,33.4464286 9.58100559,34.4678571 10.7932961,34.4678571 L17.2067039,34.4678571 C18.4189944,34.4678571 19.4357542,33.4464286 19.4357542,32.2285714 L19.4357542,28.85 C19.4357542,27.6321429 18.4189944,26.6107143 17.2067039,26.6107143 L10.7932961,26.6107143 Z"/><path id="Shape" fill="#442106" d="M38.2067039,36 L31.7932961,36 C29.7206704,36 28,34.3107143 28,32.1892857 L28,28.8107143 C28,26.7285714 29.6815642,25 31.7932961,25 L38.2067039,25 C40.2793296,25 42,26.6892857 42,28.8107143 L42,32.1892857 C42,34.3107143 40.3184358,36 38.2067039,36 Z M31.7932961,26.6107143 C30.5810056,26.6107143 29.5642458,27.6321429 29.5642458,28.85 L29.5642458,32.2285714 C29.5642458,33.4464286 30.5810056,34.4678571 31.7932961,34.4678571 L38.2067039,34.4678571 C39.4189944,34.4678571 40.4357542,33.4464286 40.4357542,32.2285714 L40.4357542,28.85 C40.4357542,27.6321429 39.4189944,26.6107143 38.2067039,26.6107143 L31.7932961,26.6107143 Z"/><rect id="Rectangle-path" width="8" height="2" x="20" y="29" fill="#442106"/></g></g></g></svg>