<svg xmlns="http://www.w3.org/2000/svg" xmlns:xlink="http://www.w3.org/1999/xlink" width="45" height="42" version="1.1" viewBox="0 0 45 42"><title>Group 5</title><desc>Created with Sketch.</desc><g id="Page-1" fill="none" fill-rule="evenodd" stroke="none" stroke-width="1"><g id="Coverfox_Insurance_7.18" fill-rule="nonzero" transform="translate(-272.000000, -223.000000)"><g id="Group-5" transform="translate(272.000000, 223.000000)"><circle id="Oval" cx="39.5" cy="24.5" r="5.5" fill="#F9C19B"/><circle id="Oval" cx="5.5" cy="24.5" r="5.5" fill="#F9C19B"/><path id="Shape" fill="#FFD5AB" d="M41,21.5 C41,31.712 32.712,40 22.5,40 C12.288,40 4,31.712 4,21.5 C4,11.288 12.288,3 22.5,3 C32.712,3 41,11.288 41,21.5 Z"/><path id="Shape" fill="#59351C" d="M36.2983871,26.8755187 C34.8467742,30.7219917 33.4314516,31.7302905 31,32.439834 C30.5282258,30.1991701 28.5322581,28.8921162 25.5564516,28.8921162 L18.4435484,28.8921162 C15.4677419,28.8921162 13.4717742,30.1991701 13,32.439834 C10.3870968,32.4024896 8.5,29.340249 7.7016129,26.9502075 C7.30241935,25.7925311 6.25,24.560166 5.30645161,24.373444 L4,24 C4,35.6141079 11.9112903,42 22,42 C32.0887097,42 40,35.8008299 40,24.0373444 C40,24.0373444 39.6008065,24.186722 38.6935484,24.373444 C37.75,24.5228216 36.6975806,25.7178423 36.2983871,26.8755187 Z"/><path id="Shape" fill="#442106" d="M15,23.000456 C15,24.118845 14.0956522,25 12.9826087,25 C11.8695652,25 11,24.0849545 11,23.000456 C11,21.9159576 11.9043478,21.0009121 12.9826087,21.0009121 C14.0956522,20.9670215 15,21.882067 15,23.000456 Z"/><path id="Shape" fill="#442106" d="M30,23.000456 C30,24.118845 30.8965517,25 32,25 C33.1034483,25 34,24.0849545 34,23.000456 C34,21.9159576 33.1034483,21.0009121 32,21.0009121 C30.8965517,20.9670215 30,21.882067 30,23.000456 Z"/><path id="Shape" fill="#59351C" d="M45,16.3043478 C45,14.6376812 43.8587329,13.2608696 42.2756849,12.8623188 C42.7910959,12.3913043 43.1224315,11.7028986 43.1224315,10.9782609 C43.1224315,9.52898551 41.9075342,8.36956522 40.4349315,8.36956522 L39.0359589,8.36956522 C39.5145548,7.97101449 39.8458904,7.39130435 39.8458904,6.70289855 C39.8458904,5.47101449 38.8518836,4.49275362 37.6001712,4.49275362 L35.4280822,4.49275362 C32.1515411,1.66666667 27.7705479,0 22.8373288,0 C12.9708904,0 5.53424658,6.48550725 3.9880137,15.8695652 C2.88356164,15.9057971 2,16.7753623 2,17.8623188 C2,18.9855072 2.92037671,19.8550725 4.06164384,19.8550725 C4.39297945,19.8550725 4.72431507,19.7463768 5.01883562,19.6014493 C6.56506849,19.0942029 10.0256849,17.3188406 15.7688356,11.2318841 C16.9101027,12.2826087 21.8065068,16.557971 26.8869863,18.115942 C31.8938356,19.673913 36.0171233,20 38.5941781,20 C40.2140411,20 41.244863,19.8913043 41.5761986,19.8188406 C43.4537671,19.7463768 45,18.1884058 45,16.3043478 Z"/><path id="Shape" fill="#FFF" d="M27.8148148,32 L18.1851852,32 C18.0740741,32 18,32.0740741 18,32.1851852 C18,34.2962963 20.2592593,36 23,36 C25.7407407,36 28,34.2962963 28,32.1851852 C28,32.0740741 27.9259259,32 27.8148148,32 Z"/></g></g></g></svg>