<?xml version="1.0" encoding="UTF-8" standalone="no"?>
<svg width="142px" height="142px" viewBox="0 0 142 142" version="1.1" xmlns="http://www.w3.org/2000/svg" xmlns:xlink="http://www.w3.org/1999/xlink">
    <!-- Generator: Sketch 48.2 (47327) - http://www.bohemiancoding.com/sketch -->
    <title>Car_Insurance_ICON</title>
    <desc>Created with Sketch.</desc>
    <defs></defs>
    <g id="Recomendations-Copy" stroke="none" stroke-width="1" fill="none" fill-rule="evenodd" transform="translate(-681.000000, -727.000000)">
        <g id="Car_Insurance_ICON" transform="translate(682.000000, 728.000000)">
            <circle id="Oval-3" stroke="#D0021B" stroke-width="2" fill="#FFFFFF" cx="70" cy="70" r="70"></circle>
            <g id="Page-1" transform="translate(25.000000, 41.000000)" fill="#333333">
                <path d="M13.7752533,21.8177895 L14,20.6357971 C13.5453152,19.6383653 12.5745133,19.0013406 11.5072369,19 C9.83169518,19.1266899 6.8788395,19.2428782 5.25434706,20.4351489 C5.05447609,20.9099568 4.97033128,21.4283353 5.00926718,21.9444795 C5.08086598,21.9867094 10.7713483,22.0921727 13.7752533,21.8177895" id="Fill-1"></path>
                <polygon id="Fill-3" points="13.1562197 32.5 12.5 36.6610412 30.5 38.5 26.7222001 32.8391219"></polygon>
                <path d="M17.7498712,49 C18.992618,49 20,50.0072667 20,51.2498713 C20,52.4924758 18.992618,53.5 17.7498712,53.5 C16.507382,53.5 15.5,52.4924758 15.5,51.2498713 C15.5,50.0072667 16.507382,49 17.7498712,49" id="Fill-5"></path>
                <path d="M20.00634,52.5823685 C20.0987798,51.3431366 21.1784458,50.4139057 22.4172422,50.5063396 C23.6565535,50.599031 24.5861014,51.6781129 24.4936616,52.9173448 C24.4009643,54.1563193 23.3215558,55.0863225 22.0825019,54.9936312 C20.8431906,54.9011973 19.9139002,53.8216005 20.00634,52.5823685" id="Fill-7"></path>
                <path d="M82.1923485,27.7341354 L83.1127272,33.7977446 L63.3078979,35.8815933 L62.3557125,37.3297214 L62.1229859,37.3297214 L59.6261592,37.3714117 L63.1916466,28.2655202 L67.5079517,28.1300821 L68.4496095,28.1300821 L82.1923485,27.7341354 Z M80.9969089,49.4359845 C80.9969089,49.4359845 57.3199486,50.7905854 45.0264309,50.7905854 C32.7329132,50.7905854 9.05595293,49.4359845 9.05595293,49.4359845 L7.47972882,43.7996447 C7.47972882,43.7996447 30.5218988,45.3207859 45.0264309,45.3207859 C59.530963,45.3207859 82.573357,43.7996447 82.573357,43.7996447 L80.9969089,49.4359845 Z M7.95570953,27.6926658 L21.7092001,28.0467017 L22.6508579,28.0467017 L26.9671629,28.1821397 L30.4269267,37.3714117 L27.9298759,37.319354 L27.6758702,37.319354 L26.7239088,35.8712259 L6.94013469,33.7977446 L7.95570953,27.6926658 Z M37.525647,28.5154408 L40.2549763,28.5884538 L41.2284409,37.5172171 L39.2394015,37.5172171 L37.525647,28.5154408 Z M34.3516956,37.3921465 L32.0136784,37.3714117 L28.4589425,28.2758876 L31.5376977,28.3696354 L34.3516956,37.3921465 Z M33.1457285,28.3905908 L35.970478,28.4739712 L37.6208431,37.4964823 L35.8434751,37.4964823 L33.1457285,28.3905908 Z M44.3387788,28.6614668 L44.3387788,37.5589073 L42.6671346,37.5589073 L41.693894,28.6405114 L44.3387788,28.6614668 Z M48.454164,28.6614668 L47.4388131,37.5796421 L45.7671689,37.5796421 L45.7671689,28.703157 L48.454164,28.6614668 Z M58.5577225,28.3905908 L61.6364777,28.296843 L58.0394075,37.3714117 L55.7542521,37.3714117 L58.5577225,28.3905908 Z M50.9615184,37.5275845 L48.972479,37.5275845 L49.9459435,28.5988212 L52.6754969,28.5260288 L50.9615184,37.5275845 Z M54.1354697,28.5154408 L56.9602192,28.432281 L54.1988591,37.4651595 L52.4217152,37.4651595 L54.1354697,28.5154408 Z M15.5519136,11.3249576 C16.059701,10.0643251 16.6098227,8.83479486 17.2764197,7.62621998 C17.6041184,7.03241024 17.9217376,6.4386005 18.3343288,5.86552557 C18.7469201,5.29267122 18.94784,4.89672453 19.2757627,4.42776484 C19.7412158,4.2923268 20.1224484,4.16747676 20.5558708,4.06314095 C20.9899652,3.95902572 21.6140039,3.82358769 22.1215673,3.72983986 C23.1797004,3.55271162 24.2378336,3.4066856 25.2955187,3.31315836 C26.3536518,3.21918996 27.4644228,3.12544213 28.5646662,3.07338452 L31.8443412,2.90662369 C34.0343005,2.82324327 39.5357415,2.66707042 45.0477101,2.66707042 C50.5594547,2.66707042 56.0503681,2.82324327 58.2508549,2.90662369 L61.53053,3.07338452 C62.5884391,3.13580954 63.7099616,3.20882255 64.7999014,3.31315836 C65.8893933,3.41727359 66.9154957,3.55271162 67.9736288,3.72983986 C68.5024714,3.81322028 69.0315379,3.93829091 69.5393253,4.06314095 C70.0468888,4.18821157 70.3537563,4.2923268 70.8196574,4.42776484 C71.1471322,4.89672453 71.4752789,5.36546365 71.7610913,5.86552557 C72.0466797,6.36558749 72.4379918,7.03241024 72.8187764,7.62621998 C73.4430391,8.83479486 74.0354951,10.0539577 74.5435065,11.3249576 C75.4275987,13.5093922 76.1694566,15.7467667 76.7652724,18.0240668 L13.2880374,18.0240668 C13.8972927,15.7458844 14.653486,13.5082893 15.5519136,11.3249576 Z M80.4573148,18.7950048 C79.8368599,18.7471382 79.2253647,18.6211853 78.6378365,18.4200135 C78.2886347,17.1490136 77.9076261,15.8987485 77.4845073,14.6692182 C77.0613884,13.4399085 76.553601,12.0228826 76.0245345,10.7205599 C75.4956919,9.41823719 74.9664014,8.13686989 74.2789732,6.87623739 C73.940299,6.25110485 73.6229038,5.6156049 73.2208401,5.01120717 C72.8187764,4.40703002 72.533188,3.79226489 72.1100691,3.19845514 L71.9620111,2.9900041 L71.6233369,2.87552147 C71.1896904,2.72971603 70.5654277,2.510677 70.0468888,2.35450415 C69.5285738,2.19811072 68.9892036,2.05230529 68.3859961,1.91686726 C67.328087,1.6563586 66.1642301,1.42717274 65.0534592,1.26063249 C58.4085445,0.454621797 51.7215196,0.0335286332 45.0264309,0 C38.3320143,0.0266905567 31.6447653,0.440725061 24.9994027,1.2396771 C23.9414936,1.41680534 22.7776367,1.64599119 21.6668658,1.89613244 C21.1167441,2.03157047 20.6087327,2.16700851 20.0059731,2.33376934 C19.4029895,2.50030959 18.8633954,2.70876063 18.429525,2.85456607 L18.0908507,2.9900041 L17.9427927,3.20882255 C17.5514806,3.81322028 17.1386653,4.39666262 16.7896875,5.02179516 C16.4404856,5.64670712 16.0915078,6.26147226 15.7317783,6.8866048 C15.0969881,8.14723729 14.5255872,9.43919259 13.9862171,10.7309273 C13.446623,12.0228826 12.928084,13.3461607 12.5262443,14.6795856 C12.1241806,16.0132311 11.7221169,17.159381 11.372915,18.4303809 C10.7851628,18.6315527 10.1736676,18.7577262 9.55321278,18.8053722 C7.26693745,19.0054411 4.97192647,19.0923508 2.6766915,19.0658808 L0,19.0658808 C0.113563397,19.4333723 0.27730076,19.7838789 0.486732271,20.1076949 C0.486732271,20.1076949 2.35929637,20.9516459 9.3946272,21.2955349 C8.0403781,23.1186544 6.94013469,24.4209771 6.11495214,25.3483085 C4.89106575,26.7163649 4.21080532,28.4739712 4.20027775,30.2970906 L4.06229934,49.4882627 L4.06229934,49.5714225 L4.06229934,54.9997523 C4.06229934,56.1044326 4.97192647,57 6.09389699,57 L14.6633416,57 C15.7850882,57 16.6944913,56.1044326 16.6944913,54.9997523 L16.6944913,54.0097753 L73.4114564,54.0097753 L73.4114564,54.9997523 C73.4114564,56.1044326 74.3206355,57 75.4426061,57 L84.0120507,57 C85.1340212,57 86.0434244,56.1044326 86.0434244,54.9997523 L86.0434244,49.5714225 L86.0434244,49.4882627 L85.7999462,30.2242982 C85.7891947,28.4009582 85.1089343,26.6433519 83.8852719,25.275516 C83.0598653,24.3689195 81.9701495,23.0458619 80.6055968,21.2225219 C87.6407036,20.8892208 89.5134917,20.0349024 89.5134917,20.0349024 C89.7226992,19.7108658 89.8864366,19.3603593 90,18.9930884 L87.3235325,18.9930884 C85.0330013,19.039852 82.7413502,18.9738977 80.4573148,18.7950048 Z" id="Fill-9"></path>
                <path d="M94.7531097,20.463642 C93.1272322,19.2421196 90.2026011,19.115932 88.495105,19 C87.4267021,19.0011147 86.4550725,19.6369574 86,20.6321894 L86.2249383,21.8115749 C89.2314045,22.0853529 94.9269552,21.9801223 94.9884397,21.9801223 C95.0321717,21.4622182 94.9514191,20.9416387 94.7531097,20.463642" id="Fill-11"></path>
                <polygon id="Fill-13" points="69.5 38.5 87.5 36.6608237 86.8440044 32.5 73.2775759 32.8389044"></polygon>
                <path d="M83.7501288,49 C84.992618,49 86,50.0072667 86,51.2498713 C86,52.4924758 84.992618,53.5 83.7501288,53.5 C82.507382,53.5 81.5,52.4924758 81.5,51.2498713 C81.5,50.0072667 82.507382,49 83.7501288,49" id="Fill-15"></path>
                <path d="M77.5826228,50.5063404 C78.8219867,50.4138953 79.9011836,51.3432386 79.9936273,52.5826204 C80.0863286,53.8217447 79.1567412,54.900957 77.9176347,54.9936596 C76.6782707,55.0861047 75.5988164,54.1567614 75.5063727,52.9173796 C75.4136714,51.6782553 76.3432588,50.5987854 77.5826228,50.5063404" id="Fill-17"></path>
            </g>
        </g>
    </g>
</svg>