<?xml version="1.0" encoding="UTF-8" standalone="no"?>
<svg width="142px" height="142px" viewBox="0 0 142 142" version="1.1" xmlns="http://www.w3.org/2000/svg" xmlns:xlink="http://www.w3.org/1999/xlink">
    <!-- Generator: Sketch 48.2 (47327) - http://www.bohemiancoding.com/sketch -->
    <title>Child_Education_ICON</title>
    <desc>Created with Sketch.</desc>
    <defs></defs>
    <g id="Recomendations-Copy" stroke="none" stroke-width="1" fill="none" fill-rule="evenodd" transform="translate(-665.000000, -507.000000)">
        <g id="Child_Education_ICON" transform="translate(666.000000, 508.000000)">
            <circle id="Oval-3" stroke="#D0021B" stroke-width="2" fill="#FFFFFF" cx="70" cy="70" r="70"></circle>
            <g id="Page-1" transform="translate(23.000000, 30.000000)" fill="#333333">
                <path d="M83.1008989,13.0103739 C80.5784424,13.7895804 78.1747359,14.5495804 75.5735946,15.248037 C75.591975,14.3399609 75.5471598,13.0454826 75.5735946,12.4308739 C68.8515185,11.6514609 61.2451163,10.8683304 54.3018554,10.1581022 C53.2494207,10.0498848 52.0767902,10.113287 51.2108446,9.88611304 C50.5708337,9.71635217 50.0411054,9.04515652 49.3027902,8.79361304 C47.4230293,8.1585587 43.0666598,8.51356957 43.0296924,10.3396348 C42.9935511,12.0915587 46.3538663,12.5450804 48.4843446,12.1568196 C49.333975,12.0035804 49.9991815,11.4321348 50.6654207,11.3404391 C51.4427685,11.2322217 52.6211815,11.5139174 53.665975,11.6124283 C60.2726054,12.2445913 67.4634859,13.1185913 74.0263337,13.7020152 L74.0263337,15.795113 C66.0948663,18.0484717 58.1002033,20.5329283 50.0285076,22.9754609 C48.9192793,23.3100261 47.4523554,23.9471457 46.574638,23.9752326 C45.4557033,24.0113739 43.467725,23.0398957 42.1195511,22.610537 C31.9985402,19.4053196 21.8068989,16.0790804 11.7589967,12.8864609 L11.7589967,9.15833043 C23.2164098,6.04171087 35.0009533,3.1388413 46.3003772,0.068276087 C47.4963446,-0.256582609 49.8715511,0.662232609 51.391138,1.06804783 C61.6870728,3.82552609 72.8218989,6.82215652 83.1145293,9.52118913 L83.1008989,13.0103739 Z" id="Fill-1"></path>
                <path d="M75.3910293,16.506312 L75.5735946,16.506312 L75.5735946,22.9588772 C77.1348989,23.4720837 78.1359098,26.0168446 76.7546924,27.4116924 C79.2606272,28.1764424 77.9952685,32.713312 78.299888,35.6816489 C76.2883663,36.5360293 73.2002467,36.4883228 71.1176815,35.6816489 C71.4189967,32.7397467 70.1713989,28.2526489 72.6637033,27.502562 C71.417138,26.0666163 72.186638,23.2593663 74.0273663,23.0487141 L74.0273663,16.9588011 C74.4271924,16.7520728 74.9794315,16.6994098 75.3910293,16.506312" id="Fill-3"></path>
                <path d="M67.3025848,20.6109315 C60.2209543,22.5590511 53.3625739,24.7302141 46.3939109,26.7913011 C39.2538348,24.4493446 32.0569652,22.1619098 24.8501826,19.8833554 C24.745063,19.8980185 24.7518783,20.0277141 24.7607587,20.1553446 C24.7566283,26.2450511 24.7673674,32.0567793 24.7607587,37.9680511 C32.5078022,44.9042902 52.7060413,46.407562 63.3024652,40.7870728 C64.4717913,40.1666815 67.1828022,38.7425076 67.3036174,37.786725 L67.3036174,20.6109315 L67.3025848,20.6109315 Z" id="Fill-5"></path>
                <path d="M47.3928152,79.0548696 C32.546587,72.0872391 17.5248152,65.2920543 2.57801087,58.4212826 C-0.612543478,55.2997065 -0.826086957,46.7587935 1.85126087,42.8753587 C8.4911413,39.7893043 15.1388696,36.7117174 21.8497935,33.6975326 C21.9328152,35.4738261 21.4976739,37.5495761 21.8497935,39.2399565 C22.0908043,40.3921413 25.4678478,41.9984674 26.5768696,42.6052283 C31.630663,45.3608478 38.7232391,47.2416413 46.0291522,47.2416413 C56.9510543,47.2416413 65.0981304,44.4732174 70.2085109,39.3326848 L70.2085109,38.0607174 C73.5611848,39.4057935 78.6645435,38.7201413 81.2983152,37.2422717 L81.2983152,30.6990435 C85.6916522,33.0624783 89.9961848,35.5147174 94.3878696,37.8783587 C78.2930109,45.8135435 62.0645326,53.6111848 45.9384891,61.5122935 C32.0587826,55.7280326 18.2945217,49.8254348 4.48895652,43.9678587 C1.92746739,46.4719348 1.94584783,53.5106087 4.12506522,56.4213261 C17.3715761,62.4426739 46.3569022,75.9607609 46.8475978,75.9642717 C47.4074783,75.9684022 49.0092609,74.9531413 49.8481522,74.5109783 C64.1429674,66.9619891 78.8080761,59.451 93.1159022,51.9674783 C93.4651304,51.8621522 93.2288696,51.1725761 93.299087,50.7843152 C93.7850326,51.1785652 94.4266957,51.4146196 94.8422174,51.8768152 C94.9136739,52.5841522 94.7038478,53.0114457 94.7515543,53.6950326 L47.3928152,79.0548696 Z" id="Fill-7"></path>
                <polygon id="Fill-10" points="45.9969761 65.6833924 5.12983478 47.5966315 5.02533478 46.8378707 45.89165 64.9242185"></polygon>
                <polygon id="Fill-12" points="46.3267087 69.5294674 5.46039348 51.4427065 5.3561 50.6847717 46.2224152 68.7707065"></polygon>
                <polygon id="Fill-14" points="46.546138 73.1298641 5.68002935 55.0443424 5.57552935 54.2851685 46.4418446 72.3706902"></polygon>
            </g>
        </g>
    </g>
</svg>