<?xml version="1.0" encoding="UTF-8" standalone="no"?>
<svg width="142px" height="142px" viewBox="0 0 142 142" version="1.1" xmlns="http://www.w3.org/2000/svg" xmlns:xlink="http://www.w3.org/1999/xlink">
    <!-- Generator: Sketch 48.2 (47327) - http://www.bohemiancoding.com/sketch -->
    <title>Critical_illness_ICON</title>
    <desc>Created with Sketch.</desc>
    <defs></defs>
    <g id="Recomendations-Copy" stroke="none" stroke-width="1" fill="none" fill-rule="evenodd" transform="translate(-425.000000, -287.000000)">
        <g id="Critical_illness_ICON" transform="translate(426.000000, 288.000000)">
            <circle id="Oval-3" stroke="#D0021B" stroke-width="2" fill="#FFFFFF" cx="70" cy="70" r="70"></circle>
            <g id="Page-1" transform="translate(23.000000, 34.000000)" fill="#333333">
                <path d="M12.5880032,42.882573 C11.944504,42.882573 11.4228427,43.4042343 11.4228427,44.0477335 L11.4228427,46.6375891 C11.4228427,47.2809358 11.944504,47.8027496 12.5880032,47.8027496 L23.1575538,47.8027496 C23.8009005,47.8027496 24.3227143,47.2809358 24.3227143,46.6375891 L24.3227143,44.0477335 C24.3227143,43.4042343 23.8009005,42.882573 23.1575538,42.882573 L12.5880032,42.882573 Z" id="Fill-1"></path>
                <path d="M28.9390586,43.1840417 L28.8902624,43.1655907 C27.3769719,42.5545714 26.6558563,40.8525008 27.2586413,39.3634559 C27.7063459,38.2574607 28.7659848,37.5429021 29.9590506,37.5429021 C30.3340185,37.5429021 30.7016669,37.6150289 31.0516268,37.7563852 L31.0699254,37.7627897 L31.1499815,37.7938973 L31.2060971,37.8149406 C31.3239703,37.8587047 31.5122929,37.9273242 31.7590185,38.0104302 C32.2224294,38.1668828 32.9688579,38.4027817 33.9052865,38.6395955 C34.2907761,38.7374928 34.7270441,38.8399647 35.2020441,38.9390819 C35.0182961,37.1292022 34.6236573,35.587549 34.6364663,34.6874125 C34.6364663,34.2423002 34.7241469,34.066634 34.7804149,34.0141782 L34.7813299,34.0132632 C34.7901742,34.0071637 34.8252464,33.9870353 34.9184165,33.9516581 C35.2528226,33.8217384 36.2461292,33.5754703 38.5058483,33.5773002 C43.2616429,33.5748604 51.0232801,34.6407512 58.6581998,36.3336726 C58.4055273,38.4808555 58.0439783,40.6742424 57.5290265,42.7370995 C56.8134005,45.6110401 55.7990506,48.2280385 54.3947889,50.102573 C54.0054872,50.6201172 53.5885851,51.078801 53.1424053,51.4746597 C52.0547087,51.5493788 50.9717392,51.610679 49.9508323,51.610069 C49.5045,51.610069 49.0692994,51.5987849 48.6530072,51.572557 L48.5924695,51.5687448 C43.8761693,51.2768828 40.9131758,49.8276372 36.7865465,49.8120835 C35.5247087,49.8192504 34.6247247,49.7007673 34.190439,49.4746276 C33.9702464,49.3623965 33.8618274,49.2558074 33.7742994,49.1048443 C33.6893636,48.9526613 33.6239462,48.7202697 33.6230313,48.3489615 C33.6175417,47.6225088 33.9049815,46.4241059 34.5170682,44.7430787 C31.7739623,44.2099807 29.7371806,43.4900851 28.9390586,43.1840417 Z M59.751996,23.5530465 L60.359508,23.5530465 C60.6943716,23.5530465 60.9665626,23.281008 60.9665626,22.945992 C60.9665626,22.6109759 60.6943716,22.3389374 60.359508,22.3389374 L60.1409928,22.3389374 L60.1409928,21.8537207 L61.1849254,21.8537207 C61.828577,21.8537207 62.3500859,21.3319069 62.3500859,20.6885602 L62.3500859,11.3672761 C62.3500859,10.7237769 61.828577,10.2021156 61.1849254,10.2021156 L60.7809848,10.2021156 C60.8518917,9.85627287 60.8884888,9.47612039 60.8930634,9.07324719 L60.8936734,9.07324719 C60.8930634,8.78870465 60.8686653,8.51864848 60.8313058,8.26002889 L63.5878307,8.26033387 L63.5878307,36.0992986 C62.7901661,35.8428138 61.9889944,35.6139294 61.1884326,35.421947 C60.5900698,35.2795233 59.9894197,35.1409117 59.3881597,35.0058074 C59.714179,31.6525971 59.789813,28.5204944 59.7937777,26.2830385 C59.7937777,25.0709117 59.771057,24.1268587 59.751996,23.5530465 Z M57.1069398,20.6885602 L57.1069398,15.2029583 C57.1069398,15.2029583 57.5421404,15.4627978 59.1460088,15.491313 L59.1460088,16.1735441 L58.4177263,16.1735441 L58.4177263,16.5137448 L59.1460088,16.5137448 L59.1460088,17.4358395 L58.4177263,17.4358395 L58.4177263,17.7755827 L59.1460088,17.7755827 L59.1460088,18.6978299 L58.4177263,18.6978299 L58.4177263,19.0380305 L59.1460088,19.0380305 L59.1460088,19.8875409 L59.7285128,19.8875409 L59.7285128,19.0380305 L60.4566429,19.0380305 L60.4566429,18.6978299 L59.7285128,18.6978299 L59.7285128,17.7755827 L60.4566429,17.7755827 L60.4566429,17.4358395 L59.7285128,17.4358395 L59.7285128,16.5137448 L60.4566429,16.5137448 L60.4566429,16.1735441 L59.7285128,16.1735441 L59.7285128,15.491313 C61.3326862,15.4624928 61.7674294,15.2029583 61.7674294,15.2029583 L61.7674294,20.6885602 C61.7674294,21.0100048 61.5065225,21.2716742 61.1849254,21.2716742 L57.6900538,21.2716742 C57.3679992,21.2716742 57.1069398,21.0100048 57.1069398,20.6885602 Z M58.8544518,9.07324719 C58.8538419,8.78336758 58.8794599,8.50827929 58.9229189,8.26002889 L59.9487055,8.26002889 C59.9941469,8.50904173 60.0231196,8.78321509 60.0188499,9.07324719 L60.0194599,9.07324719 C60.0197648,9.49335152 59.9659366,9.88341573 59.8814583,10.2021156 L58.9941308,10.2021156 C58.9079751,9.88280578 58.8481998,9.49274157 58.8544518,9.07324719 Z M59.4369559,7.14320706 C59.4369559,7.14381701 59.4579992,7.13817496 59.5275337,7.20404976 C59.5706878,7.24140931 59.6164342,7.30728411 59.6618756,7.38612039 L59.2120361,7.38612039 C59.2597648,7.30545425 59.3067311,7.24217175 59.346378,7.20404976 C59.4153026,7.13817496 59.4369559,7.14427448 59.4369559,7.14320706 Z M80.3518997,49.1121637 C80.3421404,50.5161204 79.9793716,51.1391862 79.5260249,51.5005827 C79.0667311,51.8692986 78.3195401,52.022244 77.4125417,52.0184318 C76.2954149,52.022244 75.0250377,51.7996116 73.9123331,51.7953419 C73.3055835,51.8009839 72.7183523,51.850695 72.1759526,52.1727496 C71.6178467,52.4920594 71.2767311,53.1790177 71.2991469,53.8911364 C71.2991469,53.9560963 71.3018917,54.0216661 71.3070762,54.0895233 L71.310126,54.1389294 L71.3198852,54.1842183 C71.4162576,54.6459518 71.4575819,55.0335762 71.4575819,55.347549 C71.4539222,55.9777817 71.3023491,56.2640016 71.1510811,56.4120674 C71.0005754,56.5618106 70.746378,56.6671798 70.2991308,56.6693146 C69.2518435,56.6862408 67.4776461,55.9687849 65.9221164,55.0518748 C65.8229992,54.9946918 65.7243395,54.9368989 65.6265947,54.8775811 L65.6265947,38.3765538 C72.2375578,41.0060562 78.2907199,45.2815136 80.0440265,46.5901653 C80.2587295,47.6063451 80.3518997,48.4406067 80.3518997,49.1121637 Z M60.8508242,36.8382552 C61.7602624,37.0537207 62.6754952,37.322862 63.5875257,37.6293628 L63.5875257,53.4829262 C63.0795883,53.0864575 62.6883042,52.7340578 62.487935,52.4946517 C61.9946364,51.9246517 61.3058483,51.623488 60.5502705,51.445687 C59.7888981,51.2694109 58.9291709,51.2137528 57.9965546,51.2125329 C56.774821,51.2137528 55.4208804,51.31287 54.0498612,51.4115297 C54.3350136,51.1144831 54.6055273,50.7944109 54.8607921,50.451923 C57.3731838,47.075992 58.6196204,41.6268347 59.2301822,36.4622199 C59.7719719,36.5845152 60.3125417,36.7100128 60.8508242,36.8382552 Z M69.6865867,7.20435474 C69.7559687,7.13847994 69.7774695,7.14457945 69.7774695,7.14351204 C69.7774695,7.14412199 69.7989703,7.13847994 69.8686573,7.20435474 C69.9116589,7.2415618 69.9577103,7.3074366 70.0033042,7.38673034 L69.5523973,7.38673034 C69.5999735,7.30575923 69.6475498,7.24217175 69.6865867,7.20435474 Z M69.3352544,10.2021156 C69.2487937,9.88280578 69.1887135,9.49274157 69.1946605,9.07324719 C69.1943555,8.78397753 69.2199735,8.50873676 69.2632801,8.26063884 L70.2898291,8.26063884 C70.335118,8.50934671 70.3637857,8.78336758 70.3595161,9.07324719 L70.360126,9.07324719 C70.360431,9.49335152 70.3064502,9.88311075 70.2216669,10.2021156 L69.3352544,10.2021156 Z M72.1087055,12.5740658 L72.1087055,20.6885602 C72.1087055,21.0100048 71.8471886,21.2716742 71.526049,21.2716742 L68.0305674,21.2716742 C67.7089703,21.2716742 67.447301,21.0100048 67.447301,20.6885602 L67.447301,12.5740658 C67.447301,12.5740658 67.8826541,12.8339053 69.4865225,12.8624205 L69.4865225,13.6491059 L68.75824,13.6491059 L68.75824,13.9893066 L69.4865225,13.9893066 L69.4865225,14.9115538 L68.75824,14.9115538 L68.75824,15.251297 L69.4865225,15.251297 L69.4865225,16.1735441 L68.75824,16.1735441 L68.75824,16.5137448 L69.4865225,16.5137448 L69.4865225,17.4358395 L68.75824,17.4358395 L68.75824,17.7755827 L69.4865225,17.7755827 L69.4865225,18.6978299 L68.75824,18.6978299 L68.75824,19.0380305 L69.4865225,19.0380305 L69.4865225,19.8875409 L70.069179,19.8875409 L70.069179,19.0380305 L70.797309,19.0380305 L70.797309,18.6978299 L70.069179,18.6978299 L70.069179,17.7755827 L70.797309,17.7755827 L70.797309,17.4358395 L70.069179,17.4358395 L70.069179,16.5137448 L70.797309,16.5137448 L70.797309,16.1735441 L70.069179,16.1735441 L70.069179,15.251297 L70.797309,15.251297 L70.797309,14.9115538 L70.069179,14.9115538 L70.069179,13.9893066 L70.797309,13.9893066 L70.797309,13.6491059 L70.069179,13.6491059 L70.069179,12.8624205 C71.6731998,12.8336003 72.1087055,12.5740658 72.1087055,12.5740658 Z M93.7955433,42.4700931 L86.8047327,42.4700931 C86.1610811,42.4700931 85.6394197,42.9917544 85.6394197,43.6352536 L85.6394197,49.0723644 L81.8073973,49.0723644 C81.8031276,48.2092825 81.6764101,47.2043868 81.4086413,46.011321 L81.3499334,45.7507191 L81.1367552,45.5898443 C79.6164502,44.4506067 72.9967953,39.633512 65.6268997,36.8178218 L65.6268997,8.26033387 L68.3800698,8.26033387 C68.3446926,8.51788604 68.3244117,8.78900963 68.321057,9.07324719 C68.3216669,9.47703531 68.3646685,9.85520546 68.4384727,10.2021156 L68.0299575,10.2021156 C67.3866108,10.2021156 66.864797,10.7237769 66.864797,11.3672761 L66.864797,20.6885602 C66.864797,21.3319069 67.3866108,21.8537207 68.0299575,21.8537207 L69.0740425,21.8537207 L69.0740425,22.3389374 L68.8555273,22.3389374 C68.5205112,22.3389374 68.2484727,22.6109759 68.2484727,22.945992 C68.2484727,23.281008 68.5205112,23.5530465 68.8555273,23.5530465 L70.7004791,23.5530465 C71.0354952,23.5530465 71.3070762,23.281008 71.3070762,22.945992 C71.3070762,22.6109759 71.0354952,22.3389374 70.7004791,22.3389374 L70.4822689,22.3389374 L70.4822689,21.8537207 L71.525439,21.8537207 C72.1689382,21.8537207 72.6905995,21.3319069 72.6905995,20.6885602 L72.6905995,11.3672761 C72.6905995,10.7237769 72.1689382,10.2021156 71.525439,10.2021156 L71.1211934,10.2021156 C71.1922528,9.85627287 71.2286974,9.47612039 71.233577,9.07324719 L71.234187,9.07324719 C71.233577,8.76628892 71.2068917,8.47503692 71.1635851,8.19888122 C72.7111854,7.90229213 73.8801581,6.54423435 73.8801581,4.91078331 C73.8801581,4.66954735 73.6843636,4.47405778 73.4431276,4.47405778 C73.2025016,4.47405778 73.0064021,4.66954735 73.0064021,4.91078331 C73.0042673,6.13709149 72.1134326,7.15052648 70.94324,7.3492183 C70.9276862,7.30957143 70.9157921,7.26519743 70.8997809,7.22707544 C70.7912095,6.97623274 70.6590024,6.75726003 70.480744,6.58128892 C70.3061453,6.40745265 70.0609446,6.26960353 69.7777745,6.26960353 C69.4942994,6.26960353 69.2494037,6.40745265 69.0752624,6.58128892 C68.8697087,6.79355217 68.7115787,7.06833547 68.5930955,7.38703531 L65.6272047,7.38673034 L65.6272047,1.17208347 C65.6272047,0.608640449 65.1709607,0.152548957 64.6075177,0.152548957 C64.0449896,0.152548957 63.5881356,0.608640449 63.5881356,1.17208347 L63.5881356,7.38642536 L60.6159928,7.38612039 C60.5964743,7.33366453 60.5806156,7.27663403 60.5592673,7.22677047 C60.4502384,6.97592777 60.3180313,6.75695506 60.1400778,6.58067897 C59.9656316,6.4068427 59.7208884,6.26929856 59.4375658,6.26929856 C59.1537857,6.2686886 58.909195,6.40714767 58.7345963,6.58067897 C58.5372769,6.78455538 58.3831116,7.04469984 58.2661533,7.34708347 C57.0987055,7.14640931 56.2109205,6.13419422 56.2087857,4.91017335 C56.2087857,4.6689374 56.0131437,4.47360032 55.7725177,4.47360032 C55.5309767,4.47360032 55.3357921,4.6689374 55.3357921,4.91017335 C55.3353347,6.54347191 56.5043074,7.90137721 58.0509928,8.19796629 C58.0090586,8.47381701 57.984813,8.76567897 57.9814583,9.07294222 C57.9819157,9.47673034 58.0250698,9.85490048 58.098874,10.2018106 L57.6903587,10.2018106 C57.0468596,10.2018106 56.5251982,10.7234719 56.5251982,11.3669711 L56.5251982,20.6882552 C56.5251982,21.3316019 57.0468596,21.8534157 57.6903587,21.8534157 L58.7338339,21.8534157 L58.7338339,22.3386324 L58.5153186,22.3386324 C58.1804551,22.3386324 57.9087215,22.6108234 57.9087215,22.945687 C57.9087215,23.280703 58.1804551,23.5527416 58.5153186,23.5527416 L59.1701019,23.5527416 C59.1888579,24.1181669 59.2123411,25.0625249 59.2123411,26.2827335 C59.2126461,28.487252 59.1348772,31.5766581 58.8157199,34.87726 C51.1522849,33.1875409 43.4226701,32.1234799 38.5070682,32.1207352 C35.1501982,32.1335441 34.2605835,32.5856709 33.8731116,32.8761605 C33.2985369,33.3577175 33.1808162,34.0510803 33.1808162,34.6877175 C33.1861533,35.1761364 33.2552303,35.7179262 33.3439783,36.2940257 C32.7567472,36.2171717 32.1928467,36.1429101 31.6603587,36.0771878 C28.7092592,35.4471075 25.3247889,36.7812247 24.8812014,39.3049005 C24.437309,41.8291862 26.0379751,45.3303098 30.3959286,46.4940979 C31.0673331,46.6691541 31.7077825,46.8234719 32.3314583,46.9631509 C32.227004,47.4706308 32.1708884,47.9283997 32.1687536,48.3489615 C32.1687536,48.6002616 32.1919318,48.8414976 32.2385931,49.0720594 L9.32132986,49.0720594 L9.32132986,23.439138 C9.32132986,22.7956388 8.79951605,22.2739775 8.15601685,22.2739775 L1.16505377,22.2739775 C0.521707063,22.2739775 4.57463884e-05,22.7956388 4.57463884e-05,23.439138 L4.57463884e-05,64.4140257 C4.57463884e-05,65.0576774 0.521707063,65.5794912 1.16505377,65.5794912 L8.15601685,65.5794912 C8.79951605,65.5794912 9.32132986,65.0576774 9.32132986,64.4140257 L9.32132986,62.6663612 L63.5878307,62.6663612 L63.5878307,64.9301974 C58.479179,65.1740257 56.9424053,67.3396597 56.8237697,67.582878 L56.7016268,67.7881268 L56.7016268,68.9035762 C56.1319318,69.1855265 55.7389703,69.7707753 55.7389703,70.4498042 C55.7389703,71.4031589 56.5114743,72.1755104 57.4645241,72.1755104 C58.4177263,72.1755104 59.1902303,71.4034639 59.1902303,70.4498042 C59.1902303,69.8630305 58.8968435,69.3457913 58.4492913,69.0339535 L58.4492913,68.3408957 C58.8318836,67.9412247 60.1394679,66.8847881 63.5878307,66.689451 L63.5878307,69.0036083 C63.115118,69.3111766 62.8019077,69.843512 62.8019077,70.4498042 C62.8019077,71.4031589 63.5741067,72.1755104 64.527309,72.1755104 C65.4803587,72.1755104 66.2527103,71.4034639 66.2527103,70.4498042 C66.2527103,69.9145714 66.009492,69.4366742 65.6272047,69.1199567 L65.6272047,66.6798443 C67.7868917,66.790703 69.1176541,67.253809 69.9058644,67.6752857 C70.3570762,67.9171316 70.6338419,68.1467785 70.7905995,68.3003339 C70.8034085,68.3131429 70.8156075,68.3254944 70.8270441,68.3370835 L70.8270441,68.9933917 C70.3454872,69.2995875 70.024805,69.8366501 70.024805,70.4494992 C70.024805,71.4028539 70.797309,72.1752055 71.7503587,72.1752055 C72.7034085,72.1752055 73.4759125,71.4031589 73.4759125,70.4494992 C73.4759125,69.7948684 73.1113138,69.2254783 72.5740987,68.9330064 L72.5740987,67.7878218 L72.4521083,67.582573 C72.3337777,67.3384398 70.7835851,65.1567945 65.6268997,64.9277576 L65.6268997,62.6657512 L85.6394197,62.6657512 L85.6394197,64.4134157 C85.6394197,65.0570674 86.1610811,65.5788812 86.8047327,65.5788812 L93.7955433,65.5788812 C94.4390425,65.5788812 94.9607039,65.0570674 94.9607039,64.4134157 L94.9607039,43.6346437 C94.9607039,42.9917544 94.4390425,42.4700931 93.7955433,42.4700931 Z" id="Fill-3"></path>
                <path d="M11.5485843,34.1544213 C12.1196517,30.580561 15.4792665,28.1463957 19.0526693,28.7173106 C22.6260722,29.288378 25.0597801,32.6484502 24.4887127,36.2223106 C23.9176453,39.7961709 20.5580305,42.2303363 16.9846276,41.6592689 C13.4113772,41.0883539 10.9775169,37.7282817 11.5485843,34.1544213" id="Fill-6"></path>
                <path d="M40.8813668,44.8009631 L40.897378,44.8009631 C45.1438628,44.8009631 50.0585498,43.8463884 54.2205562,40.5009551 C55.2234695,39.6938363 55.3822095,38.2269021 54.5758531,37.2247512 C53.7687343,36.2218379 52.3021051,36.0634029 51.2996493,36.8703692 C48.237691,39.3374719 44.4736782,40.1380337 40.8813668,40.140321 C38.1713507,40.1421509 35.615805,39.6750803 33.7624663,39.2046549 C32.8362544,38.9696709 32.0849462,38.7354494 31.5744165,38.5629856 C31.3196091,38.4769823 31.1247295,38.4062279 30.9984695,38.3594141 C30.935187,38.3354735 30.8889831,38.3176324 30.8612303,38.3069583 L30.8328676,38.2961316 C29.6394968,37.8132022 28.2809815,38.3888443 27.7983571,39.5816051 C27.3154278,40.7751284 27.8907648,42.1336437 29.0844406,42.616573 L29.0838307,42.6159631 C29.2408933,42.6690289 34.4154197,44.7875441 40.8813668,44.8009631" id="Fill-8"></path>
            </g>
        </g>
    </g>
</svg>