<?xml version="1.0" encoding="UTF-8" standalone="no"?>
<svg width="142px" height="142px" viewBox="0 0 142 142" version="1.1" xmlns="http://www.w3.org/2000/svg" xmlns:xlink="http://www.w3.org/1999/xlink">
    <!-- Generator: Sketch 48.2 (47327) - http://www.bohemiancoding.com/sketch -->
    <title>Health_Hospi_ICON</title>
    <desc>Created with Sketch.</desc>
    <defs></defs>
    <g id="Recomendations" stroke="none" stroke-width="1" fill="none" fill-rule="evenodd" transform="translate(-185.000000, -287.000000)">
        <g id="Health_Hospi_ICON" transform="translate(186.000000, 288.000000)">
            <circle id="Oval-3" stroke="#D0021B" stroke-width="2" fill="#FFFFFF" cx="70" cy="70" r="70"></circle>
            <g id="Page-1" transform="translate(33.000000, 38.000000)">
                <path d="M27.4302544,9.87809735 L47.5128319,9.87809735 L47.5128319,4.81659292 L27.4302544,4.81659292 L27.4302544,9.87809735 Z M66.7792035,9.95973451 L52.4110619,9.95973451 L52.4110619,4.89823009 C52.4110619,2.20420354 50.2068584,0 47.5128319,0 L27.4302544,0 C24.7360619,0 22.5318584,2.20420354 22.5318584,4.89823009 L22.5318584,9.95973451 L7.34734513,9.95973451 C3.26548673,9.95973451 0,13.2252212 0,17.3070796 L0,57.4725664 C0,61.5542588 3.26548673,64.8200774 7.34734513,64.8200774 L66.7792035,64.8200774 C71.2692478,64.8200774 74.9429204,61.1462389 74.9429204,56.6561947 L74.9429204,18.1234513 C74.9429204,13.6334071 71.2692478,9.95973451 66.7792035,9.95973451 Z" id="Fill-1" fill="#333333"></path>
                <path d="M34.8434237,29.3122069 L40.0937555,29.3122069 L40.0937555,34.5967201 L45.3840763,34.5967201 L45.3840763,39.8526936 L40.0937555,39.8526936 L40.0937555,45.1373728 L34.8434237,45.1373728 L34.8434237,39.8526936 L29.5532688,39.8526936 L29.5532688,34.5967201 L34.8434237,34.5967201 L34.8434237,29.3122069 Z M37.4742312,20.1809569 C34.9229038,24.5448949 30.1945852,27.4768639 24.7745077,27.4768639 C23.7970188,27.4768639 22.8303153,27.3849392 21.8936449,27.1871515 C22.7780476,39.8337777 29.0344082,50.3034126 37.4742312,54.2631471 C45.9112334,50.3034126 52.1621184,39.8337777 53.0493418,27.1871515 C52.1095188,27.3849392 51.1459679,27.4768639 50.168479,27.4768639 C44.7512223,27.4768639 40.0258905,24.5448949 37.4742312,20.1809569 Z" id="Fill-3" fill="#FFFFFF"></path>
            </g>
        </g>
    </g>
</svg>