<?xml version="1.0" encoding="UTF-8" standalone="no"?>
<svg width="142px" height="142px" viewBox="0 0 142 142" version="1.1" xmlns="http://www.w3.org/2000/svg" xmlns:xlink="http://www.w3.org/1999/xlink">
    <!-- Generator: Sketch 48.2 (47327) - http://www.bohemiancoding.com/sketch -->
    <title>Home_Insurance_ICON</title>
    <desc>Created with Sketch.</desc>
    <defs></defs>
    <g id="Recomendations-Copy" stroke="none" stroke-width="1" fill="none" fill-rule="evenodd" transform="translate(-425.000000, -727.000000)">
        <g id="Home_Insurance_ICON" transform="translate(426.000000, 728.000000)">
            <circle id="Oval-3" stroke="#D0021B" stroke-width="2" fill="#FFFFFF" cx="70" cy="70" r="70"></circle>
            <g id="Page-1" transform="translate(34.383838, 26.000000)" fill="#333333">
                <path d="M39.5078309,44.5949802 L37.6617747,44.5949802 C37.1999675,44.5949802 36.8309908,44.9641524 36.8309908,45.4255687 L36.8309908,47.1795762 C36.8309908,47.6409925 37.1999675,48.0103601 37.6617747,48.0103601 L39.5078309,48.0103601 C39.9692473,48.0103601 40.3386148,47.6409925 40.3386148,47.1795762 L40.3386148,45.5180083 C40.3386148,44.9641524 39.9692473,44.5949802 39.5078309,44.5949802" id="Fill-1"></path>
                <path d="M39.5078309,49.1179743 L37.6617747,49.1179743 C37.1999675,49.1179743 36.8309908,49.4871465 36.8309908,49.9487582 L36.8309908,51.7025703 C36.8309908,52.1639866 37.1999675,52.5333542 37.6617747,52.5333542 L39.5078309,52.5333542 C39.9692473,52.5333542 40.3386148,52.1639866 40.3386148,51.7025703 L40.3386148,49.9487582 C40.3386148,49.4871465 39.9692473,49.1179743 39.5078309,49.1179743" id="Fill-3"></path>
                <path d="M34.5231469,44.5949802 L32.6770907,44.5949802 C32.2154789,44.5949802 31.8463068,44.9641524 31.8463068,45.5180083 L31.8463068,47.2718204 C31.8463068,47.7334321 32.2154789,48.1026043 32.6770907,48.1026043 L34.5231469,48.1026043 C34.9847587,48.1026043 35.3539308,47.7334321 35.3539308,47.2718204 L35.3539308,45.5180083 C35.3539308,44.9641524 34.9847587,44.5949802 34.5231469,44.5949802" id="Fill-5"></path>
                <path d="M34.5231469,49.1179743 L32.6770907,49.1179743 C32.2154789,49.1179743 31.8463068,49.4871465 31.8463068,49.9487582 L31.8463068,51.7025703 C31.8463068,52.1639866 32.2154789,52.5333542 32.6770907,52.5333542 L34.5231469,52.5333542 C34.9847587,52.5333542 35.3539308,52.1639866 35.3539308,51.7025703 L35.3539308,49.9487582 C35.3539308,49.4871465 34.9847587,49.1179743 34.5231469,49.1179743" id="Fill-7"></path>
                <path d="M50.3075725,62.4099699 C46.1538483,66.2869616 40.800168,68.3177016 35.1693643,68.1332132 L34.7077525,68.1332132 C23.3540964,67.4871131 14.4003524,57.7023898 14.7695246,46.3487336 C15.2311364,34.8103937 24.4618083,25.8566498 35.9077086,25.8566498 L36.6464438,25.8566498 L37.1078601,25.8566498 C48.4617117,26.5029453 57.4152602,36.2872778 57.0460881,47.7333735 C56.8614043,53.3639818 54.4614921,58.6254179 50.3075725,62.4099699 M70.892096,22.7181978 L70.0611166,18.472034 L65.3535365,18.6567178 C62.3999638,18.6567178 47.0768764,18.1028619 40.1538724,6.93388955 L35.8154644,0.195373957 L31.4770564,6.93388955 C24.6462967,18.1028619 9.3234047,18.6567178 6.36963658,18.6567178 L1.66205643,18.472034 L0.831272508,22.7181978 C0.646784146,23.9181539 -1.29171168,35.0873217 1.47737264,48.2872295 C4.15421278,61.2102093 12.0002448,78.5636458 33.7847244,88.0716366 L35.9077086,88.9944693 L37.9384486,88.0716366 C59.8151724,78.5636458 67.5689603,61.2102093 70.33824,48.2872295 C73.1075198,34.9028333 71.1688285,23.9181539 70.892096,22.7181978" id="Fill-9"></path>
                <path d="M35.9077868,29.9181493 C26.492431,29.9181493 18.8310828,37.579693 18.8310828,46.9948533 C18.8310828,52.7179012 21.6926067,57.7948489 26.0310147,60.8408612 L26.0310147,44.6871853 L23.1694908,46.6256812 L21.9695347,44.7794295 L36.1847148,35.272025 L50.584774,44.7794295 L49.3846225,46.6256812 L46.6153428,44.7794295 L46.6153428,60.3792495 C50.4923344,57.240993 53.0769304,52.4409732 53.0769304,47.0872929 C52.9844908,37.579693 45.3231425,29.9181493 35.9077868,29.9181493" id="Fill-12"></path>
            </g>
        </g>
    </g>
</svg>