<?xml version="1.0" encoding="UTF-8"?>
<!DOCTYPE svg PUBLIC "-//W3C//DTD SVG 1.1//EN" "http://www.w3.org/Graphics/SVG/1.1/DTD/svg11.dtd">
<!-- Creator: CorelDRAW X6 -->
<svg xmlns="http://www.w3.org/2000/svg" xml:space="preserve" width="49.9999mm" height="50mm" version="1.1" style="shape-rendering:geometricPrecision; text-rendering:geometricPrecision; image-rendering:optimizeQuality; fill-rule:evenodd; clip-rule:evenodd"
viewBox="0 0 39824 39824"
 xmlns:xlink="http://www.w3.org/1999/xlink">
 <defs>
  <style type="text/css">
   <![CDATA[
    .fil0 {fill:#E31E24}
    .fil1 {fill:#FEFEFE;fill-rule:nonzero}
   ]]>
  </style>
 </defs>
 <g id="Layer_x0020_1">
  <metadata id="CorelCorpID_0Corel-Layer"/>
  <path class="fil0" d="M39824 19912c0,10997 -8913,19912 -19910,19912 -10998,0 -19914,-8915 -19914,-19912 0,-10997 8916,-19912 19914,-19912 10998,0 19910,8915 19910,19912z"/>
  <g id="_1824069136">
   <path class="fil1" d="M8253 20047c0,1050 851,1902 1902,1902l5116 0 1156 0c0,0 544,277 249,1659 -173,812 -2108,6152 1382,7092 1763,320 569,-2493 1405,-3807 836,-1314 4849,-6657 4849,-6979l0 -10232c0,-322 -261,-583 -583,-583l-4189 0 -5975 0 -812 0c-945,0 -1711,766 -1711,1711 0,309 82,599 226,849 -796,147 -1399,844 -1399,1682 0,569 277,1072 704,1383 -898,52 -1610,797 -1610,1708 0,945 766,1711 1711,1711l-519 0c-1050,0 -1902,851 -1902,1902z"/>
   <path class="fil1" d="M25261 20046l5728 0c322,0 583,-261 583,-583l0 -9781c0,-322 -261,-583 -583,-583l-5728 0c-322,0 -583,261 -583,583l0 9781c0,322 261,583 583,583zm641 -3216l0 0c304,0 551,247 551,551 0,305 -247,551 -551,551 -305,0 -552,-247 -552,-551 0,-304 247,-551 552,-551zm0 1510l0 0c304,0 551,247 551,551 0,305 -247,551 -551,551 -305,0 -552,-247 -552,-551 0,-305 247,-551 552,-551z"/>
  </g>
 </g>
</svg>
