<?xml version="1.0" encoding="UTF-8"?>
<!DOCTYPE svg PUBLIC "-//W3C//DTD SVG 1.1//EN" "http://www.w3.org/Graphics/SVG/1.1/DTD/svg11.dtd">
<!-- Creator: CorelDRAW X6 -->
<svg xmlns="http://www.w3.org/2000/svg" xml:space="preserve" width="50.2mm" height="50.2mm" version="1.1" style="shape-rendering:geometricPrecision; text-rendering:geometricPrecision; image-rendering:optimizeQuality; fill-rule:evenodd; clip-rule:evenodd"
viewBox="0 0 3462 3462"
 xmlns:xlink="http://www.w3.org/1999/xlink">
 <defs>
  <style type="text/css">
   <![CDATA[
    .str0 {stroke:#31314B;stroke-width:5.25445}
    .str2 {stroke:#B0CB1F;stroke-width:13.7912}
    .str3 {stroke:#EF7F1A;stroke-width:13.7912}
    .str4 {stroke:#FEFEFE;stroke-width:13.7912}
    .str1 {stroke:#FFED00;stroke-width:13.7912}
    .fil18 {fill:none}
    .fil7 {fill:#84919A}
    .fil20 {fill:#B0CB1F}
    .fil19 {fill:#E31E24}
    .fil21 {fill:#EF7F1A}
    .fil3 {fill:#F6AC80}
    .fil22 {fill:#FEFEFE}
    .fil0 {fill:#FFED00}
    .fil9 {fill:black}
    .fil17 {fill:#291FAC}
    .fil16 {fill:#31314B}
    .fil10 {fill:#995342}
    .fil6 {fill:#C11C56}
    .fil13 {fill:#DE5A62}
    .fil2 {fill:#E62F67}
    .fil12 {fill:#ECB82D}
    .fil4 {fill:#F0E3E7}
    .fil8 {fill:#FFAF82}
    .fil14 {fill:white}
    .fil15 {fill:#2B2A29;fill-rule:nonzero}
    .fil5 {fill:#C11C56;fill-rule:nonzero}
    .fil11 {fill:#F78967;fill-rule:nonzero}
    .fil1 {fill:#FFAF82;fill-rule:nonzero}
   ]]>
  </style>
   <clipPath id="id0">
    <path d="M1731 7c952,0 1724,772 1724,1724 0,952 -772,1724 -1724,1724 -952,0 -1724,-772 -1724,-1724 0,-952 772,-1724 1724,-1724z"/>
   </clipPath>
   <clipPath id="id1">
    <path d="M1731 7c952,0 1724,772 1724,1724 0,952 -772,1724 -1724,1724 -952,0 -1724,-772 -1724,-1724 0,-952 772,-1724 1724,-1724z"/>
   </clipPath>
 </defs>
 <g id="Layer_x0020_1">
  <metadata id="CorelCorpID_0Corel-Layer"/>
  <path class="fil0" d="M1731 7c952,0 1724,772 1724,1724 0,952 -772,1724 -1724,1724 -952,0 -1724,-772 -1724,-1724 0,-952 772,-1724 1724,-1724z"/>
  <g style="clip-path:url(#id0)">
   <g id="_1327649280">
    <g>
     <g>
      <g>
       <g>
        <path id="1" class="fil1" d="M2820 5065c0,0 -28,92 -59,160 -31,67 -10,119 -28,180 -19,61 54,56 68,-7 14,-64 8,-94 21,-96 13,-2 51,153 57,198 5,45 -4,156 13,173 17,17 57,-45 44,-161 -13,-116 -3,-114 -3,-114 0,0 11,45 22,94 12,48 12,108 9,141 -2,33 32,50 42,32 10,-18 26,-133 12,-178 -13,-45 -30,-123 -30,-123 0,0 44,104 52,131 8,27 -5,129 18,148 10,8 41,-3 35,-148 0,0 -11,-71 -26,-115 0,0 24,33 35,77 10,39 16,80 19,119 3,39 38,34 38,-35 0,-70 -12,-146 -31,-183 -20,-37 -48,-253 -106,-333l-204 43z"/>
       </g>
      </g>
      <g>
       <path class="fil1" d="M2165 2747c0,0 172,795 311,1061 0,0 72,351 338,1271 0,0 139,55 220,-50 0,0 -149,-1016 -227,-1340 0,0 -251,-1140 -497,-1329 0,0 -127,144 -146,387z"/>
      </g>
     </g>
     <g>
      <g>
       <g>
        <path class="fil1" d="M684 5065c0,0 28,92 59,160 31,67 10,119 28,180 19,61 -54,56 -68,-7 -14,-64 -8,-94 -21,-96 -13,-2 -51,153 -57,198 -5,45 4,156 -13,173 -17,17 -57,-45 -44,-161 13,-116 3,-114 3,-114 0,0 -11,45 -22,94 -12,48 -12,108 -9,141 2,33 -32,50 -42,32 -10,-18 -26,-133 -12,-178 13,-45 30,-123 30,-123 0,0 -44,104 -52,131 -8,27 5,129 -18,148 -10,8 -41,-3 -35,-148 0,0 11,-71 26,-115 0,0 -24,33 -35,77 -10,39 -16,80 -19,119 -3,39 -38,34 -38,-35 0,-70 12,-146 31,-183 20,-37 48,-253 106,-333l204 43z"/>
       </g>
      </g>
      <g>
       <path class="fil1" d="M1338 2747c0,0 -172,795 -311,1061 0,0 -71,351 -338,1271 0,0 -139,55 -220,-50 0,0 149,-1016 227,-1340 0,0 251,-1140 497,-1329 0,0 127,144 146,387z"/>
      </g>
     </g>
     <g>
      <path class="fil2" d="M2168 3358l581 -119 -133 -649c-33,-161 -190,-264 -350,-231 -161,33 -264,190 -231,350l133 649z"/>
      <path class="fil2" d="M1358 3362l-581 -119 133 -649c33,-161 190,-264 350,-231 161,33 264,190 231,350l-133 649z"/>
      <path class="fil2" d="M1731 2119l-656 265c-45,18 -69,67 -55,114l350 1174 775 0 332 -1189c13,-48 -13,-97 -59,-114l-687 -250z"/>
      <path class="fil3" d="M1277 2303l454 -184 486 177c0,0 -29,220 -471,220 -443,0 -468,-214 -468,-214z"/>
      <path class="fil4" d="M1281 3342l-153 -512c-1,-4 -6,-7 -10,-6 -4,1 -7,6 -6,10l153 512c1,4 6,7 10,6 4,-1 7,-6 6,-10z"/>
      <path class="fil4" d="M2253 3347l153 -512c1,-4 -1,-9 -6,-10 -4,-1 -9,1 -10,6l-153 512c-1,4 1,9 6,10 4,1 9,-1 10,-6z"/>
     </g>
     <path class="fil5" d="M2180 3336c0,0 -352,249 -860,15 0,0 474,128 860,-15z"/>
     <path class="fil6" d="M1431 9026c0,0 7,-11 11,-20 4,-9 11,-24 15,-40 4,-16 5,-28 6,-40 1,-12 0,-29 -6,-53 -6,-24 -14,-41 -16,-47 -3,-5 -16,-28 -20,-34 -4,-6 -15,-20 -17,-25 -3,-6 -9,-12 -11,-19 -2,-7 -4,-13 -5,-17 -1,-4 -1,-7 -6,-13 -5,-6 -7,-7 -12,-8 -5,-1 -15,0 -21,3 -6,2 -17,8 -24,12 -7,4 -17,10 -22,16 -5,6 -27,26 -40,41 -13,15 -33,41 -44,55 -11,14 -31,37 -37,48 -6,11 -21,31 -27,41 -6,10 -19,39 -24,48 -6,10 -32,56 -36,62 -3,6 -24,38 -27,44 -3,6 -36,58 -45,70 -9,11 -26,34 -32,39 -6,6 -17,20 -25,26 -9,7 -19,15 -24,17 0,0 -15,2 -24,10 -9,8 -24,25 -34,33 -10,8 -39,27 -48,34 -10,7 -25,21 -30,31 -5,9 -10,14 -10,24 0,10 1,17 1,17 0,0 1,18 31,27 30,10 87,20 147,24 60,4 89,7 135,4 46,-3 90,-18 120,-38 30,-20 38,-37 42,-46 4,-9 9,-20 12,-33 3,-13 17,-53 21,-67 4,-15 28,-76 34,-88 6,-12 41,-78 46,-87 5,-9 26,-33 29,-36 3,-3 15,-16 15,-16l3 -2z"/>
     <path class="fil7" d="M795 9380c0,0 1,14 20,24 19,10 83,22 98,24 15,2 108,12 152,11 0,0 38,3 79,-6 0,0 43,-9 65,-21 0,0 40,-21 54,-44 14,-23 17,-33 23,-58 0,0 17,-58 26,-81 9,-22 31,-73 41,-95 10,-22 26,-47 38,-64 12,-16 23,-30 26,-31 3,-2 10,-11 10,-11l2 -2 1 0c0,0 -11,32 -15,54 -4,23 -11,52 -13,69 -2,17 -10,55 -11,64 -1,9 -4,31 -6,45 -1,14 -5,38 -6,41 0,3 -2,9 -2,9 0,0 -19,17 -26,21 -7,4 -20,10 -20,10 0,0 -4,-2 -9,-2 -6,0 -16,-1 -16,-1 0,0 -23,21 -35,36 -13,15 -28,28 -36,36 -8,8 -22,14 -33,20 -11,5 -43,12 -62,16 -18,4 -65,13 -115,9 0,0 -47,-3 -80,-6 -33,-3 -72,-12 -91,-16 -18,-4 -45,-11 -55,-21 -10,-9 -10,-11 -10,-17 0,-6 3,-12 3,-12z"/>
     <path class="fil1" d="M1343 4988c0,0 106,1651 93,2018l-9 1902 -214 3c-19,-751 -271,-1357 -185,-1892 169,-629 187,-1011 69,-1598 0,0 -75,-426 246,-432z"/>
     <path class="fil8" d="M1282 8884c-11,10 -55,-4 -70,23 -17,32 -58,111 -69,140 -7,16 -41,72 -58,96 -17,24 -112,90 -131,103 -28,19 113,74 184,59 48,-10 80,-31 100,-62 0,0 22,-24 30,-59 15,-70 146,-216 159,-276 3,-15 -111,-52 -145,-23z"/>
     <path class="fil6" d="M2065 9026c0,0 -7,-11 -11,-20 -4,-9 -11,-24 -15,-40 -4,-16 -5,-28 -6,-40 -1,-12 0,-29 6,-53 6,-24 14,-41 16,-47 3,-5 16,-28 20,-34 4,-6 15,-20 17,-25 3,-6 9,-12 11,-19 2,-7 4,-13 5,-17 1,-4 1,-7 6,-13 5,-6 7,-7 12,-8 5,-1 15,0 21,3 6,2 17,8 24,12 7,4 17,10 22,16 5,6 27,26 40,41 13,15 33,41 44,55 11,14 31,37 37,48 6,11 21,31 27,41 6,10 19,39 24,48 6,10 32,56 36,62 3,6 24,38 27,44 3,6 36,58 45,70 9,11 26,34 32,39 6,6 17,20 25,26 9,7 19,15 24,17 0,0 15,2 24,10 9,8 24,25 34,33 10,8 39,27 48,34 10,7 25,21 30,31 5,9 10,14 10,24 0,10 -1,17 -1,17 0,0 -1,18 -31,27 -30,10 -87,20 -147,24 -60,4 -89,7 -135,4 -46,-3 -90,-18 -120,-38 -30,-20 -38,-37 -42,-46 -4,-9 -9,-20 -12,-33 -3,-13 -17,-53 -21,-67 -4,-15 -28,-76 -34,-88 -6,-12 -41,-78 -46,-87 -5,-9 -26,-33 -29,-36 -3,-3 -15,-16 -15,-16l-3 -2z"/>
     <path class="fil7" d="M2701 9380c0,0 -1,14 -20,24 -19,10 -83,22 -98,24 -15,2 -108,12 -152,11 0,0 -38,3 -79,-6 0,0 -43,-9 -65,-21 0,0 -40,-21 -54,-44 -14,-23 -17,-33 -23,-58 0,0 -17,-58 -26,-81 -9,-22 -31,-73 -41,-95 -10,-22 -26,-47 -38,-64 -12,-16 -23,-30 -26,-31 -3,-2 -10,-11 -10,-11l-2 -2 -1 0c0,0 11,32 15,54 4,23 11,52 13,69 2,17 10,55 11,64 1,9 4,31 6,45 1,14 5,38 6,41 0,3 2,9 2,9 0,0 19,17 26,21 7,4 20,10 20,10 0,0 4,-2 9,-2 6,0 16,-1 16,-1 0,0 23,21 35,36 13,15 28,28 36,36 8,8 22,14 33,20 11,5 43,12 62,16 18,4 65,13 115,9 0,0 47,-3 80,-6 33,-3 72,-12 91,-16 18,-4 45,-11 55,-21 10,-9 10,-11 10,-17 0,-6 -3,-12 -3,-12z"/>
     <path class="fil8" d="M2214 8884c11,10 55,-4 70,23 17,32 58,111 69,140 7,16 41,72 58,96 17,24 112,90 131,103 28,19 -113,74 -184,59 -48,-10 -80,-31 -100,-62 0,0 -22,-24 -30,-59 -15,-70 -146,-216 -159,-276 -3,-15 111,-52 145,-23z"/>
     <path class="fil1" d="M2154 4988c0,0 -106,1651 -93,2018l9 1902 214 3c19,-751 271,-1357 185,-1892 160,-517 -100,-981 -69,-1598 0,0 75,-426 -246,-432z"/>
     <path class="fil9" d="M1908 761c0,0 192,-84 354,68 161,152 47,253 190,328 142,75 38,283 205,378 166,95 57,328 -114,361 0,0 -82,216 -262,196 0,0 -167,185 -491,68l-120 -49 239 -1350z"/>
     <path class="fil9" d="M1276 825c0,0 -216,28 -258,220 -42,192 -27,146 -145,244 -119,98 31,208 -63,306 -48,50 -71,91 -75,138 -8,83 49,157 129,179 55,16 99,67 132,138 64,140 295,79 295,79 0,0 218,127 351,33 133,-94 -68,-1392 -68,-1392l-298 56z"/>
     <polygon class="fil10" points="1574,1959 1878,2195 1845,1878 "/>
     <g>
      <g>
       <path class="fil1" d="M1906 1928l-6 118 -8 148c0,0 -29,56 -162,56 -132,0 -159,-38 -159,-38l-5 -65 -18 -218 358 0z"/>
      </g>
      <g>
       <path class="fil11" d="M1906 1928l-6 118c-55,41 -186,123 -334,100l-18 -218 358 0z"/>
      </g>
     </g>
     <path class="fil9" d="M1952 771c0,0 -82,-201 -379,-201 -296,0 -388,309 -388,309l431 250 336 -357z"/>
     <path class="fil3" d="M1338 1486c29,66 27,172 -35,195 -62,23 -137,-61 -166,-127 -29,-66 -11,-123 51,-146 62,-23 121,12 151,78z"/>
     <path class="fil10" d="M1187 1493l1 0c2,0 7,-1 13,-1 11,0 27,2 43,13 16,11 31,31 41,67 1,3 4,5 7,4 3,-1 5,-4 4,-7 -11,-38 -28,-61 -46,-74 -18,-13 -37,-16 -49,-16 -10,0 -17,2 -17,2 -3,1 -5,4 -4,7 1,3 4,5 7,4z"/>
     <path class="fil12" d="M1408 1825c-21,43 -66,73 -117,73 -36,0 -69,-15 -93,-38 -24,-24 -38,-56 -38,-93 0,-36 15,-69 38,-93 24,-24 56,-38 93,-38l0 -19c-83,0 -150,67 -150,150 0,83 67,150 150,150 59,0 110,-34 134,-83l-17 -8z"/>
     <path class="fil3" d="M2131 1486c-29,66 -27,172 36,195 62,23 137,-61 166,-127 29,-66 11,-123 -51,-146 -62,-23 -121,12 -151,78z"/>
     <path class="fil10" d="M2286 1482c0,0 -7,-2 -17,-2 -13,0 -31,3 -50,16 -18,13 -35,36 -46,74 -1,3 1,7 4,7 3,1 7,-1 7,-4 10,-36 26,-56 41,-67 16,-11 31,-13 43,-13 4,0 8,0 10,1l3 0 1 0c3,1 7,-1 7,-4 1,-3 -1,-7 -4,-7z"/>
     <path class="fil12" d="M2051 1833c24,49 75,83 134,83 83,0 150,-67 150,-150 0,-83 -67,-150 -150,-150l0 19c36,0 69,15 93,38 24,24 38,56 38,93 0,36 -15,69 -38,93 -24,24 -56,38 -93,38 -52,0 -96,-30 -117,-73l-17 8z"/>
     <path class="fil9" d="M2260 1233c0,279 -236,505 -526,505 -291,0 -526,-226 -526,-505 0,-279 236,-505 526,-505 291,0 526,226 526,505z"/>
     <path class="fil3" d="M1734 787l0 0c-243,0 -458,188 -458,420l14 279c0,0 5,395 380,515 42,13 87,13 128,0 375,-120 380,-515 380,-515l14 -279c0,-232 -215,-420 -458,-420z"/>
     <path class="fil13" d="M1642 1709c0,0 4,58 84,58 79,0 84,-58 84,-58l-167 0z"/>
     <path class="fil10" d="M1702 1548l0 65c0,3 3,6 6,6l48 1c3,0 6,-3 6,-6 0,-3 -3,-6 -6,-6l-42 0 0 -59c0,-3 -3,-6 -6,-6 -3,0 -6,3 -6,6z"/>
     <path class="fil14" d="M1632 1453c0,0 -32,-80 -109,-84 -77,-4 -123,58 -123,58 0,0 20,68 113,73 94,4 119,-46 119,-46z"/>
     <path class="fil9" d="M1439 1431c-1,22 7,42 21,56 14,6 32,11 54,12 19,1 35,0 49,-3 17,-13 29,-34 30,-57 1,-21 -6,-40 -19,-54 -14,-8 -31,-14 -50,-15 -24,-1 -45,4 -62,12 -13,13 -21,31 -22,51z"/>
     <path class="fil9" d="M1637 1451c0,0 -8,-22 -25,-43 -18,-22 -46,-44 -88,-44l-2 0c-81,0 -125,59 -125,59l1 7 7 -1 2 -2c9,-11 49,-53 116,-53l2 0c38,0 64,20 81,41 8,10 14,20 18,28 2,4 3,7 4,9l1 3c1,2 4,4 6,3 2,-1 4,-4 3,-6z"/>
     <path class="fil14" d="M1832 1453c0,0 32,-80 109,-84 77,-4 123,58 123,58 0,0 -20,68 -113,73 -94,4 -119,-46 -119,-46z"/>
     <path class="fil9" d="M2025 1431c1,22 -7,42 -21,56 -14,6 -32,11 -54,12 -19,1 -35,0 -49,-3 -17,-13 -29,-34 -30,-57 -1,-21 6,-40 19,-54 14,-8 31,-14 50,-15 24,-1 45,4 62,11 13,13 21,31 22,51z"/>
     <path class="fil9" d="M1836 1454l1 -3c3,-8 12,-27 29,-44 17,-17 41,-33 74,-33l2 0c38,0 68,14 88,28 10,7 18,14 23,19 3,3 4,5 6,6l2 2 7 1 1 -7c0,0 -44,-59 -125,-59l-2 0c-42,0 -70,22 -88,44 -18,22 -25,43 -25,43 -1,2 0,5 3,6 2,1 5,0 6,-3z"/>
     <path class="fil13" d="M1809 1709c0,0 -76,-42 -167,0 0,0 92,39 167,0z"/>
     <path class="fil10" d="M1619 1707c1,0 42,25 104,25 31,0 67,-6 104,-24 3,-1 4,-5 3,-8 -1,-3 -5,-4 -8,-3 -36,17 -70,23 -99,23 -29,0 -54,-6 -71,-12 -9,-3 -15,-6 -20,-8 -2,-1 -4,-2 -5,-3l-2 -1c-3,-2 -7,-1 -8,2 -2,3 -1,7 2,8z"/>
     <path class="fil9" d="M1952 771c0,0 -20,220 -249,255 -234,36 -183,183 -468,148 0,0 -103,-161 50,-327 101,-110 298,-202 439,-186 47,5 160,95 228,110z"/>
     <path class="fil9" d="M1925 799c0,0 -102,147 335,434 0,0 71,-101 24,-194 -47,-92 -359,-240 -359,-240z"/>
     <path class="fil15" d="M1584 1268c2,15 -10,28 -25,29 -50,1 -154,11 -205,64 0,0 17,-93 201,-115 14,-2 27,8 29,22z"/>
     <path class="fil15" d="M1859 1269c-1,15 10,28 25,28 50,0 155,6 207,58 0,0 -19,-92 -204,-109 -14,-1 -27,9 -28,23z"/>
     <g>
      <polygon class="fil9" points="2152,3797 1376,3797 1376,3678 2152,3678 "/>
      <path class="fil16" d="M1438 4145c-188,-29 -344,93 -387,279 -44,189 -76,416 -83,688 -18,674 15,1258 48,1561 17,154 146,270 301,270 157,0 288,-120 302,-277l134 -2129c16,-191 -118,-361 -308,-390 -2,0 -4,-1 -7,-1z"/>
      <path class="fil16 str0" d="M1615 6645l-91 2089 -502 0 -9 -2097c3,-164 137,-296 301,-296 168,0 303,137 301,305z"/>
      <path class="fil16" d="M2088 4145c188,-29 344,93 387,279 44,189 76,416 83,688 18,674 -15,1258 -48,1561 -17,154 -146,270 -301,270 -157,0 -288,-120 -302,-277l-134 -2129c-16,-191 118,-361 308,-390 2,0 4,-1 7,-1z"/>
      <path class="fil16" d="M1912 6645l91 2089 502 0 9 -2097c-3,-164 -137,-296 -301,-296 -168,0 -303,137 -301,305z"/>
      <path class="fil16" d="M2152 3797l-776 0c0,0 -201,139 -312,583l588 337c68,41 153,41 221,0l587 -336c-119,-430 -310,-583 -310,-583z"/>
      <path class="fil17" d="M1406 3943c0,0 0,1 0,3 -1,14 -8,79 -41,148 -33,69 -91,141 -195,171 -4,1 -7,6 -6,10 1,4 6,7 10,6 117,-34 179,-119 212,-194 33,-75 37,-142 37,-142 0,-5 -3,-9 -8,-9 -5,0 -9,3 -9,8z"/>
      <path class="fil17" d="M2100 3944c0,1 4,67 37,142 33,75 95,160 212,194 4,1 9,-1 10,-6 1,-4 -1,-9 -6,-10 -111,-32 -169,-112 -201,-184 -16,-36 -25,-71 -30,-96 -2,-13 -4,-23 -5,-30 0,-4 -1,-6 -1,-8 0,-2 0,-3 0,-3 0,-5 -4,-8 -9,-8 -5,0 -8,4 -8,9z"/>
     </g>
    </g>
   </g>
  </g>
  <path class="fil18 str1" d="M1731 7c952,0 1724,772 1724,1724 0,952 -772,1724 -1724,1724 -952,0 -1724,-772 -1724,-1724 0,-952 772,-1724 1724,-1724z"/>
  <path class="fil19" d="M1731 7c952,0 1724,772 1724,1724 0,952 -772,1724 -1724,1724 -952,0 -1724,-772 -1724,-1724 0,-952 772,-1724 1724,-1724z"/>
  <g style="clip-path:url(#id1)">
   <g id="_1666404864">
    <rect class="fil20 str2" x="792" y="2980" width="594" height="1366"/>
    <rect class="fil21 str3" x="1610" y="2315" width="594" height="2031"/>
    <rect class="fil22 str4" x="2427" y="1731" width="594" height="2615"/>
    <g>
     <g>
      <g>
       <g>
        <path class="fil1" d="M2873 1095c0,0 -4,14 -9,24 -5,10 -1,18 -4,27 -3,9 8,8 10,-1 2,-10 1,-14 3,-14 2,0 8,23 9,30 1,7 -1,24 2,26 3,3 9,-7 7,-24 -2,-17 -1,-17 -1,-17 0,0 2,7 3,14 2,7 2,16 1,21 0,5 5,7 6,5 1,-3 4,-20 2,-27 -2,-7 -4,-18 -4,-18 0,0 7,16 8,20 1,4 -1,19 3,22 1,1 6,0 5,-22 0,0 -2,-11 -4,-17 0,0 4,5 5,12 2,6 2,12 3,18 1,6 6,5 6,-5 0,-10 -2,-22 -5,-28 -3,-6 -7,-38 -16,-50l-31 6z"/>
       </g>
      </g>
      <g>
       <path class="fil1" d="M2774 746c0,0 26,120 47,160 0,0 11,53 51,191 0,0 21,8 33,-8 0,0 -22,-153 -34,-202 0,0 -38,-172 -75,-200 0,0 -19,22 -22,58z"/>
      </g>
     </g>
     <g>
      <g>
       <g>
        <path class="fil1" d="M2551 1095c0,0 4,14 9,24 5,10 1,18 4,27 3,9 -8,8 -10,-1 -2,-10 -1,-14 -3,-14 -2,0 -8,23 -9,30 -1,7 1,24 -2,26 -3,3 -9,-7 -7,-24 2,-17 1,-17 1,-17 0,0 -2,7 -3,14 -2,7 -2,16 -1,21 0,5 -5,7 -6,5 -2,-3 -4,-20 -2,-27 2,-7 4,-18 4,-18 0,0 -7,16 -8,20 -1,4 1,19 -3,22 -1,1 -6,0 -5,-22 0,0 2,-11 4,-17 0,0 -4,5 -5,12 -2,6 -2,12 -3,18 -1,6 -6,5 -6,-5 0,-10 2,-22 5,-28 3,-6 7,-38 16,-50l31 6z"/>
       </g>
      </g>
      <g>
       <path class="fil1" d="M2650 746c0,0 -26,120 -47,160 0,0 -11,53 -51,191 0,0 -21,8 -33,-8 0,0 22,-153 34,-202 0,0 38,-172 75,-200 0,0 19,22 22,58z"/>
      </g>
     </g>
     <g>
      <path class="fil2" d="M2775 838l88 -18 -20 -98c-5,-24 -29,-40 -53,-35 -24,5 -40,29 -35,53l20 98z"/>
      <path class="fil2" d="M2653 838l-88 -18 20 -98c5,-24 29,-40 53,-35 24,5 40,29 35,53l-20 98z"/>
      <path class="fil2" d="M2709 651l-99 40c-7,3 -10,10 -8,17l53 177 117 0 50 -179c2,-7 -2,-15 -9,-17l-103 -38z"/>
      <path class="fil3" d="M2641 679l68 -28 73 27c0,0 -4,33 -71,33 -67,0 -71,-32 -71,-32z"/>
      <path class="fil4" d="M2641 835l-23 -77c0,-1 -1,-1 -2,-1 -1,0 -1,1 -1,2l23 77c0,1 1,1 2,1 1,0 1,-1 1,-2z"/>
      <path class="fil4" d="M2787 836l23 -77c0,-1 0,-1 -1,-2 -1,0 -1,0 -2,1l-23 77c0,1 0,1 1,2 1,0 1,0 2,-1z"/>
     </g>
     <path class="fil5" d="M2777 834c0,0 -53,37 -129,2 0,0 71,19 129,-2z"/>
     <path class="fil6" d="M2664 1691c0,0 1,-2 2,-3 1,-1 2,-4 2,-6 1,-2 1,-4 1,-6 0,-2 0,-4 -1,-8 -1,-4 -2,-6 -2,-7 0,-1 -2,-4 -3,-5 -1,-1 -2,-3 -3,-4 0,-1 -1,-2 -2,-3 0,-1 -1,-2 -1,-3 0,-1 0,-1 -1,-2 -1,-1 -1,-1 -2,-1 -1,0 -2,0 -3,0 -1,0 -3,1 -4,2 -1,1 -3,1 -3,2 -1,1 -4,4 -6,6 -2,2 -5,6 -7,8 -2,2 -5,6 -6,7 -1,2 -3,5 -4,6 -1,2 -3,6 -4,7 -1,1 -5,8 -5,9 -1,1 -4,6 -4,7 0,1 -5,9 -7,10 -1,2 -4,5 -5,6 -1,1 -3,3 -4,4 -1,1 -3,2 -4,3 0,0 -2,0 -4,2 -1,1 -4,4 -5,5 -2,1 -6,4 -7,5 -1,1 -4,3 -5,5 -1,1 -2,2 -2,4 0,1 0,3 0,3 0,0 0,3 5,4 5,1 13,3 22,4 9,1 13,1 20,1 7,-1 14,-3 18,-6 5,-3 6,-6 6,-7 1,-1 1,-3 2,-5 0,-2 3,-8 3,-10 1,-2 4,-11 5,-13 1,-2 6,-12 7,-13 1,-1 4,-5 4,-5 1,-1 2,-2 2,-2l1 0z"/>
     <path class="fil7" d="M2568 1744c0,0 0,2 3,4 3,2 12,3 15,4 2,0 16,2 23,2 0,0 6,0 12,-1 0,0 6,-1 10,-3 0,0 6,-3 8,-7 2,-3 3,-5 4,-9 0,0 3,-9 4,-12 1,-3 5,-11 6,-14 2,-3 4,-7 6,-10 2,-2 3,-4 4,-5 0,0 2,-2 2,-2l0 0 0 0c0,0 -2,5 -2,8 -1,3 -2,8 -2,10 0,3 -1,8 -2,10 0,1 -1,5 -1,7 0,2 -1,6 -1,6 0,0 0,1 0,1 0,0 -3,3 -4,3 -1,1 -3,2 -3,2 0,0 -1,0 -1,0 -1,0 -2,0 -2,0 0,0 -3,3 -5,5 -2,2 -4,4 -5,5 -1,1 -3,2 -5,3 -2,1 -7,2 -9,2 -3,1 -10,2 -17,1 0,0 -7,0 -12,-1 -5,0 -11,-2 -14,-2 -3,-1 -7,-2 -8,-3 -1,-1 -1,-2 -2,-3 0,-1 1,-2 1,-2z"/>
     <path class="fil1" d="M2651 1083c0,0 16,249 14,304l-1 286 -32 0c-3,-113 -41,-204 -28,-285 25,-95 28,-152 10,-241 0,0 -11,-64 37,-65z"/>
     <path class="fil8" d="M2641 1669c-2,1 -8,-1 -10,3 -3,5 -9,17 -10,21 -1,2 -6,11 -9,14 -3,4 -17,13 -20,15 -4,3 17,11 28,9 7,-2 12,-5 15,-9 0,0 3,-4 4,-9 2,-11 22,-33 24,-42 0,-2 -17,-8 -22,-3z"/>
     <path class="fil6" d="M2759 1691c0,0 -1,-2 -2,-3 -1,-1 -2,-4 -2,-6 -1,-2 -1,-4 -1,-6 0,-2 0,-4 1,-8 1,-4 2,-6 2,-7 0,-1 2,-4 3,-5 1,-1 2,-3 3,-4 0,-1 1,-2 2,-3 0,-1 1,-2 1,-3 0,-1 0,-1 1,-2 1,-1 1,-1 2,-1 1,0 2,0 3,0 1,0 3,1 4,2 1,1 3,1 3,2 1,1 4,4 6,6 2,2 5,6 7,8 2,2 5,6 6,7 1,2 3,5 4,6 1,2 3,6 4,7 1,1 5,8 5,9 0,1 4,6 4,7 1,1 5,9 7,10 1,2 4,5 5,6 1,1 3,3 4,4 1,1 3,2 4,3 0,0 2,0 4,2 1,1 4,4 5,5 2,1 6,4 7,5 1,1 4,3 5,5 1,1 2,2 2,4 0,1 0,3 0,3 0,0 0,3 -5,4 -5,1 -13,3 -22,4 -9,1 -13,1 -20,1 -7,-1 -14,-3 -18,-6 -5,-3 -6,-6 -6,-7 -1,-1 -1,-3 -2,-5 0,-2 -3,-8 -3,-10 -1,-2 -4,-11 -5,-13 -1,-2 -6,-12 -7,-13 -1,-1 -4,-5 -4,-5 0,-1 -2,-2 -2,-2l-1 0z"/>
     <path class="fil7" d="M2855 1744c0,0 0,2 -3,4 -3,2 -12,3 -15,4 -2,0 -16,2 -23,2 0,0 -6,0 -12,-1 0,0 -6,-1 -10,-3 0,0 -6,-3 -8,-7 -2,-3 -3,-5 -4,-9 0,0 -3,-9 -4,-12 -1,-3 -5,-11 -6,-14 -2,-3 -4,-7 -6,-10 -2,-2 -3,-4 -4,-5 0,0 -2,-2 -2,-2l0 0 0 0c0,0 2,5 2,8 1,3 2,8 2,10 0,3 1,8 2,10 0,1 1,5 1,7 0,2 1,6 1,6 0,0 0,1 0,1 0,0 3,3 4,3 1,1 3,2 3,2 0,0 1,0 1,0 1,0 2,0 2,0 0,0 3,3 5,5 2,2 4,4 5,5 1,1 3,2 5,3 2,1 7,2 9,2 3,1 10,2 17,1 0,0 7,0 12,-1 5,0 11,-2 14,-2 3,-1 7,-2 8,-3 1,-1 2,-2 2,-3 0,-1 0,-2 0,-2z"/>
     <path class="fil8" d="M2782 1669c2,1 8,-1 10,3 3,5 9,17 10,21 1,2 6,11 9,14 3,4 17,13 20,15 4,3 -17,11 -28,9 -7,-2 -12,-5 -15,-9 0,0 -3,-4 -4,-9 -2,-11 -22,-33 -24,-42 0,-2 17,-8 22,-3z"/>
     <path class="fil1" d="M2773 1083c0,0 -16,249 -14,304l1 286 32 0c3,-113 41,-204 28,-285 24,-78 -15,-148 -10,-241 0,0 11,-64 -37,-65z"/>
     <path class="fil9" d="M2736 447c0,0 29,-13 53,10 24,23 7,38 29,49 21,11 6,43 31,57 25,14 9,49 -17,54 0,0 -12,33 -39,29 0,0 -25,28 -74,10l-18 -7 36 -203z"/>
     <path class="fil9" d="M2640 456c0,0 -33,4 -39,33 -6,29 -4,22 -22,37 -18,15 5,31 -9,46 -7,8 -11,14 -11,21 -1,12 7,24 19,27 8,2 15,10 20,21 10,21 44,12 44,12 0,0 33,19 53,5 20,-14 -10,-209 -10,-209l-45 8z"/>
     <polygon class="fil10" points="2685,627 2731,663 2726,615 "/>
     <g>
      <g>
       <path class="fil1" d="M2735 622l-1 18 -1 22c0,0 -4,8 -24,8 -20,0 -24,-6 -24,-6l-1 -10 -3 -33 54 0z"/>
      </g>
      <g>
       <path class="fil11" d="M2735 622l-1 18c-8,6 -28,18 -50,15l-3 -33 54 0z"/>
      </g>
     </g>
     <path class="fil9" d="M2742 448c0,0 -12,-30 -57,-30 -45,0 -58,46 -58,46l65 38 51 -54z"/>
     <path class="fil3" d="M2650 556c4,10 4,26 -5,29 -9,4 -21,-9 -25,-19 -4,-10 -2,-19 8,-22 9,-4 18,2 23,12z"/>
     <path class="fil10" d="M2627 557l0 0c0,0 1,0 2,0 2,0 4,0 6,2 2,2 5,5 6,10 0,0 1,1 1,1 0,0 1,-1 1,-1 -2,-6 -4,-9 -7,-11 -3,-2 -6,-2 -7,-2 -2,0 -2,0 -3,0 0,0 -1,1 -1,1 0,0 1,1 1,1z"/>
     <path class="fil12" d="M2660 607c-3,7 -10,11 -18,11 -5,0 -10,-2 -14,-6 -4,-4 -6,-8 -6,-14 0,-5 2,-10 6,-14 4,-4 8,-6 14,-6l0 -3c-12,0 -23,10 -23,23 0,12 10,23 23,23 9,0 17,-5 20,-13l-3 -1z"/>
     <path class="fil3" d="M2769 556c-4,10 -4,26 5,29 9,4 21,-9 25,-19 4,-10 2,-19 -8,-22 -9,-4 -18,2 -23,12z"/>
     <path class="fil10" d="M2792 555c0,0 -1,0 -3,0 -2,0 -5,0 -7,2 -3,2 -5,5 -7,11 0,0 0,1 1,1 0,0 1,0 1,-1 2,-5 4,-8 6,-10 2,-2 5,-2 6,-2 1,0 1,0 2,0l0 0 0 0c0,0 1,0 1,-1 0,0 0,-1 -1,-1z"/>
     <path class="fil12" d="M2757 608c4,7 11,13 20,13 12,0 23,-10 23,-23 0,-12 -10,-23 -23,-23l0 3c5,0 10,2 14,6 4,4 6,8 6,14 0,5 -2,10 -6,14 -4,4 -8,6 -14,6 -8,0 -14,-4 -18,-11l-3 1z"/>
     <path class="fil9" d="M2789 518c0,42 -35,76 -79,76 -44,0 -79,-34 -79,-76 0,-42 35,-76 79,-76 44,0 79,34 79,76z"/>
     <path class="fil3" d="M2709 451l0 0c-37,0 -69,28 -69,63l2 42c0,0 1,59 57,78 6,2 13,2 19,0 56,-18 57,-78 57,-78l2 -42c0,-35 -32,-63 -69,-63z"/>
     <path class="fil13" d="M2696 589c0,0 1,9 13,9 12,0 13,-9 13,-9l-25 0z"/>
     <path class="fil10" d="M2705 565l0 10c0,0 0,1 1,1l7 0c0,0 1,0 1,-1 0,-1 0,-1 -1,-1l-6 0 0 -9c0,-1 0,-1 -1,-1 -1,0 -1,0 -1,1z"/>
     <path class="fil14" d="M2694 551c0,0 -5,-12 -16,-13 -12,-1 -19,9 -19,9 0,0 3,10 17,11 14,1 18,-7 18,-7z"/>
     <path class="fil9" d="M2665 548c0,3 1,6 3,8 2,1 5,2 8,2 3,0 5,0 7,0 3,-2 4,-5 5,-9 0,-3 -1,-6 -3,-8 -2,-1 -5,-2 -8,-2 -4,0 -7,1 -9,2 -2,2 -3,5 -3,8z"/>
     <path class="fil9" d="M2695 551c0,0 -1,-3 -4,-6 -3,-3 -7,-7 -13,-7l0 0c-12,0 -19,9 -19,9l0 1 1 0 0 0c1,-2 7,-8 17,-8l0 0c6,0 10,3 12,6 1,2 2,3 3,4 0,1 1,1 1,1l0 0c0,0 1,1 1,0 0,0 1,-1 0,-1z"/>
     <path class="fil14" d="M2724 551c0,0 5,-12 16,-13 12,-1 19,9 19,9 0,0 -3,10 -17,11 -14,1 -18,-7 -18,-7z"/>
     <path class="fil9" d="M2753 548c0,3 -1,6 -3,8 -2,1 -5,2 -8,2 -3,0 -5,0 -7,0 -3,-2 -4,-5 -5,-9 0,-3 1,-6 3,-8 2,-1 5,-2 8,-2 4,0 7,1 9,2 2,2 3,5 3,8z"/>
     <path class="fil9" d="M2725 551l0 -1c0,-1 2,-4 4,-7 3,-3 6,-5 11,-5l0 0c6,0 10,2 13,4 2,1 3,2 3,3 0,0 1,1 1,1l0 0 1 0 0 -1c0,0 -7,-9 -19,-9l0 0c-6,0 -11,3 -13,7 -3,3 -4,6 -4,6 0,0 0,1 0,1 0,0 1,0 1,0z"/>
     <path class="fil13" d="M2721 589c0,0 -11,-6 -25,0 0,0 14,6 25,0z"/>
     <path class="fil10" d="M2692 589c0,0 6,4 16,4 5,0 10,-1 16,-4 0,0 1,-1 0,-1 0,0 -1,-1 -1,0 -5,3 -11,3 -15,3 -4,0 -8,-1 -11,-2 -1,0 -2,-1 -3,-1 0,0 -1,0 -1,0l0 0c0,0 -1,0 -1,0 0,0 0,1 0,1z"/>
     <path class="fil9" d="M2742 448c0,0 -3,33 -38,38 -35,5 -28,28 -70,22 0,0 -15,-24 7,-49 15,-17 45,-30 66,-28 7,1 24,14 34,17z"/>
     <path class="fil9" d="M2738 452c0,0 -15,22 50,65 0,0 11,-15 4,-29 -7,-14 -54,-36 -54,-36z"/>
     <path class="fil15" d="M2687 523c0,2 -1,4 -4,4 -8,0 -23,2 -31,10 0,0 3,-14 30,-17 2,0 4,1 4,3z"/>
     <path class="fil15" d="M2728 523c0,2 2,4 4,4 8,0 23,1 31,9 0,0 -3,-14 -31,-16 -2,0 -4,1 -4,3z"/>
     <g>
      <polygon class="fil9" points="2772,904 2656,904 2656,886 2772,886 "/>
      <path class="fil16" d="M2665 956c-28,-4 -52,14 -58,42 -7,28 -11,63 -13,104 -3,102 2,189 7,235 3,23 22,41 45,41 24,0 43,-18 45,-42l20 -320c2,-29 -18,-54 -46,-59 0,0 -1,0 -1,0z"/>
      <path class="fil16 str0" d="M2691 1332l-14 314 -76 0 -1 -316c0,-25 21,-45 45,-45 25,0 46,21 45,46z"/>
      <path class="fil16" d="M2763 956c28,-4 52,14 58,42 7,28 11,63 13,104 3,102 -2,189 -7,235 -3,23 -22,41 -45,41 -24,0 -43,-18 -45,-42l-20 -320c-2,-29 18,-54 46,-59 0,0 1,0 1,0z"/>
      <path class="fil16" d="M2736 1332l14 314 76 0 1 -316c0,-25 -21,-45 -45,-45 -25,0 -46,21 -45,46z"/>
      <path class="fil16" d="M2772 904l-117 0c0,0 -30,21 -47,88l89 51c10,6 23,6 33,0l88 -51c-18,-65 -47,-88 -47,-88z"/>
      <path class="fil17" d="M2660 926c0,0 0,0 0,0 0,2 -1,12 -6,22 -5,10 -14,21 -29,26 -1,0 -1,1 -1,2 0,1 1,1 2,1 18,-5 27,-18 32,-29 5,-11 6,-21 6,-21 0,-1 0,-1 -1,-1 -1,0 -1,0 -1,1z"/>
      <path class="fil17" d="M2764 926c0,0 1,10 6,21 5,11 14,24 32,29 1,0 1,0 2,-1 0,-1 0,-1 -1,-2 -17,-5 -25,-17 -30,-28 -2,-5 -4,-11 -4,-14 0,-2 -1,-3 -1,-5 0,-1 0,-1 0,-1 0,0 0,0 0,0 0,-1 -1,-1 -1,-1 -1,0 -1,1 -1,1z"/>
     </g>
    </g>
   </g>
  </g>
  <path class="fil18" d="M1731 7c952,0 1724,772 1724,1724 0,952 -772,1724 -1724,1724 -952,0 -1724,-772 -1724,-1724 0,-952 772,-1724 1724,-1724z"/>
 </g>
</svg>
