<?xml version="1.0" encoding="UTF-8"?>
<!DOCTYPE svg PUBLIC "-//W3C//DTD SVG 1.1//EN" "http://www.w3.org/Graphics/SVG/1.1/DTD/svg11.dtd">
<!-- Creator: CorelDRAW X6 -->
<svg xmlns="http://www.w3.org/2000/svg" xml:space="preserve" width="50mm" height="50mm" version="1.1" style="shape-rendering:geometricPrecision; text-rendering:geometricPrecision; image-rendering:optimizeQuality; fill-rule:evenodd; clip-rule:evenodd"
viewBox="0 0 5319 5319"
 xmlns:xlink="http://www.w3.org/1999/xlink">
 <defs>
  <style type="text/css">
   <![CDATA[
    .str3 {stroke:#31314B;stroke-width:8.10638}
    .str0 {stroke:#B0CB1F;stroke-width:21.2766}
    .str2 {stroke:#E31E24;stroke-width:21.2766}
    .str1 {stroke:#FEFEFE;stroke-width:21.2766}
    .fil21 {fill:none}
    .fil10 {fill:#84919A}
    .fil1 {fill:#B0CB1F}
    .fil3 {fill:#E31E24}
    .fil0 {fill:#EF7F1A}
    .fil6 {fill:#F6AC80}
    .fil2 {fill:#FEFEFE}
    .fil12 {fill:black}
    .fil20 {fill:#291FAC}
    .fil19 {fill:#31314B}
    .fil13 {fill:#995342}
    .fil9 {fill:#C11C56}
    .fil16 {fill:#DE5A62}
    .fil5 {fill:#E62F67}
    .fil15 {fill:#ECB82D}
    .fil7 {fill:#F0E3E7}
    .fil11 {fill:#FFAF82}
    .fil17 {fill:white}
    .fil18 {fill:#2B2A29;fill-rule:nonzero}
    .fil8 {fill:#C11C56;fill-rule:nonzero}
    .fil14 {fill:#F78967;fill-rule:nonzero}
    .fil4 {fill:#FFAF82;fill-rule:nonzero}
   ]]>
  </style>
   <clipPath id="id0">
    <path d="M2660 0c1469,0 2660,1191 2660,2660 0,1469 -1191,2660 -2660,2660 -1469,0 -2660,-1191 -2660,-2660 0,-1469 1191,-2660 2660,-2660z"/>
   </clipPath>
 </defs>
 <g id="Layer_x0020_1">
  <metadata id="CorelCorpID_0Corel-Layer"/>
  <path class="fil0" d="M2660 0c1469,0 2660,1191 2660,2660 0,1469 -1191,2660 -2660,2660 -1469,0 -2660,-1191 -2660,-2660 0,-1469 1191,-2660 2660,-2660z"/>
  <g style="clip-path:url(#id0)">
   <g id="_1174474544">
    <rect class="fil1 str0" x="1212" y="4587" width="916" height="2107"/>
    <rect class="fil2 str1" x="2473" y="3560" width="916" height="3133"/>
    <rect class="fil3 str2" x="3734" y="2660" width="916" height="4034"/>
    <g>
     <g>
      <g>
       <g>
        <path class="fil4" d="M3283 2221c0,0 -9,30 -19,53 -10,22 -3,39 -9,59 -6,20 18,19 22,-2 5,-21 3,-31 7,-32 4,-1 17,50 19,65 2,15 -1,51 4,57 6,6 19,-15 15,-53 -4,-38 -1,-37 -1,-37 0,0 4,15 7,31 4,16 4,35 3,46 -1,11 10,16 14,10 3,-6 9,-44 4,-59 -4,-15 -10,-40 -10,-40 0,0 15,34 17,43 3,9 -2,43 6,49 3,3 13,-1 12,-49 0,0 -4,-23 -9,-38 0,0 8,11 12,25 3,13 5,26 6,39 1,13 12,11 12,-12 0,-23 -4,-48 -10,-60 -6,-12 -16,-83 -35,-110l-67 14z"/>
       </g>
      </g>
      <g>
       <path class="fil4" d="M3067 1457c0,0 57,262 102,350 0,0 24,116 111,419 0,0 46,18 73,-17 0,0 -49,-335 -75,-441 0,0 -83,-376 -164,-438 0,0 -42,48 -48,127z"/>
      </g>
     </g>
     <g>
      <g>
       <g>
        <path class="fil4" d="M2579 2221c0,0 9,30 19,53 10,22 3,39 9,59 6,20 -18,19 -22,-2 -5,-21 -3,-31 -7,-32 -4,-1 -17,50 -19,65 -2,15 1,51 -4,57 -6,6 -19,-15 -15,-53 4,-38 1,-37 1,-37 0,0 -4,15 -7,31 -4,16 -4,35 -3,46 1,11 -10,16 -14,10 -3,-6 -9,-44 -4,-59 4,-15 10,-40 10,-40 0,0 -15,34 -17,43 -3,9 2,43 -6,49 -3,3 -13,-1 -12,-49 0,0 4,-23 9,-38 0,0 -8,11 -12,25 -3,13 -5,26 -6,39 -1,13 -12,11 -12,-12 0,-23 4,-48 10,-60 6,-12 16,-83 35,-110l67 14z"/>
       </g>
      </g>
      <g>
       <path class="fil4" d="M2795 1457c0,0 -57,262 -102,350 0,0 -24,116 -111,419 0,0 -46,18 -73,-17 0,0 49,-335 75,-441 0,0 83,-376 164,-438 0,0 42,48 48,127z"/>
      </g>
     </g>
     <g>
      <path class="fil5" d="M3068 1659l192 -39 -44 -214c-11,-53 -63,-87 -115,-76 -53,11 -87,63 -76,115l44 214z"/>
      <path class="fil5" d="M2801 1660l-192 -39 44 -214c11,-53 63,-87 115,-76 53,11 87,63 76,115l-44 214z"/>
      <path class="fil5" d="M2924 1251l-216 87c-15,6 -23,22 -18,37l115 387 255 0 109 -392c4,-16 -4,-32 -19,-37l-226 -83z"/>
      <path class="fil6" d="M2774 1311l150 -60 160 58c0,0 -9,73 -155,73 -146,0 -154,-70 -154,-70z"/>
      <path class="fil7" d="M2776 1654l-50 -169c0,-1 -2,-2 -3,-2 -1,0 -2,2 -2,3l50 169c0,1 2,2 3,2 1,0 2,-2 2,-3z"/>
      <path class="fil7" d="M3096 1655l50 -169c0,-1 0,-3 -2,-3 -1,0 -3,0 -3,2l-50 169c0,1 0,3 2,3 1,0 3,0 3,-2z"/>
     </g>
     <path class="fil8" d="M3072 1652c0,0 -116,82 -283,5 0,0 156,42 283,-5z"/>
     <path class="fil9" d="M2825 3526c0,0 2,-4 4,-7 1,-3 4,-8 5,-13 1,-5 2,-9 2,-13 0,-4 0,-10 -2,-17 -2,-8 -5,-14 -5,-15 -1,-2 -5,-9 -6,-11 -1,-2 -5,-6 -6,-8 -1,-2 -3,-4 -4,-6 -1,-2 -1,-4 -2,-5 0,-1 0,-2 -2,-4 -2,-2 -2,-2 -4,-3 -2,0 -5,0 -7,1 -2,1 -6,3 -8,4 -2,1 -6,3 -7,5 -2,2 -9,9 -13,14 -4,5 -11,14 -15,18 -4,5 -10,12 -12,16 -2,4 -7,10 -9,14 -2,3 -6,13 -8,16 -2,3 -11,19 -12,20 -1,2 -8,13 -9,15 -1,2 -12,19 -15,23 -3,4 -9,11 -11,13 -2,2 -5,6 -8,9 -3,2 -6,5 -8,6 0,0 -5,1 -8,3 -3,3 -8,8 -11,11 -3,3 -13,9 -16,11 -3,2 -8,7 -10,10 -2,3 -3,5 -3,8 0,3 0,5 0,5 0,0 0,6 10,9 10,3 29,7 48,8 20,1 29,2 45,1 15,-1 30,-6 39,-12 10,-6 12,-12 14,-15 1,-3 3,-7 4,-11 1,-4 6,-17 7,-22 1,-5 9,-25 11,-29 2,-4 14,-26 15,-29 2,-3 8,-11 10,-12 1,-1 5,-5 5,-5l1 -1z"/>
     <path class="fil10" d="M2616 3643c0,0 0,5 7,8 6,3 27,7 32,8 5,1 35,4 50,4 0,0 13,1 26,-2 0,0 14,-3 22,-7 0,0 13,-7 18,-15 5,-8 6,-11 8,-19 0,0 6,-19 9,-27 3,-7 10,-24 14,-31 3,-7 8,-16 12,-21 4,-5 7,-10 8,-10 1,-1 3,-4 3,-4l1 -1 0 0c0,0 -4,10 -5,18 -1,7 -4,17 -4,23 -1,5 -3,18 -4,21 0,3 -1,10 -2,15 0,5 -2,13 -2,14 0,1 -1,3 -1,3 0,0 -6,5 -8,7 -2,1 -6,3 -6,3 0,0 -1,-1 -3,-1 -2,0 -5,0 -5,0 0,0 -8,7 -12,12 -4,5 -9,9 -12,12 -3,3 -7,5 -11,6 -4,2 -14,4 -20,5 -6,1 -21,4 -38,3 0,0 -15,-1 -26,-2 -11,-1 -24,-4 -30,-5 -6,-1 -15,-4 -18,-7 -3,-3 -3,-4 -3,-6 0,-2 1,-4 1,-4z"/>
     <path class="fil4" d="M2796 2196c0,0 35,544 31,665l-3 627 -71 1c-6,-248 -89,-447 -61,-623 56,-207 62,-333 23,-527 0,0 -25,-140 81,-142z"/>
     <path class="fil11" d="M2776 3480c-4,3 -18,-1 -23,7 -6,11 -19,37 -23,46 -2,5 -13,24 -19,32 -6,8 -37,29 -43,34 -9,6 37,25 61,20 16,-3 26,-10 33,-20 0,0 7,-8 10,-19 5,-23 48,-71 53,-91 1,-5 -37,-17 -48,-8z"/>
     <path class="fil9" d="M3034 3526c0,0 -2,-4 -4,-7 -1,-3 -4,-8 -5,-13 -1,-5 -2,-9 -2,-13 0,-4 0,-10 2,-17 2,-8 5,-14 5,-15 1,-2 5,-9 6,-11 1,-2 5,-6 6,-8 1,-2 3,-4 4,-6 1,-2 1,-4 2,-5 0,-1 0,-2 2,-4 2,-2 2,-2 4,-3 2,0 5,0 7,1 2,1 6,3 8,4 2,1 6,3 7,5 2,2 9,9 13,14 4,5 11,14 15,18 4,5 10,12 12,16 2,4 7,10 9,14 2,3 6,13 8,16 2,3 11,19 12,20 1,2 8,13 9,15 1,2 12,19 15,23 3,4 9,11 11,13 2,2 5,6 8,9 3,2 6,5 8,6 0,0 5,1 8,3 3,3 8,8 11,11 3,3 13,9 16,11 3,2 8,7 10,10 2,3 3,5 3,8 0,3 0,5 0,5 0,0 0,6 -10,9 -10,3 -29,7 -48,8 -20,1 -29,2 -45,1 -15,-1 -30,-6 -39,-12 -10,-6 -12,-12 -14,-15 -1,-3 -3,-7 -4,-11 -1,-4 -6,-17 -7,-22 -1,-5 -9,-25 -11,-29 -2,-4 -14,-26 -15,-29 -2,-3 -8,-11 -10,-12 -1,-1 -5,-5 -5,-5l-1 -1z"/>
     <path class="fil10" d="M3244 3643c0,0 0,5 -7,8 -6,3 -27,7 -32,8 -5,1 -35,4 -50,4 0,0 -13,1 -26,-2 0,0 -14,-3 -22,-7 0,0 -13,-7 -18,-15 -5,-8 -6,-11 -8,-19 0,0 -6,-19 -9,-27 -3,-7 -10,-24 -14,-31 -3,-7 -8,-16 -12,-21 -4,-5 -7,-10 -8,-10 -1,-1 -3,-4 -3,-4l-1 -1 0 0c0,0 4,10 5,18 1,7 4,17 4,23 1,5 3,18 4,21 0,3 1,10 2,15 0,5 2,13 2,14 0,1 1,3 1,3 0,0 6,5 8,7 2,1 6,3 6,3 0,0 1,-1 3,-1 2,0 5,0 5,0 0,0 8,7 12,12 4,5 9,9 12,12 3,3 7,5 11,6 4,2 14,4 20,5 6,1 21,4 38,3 0,0 15,-1 26,-2 11,-1 24,-4 30,-5 6,-1 15,-4 18,-7 3,-3 3,-4 3,-6 0,-2 -1,-4 -1,-4z"/>
     <path class="fil11" d="M3083 3480c4,3 18,-1 23,7 6,11 19,37 23,46 2,5 13,24 19,32 6,8 37,29 43,34 9,6 -37,25 -61,20 -16,-3 -26,-10 -33,-20 0,0 -7,-8 -10,-19 -5,-23 -48,-71 -53,-91 -1,-5 37,-17 48,-8z"/>
     <path class="fil4" d="M3063 2196c0,0 -35,544 -31,665l3 627 71 1c6,-248 89,-447 61,-623 53,-170 -33,-323 -23,-527 0,0 25,-140 -81,-142z"/>
     <path class="fil12" d="M2982 803c0,0 63,-28 116,22 53,50 16,83 63,108 47,25 13,93 67,125 55,31 19,108 -38,119 0,0 -27,71 -86,64 0,0 -55,61 -162,22l-39 -16 79 -445z"/>
     <path class="fil12" d="M2774 824c0,0 -71,9 -85,72 -14,63 -9,48 -48,80 -39,32 10,69 -21,101 -16,16 -23,30 -25,45 -3,27 16,52 43,59 18,5 33,22 43,45 21,46 97,26 97,26 0,0 72,42 116,11 44,-31 -22,-458 -22,-458l-98 18z"/>
     <polygon class="fil13" points="2872,1198 2972,1276 2962,1171 "/>
     <g>
      <g>
       <path class="fil4" d="M2982 1188l-2 39 -3 49c0,0 -10,18 -53,18 -44,0 -53,-13 -53,-13l-2 -22 -6 -72 118 0z"/>
      </g>
      <g>
       <path class="fil14" d="M2982 1188l-2 39c-18,14 -61,40 -110,33l-6 -72 118 0z"/>
      </g>
     </g>
     <path class="fil12" d="M2997 807c0,0 -27,-66 -125,-66 -98,0 -128,102 -128,102l142 82 111 -118z"/>
     <path class="fil6" d="M2795 1042c10,22 9,57 -12,64 -21,8 -45,-20 -55,-42 -10,-22 -4,-41 17,-48 21,-8 40,4 50,26z"/>
     <path class="fil13" d="M2745 1045l0 0c1,0 2,0 4,0 4,0 9,1 14,4 5,4 10,10 14,22 0,1 1,2 2,1 1,0 2,-1 1,-2 -3,-13 -9,-20 -15,-24 -6,-4 -12,-5 -16,-5 -3,0 -5,1 -6,1 -1,0 -2,1 -1,2 0,1 1,2 2,1z"/>
     <path class="fil15" d="M2818 1154c-7,14 -22,24 -39,24 -12,0 -23,-5 -30,-13 -8,-8 -13,-19 -13,-30 0,-12 5,-23 13,-30 8,-8 19,-13 30,-13l0 -6c-27,0 -49,22 -49,49 0,27 22,49 49,49 19,0 36,-11 44,-28l-6 -3z"/>
     <path class="fil6" d="M3056 1042c-10,22 -9,57 12,64 21,8 45,-20 55,-42 10,-22 4,-41 -17,-48 -21,-8 -40,4 -50,26z"/>
     <path class="fil13" d="M3107 1041c0,0 -2,-1 -6,-1 -4,0 -10,1 -16,5 -6,4 -12,12 -15,24 0,1 0,2 1,2 1,0 2,0 2,-1 3,-12 8,-18 14,-22 5,-4 10,-4 14,-4 1,0 3,0 3,0l1 0 0 0c1,0 2,0 2,-1 0,-1 0,-2 -1,-2z"/>
     <path class="fil15" d="M3029 1156c8,16 25,28 44,28 27,0 49,-22 49,-49 0,-27 -22,-49 -49,-49l0 6c12,0 23,5 30,13 8,8 13,19 13,30 0,12 -5,23 -13,30 -8,8 -19,13 -30,13 -17,0 -32,-10 -39,-24l-6 3z"/>
     <path class="fil12" d="M3098 959c0,92 -78,166 -173,166 -96,0 -173,-75 -173,-166 0,-92 78,-166 173,-166 96,0 173,75 173,166z"/>
     <path class="fil6" d="M2925 812l0 0c-80,0 -151,62 -151,138l5 92c0,0 2,130 125,170 14,4 29,4 42,0 123,-40 125,-170 125,-170l5 -92c0,-76 -71,-138 -151,-138z"/>
     <path class="fil16" d="M2895 1116c0,0 1,19 28,19 26,0 28,-19 28,-19l-55 0z"/>
     <path class="fil13" d="M2914 1062l0 21c0,1 1,2 2,2l16 0c1,0 2,-1 2,-2 0,-1 -1,-2 -2,-2l-14 0 0 -19c0,-1 -1,-2 -2,-2 -1,0 -2,1 -2,2z"/>
     <path class="fil17" d="M2891 1031c0,0 -10,-26 -36,-28 -25,-1 -41,19 -41,19 0,0 6,22 37,24 31,1 39,-15 39,-15z"/>
     <path class="fil12" d="M2828 1024c0,7 2,14 7,19 5,2 11,4 18,4 6,0 12,0 16,-1 6,-4 10,-11 10,-19 0,-7 -2,-13 -6,-18 -5,-3 -10,-5 -17,-5 -8,0 -15,1 -21,4 -4,4 -7,10 -7,17z"/>
     <path class="fil12" d="M2893 1031c0,0 -2,-7 -8,-14 -6,-7 -15,-14 -29,-14l-1 0c-27,0 -41,19 -41,20l0 2 2 0 1 -1c3,-3 16,-18 38,-18l1 0c13,0 21,7 27,13 3,3 5,7 6,9 1,1 1,2 1,3l0 1c0,1 1,1 2,1 1,0 1,-1 1,-2z"/>
     <path class="fil17" d="M2957 1031c0,0 10,-26 36,-28 25,-1 41,19 41,19 0,0 -6,22 -37,24 -31,1 -39,-15 -39,-15z"/>
     <path class="fil12" d="M3021 1024c0,7 -2,14 -7,19 -5,2 -11,4 -18,4 -6,0 -12,0 -16,-1 -6,-4 -10,-11 -10,-19 0,-7 2,-13 6,-18 5,-3 10,-5 17,-5 8,0 15,1 21,4 4,4 7,10 7,17z"/>
     <path class="fil12" d="M2959 1032l0 -1c1,-3 4,-9 10,-15 6,-6 13,-11 24,-11l1 0c13,0 22,5 29,9 3,2 6,5 7,6 1,1 1,2 2,2l1 1 2 0 0 -2c0,0 -15,-20 -41,-20l-1 0c-14,0 -23,7 -29,14 -6,7 -8,14 -8,14 0,1 0,2 1,2 1,0 2,0 2,-1z"/>
     <path class="fil16" d="M2950 1116c0,0 -25,-14 -55,0 0,0 30,13 55,0z"/>
     <path class="fil13" d="M2887 1115c0,0 14,8 34,8 10,0 22,-2 34,-8 1,0 1,-2 1,-3 0,-1 -2,-1 -3,-1 -12,6 -23,8 -33,8 -10,0 -18,-2 -23,-4 -3,-1 -5,-2 -7,-3 -1,0 -1,-1 -2,-1l-1 0c-1,-1 -2,0 -3,1 -1,1 0,2 1,3z"/>
     <path class="fil12" d="M2997 807c0,0 -7,73 -82,84 -77,12 -60,60 -154,49 0,0 -34,-53 16,-108 33,-36 98,-66 145,-61 16,2 53,31 75,36z"/>
     <path class="fil12" d="M2988 816c0,0 -33,48 110,143 0,0 23,-33 8,-64 -16,-30 -118,-79 -118,-79z"/>
     <path class="fil18" d="M2876 970c1,5 -3,9 -8,9 -16,0 -51,4 -68,21 0,0 6,-30 66,-38 5,-1 9,3 9,7z"/>
     <path class="fil18" d="M2966 971c0,5 3,9 8,9 16,0 51,2 68,19 0,0 -6,-30 -67,-36 -5,0 -9,3 -9,8z"/>
     <g>
      <polygon class="fil12" points="3063,1803 2807,1803 2807,1764 3063,1764 "/>
      <path class="fil19" d="M2828 1918c-62,-9 -113,31 -127,92 -14,62 -25,137 -27,227 -6,222 5,414 16,514 6,51 48,89 99,89 52,0 95,-40 99,-91l44 -701c5,-63 -39,-119 -101,-129 -1,0 -1,0 -2,0z"/>
      <path class="fil19 str3" d="M2886 2742l-30 688 -165 0 -3 -691c1,-54 45,-98 99,-98 55,0 100,45 99,100z"/>
      <path class="fil19" d="M3042 1918c62,-9 113,31 127,92 14,62 25,137 27,227 6,222 -5,414 -16,514 -6,51 -48,89 -99,89 -52,0 -95,-40 -99,-91l-44 -701c-5,-63 39,-119 101,-129 1,0 1,0 2,0z"/>
      <path class="fil19" d="M2984 2742l30 688 165 0 3 -691c-1,-54 -45,-98 -99,-98 -55,0 -100,45 -99,100z"/>
      <path class="fil19" d="M3063 1803l-256 0c0,0 -66,46 -103,192l194 111c23,14 50,14 73,0l194 -111c-39,-142 -102,-192 -102,-192z"/>
      <path class="fil20" d="M2817 1852c0,0 0,0 0,1 0,5 -3,26 -14,49 -11,23 -30,46 -64,56 -1,0 -2,2 -2,3 0,1 2,2 3,2 38,-11 59,-39 70,-64 11,-25 12,-47 12,-47 0,-2 -1,-3 -3,-3 -2,0 -3,1 -3,3z"/>
      <path class="fil20" d="M3045 1852c0,0 1,22 12,47 11,25 31,53 70,64 1,0 3,0 3,-2 0,-1 0,-3 -2,-3 -36,-11 -56,-37 -66,-61 -5,-12 -8,-23 -10,-32 -1,-4 -1,-8 -2,-10 0,-1 0,-2 0,-3 0,-1 0,-1 0,-1 0,-2 -1,-3 -3,-3 -2,0 -3,1 -3,3z"/>
     </g>
    </g>
   </g>
  </g>
  <path class="fil21" d="M2660 0c1469,0 2660,1191 2660,2660 0,1469 -1191,2660 -2660,2660 -1469,0 -2660,-1191 -2660,-2660 0,-1469 1191,-2660 2660,-2660z"/>
 </g>
</svg>
