<?xml version="1.0" encoding="UTF-8"?>
<!DOCTYPE svg PUBLIC "-//W3C//DTD SVG 1.1//EN" "http://www.w3.org/Graphics/SVG/1.1/DTD/svg11.dtd">
<!-- Creator: CorelDRAW X6 -->
<svg xmlns="http://www.w3.org/2000/svg" xml:space="preserve" width="50mm" height="50mm" version="1.1" style="shape-rendering:geometricPrecision; text-rendering:geometricPrecision; image-rendering:optimizeQuality; fill-rule:evenodd; clip-rule:evenodd"
viewBox="0 0 1497 1497"
 xmlns:xlink="http://www.w3.org/1999/xlink">
 <defs>
  <style type="text/css">
   <![CDATA[
    .str6 {stroke:#D16664;stroke-width:5.2485;stroke-linecap:round;stroke-linejoin:round}
    .str3 {stroke:#B0CB1F;stroke-width:5.98802}
    .str2 {stroke:#E31E24;stroke-width:5.98802}
    .str1 {stroke:#EF7F1A;stroke-width:5.98802}
    .str0 {stroke:#FEFEFE;stroke-width:5.98802}
    .str5 {stroke:#321A17;stroke-width:7.92216;stroke-linecap:round;stroke-linejoin:round}
    .str4 {stroke:white;stroke-width:10.5629;stroke-linecap:round;stroke-linejoin:round}
    .fil4 {fill:none}
    .fil8 {fill:none;fill-rule:nonzero}
    .fil0 {fill:#B0CB1F}
    .fil3 {fill:#E31E24}
    .fil2 {fill:#EF7F1A}
    .fil1 {fill:#FEFEFE}
    .fil17 {fill:black}
    .fil16 {fill:white}
    .fil10 {fill:#00A0E3;fill-rule:nonzero}
    .fil15 {fill:#2B2A29;fill-rule:nonzero}
    .fil7 {fill:#B2B3B3;fill-rule:nonzero}
    .fil9 {fill:#2B2B2B;fill-rule:nonzero}
    .fil6 {fill:#59342F;fill-rule:nonzero}
    .fil12 {fill:#E2E2E2;fill-rule:nonzero}
    .fil13 {fill:#F78967;fill-rule:nonzero}
    .fil14 {fill:#FFA377;fill-rule:nonzero}
    .fil5 {fill:#FFAF82;fill-rule:nonzero}
    .fil11 {fill:white;fill-rule:nonzero}
   ]]>
  </style>
   <clipPath id="id0">
    <path d="M749 0c413,0 749,335 749,749 0,413 -335,749 -749,749 -413,0 -749,-335 -749,-749 0,-413 335,-749 749,-749z"/>
   </clipPath>
    <clipPath id="id1">
    </clipPath>
    <clipPath id="id2">
     <path d="M749 0c413,0 749,335 749,749 0,413 -335,749 -749,749 -413,0 -749,-335 -749,-749 0,-413 335,-749 749,-749z"/>
    </clipPath>
 </defs>
 <g id="Layer_x0020_1">
  <metadata id="CorelCorpID_0Corel-Layer"/>
  <path class="fil0" d="M749 0c413,0 749,335 749,749 0,413 -335,749 -749,749 -413,0 -749,-335 -749,-749 0,-413 335,-749 749,-749z"/>
  <g style="clip-path:url(#id0)">
   <g id="_1666470912">
    <rect class="fil1 str0" x="341" y="1291" width="258" height="593"/>
    <rect class="fil2 str1" x="696" y="1002" width="258" height="882"/>
    <rect class="fil3 str2" x="1051" y="749" width="258" height="1135"/>
    <path class="fil0" d="M2246 -2545c413,0 749,335 749,749 0,413 -335,749 -749,749 -413,0 -749,-335 -749,-749 0,-413 335,-749 749,-749z"/>
   </g>
   <g style="clip-path:url(#id1)">
   </g>
   <g style="clip-path:url(#id2)">
    <path id="1" class="fil4 str3" d="M2246 -2545c413,0 749,335 749,749 0,413 -335,749 -749,749 -413,0 -749,-335 -749,-749 0,-413 335,-749 749,-749z"/>
    <g>
     <g>
      <polygon class="fil5" points="503,1261 500,1181 527,1181 526,1259 "/>
      <g>
       <g>
        <path class="fil6" d="M519 1256c0,0 -3,-10 4,-15 8,-5 12,-3 12,3 1,6 1,10 1,10l-17 2z"/>
        <path class="fil6" d="M531 1249c0,0 18,13 32,12 0,0 24,0 23,22l-99 0c0,0 -6,-18 5,-32 0,0 -6,-19 8,-17l0 11c0,0 2,4 7,3 6,-2 13,-2 22,2z"/>
       </g>
       <polygon class="fil7" points="587,1295 488,1295 488,1284 587,1284 "/>
       <path class="fil8 str4" d="M523 1259c0,0 6,-8 14,-6"/>
       <path class="fil8 str4" d="M530 1263c0,0 6,-8 14,-6"/>
       <path class="fil8 str4" d="M538 1266c0,0 6,-8 14,-6"/>
       <path class="fil8 str5" d="M489 1261c0,0 23,3 25,22"/>
       <path class="fil8 str5" d="M562 1262c0,0 -15,0 -14,21"/>
      </g>
     </g>
     <g>
      <polygon class="fil5" points="438,1261 441,1181 414,1181 415,1259 "/>
      <g>
       <g>
        <path class="fil6" d="M422 1256c0,0 3,-10 -4,-15 -8,-5 -12,-3 -12,3 -1,6 -1,10 -1,10l17 2z"/>
        <path class="fil6" d="M409 1249c0,0 -18,13 -32,12 0,0 -24,0 -23,22l99 0c0,0 6,-18 -5,-32 0,0 6,-19 -8,-17l0 11c0,0 -2,4 -7,3 -6,-2 -13,-2 -22,2z"/>
       </g>
       <polygon class="fil7" points="354,1295 453,1295 453,1284 354,1284 "/>
       <path class="fil8 str4" d="M418 1259c0,0 -6,-8 -14,-6"/>
       <path class="fil8 str4" d="M411 1263c0,0 -6,-8 -14,-6"/>
       <path class="fil8 str4" d="M403 1266c0,0 -6,-8 -14,-6"/>
       <path class="fil8 str5" d="M452 1261c0,0 -23,3 -25,22"/>
       <path class="fil8 str5" d="M379 1262c0,0 15,0 14,21"/>
      </g>
     </g>
     <path class="fil9" d="M399 867c-2,-33 4,-57 5,-56 52,-3 135,-5 135,-5 0,0 0,1 0,1 0,0 8,29 3,52 -50,31 -98,37 -144,8z"/>
     <path class="fil9" d="M399 851c0,0 0,151 4,188l5 197 38 -4c1,-90 11,-136 6,-194l18 -176c0,0 -33,-12 -72,-10z"/>
     <g>
      <g>
       <path class="fil10" d="M546 818c-15,8 -28,13 -42,17 -10,3 -20,4 -31,4 -9,0 -18,-1 -27,-3 -14,-3 -29,-9 -45,-17l6 -124 -1 -145 37 -10 11 -3c6,-2 12,-2 19,-2 6,0 13,1 19,2l12 3 35 9 -1 145 7 124z"/>
      </g>
     </g>
     <g>
      <path class="fil11" d="M504 539l0 296c-10,3 -20,4 -31,4 -9,0 -18,-1 -27,-3l0 -7 0 -8 0 -18 0 -8 0 -18 0 -8 0 -18 0 -8 0 -18 0 -8 0 -18 0 -8 0 -18 0 -8 0 -18 0 -8 0 -18 0 -8 0 -18 0 -8 0 -18 0 -8 0 -18 0 -8 0 -1 11 -3c6,-2 12,-2 19,-2 6,0 13,1 19,2l12 3 0 0z"/>
      <g>
       <g>
        <path class="fil12" d="M504 547l0 8c-11,2 -21,2 -31,2 -12,0 -22,-1 -30,-2l0 -8c14,2 37,4 61,0l0 0z"/>
       </g>
       <g>
        <path class="fil12" d="M504 568l0 8c-10,2 -21,2 -30,2 -12,0 -22,-1 -31,-2l0 -8c14,2 37,4 61,0z"/>
       </g>
       <g>
        <path class="fil12" d="M504 590l0 8c-10,2 -20,2 -30,2 -12,0 -23,-1 -31,-2l0 -8c14,2 37,4 60,0z"/>
       </g>
       <g>
        <path class="fil12" d="M504 616l0 8c-10,2 -20,2 -29,2 -12,0 -23,-1 -31,-2l0 -8c14,2 37,4 60,0z"/>
       </g>
       <g>
        <path class="fil12" d="M504 642l0 8c-10,2 -20,3 -29,3 -12,0 -23,-1 -31,-3l0 -8c14,2 37,5 60,0z"/>
       </g>
       <g>
        <path class="fil12" d="M504 667l0 8c-10,2 -20,3 -29,3 -12,0 -23,-1 -31,-3l0 -8c14,2 36,5 60,0z"/>
       </g>
       <g>
        <path class="fil12" d="M504 693l0 8c-10,2 -19,3 -28,3 -12,0 -23,-1 -31,-3l0 -8c14,3 36,5 60,0z"/>
       </g>
       <g>
        <path class="fil12" d="M504 719l0 8c-10,2 -19,3 -28,3 -12,0 -23,-1 -31,-3l0 -8c14,3 36,5 59,0z"/>
       </g>
       <g>
        <path class="fil12" d="M504 744l0 8c-10,2 -19,3 -28,3 -12,0 -23,-1 -31,-3l0 -8c14,3 36,5 59,0z"/>
       </g>
       <g>
        <path class="fil12" d="M504 770l0 8c-10,2 -19,3 -27,3 -12,0 -23,-1 -31,-3l0 -8c14,3 36,5 59,1z"/>
       </g>
       <g>
        <path class="fil12" d="M504 796l0 8c-9,2 -19,3 -27,3 -12,0 -23,-1 -31,-3l0 -8c14,3 36,5 59,1z"/>
       </g>
       <g>
        <path class="fil12" d="M504 821l0 8c-9,2 -19,3 -27,3 -12,0 -23,-1 -31,-3l0 -8c14,3 36,6 59,1z"/>
       </g>
      </g>
     </g>
     <g>
      <g>
       <path class="fil5" d="M360 818c0,0 3,9 6,16 3,7 1,12 3,18 2,6 -6,6 -7,-1 -1,-7 -1,-10 -2,-10 -1,0 -5,16 -6,20 -1,5 0,16 -1,18 -2,2 -6,-5 -5,-17 1,-12 0,-12 0,-12 0,0 -1,5 -2,10 -1,5 -1,11 -1,14 0,3 -3,5 -4,3 -1,-2 -3,-14 -1,-18 1,-5 3,-13 3,-13 0,0 -5,11 -5,13 -1,3 1,13 -2,15 -1,1 -4,0 -4,-15 0,0 1,-7 3,-12 0,0 -2,3 -4,8 -1,4 -2,8 -2,12 0,4 -4,3 -4,-4 0,-7 1,-15 3,-19 2,-4 5,-26 11,-34l21 4z"/>
      </g>
     </g>
     <g>
      <path class="fil10" d="M427 581c0,0 -17,79 -31,106 0,0 -8,38 -35,132 0,0 -14,6 -23,-5 0,0 13,-103 21,-137 0,0 36,-114 48,-129 0,0 18,7 20,32z"/>
     </g>
     <g>
      <g>
       <path class="fil5" d="M587 818c0,0 -3,9 -6,16 -3,7 -1,12 -3,18 -2,6 6,6 7,-1 1,-7 1,-10 2,-10 1,0 5,16 6,20 1,5 0,16 1,18 2,2 6,-5 5,-17 -1,-12 0,-12 0,-12 0,0 1,5 2,10 1,5 1,11 1,14 0,3 3,5 4,3 1,-2 3,-14 1,-18 -1,-5 -3,-13 -3,-13 0,0 5,11 5,13 1,3 -1,13 2,15 1,1 4,0 4,-15 0,0 -1,-7 -3,-12 0,0 2,3 4,8 1,4 2,8 2,12 0,4 4,3 4,-4 0,-7 -1,-15 -3,-19 -2,-4 -5,-26 -11,-34l-21 4z"/>
      </g>
     </g>
     <g>
      <path class="fil10" d="M520 581c0,0 17,79 31,106 0,0 8,38 35,132 0,0 14,6 23,-5 0,0 -13,-103 -21,-137 0,0 -36,-114 -48,-129 0,0 -18,7 -20,32z"/>
     </g>
     <g>
      <g>
       <path class="fil5" d="M493 515l-1 12 -1 15c0,0 -3,6 -17,6 -14,0 -16,-4 -16,-4l-1 -7 -2 -22 37 0z"/>
      </g>
      <g>
       <path class="fil13" d="M493 515l-1 12c-6,4 -19,13 -34,10l-2 -22 37 0z"/>
      </g>
     </g>
     <g>
      <g>
       <path class="fil14" d="M433 460c0,0 -10,-10 -19,-4 -10,8 0,36 18,33l1 -29z"/>
      </g>
     </g>
     <g>
      <g>
       <path class="fil14" d="M512 460c0,0 10,-10 19,-4 10,8 0,36 -18,33l-1 -29z"/>
      </g>
     </g>
     <path class="fil5" d="M473 527c-36,0 -47,-43 -50,-74 -3,-29 19,-54 48,-54 0,0 1,0 1,0 0,0 1,0 1,0 29,0 51,25 48,53 -3,32 -13,75 -49,75z"/>
     <path class="fil15" d="M519 368c18,12 2,37 2,37 0,0 18,18 -1,59l-3 -1c2,-13 1,-30 0,-32 -3,-8 -16,-12 -15,-20 0,0 -41,13 -63,0 0,0 -2,11 -8,17 -5,6 -2,25 -2,33l-3 0c-2,-9 -7,-24 -7,-28 0,-3 -2,-14 -2,-22 0,-7 1,-14 4,-21 2,-4 4,-7 8,-10 12,-9 75,-25 91,-13z"/>
     <g>
      <g>
       <path class="fil16" d="M462 464c0,0 -3,-8 -11,-8 -8,0 -12,6 -12,6 0,0 2,7 11,7 9,0 12,-5 12,-5z"/>
       <path class="fil17" d="M443 462c0,2 1,4 2,6 1,1 3,1 5,1 2,0 4,0 5,0 2,-1 3,-3 3,-6 0,-2 -1,-4 -2,-5 -1,-1 -3,-1 -5,-1 -2,0 -4,0 -6,1 -1,1 -2,3 -2,5z"/>
       <path class="fil17" d="M462 464c0,0 -1,-2 -3,-4 -2,-2 -5,-4 -9,-4l0 0c-8,0 -12,6 -12,6l0 1 1 0 0 0c1,-1 5,-5 12,-5l0 0c4,0 6,2 8,4 1,1 1,2 2,3 0,0 0,1 0,1l0 0c0,0 0,0 1,0 0,0 0,0 0,-1z"/>
      </g>
      <g>
       <path class="fil16" d="M505 464c0,0 -3,-8 -11,-8 -8,0 -12,6 -12,6 0,0 2,7 11,7 9,0 12,-5 12,-5z"/>
       <path class="fil17" d="M486 462c0,2 1,4 2,6 1,1 3,1 5,1 2,0 4,0 5,0 2,-1 3,-3 3,-6 0,-2 -1,-4 -2,-5 -1,-1 -3,-1 -5,-1 -2,0 -4,0 -6,1 -1,1 -2,3 -2,5z"/>
       <path class="fil17" d="M506 464c0,0 -1,-2 -3,-4 -2,-2 -5,-4 -9,-4l0 0c-8,0 -12,6 -12,6l0 1 1 0 0 0c1,-1 5,-5 12,-5l0 0c4,0 6,2 8,4 1,1 1,2 2,3 0,0 0,1 0,1l0 0c0,0 0,0 1,0 0,0 0,0 0,-1z"/>
      </g>
     </g>
     <g>
      <path class="fil17" d="M449 440c0,0 -8,1 -11,3 -2,1 -2,4 1,5 3,1 8,0 11,0 8,-1 13,-4 13,-6 -1,-3 -9,-3 -13,-2z"/>
      <path class="fil17" d="M496 440c0,0 7,1 11,3 2,1 2,4 -1,5 -2,1 -8,0 -11,0 -8,-1 -13,-4 -12,-6 1,-3 8,-3 12,-2z"/>
     </g>
     <path class="fil11" d="M460 498l23 0c0,0 -4,7 -13,7 -9,0 -11,-7 -11,-7z"/>
     <g>
      <line class="fil8 str6" x1="468" y1="461" x2="468" y2= "484" />
      <path class="fil8 str6" d="M468 484c0,1 0,1 0,1 1,2 3,3 5,2"/>
      <line class="fil8 str6" x1="473" y1="487" x2="477" y2= "486" />
     </g>
     <path class="fil9" d="M544 851c0,0 0,151 -4,188l-5 197 -38 -4c-1,-90 -11,-136 -6,-194l-18 -176c0,0 33,-12 72,-10z"/>
    </g>
   </g>
  </g>
  <path class="fil4" d="M749 0c413,0 749,335 749,749 0,413 -335,749 -749,749 -413,0 -749,-335 -749,-749 0,-413 335,-749 749,-749z"/>
 </g>
</svg>
