<?xml version="1.0" encoding="UTF-8"?>
<!DOCTYPE svg PUBLIC "-//W3C//DTD SVG 1.1//EN" "http://www.w3.org/Graphics/SVG/1.1/DTD/svg11.dtd">
<!-- Creator: CorelDRAW X6 -->
<svg xmlns="http://www.w3.org/2000/svg" xml:space="preserve" width="50mm" height="50mm" version="1.1" style="shape-rendering:geometricPrecision; text-rendering:geometricPrecision; image-rendering:optimizeQuality; fill-rule:evenodd; clip-rule:evenodd"
viewBox="0 0 5319 5319"
 xmlns:xlink="http://www.w3.org/1999/xlink">
 <defs>
  <style type="text/css">
   <![CDATA[
    .str5 {stroke:#D16664;stroke-width:18.6489;stroke-linecap:round;stroke-linejoin:round}
    .str0 {stroke:#B0CB1F;stroke-width:21.2766}
    .str2 {stroke:#E31E24;stroke-width:21.2766}
    .str1 {stroke:#FEFEFE;stroke-width:21.2766}
    .str4 {stroke:#321A17;stroke-width:28.1489;stroke-linecap:round;stroke-linejoin:round}
    .str3 {stroke:white;stroke-width:37.5319;stroke-linecap:round;stroke-linejoin:round}
    .fil17 {fill:none}
    .fil7 {fill:none;fill-rule:nonzero}
    .fil1 {fill:#B0CB1F}
    .fil3 {fill:#E31E24}
    .fil0 {fill:#EF7F1A}
    .fil2 {fill:#FEFEFE}
    .fil16 {fill:black}
    .fil15 {fill:white}
    .fil9 {fill:#00A0E3;fill-rule:nonzero}
    .fil14 {fill:#2B2A29;fill-rule:nonzero}
    .fil6 {fill:#B2B3B3;fill-rule:nonzero}
    .fil8 {fill:#2B2B2B;fill-rule:nonzero}
    .fil5 {fill:#59342F;fill-rule:nonzero}
    .fil11 {fill:#E2E2E2;fill-rule:nonzero}
    .fil12 {fill:#F78967;fill-rule:nonzero}
    .fil13 {fill:#FFA377;fill-rule:nonzero}
    .fil4 {fill:#FFAF82;fill-rule:nonzero}
    .fil10 {fill:white;fill-rule:nonzero}
   ]]>
  </style>
   <clipPath id="id0">
    <path d="M2660 0c1469,0 2660,1191 2660,2660 0,1469 -1191,2660 -2660,2660 -1469,0 -2660,-1191 -2660,-2660 0,-1469 1191,-2660 2660,-2660z"/>
   </clipPath>
 </defs>
 <g id="Layer_x0020_1">
  <metadata id="CorelCorpID_0Corel-Layer"/>
  <path class="fil0" d="M2660 0c1469,0 2660,1191 2660,2660 0,1469 -1191,2660 -2660,2660 -1469,0 -2660,-1191 -2660,-2660 0,-1469 1191,-2660 2660,-2660z"/>
  <g style="clip-path:url(#id0)">
   <g id="_1824068752">
    <rect class="fil1 str0" x="1212" y="4587" width="916" height="2107"/>
    <rect class="fil2 str1" x="2473" y="3560" width="916" height="3133"/>
    <rect class="fil3 str2" x="3734" y="2660" width="916" height="4034"/>
    <g>
     <g>
      <polygon class="fil4" points="3034,3447 3024,3164 3122,3164 3118,3442 "/>
      <g>
       <g>
        <path class="fil5" d="M3092 3430c0,0 -12,-37 15,-54 28,-17 42,-10 44,12 2,23 3,36 3,36l-62 6z"/>
        <path class="fil5" d="M3136 3407c0,0 64,45 115,44 0,0 87,2 81,78l-350 0c0,0 -21,-63 19,-114 0,0 -21,-67 30,-60l1 38c0,0 6,15 26,9 20,-6 46,-6 78,6z"/>
       </g>
       <polygon class="fil6" points="3332,3568 2982,3568 2982,3528 3332,3528 "/>
       <path class="fil7 str3" d="M3108 3443c0,0 20,-28 49,-23"/>
       <path class="fil7 str3" d="M3133 3456c0,0 20,-28 49,-23"/>
       <path class="fil7 str3" d="M3161 3465c0,0 20,-28 49,-23"/>
       <path class="fil7 str4" d="M2985 3447c0,0 83,11 88,79"/>
       <path class="fil7 str4" d="M3245 3452c0,0 -54,-2 -51,74"/>
      </g>
     </g>
     <g>
      <polygon class="fil4" points="2805,3447 2815,3164 2718,3164 2722,3442 "/>
      <g>
       <g>
        <path class="fil5" d="M2748 3430c0,0 12,-37 -16,-54 -28,-17 -42,-10 -44,12 -2,23 -3,36 -3,36l62 6z"/>
        <path class="fil5" d="M2703 3407c0,0 -64,45 -115,44 0,0 -87,2 -81,78l350 0c0,0 21,-63 -19,-114 0,0 21,-67 -30,-60l-1 38c0,0 -6,15 -26,9 -20,-6 -46,-6 -78,6z"/>
       </g>
       <polygon class="fil6" points="2507,3568 2858,3568 2858,3528 2507,3528 "/>
       <path class="fil7 str3" d="M2732 3443c0,0 -20,-28 -49,-23"/>
       <path class="fil7 str3" d="M2707 3456c0,0 -20,-28 -49,-23"/>
       <path class="fil7 str3" d="M2679 3465c0,0 -20,-28 -49,-23"/>
       <path class="fil7 str4" d="M2855 3447c0,0 -83,11 -88,79"/>
       <path class="fil7 str4" d="M2594 3452c0,0 54,-2 51,74"/>
      </g>
     </g>
     <path class="fil8" d="M2666 2048c-7,-116 16,-202 19,-200 184,-12 479,-19 479,-19 0,1 1,2 1,3 0,0 30,103 12,186 -179,110 -348,132 -511,30z"/>
     <path class="fil8" d="M2666 1992c0,0 -2,535 15,668l17 700 137 -13c3,-321 41,-484 22,-690l66 -627c0,0 -118,-41 -256,-37z"/>
     <g>
      <g>
       <path class="fil9" d="M3188 1875c-52,27 -100,47 -148,59 -36,9 -73,14 -111,13 -34,0 -66,-3 -97,-10 -51,-12 -102,-33 -158,-62l21 -442 -2 -516 131 -35 39 -11c22,-6 44,-9 66,-9 22,0 45,3 66,9l44 12 126 34 -2 516 24 442z"/>
      </g>
     </g>
     <g>
      <path class="fil10" d="M3040 883l0 1050c-36,9 -73,14 -111,13 -34,0 -66,-3 -97,-10l0 -26 0 -27 -1 -64 0 -27 -1 -64 0 -27 0 -64 0 -27 -1 -64 0 -27 -1 -64 0 -27 -1 -64 0 -27 -1 -64 0 -27 -1 -64 0 -27 -1 -64 0 -27 -1 -64 0 -27 -1 -64 0 -27 0 -2 39 -11c22,-6 44,-9 66,-9 22,0 45,3 66,9l44 12 0 0z"/>
      <g>
       <g>
        <path class="fil11" d="M3040 911l0 27c-38,7 -75,9 -108,9 -42,0 -79,-4 -108,-8l0 -27c50,7 132,14 216,-1l0 0z"/>
       </g>
       <g>
        <path class="fil11" d="M3040 987l0 27c-37,6 -73,9 -107,9 -42,0 -80,-4 -108,-8l0 -27c50,8 131,14 215,-1z"/>
       </g>
       <g>
        <path class="fil11" d="M3040 1065l0 27c-37,6 -72,9 -105,9 -42,0 -80,-4 -109,-8l0 -27c50,8 131,15 215,0z"/>
       </g>
       <g>
        <path class="fil11" d="M3040 1157l0 27c-36,6 -71,9 -104,9 -43,0 -81,-4 -110,-9l0 -27c50,8 130,16 214,0z"/>
       </g>
       <g>
        <path class="fil11" d="M3040 1248l0 27c-36,6 -70,9 -103,9 -43,0 -81,-4 -110,-9l0 -27c50,8 130,16 213,0z"/>
       </g>
       <g>
        <path class="fil11" d="M3040 1339l0 27c-35,7 -70,9 -101,9 -43,0 -81,-5 -111,-9l0 -27c50,9 129,17 213,1z"/>
       </g>
       <g>
        <path class="fil11" d="M3040 1430l0 27c-35,7 -69,9 -100,9 -43,0 -82,-5 -111,-10l0 -27c50,9 129,17 212,1z"/>
       </g>
       <g>
        <path class="fil11" d="M3040 1521l0 27c-35,7 -68,9 -99,9 -43,0 -82,-5 -111,-10l0 -27c50,9 128,18 211,1z"/>
       </g>
       <g>
        <path class="fil11" d="M3040 1612l0 27c-34,7 -68,9 -98,9 -43,0 -82,-5 -112,-11l0 -27c50,10 128,18 210,2z"/>
       </g>
       <g>
        <path class="fil11" d="M3040 1703l0 27c-34,7 -67,9 -98,9 -43,0 -82,-5 -112,-11l0 -27c50,10 127,19 210,2z"/>
       </g>
       <g>
        <path class="fil11" d="M3040 1794l0 27c-34,7 -66,9 -97,9 -43,0 -82,-5 -112,-11l0 -27c50,10 127,19 209,2z"/>
       </g>
       <g>
        <path class="fil11" d="M3040 1886l0 27c-33,7 -66,9 -96,9 -43,0 -82,-5 -112,-11l0 -27c50,11 126,20 208,2z"/>
       </g>
      </g>
     </g>
     <g>
      <g>
       <path class="fil4" d="M2527 1874c0,0 10,34 21,58 11,24 4,43 10,65 7,22 -20,20 -25,-3 -5,-23 -3,-34 -8,-35 -5,-1 -19,56 -21,72 -2,16 1,57 -5,63 -6,6 -21,-16 -16,-59 5,-42 1,-41 1,-41 0,0 -4,16 -8,34 -4,18 -4,39 -3,51 1,12 -11,18 -15,12 -4,-6 -9,-48 -4,-65 5,-16 11,-45 11,-45 0,0 -16,38 -19,47 -3,10 2,47 -7,54 -4,3 -15,-1 -13,-54 0,0 4,-26 9,-42 0,0 -9,12 -13,28 -4,14 -6,29 -7,43 -1,14 -14,12 -14,-13 0,-25 4,-53 11,-67 7,-13 17,-92 38,-121l74 16z"/>
      </g>
     </g>
     <g>
      <path class="fil9" d="M2765 1032c0,0 -60,280 -111,377 0,0 -28,136 -125,471 0,0 -51,20 -80,-18 0,0 47,-368 75,-485 0,0 127,-406 169,-459 0,0 65,27 72,115z"/>
     </g>
     <g>
      <g>
       <path class="fil4" d="M3334 1874c0,0 -10,34 -21,58 -11,24 -4,43 -10,65 -7,22 20,20 25,-3 5,-23 3,-34 8,-35 5,-1 19,56 21,72 2,16 -1,57 5,63 6,6 21,-16 16,-59 -5,-42 -1,-41 -1,-41 0,0 4,16 8,34 4,18 4,39 3,51 -1,12 11,18 15,12 4,-6 9,-48 4,-65 -5,-16 -11,-45 -11,-45 0,0 16,38 19,47 3,10 -2,47 7,54 4,3 15,-1 13,-54 0,0 -4,-26 -9,-42 0,0 9,12 13,28 4,14 6,29 7,43 1,14 14,12 14,-13 0,-25 -4,-53 -11,-67 -7,-13 -17,-92 -38,-121l-74 16z"/>
      </g>
     </g>
     <g>
      <path class="fil9" d="M3096 1032c0,0 60,280 111,377 0,0 28,136 125,471 0,0 51,20 80,-18 0,0 -47,-368 -75,-485 0,0 -127,-406 -169,-459 0,0 -65,27 -72,115z"/>
     </g>
     <g>
      <g>
       <path class="fil4" d="M2998 798l-2 43 -3 54c0,0 -11,20 -59,20 -48,0 -58,-14 -58,-14l-2 -24 -6 -79 130 0z"/>
      </g>
      <g>
       <path class="fil12" d="M2998 798l-2 43c-20,15 -68,45 -121,36l-6 -79 130 0z"/>
      </g>
     </g>
     <g>
      <g>
       <path class="fil13" d="M2786 603c0,0 -37,-36 -66,-13 -35,28 2,128 63,117l3 -105z"/>
      </g>
     </g>
     <g>
      <g>
       <path class="fil13" d="M3068 603c0,0 37,-36 66,-13 35,28 -2,128 -63,117l-3 -105z"/>
      </g>
     </g>
     <path class="fil4" d="M2929 840c-127,0 -167,-151 -178,-262 -11,-102 68,-192 171,-193 1,0 3,0 4,0 2,0 3,0 5,0 101,1 180,89 172,190 -10,112 -46,265 -173,265z"/>
     <path class="fil14" d="M3094 277c65,44 6,130 6,130 0,0 64,63 -2,211l-12 -2c8,-47 3,-105 0,-114 -9,-27 -56,-42 -54,-71 0,0 -146,46 -225,1 0,0 -6,38 -28,61 -18,20 -8,89 -5,119l-12 1c-7,-30 -25,-85 -27,-101 -1,-10 -6,-50 -7,-79 -2,-25 3,-51 14,-73 6,-12 15,-25 27,-34 42,-32 265,-88 324,-48z"/>
     <g>
      <g>
       <path class="fil15" d="M2890 616c0,0 -11,-28 -38,-30 -27,-1 -43,20 -43,20 0,0 7,24 40,26 33,2 42,-16 42,-16z"/>
       <path class="fil16" d="M2821 608c0,8 2,15 7,20 5,2 11,4 19,4 7,0 12,0 17,-1 6,-5 10,-12 11,-20 0,-7 -2,-14 -7,-19 -5,-3 -11,-5 -18,-5 -8,0 -16,1 -22,4 -5,5 -8,11 -8,18z"/>
       <path class="fil16" d="M2891 615c0,0 -3,-8 -9,-15 -6,-8 -16,-15 -31,-16l-1 0c-29,0 -44,21 -44,21l0 2 2 0 1 -1c3,-4 17,-19 41,-19l1 0c13,0 23,7 28,14 3,4 5,7 6,10 1,1 1,2 1,3l0 1c0,1 1,1 2,1 1,0 1,-1 1,-2z"/>
      </g>
      <g>
       <path class="fil15" d="M3044 616c0,0 -11,-28 -38,-30 -27,-1 -43,20 -43,20 0,0 7,24 40,26 33,2 42,-16 42,-16z"/>
       <path class="fil16" d="M2976 608c0,8 2,15 7,20 5,2 11,4 19,4 7,0 12,0 17,-1 6,-5 10,-12 11,-20 0,-7 -2,-14 -7,-19 -5,-3 -11,-5 -18,-5 -8,0 -16,1 -22,4 -5,5 -8,11 -8,18z"/>
       <path class="fil16" d="M3046 615c0,0 -3,-8 -9,-15 -6,-8 -16,-15 -31,-16l-1 0c-29,0 -44,21 -44,21l0 2 2 0 1 -1c3,-4 17,-19 41,-19l1 0c13,0 23,7 28,14 3,4 5,7 6,10 1,1 1,2 1,3l0 1c0,1 1,1 2,1 1,0 1,-1 1,-2z"/>
      </g>
     </g>
     <g>
      <path class="fil16" d="M2845 533c0,0 -27,4 -41,12 -8,5 -8,15 2,18 9,3 29,1 40,0 28,-3 47,-14 46,-23 -2,-11 -32,-9 -47,-7z"/>
      <path class="fil16" d="M3010 533c0,0 26,4 38,12 8,5 8,15 -2,18 -9,3 -27,1 -38,0 -27,-3 -45,-14 -43,-23 2,-11 30,-9 44,-7z"/>
     </g>
     <path class="fil10" d="M2884 736l83 0c0,0 -14,26 -45,25 -31,-2 -39,-25 -39,-25z"/>
     <g>
      <line class="fil7 str5" x1="2910" y1="604" x2="2910" y2= "687" />
      <path class="fil7 str5" d="M2910 687c0,2 0,4 1,5 3,6 10,9 16,8"/>
      <line class="fil7 str5" x1="2928" y1="700" x2="2942" y2= "696" />
     </g>
     <path class="fil8" d="M3181 1992c0,0 2,535 -15,668l-17 700 -137 -13c-3,-321 -41,-484 -22,-690l-66 -627c0,0 118,-41 256,-37z"/>
    </g>
   </g>
  </g>
  <path class="fil17" d="M2660 0c1469,0 2660,1191 2660,2660 0,1469 -1191,2660 -2660,2660 -1469,0 -2660,-1191 -2660,-2660 0,-1469 1191,-2660 2660,-2660z"/>
 </g>
</svg>
