<?xml version="1.0" encoding="UTF-8"?>
<!DOCTYPE svg PUBLIC "-//W3C//DTD SVG 1.1//EN" "http://www.w3.org/Graphics/SVG/1.1/DTD/svg11.dtd">
<!-- Creator: CorelDRAW X6 -->
<svg xmlns="http://www.w3.org/2000/svg" xml:space="preserve" width="50mm" height="50mm" version="1.1" style="shape-rendering:geometricPrecision; text-rendering:geometricPrecision; image-rendering:optimizeQuality; fill-rule:evenodd; clip-rule:evenodd"
viewBox="0 0 1497 1497"
 xmlns:xlink="http://www.w3.org/1999/xlink">
 <defs>
  <style type="text/css">
   <![CDATA[
    .str3 {stroke:#31314B;stroke-width:2.28144}
    .str2 {stroke:#E31E24;stroke-width:5.98802}
    .str1 {stroke:#EF7F1A;stroke-width:5.98802}
    .str0 {stroke:#FEFEFE;stroke-width:5.98802}
    .fil21 {fill:none}
    .fil10 {fill:#84919A}
    .fil0 {fill:#B0CB1F}
    .fil3 {fill:#E31E24}
    .fil2 {fill:#EF7F1A}
    .fil6 {fill:#F6AC80}
    .fil1 {fill:#FEFEFE}
    .fil12 {fill:black}
    .fil20 {fill:#291FAC}
    .fil19 {fill:#31314B}
    .fil13 {fill:#995342}
    .fil9 {fill:#C11C56}
    .fil16 {fill:#DE5A62}
    .fil5 {fill:#E62F67}
    .fil15 {fill:#ECB82D}
    .fil7 {fill:#F0E3E7}
    .fil11 {fill:#FFAF82}
    .fil17 {fill:white}
    .fil18 {fill:#2B2A29;fill-rule:nonzero}
    .fil8 {fill:#C11C56;fill-rule:nonzero}
    .fil14 {fill:#F78967;fill-rule:nonzero}
    .fil4 {fill:#FFAF82;fill-rule:nonzero}
   ]]>
  </style>
   <clipPath id="id0">
    <path d="M749 0c413,0 749,335 749,749 0,413 -335,749 -749,749 -413,0 -749,-335 -749,-749 0,-413 335,-749 749,-749z"/>
   </clipPath>
 </defs>
 <g id="Layer_x0020_1">
  <metadata id="CorelCorpID_0Corel-Layer"/>
  <path class="fil0" d="M749 0c413,0 749,335 749,749 0,413 -335,749 -749,749 -413,0 -749,-335 -749,-749 0,-413 335,-749 749,-749z"/>
  <g style="clip-path:url(#id0)">
   <g id="_991486752">
    <rect class="fil1 str0" x="341" y="1291" width="258" height="593"/>
    <rect class="fil2 str1" x="696" y="1002" width="258" height="882"/>
    <rect class="fil3 str2" x="1051" y="749" width="258" height="1135"/>
    <g>
     <g>
      <g>
       <g>
        <path class="fil4" d="M585 878c0,0 -3,10 -6,17 -3,7 -1,12 -3,19 -2,6 6,6 7,-1 1,-7 1,-10 2,-10 1,0 5,16 6,21 1,5 0,16 1,18 2,2 6,-5 5,-17 -1,-12 0,-12 0,-12 0,0 1,5 2,10 1,5 1,11 1,15 0,3 3,5 4,3 1,-2 3,-14 1,-19 -1,-5 -3,-13 -3,-13 0,0 5,11 5,14 1,3 -1,14 2,15 1,1 4,0 4,-16 0,0 -1,-7 -3,-12 0,0 2,3 4,8 1,4 2,8 2,12 0,4 4,4 4,-4 0,-7 -1,-15 -3,-19 -2,-4 -5,-27 -11,-35l-21 5z"/>
       </g>
      </g>
      <g>
       <path class="fil4" d="M517 636c0,0 18,83 33,111 0,0 7,37 35,133 0,0 15,6 23,-5 0,0 -16,-106 -24,-140 0,0 -26,-119 -52,-139 0,0 -13,15 -15,40z"/>
      </g>
     </g>
     <g>
      <g>
       <g>
        <path class="fil4" d="M362 878c0,0 3,10 6,17 3,7 1,12 3,19 2,6 -6,6 -7,-1 -1,-7 -1,-10 -2,-10 -1,0 -5,16 -6,21 -1,5 0,16 -1,18 -2,2 -6,-5 -5,-17 1,-12 0,-12 0,-12 0,0 -1,5 -2,10 -1,5 -1,11 -1,15 0,3 -3,5 -4,3 -1,-2 -3,-14 -1,-19 1,-5 3,-13 3,-13 0,0 -5,11 -5,14 -1,3 1,14 -2,15 -1,1 -4,0 -4,-16 0,0 1,-7 3,-12 0,0 -2,3 -4,8 -1,4 -2,8 -2,12 0,4 -4,4 -4,-4 0,-7 1,-15 3,-19 2,-4 5,-27 11,-35l21 5z"/>
       </g>
      </g>
      <g>
       <path class="fil4" d="M430 636c0,0 -18,83 -33,111 0,0 -7,37 -35,133 0,0 -15,6 -23,-5 0,0 16,-106 24,-140 0,0 26,-119 52,-139 0,0 13,15 15,40z"/>
      </g>
     </g>
     <g>
      <path class="fil5" d="M517 700l61 -13 -14 -68c-3,-17 -20,-28 -37,-24 -17,3 -28,20 -24,37l14 68z"/>
      <path class="fil5" d="M432 700l-61 -13 14 -68c3,-17 20,-28 37,-24 17,3 28,20 24,37l-14 68z"/>
      <path class="fil5" d="M471 570l-69 28c-5,2 -7,7 -6,12l37 123 81 0 35 -124c1,-5 -1,-10 -6,-12l-72 -26z"/>
      <path class="fil6" d="M424 589l48 -19 51 19c0,0 -3,23 -49,23 -46,0 -49,-22 -49,-22z"/>
      <path class="fil7" d="M424 698l-16 -54c0,0 -1,-1 -1,-1 0,0 -1,1 -1,1l16 54c0,0 1,1 1,1 0,0 1,-1 1,-1z"/>
      <path class="fil7" d="M526 698l16 -54c0,0 0,-1 -1,-1 0,0 -1,0 -1,1l-16 54c0,0 0,1 1,1 0,0 1,0 1,-1z"/>
     </g>
     <path class="fil8" d="M518 697c0,0 -37,26 -90,2 0,0 50,13 90,-2z"/>
     <path class="fil9" d="M440 1293c0,0 1,-1 1,-2 0,-1 1,-3 2,-4 0,-2 1,-3 1,-4 0,-1 0,-3 -1,-6 -1,-2 -1,-4 -2,-5 0,-1 -2,-3 -2,-4 0,-1 -2,-2 -2,-3 0,-1 -1,-1 -1,-2 0,-1 0,-1 -1,-2 0,0 0,-1 -1,-1 -1,-1 -1,-1 -1,-1 -1,0 -2,0 -2,0 -1,0 -2,1 -2,1 -1,0 -2,1 -2,2 -1,1 -3,3 -4,4 -1,2 -3,4 -5,6 -1,2 -3,4 -4,5 -1,1 -2,3 -3,4 -1,1 -2,4 -3,5 -1,1 -3,6 -4,7 0,1 -3,4 -3,5 0,1 -4,6 -5,7 -1,1 -3,4 -3,4 -1,1 -2,2 -3,3 -1,1 -2,2 -3,2 0,0 -2,0 -3,1 -1,1 -3,3 -4,3 -1,1 -4,3 -5,4 -1,1 -3,2 -3,3 -1,1 -1,1 -1,2 0,1 0,2 0,2 0,0 0,2 3,3 3,1 9,2 15,3 6,0 9,1 14,0 5,0 9,-2 13,-4 3,-2 4,-4 4,-5 0,-1 1,-2 1,-3 0,-1 2,-5 2,-7 0,-2 3,-8 4,-9 1,-1 4,-8 5,-9 1,-1 3,-3 3,-4 0,0 2,-2 2,-2l0 0z"/>
     <path class="fil10" d="M373 1330c0,0 0,2 2,3 2,1 9,2 10,3 2,0 11,1 16,1 0,0 4,0 8,-1 0,0 4,-1 7,-2 0,0 4,-2 6,-5 1,-2 2,-3 2,-6 0,0 2,-6 3,-8 1,-2 3,-8 4,-10 1,-2 3,-5 4,-7 1,-2 2,-3 3,-3 0,0 1,-1 1,-1l0 0 0 0c0,0 -1,3 -2,6 0,2 -1,5 -1,7 0,2 -1,6 -1,7 0,1 0,3 -1,5 0,1 -1,4 -1,4 0,0 0,1 0,1 0,0 -2,2 -3,2 -1,0 -2,1 -2,1 0,0 0,0 -1,0 -1,0 -2,0 -2,0 0,0 -2,2 -4,4 -1,2 -3,3 -4,4 -1,1 -2,2 -3,2 -1,1 -5,1 -6,2 -2,0 -7,1 -12,1 0,0 -5,0 -8,-1 -3,0 -8,-1 -9,-2 -2,0 -5,-1 -6,-2 -1,-1 -1,-1 -1,-2 0,-1 0,-1 0,-1z"/>
     <path class="fil4" d="M431 870c0,0 11,173 10,211l-1 199 -22 0c-2,-79 -28,-142 -19,-198 18,-66 20,-106 7,-167 0,0 -8,-45 26,-45z"/>
     <path class="fil11" d="M424 1278c-1,1 -6,0 -7,2 -2,3 -6,12 -7,15 -1,2 -4,8 -6,10 -2,2 -12,9 -14,11 -3,2 12,8 19,6 5,-1 8,-3 10,-6 0,0 2,-2 3,-6 2,-7 15,-23 17,-29 0,-2 -12,-5 -15,-2z"/>
     <path class="fil9" d="M506 1293c0,0 -1,-1 -1,-2 0,-1 -1,-3 -2,-4 0,-2 -1,-3 -1,-4 0,-1 0,-3 1,-6 1,-2 1,-4 2,-5 0,-1 2,-3 2,-4 0,-1 2,-2 2,-3 0,-1 1,-1 1,-2 0,-1 0,-1 1,-2 0,0 0,-1 1,-1 1,-1 1,-1 1,-1 1,0 2,0 2,0 1,0 2,1 2,1 1,0 2,1 2,2 1,1 3,3 4,4 1,2 3,4 5,6 1,2 3,4 4,5 1,1 2,3 3,4 1,1 2,4 3,5 1,1 3,6 4,7 0,1 3,4 3,5 0,1 4,6 5,7 1,1 3,4 3,4 1,1 2,2 3,3 1,1 2,2 3,2 0,0 2,0 3,1 1,1 3,3 4,3 1,1 4,3 5,4 1,1 3,2 3,3 1,1 1,1 1,2 0,1 0,2 0,2 0,0 0,2 -3,3 -3,1 -9,2 -15,3 -6,0 -9,1 -14,0 -5,0 -9,-2 -13,-4 -3,-2 -4,-4 -4,-5 0,-1 -1,-2 -1,-3 0,-1 -2,-5 -2,-7 0,-2 -3,-8 -4,-9 -1,-1 -4,-8 -5,-9 -1,-1 -3,-3 -3,-4 0,0 -2,-2 -2,-2l0 0z"/>
     <path class="fil10" d="M573 1330c0,0 0,2 -2,3 -2,1 -9,2 -10,3 -2,0 -11,1 -16,1 0,0 -4,0 -8,-1 0,0 -4,-1 -7,-2 0,0 -4,-2 -6,-5 -1,-2 -2,-3 -2,-6 0,0 -2,-6 -3,-8 -1,-2 -3,-8 -4,-10 -1,-2 -3,-5 -4,-7 -1,-2 -2,-3 -3,-3 0,0 -1,-1 -1,-1l0 0 0 0c0,0 1,3 2,6 0,2 1,5 1,7 0,2 1,6 1,7 0,1 0,3 1,5 0,1 1,4 1,4 0,0 0,1 0,1 0,0 2,2 3,2 1,0 2,1 2,1 0,0 0,0 1,0 1,0 2,0 2,0 0,0 2,2 4,4 1,2 3,3 4,4 1,1 2,2 3,2 1,1 5,1 6,2 2,0 7,1 12,1 0,0 5,0 8,-1 3,0 8,-1 9,-2 2,0 5,-1 6,-2 1,-1 1,-1 1,-2 0,-1 0,-1 0,-1z"/>
     <path class="fil11" d="M522 1278c1,1 6,0 7,2 2,3 6,12 7,15 1,2 4,8 6,10 2,2 12,9 14,11 3,2 -12,8 -19,6 -5,-1 -8,-3 -10,-6 0,0 -2,-2 -3,-6 -2,-7 -15,-23 -17,-29 0,-2 12,-5 15,-2z"/>
     <path class="fil4" d="M516 870c0,0 -11,173 -10,211l1 199 22 0c2,-79 28,-142 19,-198 17,-54 -10,-103 -7,-167 0,0 8,-45 -26,-45z"/>
     <path class="fil12" d="M490 428c0,0 20,-9 37,7 17,16 5,27 20,34 15,8 4,30 21,40 17,10 6,34 -12,38 0,0 -9,23 -27,20 0,0 -17,19 -51,7l-13 -5 25 -141z"/>
     <path class="fil12" d="M424 434c0,0 -23,3 -27,23 -4,20 -3,15 -15,26 -12,10 3,22 -7,32 -5,5 -7,9 -8,14 -1,9 5,16 14,19 6,2 10,7 14,14 7,15 31,8 31,8 0,0 23,13 37,3 14,-10 -7,-146 -7,-146l-31 6z"/>
     <polygon class="fil13" points="455,553 487,578 483,545 "/>
     <g>
      <g>
       <path class="fil4" d="M490 550l-1 12 -1 15c0,0 -3,6 -17,6 -14,0 -17,-4 -17,-4l-1 -7 -2 -23 38 0z"/>
      </g>
      <g>
       <path class="fil14" d="M490 550l-1 12c-6,4 -19,13 -35,10l-2 -23 38 0z"/>
      </g>
     </g>
     <path class="fil12" d="M494 429c0,0 -9,-21 -40,-21 -31,0 -41,32 -41,32l45 26 35 -37z"/>
     <path class="fil6" d="M430 504c3,7 3,18 -4,20 -7,2 -14,-6 -17,-13 -3,-7 -1,-13 5,-15 7,-2 13,1 16,8z"/>
     <path class="fil13" d="M414 504l0 0c0,0 1,0 1,0 1,0 3,0 4,1 2,1 3,3 4,7 0,0 0,1 1,0 0,0 1,0 0,-1 -1,-4 -3,-6 -5,-8 -2,-1 -4,-2 -5,-2 -1,0 -2,0 -2,0 0,0 -1,0 0,1 0,0 0,1 1,0z"/>
     <path class="fil15" d="M438 539c-2,5 -7,8 -12,8 -4,0 -7,-2 -10,-4 -2,-2 -4,-6 -4,-10 0,-4 2,-7 4,-10 2,-2 6,-4 10,-4l0 -2c-9,0 -16,7 -16,16 0,9 7,16 16,16 6,0 11,-4 14,-9l-2 -1z"/>
     <path class="fil6" d="M513 504c-3,7 -3,18 4,20 7,2 14,-6 17,-13 3,-7 1,-13 -5,-15 -7,-2 -13,1 -16,8z"/>
     <path class="fil13" d="M529 503c0,0 -1,0 -2,0 -1,0 -3,0 -5,2 -2,1 -4,4 -5,8 0,0 0,1 0,1 0,0 1,0 1,0 1,-4 3,-6 4,-7 2,-1 3,-1 4,-1 0,0 1,0 1,0l0 0 0 0c0,0 1,0 1,0 0,0 0,-1 0,-1z"/>
     <path class="fil15" d="M505 540c3,5 8,9 14,9 9,0 16,-7 16,-16 0,-9 -7,-16 -16,-16l0 2c4,0 7,2 10,4 2,2 4,6 4,10 0,4 -2,7 -4,10 -2,2 -6,4 -10,4 -5,0 -10,-3 -12,-8l-2 1z"/>
     <path class="fil12" d="M527 477c0,29 -25,53 -55,53 -30,0 -55,-24 -55,-53 0,-29 25,-53 55,-53 30,0 55,24 55,53z"/>
     <path class="fil6" d="M472 430l0 0c-25,0 -48,20 -48,44l1 29c0,0 1,41 40,54 4,1 9,1 13,0 39,-13 40,-54 40,-54l1 -29c0,-24 -22,-44 -48,-44z"/>
     <path class="fil16" d="M462 527c0,0 0,6 9,6 8,0 9,-6 9,-6l-18 0z"/>
     <path class="fil13" d="M468 510l0 7c0,0 0,1 1,1l5 0c0,0 1,0 1,-1 0,0 0,-1 -1,-1l-4 0 0 -6c0,0 0,-1 -1,-1 0,0 -1,0 -1,1z"/>
     <path class="fil17" d="M461 500c0,0 -3,-8 -11,-9 -8,0 -13,6 -13,6 0,0 2,7 12,8 10,0 12,-5 12,-5z"/>
     <path class="fil12" d="M441 498c0,2 1,4 2,6 2,1 3,1 6,1 2,0 4,0 5,0 2,-1 3,-4 3,-6 0,-2 -1,-4 -2,-6 -1,-1 -3,-1 -5,-2 -3,0 -5,0 -7,1 -1,1 -2,3 -2,5z"/>
     <path class="fil12" d="M461 500c0,0 -1,-2 -3,-5 -2,-2 -5,-5 -9,-5l0 0c-8,0 -13,6 -13,6l0 1 1 0 0 0c1,-1 5,-6 12,-6l0 0c4,0 7,2 8,4 1,1 1,2 2,3 0,0 0,1 0,1l0 0c0,0 0,0 1,0 0,0 0,0 0,-1z"/>
     <path class="fil17" d="M482 500c0,0 3,-8 11,-9 8,0 13,6 13,6 0,0 -2,7 -12,8 -10,0 -12,-5 -12,-5z"/>
     <path class="fil12" d="M502 498c0,2 -1,4 -2,6 -2,1 -3,1 -6,1 -2,0 -4,0 -5,0 -2,-1 -3,-4 -3,-6 0,-2 1,-4 2,-6 1,-1 3,-1 5,-2 3,0 5,0 7,1 1,1 2,3 2,5z"/>
     <path class="fil12" d="M482 500l0 0c0,-1 1,-3 3,-5 2,-2 4,-3 8,-3l0 0c4,0 7,1 9,3 1,1 2,1 2,2 0,0 0,0 1,1l0 0 1 0 0 -1c0,0 -5,-6 -13,-6l0 0c-4,0 -7,2 -9,5 -2,2 -3,4 -3,5 0,0 0,1 0,1 0,0 1,0 1,0z"/>
     <path class="fil16" d="M479 527c0,0 -8,-4 -18,0 0,0 10,4 18,0z"/>
     <path class="fil13" d="M460 527c0,0 4,3 11,3 3,0 7,-1 11,-3 0,0 0,-1 0,-1 0,0 -1,0 -1,0 -4,2 -7,2 -10,2 -3,0 -6,-1 -7,-1 -1,0 -2,-1 -2,-1 0,0 0,0 -1,0l0 0c0,0 -1,0 -1,0 0,0 0,1 0,1z"/>
     <path class="fil12" d="M494 429c0,0 -2,23 -26,27 -25,4 -19,19 -49,15 0,0 -11,-17 5,-34 11,-12 31,-21 46,-20 5,1 17,10 24,12z"/>
     <path class="fil12" d="M492 432c0,0 -11,15 35,45 0,0 7,-11 3,-20 -5,-10 -38,-25 -38,-25z"/>
     <path class="fil18" d="M456 481c0,2 -1,3 -3,3 -5,0 -16,1 -21,7 0,0 2,-10 21,-12 1,0 3,1 3,2z"/>
     <path class="fil18" d="M485 481c0,2 1,3 3,3 5,0 16,1 22,6 0,0 -2,-10 -21,-11 -1,0 -3,1 -3,2z"/>
     <g>
      <polygon class="fil12" points="515,746 434,746 434,733 515,733 "/>
      <path class="fil19" d="M441 782c-20,-3 -36,10 -40,29 -5,20 -8,44 -9,72 -2,71 2,132 5,163 2,16 15,28 32,28 16,0 30,-13 32,-29l14 -223c2,-20 -12,-38 -32,-41 0,0 0,0 -1,0z"/>
      <path class="fil19 str3" d="M459 1044l-10 219 -53 0 -1 -220c0,-17 14,-31 32,-31 18,0 32,14 32,32z"/>
      <path class="fil19" d="M509 782c20,-3 36,10 40,29 5,20 8,44 9,72 2,71 -2,132 -5,163 -2,16 -15,28 -32,28 -16,0 -30,-13 -32,-29l-14 -223c-2,-20 12,-38 32,-41 0,0 0,0 1,0z"/>
      <path class="fil19" d="M490 1044l10 219 53 0 1 -220c0,-17 -14,-31 -32,-31 -18,0 -32,14 -32,32z"/>
      <path class="fil19" d="M515 746l-81 0c0,0 -21,15 -33,61l62 35c7,4 16,4 23,0l62 -35c-12,-45 -32,-61 -32,-61z"/>
      <path class="fil20" d="M437 761c0,0 0,0 0,0 0,1 -1,8 -4,15 -3,7 -10,15 -20,18 0,0 -1,1 -1,1 0,0 1,1 1,1 12,-4 19,-12 22,-20 3,-8 4,-15 4,-15 0,0 0,-1 -1,-1 0,0 -1,0 -1,1z"/>
      <path class="fil20" d="M510 761c0,0 0,7 4,15 3,8 10,17 22,20 0,0 1,0 1,-1 0,0 0,-1 -1,-1 -12,-3 -18,-12 -21,-19 -2,-4 -3,-7 -3,-10 0,-1 0,-2 0,-3 0,0 0,-1 0,-1 0,0 0,0 0,0 0,0 0,-1 -1,-1 0,0 -1,0 -1,1z"/>
     </g>
    </g>
   </g>
  </g>
  <path class="fil21" d="M749 0c413,0 749,335 749,749 0,413 -335,749 -749,749 -413,0 -749,-335 -749,-749 0,-413 335,-749 749,-749z"/>
 </g>
</svg>
