<?xml version="1.0" encoding="UTF-8"?>
<!DOCTYPE svg PUBLIC "-//W3C//DTD SVG 1.1//EN" "http://www.w3.org/Graphics/SVG/1.1/DTD/svg11.dtd">
<!-- Creator: CorelDRAW X6 -->
<svg xmlns="http://www.w3.org/2000/svg" xml:space="preserve" width="50.2mm" height="50.2mm" version="1.1" style="shape-rendering:geometricPrecision; text-rendering:geometricPrecision; image-rendering:optimizeQuality; fill-rule:evenodd; clip-rule:evenodd"
viewBox="0 0 17027 17027"
 xmlns:xlink="http://www.w3.org/1999/xlink">
 <defs>
  <style type="text/css">
   <![CDATA[
    .str0 {stroke:#B0CB1F;stroke-width:67.8378}
    .fil15 {fill:none}
    .fil8 {fill:#009184}
    .fil5 {fill:#2E3C65}
    .fil4 {fill:#465E8D}
    .fil7 {fill:#59BDB7}
    .fil12 {fill:#AF2A2A}
    .fil9 {fill:#E39A52}
    .fil6 {fill:#E9F6FD}
    .fil10 {fill:#EAA461}
    .fil2 {fill:#F2B171}
    .fil1 {fill:#F6C08D}
    .fil3 {fill:#F6FBFE}
    .fil11 {fill:#2B2A29}
    .fil0 {fill:#B0CB1F}
    .fil14 {fill:black}
    .fil13 {fill:white}
   ]]>
  </style>
   <clipPath id="id0">
    <path d="M8514 34c4683,0 8480,3797 8480,8480 0,4683 -3797,8480 -8480,8480 -4683,0 -8480,-3797 -8480,-8480 0,-4683 3797,-8480 8480,-8480z"/>
   </clipPath>
 </defs>
 <g id="Layer_x0020_1">
  <metadata id="CorelCorpID_0Corel-Layer"/>
  <path class="fil0" d="M8514 34c4683,0 8480,3797 8480,8480 0,4683 -3797,8480 -8480,8480 -4683,0 -8480,-3797 -8480,-8480 0,-4683 3797,-8480 8480,-8480z"/>
  <g style="clip-path:url(#id0)">
   <g id="_1625525824">
    <g>
     <path id="1" class="fil1" d="M9571 14441c0,0 -51,-2215 -18,-3159 34,-943 -713,-961 -882,-582 -169,379 7,1395 69,2049 62,654 132,1691 132,1691 -69,335 410,418 590,326 180,-92 108,-326 108,-326z"/>
     <path class="fil2" d="M9546 12839c-5,-573 -6,-1171 8,-1556 3,-73 1,-140 -6,-202 -132,-207 -277,-413 -435,-604 -182,-31 -368,59 -442,225 -169,379 7,1395 69,2049 4,43 8,87 12,133 306,-4 571,-21 793,-44z"/>
     <path class="fil3" d="M9571 14422l34 -564c-197,4 -523,4 -791,4 30,328 50,557 50,557 -69,335 438,477 619,385 180,-92 125,-356 88,-382z"/>
     <path class="fil4" d="M9571 14422c68,14 413,415 381,687l-1356 0c0,0 -25,-311 268,-690 539,156 733,72 707,3z"/>
     <path class="fil5" d="M9928 15087l-1294 0c-40,0 -72,32 -72,72l0 0c0,40 33,72 72,72l1294 0c40,0 72,-32 72,-72l0 0c0,-40 -32,-72 -72,-72z"/>
     <path class="fil6" d="M9687 14651c20,6 44,-2 52,-18 8,-16 -2,-34 -23,-40 -63,-18 -159,-31 -250,-26 -75,4 -148,19 -201,53 -17,11 -20,30 -6,43 14,13 39,15 56,5 39,-24 96,-36 156,-39 80,-4 163,7 217,22z"/>
     <path class="fil6" d="M9713 14763c20,6 44,-2 52,-18 8,-16 -2,-34 -23,-40 -63,-18 -159,-31 -250,-26 -75,4 -148,19 -201,53 -17,11 -20,30 -6,43 14,13 39,15 56,5 39,-24 96,-36 156,-39 80,-4 163,7 217,23z"/>
     <path class="fil1" d="M7130 14370c0,0 68,-2144 34,-3087 -34,-943 713,-961 882,-582 170,379 -7,1395 -69,2049 -62,654 -124,1673 -124,1673l-277 499 -447 -552z"/>
     <path class="fil2" d="M7166 12805c8,-556 11,-1139 -2,-1523 -34,-943 713,-961 882,-582 170,379 -7,1395 -69,2049 -4,39 -7,80 -11,121 -248,-12 -515,-33 -800,-66z"/>
     <path class="fil3" d="M7130 14366c0,0 -20,-213 -16,-507 250,2 552,2 795,1 -29,323 -51,559 -51,559l-281 502 -447 -555z"/>
     <path class="fil4" d="M7853 14419c0,0 121,86 149,304 28,218 -28,390 -28,390l-1464 56 -167 -75c-46,-382 590,-613 787,-727 52,89 569,358 723,53z"/>
     <path class="fil6" d="M6563 14690c17,-14 36,-27 54,-40 53,26 100,60 130,88 13,12 12,31 -2,41 -14,11 -35,9 -48,-3 -30,-29 -79,-62 -135,-86z"/>
     <path class="fil6" d="M6689 14602c19,-12 39,-24 59,-36 35,21 66,44 87,65 13,12 12,31 -2,41 -14,11 -35,9 -48,-3 -23,-22 -57,-47 -97,-68z"/>
     <path class="fil5" d="M7975 15087l-1615 0c-40,0 -72,32 -72,72l0 0c0,40 33,72 72,72l1615 0c40,0 72,-32 72,-72l0 0c0,-40 -32,-72 -72,-72z"/>
     <path class="fil1" d="M7117 7600c0,0 -436,365 -701,1019 -265,653 -378,1697 -378,1697 0,0 -399,431 -492,640 -64,146 -21,223 66,120 37,-44 105,-166 159,-214 -37,67 -203,384 -115,429 88,45 93,-106 280,-347 -95,179 -198,410 -117,463 80,54 190,-305 254,-381 -38,110 -100,390 6,389 106,-1 143,-284 205,-369l192 -234c22,21 79,214 111,236 31,22 74,13 100,-94 41,-178 -98,-465 -98,-465 46,-1030 334,-1541 1007,-2176 114,-107 258,-436 76,-653 -182,-218 -414,-198 -555,-59z"/>
     <path class="fil2" d="M7117 7600c0,0 -436,365 -701,1019 360,-170 640,68 735,171 124,-158 272,-313 445,-477 114,-107 258,-436 76,-653 -182,-218 -414,-198 -555,-59z"/>
     <path class="fil7" d="M6705 7945c221,255 502,456 826,529l-153 265c-180,-32 -740,-336 -831,-549l158 -245z"/>
     <path class="fil8" d="M6705 7945c113,215 542,474 858,557 463,-368 787,-1157 226,-1266 -54,-10 -42,-81 -102,-63 -325,102 -791,411 -982,771z"/>
     <path class="fil1" d="M9753 7617c0,0 452,345 747,985 295,640 455,1678 455,1678 0,0 419,412 521,617 71,143 31,222 -60,123 -39,-42 -113,-161 -169,-206 40,65 220,375 134,424 -86,49 -98,-102 -296,-334 103,174 216,400 139,457 -78,57 -204,-296 -271,-369 43,108 118,385 12,389 -106,4 -156,-277 -222,-359l-203 -225c-21,22 -69,217 -100,241 -30,23 -73,17 -104,-90 -49,-176 77,-469 77,-469 -93,-1027 -404,-1524 -1105,-2128 -118,-102 -278,-423 -106,-649 172,-226 404,-216 552,-84z"/>
     <path class="fil2" d="M9753 7617c0,0 452,345 747,985 -367,-153 -637,97 -726,204 -132,-152 -286,-301 -466,-456 -118,-102 -278,-423 -106,-649 172,-226 404,-216 552,-84z"/>
     <path class="fil7" d="M10180 7943c-209,265 -480,478 -801,566l165 258c178,-41 724,-370 806,-587l-169 -237z"/>
     <path class="fil8" d="M10180 7943c-103,220 -520,498 -832,596 -479,-346 -839,-1120 -283,-1254 53,-13 38,-83 99,-67 330,87 809,375 1016,726z"/>
     <polygon class="fil9" points="8855,6429 8221,6539 8167,7170 8512,7241 8873,7231 "/>
     <path class="fil4" d="M9678 10385c46,806 10,2001 21,2274l-1158 1 -39 -1430c-74,0 -141,-6 -214,-6l-78 1437 -1227 -45c-8,-695 49,-1487 73,-2231 0,0 2218,-734 2621,1z"/>
     <path class="fil8" d="M9678 10385c0,0 -68,-2120 -117,-2520 -43,-354 -224,-561 -505,-663 -250,272 -923,280 -1138,-74 -363,49 -610,221 -647,711 -45,603 -212,2545 -212,2545 -74,19 1566,318 2619,2z"/>
     <path class="fil9" d="M9126 7259c-141,-103 -474,-169 -708,-178 -195,-7 -446,11 -555,90 105,136 384,244 632,244 248,0 502,-111 632,-156z"/>
     <path class="fil7" d="M9031 7172c-155,120 -356,201 -538,195 -259,-8 -482,-136 -555,-262l-240 68c255,509 1254,545 1592,84 -36,-13 -128,-48 -259,-86z"/>
     <path class="fil1" d="M10428 5114c498,-144 390,-866 -46,-859 -10,-1212 -1049,-2185 -2557,-1983 -1044,140 -2020,941 -1953,2211 45,852 275,1650 719,2092 1082,1079 3738,89 3838,-1461z"/>
     <path class="fil2" d="M10428 5114c137,-15 212,-121 266,-199 -131,83 -273,124 -453,65 11,1443 -2216,2397 -3315,1842 1214,645 3411,-300 3502,-1708z"/>
     <path class="fil10" d="M7488 5674c109,307 593,146 551,-87 -51,36 -109,86 -217,113 -93,24 -230,33 -334,-26z"/>
     <path class="fil11" d="M9213 4502c-186,-91 -486,-62 -624,-28 -263,64 -187,-119 -64,-161 233,-79 538,-31 722,82 145,90 188,215 -34,106z"/>
     <path class="fil11" d="M6676 4574c157,-110 437,-108 570,-87 252,40 153,-138 33,-168 -226,-58 -499,19 -651,151 -119,104 -139,235 48,104z"/>
     <path class="fil11" d="M10135 4676c-40,13 -133,21 -231,-446 -80,-383 -134,-740 -512,-1122 -186,226 -2180,1181 -1764,484 0,0 -410,435 -598,491 -187,56 -74,-531 -74,-531 -333,677 -1558,1362 -1222,506 -234,403 -376,-1022 792,-1722 620,-372 2188,-646 2833,-127 0,0 -108,-420 17,-413 125,8 180,410 180,410 0,0 102,-225 151,-140 49,85 -69,206 -69,206 0,0 697,239 892,915 195,676 6,1102 6,1102 -420,-130 -330,365 -402,388z"/>
     <path class="fil12" d="M7487 6304c64,73 259,183 569,107 270,-67 421,-249 465,-369 27,-74 5,-133 -29,-78 -298,481 -840,373 -967,303 -48,-27 -77,-7 -38,38z"/>
     <g>
      <path class="fil13" d="M8158 5045c0,0 124,-315 427,-330 303,-15 484,226 484,226 0,0 -77,268 -445,285 -368,18 -467,-182 -467,-182z"/>
      <path class="fil14" d="M8917 4960c4,85 -27,164 -82,221 -57,24 -126,42 -211,46 -75,4 -139,-2 -193,-13 -68,-52 -114,-133 -118,-226 -4,-82 25,-157 75,-214 55,-32 120,-55 197,-59 94,-5 176,15 245,45 51,51 84,121 88,199z"/>
      <path class="fil14" d="M8175 5052l5 -13c12,-30 49,-106 114,-174 66,-68 160,-128 291,-130l6 0c150,0 266,55 344,110 39,27 69,55 89,75 10,10 17,19 22,25l7 9 26 4 4 -26c-1,-2 -174,-233 -493,-234l-7 0c-164,2 -276,88 -345,173 -70,85 -99,168 -99,169 -3,10 2,20 11,24 10,3 20,-2 24,-11z"/>
     </g>
     <g>
      <path class="fil13" d="M7540 5045c0,0 -124,-315 -427,-330 -303,-15 -484,226 -484,226 0,0 77,268 445,285 368,18 467,-182 467,-182z"/>
      <path class="fil14" d="M6780 4960c-4,85 27,164 82,221 57,24 126,42 211,46 75,4 139,-2 193,-13 68,-52 114,-133 118,-226 4,-82 -25,-157 -75,-214 -55,-32 -120,-55 -197,-59 -94,-5 -176,15 -245,45 -51,51 -84,121 -88,199z"/>
      <path class="fil14" d="M7522 5052l-5 -13c-12,-30 -49,-106 -114,-174 -66,-68 -160,-128 -291,-130l-6 0c-150,0 -266,55 -344,110 -39,27 -69,55 -89,75 -10,10 -17,19 -22,25l-7 9 -26 4 -4 -26c1,-2 174,-233 493,-234l7 0c164,2 276,88 345,173 70,85 99,168 99,169 3,10 -2,20 -11,24 -10,3 -20,-2 -24,-11z"/>
     </g>
    </g>
   </g>
  </g>
  <path class="fil15 str0" d="M8514 34c4683,0 8480,3797 8480,8480 0,4683 -3797,8480 -8480,8480 -4683,0 -8480,-3797 -8480,-8480 0,-4683 3797,-8480 8480,-8480z"/>
 </g>
</svg>
