<?xml version="1.0" encoding="UTF-8"?>
<!DOCTYPE svg PUBLIC "-//W3C//DTD SVG 1.1//EN" "http://www.w3.org/Graphics/SVG/1.1/DTD/svg11.dtd">
<!-- Creator: CorelDRAW X6 -->
<svg xmlns="http://www.w3.org/2000/svg" xml:space="preserve" width="50.2mm" height="50.2mm" version="1.1" style="shape-rendering:geometricPrecision; text-rendering:geometricPrecision; image-rendering:optimizeQuality; fill-rule:evenodd; clip-rule:evenodd"
viewBox="0 0 2188 2188"
 xmlns:xlink="http://www.w3.org/1999/xlink">
 <defs>
  <style type="text/css">
   <![CDATA[
    .str0 {stroke:#FFED00;stroke-width:8.71528}
    .fil14 {fill:none}
    .fil9 {fill:#00877F}
    .fil6 {fill:#AF2A29}
    .fil11 {fill:#AF2A2A}
    .fil3 {fill:#CF3227}
    .fil7 {fill:#E39A52}
    .fil10 {fill:#EAA461}
    .fil4 {fill:#EB704B}
    .fil2 {fill:#F2B171}
    .fil1 {fill:#F6C08D}
    .fil5 {fill:#FCE7E1}
    .fil8 {fill:#2B2A29}
    .fil0 {fill:#FFED00}
    .fil13 {fill:black}
    .fil12 {fill:white}
   ]]>
  </style>
    <clipPath id="id0">
     <path d="M1094 4c602,0 1089,488 1089,1089 0,602 -488,1089 -1089,1089 -602,0 -1089,-488 -1089,-1089 0,-602 488,-1089 1089,-1089z"/>
    </clipPath>
 </defs>
 <g id="Layer_x0020_1">
  <metadata id="CorelCorpID_0Corel-Layer"/>
  <g id="_1792070256">
   <path class="fil0" d="M1094 4c602,0 1089,488 1089,1089 0,602 -488,1089 -1089,1089 -602,0 -1089,-488 -1089,-1089 0,-602 488,-1089 1089,-1089z"/>
   <g style="clip-path:url(#id0)">
    <g>
     <g>
      <path id="1" class="fil1" d="M1269 1015c0,0 56,43 92,122 36,79 56,207 56,207 0,0 3,3 9,9l1 1 0 0 1 1 0 0 1 1 0 0 0 0 1 1 0 0 1 1 0 0 1 1 1 1 0 0 1 1 0 0 1 1 0 0 1 1 1 1 0 0 1 1 0 0 1 1 0 0 1 1 1 1 0 0 1 1 0 0 1 1 0 0 1 1 1 1 0 0 1 1 0 0 1 1 0 0 1 1 1 1 0 0 1 1 0 0 1 1 0 0 1 1 1 1 0 0 1 1 0 0 1 1 0 1 1 1 1 1 0 0 1 1 0 0 1 1 0 1 1 1 1 1 0 0 1 1 0 0 1 1 0 1 0 1 1 1 0 0 1 1 0 0 1 1 0 1 0 1 1 1 0 0 1 1 0 0 1 1 0 1 0 1 1 1 0 0 1 1 0 0 1 1 0 1 0 0 1 1 0 0 1 1 0 0 1 1 0 1 0 0 1 1 0 0 1 1 0 0 0 1 0 0 1 1 1 1 0 0 1 1 0 1 0 0 0 1 1 1c9,18 4,27 -7,15 -5,-5 -14,-20 -21,-25 5,8 27,46 17,52 -11,6 -12,-13 -37,-41 13,22 27,49 17,56l0 0 0 0 0 0c-2,1 -5,-1 -8,-4l0 0 0 0 0 0c-3,-4 -7,-11 -10,-17 -3,-6 -6,-13 -9,-17 -1,0 0,3 0,9l0 0c3,12 5,26 0,31 -1,1 -2,1 -4,2 -13,1 -19,-34 -27,-44l-25 -28c-3,3 -9,27 -12,30 -4,3 -9,2 -13,-11 -6,-22 9,-58 9,-58 -12,-127 -50,-188 -136,-263 -15,-13 -34,-52 -13,-80 21,-28 50,-27 68,-10z"/>
      <path class="fil2" d="M1269 1015c0,0 56,43 92,122 -45,-19 -79,12 -90,25 -16,-19 -35,-37 -58,-56 -15,-13 -34,-52 -13,-80 21,-28 50,-27 68,-10z"/>
      <path class="fil3" d="M1322 1055c-26,33 -69,65 -109,75l19 25c39,-18 75,-34 107,-70 -3,-8 -11,-21 -17,-30z"/>
      <path class="fil4" d="M1322 1055c-13,27 -64,61 -103,74 -59,-43 -94,-135 -26,-153 39,-10 98,27 128,79z"/>
      <path class="fil1" d="M957 1852c0,0 5,-238 1,-358 -4,-120 91,-122 112,-74 22,48 -1,177 -9,260 -8,83 -16,172 -16,172 9,43 -52,53 -75,41 -23,-12 -14,-41 -14,-41z"/>
      <path class="fil2" d="M960 1636c0,-52 0,-103 -2,-142 -4,-120 91,-122 112,-74 19,42 4,147 -5,228 -39,-1 -74,-6 -105,-12z"/>
      <path class="fil5" d="M956 1856c0,0 -2,-34 -1,-77 25,0 68,1 102,1 -4,42 -10,75 -10,75 9,43 -53,49 -76,37 -23,-12 -15,-37 -15,-37z"/>
      <path class="fil3" d="M957 1852c-9,2 -43,53 -39,88l162 0c0,0 3,-40 -34,-88 -9,38 -66,41 -81,32 -15,-9 -7,-32 -7,-32z"/>
      <path class="fil6" d="M921 1938l156 0c5,0 9,4 9,9l0 0c0,5 -4,9 -9,9l-156 0c-5,0 -9,-4 -9,-9l0 0c0,-5 4,-9 9,-9z"/>
      <path class="fil3" d="M956 1856c-3,2 -6,0 -8,-2 -2,-3 0,-6 2,-8 9,-5 30,-9 53,-8 17,1 36,4 51,11 3,1 4,5 3,8 -1,3 -5,4 -8,3 -13,-7 -30,-10 -46,-10 -20,-1 -39,2 -47,7z"/>
      <path class="fil1" d="M1242 1844c0,0 -5,-230 -1,-349 4,-120 -91,-122 -112,-74 -22,48 1,177 9,260 8,83 16,172 16,172 19,37 66,49 112,44 28,-3 38,-9 39,-14 -8,-11 -41,-27 -62,-39z"/>
      <path class="fil2" d="M1240 1633c0,-50 0,-100 2,-138 4,-120 -91,-122 -112,-74 -19,42 -4,146 5,227 33,-2 68,-7 105,-15z"/>
      <path class="fil5" d="M1246 1844c0,0 -1,-25 -1,-62 -32,0 -70,0 -101,0 4,41 7,73 7,73 19,37 69,46 115,42 28,-3 38,-9 39,-14 -8,-11 -37,-26 -58,-39z"/>
      <path class="fil3" d="M1154 1852c0,0 -15,11 -19,39 -4,28 4,50 4,50l186 7 21 -10c0,0 10,-12 -6,-30 -16,-18 -35,-25 -35,-25 -1,4 -11,11 -39,14 -45,5 -93,-7 -112,-44z"/>
      <path class="fil3" d="M1151 1858c-3,2 -6,1 -8,-2 -2,-3 -1,-6 2,-8 11,-7 33,-12 54,-14 22,-2 43,-2 53,3 3,1 4,5 3,8 -1,3 -5,4 -8,3 -8,-4 -27,-4 -47,-2 -20,2 -39,7 -49,12z"/>
      <path class="fil6" d="M1138 1938l205 0c5,0 9,4 9,9l0 0c0,5 -4,9 -9,9l-205 0c-5,0 -9,-4 -9,-9l0 0c0,-5 4,-9 9,-9z"/>
      <path class="fil1" d="M923 1024c0,0 -56,43 -93,123 -37,80 -57,209 -57,209 0,0 -52,51 -65,77 -9,18 -4,28 7,15 5,-5 14,-20 21,-26 -5,8 -27,47 -17,53 11,6 12,-13 37,-42 -13,22 -27,50 -17,57 10,7 25,-37 34,-46 -5,13 -15,48 -1,48 13,1 19,-34 28,-45l25 -28c3,3 9,27 12,30 4,3 9,2 13,-11 6,-22 -10,-58 -10,-58 12,-128 50,-190 137,-265 15,-13 35,-53 13,-81 -21,-28 -50,-27 -69,-11z"/>
      <path class="fil2" d="M923 1024c0,0 -56,43 -93,123 46,-19 79,12 90,25 16,-19 36,-37 58,-57 15,-13 35,-53 13,-81 -21,-28 -50,-27 -69,-11z"/>
      <path class="fil3" d="M870 1064c26,33 69,65 109,76l-19 25c-39,-18 -75,-34 -108,-70 3,-8 11,-21 17,-31z"/>
      <path class="fil4" d="M870 1064c13,27 65,62 103,74 60,-43 95,-136 26,-154 -39,-10 -98,28 -129,80z"/>
      <polygon class="fil7" points="1041,878 1122,892 1129,972 1085,981 1039,980 "/>
      <path class="fil4" d="M976 1002c26,-24 73,-34 116,-37 72,-5 117,7 145,78 51,128 100,408 118,532 -83,65 -434,72 -503,5 5,-79 81,-539 124,-578z"/>
      <path class="fil3" d="M1356 1579c-92,58 -416,68 -505,8l3 -28c124,59 382,50 497,-12l5 32z"/>
      <path class="fil7" d="M1000 976c32,-11 63,-14 92,-16 25,-1 84,7 102,16 -13,17 -92,25 -123,25 -31,0 -61,-15 -72,-26z"/>
      <path class="fil3" d="M965 984c15,-7 35,-13 51,-15 12,40 122,49 143,-4 12,1 28,3 43,8 -31,86 -189,89 -237,10z"/>
      <path class="fil8" d="M1168 328c0,0 -22,-96 -171,-96 -148,-1 -254,130 -269,281 -10,101 22,160 22,228 0,49 -15,90 -39,118 -21,25 -42,26 1,33 12,2 25,3 37,2 56,-2 113,-32 171,-93 99,-105 248,-473 248,-473z"/>
      <path class="fil9" d="M976 358l-7 -37c40,-20 164,-31 197,-28l8 40c-19,6 -198,24 -198,24z"/>
      <path class="fil1" d="M845 749c-64,-11 -61,-102 -6,-107 -16,-151 100,-286 290,-282 132,3 264,89 273,247 6,106 -11,209 -60,270 -119,149 -463,63 -497,-128z"/>
      <path class="fil2" d="M845 749c-17,0 -28,-12 -36,-21 17,9 36,12 57,2 19,179 309,267 437,182 -142,97 -428,10 -459,-163z"/>
      <path class="fil10" d="M1216 762c-9,40 -72,26 -70,-3 7,4 15,9 28,11 12,2 29,1 41,-8z"/>
      <path class="fil8" d="M1346 656c-14,-19 -47,-30 -64,-33 -31,-5 -13,-22 3,-21 29,2 58,22 71,44 10,17 7,33 -10,10z"/>
      <path class="fil8" d="M1037 420c0,0 36,54 119,78 83,24 180,56 213,88 33,33 32,103 32,103 121,-178 -97,-434 -402,-349 -135,38 -248,186 -202,345 2,-31 46,-50 70,-26 6,-49 18,-68 57,-93 37,-23 94,-61 112,-148z"/>
      <path class="fil8" d="M1232 522c54,18 104,38 130,59 27,-25 45,-53 56,-80 -11,-27 -28,-53 -50,-76 -29,46 -78,78 -136,97l0 0zm-416 -27c-12,24 -21,50 -25,77 19,25 45,49 80,69 7,-35 21,-52 54,-73 13,-8 27,-17 42,-30 -58,-8 -112,-24 -151,-43z"/>
      <path class="fil8" d="M991 637c22,-14 59,-14 77,-12 33,4 22,-17 6,-21 -30,-7 -67,4 -88,20 -17,13 -20,29 6,13z"/>
      <path class="fil11" d="M1210 864c-8,10 -31,25 -71,17 -35,-7 -55,-29 -62,-45 -4,-9 -2,-17 3,-10 41,60 109,43 124,33 6,-4 10,-1 5,5z"/>
      <g>
       <path class="fil12" d="M1218 718c0,0 16,-40 55,-42 39,-2 62,29 62,29 0,0 -10,34 -57,37 -47,2 -60,-23 -60,-23z"/>
       <path class="fil13" d="M1316 707c1,11 -4,21 -10,28 -7,3 -16,5 -27,6 -10,0 -18,0 -25,-2 -9,-7 -15,-17 -15,-29 0,-10 3,-20 10,-27 7,-4 15,-7 25,-8 12,-1 23,2 31,6 7,7 11,16 11,26z"/>
       <path class="fil13" d="M1221 718l1 -2c2,-4 6,-14 15,-22 8,-9 20,-16 37,-17l1 0c19,0 34,7 44,14 5,4 9,7 11,10 1,1 2,2 3,3l1 1 3 0 0 -3c0,0 -22,-30 -63,-30l-1 0c-21,0 -35,11 -44,22 -9,11 -13,22 -13,22 0,1 0,3 1,3 1,0 3,0 3,-1z"/>
      </g>
      <g>
       <path class="fil12" d="M1139 718c0,0 -16,-40 -55,-42 -39,-2 -62,29 -62,29 0,0 10,34 57,37 47,2 60,-23 60,-23z"/>
       <path class="fil13" d="M1041 707c-1,11 4,21 10,28 7,3 16,5 27,6 10,0 18,0 25,-2 9,-7 15,-17 15,-29 0,-10 -3,-20 -10,-27 -7,-4 -15,-7 -25,-8 -12,-1 -23,2 -31,6 -7,7 -11,16 -11,26z"/>
       <path class="fil13" d="M1137 718l-1 -2c-2,-4 -6,-14 -15,-22 -8,-9 -20,-16 -37,-17l-1 0c-19,0 -34,7 -44,14 -5,4 -9,7 -11,10 -1,1 -2,2 -3,3l-1 1 -3 0 0 -3c0,0 22,-30 63,-30l1 0c21,0 35,11 44,22 9,11 13,22 13,22 0,1 0,3 -1,3 -1,0 -3,0 -3,-1z"/>
      </g>
     </g>
    </g>
   </g>
   <path class="fil14 str0" d="M1094 4c602,0 1089,488 1089,1089 0,602 -488,1089 -1089,1089 -602,0 -1089,-488 -1089,-1089 0,-602 488,-1089 1089,-1089z"/>
  </g>
 </g>
</svg>
