<?xml version="1.0" encoding="UTF-8"?>
<!DOCTYPE svg PUBLIC "-//W3C//DTD SVG 1.1//EN" "http://www.w3.org/Graphics/SVG/1.1/DTD/svg11.dtd">
<!-- Creator: CorelDRAW X6 -->
<svg xmlns="http://www.w3.org/2000/svg" xml:space="preserve" width="50mm" height="50mm" version="1.1" style="shape-rendering:geometricPrecision; text-rendering:geometricPrecision; image-rendering:optimizeQuality; fill-rule:evenodd; clip-rule:evenodd"
viewBox="0 0 1497 1497"
 xmlns:xlink="http://www.w3.org/1999/xlink">
 <defs>
  <style type="text/css">
   <![CDATA[
    .str2 {stroke:#31314B;stroke-width:2.28144}
    .str1 {stroke:#A2D9F7;stroke-width:5.98802}
    .str0 {stroke:#B0CB1F;stroke-width:5.98802}
    .fil30 {fill:none}
    .fil19 {fill:#84919A}
    .fil1 {fill:#A2D9F7}
    .fil0 {fill:#B0CB1F}
    .fil15 {fill:#F6AC80}
    .fil21 {fill:black}
    .fil29 {fill:#291FAC}
    .fil28 {fill:#31314B}
    .fil5 {fill:#524798}
    .fil4 {fill:#5E54AC}
    .fil11 {fill:#80B4FB}
    .fil10 {fill:#8B5E5E}
    .fil22 {fill:#995342}
    .fil8 {fill:#9DC6FB}
    .fil9 {fill:#AA8080}
    .fil18 {fill:#C11C56}
    .fil7 {fill:#D8E2F1}
    .fil25 {fill:#DE5A62}
    .fil14 {fill:#E62F67}
    .fil3 {fill:#E7A52E}
    .fil6 {fill:#E7ECF6}
    .fil2 {fill:#EAB14D}
    .fil24 {fill:#ECB82D}
    .fil16 {fill:#F0E3E7}
    .fil20 {fill:#FFAF82}
    .fil12 {fill:#FFD064}
    .fil26 {fill:white}
    .fil27 {fill:#2B2A29;fill-rule:nonzero}
    .fil17 {fill:#C11C56;fill-rule:nonzero}
    .fil23 {fill:#F78967;fill-rule:nonzero}
    .fil13 {fill:#FFAF82;fill-rule:nonzero}
   ]]>
  </style>
   <clipPath id="id0">
    <path d="M749 0c413,0 749,335 749,749 0,413 -335,749 -749,749 -413,0 -749,-335 -749,-749 0,-413 335,-749 749,-749z"/>
   </clipPath>
 </defs>
 <g id="Layer_x0020_1">
  <metadata id="CorelCorpID_0Corel-Layer"/>
  <path class="fil0" d="M749 0c413,0 749,335 749,749 0,413 -335,749 -749,749 -413,0 -749,-335 -749,-749 0,-413 335,-749 749,-749z"/>
  <g style="clip-path:url(#id0)">
   <g id="_1151001280">
    <rect class="fil0 str0" x="-233" y="1024" width="2006" height="516"/>
    <rect class="fil1 str1" x="-233" y="-139" width="2006" height="1163"/>
    <g>
     <path class="fil2" d="M760 534l162 162c6,6 14,9 22,9l230 0 0 430 -838 0 0 -430 230 0c8,0 16,-3 22,-9l162 -162c3,-3 8,-3 10,0z"/>
     <path class="fil3" d="M944 705c-8,0 -16,-3 -22,-9l-162 -162c-3,-3 -8,-3 -10,0l-162 162c-6,6 -14,9 -22,9l-230 0 0 41 230 0c19,0 37,-8 51,-21l125 -125c7,-7 19,-7 26,0l125 125c14,14 32,21 51,21l170 0c10,0 19,8 19,19l0 371 41 0 0 -430 -230 0z"/>
     <path class="fil4" d="M733 462c12,-12 32,-12 45,0l180 180 217 0 -87 -235c-5,-15 -19,-24 -35,-24l-593 0c-15,0 -29,10 -35,24l-87 235 217 0 180 -180z"/>
     <path class="fil5" d="M1087 407c-5,-15 -19,-24 -35,-24l-56 0c15,0 29,10 35,24l87 235 56 0 -87 -235z"/>
     <path class="fil6" d="M1211 686c0,10 -8,19 -19,19l-248 0c-8,0 -16,-3 -22,-9l-162 -162c-3,-3 -8,-3 -10,0l-162 162c-6,6 -14,9 -22,9l-248 0c-10,0 -19,-8 -19,-19l0 -26c0,-10 8,-19 19,-19l235 0 180 -180c12,-12 32,-12 45,0l180 180 235 0c10,0 19,8 19,19l0 26z"/>
     <path class="fil7" d="M1192 642l-63 0c10,0 19,8 19,19l0 26c0,10 -8,19 -19,19l63 0c10,0 19,-8 19,-19l0 -26c0,-10 -8,-19 -19,-19z"/>
     <path class="fil8" d="M928 860l0 167 185 0 0 -167c0,-10 -8,-18 -18,-18l-149 0c-10,0 -18,8 -18,18z"/>
     <path class="fil9" d="M928 1027l0 41c0,10 8,18 18,18l149 0c10,0 18,-8 18,-18l0 -41 -185 0z"/>
     <path class="fil8" d="M583 860l0 167 -185 0 0 -167c0,-10 8,-18 18,-18l149 0c10,0 18,8 18,18z"/>
     <path class="fil9" d="M583 1027l0 41c0,10 -8,18 -18,18l-149 0c-10,0 -18,-8 -18,-18l0 -41 185 0z"/>
     <path class="fil10" d="M859 860l0 274 -208 0 0 -114 9 -14 -9 -14 0 -133c0,-10 8,-18 18,-18l171 0c10,0 18,8 18,18z"/>
     <path class="fil8" d="M711 949l0 -37c0,-6 5,-11 11,-11l67 0c6,0 11,5 11,11l0 37c0,6 -5,11 -11,11l-67 0c-6,0 -11,-5 -11,-11z"/>
     <path class="fil8" d="M815 714c0,33 -27,59 -59,59 -33,0 -59,-27 -59,-59 0,-33 27,-59 59,-59 33,0 59,27 59,59z"/>
     <path class="fil4" d="M1193 1198l-875 0c-10,0 -18,-8 -18,-18l0 -26c0,-10 8,-18 18,-18l875 0c10,0 18,8 18,18l0 26c0,10 -8,18 -18,18z"/>
     <path class="fil5" d="M1148 1135l0 63 45 0c10,0 18,-8 18,-18l0 -26c0,-10 -8,-18 -18,-18l-45 0z"/>
     <polygon class="fil11" points="1113,921 1034,921 1034,842 1006,842 1006,921 928,921 928,948 1006,948 1006,1027 1034,1027 1034,948 1113,948 "/>
     <polygon class="fil11" points="583,921 504,921 504,842 476,842 476,921 398,921 398,948 476,948 476,1027 504,1027 504,948 583,948 "/>
     <path class="fil12" d="M651 993l33 0c8,0 14,6 14,14 0,8 -6,14 -14,14l-33 0 0 -28z"/>
    </g>
    <g>
     <g>
      <g>
       <g>
        <path class="fil13" d="M1179 1484c0,0 -5,15 -10,26 -5,11 -2,20 -5,30 -3,10 9,9 11,-1 2,-10 1,-15 3,-16 2,0 8,25 9,32 1,7 -1,26 2,28 3,3 9,-7 7,-27 -2,-19 -1,-19 -1,-19 0,0 2,7 4,15 2,8 2,18 2,23 0,5 5,8 7,5 2,-3 4,-22 2,-29 -2,-7 -5,-20 -5,-20 0,0 7,17 9,21 1,4 -1,21 3,24 2,1 7,0 6,-24 0,0 -2,-12 -4,-19 0,0 4,5 6,13 2,6 3,13 3,20 1,6 6,6 6,-6 0,-11 -2,-24 -5,-30 -3,-6 -8,-42 -17,-55l-33 7z"/>
       </g>
      </g>
      <g>
       <path class="fil13" d="M1072 1104c0,0 28,130 51,174 0,0 12,58 55,209 0,0 23,9 36,-8 0,0 -24,-167 -37,-220 0,0 -41,-187 -82,-218 0,0 -21,24 -24,63z"/>
      </g>
     </g>
     <g>
      <g>
       <g>
        <path class="fil13" d="M829 1484c0,0 5,15 10,26 5,11 2,20 5,30 3,10 -9,9 -11,-1 -2,-10 -1,-15 -3,-16 -2,0 -8,25 -9,32 -1,7 1,26 -2,28 -3,3 -9,-7 -7,-27 2,-19 1,-19 1,-19 0,0 -2,7 -4,15 -2,8 -2,18 -2,23 0,5 -5,8 -7,5 -2,-3 -4,-22 -2,-29 2,-7 5,-20 5,-20 0,0 -7,17 -9,21 -1,4 1,21 -3,24 -2,1 -7,0 -6,-24 0,0 2,-12 4,-19 0,0 -4,5 -6,13 -2,6 -3,13 -3,20 -1,6 -6,6 -6,-6 0,-11 2,-24 5,-30 3,-6 8,-42 17,-55l33 7z"/>
       </g>
      </g>
      <g>
       <path class="fil13" d="M936 1104c0,0 -28,130 -51,174 0,0 -12,58 -55,209 0,0 -23,9 -36,-8 0,0 24,-167 37,-220 0,0 41,-187 82,-218 0,0 21,24 24,63z"/>
      </g>
     </g>
     <g>
      <path class="fil14" d="M1072 1204l95 -20 -22 -107c-5,-26 -31,-43 -58,-38 -26,5 -43,31 -38,58l22 107z"/>
      <path class="fil14" d="M939 1205l-95 -20 22 -107c5,-26 31,-43 58,-38 26,5 43,31 38,58l-22 107z"/>
      <path class="fil14" d="M1000 1001l-108 44c-7,3 -11,11 -9,19l58 193 127 0 54 -195c2,-8 -2,-16 -10,-19l-113 -41z"/>
      <path class="fil15" d="M926 1031l74 -30 80 29c0,0 -5,36 -77,36 -73,0 -77,-35 -77,-35z"/>
      <path class="fil16" d="M926 1201l-25 -84c0,-1 -1,-1 -2,-1 -1,0 -1,1 -1,2l25 84c0,1 1,1 2,1 1,0 1,-1 1,-2z"/>
      <path class="fil16" d="M1086 1202l25 -84c0,-1 0,-2 -1,-2 -1,0 -2,0 -2,1l-25 84c0,1 0,2 1,2 1,0 2,0 2,-1z"/>
     </g>
     <path class="fil17" d="M1074 1200c0,0 -58,41 -141,2 0,0 78,21 141,-2z"/>
     <path class="fil18" d="M951 2134c0,0 1,-2 2,-3 1,-1 2,-4 2,-6 1,-3 1,-5 1,-7 0,-2 0,-5 -1,-9 -1,-4 -2,-7 -3,-8 0,-1 -3,-5 -3,-6 -1,-1 -2,-3 -3,-4 0,-1 -1,-2 -2,-3 0,-1 -1,-2 -1,-3 0,-1 0,-1 -1,-2 -1,-1 -1,-1 -2,-1 -1,0 -2,0 -3,0 -1,0 -3,1 -4,2 -1,1 -3,2 -4,3 -1,1 -4,4 -6,7 -2,2 -5,7 -7,9 -2,2 -5,6 -6,8 -1,2 -4,5 -4,7 -1,2 -3,6 -4,8 -1,2 -5,9 -6,10 -1,1 -4,6 -4,7 -1,1 -6,10 -7,11 -2,2 -4,6 -5,6 -1,1 -3,3 -4,4 -1,1 -3,3 -4,3 0,0 -2,0 -4,2 -2,1 -4,4 -6,5 -2,1 -6,4 -8,6 -2,1 -4,4 -5,5 -1,2 -2,2 -2,4 0,2 0,3 0,3 0,0 0,3 5,4 5,2 14,3 24,4 10,1 15,1 22,1 8,-1 15,-3 20,-6 5,-3 6,-6 7,-8 1,-1 2,-3 2,-5 0,-2 3,-9 3,-11 1,-2 5,-13 6,-14 1,-2 7,-13 8,-14 1,-1 4,-5 5,-6 1,-1 2,-3 2,-3l1 0z"/>
     <path class="fil19" d="M847 2193c0,0 0,2 3,4 3,2 14,4 16,4 2,0 18,2 25,2 0,0 6,1 13,-1 0,0 7,-1 11,-3 0,0 7,-4 9,-7 2,-4 3,-5 4,-10 0,0 3,-10 4,-13 1,-4 5,-12 7,-16 2,-4 4,-8 6,-10 2,-3 4,-5 4,-5 0,0 2,-2 2,-2l0 0 0 0c0,0 -2,5 -2,9 -1,4 -2,9 -2,11 0,3 -2,9 -2,10 0,1 -1,5 -1,7 0,2 -1,6 -1,7 0,1 0,1 0,1 0,0 -3,3 -4,3 -1,1 -3,2 -3,2 0,0 -1,0 -2,0 -1,0 -3,0 -3,0 0,0 -4,4 -6,6 -2,2 -5,5 -6,6 -1,1 -4,2 -5,3 -2,1 -7,2 -10,3 -3,1 -11,2 -19,1 0,0 -8,0 -13,-1 -5,0 -12,-2 -15,-3 -3,-1 -7,-2 -9,-3 -2,-2 -2,-2 -2,-3 0,-1 1,-2 1,-2z"/>
     <path class="fil13" d="M937 1472c0,0 17,271 15,331l-2 312 -35 0c-3,-123 -44,-223 -30,-311 28,-103 31,-166 11,-262 0,0 -12,-70 40,-71z"/>
     <path class="fil20" d="M927 2111c-2,2 -9,-1 -11,4 -3,5 -9,18 -11,23 -1,3 -7,12 -9,16 -3,4 -18,15 -22,17 -5,3 19,12 30,10 8,-2 13,-5 16,-10 0,0 4,-4 5,-10 2,-12 24,-35 26,-45 1,-2 -18,-9 -24,-4z"/>
     <path class="fil18" d="M1055 2134c0,0 -1,-2 -2,-3 -1,-1 -2,-4 -2,-6 -1,-3 -1,-5 -1,-7 0,-2 0,-5 1,-9 1,-4 2,-7 3,-8 0,-1 3,-5 3,-6 1,-1 2,-3 3,-4 0,-1 1,-2 2,-3 0,-1 1,-2 1,-3 0,-1 0,-1 1,-2 1,-1 1,-1 2,-1 1,0 2,0 3,0 1,0 3,1 4,2 1,1 3,2 4,3 1,1 4,4 6,7 2,2 5,7 7,9 2,2 5,6 6,8 1,2 4,5 4,7 1,2 3,6 4,8 1,2 5,9 6,10 1,1 4,6 4,7 1,1 6,10 7,11 2,2 4,6 5,6 1,1 3,3 4,4 1,1 3,3 4,3 0,0 2,0 4,2 2,1 4,4 6,5 2,1 6,4 8,6 2,1 4,4 5,5 1,2 2,2 2,4 0,2 0,3 0,3 0,0 0,3 -5,4 -5,2 -14,3 -24,4 -10,1 -15,1 -22,1 -8,-1 -15,-3 -20,-6 -5,-3 -6,-6 -7,-8 -1,-1 -2,-3 -2,-5 0,-2 -3,-9 -3,-11 -1,-2 -5,-13 -6,-14 -1,-2 -7,-13 -8,-14 -1,-1 -4,-5 -5,-6 -1,-1 -2,-3 -2,-3l-1 0z"/>
     <path class="fil19" d="M1160 2193c0,0 0,2 -3,4 -3,2 -14,4 -16,4 -2,0 -18,2 -25,2 0,0 -6,1 -13,-1 0,0 -7,-1 -11,-3 0,0 -7,-4 -9,-7 -2,-4 -3,-5 -4,-10 0,0 -3,-10 -4,-13 -1,-4 -5,-12 -7,-16 -2,-4 -4,-8 -6,-10 -2,-3 -4,-5 -4,-5 0,0 -2,-2 -2,-2l0 0 0 0c0,0 2,5 2,9 1,4 2,9 2,11 0,3 2,9 2,10 0,1 1,5 1,7 0,2 1,6 1,7 0,1 0,1 0,1 0,0 3,3 4,3 1,1 3,2 3,2 0,0 1,0 2,0 1,0 3,0 3,0 0,0 4,4 6,6 2,2 5,5 6,6 1,1 4,2 5,3 2,1 7,2 10,3 3,1 11,2 19,1 0,0 8,0 13,-1 5,0 12,-2 15,-3 3,-1 7,-2 9,-3 2,-2 2,-2 2,-3 0,-1 -1,-2 -1,-2z"/>
     <path class="fil20" d="M1080 2111c2,2 9,-1 11,4 3,5 9,18 11,23 1,3 7,12 9,16 3,4 18,15 22,17 5,3 -19,12 -30,10 -8,-2 -13,-5 -16,-10 0,0 -4,-4 -5,-10 -2,-12 -24,-35 -26,-45 -1,-2 18,-9 24,-4z"/>
     <path class="fil13" d="M1070 1472c0,0 -17,271 -15,331l2 312 35 0c3,-123 44,-223 30,-311 26,-85 -16,-161 -11,-262 0,0 12,-70 -40,-71z"/>
     <path class="fil21" d="M1030 778c0,0 32,-14 58,11 26,25 8,42 31,54 23,12 6,47 34,62 27,16 9,54 -19,59 0,0 -13,36 -43,32 0,0 -27,30 -81,11l-20 -8 39 -222z"/>
     <path class="fil21" d="M926 788c0,0 -35,5 -42,36 -7,31 -4,24 -24,40 -19,16 5,34 -10,50 -8,8 -12,15 -12,23 -1,14 8,26 21,29 9,3 16,11 22,23 11,23 48,13 48,13 0,0 36,21 58,5 22,-15 -11,-228 -11,-228l-49 9z"/>
     <polygon class="fil22" points="975,974 1025,1013 1019,961 "/>
     <g>
      <g>
       <path class="fil13" d="M1029 969l-1 19 -1 24c0,0 -5,9 -27,9 -22,0 -26,-6 -26,-6l-1 -11 -3 -36 59 0z"/>
      </g>
      <g>
       <path class="fil23" d="M1029 969l-1 19c-9,7 -30,20 -55,16l-3 -36 59 0z"/>
      </g>
     </g>
     <path class="fil21" d="M1037 779c0,0 -14,-33 -62,-33 -49,0 -64,51 -64,51l71 41 55 -59z"/>
     <path class="fil15" d="M936 897c5,11 4,28 -6,32 -10,4 -22,-10 -27,-21 -5,-11 -2,-20 8,-24 10,-4 20,2 25,13z"/>
     <path class="fil22" d="M911 898l0 0c0,0 1,0 2,0 2,0 4,0 7,2 3,2 5,5 7,11 0,1 1,1 1,1 1,0 1,-1 1,-1 -2,-6 -5,-10 -8,-12 -3,-2 -6,-3 -8,-3 -2,0 -3,0 -3,0 -1,0 -1,1 -1,1 0,1 1,1 1,1z"/>
     <path class="fil24" d="M947 952c-4,7 -11,12 -19,12 -6,0 -11,-2 -15,-6 -4,-4 -6,-9 -6,-15 0,-6 2,-11 6,-15 4,-4 9,-6 15,-6l0 -3c-14,0 -25,11 -25,25 0,14 11,25 25,25 10,0 18,-6 22,-14l-3 -1z"/>
     <path class="fil15" d="M1066 897c-5,11 -4,28 6,32 10,4 22,-10 27,-21 5,-11 2,-20 -8,-24 -10,-4 -20,2 -25,13z"/>
     <path class="fil22" d="M1091 896c0,0 -1,0 -3,0 -2,0 -5,0 -8,3 -3,2 -6,6 -8,12 0,1 0,1 1,1 1,0 1,0 1,-1 2,-6 4,-9 7,-11 3,-2 5,-2 7,-2 1,0 1,0 2,0l0 0 0 0c1,0 1,0 1,-1 0,-1 0,-1 -1,-1z"/>
     <path class="fil24" d="M1053 954c4,8 12,14 22,14 14,0 25,-11 25,-25 0,-14 -11,-25 -25,-25l0 3c6,0 11,2 15,6 4,4 6,9 6,15 0,6 -2,11 -6,15 -4,4 -9,6 -15,6 -8,0 -16,-5 -19,-12l-3 1z"/>
     <path class="fil21" d="M1087 855c0,46 -39,83 -86,83 -48,0 -86,-37 -86,-83 0,-46 39,-83 86,-83 48,0 86,37 86,83z"/>
     <path class="fil15" d="M1001 782l0 0c-40,0 -75,31 -75,69l2 46c0,0 1,65 62,85 7,2 14,2 21,0 62,-20 62,-85 62,-85l2 -46c0,-38 -35,-69 -75,-69z"/>
     <path class="fil25" d="M986 933c0,0 1,10 14,10 13,0 14,-10 14,-10l-27 0z"/>
     <path class="fil22" d="M996 907l0 11c0,1 0,1 1,1l8 0c1,0 1,0 1,-1 0,-1 0,-1 -1,-1l-7 0 0 -10c0,-1 0,-1 -1,-1 -1,0 -1,0 -1,1z"/>
     <path class="fil26" d="M984 891c0,0 -5,-13 -18,-14 -13,-1 -20,9 -20,9 0,0 3,11 19,12 15,1 20,-8 20,-8z"/>
     <path class="fil21" d="M952 888c0,4 1,7 3,9 2,1 5,2 9,2 3,0 6,0 8,-1 3,-2 5,-6 5,-9 0,-3 -1,-7 -3,-9 -2,-1 -5,-2 -8,-2 -4,0 -7,1 -10,2 -2,2 -4,5 -4,8z"/>
     <path class="fil21" d="M985 891c0,0 -1,-4 -4,-7 -3,-4 -8,-7 -14,-7l0 0c-13,0 -21,10 -21,10l0 1 1 0 0 0c1,-2 8,-9 19,-9l0 0c6,0 11,3 13,7 1,2 2,3 3,5 0,1 1,1 1,1l0 1c0,0 1,1 1,0 0,0 1,-1 0,-1z"/>
     <path class="fil26" d="M1017 891c0,0 5,-13 18,-14 13,-1 20,9 20,9 0,0 -3,11 -19,12 -15,1 -20,-8 -20,-8z"/>
     <path class="fil21" d="M1049 888c0,4 -1,7 -3,9 -2,1 -5,2 -9,2 -3,0 -6,0 -8,-1 -3,-2 -5,-6 -5,-9 0,-3 1,-7 3,-9 2,-1 5,-2 8,-2 4,0 7,1 10,2 2,2 4,5 4,8z"/>
     <path class="fil21" d="M1018 892l0 -1c1,-1 2,-4 5,-7 3,-3 7,-5 12,-5l0 0c6,0 11,2 14,5 2,1 3,2 4,3 0,0 1,1 1,1l0 0 1 0 0 -1c0,0 -7,-10 -21,-10l0 0c-7,0 -12,4 -14,7 -3,4 -4,7 -4,7 0,0 0,1 0,1 0,0 1,0 1,0z"/>
     <path class="fil25" d="M1013 933c0,0 -13,-7 -27,0 0,0 15,6 27,0z"/>
     <path class="fil22" d="M982 933c0,0 7,4 17,4 5,0 11,-1 17,-4 0,0 1,-1 0,-1 0,0 -1,-1 -1,0 -6,3 -11,4 -16,4 -5,0 -9,-1 -12,-2 -1,0 -3,-1 -3,-1 0,0 -1,0 -1,0l0 0c0,0 -1,0 -1,0 0,0 0,1 0,1z"/>
     <path class="fil21" d="M1037 779c0,0 -3,36 -41,42 -38,6 -30,30 -77,24 0,0 -17,-26 8,-54 17,-18 49,-33 72,-31 8,1 26,16 37,18z"/>
     <path class="fil21" d="M1032 784c0,0 -17,24 55,71 0,0 12,-17 4,-32 -8,-15 -59,-39 -59,-39z"/>
     <path class="fil27" d="M976 861c0,2 -2,5 -4,5 -8,0 -25,2 -34,11 0,0 3,-15 33,-19 2,0 4,1 5,4z"/>
     <path class="fil27" d="M1021 861c0,2 2,5 4,5 8,0 25,1 34,10 0,0 -3,-15 -34,-18 -2,0 -4,1 -5,4z"/>
     <g>
      <polygon class="fil21" points="1070,1276 942,1276 942,1257 1070,1257 "/>
      <path class="fil28" d="M952 1333c-31,-5 -56,15 -63,46 -7,31 -12,68 -14,113 -3,111 2,207 8,256 3,25 24,44 49,44 26,0 47,-20 50,-45l22 -349c3,-31 -19,-59 -51,-64 0,0 -1,0 -1,0z"/>
      <path class="fil28 str2" d="M981 1744l-15 343 -82 0 -2 -344c0,-27 22,-49 49,-49 28,0 50,23 49,50z"/>
      <path class="fil28" d="M1059 1333c31,-5 56,15 63,46 7,31 12,68 14,113 3,111 -2,207 -8,256 -3,25 -24,44 -49,44 -26,0 -47,-20 -50,-45l-22 -349c-3,-31 19,-59 51,-64 0,0 1,0 1,0z"/>
      <path class="fil28" d="M1030 1744l15 343 82 0 2 -344c0,-27 -22,-49 -49,-49 -28,0 -50,23 -49,50z"/>
      <path class="fil28" d="M1070 1276l-127 0c0,0 -33,23 -51,96l97 55c11,7 25,7 36,0l96 -55c-20,-71 -51,-96 -51,-96z"/>
      <path class="fil29" d="M947 1300c0,0 0,0 0,0 0,2 -1,13 -7,24 -5,11 -15,23 -32,28 -1,0 -1,1 -1,2 0,1 1,1 2,1 19,-6 29,-19 35,-32 5,-12 6,-23 6,-23 0,-1 -1,-1 -1,-1 -1,0 -1,1 -1,1z"/>
      <path class="fil29" d="M1061 1300c0,0 1,11 6,23 5,12 16,26 35,32 1,0 2,0 2,-1 0,-1 0,-2 -1,-2 -18,-5 -28,-18 -33,-30 -3,-6 -4,-12 -5,-16 0,-2 -1,-4 -1,-5 0,-1 0,-1 0,-1 0,0 0,0 0,0 0,-1 -1,-1 -1,-1 -1,0 -1,1 -1,1z"/>
     </g>
    </g>
   </g>
  </g>
  <path class="fil30" d="M749 0c413,0 749,335 749,749 0,413 -335,749 -749,749 -413,0 -749,-335 -749,-749 0,-413 335,-749 749,-749z"/>
 </g>
</svg>
