<?xml version="1.0" encoding="UTF-8"?>
<!DOCTYPE svg PUBLIC "-//W3C//DTD SVG 1.1//EN" "http://www.w3.org/Graphics/SVG/1.1/DTD/svg11.dtd">
<!-- Creator: CorelDRAW X6 -->
<svg xmlns="http://www.w3.org/2000/svg" xml:space="preserve" width="58.5443mm" height="50mm" version="1.1" style="shape-rendering:geometricPrecision; text-rendering:geometricPrecision; image-rendering:optimizeQuality; fill-rule:evenodd; clip-rule:evenodd"
viewBox="0 0 1802 1539"
 xmlns:xlink="http://www.w3.org/1999/xlink">
 <defs>
  <style type="text/css">
   <![CDATA[
    .str2 {stroke:#31314B;stroke-width:2.34502}
    .str1 {stroke:#00A0E3;stroke-width:6.15491}
    .str0 {stroke:#898989;stroke-width:6.15491}
    .str3 {stroke:#FFAF82;stroke-width:6.15491}
    .fil3 {fill:none}
    .fil17 {fill:#84919A}
    .fil2 {fill:#00A0E3}
    .fil1 {fill:#898989}
    .fil0 {fill:#B0CB1F}
    .fil20 {fill:black}
    .fil22 {fill:#291FAC}
    .fil21 {fill:#31314B}
    .fil28 {fill:#995342}
    .fil16 {fill:#C11C56}
    .fil27 {fill:#DE5A62}
    .fil18 {fill:#FFAF82}
    .fil29 {fill:white}
    .fil26 {fill:#727271;fill-rule:nonzero}
    .fil15 {fill:#FEFEFE;fill-rule:nonzero}
    .fil8 {fill:#3F3F3F;fill-rule:nonzero}
    .fil11 {fill:#464646;fill-rule:nonzero}
    .fil7 {fill:#545454;fill-rule:nonzero}
    .fil24 {fill:#C11C56;fill-rule:nonzero}
    .fil23 {fill:#E62F67;fill-rule:nonzero}
    .fil12 {fill:#EBEBEB;fill-rule:nonzero}
    .fil9 {fill:#EDEDED;fill-rule:nonzero}
    .fil6 {fill:#EF9300;fill-rule:nonzero}
    .fil25 {fill:#F78967;fill-rule:nonzero}
    .fil14 {fill:#FF8A00;fill-rule:nonzero}
    .fil19 {fill:#FFAF82;fill-rule:nonzero}
    .fil4 {fill:#FFBA00;fill-rule:nonzero}
    .fil13 {fill:#FFDD82;fill-rule:nonzero}
    .fil10 {fill:white;fill-rule:nonzero}
    .fil5 {fill:url(#id1);fill-rule:nonzero}
   ]]>
  </style>
    <clipPath id="id0">
     <path d="M901 0c425,0 769,344 769,769 0,425 -344,769 -769,769 -425,0 -769,-344 -769,-769 0,-425 344,-769 769,-769z"/>
    </clipPath>
  <linearGradient id="id1" gradientUnits="userSpaceOnUse" x1="900.592" y1="907.369" x2="900.592" y2="1120.57">
   <stop offset="0" style="stop-color:#FFD42A"/>
   <stop offset="1" style="stop-color:#FFBA00"/>
  </linearGradient>
 </defs>
 <g id="Layer_x0020_1">
  <metadata id="CorelCorpID_0Corel-Layer"/>
  <g id="_1777243216">
   <path class="fil0" d="M901 0c425,0 769,344 769,769 0,425 -344,769 -769,769 -425,0 -769,-344 -769,-769 0,-425 344,-769 769,-769z"/>
   <g style="clip-path:url(#id0)">
    <g>
     <rect class="fil1 str0" x="-108" y="1052" width="2062" height="531"/>
     <rect class="fil2 str1" x="-108" y="-143" width="2062" height="1195"/>
    </g>
   </g>
   <path class="fil3" d="M901 0c425,0 769,344 769,769 0,425 -344,769 -769,769 -425,0 -769,-344 -769,-769 0,-425 344,-769 769,-769z"/>
   <g>
    <path class="fil4" d="M1322 753c0,0 209,26 275,45 66,19 170,50 184,176 0,0 20,11 20,29 0,18 -2,79 -22,125l-1685 0 -86 -80c0,0 -8,-17 -8,-33 -1,-16 1,-57 4,-61 2,-4 18,-19 38,-32 0,0 -7,-42 5,-84 12,-42 27,-86 65,-87l1210 0z"/>
    <path class="fil5" d="M1757 898c12,21 21,46 25,77 0,0 20,11 20,29 0,18 -2,79 -22,125l-1685 0 -86 -80c0,0 -8,-17 -8,-33 -1,-16 1,-57 4,-61 2,-4 18,-19 38,-32 0,0 -2,-11 -2,-26l1717 0z"/>
    <g>
     <path class="fil6" d="M1755 895c1,2 2,3 3,5l-99 0c-9,0 -41,-10 -65,-21 -25,-12 -187,-66 -231,-78 -35,-9 -64,-30 -79,-48l6 0c15,16 42,35 74,43 44,11 207,66 232,78 25,12 56,21 63,21l96 0z"/>
     <path class="fil6" d="M629 1130c-10,-38 -36,-144 -35,-217 1,-83 9,-132 50,-159l9 0c-45,26 -53,74 -54,159 -1,73 26,181 35,217l-5 0z"/>
     <path class="fil6" d="M1258 833c-7,-46 -49,-69 -76,-80l12 0c27,13 62,37 68,79 6,41 23,179 -4,297l-5 0c27,-117 10,-256 4,-297z"/>
    </g>
    <path class="fil7" d="M25 1039c7,0 22,0 34,-21l0 0c35,-60 100,-101 175,-101 101,0 184,74 199,171l0 0c4,18 20,40 36,40 16,0 800,0 837,0 37,0 40,-40 40,-40l0 1c15,-97 98,-171 199,-171 111,0 202,90 202,202 0,2 0,5 0,7 8,0 17,0 20,0 5,0 18,-7 18,-7 0,0 0,24 0,33 0,8 -25,33 -49,33l-6 0 -355 0 -19 0 -931 0 -35 0 -259 0c0,0 -48,-11 -77,-32l0 0c0,0 -29,-19 -34,-30 -5,-11 -11,-30 -12,-38 -1,-8 -3,-45 -3,-45 0,0 13,0 21,0z"/>
    <g>
     <path class="fil8" d="M1390 1118c0,86 70,155 155,155 86,0 155,-70 155,-155 0,-86 -70,-155 -155,-155 -86,0 -155,70 -155,155z"/>
     <path class="fil9" d="M1439 1118c0,59 48,106 106,106 59,0 106,-48 106,-106 0,-59 -48,-106 -106,-106 -59,0 -106,48 -106,106z"/>
     <path class="fil8" d="M78 1118c0,86 70,155 155,155 86,0 155,-70 155,-155 0,-86 -70,-155 -155,-155 -86,0 -155,70 -155,155z"/>
     <path class="fil9" d="M128 1118c0,59 48,106 106,106 59,0 106,-48 106,-106 0,-59 -48,-106 -106,-106 -59,0 -106,48 -106,106z"/>
    </g>
    <path class="fil10" d="M1679 907c19,33 51,60 72,60 21,0 22,-27 4,-60 -19,-33 -51,-60 -72,-60 -21,0 -22,27 -4,60z"/>
    <path class="fil7" d="M1322 753c0,0 1,28 -28,28 -28,0 -1183,-28 -1183,-28 0,0 2,-10 13,-25 11,-15 106,-162 127,-167 21,-5 334,-15 414,-15 80,0 397,10 418,16 21,6 163,109 238,190z"/>
    <g>
     <path class="fil11" d="M599 765l28 -210 36 5 21 207c-29,-1 -57,-1 -85,-2z"/>
     <path class="fil11" d="M1178 778c-32,-46 -122,-174 -181,-216l67 6c0,0 125,124 197,212 -20,0 -48,-1 -83,-2z"/>
     <path class="fil11" d="M125 729c11,-15 106,-162 127,-167 6,-1 36,-3 77,-5l17 2 -120 198c-71,-2 -115,-3 -115,-3 0,0 2,-10 13,-25z"/>
    </g>
    <path class="fil12" d="M1112 579c0,0 -21,-29 -84,-32 -63,-3 -324,-19 -503,-17 -179,2 -230,9 -249,9 -19,0 -88,4 -88,8 0,4 42,19 53,22 12,3 344,-8 870,11z"/>
    <path class="fil6" d="M689 833c0,19 16,35 35,35 19,0 35,-16 35,-35 0,-19 -16,-35 -35,-35 -19,0 -35,16 -35,35z"/>
    <path class="fil13" d="M662 833c0,6 28,11 62,11 34,0 62,-5 62,-11 0,-6 -28,-11 -62,-11 -34,0 -62,5 -62,11z"/>
    <path class="fil14" d="M51 898c-2,16 8,29 24,29 16,0 31,-13 33,-29l12 -75c3,-16 -8,-29 -24,-29 -16,0 -31,13 -33,29l-12 75z"/>
   </g>
   <path class="fil15" d="M886 315c16,1 33,6 44,-5 22,-23 28,-34 32,-35 15,-4 27,-20 42,-17 10,2 19,10 29,10 28,0 31,-51 59,-53 16,-1 30,16 45,11 8,-2 13,-10 19,-17 14,-15 35,-23 55,-20 20,3 39,16 48,34 5,10 7,22 13,31 6,10 18,18 28,14 9,-3 14,-12 23,-14 11,-2 20,8 26,17 6,9 12,21 23,23 8,2 16,-1 23,-3 34,-7 67,14 96,34 -10,-1 -21,-2 -31,-2l-600 0c19,-11 -4,-12 26,-10z"/>
   <g>
    <path class="fil16" d="M867 1298c0,0 1,-1 1,-2 0,-1 1,-3 2,-4 0,-2 1,-3 1,-4 0,-1 0,-3 -1,-6 -1,-2 -1,-4 -2,-5 0,-1 -2,-3 -2,-4 0,-1 -2,-2 -2,-3 0,-1 -1,-1 -1,-2 0,-1 0,-1 -1,-2 0,0 0,-1 -1,-1 -1,-1 -1,-1 -1,-1 0,0 -2,0 -2,0 -1,0 -2,1 -2,1 -1,0 -2,1 -2,2 -1,1 -3,3 -4,4 -1,2 -3,4 -5,6 -1,2 -3,4 -4,5 -1,1 -2,3 -3,4 -1,1 -2,4 -3,5 -1,1 -3,6 -4,6 0,1 -3,4 -3,5 0,1 -4,6 -5,7 -1,1 -3,4 -3,4 -1,1 -2,2 -3,3 -1,1 -2,2 -3,2 0,0 -2,0 -3,1 -1,1 -3,3 -4,3 -1,1 -4,3 -5,4 -1,1 -3,2 -3,3 0,1 -1,1 -1,2 0,1 0,2 0,2 0,0 0,2 3,3 3,1 9,2 15,3 6,0 9,1 14,0 5,0 9,-2 12,-4 3,-2 4,-4 4,-5 0,-1 1,-2 1,-3 0,-1 2,-5 2,-7 0,-2 3,-8 4,-9 1,-1 4,-8 5,-9 1,-1 3,-3 3,-4 0,0 2,-2 2,-2l0 0z"/>
    <path class="fil17" d="M801 1335c0,0 0,1 2,3 2,1 9,2 10,3 2,0 11,1 16,1 0,0 4,0 8,-1 0,0 4,-1 7,-2 0,0 4,-2 6,-5 1,-2 2,-3 2,-6 0,0 2,-6 3,-8 1,-2 3,-8 4,-10 1,-2 3,-5 4,-7 1,-2 2,-3 3,-3 0,0 1,-1 1,-1l0 0 0 0c0,0 -1,3 -2,6 0,2 -1,5 -1,7 0,2 -1,6 -1,7 0,1 0,3 -1,5 0,1 -1,4 -1,4 0,0 0,1 0,1 0,0 -2,2 -3,2 -1,0 -2,1 -2,1 0,0 0,0 -1,0 -1,0 -2,0 -2,0 0,0 -2,2 -4,4 -1,2 -3,3 -4,4 -1,1 -2,2 -3,2 -1,1 -5,1 -6,2 -2,0 -7,1 -12,1 0,0 -5,0 -8,-1 -3,0 -8,-1 -9,-2 -2,0 -5,-1 -6,-2 -1,-1 -1,-1 -1,-2 0,-1 0,-1 0,-1z"/>
    <path class="fil18" d="M852 1284c-1,1 -6,0 -7,2 -2,3 -6,12 -7,15 -1,2 -4,8 -6,10 -2,2 -12,9 -14,11 -3,2 12,8 19,6 5,-1 8,-3 10,-6 0,0 2,-2 3,-6 2,-7 15,-23 17,-29 0,-2 -12,-5 -15,-2z"/>
    <path class="fil16" d="M936 1298c0,0 -1,-1 -1,-2 0,-1 -1,-3 -2,-4 0,-2 -1,-3 -1,-4 0,-1 0,-3 1,-6 1,-2 1,-4 2,-5 0,-1 2,-3 2,-4 0,-1 2,-2 2,-3 0,-1 1,-1 1,-2 0,-1 0,-1 1,-2 0,0 0,-1 1,-1 1,-1 1,-1 1,-1 1,0 2,0 2,0 1,0 2,1 2,1 1,0 2,1 2,2 1,1 3,3 4,4 1,2 3,4 5,6 1,2 3,4 4,5 1,1 2,3 3,4 1,1 2,4 3,5 1,1 3,6 4,6 0,1 3,4 3,5 0,1 4,6 5,7 1,1 3,4 3,4 1,1 2,2 3,3 1,1 2,2 3,2 0,0 2,0 2,1 1,1 3,3 4,3 1,1 4,3 5,4 1,1 3,2 3,3 1,1 1,1 1,2 0,1 0,2 0,2 0,0 0,2 -3,3 -3,1 -9,2 -15,3 -6,0 -9,1 -14,0 -5,0 -9,-2 -12,-4 -3,-2 -4,-4 -4,-5 0,-1 -1,-2 -1,-3 0,-1 -2,-5 -2,-7 0,-2 -3,-8 -4,-9 -1,-1 -4,-8 -5,-9 -1,-1 -3,-3 -3,-4 0,0 -2,-2 -2,-2l0 0z"/>
    <path class="fil17" d="M1002 1335c0,0 0,1 -2,3 -2,1 -9,2 -10,3 -2,0 -11,1 -16,1 0,0 -4,0 -8,-1 0,0 -4,-1 -7,-2 0,0 -4,-2 -6,-5 -1,-2 -2,-3 -2,-6 0,0 -2,-6 -3,-8 -1,-2 -3,-8 -4,-10 -1,-2 -3,-5 -4,-7 -1,-2 -2,-3 -3,-3 0,0 -1,-1 -1,-1l0 0 0 0c0,0 1,3 2,6 0,2 1,5 1,7 0,2 1,6 1,7 0,1 0,3 1,5 0,1 1,4 1,4 0,0 0,1 0,1 0,0 2,2 3,2 1,0 2,1 2,1 0,0 0,0 1,0 1,0 2,0 2,0 0,0 2,2 4,4 1,2 3,3 4,4 1,1 2,2 3,2 1,1 5,1 6,2 2,0 7,1 12,1 0,0 5,0 8,-1 3,0 8,-1 9,-2 2,0 5,-1 6,-2 1,-1 1,-1 1,-2 0,-1 0,-1 0,-1z"/>
    <path class="fil18" d="M951 1284c1,1 6,0 7,2 2,3 6,12 7,15 1,2 4,8 6,10 2,2 12,9 14,11 3,2 -12,8 -19,6 -5,-1 -8,-3 -10,-6 0,0 -2,-2 -3,-6 -2,-7 -15,-23 -17,-29 0,-2 12,-5 15,-2z"/>
    <path class="fil19" d="M858 878c0,0 11,172 10,210l-1 198 -22 0c-2,-78 -11,-142 -2,-198 -17,-54 -7,-101 -10,-165 0,0 -8,-44 26,-45z"/>
    <path class="fil19" d="M945 878c0,0 -11,172 -10,210l1 198 22 0c2,-78 28,-141 19,-197 17,-54 -10,-102 -7,-166 0,0 8,-44 -26,-45z"/>
    <polygon class="fil20" points="945,765 864,765 864,752 945,752 "/>
    <path class="fil21" d="M870 801c-20,-3 -22,13 -27,33 -5,20 -8,43 -9,72 -2,70 -12,127 -8,159 2,16 15,28 31,28 16,0 30,-13 31,-29l14 -222c2,-20 -12,-38 -32,-41 0,0 0,0 -1,0z"/>
    <path class="fil21 str2" d="M889 1061l-9 217 -52 0 -1 -218c0,-17 14,-31 31,-31 17,0 32,14 31,32z"/>
    <path class="fil21" d="M938 801c20,-3 20,10 24,30 5,20 8,43 9,72 2,70 15,130 11,162 -2,16 -15,28 -31,28 -16,0 -30,-13 -31,-29l-14 -222c-2,-20 12,-38 32,-41 0,0 0,0 1,0z"/>
    <path class="fil21" d="M920 1061l9 217 52 0 1 -218c0,-17 -14,-31 -31,-31 -17,0 -32,14 -31,32z"/>
    <path class="fil21" d="M945 765l-81 0c0,0 -21,15 -32,61l61 35c7,4 16,4 23,0l61 -35c-12,-45 -32,-61 -32,-61z"/>
    <path class="fil22" d="M867 780c0,0 0,0 0,0 0,1 -1,8 -4,15 -3,7 -9,15 -20,18 0,0 -1,1 -1,1 0,0 1,1 1,1 12,-4 19,-12 22,-20 3,-8 4,-15 4,-15 0,0 0,-1 -1,-1 0,0 -1,0 -1,1z"/>
    <path class="fil22" d="M939 780c0,0 0,7 4,15 3,8 10,17 22,20 0,0 1,0 1,-1 0,0 0,-1 -1,-1 -12,-3 -18,-12 -21,-19 -2,-4 -3,-7 -3,-10 0,-1 0,-2 0,-3 0,0 0,-1 0,-1 0,0 0,0 0,0 0,0 0,-1 -1,-1 0,0 -1,0 -1,1z"/>
    <path class="fil23" d="M1018 1097c0,0 -69,28 -107,28 -41,0 -130,-14 -130,-14l63 -398c-24,-15 -10,-70 -5,-68l-6 -40 52 -22 33 0 54 20 -6 43c8,1 24,52 -3,63l54 389z"/>
    <path class="fil24" d="M949 720c0,0 -37,26 -89,2 0,0 49,13 89,-2z"/>
    <g>
     <g>
      <g>
       <path class="fil19" d="M781 886c0,0 3,10 6,17 3,7 1,12 3,19 2,6 -6,6 -7,-1 -1,-7 -1,-10 -2,-10 -1,0 -5,16 -6,21 -1,5 0,16 -1,18 -2,2 -6,-5 -5,-17 1,-12 0,-12 0,-12 0,0 -1,5 -2,10 -1,5 -1,11 -1,15 0,3 -3,5 -4,3 -1,-2 -3,-14 -1,-19 1,-5 3,-13 3,-13 0,0 -5,11 -5,14 -1,3 1,13 -2,15 -1,1 -4,0 -4,-15 0,0 1,-7 3,-12 0,0 -2,3 -4,8 -1,4 -2,8 -2,12 0,4 -4,4 -4,-4 0,-7 1,-15 3,-19 2,-4 5,-26 11,-35l21 4z"/>
      </g>
     </g>
     <g>
      <path class="fil23" d="M849 645c0,0 -18,83 -32,110 0,0 -7,37 -35,132 0,0 -14,6 -23,-5 0,0 16,-106 24,-139 0,0 26,-119 52,-138 0,0 13,15 15,40z"/>
     </g>
    </g>
    <g>
     <g>
      <g>
       <path class="fil19" d="M1026 886c0,0 -3,10 -6,17 -3,7 -1,12 -3,19 -2,6 6,6 7,-1 1,-7 1,-10 2,-10 1,0 5,16 6,21 1,5 0,16 1,18 2,2 6,-5 5,-17 -1,-12 0,-12 0,-12 0,0 1,5 2,10 1,5 1,11 1,15 0,3 3,5 4,3 1,-2 3,-14 1,-19 -1,-5 -3,-13 -3,-13 0,0 5,11 5,14 1,3 -1,13 2,15 1,1 4,0 4,-15 0,0 -1,-7 -3,-12 0,0 2,3 4,8 1,4 2,8 2,12 0,4 4,4 4,-4 0,-7 -1,-15 -3,-19 -2,-4 -5,-26 -11,-35l-21 4z"/>
      </g>
     </g>
     <g>
      <path class="fil23" d="M957 645c0,0 17,80 32,108 0,0 8,39 36,135 0,0 14,6 23,-5 0,0 -13,-105 -21,-139 0,0 -35,-120 -54,-141 0,0 -14,17 -15,43z"/>
     </g>
    </g>
    <g>
     <g>
      <path class="fil19" d="M921 558l-1 12 -1 15c0,0 -3,6 -17,6 -14,0 -17,-4 -17,-4l-1 -7 -2 -23 37 0z"/>
     </g>
     <g>
      <path class="fil25" d="M921 558l-1 12c-6,4 -19,13 -35,10l-2 -23 37 0z"/>
     </g>
    </g>
    <path class="fil19" d="M950 494c0,1 0,3 0,5 -3,32 -13,71 -48,71 -34,0 -47,-38 -52,-68 0,-2 -1,-4 -1,-7 -3,-29 20,-55 49,-55l3 0c22,0 40,15 47,34 1,2 1,5 2,7 1,4 1,9 1,13z"/>
    <path class="fil26" d="M870 549c0,0 -56,-1 -45,-76 0,0 16,-76 57,-71 0,0 43,-23 75,25 0,0 26,33 20,72 0,0 -4,44 -44,49 -1,0 47,-53 -27,-83 0,0 13,17 26,20 0,0 -27,4 -53,-24 0,0 -14,34 -27,44 0,0 -2,26 17,43z"/>
    <g>
     <g>
      <g>
       <path class="fil19" d="M857 503c0,0 -6,-6 -11,-2 -6,5 0,22 11,20l1 -18z"/>
      </g>
     </g>
    </g>
    <path class="fil10" d="M859 521c0,2 -2,4 -4,4 -2,0 -4,-2 -4,-4 0,-2 2,-4 4,-4 2,0 4,2 4,4z"/>
    <path class="fil26" d="M889 489c0,2 -2,3 -3,2 -5,-1 -16,-3 -22,2 0,0 4,-9 23,-7 1,0 3,1 2,3z"/>
    <g>
     <g>
      <g>
       <path class="fil19" d="M942 503c0,0 6,-6 11,-2 6,5 0,22 -11,20l-1 -18z"/>
      </g>
     </g>
    </g>
    <path class="fil10" d="M950 521c0,2 -2,4 -4,4 -2,0 -4,-2 -4,-4 0,-2 2,-4 4,-4 2,0 4,2 4,4z"/>
    <g>
     <path class="fil27" d="M890 543c0,0 1,8 11,8 10,0 11,-8 11,-8l-22 0z"/>
     <path class="fil27" d="M912 543c0,0 -10,-6 -22,0 0,0 12,5 22,0z"/>
     <path class="fil28" d="M888 543c0,0 6,3 14,3 4,0 9,-1 14,-3 0,0 1,-1 0,-1 0,0 -1,-1 -1,0 -5,2 -9,3 -13,3 -4,0 -7,-1 -9,-2 -1,0 -2,-1 -3,-1 0,0 -1,0 -1,0l0 0c0,0 -1,0 -1,0 0,0 0,1 0,1z"/>
    </g>
    <path class="fil28" d="M898 519l0 6c0,0 0,1 1,1l4 0c0,0 1,0 1,-1 0,0 0,-1 -1,-1l-4 0 0 -5c0,0 0,-1 -1,-1 0,0 -1,0 -1,1z"/>
    <g>
     <path class="fil29" d="M887 505c0,0 -3,-7 -9,-7 -7,0 -11,5 -11,5 0,0 2,6 10,6 8,0 10,-4 10,-4z"/>
     <path class="fil20" d="M870 503c0,2 1,4 2,5 1,1 3,1 5,1 2,0 3,0 4,0 1,-1 2,-3 3,-5 0,-2 -1,-3 -2,-5 -1,-1 -3,-1 -4,-1 -2,0 -4,0 -5,1 -1,1 -2,3 -2,4z"/>
     <path class="fil20" d="M887 505c0,0 -1,-2 -2,-4 -2,-2 -4,-4 -8,-4l0 0c-7,0 -11,5 -11,5l0 1 1 0 0 0c1,-1 4,-5 10,-5l0 0c3,0 6,2 7,3 1,1 1,2 2,2 0,0 0,1 0,1l0 0c0,0 0,0 1,0 0,0 0,0 0,-1z"/>
    </g>
    <g>
     <path class="fil29" d="M911 505c0,0 3,-7 9,-7 7,0 11,5 11,5 0,0 -2,6 -10,6 -8,0 -10,-4 -10,-4z"/>
     <path class="fil20" d="M928 503c0,2 -1,4 -2,5 -1,1 -3,1 -5,1 -2,0 -3,0 -4,0 -1,-1 -2,-3 -3,-5 0,-2 1,-3 2,-5 1,-1 3,-1 4,-1 2,0 4,0 5,1 1,1 2,3 2,4z"/>
     <path class="fil20" d="M911 505c0,0 1,-2 2,-4 2,-2 4,-4 8,-4l0 0c7,0 11,5 11,5l0 1 -1 0 0 0c-1,-1 -4,-5 -10,-5l0 0c-3,0 -6,2 -7,3 -1,1 -1,2 -2,2 0,0 0,1 0,1l0 0c0,0 0,0 -1,0 0,0 0,0 0,-1z"/>
    </g>
    <path class="fil26" d="M908 489c0,2 2,3 3,2 5,-1 16,-3 22,2 0,0 -4,-9 -23,-7 -1,0 -3,1 -2,3z"/>
    <path class="fil18 str3" d="M886 582l33 0 0 36c0,9 -7,17 -17,17l0 0c-9,0 -17,-7 -17,-17l0 -36z"/>
   </g>
  </g>
 </g>
</svg>
