<?xml version="1.0" encoding="UTF-8"?>
<!DOCTYPE svg PUBLIC "-//W3C//DTD SVG 1.1//EN" "http://www.w3.org/Graphics/SVG/1.1/DTD/svg11.dtd">
<!-- Creator: CorelDRAW X6 -->
<svg xmlns="http://www.w3.org/2000/svg" xml:space="preserve" width="49.9999mm" height="50mm" version="1.1" style="shape-rendering:geometricPrecision; text-rendering:geometricPrecision; image-rendering:optimizeQuality; fill-rule:evenodd; clip-rule:evenodd"
viewBox="0 0 1473 1473"
 xmlns:xlink="http://www.w3.org/1999/xlink">
 <defs>
  <style type="text/css">
   <![CDATA[
    .str0 {stroke:#31314B;stroke-width:2.24414}
    .fil36 {fill:none}
    .fil21 {fill:#84919A}
    .fil17 {fill:#F6AC80}
    .fil37 {fill:#FEFEFE}
    .fil23 {fill:black}
    .fil7 {fill:#093E8C}
    .fil8 {fill:#0B2A62}
    .fil1 {fill:#0C387D}
    .fil35 {fill:#132026}
    .fil0 {fill:#15AFA7}
    .fil33 {fill:#1A2830}
    .fil34 {fill:#24353F}
    .fil30 {fill:#291FAC}
    .fil29 {fill:#31314B}
    .fil9 {fill:#3A3A3A}
    .fil4 {fill:#534D46}
    .fil24 {fill:#995342}
    .fil20 {fill:#C11C56}
    .fil2 {fill:#C69A81}
    .fil3 {fill:#D1A385}
    .fil27 {fill:#DE5A62}
    .fil13 {fill:#E5E5E5}
    .fil16 {fill:#E62F67}
    .fil10 {fill:#EACCB0}
    .fil6 {fill:#EAEAEA}
    .fil26 {fill:#ECB82D}
    .fil18 {fill:#F0E3E7}
    .fil14 {fill:#F2D4B6}
    .fil32 {fill:whitesmoke}
    .fil31 {fill:#F7DDCB}
    .fil11 {fill:#F7F7F7}
    .fil12 {fill:#FCFCFC}
    .fil22 {fill:#FFAF82}
    .fil5 {fill:white}
    .fil28 {fill:#2B2A29;fill-rule:nonzero}
    .fil38 {fill:black;fill-rule:nonzero}
    .fil19 {fill:#C11C56;fill-rule:nonzero}
    .fil25 {fill:#F78967;fill-rule:nonzero}
    .fil15 {fill:#FFAF82;fill-rule:nonzero}
   ]]>
  </style>
    <clipPath id="id0">
     <path d="M1473 736c0,407 -330,736 -736,736 -407,0 -736,-330 -736,-736 0,-407 330,-736 736,-736 407,0 736,330 736,736z"/>
    </clipPath>
 </defs>
 <g id="Layer_x0020_1">
  <metadata id="CorelCorpID_0Corel-Layer"/>
  <g id="_983266352">
   <path class="fil0" d="M1473 736c0,407 -330,736 -736,736 -407,0 -736,-330 -736,-736 0,-407 330,-736 736,-736 407,0 736,330 736,736z"/>
   <g style="clip-path:url(#id0)">
    <g>
     <g>
      <path id="1" class="fil1" d="M1502 1118c-4,6 -46,99 -55,141 -1,3 -1,5 -2,8 36,-23 68,-52 94,-86 -14,-29 -26,-51 -38,-63z"/>
      <path class="fil2" d="M1249 1064c35,0 58,-19 70,-35 1,-9 0,-18 -4,-26l-4 -13c-2,2 -3,4 -5,5 -23,21 -32,29 -58,29 -26,0 -34,-8 -58,-29 -2,-2 -3,-3 -5,-5l-4 13c-4,8 -5,17 -4,26 12,16 35,35 70,35z"/>
      <polygon class="fil2" points="1186,990 1186,990 1186,990 "/>
      <polygon class="fil2" points="1312,990 1312,990 1312,990 "/>
      <path class="fil3" d="M1186 990l0 1c1,2 3,4 5,5 23,21 32,29 58,29 26,0 34,-8 58,-29 2,-2 4,-4 5,-5l0 0 0 0 0 0c18,-24 9,-64 23,-64 21,1 30,-17 25,-40 -3,-14 -14,-13 -20,-9 -2,5 -3,8 -4,8 -3,-1 -2,-29 3,-63 5,-36 -38,-20 -69,-21 -31,-1 -104,-8 -109,9 -5,17 8,68 3,70 -1,0 -1,0 -2,-1 0,2 0,2 0,1 -3,-7 -20,-14 -23,5 -5,23 4,41 25,40 13,-1 4,40 23,64l0 0 1 0z"/>
      <path class="fil4" d="M1164 880c4,-2 -9,-53 -3,-70 5,-17 79,-10 109,-9 31,1 74,-14 69,21 -5,33 -7,62 -3,63 1,0 3,-3 4,-8 3,-9 6,-22 6,-22 15,-9 10,-73 10,-83 0,-10 -15,-27 -22,-27 -7,0 -1,-28 -46,-39 -45,-12 -84,-6 -106,5 -22,11 -38,30 -48,33 -10,3 3,10 -4,17 -8,7 5,16 8,30 2,14 8,58 12,63 4,4 8,23 12,27 1,1 1,1 2,1z"/>
      <polygon class="fil5" points="1249,1177 1249,1178 "/>
      <path class="fil5" d="M1297 1077c4,-5 8,-10 12,-16 -29,21 -60,19 -60,19 0,0 -31,2 -60,-19 3,6 8,12 12,16 33,46 47,102 48,102 0,0 15,-56 48,-102z"/>
      <polygon class="fil5" points="1249,1178 1249,1178 "/>
      <path class="fil6" d="M1249 1079c0,0 31,2 60,-19 5,-10 9,-20 11,-31 -12,16 -35,35 -70,35 -35,0 -58,-19 -70,-35 1,10 5,21 11,31 29,21 60,19 60,19z"/>
      <path class="fil1" d="M994 1118l0 0c-12,11 -24,34 -38,63 26,34 58,63 94,87 -1,-3 -1,-5 -2,-8 -9,-43 -52,-139 -55,-142z"/>
      <path class="fil7" d="M1435 1264l-165 0 0 -8 165 0 0 8zm67 -146l0 0c3,-3 -27,-19 -66,-36 -24,-11 -44,-25 -64,-36 3,7 7,15 10,24 0,0 -58,10 -64,12 -6,2 -1,8 -9,16 -36,39 -53,73 -60,80l-1 1 0 0 3 0 0 146c71,-1 137,-22 193,-57 1,-3 1,-5 2,-8 9,-42 51,-135 55,-141z"/>
      <path class="fil7" d="M1061 1264l0 -8 165 0 0 8 -165 0zm183 -86l5 0 0 0c-7,-4 -22,-40 -60,-80 -8,-9 -3,-14 -9,-16 -6,-2 -64,-12 -64,-12 3,-8 6,-15 9,-21 -20,10 -41,22 -65,33 -38,17 -68,33 -66,36 3,3 46,98 55,142 1,3 1,5 2,8 56,36 122,57 193,57l0 -146z"/>
      <polygon class="fil6" points="1226,1256 1061,1256 1061,1264 1226,1264 "/>
      <polygon class="fil6" points="1270,1256 1270,1264 1435,1264 1435,1256 "/>
      <path class="fil6" d="M1252 1178l-3 0 -5 0 0 146c1,0 3,0 4,0 1,0 3,0 4,0l0 -146z"/>
      <path class="fil8" d="M1115 1069c0,0 58,10 64,12 6,2 1,8 9,16 38,40 53,76 60,80l0 0c0,0 -14,-56 -48,-102 -4,-5 -8,-10 -12,-16 -5,-10 -9,-20 -11,-31 -1,-9 0,-18 4,-26l4 -13 0 -1 -1 0 0 0c-16,4 -39,10 -62,58 -3,6 -6,13 -9,21z"/>
      <path class="fil8" d="M1311 990l0 0 4 13c4,8 5,17 4,26 -1,11 -5,21 -11,31 -3,6 -8,12 -12,16 -33,46 -48,102 -48,102l0 0 0 0 1 -1c7,-6 24,-41 60,-80 8,-9 3,-14 9,-16 6,-2 64,-12 64,-12 -3,-9 -7,-17 -10,-24 -22,-45 -45,-51 -60,-55l0 0 0 0z"/>
     </g>
     <g>
      <path class="fil9" d="M212 1018c5,-13 6,-27 6,-36 -3,-3 -6,-5 -10,-8 -23,-22 -23,-79 -29,-75 -13,9 -21,-17 -23,-32 -1,-12 3,-18 7,-18 2,2 5,1 8,6 2,5 5,-18 26,-36l26 -22c21,2 29,8 66,28 31,16 71,30 77,34 2,2 4,-7 14,-10l0 0c4,1 7,7 6,18 -2,15 -10,41 -23,32 -6,-4 -5,53 -29,75 -2,2 -3,3 -5,5 -1,1 -3,2 -4,3 0,10 1,23 6,36 2,-1 3,-1 4,0 1,1 1,2 2,3l53 0c0,0 68,-31 33,-59 -40,-33 5,-28 3,-64 -1,-23 -27,-30 -23,-56 6,-39 -8,-105 -56,-116 -83,-54 -162,-20 -190,36 -33,66 13,79 -26,109 -13,10 -18,26 -12,36 10,20 34,34 16,46 -26,19 -15,44 23,68l47 0c1,-1 1,-2 2,-3 1,-1 2,-1 4,0z"/>
      <path class="fil10" d="M273 1080c-4,5 -14,12 -21,20 9,11 16,22 22,31 5,-9 13,-19 21,-30 -8,-8 -17,-16 -22,-21z"/>
      <path class="fil10" d="M314 991c-5,3 -11,6 -17,8 -5,2 -11,3 -16,3 -7,1 -14,0 -21,-1 -6,-1 -11,-2 -16,-4 -6,-2 -12,-5 -17,-9 -3,-2 -5,-4 -8,-6 0,10 -1,23 -6,36 6,4 21,24 60,55 39,-30 54,-50 60,-54 -5,-13 -6,-27 -6,-36 -4,3 -8,7 -13,9z"/>
      <path class="fil11" d="M263 1149c2,-3 5,-9 11,-18 -6,-9 -13,-20 -22,-31 -6,6 -11,13 -10,20 2,18 -55,-48 -54,-74 -1,1 -3,2 -4,2 -14,6 -125,46 -129,51 -1,2 -2,4 -3,6l0 0c4,-6 7,-9 11,-8 58,23 51,143 52,172 0,5 0,13 -1,22 45,20 95,32 147,33 0,-96 0,-173 2,-175z"/>
      <path class="fil12" d="M433 1269c2,-28 -5,-149 52,-172 1,0 2,0 4,0 -19,-10 -113,-44 -126,-49 -2,-1 -4,-2 -5,-3 2,25 -56,93 -54,75 1,-6 -4,-13 -10,-19 -8,11 -16,21 -21,30 -5,9 -9,16 -11,18 -1,2 -2,79 -2,175 3,0 7,0 10,0 58,0 113,-13 163,-36 -1,-8 -1,-15 -1,-20z"/>
      <path class="fil13" d="M242 1120c-1,-6 4,-13 10,-20 7,-8 17,-15 21,-20 4,5 14,13 22,21 6,6 10,13 10,19 -2,18 56,-50 54,-75l0 0c0,-3 -10,-9 -19,-23 -1,-1 -1,-2 -2,-3 -1,-1 -2,-1 -4,0 -6,4 -21,24 -60,54 -40,-31 -54,-50 -60,-55 -2,-1 -3,-1 -4,0 -1,1 -1,2 -2,3 -9,14 -19,20 -19,23l0 1c-1,26 56,92 54,74z"/>
      <path class="fil14" d="M243 997c5,2 11,4 16,4 7,1 14,1 21,1 6,-1 11,-2 16,-3 6,-2 11,-4 17,-8 5,-3 9,-6 13,-9 1,-1 3,-2 4,-3 2,-2 3,-3 5,-5 23,-22 23,-79 29,-75 13,9 21,-17 23,-32 1,-11 -2,-17 -6,-18l0 0c-10,3 -11,12 -14,10 -6,-5 -45,-18 -77,-34 -37,-20 -45,-26 -66,-28l-26 22c-21,18 -23,40 -26,36 -3,-6 -6,-4 -8,-6 -5,-1 -9,6 -7,18 2,15 10,41 23,32 6,-4 5,53 29,75 3,3 6,6 10,8 3,2 5,4 8,6 5,4 11,7 17,9z"/>
      <path class="fil13" d="M489 1097c-1,0 -2,0 -4,0 -58,23 -51,143 -52,172 0,5 0,12 1,20 33,-16 64,-36 91,-59 -10,-68 -22,-128 -36,-132z"/>
      <path class="fil13" d="M115 1269c-2,-28 5,-149 -52,-172 -4,-2 -8,1 -11,8 -11,20 -21,72 -29,128 28,23 58,43 92,58 1,-9 2,-16 1,-22z"/>
     </g>
     <g>
      <g>
       <g>
        <path class="fil15" d="M1174 2196c0,0 -12,40 -25,68 -13,29 -4,51 -12,77 -8,26 23,24 29,-3 6,-27 3,-40 9,-41 6,-1 22,65 24,84 2,19 -2,67 6,74 7,7 24,-19 19,-69 -5,-50 -1,-49 -1,-49 0,0 5,19 10,40 5,21 5,46 4,60 -1,14 13,21 18,14 4,-8 11,-57 5,-76 -6,-19 -13,-52 -13,-52 0,0 19,44 22,56 3,11 -2,55 8,63 4,3 17,-1 15,-63 0,0 -5,-30 -11,-49 0,0 10,14 15,33 4,17 7,34 8,51 1,17 16,15 16,-15 0,-30 -5,-62 -13,-78 -8,-16 -21,-108 -45,-142l-87 18z"/>
       </g>
      </g>
      <g>
       <path class="fil15" d="M895 1206c0,0 73,339 133,453 0,0 31,150 144,543 0,0 59,24 94,-21 0,0 -64,-434 -97,-572 0,0 -107,-487 -212,-567 0,0 -54,62 -62,165z"/>
      </g>
     </g>
     <g>
      <g>
       <g>
        <path class="fil15" d="M262 2196c0,0 12,40 25,68 13,29 4,51 12,77 8,26 -23,24 -29,-3 -6,-27 -3,-40 -9,-41 -6,-1 -22,65 -24,84 -2,19 2,67 -6,74 -7,7 -24,-19 -19,-69 5,-50 1,-49 1,-49 0,0 -5,19 -10,40 -5,21 -5,46 -4,60 1,14 -13,21 -18,14 -4,-8 -11,-57 -5,-76 6,-19 13,-52 13,-52 0,0 -19,44 -22,56 -3,11 2,55 -8,63 -4,3 -17,-1 -15,-63 0,0 5,-30 11,-49 0,0 -10,14 -15,33 -4,17 -7,34 -8,51 -1,17 -16,15 -16,-15 0,-30 5,-62 13,-78 8,-16 21,-108 45,-142l87 18z"/>
       </g>
      </g>
      <g>
       <path class="fil15" d="M541 1206c0,0 -73,339 -133,453 0,0 -31,150 -144,543 0,0 -59,24 -94,-21 0,0 64,-434 97,-572 0,0 107,-487 212,-567 0,0 54,62 62,165z"/>
      </g>
     </g>
     <path class="fil16" d="M572 1436l-229 -47 52 -255c13,-63 75,-104 138,-91 63,13 104,75 91,138l-52 255z"/>
     <path class="fil17" d="M709 938l-280 132c-19,9 -29,33 -23,56l150 584 331 0 142 -591c6,-24 -5,-48 -25,-57l-293 -125z"/>
     <path class="fil17" d="M516 1032l202 -82 217 79c0,0 -13,98 -210,98 -198,0 -209,-95 -209,-95z"/>
     <path class="fil18" d="M542 1428l-60 -201c-1,-2 -2,-3 -4,-2 -2,1 -3,2 -2,4l60 201c1,2 2,3 4,2 2,-1 3,-2 2,-4z"/>
     <path class="fil18" d="M924 1430l60 -201c1,-2 0,-4 -2,-4 -2,-1 -4,0 -4,2l-60 201c-1,2 0,4 2,4 2,1 4,0 4,-2z"/>
     <path class="fil19" d="M895 1426c0,0 -139,98 -338,6 0,0 186,50 338,-6z"/>
     <path class="fil20" d="M581 3888c0,0 3,-5 5,-9 2,-4 5,-10 6,-17 2,-7 2,-12 3,-17 0,-5 0,-12 -3,-23 -2,-10 -6,-18 -7,-20 -1,-2 -7,-12 -8,-14 -2,-3 -6,-8 -7,-11 -1,-2 -4,-5 -5,-8 -1,-3 -2,-5 -2,-7 0,-2 0,-3 -3,-5 -2,-3 -3,-3 -5,-3 -2,0 -6,0 -9,1 -3,1 -7,3 -10,5 -3,2 -7,4 -9,7 -2,3 -12,11 -17,18 -5,6 -14,18 -19,24 -5,6 -13,16 -16,20 -3,5 -9,13 -12,18 -2,4 -8,17 -10,21 -2,4 -14,24 -15,27 -1,3 -10,16 -12,19 -1,3 -15,25 -19,30 -4,5 -11,14 -14,17 -3,2 -7,8 -11,11 -4,3 -8,7 -10,7 0,0 -6,1 -10,4 -4,3 -10,11 -15,14 -4,3 -17,11 -21,14 -4,3 -11,9 -13,13 -2,4 -4,6 -4,10 0,4 0,7 0,7 0,0 0,8 13,12 13,4 37,9 63,10 26,2 38,3 58,2 20,-1 38,-8 51,-16 13,-8 16,-16 18,-20 2,-4 4,-9 5,-14 1,-5 7,-22 9,-29 2,-6 12,-33 15,-38 2,-5 18,-33 20,-37 2,-4 11,-14 12,-15 1,-1 6,-7 6,-7l1 -1z"/>
     <path class="fil21" d="M310 4039c0,0 0,6 9,10 8,4 35,9 42,10 6,1 46,5 65,5 0,0 16,1 34,-2 0,0 18,-4 28,-9 0,0 17,-9 23,-19 6,-10 7,-14 10,-25 0,0 7,-25 11,-34 4,-9 13,-31 18,-41 4,-9 11,-20 16,-27 5,-7 10,-13 11,-13 1,-1 4,-5 4,-5l1 -1 0 0c0,0 -5,14 -6,23 -2,10 -5,22 -5,29 -1,7 -4,24 -5,27 -1,4 -2,13 -3,19 -1,6 -2,16 -2,18 0,1 -1,4 -1,4 0,0 -8,7 -11,9 -3,2 -8,4 -8,4 0,0 -2,-1 -4,-1 -2,0 -7,0 -7,0 0,0 -10,9 -15,15 -5,6 -12,12 -15,15 -3,3 -9,6 -14,8 -5,2 -18,5 -26,7 -8,2 -28,6 -49,4 0,0 -20,-1 -34,-3 -14,-1 -31,-5 -39,-7 -8,-2 -19,-5 -23,-9 -4,-4 -4,-5 -4,-7 0,-2 1,-5 1,-5z"/>
     <path class="fil15" d="M543 2163c0,0 45,705 40,862l-4 812 -91 1c-8,-321 -116,-579 -79,-808 72,-269 80,-432 29,-683 0,0 -32,-182 105,-185z"/>
     <path class="fil22" d="M518 3827c-5,4 -24,-2 -30,10 -7,14 -25,47 -30,60 -3,7 -17,31 -25,41 -7,10 -48,38 -56,44 -12,8 48,32 79,25 21,-4 34,-13 43,-26 0,0 9,-10 13,-25 6,-30 63,-92 68,-118 1,-6 -47,-22 -62,-10z"/>
     <path class="fil20" d="M852 3888c0,0 -3,-5 -5,-9 -2,-4 -5,-10 -6,-17 -2,-7 -2,-12 -3,-17 0,-5 0,-12 3,-23 2,-10 6,-18 7,-20 1,-2 7,-12 8,-14 2,-3 6,-8 7,-11 1,-2 4,-5 5,-8 1,-3 2,-5 2,-7 0,-2 0,-3 3,-5 2,-3 3,-3 5,-3 2,0 6,0 9,1 3,1 7,3 10,5 3,2 7,4 9,7 2,3 12,11 17,18 5,6 14,18 19,24 5,6 13,16 16,20 3,5 9,13 12,18 2,4 8,17 10,21 2,4 14,24 15,27 1,3 10,16 12,19 1,3 15,25 19,30 4,5 11,14 14,17 3,2 7,8 11,11 4,3 8,7 10,7 0,0 6,1 10,4 4,3 10,11 15,14 4,3 17,11 21,14 4,3 11,9 13,13 2,4 4,6 4,10 0,4 0,7 0,7 0,0 0,8 -13,12 -13,4 -37,9 -63,10 -26,2 -38,3 -58,2 -20,-1 -38,-8 -51,-16 -13,-8 -16,-16 -18,-20 -2,-4 -4,-9 -5,-14 -1,-5 -7,-22 -9,-29 -2,-6 -12,-33 -15,-38 -2,-5 -18,-33 -20,-37 -2,-4 -11,-14 -12,-15 -1,-1 -6,-7 -6,-7l-1 -1z"/>
     <path class="fil21" d="M1124 4039c0,0 0,6 -9,10 -8,4 -35,9 -42,10 -6,1 -46,5 -65,5 0,0 -16,1 -34,-2 0,0 -18,-4 -28,-9 0,0 -17,-9 -23,-19 -6,-10 -7,-14 -10,-25 0,0 -7,-25 -11,-34 -4,-9 -13,-31 -18,-41 -4,-9 -11,-20 -16,-27 -5,-7 -10,-13 -11,-13 -1,-1 -4,-5 -4,-5l-1 -1 0 0c0,0 5,14 6,23 2,10 5,22 5,29 1,7 4,24 5,27 1,4 2,13 3,19 1,6 2,16 2,18 0,1 1,4 1,4 0,0 8,7 11,9 3,2 8,4 8,4 0,0 2,-1 4,-1 2,0 7,0 7,0 0,0 10,9 15,15 5,6 12,12 15,15 3,3 9,6 14,8 5,2 18,5 26,7 8,2 28,6 49,4 0,0 20,-1 34,-3 14,-1 31,-5 39,-7 8,-2 19,-5 23,-9 4,-4 4,-5 4,-7 0,-2 -1,-5 -1,-5z"/>
     <path class="fil22" d="M915 3827c5,4 24,-2 30,10 7,14 25,47 30,60 3,7 17,31 25,41 7,10 48,38 56,44 12,8 -48,32 -79,25 -21,-4 -34,-13 -43,-26 0,0 -9,-10 -13,-25 -6,-30 -63,-92 -68,-118 -1,-6 47,-22 62,-10z"/>
     <path class="fil15" d="M890 2163c0,0 -45,705 -40,862l4 812 91 1c8,-321 116,-579 79,-808 68,-221 -43,-419 -29,-683 0,0 32,-182 -105,-185z"/>
     <path class="fil23" d="M785 358c0,0 82,-36 151,29 69,65 20,108 81,140 61,32 16,121 87,161 71,40 24,140 -49,154 0,0 -35,92 -112,84 0,0 -71,79 -210,29l-51 -21 102 -577z"/>
     <path class="fil23" d="M515 385c0,0 -92,12 -110,94 -18,82 -11,63 -62,104 -51,42 13,89 -27,131 -21,21 -30,39 -32,59 -3,35 21,67 55,77 23,7 42,29 56,59 28,60 126,34 126,34 0,0 93,54 150,14 57,-40 -29,-594 -29,-594l-127 24z"/>
     <polygon class="fil24" points="642,869 772,970 758,835 "/>
     <g>
      <g>
       <path class="fil15" d="M784 856l-3 50 -3 63c0,0 -13,24 -69,24 -57,0 -68,-16 -68,-16l-2 -28 -8 -93 153 0z"/>
      </g>
      <g>
       <path class="fil25" d="M784 856l-3 50c-24,18 -79,52 -143,43l-8 -93 153 0z"/>
      </g>
     </g>
     <path class="fil23" d="M804 362c0,0 -35,-86 -162,-86 -127,0 -166,132 -166,132l184 107 143 -152z"/>
     <path class="fil17" d="M542 668c13,28 11,73 -15,83 -27,10 -58,-26 -71,-54 -13,-28 -5,-53 22,-63 27,-10 52,5 64,33z"/>
     <path class="fil24" d="M477 671l0 0c1,0 3,-1 6,-1 5,0 12,1 18,6 7,5 13,13 18,29 0,1 2,2 3,2 1,0 2,-2 2,-3 -4,-16 -12,-26 -20,-32 -8,-5 -16,-7 -21,-7 -4,0 -7,1 -7,1 -1,0 -2,2 -2,3 0,1 2,2 3,2z"/>
     <path class="fil26" d="M571 812c-9,18 -28,31 -50,31 -15,0 -29,-6 -40,-16 -10,-10 -16,-24 -16,-40 0,-15 6,-29 16,-40 10,-10 24,-16 40,-16l0 -8c-35,0 -64,29 -64,64 0,35 29,64 64,64 25,0 47,-15 57,-36l-7 -4z"/>
     <path class="fil17" d="M880 668c-13,28 -11,73 15,83 27,10 58,-26 71,-54 13,-28 5,-53 -22,-63 -27,-10 -52,5 -64,33z"/>
     <path class="fil24" d="M946 666c0,0 -3,-1 -7,-1 -5,0 -13,1 -21,7 -8,5 -15,15 -20,32 0,1 0,3 2,3 1,0 3,0 3,-2 4,-15 11,-24 18,-29 7,-5 13,-6 18,-6 2,0 3,0 4,0l1 0 0 0c1,0 3,0 3,-2 0,-1 0,-3 -2,-3z"/>
     <path class="fil26" d="M846 816c10,21 32,36 57,36 35,0 64,-29 64,-64 0,-35 -29,-64 -64,-64l0 8c15,0 29,6 40,16 10,10 16,24 16,40 0,15 -6,29 -16,40 -10,10 -24,16 -40,16 -22,0 -41,-13 -50,-31l-7 4z"/>
     <path class="fil23" d="M935 559c0,119 -101,216 -225,216 -124,0 -225,-97 -225,-216 0,-119 101,-216 225,-216 124,0 225,97 225,216z"/>
     <path class="fil17" d="M711 369l0 0c-104,0 -196,80 -196,179l6 119c0,0 2,169 162,220 18,6 37,6 55,0 160,-51 162,-220 162,-220l6 -119c0,-99 -92,-179 -196,-179z"/>
     <path class="fil27" d="M671 763c0,0 2,25 36,25 34,0 36,-25 36,-25l-71 0z"/>
     <path class="fil24" d="M697 694l0 28c0,1 1,3 3,3l20 0c1,0 3,-1 3,-3 0,-1 -1,-3 -3,-3l-18 0 0 -25c0,-1 -1,-3 -3,-3 -1,0 -3,1 -3,3z"/>
     <path class="fil5" d="M667 653c0,0 -13,-34 -46,-36 -33,-2 -53,25 -53,25 0,0 8,29 48,31 40,2 51,-20 51,-20z"/>
     <path class="fil23" d="M585 644c0,9 3,18 9,24 6,3 14,5 23,5 8,0 15,0 21,-1 7,-6 12,-14 13,-25 0,-9 -3,-17 -8,-23 -6,-4 -13,-6 -21,-6 -10,0 -19,2 -27,5 -6,6 -9,13 -10,22z"/>
     <path class="fil23" d="M669 653c0,0 -3,-9 -11,-18 -8,-9 -20,-19 -38,-19l-1 0c-35,0 -53,25 -54,25l0 3 3 0 1 -1c4,-5 21,-23 50,-23l1 0c16,0 27,9 34,17 4,4 6,9 8,12 1,2 1,3 2,4l1 1c0,1 2,2 3,1 1,0 2,-2 1,-3z"/>
     <path class="fil5" d="M752 653c0,0 13,-34 46,-36 33,-2 53,25 53,25 0,0 -8,29 -48,31 -40,2 -51,-20 -51,-20z"/>
     <path class="fil23" d="M835 644c0,9 -3,18 -9,24 -6,3 -14,5 -23,5 -8,0 -15,0 -21,-1 -7,-6 -12,-14 -13,-25 0,-9 3,-17 8,-23 6,-4 13,-6 21,-6 10,0 19,2 27,5 6,6 9,13 10,22z"/>
     <path class="fil23" d="M754 654l1 -1c1,-3 5,-12 12,-19 7,-7 17,-14 32,-14l1 0c16,0 29,6 37,12 4,3 8,6 10,8 1,1 2,2 2,3l1 1 3 0 0 -3c0,0 -19,-25 -54,-25l-1 0c-18,0 -30,10 -38,19 -8,9 -11,18 -11,18 0,1 0,2 1,3 1,0 2,0 3,-1z"/>
     <path class="fil27" d="M743 763c0,0 -33,-18 -71,0 0,0 39,17 71,0z"/>
     <path class="fil24" d="M662 762c0,0 18,10 45,11 13,0 28,-3 45,-10 1,-1 2,-2 1,-3 -1,-1 -2,-2 -3,-1 -15,7 -30,10 -42,10 -13,0 -23,-2 -30,-5 -4,-1 -7,-2 -9,-3 -1,0 -2,-1 -2,-1l-1 0c-1,-1 -3,0 -4,1 -1,1 0,3 1,4z"/>
     <path class="fil23" d="M804 362c0,0 -8,94 -106,109 -100,15 -78,78 -200,63 0,0 -44,-69 21,-140 43,-47 127,-86 187,-80 20,2 68,41 98,47z"/>
     <path class="fil23" d="M792 374c0,0 -43,63 143,185 0,0 30,-43 10,-83 -20,-39 -153,-103 -153,-103z"/>
     <path class="fil28" d="M647 574c1,6 -4,12 -10,12 -21,1 -66,5 -88,28 0,0 7,-40 86,-49 6,-1 11,4 12,10z"/>
     <path class="fil28" d="M764 575c-1,6 4,12 11,12 21,0 66,3 88,25 0,0 -8,-39 -87,-47 -6,-1 -11,4 -12,10z"/>
     <g>
      <polygon class="fil23" points="889,1654 558,1654 558,1604 889,1604 "/>
      <path class="fil29" d="M584 1803c-80,-12 -147,40 -165,119 -19,81 -32,178 -36,294 -8,288 6,537 20,667 7,66 63,115 129,115 67,0 123,-51 129,-118l57 -909c7,-82 -51,-154 -131,-167 -1,0 -2,0 -3,0z"/>
      <path class="fil29 str0" d="M660 2871l-39 892 -214 0 -4 -896c1,-70 58,-127 129,-127 72,0 130,59 129,130z"/>
      <path class="fil29" d="M862 1803c80,-12 147,40 165,119 19,81 32,178 36,294 8,288 -6,537 -20,667 -7,66 -63,115 -129,115 -67,0 -123,-51 -129,-118l-57 -909c-7,-82 51,-154 131,-167 1,0 2,0 3,0z"/>
      <path class="fil29" d="M787 2871l39 892 214 0 4 -896c-1,-70 -58,-127 -129,-127 -72,0 -130,59 -129,130z"/>
      <path class="fil29" d="M889 1654l-331 0c0,0 -86,60 -133,249l251 144c29,18 65,18 94,0l251 -144c-51,-184 -132,-249 -132,-249z"/>
      <path class="fil30" d="M571 1717c0,0 0,0 0,1 -1,6 -4,34 -18,63 -14,29 -39,60 -83,73 -2,1 -3,3 -2,4 1,2 3,3 4,2 50,-14 76,-51 90,-83 14,-32 16,-61 16,-61 0,-2 -1,-4 -3,-4 -2,0 -4,1 -4,3z"/>
      <path class="fil30" d="M867 1717c0,0 2,29 16,61 14,32 41,68 90,83 2,1 4,-1 4,-2 1,-2 -1,-4 -2,-4 -47,-14 -72,-48 -86,-79 -7,-15 -11,-30 -13,-41 -1,-5 -2,-10 -2,-13 0,-2 0,-3 0,-3 0,-1 0,-1 0,-1 0,-2 -2,-3 -4,-3 -2,0 -3,2 -3,4z"/>
     </g>
     <polygon class="fil31" points="890,1153 890,1153 891,1153 "/>
     <polygon class="fil32" points="890,1153 891,1153 892,1152 891,1153 "/>
     <path class="fil32" d="M609 1191c46,81 105,197 111,250 6,-53 65,-170 111,-250 -40,21 -81,34 -111,34 -31,0 -72,-13 -111,-34z"/>
     <path class="fil33" d="M1153 1113l2 0c-14,-9 -85,-35 -141,-55 -29,-11 -55,-20 -66,-24 8,7 16,16 22,27 21,38 22,61 37,72 14,10 -99,18 -114,20l-1 1 81 61c0,0 -92,106 -155,151 -19,14 -38,40 -54,58 -18,21 -21,32 -35,56l0 0c2,11 5,20 5,26 0,2 0,3 1,5 115,-3 223,-32 318,-82 2,-71 -1,-271 100,-316z"/>
     <path class="fil34" d="M728 1480c-17,-15 -33,-36 -51,-56 -16,-18 -35,-44 -54,-58 -62,-45 -155,-151 -155,-151l82 -62c0,0 -131,-9 -116,-20 15,-11 16,-34 37,-72 6,-11 15,-21 23,-28 -14,5 -43,16 -76,27 -59,21 -127,46 -132,52l-2 3c2,-2 4,-3 5,-2 106,47 98,263 100,325 97,47 207,73 322,73 7,0 14,0 21,-1 0,-2 0,-3 -1,-5 -1,-5 -3,-15 -5,-26z"/>
     <path class="fil35" d="M893 1002c0,0 2,1 4,3 3,3 8,10 10,22 1,7 11,31 -30,90 -10,15 -27,41 -45,73 -46,81 -105,197 -111,250 -6,-53 -65,-169 -111,-250 -19,-32 -35,-59 -45,-74 -42,-59 -32,-82 -30,-90 2,-12 7,-19 10,-22 2,-2 4,-3 4,-3 0,0 -11,-4 -29,11 -5,4 -15,11 -24,19 -8,7 -17,17 -23,28 -21,38 -22,61 -37,72 -15,11 116,20 116,20l-82 62c0,0 92,106 155,151 19,14 38,40 54,58 18,21 34,41 51,56l0 0c15,-24 17,-36 35,-56 16,-18 35,-44 54,-58 62,-45 155,-151 155,-151l-81 -61 -1 -1 0 0 0 0 1 0c15,-1 128,-9 114,-20 -15,-11 -16,-34 -37,-72 -6,-11 -14,-19 -22,-27 -10,-10 -21,-16 -26,-21 -18,-15 -29,-11 -29,-11z"/>
     <path class="fil35" d="M1154 1113l-2 0c-101,45 -98,245 -100,316 60,-31 115,-69 164,-115 -24,-110 -48,-198 -62,-201z"/>
     <path class="fil35" d="M291 1113c-2,-1 -3,0 -5,2 -14,16 -38,105 -61,212 50,44 106,81 167,111 -2,-62 5,-278 -100,-325z"/>
    </g>
   </g>
   <path class="fil36" d="M1473 736c0,407 -330,736 -736,736 -407,0 -736,-330 -736,-736 0,-407 330,-736 736,-736 407,0 736,330 736,736z"/>
   <path class="fil10" d="M741 1198l0 -1 1 -2c-1,1 -1,2 -1,2l-1 -1 1 2z"/>
   <circle class="fil37" cx="606" cy="992" r="14"/>
   <circle class="fil37" cx="625" cy="1015" r="14"/>
   <circle class="fil37" cx="649" cy="1030" r="14"/>
   <circle class="fil37" cx="678" cy="1037" r="14"/>
   <circle class="fil37" cx="707" cy="1037" r="14"/>
   <circle class="fil37" cx="736" cy="1035" r="14"/>
   <circle class="fil37" cx="762" cy="1020" r="14"/>
   <circle class="fil37" cx="782" cy="999" r="14"/>
   <circle class="fil37" cx="800" cy="976" r="14"/>
   <path class="fil38" d="M858 645c-6,0 -13,-1 -19,-1 -31,-1 -62,-2 -92,4 -9,2 -18,4 -27,7 -13,5 -25,5 -37,0 -4,-2 -7,-3 -11,-4 -28,-6 -57,-9 -86,-8 -13,1 -27,1 -40,2 -6,0 -7,2 -6,8 1,8 2,17 3,25 0,4 1,7 5,10 2,1 3,3 4,5 3,5 6,10 9,14 2,2 4,4 7,6 3,2 7,3 10,4 25,5 50,7 76,5 14,-1 23,-8 28,-22 2,-6 5,-12 7,-18 2,-4 5,-7 9,-6 3,0 5,0 8,0 8,0 9,1 13,9 3,7 5,13 8,20 4,10 12,15 22,17 25,3 50,1 76,-3 12,-2 21,-7 27,-20 2,-4 4,-8 8,-11 3,-3 4,-5 4,-9 0,-1 0,-3 0,-4 1,-8 2,-16 2,-24 0,-5 -1,-6 -5,-6zm-179 29l0 0c-1,13 -5,25 -13,36 -4,5 -9,7 -15,7 -24,2 -48,1 -72,-5 -12,-3 -20,-10 -21,-24 -1,-8 -3,-16 -3,-24 0,-7 3,-10 9,-11 12,-1 22,-3 37,-3 15,0 43,2 64,8 2,0 3,1 5,2 7,3 9,5 9,14zm160 28l0 0c-1,3 -4,5 -7,6 -10,5 -20,7 -30,8 -15,1 -30,1 -45,1 -16,1 -24,-9 -29,-23 -3,-8 -5,-16 -4,-25 0,-5 3,-8 7,-9 13,-5 27,-7 41,-8 9,-1 19,-1 32,-2 9,1 21,1 33,3 7,1 10,5 10,13 0,13 -3,25 -8,36z"/>
  </g>
 </g>
</svg>
