<?xml version="1.0" encoding="UTF-8"?>
<!DOCTYPE svg PUBLIC "-//W3C//DTD SVG 1.1//EN" "http://www.w3.org/Graphics/SVG/1.1/DTD/svg11.dtd">
<!-- Creator: CorelDRAW X6 -->
<svg xmlns="http://www.w3.org/2000/svg" xml:space="preserve" width="44.0613mm" height="131.957mm" version="1.1" style="shape-rendering:geometricPrecision; text-rendering:geometricPrecision; image-rendering:optimizeQuality; fill-rule:evenodd; clip-rule:evenodd"
viewBox="0 0 3617 10831"
 xmlns:xlink="http://www.w3.org/1999/xlink">
 <defs>
  <style type="text/css">
   <![CDATA[
    .str0 {stroke:#31314B;stroke-width:6.2547}
    .str1 {stroke:#FFAF82;stroke-width:16.4165}
    .fil1 {fill:#84919A}
    .fil4 {fill:black}
    .fil6 {fill:#291FAC}
    .fil5 {fill:#31314B}
    .fil13 {fill:#995342}
    .fil0 {fill:#C11C56}
    .fil12 {fill:#DE5A62}
    .fil2 {fill:#FFAF82}
    .fil14 {fill:white}
    .fil10 {fill:#727271;fill-rule:nonzero}
    .fil8 {fill:#C11C56;fill-rule:nonzero}
    .fil7 {fill:#E62F67;fill-rule:nonzero}
    .fil9 {fill:#F78967;fill-rule:nonzero}
    .fil3 {fill:#FFAF82;fill-rule:nonzero}
    .fil11 {fill:white;fill-rule:nonzero}
   ]]>
  </style>
 </defs>
 <g id="Layer_x0020_1">
  <metadata id="CorelCorpID_0Corel-Layer"/>
  <g id="_1591919648">
   <path class="fil0" d="M1398 10322c0,0 8,-13 13,-24 5,-11 14,-29 18,-47 4,-19 6,-34 7,-48 1,-14 0,-35 -7,-63 -7,-28 -16,-49 -19,-56 -3,-6 -19,-33 -23,-40 -5,-7 -18,-23 -21,-30 -3,-7 -10,-15 -13,-22 -3,-8 -5,-15 -6,-20 -1,-5 -1,-8 -8,-15 -6,-7 -9,-8 -15,-9 -6,-1 -18,0 -25,3 -7,3 -20,10 -28,14 -8,4 -20,11 -26,19 -6,7 -32,31 -47,49 -15,18 -40,49 -53,66 -13,17 -37,44 -44,57 -7,13 -26,37 -32,49 -7,12 -22,46 -29,58 -7,11 -38,67 -42,74 -4,7 -29,45 -33,53 -4,7 -43,69 -54,83 -11,14 -31,40 -38,47 -7,7 -20,23 -30,31 -10,8 -23,18 -29,21 0,0 -18,3 -29,12 -11,9 -29,30 -41,39 -12,10 -46,32 -58,40 -11,8 -30,26 -36,37 -6,11 -12,17 -12,28 0,11 1,20 1,20 0,0 1,21 37,33 36,11 104,24 175,29 71,5 107,9 161,5 55,-4 107,-22 143,-45 36,-23 45,-44 50,-55 5,-11 11,-24 15,-39 4,-15 20,-63 25,-80 4,-18 34,-91 41,-105 7,-14 49,-93 55,-104 6,-10 30,-39 34,-43 4,-4 18,-19 18,-19l4 -3z"/>
   <path class="fil1" d="M640 10744c0,0 1,17 24,29 22,12 99,26 116,29 18,3 128,14 182,13 0,0 45,4 94,-7 0,0 51,-11 78,-25 0,0 48,-26 64,-53 16,-27 20,-39 28,-70 0,0 21,-70 31,-96 11,-26 37,-87 49,-113 12,-26 30,-56 45,-76 15,-19 27,-35 30,-37 4,-2 12,-13 12,-13l3 -2 1 0c0,0 -13,38 -18,65 -5,27 -13,62 -15,82 -2,20 -11,66 -13,76 -2,10 -5,37 -7,54 -2,16 -6,45 -7,49 0,4 -2,10 -2,10 0,0 -22,20 -30,25 -8,5 -23,12 -23,12 0,0 -4,-3 -11,-3 -7,0 -19,-1 -19,-1 0,0 -27,26 -42,43 -15,18 -34,33 -43,43 -9,9 -26,17 -39,23 -13,6 -52,14 -74,19 -22,5 -78,16 -137,10 0,0 -56,-4 -95,-7 -39,-4 -86,-14 -108,-19 -22,-5 -54,-14 -65,-25 -11,-11 -12,-14 -12,-20 0,-7 4,-15 4,-15z"/>
   <path class="fil2" d="M1221 10153c-13,11 -66,-5 -83,27 -21,38 -69,133 -83,166 -8,19 -49,86 -69,115 -20,28 -133,107 -156,123 -33,23 135,89 219,71 58,-12 95,-37 119,-74 0,0 26,-28 35,-71 17,-84 174,-258 190,-329 4,-17 -132,-62 -172,-28z"/>
   <path class="fil0" d="M2184 10322c0,0 -8,-13 -13,-24 -5,-11 -14,-29 -18,-47 -4,-19 -6,-34 -7,-48 -1,-14 0,-35 7,-63 7,-28 16,-49 19,-56 3,-6 19,-33 23,-40 5,-7 18,-23 21,-30 3,-7 10,-15 13,-22 3,-8 5,-15 6,-20 1,-5 1,-8 8,-15 6,-7 9,-8 15,-9 6,-1 18,0 25,3 7,3 20,10 28,14 8,4 20,11 26,19 6,7 32,31 47,49 15,18 40,49 53,66 13,17 37,44 44,57 7,13 26,37 32,49 7,12 22,46 29,58 7,11 38,67 42,74 4,7 29,45 33,53 4,7 43,69 54,83 11,14 31,40 38,47 7,7 20,23 30,31 10,8 23,18 29,21 0,0 18,3 29,12 11,9 29,30 41,39 12,10 46,32 58,40 11,8 30,26 36,37 6,11 12,17 12,28 0,11 -1,20 -1,20 0,0 -1,21 -37,33 -36,11 -104,24 -175,29 -71,5 -107,9 -161,5 -55,-4 -107,-22 -143,-45 -36,-23 -45,-44 -50,-55 -5,-11 -11,-24 -15,-39 -4,-15 -20,-63 -25,-80 -4,-18 -34,-91 -41,-105 -7,-14 -49,-93 -55,-104 -6,-10 -30,-39 -34,-43 -4,-4 -18,-19 -18,-19l-4 -3z"/>
   <path class="fil1" d="M2942 10744c0,0 -1,17 -24,29 -22,12 -99,26 -116,29 -18,3 -128,14 -182,13 0,0 -45,4 -94,-7 0,0 -51,-11 -78,-25 0,0 -48,-26 -64,-53 -16,-27 -20,-39 -28,-70 0,0 -21,-70 -31,-96 -11,-26 -37,-87 -49,-113 -12,-26 -30,-56 -45,-76 -15,-19 -27,-35 -30,-37 -4,-2 -12,-13 -12,-13l-3 -2 -1 0c0,0 13,38 18,65 5,27 13,62 15,82 2,20 11,66 13,76 2,10 5,37 7,54 2,16 6,45 7,49 0,4 2,10 2,10 0,0 22,20 30,25 8,5 23,12 23,12 0,0 4,-3 11,-3 7,0 19,-1 19,-1 0,0 27,26 42,43 15,18 34,33 43,43 9,9 26,17 39,23 13,6 52,14 74,19 22,5 78,16 137,10 0,0 56,-4 95,-7 39,-4 86,-14 108,-19 22,-5 54,-14 65,-25 11,-11 12,-14 12,-20 0,-7 -4,-15 -4,-15z"/>
   <path class="fil2" d="M2361 10153c13,11 66,-5 83,27 21,38 69,133 83,166 8,19 49,86 69,115 20,28 133,107 156,123 33,23 -135,89 -219,71 -58,-12 -95,-37 -119,-74 0,0 -26,-28 -35,-71 -17,-84 -174,-258 -190,-329 -4,-17 132,-62 172,-28z"/>
   <path class="fil3" d="M1293 5510c0,0 126,1968 111,2404l-11 2266 -255 3c-23,-895 -127,-1631 -25,-2268 -190,-616 -77,-1154 -114,-1890 0,0 -89,-507 293,-515z"/>
   <path class="fil3" d="M2290 5510c0,0 -126,1968 -111,2404l11 2266 255 3c23,-895 322,-1617 220,-2254 190,-616 -119,-1169 -82,-1904 0,0 89,-507 -293,-515z"/>
   <polygon class="fil4" points="2283,4213 1359,4213 1359,4071 2283,4071 "/>
   <path class="fil5" d="M1433 4628c-224,-34 -257,154 -309,376 -52,225 -90,496 -99,820 -22,804 -134,1456 -95,1816 20,183 175,321 359,321 187,0 344,-143 359,-330l159 -2537c19,-227 -141,-430 -367,-465 -3,0 -5,-1 -8,-1z"/>
   <path class="fil5 str0" d="M1643 7606l-108 2488 -598 0 -11 -2499c3,-196 163,-353 359,-353 200,0 361,163 359,363z"/>
   <path class="fil5" d="M2207 4628c224,-34 225,118 277,340 52,225 90,496 99,820 22,804 166,1491 127,1852 -20,183 -175,321 -359,321 -187,0 -344,-143 -359,-330l-159 -2537c-19,-227 141,-430 367,-465 3,0 5,-1 8,-1z"/>
   <path class="fil5" d="M1997 7606l108 2488 598 0 11 -2499c-3,-196 -163,-353 -359,-353 -200,0 -361,163 -359,363z"/>
   <path class="fil5" d="M2283 4213l-924 0c0,0 -239,166 -371,694l701 402c81,49 182,49 264,0l700 -401c-142,-513 -369,-695 -369,-695z"/>
   <path class="fil6" d="M1395 4387c0,0 0,1 0,3 -1,17 -10,94 -49,176 -39,82 -109,167 -232,203 -5,2 -8,7 -7,12 2,5 7,8 12,7 139,-40 213,-141 252,-231 39,-90 44,-169 44,-170 0,-6 -4,-10 -9,-11 -6,0 -10,4 -11,9z"/>
   <path class="fil6" d="M2221 4388c0,1 5,80 44,170 39,90 113,191 252,231 5,2 11,-2 12,-7 2,-5 -2,-11 -7,-12 -132,-38 -202,-133 -239,-220 -19,-43 -29,-84 -35,-114 -3,-15 -5,-27 -6,-36 0,-4 -1,-8 -1,-10 0,-2 0,-3 0,-3 0,-6 -5,-10 -11,-9 -6,0 -10,5 -9,11z"/>
   <path class="fil7" d="M3122 8011c0,0 -788,315 -1224,315 -464,0 -1489,-159 -1489,-159l721 -4550c-273,-173 -115,-804 -55,-775l-64 -463 594 -253 382 -4 619 230 -67 489c87,6 278,600 -38,721l619 4448z"/>
   <path class="fil8" d="M2337 3695c0,0 -420,297 -1024,18 0,0 565,152 1024,-18z"/>
   <g>
    <g>
     <g>
      <path class="fil3" d="M406 5602c0,0 33,110 70,190 37,80 12,142 34,214 22,72 -64,67 -81,-9 -17,-76 -10,-112 -25,-114 -16,-2 -61,182 -67,235 -7,53 4,186 -16,207 -20,21 -68,-54 -53,-192 15,-138 4,-135 4,-135 0,0 -13,54 -27,111 -14,58 -14,128 -11,168 3,39 -38,59 -50,38 -12,-21 -31,-159 -15,-213 16,-54 35,-146 35,-146 0,0 -53,124 -62,156 -9,32 6,154 -22,176 -11,9 -48,-3 -42,-177 0,0 13,-85 31,-137 0,0 -28,39 -42,92 -12,46 -19,95 -23,142 -4,47 -45,41 -45,-42 0,-83 14,-174 37,-218 23,-44 57,-302 126,-396l243 51z"/>
     </g>
    </g>
    <g>
     <path class="fil7" d="M1186 2840c0,0 -204,947 -371,1264 0,0 -85,418 -403,1515 0,0 -166,66 -263,-60 0,0 178,-1211 270,-1596 0,0 299,-1358 592,-1583 0,0 152,172 173,461z"/>
    </g>
   </g>
   <g>
    <g>
     <g>
      <path class="fil3" d="M3210 5602c0,0 -33,110 -70,190 -37,80 -12,142 -34,214 -22,72 64,67 81,-9 17,-76 10,-112 25,-114 16,-2 61,182 67,235 7,53 -4,186 16,207 20,21 68,-54 53,-192 -15,-138 -4,-135 -4,-135 0,0 13,54 27,111 14,58 14,128 11,168 -3,39 38,59 50,38 12,-21 31,-159 15,-213 -16,-54 -35,-146 -35,-146 0,0 53,124 62,156 9,32 -6,154 22,176 11,9 48,-3 42,-177 0,0 -13,-85 -31,-137 0,0 28,39 42,92 12,46 19,95 23,142 4,47 45,41 45,-42 0,-83 -14,-174 -37,-218 -23,-44 -57,-302 -126,-396l-243 51z"/>
     </g>
    </g>
    <g>
     <path class="fil7" d="M2431 2840c0,0 198,918 364,1236 0,0 91,447 409,1543 0,0 166,66 263,-60 0,0 -153,-1206 -246,-1591 0,0 -396,-1369 -613,-1615 0,0 -155,199 -177,487z"/>
    </g>
   </g>
   <g>
    <g>
     <path class="fil3" d="M2011 1840l-7 140 -9 176c0,0 -35,66 -193,66 -158,0 -190,-45 -190,-45l-6 -78 -21 -259 427 0z"/>
    </g>
    <g>
     <path class="fil9" d="M2011 1840l-7 140c-66,49 -221,146 -398,119l-21 -259 427 0z"/>
    </g>
   </g>
   <path class="fil3" d="M2351 1109c-1,17 -3,34 -5,52 -37,361 -149,817 -547,817 -389,0 -542,-431 -592,-783 -3,-26 -7,-51 -9,-75 -36,-335 224,-630 561,-633l30 0c250,3 458,166 534,388 9,27 16,54 21,82 9,49 12,100 7,153z"/>
   <path class="fil10" d="M1435 1738c0,0 -645,-9 -519,-866 0,0 180,-866 654,-810 0,0 491,-261 861,284 0,0 293,377 225,828 0,0 -41,507 -501,563 -17,-1 537,-610 -307,-954 0,0 147,200 303,230 0,0 -315,49 -604,-272 0,0 -161,387 -307,504 0,0 -27,296 193,492z"/>
   <g>
    <g>
     <g>
      <path class="fil3" d="M1279 1221c0,0 -72,-70 -129,-24 -68,54 3,249 123,228l6 -204z"/>
     </g>
    </g>
   </g>
   <path class="fil11" d="M1307 1426c0,28 -23,51 -51,51 -28,0 -51,-23 -51,-51 0,-28 23,-51 51,-51 28,0 51,23 51,51z"/>
   <path class="fil10" d="M1649 1056c-2,18 -19,30 -36,27 -58,-12 -182,-29 -255,20 0,0 44,-103 264,-80 17,2 29,17 27,34z"/>
   <g>
    <g>
     <g>
      <path class="fil3" d="M2256 1221c0,0 72,-70 129,-24 68,54 -3,249 -123,228l-6 -204z"/>
     </g>
    </g>
   </g>
   <path class="fil11" d="M2340 1426c0,28 -23,51 -51,51 -28,0 -51,-23 -51,-51 0,-28 23,-51 51,-51 28,0 51,23 51,51z"/>
   <g>
    <path class="fil12" d="M1663 1673c0,0 7,87 126,87 119,0 126,-87 126,-87l-252 0z"/>
    <path class="fil12" d="M1915 1673c0,0 -115,-64 -252,0 0,0 138,59 252,0z"/>
    <path class="fil13" d="M1630 1670c1,0 64,37 157,37 46,0 100,-9 157,-37 5,-2 6,-8 4,-12 -2,-5 -8,-6 -12,-4 -54,26 -105,35 -149,35 -44,0 -81,-9 -107,-17 -13,-4 -23,-9 -30,-12 -3,-2 -6,-3 -8,-4l-3 -1c-4,-3 -10,-1 -12,3 -3,4 -1,10 3,12z"/>
   </g>
   <path class="fil13" d="M1755 1403l0 64c0,3 3,6 6,6l47 1c3,0 6,-3 6,-6 0,-3 -3,-6 -6,-6l-41 0 0 -58c0,-3 -3,-6 -6,-6 -3,0 -6,3 -6,6z"/>
   <g>
    <path class="fil14" d="M1620 1237c0,0 -31,-79 -107,-83 -76,-4 -121,57 -121,57 0,0 19,67 111,72 92,4 117,-46 117,-46z"/>
    <path class="fil4" d="M1430 1216c-1,21 7,41 20,56 14,6 32,11 53,12 19,1 35,0 48,-3 17,-13 29,-33 30,-57 1,-20 -6,-39 -19,-54 -14,-8 -30,-14 -49,-15 -24,-1 -44,4 -61,11 -13,13 -21,30 -22,50z"/>
    <path class="fil4" d="M1625 1236c0,0 -7,-21 -25,-42 -17,-21 -46,-43 -87,-43l-2 0c-80,0 -123,58 -123,59l1 6 6 -1 2 -2c9,-10 49,-53 114,-53l2 0c38,0 63,20 79,40 8,10 14,20 18,27 2,4 3,7 4,9l1 3c1,2 3,4 6,3 2,-1 4,-3 3,-6z"/>
   </g>
   <g>
    <path class="fil14" d="M1897 1237c0,0 31,-79 107,-83 76,-4 121,57 121,57 0,0 -19,67 -111,72 -92,4 -117,-46 -117,-46z"/>
    <path class="fil4" d="M2088 1216c1,21 -7,41 -20,56 -14,6 -32,11 -53,12 -19,1 -35,0 -48,-3 -17,-13 -29,-33 -30,-57 -1,-20 6,-39 19,-54 14,-8 30,-14 49,-15 24,-1 44,4 61,11 13,13 21,30 22,50z"/>
    <path class="fil4" d="M1893 1236c0,0 7,-21 25,-42 17,-21 46,-43 87,-43l2 0c80,0 123,58 123,59l-1 6 -6 -1 -2 -2c-9,-10 -49,-53 -114,-53l-2 0c-38,0 -63,20 -79,40 -8,10 -14,20 -18,27 -2,4 -3,7 -4,9l-1 3c-1,2 -3,4 -6,3 -2,-1 -4,-3 -3,-6z"/>
   </g>
   <path class="fil10" d="M1866 1056c2,18 19,30 36,27 58,-12 182,-29 255,20 0,0 -44,-103 -264,-80 -17,2 -29,17 -27,34z"/>
   <path class="fil2 str1" d="M1611 2125l379 0 0 417c0,104 -85,189 -189,189l0 0c-104,0 -189,-85 -189,-189l0 -417z"/>
  </g>
 </g>
</svg>
