<?xml version="1.0" encoding="UTF-8"?>
<!DOCTYPE svg PUBLIC "-//W3C//DTD SVG 1.1//EN" "http://www.w3.org/Graphics/SVG/1.1/DTD/svg11.dtd">
<!-- Creator: CorelDRAW X6 -->
<svg xmlns="http://www.w3.org/2000/svg" xml:space="preserve" width="44.0613mm" height="129.89mm" version="1.1" style="shape-rendering:geometricPrecision; text-rendering:geometricPrecision; image-rendering:optimizeQuality; fill-rule:evenodd; clip-rule:evenodd"
viewBox="0 0 3972 11708"
 xmlns:xlink="http://www.w3.org/1999/xlink">
 <defs>
  <style type="text/css">
   <![CDATA[
    .fil7 {fill:#84919A}
    .fil15 {fill:black}
    .fil1 {fill:#1F0F0A}
    .fil9 {fill:#31314B}
    .fil13 {fill:#995342}
    .fil6 {fill:#C11C56}
    .fil12 {fill:#DE5A62}
    .fil8 {fill:#FFAF82}
    .fil14 {fill:white}
    .fil11 {fill:#2B2A29;fill-rule:nonzero}
    .fil0 {fill:#1F0F0A;fill-rule:nonzero}
    .fil3 {fill:#C11C56;fill-rule:nonzero}
    .fil2 {fill:#E62F67;fill-rule:nonzero}
    .fil5 {fill:#F78967;fill-rule:nonzero}
    .fil4 {fill:#FFAF82;fill-rule:nonzero}
    .fil10 {fill:white;fill-rule:nonzero}
   ]]>
  </style>
 </defs>
 <g id="Layer_x0020_1">
  <metadata id="CorelCorpID_0Corel-Layer"/>
  <g id="_1159285008">
   <path class="fil0" d="M1598 2648c0,0 -466,-186 -496,-1166 0,0 -37,-352 180,-958 0,0 292,-666 666,-479 0,0 505,-247 769,427 0,0 146,393 129,910 0,0 -59,784 -318,1261 -17,29 -616,-217 -137,-1031 0,0 320,-550 -17,-786 0,0 -320,-166 -345,-365 0,0 -17,241 244,359 0,0 -208,-51 -281,-194 0,0 22,93 183,191 0,0 -354,-65 -396,-475 0,0 -112,163 -168,323 0,0 -62,143 -197,227 -66,421 322,929 247,1289 0,0 -167,275 -64,467z"/>
   <rect class="fil1" x="1588" y="696" width="840" height="1641"/>
   <path class="fil2" d="M2654 3946l206 1263c0,0 -417,212 -895,212 -510,0 -853,-212 -853,-212l206 -1263 -14 -275c-300,-190 -188,-769 -122,-737l-70 -508 653 -277 420 -5 680 253 -74 537c96,7 239,544 -108,677l-28 334z"/>
   <path class="fil3" d="M2566 3704c0,0 -461,326 -1125,20 0,0 620,167 1125,-20z"/>
   <g>
    <g>
     <g>
      <path class="fil4" d="M446 5966c0,0 36,121 77,209 40,88 13,156 37,235 24,79 -71,74 -89,-10 -18,-83 -10,-123 -28,-125 -17,-3 -67,200 -74,259 -7,58 5,204 -17,227 -22,23 -74,-59 -58,-211 17,-152 4,-149 4,-149 0,0 -14,59 -29,122 -15,63 -15,141 -12,184 3,43 -41,65 -54,42 -13,-23 -34,-174 -16,-233 18,-59 39,-160 39,-160 0,0 -58,136 -68,171 -10,35 7,169 -24,193 -13,10 -53,-3 -46,-194 0,0 14,-93 34,-151 0,0 -31,43 -46,101 -13,51 -21,104 -25,156 -4,52 -49,45 -49,-46 0,-91 15,-191 41,-240 26,-48 63,-332 139,-435l267 56z"/>
     </g>
    </g>
    <g>
     <path class="fil2" d="M1302 2932c0,0 -225,1040 -407,1388 0,0 -94,459 -442,1663 0,0 -182,72 -288,-66 0,0 195,-1330 297,-1753 0,0 328,-1492 650,-1739 0,0 166,189 191,506z"/>
    </g>
   </g>
   <g>
    <g>
     <g>
      <path class="fil4" d="M3526 5966c0,0 -36,121 -77,209 -40,88 -13,156 -37,235 -24,79 71,74 89,-10 18,-83 10,-123 28,-125 17,-3 67,200 74,259 7,58 -5,204 17,227 22,23 74,-59 58,-211 -17,-152 -4,-149 -4,-149 0,0 14,59 29,122 15,63 15,141 12,184 -3,43 41,65 54,42 13,-23 34,-174 16,-233 -18,-59 -39,-160 -39,-160 0,0 58,136 68,171 10,35 -7,169 24,193 13,10 53,-3 46,-194 0,0 -14,-93 -34,-151 0,0 31,43 46,101 13,51 21,104 25,156 4,52 49,45 49,-46 0,-91 -15,-191 -41,-240 -26,-48 -63,-332 -139,-435l-267 56z"/>
     </g>
    </g>
    <g>
     <path class="fil2" d="M2669 2932c0,0 218,1008 400,1357 0,0 100,491 449,1695 0,0 182,72 288,-66 0,0 -168,-1324 -270,-1747 0,0 -435,-1503 -673,-1774 0,0 -171,218 -195,535z"/>
    </g>
   </g>
   <g>
    <g>
     <path class="fil4" d="M2208 1834l-8 154 -10 193c0,0 -38,73 -211,73 -173,0 -209,-50 -209,-50l-7 -86 -23 -285 469 0z"/>
    </g>
    <g>
     <path class="fil5" d="M2208 1834l-8 154c-72,54 -243,160 -437,130l-23 -285 469 0z"/>
    </g>
   </g>
   <path class="fil4" d="M2582 1031c-2,18 -3,38 -5,57 -41,397 -163,898 -600,898 -427,0 -595,-473 -650,-860 -4,-28 -7,-56 -10,-83 -39,-368 246,-691 616,-695l33 0c275,3 503,183 586,426 10,29 18,59 24,90 10,54 13,110 8,168z"/>
   <path class="fil6" d="M1847 11149c0,0 9,-15 15,-26 6,-12 15,-31 20,-52 5,-20 7,-37 8,-53 1,-15 0,-38 -8,-69 -7,-31 -18,-54 -21,-61 -3,-7 -20,-36 -26,-44 -5,-8 -19,-26 -23,-33 -3,-7 -11,-16 -14,-25 -3,-9 -5,-16 -7,-22 -1,-5 -1,-9 -8,-16 -7,-8 -10,-9 -16,-10 -6,-1 -19,0 -27,3 -8,3 -22,11 -31,15 -9,5 -22,13 -29,21 -7,8 -35,34 -52,54 -16,20 -44,54 -58,73 -15,19 -40,48 -48,62 -8,14 -28,41 -35,54 -7,14 -25,51 -32,63 -7,13 -42,74 -46,81 -4,8 -31,50 -36,58 -4,8 -47,76 -59,91 -12,15 -34,44 -42,51 -8,7 -22,26 -33,34 -11,9 -25,20 -31,23 0,0 -19,3 -31,13 -12,10 -31,32 -45,43 -13,11 -51,35 -63,44 -13,9 -33,28 -39,40 -6,12 -13,18 -13,31 0,13 1,22 1,22 0,0 1,23 41,36 39,13 114,27 192,32 78,5 117,10 177,5 60,-4 118,-24 157,-49 39,-26 49,-48 55,-60 5,-12 12,-26 16,-43 4,-16 22,-69 27,-88 5,-19 37,-100 45,-115 7,-15 54,-103 60,-114 7,-11 33,-43 38,-47 4,-4 19,-21 19,-21l4 -3z"/>
   <path class="fil7" d="M1014 11612c0,0 1,19 26,32 25,13 108,29 128,31 19,3 141,15 199,14 0,0 50,4 104,-7 0,0 56,-12 86,-28 0,0 53,-28 71,-58 18,-30 22,-43 30,-76 0,0 23,-76 34,-106 12,-29 41,-96 54,-124 13,-29 33,-62 49,-83 16,-21 30,-39 33,-41 4,-2 14,-15 14,-15l3 -2 1 -1c0,0 -14,42 -20,71 -6,30 -14,68 -16,90 -2,22 -13,72 -15,83 -2,11 -6,41 -8,59 -2,18 -7,50 -7,54 0,4 -2,11 -2,11 0,0 -25,22 -33,27 -9,5 -26,14 -26,14 0,0 -5,-3 -12,-3 -7,0 -21,-1 -21,-1 0,0 -30,28 -46,47 -16,19 -37,37 -47,47 -10,10 -29,19 -43,26 -14,7 -57,15 -81,21 -24,6 -85,17 -151,11 0,0 -61,-4 -104,-8 -43,-4 -95,-15 -119,-21 -24,-6 -59,-15 -72,-27 -13,-12 -13,-15 -14,-22 0,-7 4,-16 4,-16z"/>
   <path class="fil4" d="M1731 5865c0,0 139,2161 122,2640l-12 2488 -280 3c-25,-983 -354,-1775 -242,-2475 -209,-676 130,-1283 90,-2091 0,0 -98,-557 322,-565z"/>
   <path class="fil8" d="M1652 10963c-15,13 -72,-6 -91,30 -23,42 -75,146 -91,183 -9,21 -53,95 -76,126 -22,31 -147,117 -172,135 -36,25 148,97 241,78 63,-14 104,-41 131,-81 0,0 29,-31 39,-77 19,-92 192,-283 209,-362 4,-19 -145,-68 -189,-30z"/>
   <path class="fil6" d="M2211 11149c0,0 -9,-15 -15,-26 -6,-12 -15,-31 -20,-52 -5,-20 -7,-37 -8,-53 -1,-15 0,-38 8,-69 7,-31 18,-54 21,-61 3,-7 20,-36 26,-44 5,-8 19,-26 23,-33 3,-7 11,-16 14,-25 3,-9 5,-16 7,-22 1,-5 1,-9 8,-16 7,-8 10,-9 16,-10 6,-1 19,0 27,3 8,3 22,11 31,15 9,5 22,13 29,21 7,8 35,34 52,54 16,20 44,54 58,73 15,19 40,48 48,62 8,14 28,41 35,54 7,14 25,51 32,63 7,13 42,74 46,81 4,8 31,50 36,58 4,8 47,76 59,91 12,15 34,44 42,51 8,7 22,26 33,34 11,9 25,20 31,23 0,0 19,3 31,13 12,10 31,32 45,43 13,11 51,35 63,44 13,9 33,28 39,40 6,12 13,18 13,31 0,13 -1,22 -1,22 0,0 -1,23 -41,36 -39,13 -114,27 -192,32 -78,5 -117,10 -177,5 -60,-4 -118,-24 -157,-49 -39,-26 -49,-48 -55,-60 -5,-12 -12,-26 -16,-43 -4,-16 -22,-69 -27,-88 -5,-19 -37,-100 -45,-115 -7,-15 -54,-103 -60,-114 -7,-11 -33,-43 -38,-47 -4,-4 -19,-21 -19,-21l-4 -3z"/>
   <path class="fil7" d="M3044 11612c0,0 -1,19 -26,32 -25,13 -108,29 -128,31 -19,3 -141,15 -199,14 0,0 -50,4 -104,-7 0,0 -56,-12 -86,-28 0,0 -53,-28 -71,-58 -18,-30 -22,-43 -30,-76 0,0 -23,-76 -34,-106 -12,-29 -41,-96 -54,-124 -13,-29 -33,-62 -49,-83 -16,-21 -30,-39 -33,-41 -4,-2 -14,-15 -14,-15l-3 -2 -1 -1c0,0 14,42 20,71 6,30 14,68 16,90 2,22 13,72 15,83 2,11 6,41 8,59 2,18 7,50 7,54 0,4 2,11 2,11 0,0 25,22 33,27 9,5 26,14 26,14 0,0 5,-3 12,-3 7,0 21,-1 21,-1 0,0 30,28 46,47 16,19 37,37 47,47 10,10 29,19 43,26 14,7 57,15 81,21 24,6 85,17 151,11 0,0 61,-4 104,-8 43,-4 95,-15 119,-21 24,-6 59,-15 72,-27 13,-12 13,-15 14,-22 0,-7 -4,-16 -4,-16z"/>
   <path class="fil8" d="M2406 10963c15,13 72,-6 91,30 23,42 75,146 91,183 9,21 53,95 76,126 22,31 147,117 172,135 36,25 -148,97 -241,78 -63,-14 -104,-41 -131,-81 0,0 -29,-31 -39,-77 -19,-92 -192,-283 -209,-362 -4,-19 145,-68 189,-30z"/>
   <path class="fil4" d="M2328 5865c0,0 -139,2161 -122,2640l12 2488 280 3c25,-983 354,-1775 242,-2475 209,-676 -130,-1283 -90,-2091 0,0 98,-557 -322,-565z"/>
   <path class="fil9" d="M1145 5183c0,0 -162,809 -222,3322 0,0 1076,442 2093,0 0,0 -53,-3036 -155,-3296l-1505 -36 -211 10z"/>
   <g>
    <g>
     <g>
      <path class="fil4" d="M1404 1154c0,0 -79,-77 -142,-27 -74,59 3,273 135,250l6 -224z"/>
     </g>
    </g>
   </g>
   <path class="fil10" d="M1435 1380c0,31 -25,56 -56,56 -31,0 -56,-25 -56,-56 0,-31 25,-56 56,-56 31,0 56,25 56,56z"/>
   <path class="fil11" d="M1805 939c2,19 -12,37 -32,37 -65,2 -202,14 -268,84 0,0 22,-121 263,-151 18,-2 35,11 37,29z"/>
   <path class="fil11" d="M2057 940c-2,20 14,36 33,36 65,0 202,8 271,76 0,0 -25,-120 -267,-143 -18,-2 -35,12 -36,30z"/>
   <g>
    <g>
     <g>
      <path class="fil4" d="M2477 1154c0,0 79,-77 142,-27 74,59 -3,273 -135,250l-6 -224z"/>
     </g>
    </g>
   </g>
   <path class="fil10" d="M2570 1380c0,31 -25,56 -56,56 -31,0 -56,-25 -56,-56 0,-31 25,-56 56,-56 31,0 56,25 56,56z"/>
   <polygon class="fil8" points="1770,2205 2003,3226 2190,2182 1933,2205 "/>
   <path class="fil0" d="M1136 1124c25,-151 71,-342 152,-569 0,0 292,-666 666,-479 0,0 505,-247 769,427 0,0 94,254 123,622l-313 0c-10,-102 -52,-199 -152,-268 0,0 -320,-166 -345,-365 0,0 -17,241 244,359 0,0 -208,-51 -281,-194 0,0 22,93 183,191 0,0 -354,-65 -396,-475 0,0 -112,163 -168,323 0,0 -62,143 -197,227 -10,65 -9,132 -1,201l-284 0z"/>
   <g>
    <path class="fil12" d="M1827 1651c0,0 7,96 138,96 131,0 138,-96 138,-96l-277 0z"/>
    <path class="fil12" d="M2103 1651c0,0 -126,-70 -277,0 0,0 152,65 277,0z"/>
    <path class="fil13" d="M1790 1648c1,0 70,41 172,41 51,0 110,-10 173,-40 5,-2 7,-8 5,-13 -2,-5 -8,-7 -13,-5 -60,29 -116,38 -164,38 -48,0 -89,-10 -118,-19 -14,-5 -26,-10 -33,-13 -4,-2 -7,-3 -9,-4l-3 -1c-5,-3 -11,-1 -14,4 -3,5 -1,11 4,14z"/>
   </g>
   <path class="fil13" d="M1927 1354l0 70c0,4 3,6 6,7l51 1c4,0 7,-3 7,-6 0,-4 -3,-7 -6,-7l-45 0 0 -63c0,-4 -3,-7 -7,-7 -4,0 -7,3 -7,7z"/>
   <g>
    <path class="fil14" d="M1779 1172c0,0 -34,-87 -118,-91 -83,-4 -133,62 -133,62 0,0 21,74 122,79 101,5 129,-50 129,-50z"/>
    <path class="fil15" d="M1570 1149c-1,23 8,45 22,61 16,7 35,12 58,13 21,1 38,-1 53,-4 19,-14 31,-37 33,-62 1,-22 -7,-43 -21,-59 -15,-9 -33,-15 -54,-16 -26,-1 -48,4 -67,12 -14,14 -23,33 -24,55z"/>
    <path class="fil15" d="M1784 1171c0,0 -8,-23 -27,-47 -19,-23 -50,-47 -95,-48l-2 0c-88,0 -135,64 -136,64l1 7 7 -1 2 -2c10,-11 53,-58 125,-58l2 0c41,0 69,22 87,44 9,11 15,22 20,30 2,4 4,7 5,10l1 4c1,3 4,4 6,3 3,-1 4,-4 3,-6z"/>
   </g>
   <g>
    <path class="fil14" d="M2084 1172c0,0 34,-87 118,-91 83,-4 133,62 133,62 0,0 -21,74 -122,79 -101,5 -129,-50 -129,-50z"/>
    <path class="fil15" d="M2293 1149c1,23 -8,45 -22,61 -16,7 -35,12 -58,13 -21,1 -38,-1 -53,-4 -19,-14 -31,-37 -33,-62 -1,-22 7,-43 21,-59 15,-9 33,-15 54,-16 26,-1 48,4 67,12 14,14 23,33 24,55z"/>
    <path class="fil15" d="M2079 1171c0,0 8,-23 27,-47 19,-23 50,-47 95,-48l2 0c88,0 135,64 136,64l-1 7 -7 -1 -2 -2c-10,-11 -53,-58 -125,-58l-2 0c-41,0 -69,22 -87,44 -9,11 -15,22 -20,30 -2,4 -4,7 -5,10l-1 4c-1,3 -4,4 -6,3 -3,-1 -4,-4 -3,-6z"/>
   </g>
  </g>
 </g>
</svg>
