<?xml version="1.0" encoding="UTF-8"?>
<!DOCTYPE svg PUBLIC "-//W3C//DTD SVG 1.1//EN" "http://www.w3.org/Graphics/SVG/1.1/DTD/svg11.dtd">
<!-- Creator: CorelDRAW X6 -->
<svg xmlns="http://www.w3.org/2000/svg" xml:space="preserve" width="40.907mm" height="128.953mm" version="1.1" style="shape-rendering:geometricPrecision; text-rendering:geometricPrecision; image-rendering:optimizeQuality; fill-rule:evenodd; clip-rule:evenodd"
viewBox="0 0 1180 3720"
 xmlns:xlink="http://www.w3.org/1999/xlink">
 <defs>
  <style type="text/css">
   <![CDATA[
    .str0 {stroke:#31314B;stroke-width:2.19822}
    .fil6 {fill:#84919A}
    .fil2 {fill:#F6AC80}
    .fil8 {fill:black}
    .fil16 {fill:#291FAC}
    .fil15 {fill:#31314B}
    .fil9 {fill:#995342}
    .fil5 {fill:#C11C56}
    .fil12 {fill:#DE5A62}
    .fil1 {fill:#E62F67}
    .fil11 {fill:#ECB82D}
    .fil3 {fill:#F0E3E7}
    .fil7 {fill:#FFAF82}
    .fil13 {fill:white}
    .fil14 {fill:#2B2A29;fill-rule:nonzero}
    .fil4 {fill:#C11C56;fill-rule:nonzero}
    .fil10 {fill:#F78967;fill-rule:nonzero}
    .fil0 {fill:#FFAF82;fill-rule:nonzero}
   ]]>
  </style>
 </defs>
 <g id="Layer_x0020_1">
  <metadata id="CorelCorpID_0Corel-Layer"/>
  <g id="_1158267984">
   <g>
    <g>
     <g>
      <path class="fil0" d="M1037 1882c0,0 -12,39 -25,67 -13,28 -4,50 -12,75 -8,25 23,24 29,-3 6,-27 3,-39 9,-40 6,-1 21,64 24,83 2,19 -2,65 5,73 7,7 24,-19 18,-68 -5,-49 -1,-48 -1,-48 0,0 5,19 9,39 5,20 5,45 4,59 -1,14 13,21 17,13 4,-7 11,-56 5,-75 -6,-19 -12,-51 -12,-51 0,0 19,43 22,55 3,11 -2,54 8,62 4,3 17,-1 15,-62 0,0 -4,-30 -11,-48 0,0 10,14 15,32 4,16 7,33 8,50 1,17 16,14 16,-15 0,-29 -5,-61 -13,-77 -8,-15 -20,-106 -44,-139l-85 18z"/>
     </g>
    </g>
    <g>
     <path class="fil0" d="M763 911c0,0 72,333 130,444 0,0 30,147 142,532 0,0 58,23 92,-21 0,0 -62,-426 -95,-561 0,0 -105,-477 -208,-556 0,0 -53,60 -61,162z"/>
    </g>
   </g>
   <g>
    <g>
     <g>
      <path class="fil0" d="M143 1882c0,0 12,39 25,67 13,28 4,50 12,75 8,25 -23,24 -29,-3 -6,-27 -3,-39 -9,-40 -6,-1 -21,64 -24,83 -2,19 2,65 -5,73 -7,7 -24,-19 -18,-68 5,-49 1,-48 1,-48 0,0 -5,19 -9,39 -5,20 -5,45 -4,59 1,14 -13,21 -17,13 -4,-7 -11,-56 -5,-75 6,-19 12,-51 12,-51 0,0 -19,43 -22,55 -3,11 2,54 -8,62 -4,3 -17,-1 -15,-62 0,0 4,-30 11,-48 0,0 -10,14 -15,32 -4,16 -7,33 -8,50 -1,17 -16,14 -16,-15 0,-29 5,-61 13,-77 8,-15 20,-106 44,-139l85 18z"/>
     </g>
    </g>
    <g>
     <path class="fil0" d="M417 911c0,0 -72,333 -130,444 0,0 -30,147 -142,532 0,0 -58,23 -92,-21 0,0 62,-426 95,-561 0,0 105,-477 208,-556 0,0 53,60 61,162z"/>
    </g>
   </g>
   <g>
    <path class="fil1" d="M764 1168l243 -50 -56 -272c-14,-67 -80,-111 -147,-97 -67,14 -111,80 -97,147l56 272z"/>
    <path class="fil1" d="M425 1169l-243 -50 56 -272c14,-67 79,-111 147,-97 67,14 111,80 97,147l-56 272z"/>
    <path class="fil1" d="M581 649l-275 111c-19,8 -29,28 -23,48l147 492 324 0 139 -498c6,-20 -5,-41 -25,-48l-288 -105z"/>
    <path class="fil2" d="M391 725l190 -77 204 74c0,0 -12,92 -197,92 -185,0 -196,-90 -196,-90z"/>
    <path class="fil3" d="M393 1161l-64 -214c-1,-2 -3,-3 -4,-2 -2,1 -3,3 -2,4l64 214c1,2 3,3 4,2 2,-1 3,-3 2,-4z"/>
    <path class="fil3" d="M800 1163l64 -214c1,-2 -1,-4 -2,-4 -2,-1 -4,1 -4,2l-64 214c-1,2 0,4 2,4 2,1 4,-1 4,-2z"/>
   </g>
   <path class="fil4" d="M769 1158c0,0 -148,104 -360,6 0,0 198,53 360,-6z"/>
   <path class="fil5" d="M456 3541c0,0 3,-5 5,-8 2,-4 5,-10 6,-17 2,-7 2,-12 2,-17 0,-5 0,-12 -2,-22 -2,-10 -6,-17 -7,-20 -1,-2 -7,-12 -8,-14 -2,-2 -6,-8 -7,-11 -1,-2 -4,-5 -4,-8 -1,-3 -2,-5 -2,-7 0,-2 0,-3 -3,-5 -2,-2 -3,-3 -5,-3 -2,0 -6,0 -9,1 -2,1 -7,3 -10,5 -3,2 -7,4 -9,7 -2,3 -11,11 -17,17 -5,6 -14,17 -19,23 -5,6 -13,15 -15,20 -3,4 -9,13 -11,17 -2,4 -8,16 -10,20 -2,4 -13,24 -15,26 -1,2 -10,16 -11,19 -1,3 -15,24 -19,29 -4,5 -11,14 -13,16 -2,2 -7,8 -11,11 -4,3 -8,6 -10,7 0,0 -6,1 -10,4 -4,3 -10,10 -14,14 -4,3 -16,11 -20,14 -4,3 -11,9 -13,13 -2,4 -4,6 -4,10 0,4 0,7 0,7 0,0 0,7 13,11 13,4 36,9 61,10 25,2 37,3 57,2 19,-1 38,-8 50,-16 13,-8 16,-15 17,-19 2,-4 4,-8 5,-14 1,-5 7,-22 9,-28 2,-6 12,-32 14,-37 2,-5 17,-33 19,-36 2,-4 11,-14 12,-15 1,-1 6,-7 6,-7l1 -1z"/>
   <path class="fil6" d="M189 3689c0,0 0,6 8,10 8,4 35,9 41,10 6,1 45,5 64,4 0,0 16,1 33,-2 0,0 18,-4 27,-9 0,0 17,-9 23,-19 6,-10 7,-14 10,-24 0,0 7,-24 11,-34 4,-9 13,-31 17,-40 4,-9 11,-20 16,-27 5,-7 9,-12 11,-13 1,-1 4,-5 4,-5l1 -1 0 0c0,0 -4,13 -6,23 -2,9 -4,22 -5,29 -1,7 -4,23 -5,27 -1,4 -2,13 -2,19 -1,6 -2,16 -2,17 0,1 -1,4 -1,4 0,0 -8,7 -11,9 -3,2 -8,4 -8,4 0,0 -2,-1 -4,-1 -2,0 -7,0 -7,0 0,0 -10,9 -15,15 -5,6 -12,12 -15,15 -3,3 -9,6 -14,8 -4,2 -18,5 -26,7 -8,2 -27,6 -48,4 0,0 -20,-1 -33,-2 -14,-1 -30,-5 -38,-7 -8,-2 -19,-5 -23,-9 -4,-4 -4,-5 -4,-7 0,-2 1,-5 1,-5z"/>
   <path class="fil0" d="M419 1850c0,0 44,692 39,845l-4 796 -90 1c-8,-315 -113,-568 -77,-792 71,-263 78,-423 29,-669 0,0 -31,-178 103,-181z"/>
   <path class="fil7" d="M394 3482c-5,4 -23,-2 -29,9 -7,14 -24,47 -29,58 -3,7 -17,30 -24,40 -7,10 -47,37 -55,43 -12,8 47,31 77,25 20,-4 33,-13 42,-26 0,0 9,-10 12,-25 6,-29 61,-91 67,-116 1,-6 -47,-22 -61,-10z"/>
   <path class="fil5" d="M721 3541c0,0 -3,-5 -5,-8 -2,-4 -5,-10 -6,-17 -2,-7 -2,-12 -2,-17 0,-5 0,-12 2,-22 2,-10 6,-17 7,-20 1,-2 7,-12 8,-14 2,-2 6,-8 7,-11 1,-2 4,-5 4,-8 1,-3 2,-5 2,-7 0,-2 0,-3 3,-5 2,-2 3,-3 5,-3 2,0 6,0 9,1 2,1 7,3 10,5 3,2 7,4 9,7 2,3 11,11 17,17 5,6 14,17 19,23 5,6 13,15 15,20 3,4 9,13 11,17 2,4 8,16 10,20 2,4 13,24 15,26 1,2 10,16 11,19 1,3 15,24 19,29 4,5 11,14 13,16 2,2 7,8 11,11 4,3 8,6 10,7 0,0 6,1 10,4 4,3 10,10 14,14 4,3 16,11 20,14 4,3 11,9 13,13 2,4 4,6 4,10 0,4 0,7 0,7 0,0 0,7 -13,11 -13,4 -36,9 -61,10 -25,2 -37,3 -57,2 -19,-1 -38,-8 -50,-16 -13,-8 -16,-15 -17,-19 -2,-4 -4,-8 -5,-14 -1,-5 -7,-22 -9,-28 -2,-6 -12,-32 -14,-37 -2,-5 -17,-33 -19,-36 -2,-4 -11,-14 -12,-15 -1,-1 -6,-7 -6,-7l-1 -1z"/>
   <path class="fil6" d="M988 3689c0,0 0,6 -8,10 -8,4 -35,9 -41,10 -6,1 -45,5 -64,4 0,0 -16,1 -33,-2 0,0 -18,-4 -27,-9 0,0 -17,-9 -23,-19 -6,-10 -7,-14 -10,-24 0,0 -7,-24 -11,-34 -4,-9 -13,-31 -17,-40 -4,-9 -11,-20 -16,-27 -5,-7 -9,-12 -11,-13 -1,-1 -4,-5 -4,-5l-1 -1 0 0c0,0 4,13 6,23 2,9 4,22 5,29 1,7 4,23 5,27 1,4 2,13 2,19 1,6 2,16 2,17 0,1 1,4 1,4 0,0 8,7 11,9 3,2 8,4 8,4 0,0 2,-1 4,-1 2,0 7,0 7,0 0,0 10,9 15,15 5,6 12,12 15,15 3,3 9,6 14,8 4,2 18,5 26,7 8,2 27,6 48,4 0,0 20,-1 33,-2 14,-1 30,-5 38,-7 8,-2 19,-5 23,-9 4,-4 4,-5 4,-7 0,-2 -1,-5 -1,-5z"/>
   <path class="fil7" d="M784 3482c5,4 23,-2 29,9 7,14 24,47 29,58 3,7 17,30 24,40 7,10 47,37 55,43 12,8 -47,31 -77,25 -20,-4 -33,-13 -42,-26 0,0 -9,-10 -12,-25 -6,-29 -61,-91 -67,-116 -1,-6 47,-22 61,-10z"/>
   <path class="fil0" d="M759 1850c0,0 -44,692 -39,845l4 796 90 1c8,-315 113,-568 77,-792 67,-216 -42,-411 -29,-669 0,0 31,-178 -103,-181z"/>
   <path class="fil8" d="M656 80c0,0 80,-35 148,28 68,64 20,106 80,138 60,31 16,119 86,158 70,40 24,137 -48,151 0,0 -34,91 -110,82 0,0 -70,78 -206,28l-50 -21 100 -565z"/>
   <path class="fil8" d="M391 107c0,0 -90,12 -108,92 -18,80 -11,61 -61,102 -50,41 13,87 -26,128 -20,21 -30,38 -32,58 -3,35 21,66 54,75 23,7 42,28 55,58 27,58 124,33 124,33 0,0 91,53 147,14 56,-39 -28,-583 -28,-583l-125 23z"/>
   <polygon class="fil9" points="515,582 643,680 629,548 "/>
   <g>
    <g>
     <path class="fil0" d="M655 568l-3 49 -3 62c0,0 -12,23 -68,23 -55,0 -67,-16 -67,-16l-2 -27 -7 -91 150 0z"/>
    </g>
    <g>
     <path class="fil10" d="M655 568l-3 49c-23,17 -78,51 -140,42l-7 -91 150 0z"/>
    </g>
   </g>
   <path class="fil8" d="M674 84c0,0 -34,-84 -159,-84 -124,0 -163,129 -163,129l181 104 140 -150z"/>
   <path class="fil2" d="M417 384c12,28 11,72 -15,82 -26,10 -57,-26 -70,-53 -12,-28 -5,-51 21,-61 26,-10 51,5 63,33z"/>
   <path class="fil9" d="M354 387l0 0c1,0 3,-1 5,-1 5,0 11,1 18,6 7,5 13,13 17,28 0,1 2,2 3,2 1,0 2,-2 2,-3 -4,-16 -12,-26 -19,-31 -8,-5 -15,-7 -21,-7 -4,0 -7,1 -7,1 -1,0 -2,2 -2,3 0,1 2,2 3,2z"/>
   <path class="fil11" d="M446 525c-9,18 -28,31 -49,31 -15,0 -29,-6 -39,-16 -10,-10 -16,-24 -16,-39 0,-15 6,-29 16,-39 10,-10 24,-16 39,-16l0 -8c-35,0 -63,28 -63,63 0,35 28,63 63,63 25,0 46,-14 56,-35l-7 -3z"/>
   <path class="fil2" d="M749 384c-12,28 -11,72 15,82 26,10 57,-26 70,-53 12,-28 5,-51 -21,-61 -26,-10 -51,5 -63,33z"/>
   <path class="fil9" d="M814 382c0,0 -3,-1 -7,-1 -5,0 -13,1 -21,7 -8,5 -15,15 -19,31 0,1 0,3 2,3 1,0 3,0 3,-2 4,-15 11,-23 17,-28 7,-5 13,-6 18,-6 2,0 3,0 4,0l1 0 0 0c1,0 3,0 3,-2 0,-1 0,-3 -2,-3z"/>
   <path class="fil11" d="M715 529c10,21 32,35 56,35 35,0 63,-28 63,-63 0,-35 -28,-63 -63,-63l0 8c15,0 29,6 39,16 10,10 16,24 16,39 0,15 -6,29 -16,39 -10,10 -24,16 -39,16 -22,0 -40,-12 -49,-31l-7 3z"/>
   <path class="fil8" d="M803 278c0,117 -99,211 -220,211 -122,0 -220,-95 -220,-211 0,-117 99,-211 220,-211 122,0 220,95 220,211z"/>
   <path class="fil2" d="M583 91l0 0c-102,0 -192,79 -192,176l6 117c0,0 2,165 159,216 17,6 36,6 54,0 157,-50 159,-216 159,-216l6 -117c0,-97 -90,-176 -192,-176z"/>
   <path class="fil12" d="M544 477c0,0 2,24 35,24 33,0 35,-24 35,-24l-70 0z"/>
   <path class="fil9" d="M569 409l0 27c0,1 1,3 2,3l20 0c1,0 3,-1 3,-3 0,-1 -1,-3 -3,-3l-17 0 0 -25c0,-1 -1,-3 -3,-3 -1,0 -3,1 -3,3z"/>
   <path class="fil13" d="M540 370c0,0 -13,-34 -46,-35 -32,-2 -52,24 -52,24 0,0 8,29 47,30 39,2 50,-19 50,-19z"/>
   <path class="fil8" d="M459 361c0,9 3,17 9,24 6,3 13,4 22,5 8,0 15,0 21,-1 7,-6 12,-14 13,-24 0,-9 -3,-17 -8,-23 -6,-3 -13,-6 -21,-6 -10,0 -19,2 -26,5 -5,5 -9,13 -9,21z"/>
   <path class="fil8" d="M542 369c0,0 -3,-9 -11,-18 -7,-9 -19,-18 -37,-18l-1 0c-34,0 -52,25 -52,25l0 3 3 0 1 -1c4,-4 21,-22 49,-22l1 0c16,0 27,9 34,17 3,4 6,8 8,12 1,2 1,3 2,4l1 1c0,1 1,2 3,1 1,0 2,-1 1,-3z"/>
   <path class="fil13" d="M624 370c0,0 13,-34 46,-35 32,-2 52,24 52,24 0,0 -8,29 -47,30 -39,2 -50,-19 -50,-19z"/>
   <path class="fil8" d="M705 361c0,9 -3,17 -9,24 -6,3 -13,4 -23,5 -8,0 -15,0 -21,-1 -7,-6 -12,-14 -13,-24 0,-9 3,-17 8,-23 6,-3 13,-6 21,-6 10,0 19,2 26,5 5,5 9,13 9,21z"/>
   <path class="fil8" d="M625 370l1 -1c1,-3 5,-11 12,-19 7,-7 17,-14 31,-14l1 0c16,0 28,6 37,12 4,3 7,6 9,8 1,1 2,2 2,3l1 1 3 0 0 -3c0,0 -19,-25 -53,-25l-1 0c-17,0 -29,9 -37,18 -7,9 -11,18 -11,18 0,1 0,2 1,3 1,0 2,0 3,-1z"/>
   <path class="fil12" d="M614 477c0,0 -32,-18 -70,0 0,0 38,16 70,0z"/>
   <path class="fil9" d="M535 476c0,0 18,10 44,10 13,0 28,-3 44,-10 1,-1 2,-2 1,-3 -1,-1 -2,-2 -3,-1 -15,7 -29,10 -42,10 -12,0 -23,-2 -30,-5 -4,-1 -6,-2 -8,-3 -1,0 -2,-1 -2,-1l-1 0c-1,-1 -3,0 -3,1 -1,1 0,3 1,3z"/>
   <path class="fil8" d="M674 84c0,0 -8,92 -104,107 -98,15 -77,77 -196,62 0,0 -43,-67 21,-137 42,-46 125,-84 184,-78 20,2 67,40 96,46z"/>
   <path class="fil8" d="M663 96c0,0 -43,61 140,182 0,0 30,-42 10,-81 -20,-39 -150,-101 -150,-101z"/>
   <path class="fil14" d="M520 292c1,6 -4,12 -10,12 -21,1 -65,5 -86,27 0,0 7,-39 84,-48 6,-1 11,3 12,9z"/>
   <path class="fil14" d="M635 292c-1,6 4,12 11,12 21,0 65,3 87,24 0,0 -8,-39 -86,-46 -6,-1 -11,4 -12,10z"/>
   <g>
    <polygon class="fil8" points="758,1351 433,1351 433,1301 758,1301 "/>
    <path class="fil15" d="M459 1497c-79,-12 -144,39 -162,117 -18,79 -32,174 -35,288 -8,282 6,527 20,654 7,64 61,113 126,113 66,0 121,-50 126,-116l56 -892c7,-80 -50,-151 -129,-163 -1,0 -2,0 -3,0z"/>
    <path class="fil15 str0" d="M533 2544l-38 875 -210 0 -4 -878c1,-69 57,-124 126,-124 70,0 127,57 126,128z"/>
    <path class="fil15" d="M731 1497c79,-12 144,39 162,117 18,79 32,174 35,288 8,282 -6,527 -20,654 -7,64 -61,113 -126,113 -66,0 -121,-50 -126,-116l-56 -892c-7,-80 50,-151 129,-163 1,0 2,0 3,0z"/>
    <path class="fil15" d="M657 2544l38 875 210 0 4 -878c-1,-69 -57,-124 -126,-124 -70,0 -127,57 -126,128z"/>
    <path class="fil15" d="M758 1351l-325 0c0,0 -84,58 -130,244l246 141c29,17 64,17 93,0l246 -141c-50,-180 -130,-244 -130,-244z"/>
    <path class="fil16" d="M445 1412c0,0 0,0 0,1 0,6 -4,33 -17,62 -14,29 -38,59 -82,72 -2,1 -3,3 -2,4 1,2 3,3 4,2 49,-14 75,-50 89,-81 14,-32 15,-59 15,-60 0,-2 -1,-4 -3,-4 -2,0 -4,1 -4,3z"/>
    <path class="fil16" d="M736 1413c0,0 2,28 15,60 14,32 40,67 89,81 2,1 4,-1 4,-2 1,-2 -1,-4 -2,-4 -46,-13 -71,-47 -84,-77 -7,-15 -10,-30 -12,-40 -1,-5 -2,-10 -2,-13 0,-1 0,-3 0,-3 0,-1 0,-1 0,-1 0,-2 -2,-3 -4,-3 -2,0 -3,2 -3,4z"/>
   </g>
  </g>
 </g>
</svg>
