<?xml version="1.0" encoding="UTF-8"?>
<!DOCTYPE svg PUBLIC "-//W3C//DTD SVG 1.1//EN" "http://www.w3.org/Graphics/SVG/1.1/DTD/svg11.dtd">
<!-- Creator: CorelDRAW X6 -->
<svg xmlns="http://www.w3.org/2000/svg" xml:space="preserve" width="50mm" height="50mm" version="1.1" style="shape-rendering:geometricPrecision; text-rendering:geometricPrecision; image-rendering:optimizeQuality; fill-rule:evenodd; clip-rule:evenodd"
viewBox="0 0 1497 1497"
 xmlns:xlink="http://www.w3.org/1999/xlink">
 <defs>
  <style type="text/css">
   <![CDATA[
    .str1 {stroke:#A2D9F7;stroke-width:5.98802}
    .str0 {stroke:#B0CB1F;stroke-width:5.98802}
    .fil29 {fill:none}
    .fil20 {fill:#84919A}
    .fil1 {fill:#A2D9F7}
    .fil0 {fill:#B0CB1F}
    .fil28 {fill:black}
    .fil14 {fill:#1F0F0A}
    .fil22 {fill:#31314B}
    .fil5 {fill:#524798}
    .fil4 {fill:#5E54AC}
    .fil11 {fill:#80B4FB}
    .fil10 {fill:#8B5E5E}
    .fil26 {fill:#995342}
    .fil8 {fill:#9DC6FB}
    .fil9 {fill:#AA8080}
    .fil19 {fill:#C11C56}
    .fil7 {fill:#D8E2F1}
    .fil25 {fill:#DE5A62}
    .fil3 {fill:#E7A52E}
    .fil6 {fill:#E7ECF6}
    .fil2 {fill:#EAB14D}
    .fil21 {fill:#FFAF82}
    .fil12 {fill:#FFD064}
    .fil27 {fill:white}
    .fil24 {fill:#2B2A29;fill-rule:nonzero}
    .fil13 {fill:#1F0F0A;fill-rule:nonzero}
    .fil16 {fill:#C11C56;fill-rule:nonzero}
    .fil15 {fill:#E62F67;fill-rule:nonzero}
    .fil18 {fill:#F78967;fill-rule:nonzero}
    .fil17 {fill:#FFAF82;fill-rule:nonzero}
    .fil23 {fill:white;fill-rule:nonzero}
   ]]>
  </style>
   <clipPath id="id0">
    <path d="M749 0c413,0 749,335 749,749 0,413 -335,749 -749,749 -413,0 -749,-335 -749,-749 0,-413 335,-749 749,-749z"/>
   </clipPath>
 </defs>
 <g id="Layer_x0020_1">
  <metadata id="CorelCorpID_0Corel-Layer"/>
  <path class="fil0" d="M749 0c413,0 749,335 749,749 0,413 -335,749 -749,749 -413,0 -749,-335 -749,-749 0,-413 335,-749 749,-749z"/>
  <g style="clip-path:url(#id0)">
   <g id="_971465296">
    <rect class="fil0 str0" x="-233" y="1024" width="2006" height="516"/>
    <rect class="fil1 str1" x="-233" y="-139" width="2006" height="1163"/>
    <g>
     <path class="fil2" d="M760 534l162 162c6,6 14,9 22,9l230 0 0 430 -838 0 0 -430 230 0c8,0 16,-3 22,-9l162 -162c3,-3 8,-3 10,0z"/>
     <path class="fil3" d="M944 705c-8,0 -16,-3 -22,-9l-162 -162c-3,-3 -8,-3 -10,0l-162 162c-6,6 -14,9 -22,9l-230 0 0 41 230 0c19,0 37,-8 51,-21l125 -125c7,-7 19,-7 26,0l125 125c14,14 32,21 51,21l170 0c10,0 19,8 19,19l0 371 41 0 0 -430 -230 0z"/>
     <path class="fil4" d="M733 462c12,-12 32,-12 45,0l180 180 217 0 -87 -235c-5,-15 -19,-24 -35,-24l-593 0c-15,0 -29,10 -35,24l-87 235 217 0 180 -180z"/>
     <path class="fil5" d="M1087 407c-5,-15 -19,-24 -35,-24l-56 0c15,0 29,10 35,24l87 235 56 0 -87 -235z"/>
     <path class="fil6" d="M1211 686c0,10 -8,19 -19,19l-248 0c-8,0 -16,-3 -22,-9l-162 -162c-3,-3 -8,-3 -10,0l-162 162c-6,6 -14,9 -22,9l-248 0c-10,0 -19,-8 -19,-19l0 -26c0,-10 8,-19 19,-19l235 0 180 -180c12,-12 32,-12 45,0l180 180 235 0c10,0 19,8 19,19l0 26z"/>
     <path class="fil7" d="M1192 642l-63 0c10,0 19,8 19,19l0 26c0,10 -8,19 -19,19l63 0c10,0 19,-8 19,-19l0 -26c0,-10 -8,-19 -19,-19z"/>
     <path class="fil8" d="M928 860l0 167 185 0 0 -167c0,-10 -8,-18 -18,-18l-149 0c-10,0 -18,8 -18,18z"/>
     <path class="fil9" d="M928 1027l0 41c0,10 8,18 18,18l149 0c10,0 18,-8 18,-18l0 -41 -185 0z"/>
     <path class="fil8" d="M583 860l0 167 -185 0 0 -167c0,-10 8,-18 18,-18l149 0c10,0 18,8 18,18z"/>
     <path class="fil9" d="M583 1027l0 41c0,10 -8,18 -18,18l-149 0c-10,0 -18,-8 -18,-18l0 -41 185 0z"/>
     <path class="fil10" d="M859 860l0 274 -208 0 0 -114 9 -14 -9 -14 0 -133c0,-10 8,-18 18,-18l171 0c10,0 18,8 18,18z"/>
     <path class="fil8" d="M711 949l0 -37c0,-6 5,-11 11,-11l67 0c6,0 11,5 11,11l0 37c0,6 -5,11 -11,11l-67 0c-6,0 -11,-5 -11,-11z"/>
     <path class="fil8" d="M815 714c0,33 -27,59 -59,59 -33,0 -59,-27 -59,-59 0,-33 27,-59 59,-59 33,0 59,27 59,59z"/>
     <path class="fil4" d="M1193 1198l-875 0c-10,0 -18,-8 -18,-18l0 -26c0,-10 8,-18 18,-18l875 0c10,0 18,8 18,18l0 26c0,10 -8,18 -18,18z"/>
     <path class="fil5" d="M1148 1135l0 63 45 0c10,0 18,-8 18,-18l0 -26c0,-10 -8,-18 -18,-18l-45 0z"/>
     <polygon class="fil11" points="1113,921 1034,921 1034,842 1006,842 1006,921 928,921 928,948 1006,948 1006,1027 1034,1027 1034,948 1113,948 "/>
     <polygon class="fil11" points="583,921 504,921 504,842 476,842 476,921 398,921 398,948 476,948 476,1027 504,1027 504,948 583,948 "/>
     <path class="fil12" d="M651 993l33 0c8,0 14,6 14,14 0,8 -6,14 -14,14l-33 0 0 -28z"/>
    </g>
    <g>
     <path class="fil13" d="M955 1076c0,0 -58,-23 -62,-145 0,0 -5,-44 22,-119 0,0 36,-83 83,-60 0,0 63,-31 96,53 0,0 18,49 16,113 0,0 -7,98 -40,157 -2,4 -77,-27 -17,-128 0,0 40,-69 -2,-98 0,0 -40,-21 -43,-45 0,0 -2,30 30,45 0,0 -26,-6 -35,-24 0,0 3,12 23,24 0,0 -44,-8 -49,-59 0,0 -14,20 -21,40 0,0 -8,18 -24,28 -8,52 40,116 31,161 0,0 -21,34 -8,58z"/>
     <rect class="fil14" x="954" y="833" width="105" height="204"/>
     <path class="fil15" d="M1087 1238l26 157c0,0 -52,26 -112,26 -64,0 -106,-26 -106,-26l26 -157 -2 -34c-37,-24 -23,-96 -15,-92l-9 -63 81 -35 52 -1 85 32 -9 67c12,1 30,68 -13,84l-3 42z"/>
     <path class="fil16" d="M1076 1208c0,0 -57,41 -140,2 0,0 77,21 140,-2z"/>
     <g>
      <g>
       <g>
        <path class="fil17" d="M812 1489c0,0 5,15 10,26 5,11 2,19 5,29 3,10 -9,9 -11,-1 -2,-10 -1,-15 -3,-16 -2,0 -8,25 -9,32 -1,7 1,25 -2,28 -3,3 -9,-7 -7,-26 2,-19 1,-19 1,-19 0,0 -2,7 -4,15 -2,8 -2,18 -2,23 0,5 -5,8 -7,5 -2,-3 -4,-22 -2,-29 2,-7 5,-20 5,-20 0,0 -7,17 -8,21 -1,4 1,21 -3,24 -2,1 -7,0 -6,-24 0,0 2,-12 4,-19 0,0 -4,5 -6,13 -2,6 -3,13 -3,19 -1,6 -6,6 -6,-6 0,-11 2,-24 5,-30 3,-6 8,-41 17,-54l33 7z"/>
       </g>
      </g>
      <g>
       <path class="fil15" d="M919 1112c0,0 -28,129 -51,173 0,0 -12,57 -55,207 0,0 -23,9 -36,-8 0,0 24,-166 37,-218 0,0 41,-186 81,-217 0,0 21,24 24,63z"/>
      </g>
     </g>
     <g>
      <g>
       <g>
        <path class="fil17" d="M1196 1489c0,0 -5,15 -10,26 -5,11 -2,19 -5,29 -3,10 9,9 11,-1 2,-10 1,-15 3,-16 2,0 8,25 9,32 1,7 -1,25 2,28 3,3 9,-7 7,-26 -2,-19 -1,-19 -1,-19 0,0 2,7 4,15 2,8 2,18 2,23 0,5 5,8 7,5 2,-3 4,-22 2,-29 -2,-7 -5,-20 -5,-20 0,0 7,17 8,21 1,4 -1,21 3,24 2,1 7,0 6,-24 0,0 -2,-12 -4,-19 0,0 4,5 6,13 2,6 3,13 3,19 1,6 6,6 6,-6 0,-11 -2,-24 -5,-30 -3,-6 -8,-41 -17,-54l-33 7z"/>
       </g>
      </g>
      <g>
       <path class="fil15" d="M1089 1112c0,0 27,126 50,169 0,0 12,61 56,211 0,0 23,9 36,-8 0,0 -21,-165 -34,-218 0,0 -54,-187 -84,-221 0,0 -21,27 -24,67z"/>
      </g>
     </g>
     <g>
      <g>
       <path class="fil17" d="M1032 975l-1 19 -1 24c0,0 -5,9 -26,9 -22,0 -26,-6 -26,-6l-1 -11 -3 -35 58 0z"/>
      </g>
      <g>
       <path class="fil18" d="M1032 975l-1 19c-9,7 -30,20 -54,16l-3 -35 58 0z"/>
      </g>
     </g>
     <path class="fil17" d="M1078 875c0,2 0,5 -1,7 -5,49 -20,112 -75,112 -53,0 -74,-59 -81,-107 0,-4 -1,-7 -1,-10 -5,-46 31,-86 77,-87l4 0c34,0 63,23 73,53 1,4 2,7 3,11 1,7 2,14 1,21z"/>
     <path class="fil19" d="M987 2135c0,0 1,-2 2,-3 1,-1 2,-4 2,-6 1,-3 1,-5 1,-7 0,-2 0,-5 -1,-9 -1,-4 -2,-7 -3,-8 0,-1 -3,-5 -3,-5 -1,-1 -2,-3 -3,-4 0,-1 -1,-2 -2,-3 0,-1 -1,-2 -1,-3 0,-1 0,-1 -1,-2 -1,-1 -1,-1 -2,-1 -1,0 -2,0 -3,0 -1,0 -3,1 -4,2 -1,1 -3,2 -4,3 -1,1 -4,4 -6,7 -2,2 -5,7 -7,9 -2,2 -5,6 -6,8 -1,2 -3,5 -4,7 -1,2 -3,6 -4,8 -1,2 -5,9 -6,10 -1,1 -4,6 -4,7 -1,1 -6,9 -7,11 -2,2 -4,5 -5,6 -1,1 -3,3 -4,4 -1,1 -3,3 -4,3 0,0 -2,0 -4,2 -2,1 -4,4 -6,5 -2,1 -6,4 -8,5 -2,1 -4,3 -5,5 -1,2 -2,2 -2,4 0,2 0,3 0,3 0,0 0,3 5,4 5,2 14,3 24,4 10,1 15,1 22,1 7,-1 15,-3 20,-6 5,-3 6,-6 7,-7 1,-1 2,-3 2,-5 0,-2 3,-9 3,-11 1,-2 5,-12 6,-14 1,-2 7,-13 8,-14 1,-1 4,-5 5,-6 1,-1 2,-3 2,-3l1 0z"/>
     <path class="fil20" d="M883 2193c0,0 0,2 3,4 3,2 14,4 16,4 2,0 18,2 25,2 0,0 6,1 13,-1 0,0 7,-1 11,-3 0,0 7,-3 9,-7 2,-4 3,-5 4,-10 0,0 3,-10 4,-13 1,-4 5,-12 7,-15 2,-4 4,-8 6,-10 2,-3 4,-5 4,-5 0,0 2,-2 2,-2l0 0 0 0c0,0 -2,5 -2,9 -1,4 -2,9 -2,11 0,3 -2,9 -2,10 0,1 -1,5 -1,7 0,2 -1,6 -1,7 0,1 0,1 0,1 0,0 -3,3 -4,3 -1,1 -3,2 -3,2 0,0 -1,0 -2,0 -1,0 -3,0 -3,0 0,0 -4,3 -6,6 -2,2 -5,5 -6,6 -1,1 -4,2 -5,3 -2,1 -7,2 -10,3 -3,1 -11,2 -19,1 0,0 -8,0 -13,-1 -5,0 -12,-2 -15,-3 -3,-1 -7,-2 -9,-3 -2,-2 -2,-2 -2,-3 0,-1 1,-2 1,-2z"/>
     <path class="fil17" d="M972 1477c0,0 17,269 15,329l-1 310 -35 0c-3,-122 -44,-221 -30,-308 -26,-84 16,-160 11,-260 0,0 -12,-69 40,-70z"/>
     <path class="fil21" d="M962 2112c-2,2 -9,-1 -11,4 -3,5 -9,18 -11,23 -1,3 -7,12 -9,16 -3,4 -18,15 -21,17 -4,3 18,12 30,10 8,-2 13,-5 16,-10 0,0 4,-4 5,-10 2,-11 24,-35 26,-45 1,-2 -18,-9 -24,-4z"/>
     <path class="fil19" d="M1032 2135c0,0 -1,-2 -2,-3 -1,-1 -2,-4 -2,-6 -1,-3 -1,-5 -1,-7 0,-2 0,-5 1,-9 1,-4 2,-7 3,-8 0,-1 3,-5 3,-5 1,-1 2,-3 3,-4 0,-1 1,-2 2,-3 0,-1 1,-2 1,-3 0,-1 0,-1 1,-2 1,-1 1,-1 2,-1 1,0 2,0 3,0 1,0 3,1 4,2 1,1 3,2 4,3 1,1 4,4 6,7 2,2 5,7 7,9 2,2 5,6 6,8 1,2 3,5 4,7 1,2 3,6 4,8 1,2 5,9 6,10 1,1 4,6 4,7 1,1 6,9 7,11 2,2 4,5 5,6 1,1 3,3 4,4 1,1 3,3 4,3 0,0 2,0 4,2 2,1 4,4 6,5 2,1 6,4 8,5 2,1 4,3 5,5 1,2 2,2 2,4 0,2 0,3 0,3 0,0 0,3 -5,4 -5,2 -14,3 -24,4 -10,1 -15,1 -22,1 -7,-1 -15,-3 -20,-6 -5,-3 -6,-6 -7,-7 -1,-1 -2,-3 -2,-5 0,-2 -3,-9 -3,-11 -1,-2 -5,-12 -6,-14 -1,-2 -7,-13 -8,-14 -1,-1 -4,-5 -5,-6 -1,-1 -2,-3 -2,-3l-1 0z"/>
     <path class="fil20" d="M1136 2193c0,0 0,2 -3,4 -3,2 -14,4 -16,4 -2,0 -18,2 -25,2 0,0 -6,1 -13,-1 0,0 -7,-1 -11,-3 0,0 -7,-3 -9,-7 -2,-4 -3,-5 -4,-10 0,0 -3,-10 -4,-13 -1,-4 -5,-12 -7,-15 -2,-4 -4,-8 -6,-10 -2,-3 -4,-5 -4,-5 0,0 -2,-2 -2,-2l0 0 0 0c0,0 2,5 2,9 1,4 2,9 2,11 0,3 2,9 2,10 0,1 1,5 1,7 0,2 1,6 1,7 0,1 0,1 0,1 0,0 3,3 4,3 1,1 3,2 3,2 0,0 1,0 2,0 1,0 3,0 3,0 0,0 4,3 6,6 2,2 5,5 6,6 1,1 4,2 5,3 2,1 7,2 10,3 3,1 11,2 19,1 0,0 8,0 13,-1 5,0 12,-2 15,-3 3,-1 7,-2 9,-3 2,-2 2,-2 2,-3 0,-1 -1,-2 -1,-2z"/>
     <path class="fil21" d="M1056 2112c2,2 9,-1 11,4 3,5 9,18 11,23 1,3 7,12 9,16 3,4 18,15 21,17 4,3 -18,12 -30,10 -8,-2 -13,-5 -16,-10 0,0 -4,-4 -5,-10 -2,-11 -24,-35 -26,-45 -1,-2 18,-9 24,-4z"/>
     <path class="fil17" d="M1046 1477c0,0 -17,269 -15,329l1 310 35 0c3,-122 44,-221 30,-308 26,-84 -16,-160 -11,-260 0,0 12,-69 -40,-70z"/>
     <path class="fil22" d="M899 1392c0,0 -20,101 -28,414 0,0 134,55 261,0 0,0 -7,-378 -19,-411l-187 -5 -26 1z"/>
     <g>
      <g>
       <g>
        <path class="fil17" d="M931 890c0,0 -10,-10 -18,-3 -9,7 0,34 17,31l1 -28z"/>
       </g>
      </g>
     </g>
     <path class="fil23" d="M935 918c0,4 -3,7 -7,7 -4,0 -7,-3 -7,-7 0,-4 3,-7 7,-7 4,0 7,3 7,7z"/>
     <path class="fil24" d="M981 863c0,2 -2,5 -4,5 -8,0 -25,2 -33,10 0,0 3,-15 33,-19 2,0 4,1 5,4z"/>
     <path class="fil24" d="M1013 863c0,2 2,5 4,5 8,0 25,1 34,10 0,0 -3,-15 -33,-18 -2,0 -4,1 -5,4z"/>
     <g>
      <g>
       <g>
        <path class="fil17" d="M1065 890c0,0 10,-10 18,-3 9,7 0,34 -17,31l-1 -28z"/>
       </g>
      </g>
     </g>
     <path class="fil23" d="M1077 918c0,4 -3,7 -7,7 -4,0 -7,-3 -7,-7 0,-4 3,-7 7,-7 4,0 7,3 7,7z"/>
     <polygon class="fil21" points="977,1021 1006,1148 1029,1018 997,1021 "/>
     <path class="fil13" d="M898 886c3,-19 9,-43 19,-71 0,0 36,-83 83,-60 0,0 63,-31 96,53 0,0 12,32 15,77l-39 0c-1,-13 -7,-25 -19,-33 0,0 -40,-21 -43,-45 0,0 -2,30 30,45 0,0 -26,-6 -35,-24 0,0 3,12 23,24 0,0 -44,-8 -49,-59 0,0 -14,20 -21,40 0,0 -8,18 -24,28 -1,8 -1,16 0,25l-35 0z"/>
     <g>
      <path class="fil25" d="M984 952c0,0 1,12 17,12 16,0 17,-12 17,-12l-34 0z"/>
      <path class="fil25" d="M1018 952c0,0 -16,-9 -34,0 0,0 19,8 34,0z"/>
      <path class="fil26" d="M979 952c0,0 9,5 21,5 6,0 14,-1 22,-5 1,0 1,-1 1,-2 0,-1 -1,-1 -2,-1 -7,4 -14,5 -20,5 -6,0 -11,-1 -15,-2 -2,-1 -3,-1 -4,-2 0,0 -1,0 -1,-1l0 0c-1,0 -1,0 -2,0 0,1 0,1 0,2z"/>
     </g>
     <path class="fil26" d="M997 915l0 9c0,0 0,1 1,1l6 0c0,0 1,0 1,-1 0,0 0,-1 -1,-1l-6 0 0 -8c0,0 0,-1 -1,-1 0,0 -1,0 -1,1z"/>
     <g>
      <path class="fil27" d="M978 892c0,0 -4,-11 -15,-11 -10,-1 -17,8 -17,8 0,0 3,9 15,10 13,1 16,-6 16,-6z"/>
      <path class="fil28" d="M952 889c0,3 1,6 3,8 2,1 4,1 7,2 3,0 5,0 7,0 2,-2 4,-5 4,-8 0,-3 -1,-5 -3,-7 -2,-1 -4,-2 -7,-2 -3,0 -6,1 -8,2 -2,2 -3,4 -3,7z"/>
      <path class="fil28" d="M979 892c0,0 -1,-3 -3,-6 -2,-3 -6,-6 -12,-6l0 0c-11,0 -17,8 -17,8l0 1 1 0 0 0c1,-1 7,-7 16,-7l0 0c5,0 9,3 11,5 1,1 2,3 2,4 0,1 0,1 1,1l0 0c0,0 0,1 1,0 0,0 1,0 0,-1z"/>
     </g>
     <g>
      <path class="fil27" d="M1016 892c0,0 4,-11 15,-11 10,-1 17,8 17,8 0,0 -3,9 -15,10 -13,1 -16,-6 -16,-6z"/>
      <path class="fil28" d="M1042 889c0,3 -1,6 -3,8 -2,1 -4,1 -7,2 -3,0 -5,0 -7,0 -2,-2 -4,-5 -4,-8 0,-3 1,-5 3,-7 2,-1 4,-2 7,-2 3,0 6,1 8,2 2,2 3,4 3,7z"/>
      <path class="fil28" d="M1015 892c0,0 1,-3 3,-6 2,-3 6,-6 12,-6l0 0c11,0 17,8 17,8l0 1 -1 0 0 0c-1,-1 -7,-7 -16,-7l0 0c-5,0 -9,3 -11,5 -1,1 -2,3 -2,4 0,1 0,1 -1,1l0 0c0,0 0,1 -1,0 0,0 -1,0 0,-1z"/>
     </g>
    </g>
   </g>
  </g>
  <path class="fil29" d="M749 0c413,0 749,335 749,749 0,413 -335,749 -749,749 -413,0 -749,-335 -749,-749 0,-413 335,-749 749,-749z"/>
 </g>
</svg>
