<?xml version="1.0" encoding="UTF-8"?>
<!DOCTYPE svg PUBLIC "-//W3C//DTD SVG 1.1//EN" "http://www.w3.org/Graphics/SVG/1.1/DTD/svg11.dtd">
<!-- Creator: CorelDRAW X6 -->
<svg xmlns="http://www.w3.org/2000/svg" xml:space="preserve" width="58.5443mm" height="50mm" version="1.1" style="shape-rendering:geometricPrecision; text-rendering:geometricPrecision; image-rendering:optimizeQuality; fill-rule:evenodd; clip-rule:evenodd"
viewBox="0 0 1802 1539"
 xmlns:xlink="http://www.w3.org/1999/xlink">
 <defs>
  <style type="text/css">
   <![CDATA[
    .str1 {stroke:#00A0E3;stroke-width:6.15491}
    .str0 {stroke:#898989;stroke-width:6.15491}
    .fil3 {fill:none}
    .fil23 {fill:#84919A}
    .fil2 {fill:#00A0E3}
    .fil1 {fill:#898989}
    .fil0 {fill:#B0CB1F}
    .fil30 {fill:black}
    .fil17 {fill:#1F0F0A}
    .fil25 {fill:#31314B}
    .fil28 {fill:#995342}
    .fil22 {fill:#C11C56}
    .fil27 {fill:#DE5A62}
    .fil24 {fill:#FFAF82}
    .fil29 {fill:white}
    .fil26 {fill:#2B2A29;fill-rule:nonzero}
    .fil15 {fill:#FEFEFE;fill-rule:nonzero}
    .fil16 {fill:#1F0F0A;fill-rule:nonzero}
    .fil8 {fill:#3F3F3F;fill-rule:nonzero}
    .fil11 {fill:#464646;fill-rule:nonzero}
    .fil7 {fill:#545454;fill-rule:nonzero}
    .fil19 {fill:#C11C56;fill-rule:nonzero}
    .fil18 {fill:#E62F67;fill-rule:nonzero}
    .fil12 {fill:#EBEBEB;fill-rule:nonzero}
    .fil9 {fill:#EDEDED;fill-rule:nonzero}
    .fil6 {fill:#EF9300;fill-rule:nonzero}
    .fil21 {fill:#F78967;fill-rule:nonzero}
    .fil14 {fill:#FF8A00;fill-rule:nonzero}
    .fil20 {fill:#FFAF82;fill-rule:nonzero}
    .fil4 {fill:#FFBA00;fill-rule:nonzero}
    .fil13 {fill:#FFDD82;fill-rule:nonzero}
    .fil10 {fill:white;fill-rule:nonzero}
    .fil5 {fill:url(#id1);fill-rule:nonzero}
   ]]>
  </style>
    <clipPath id="id0">
     <path d="M901 0c425,0 769,344 769,769 0,425 -344,769 -769,769 -425,0 -769,-344 -769,-769 0,-425 344,-769 769,-769z"/>
    </clipPath>
  <linearGradient id="id1" gradientUnits="userSpaceOnUse" x1="900.592" y1="907.369" x2="900.592" y2="1120.57">
   <stop offset="0" style="stop-color:#FFD42A"/>
   <stop offset="1" style="stop-color:#FFBA00"/>
  </linearGradient>
 </defs>
 <g id="Layer_x0020_1">
  <metadata id="CorelCorpID_0Corel-Layer"/>
  <g id="_1666397472">
   <path class="fil0" d="M901 0c425,0 769,344 769,769 0,425 -344,769 -769,769 -425,0 -769,-344 -769,-769 0,-425 344,-769 769,-769z"/>
   <g style="clip-path:url(#id0)">
    <g>
     <rect class="fil1 str0" x="-108" y="1052" width="2062" height="531"/>
     <rect class="fil2 str1" x="-108" y="-143" width="2062" height="1195"/>
    </g>
   </g>
   <path class="fil3" d="M901 0c425,0 769,344 769,769 0,425 -344,769 -769,769 -425,0 -769,-344 -769,-769 0,-425 344,-769 769,-769z"/>
   <g>
    <path class="fil4" d="M1322 753c0,0 209,26 275,45 66,19 170,50 184,176 0,0 20,11 20,29 0,18 -2,79 -22,125l-1685 0 -86 -80c0,0 -8,-17 -8,-33 -1,-16 1,-57 4,-61 2,-4 18,-19 38,-32 0,0 -7,-42 5,-84 12,-42 27,-86 65,-87l1210 0z"/>
    <path class="fil5" d="M1757 898c12,21 21,46 25,77 0,0 20,11 20,29 0,18 -2,79 -22,125l-1685 0 -86 -80c0,0 -8,-17 -8,-33 -1,-16 1,-57 4,-61 2,-4 18,-19 38,-32 0,0 -2,-11 -2,-26l1717 0z"/>
    <g>
     <path class="fil6" d="M1755 895c1,2 2,3 3,5l-99 0c-9,0 -41,-10 -65,-21 -25,-12 -187,-66 -231,-78 -35,-9 -64,-30 -79,-48l6 0c15,16 42,35 74,43 44,11 207,66 232,78 25,12 56,21 63,21l96 0z"/>
     <path class="fil6" d="M629 1130c-10,-38 -36,-144 -35,-217 1,-83 9,-132 50,-159l9 0c-45,26 -53,74 -54,159 -1,73 26,181 35,217l-5 0z"/>
     <path class="fil6" d="M1258 833c-7,-46 -49,-69 -76,-80l12 0c27,13 62,37 68,79 6,41 23,179 -4,297l-5 0c27,-117 10,-256 4,-297z"/>
    </g>
    <path class="fil7" d="M25 1039c7,0 22,0 34,-21l0 0c35,-60 100,-101 175,-101 101,0 184,74 199,171l0 0c4,18 20,40 36,40 16,0 800,0 837,0 37,0 40,-40 40,-40l0 1c15,-97 98,-171 199,-171 111,0 202,90 202,202 0,2 0,5 0,7 8,0 17,0 20,0 5,0 18,-7 18,-7 0,0 0,24 0,33 0,8 -25,33 -49,33l-6 0 -355 0 -19 0 -931 0 -35 0 -259 0c0,0 -48,-11 -77,-32l0 0c0,0 -29,-19 -34,-30 -5,-11 -11,-30 -12,-38 -1,-8 -3,-45 -3,-45 0,0 13,0 21,0z"/>
    <g>
     <path class="fil8" d="M1390 1118c0,86 70,155 155,155 86,0 155,-70 155,-155 0,-86 -70,-155 -155,-155 -86,0 -155,70 -155,155z"/>
     <path class="fil9" d="M1439 1118c0,59 48,106 106,106 59,0 106,-48 106,-106 0,-59 -48,-106 -106,-106 -59,0 -106,48 -106,106z"/>
     <path class="fil8" d="M78 1118c0,86 70,155 155,155 86,0 155,-70 155,-155 0,-86 -70,-155 -155,-155 -86,0 -155,70 -155,155z"/>
     <path class="fil9" d="M128 1118c0,59 48,106 106,106 59,0 106,-48 106,-106 0,-59 -48,-106 -106,-106 -59,0 -106,48 -106,106z"/>
    </g>
    <path class="fil10" d="M1679 907c19,33 51,60 72,60 21,0 22,-27 4,-60 -19,-33 -51,-60 -72,-60 -21,0 -22,27 -4,60z"/>
    <path class="fil7" d="M1322 753c0,0 1,28 -28,28 -28,0 -1183,-28 -1183,-28 0,0 2,-10 13,-25 11,-15 106,-162 127,-167 21,-5 334,-15 414,-15 80,0 397,10 418,16 21,6 163,109 238,190z"/>
    <g>
     <path class="fil11" d="M599 765l28 -210 36 5 21 207c-29,-1 -57,-1 -85,-2z"/>
     <path class="fil11" d="M1178 778c-32,-46 -122,-174 -181,-216l67 6c0,0 125,124 197,212 -20,0 -48,-1 -83,-2z"/>
     <path class="fil11" d="M125 729c11,-15 106,-162 127,-167 6,-1 36,-3 77,-5l17 2 -120 198c-71,-2 -115,-3 -115,-3 0,0 2,-10 13,-25z"/>
    </g>
    <path class="fil12" d="M1112 579c0,0 -21,-29 -84,-32 -63,-3 -324,-19 -503,-17 -179,2 -230,9 -249,9 -19,0 -88,4 -88,8 0,4 42,19 53,22 12,3 344,-8 870,11z"/>
    <path class="fil6" d="M689 833c0,19 16,35 35,35 19,0 35,-16 35,-35 0,-19 -16,-35 -35,-35 -19,0 -35,16 -35,35z"/>
    <path class="fil13" d="M662 833c0,6 28,11 62,11 34,0 62,-5 62,-11 0,-6 -28,-11 -62,-11 -34,0 -62,5 -62,11z"/>
    <path class="fil14" d="M51 898c-2,16 8,29 24,29 16,0 31,-13 33,-29l12 -75c3,-16 -8,-29 -24,-29 -16,0 -31,13 -33,29l-12 75z"/>
   </g>
   <path class="fil15" d="M886 315c16,1 33,6 44,-5 22,-23 28,-34 32,-35 15,-4 27,-20 42,-17 10,2 19,10 29,10 28,0 31,-51 59,-53 16,-1 30,16 45,11 8,-2 13,-10 19,-17 14,-15 35,-23 55,-20 20,3 39,16 48,34 5,10 7,22 13,31 6,10 18,18 28,14 9,-3 14,-12 23,-14 11,-2 20,8 26,17 6,9 12,21 23,23 8,2 16,-1 23,-3 34,-7 67,14 96,34 -10,-1 -21,-2 -31,-2l-600 0c19,-11 -4,-12 26,-10z"/>
   <g>
    <path class="fil16" d="M872 611c0,0 -38,-15 -40,-94 0,0 -3,-28 15,-77 0,0 24,-54 54,-39 0,0 41,-20 62,34 0,0 12,32 10,74 0,0 -5,63 -26,102 -1,2 -50,-18 -11,-83 0,0 26,-44 -1,-64 0,0 -26,-13 -28,-30 0,0 -1,20 20,29 0,0 -17,-4 -23,-16 0,0 2,7 15,15 0,0 -29,-5 -32,-38 0,0 -9,13 -14,26 0,0 -5,12 -16,18 -5,34 26,75 20,104 0,0 -13,22 -5,38z"/>
    <rect class="fil17" x="871" y="453" width="67.8462" height="132.609"/>
    <path class="fil18" d="M957 716l17 102c0,0 -34,17 -72,17 -41,0 -69,-17 -69,-17l17 -102 -1 -22c-24,-15 -15,-62 -10,-60l-6 -41 53 -22 34 0 55 20 -6 43c8,1 19,44 -9,55l-2 27z"/>
    <path class="fil19" d="M950 696c0,0 -37,26 -91,2 0,0 50,13 91,-2z"/>
    <g>
     <g>
      <g>
       <path class="fil20" d="M779 879c0,0 3,10 6,17 3,7 1,13 3,19 2,6 -6,6 -7,-1 -1,-7 -1,-10 -2,-10 -1,0 -5,16 -6,21 -1,5 0,17 -1,18 -2,2 -6,-5 -5,-17 1,-12 0,-12 0,-12 0,0 -1,5 -2,10 -1,5 -1,11 -1,15 0,3 -3,5 -4,3 -1,-2 -3,-14 -1,-19 1,-5 3,-13 3,-13 0,0 -5,11 -5,14 -1,3 1,14 -2,16 -1,1 -4,0 -4,-16 0,0 1,-8 3,-12 0,0 -3,3 -4,8 -1,4 -2,8 -2,13 0,4 -4,4 -4,-4 0,-7 1,-15 3,-19 2,-4 5,-27 11,-35l22 5z"/>
      </g>
     </g>
     <g>
      <path class="fil18" d="M848 634c0,0 -18,84 -33,112 0,0 -8,37 -36,134 0,0 -15,6 -23,-5 0,0 16,-107 24,-142 0,0 27,-121 53,-141 0,0 13,15 15,41z"/>
     </g>
    </g>
    <g>
     <g>
      <g>
       <path class="fil20" d="M1028 879c0,0 -3,10 -6,17 -3,7 -1,13 -3,19 -2,6 6,6 7,-1 1,-7 1,-10 2,-10 1,0 5,16 6,21 1,5 0,17 1,18 2,2 6,-5 5,-17 -1,-12 0,-12 0,-12 0,0 1,5 2,10 1,5 1,11 1,15 0,3 3,5 4,3 1,-2 3,-14 1,-19 -1,-5 -3,-13 -3,-13 0,0 5,11 5,14 1,3 -1,14 2,16 1,1 4,0 4,-16 0,0 -1,-8 -3,-12 0,0 3,3 4,8 1,4 2,8 2,13 0,4 4,4 4,-4 0,-7 -1,-15 -3,-19 -2,-4 -5,-27 -11,-35l-22 5z"/>
      </g>
     </g>
     <g>
      <path class="fil18" d="M958 634c0,0 18,81 32,110 0,0 8,40 36,137 0,0 15,6 23,-5 0,0 -14,-107 -22,-141 0,0 -35,-121 -54,-143 0,0 -14,18 -16,43z"/>
     </g>
    </g>
    <g>
     <g>
      <path class="fil20" d="M921 545l-1 12 -1 16c0,0 -3,6 -17,6 -14,0 -17,-4 -17,-4l-1 -7 -2 -23 38 0z"/>
     </g>
     <g>
      <path class="fil21" d="M921 545l-1 12c-6,4 -20,13 -35,11l-2 -23 38 0z"/>
     </g>
    </g>
    <path class="fil20" d="M951 480c0,1 0,3 0,5 -3,32 -13,73 -49,73 -35,0 -48,-38 -53,-69 0,-2 -1,-4 -1,-7 -3,-30 20,-56 50,-56l3 0c22,0 41,15 47,34 1,2 1,5 2,7 1,4 1,9 1,14z"/>
    <path class="fil22" d="M892 1298c0,0 1,-1 1,-2 0,-1 1,-3 2,-4 0,-2 1,-3 1,-4 0,-1 0,-3 -1,-6 -1,-3 -1,-4 -2,-5 0,-1 -2,-3 -2,-4 0,-1 -2,-2 -2,-3 0,-1 -1,-1 -1,-2 0,-1 0,-1 -1,-2 0,0 0,-1 -1,-1 -1,-1 -1,-1 -1,-1 -1,0 -2,0 -2,0 -1,0 -2,1 -3,1 -1,0 -2,1 -2,2 -1,1 -3,3 -4,4 -1,2 -4,4 -5,6 -1,2 -3,4 -4,5 -1,1 -2,3 -3,4 -1,1 -2,4 -3,5 -1,1 -3,6 -4,7 0,1 -3,4 -3,5 0,1 -4,6 -5,7 -1,1 -3,4 -3,4 -1,1 -2,2 -3,3 -1,1 -2,2 -3,2 0,0 -2,0 -3,1 -1,1 -3,3 -4,3 -1,1 -4,3 -5,4 -1,1 -3,2 -3,3 -1,1 -1,1 -1,3 0,1 0,2 0,2 0,0 0,2 3,3 3,1 9,2 16,3 6,0 9,1 14,0 5,0 10,-2 13,-4 3,-2 4,-4 4,-5 0,-1 1,-2 1,-3 0,-1 2,-6 2,-7 0,-2 3,-8 4,-9 1,-1 4,-8 5,-9 1,-1 3,-3 3,-4 0,0 2,-2 2,-2l0 0z"/>
    <path class="fil23" d="M825 1335c0,0 0,2 2,3 2,1 9,2 10,3 2,0 11,1 16,1 0,0 4,0 8,-1 0,0 4,-1 7,-2 0,0 4,-2 6,-5 1,-2 2,-3 2,-6 0,0 2,-6 3,-9 1,-2 3,-8 4,-10 1,-2 3,-5 4,-7 1,-2 2,-3 3,-3 0,0 1,-1 1,-1l0 0 0 0c0,0 -1,3 -2,6 0,2 -1,6 -1,7 0,2 -1,6 -1,7 0,1 0,3 -1,5 0,1 -1,4 -1,4 0,0 0,1 0,1 0,0 -2,2 -3,2 -1,0 -2,1 -2,1 0,0 0,0 -1,0 -1,0 -2,0 -2,0 0,0 -2,2 -4,4 -1,2 -3,3 -4,4 -1,1 -2,2 -3,2 -1,1 -5,1 -7,2 -2,0 -7,1 -12,1 0,0 -5,0 -8,-1 -3,0 -8,-1 -10,-2 -2,0 -5,-1 -6,-2 -1,-1 -1,-1 -1,-2 0,-1 0,-1 0,-1z"/>
    <path class="fil20" d="M883 871c0,0 11,175 10,213l-1 201 -23 0c-2,-79 -29,-143 -20,-200 -17,-55 11,-104 7,-169 0,0 -8,-45 26,-46z"/>
    <path class="fil24" d="M876 1283c-1,1 -6,0 -7,2 -2,3 -6,12 -7,15 -1,2 -4,8 -6,10 -2,3 -12,9 -14,11 -3,2 12,8 19,6 5,-1 8,-3 11,-7 0,0 2,-3 3,-6 2,-7 15,-23 17,-29 0,-2 -12,-6 -15,-2z"/>
    <path class="fil22" d="M921 1298c0,0 -1,-1 -1,-2 0,-1 -1,-3 -2,-4 0,-2 -1,-3 -1,-4 0,-1 0,-3 1,-6 1,-3 1,-4 2,-5 0,-1 2,-3 2,-4 0,-1 2,-2 2,-3 0,-1 1,-1 1,-2 0,-1 0,-1 1,-2 0,0 0,-1 1,-1 1,-1 1,-1 1,-1 1,0 2,0 2,0 1,0 2,1 3,1 1,0 2,1 2,2 1,1 3,3 4,4 1,2 4,4 5,6 1,2 3,4 4,5 1,1 2,3 3,4 1,1 2,4 3,5 1,1 3,6 4,7 0,1 3,4 3,5 0,1 4,6 5,7 1,1 3,4 3,4 1,1 2,2 3,3 1,1 2,2 3,2 0,0 2,0 3,1 1,1 3,3 4,3 1,1 4,3 5,4 1,1 3,2 3,3 1,1 1,1 1,3 0,1 0,2 0,2 0,0 0,2 -3,3 -3,1 -9,2 -16,3 -6,0 -9,1 -14,0 -5,0 -10,-2 -13,-4 -3,-2 -4,-4 -4,-5 0,-1 -1,-2 -1,-3 0,-1 -2,-6 -2,-7 0,-2 -3,-8 -4,-9 -1,-1 -4,-8 -5,-9 -1,-1 -3,-3 -3,-4 0,0 -2,-2 -2,-2l0 0z"/>
    <path class="fil23" d="M989 1335c0,0 0,2 -2,3 -2,1 -9,2 -10,3 -2,0 -11,1 -16,1 0,0 -4,0 -8,-1 0,0 -4,-1 -7,-2 0,0 -4,-2 -6,-5 -1,-2 -2,-3 -2,-6 0,0 -2,-6 -3,-9 -1,-2 -3,-8 -4,-10 -1,-2 -3,-5 -4,-7 -1,-2 -2,-3 -3,-3 0,0 -1,-1 -1,-1l0 0 0 0c0,0 1,3 2,6 0,2 1,6 1,7 0,2 1,6 1,7 0,1 0,3 1,5 0,1 1,4 1,4 0,0 0,1 0,1 0,0 2,2 3,2 1,0 2,1 2,1 0,0 0,0 1,0 1,0 2,0 2,0 0,0 2,2 4,4 1,2 3,3 4,4 1,1 2,2 3,2 1,1 5,1 7,2 2,0 7,1 12,1 0,0 5,0 8,-1 3,0 8,-1 10,-2 2,0 5,-1 6,-2 1,-1 1,-1 1,-2 0,-1 0,-1 0,-1z"/>
    <path class="fil24" d="M937 1283c1,1 6,0 7,2 2,3 6,12 7,15 1,2 4,8 6,10 2,3 12,9 14,11 3,2 -12,8 -19,6 -5,-1 -8,-3 -11,-7 0,0 -2,-3 -3,-6 -2,-7 -15,-23 -17,-29 0,-2 12,-6 15,-2z"/>
    <path class="fil20" d="M931 871c0,0 -11,175 -10,213l1 201 23 0c2,-79 29,-143 20,-200 17,-55 -11,-104 -7,-169 0,0 8,-45 -26,-46z"/>
    <path class="fil25" d="M835 816c0,0 -13,65 -18,268 0,0 87,36 169,0 0,0 -4,-245 -13,-266l-122 -3 -17 1z"/>
    <g>
     <g>
      <g>
       <path class="fil20" d="M856 490c0,0 -6,-6 -11,-2 -6,5 0,22 11,20l1 -18z"/>
      </g>
     </g>
    </g>
    <path class="fil10" d="M859 508c0,3 -2,5 -5,5 -3,0 -5,-2 -5,-5 0,-3 2,-5 5,-5 3,0 5,2 5,5z"/>
    <path class="fil26" d="M888 473c0,2 -1,3 -3,3 -5,0 -16,1 -22,7 0,0 2,-10 21,-12 1,0 3,1 3,2z"/>
    <path class="fil26" d="M909 473c0,2 1,3 3,3 5,0 16,1 22,6 0,0 -2,-10 -22,-12 -1,0 -3,1 -3,2z"/>
    <g>
     <g>
      <g>
       <path class="fil20" d="M943 490c0,0 6,-6 11,-2 6,5 0,22 -11,20l-1 -18z"/>
      </g>
     </g>
    </g>
    <path class="fil10" d="M950 508c0,3 -2,5 -5,5 -3,0 -5,-2 -5,-5 0,-3 2,-5 5,-5 3,0 5,2 5,5z"/>
    <polygon class="fil24" points="886,575 904,658 920,573 899,575 "/>
    <path class="fil16" d="M834 488c2,-12 6,-28 12,-46 0,0 24,-54 54,-39 0,0 41,-20 62,34 0,0 8,21 10,50l-25 0c-1,-8 -4,-16 -12,-22 0,0 -26,-13 -28,-30 0,0 -1,20 20,29 0,0 -17,-4 -23,-16 0,0 2,7 15,15 0,0 -29,-5 -32,-38 0,0 -9,13 -14,26 0,0 -5,12 -16,18 -1,5 -1,11 0,16l-23 0z"/>
    <g>
     <path class="fil27" d="M890 530c0,0 1,8 11,8 11,0 11,-8 11,-8l-22 0z"/>
     <path class="fil27" d="M913 530c0,0 -10,-6 -22,0 0,0 12,5 22,0z"/>
     <path class="fil28" d="M887 530c0,0 6,3 14,3 4,0 9,-1 14,-3 0,0 1,-1 0,-1 0,0 -1,-1 -1,0 -5,2 -9,3 -13,3 -4,0 -7,-1 -10,-2 -1,0 -2,-1 -3,-1 0,0 -1,0 -1,0l0 0c0,0 -1,0 -1,0 0,0 0,1 0,1z"/>
    </g>
    <path class="fil28" d="M898 506l0 6c0,0 0,1 1,1l4 0c0,0 1,0 1,-1 0,0 0,-1 -1,-1l-4 0 0 -5c0,0 0,-1 -1,-1 0,0 -1,0 -1,1z"/>
    <g>
     <path class="fil29" d="M886 492c0,0 -3,-7 -10,-7 -7,0 -11,5 -11,5 0,0 2,6 10,6 8,0 10,-4 10,-4z"/>
     <path class="fil30" d="M870 490c0,2 1,4 2,5 1,1 3,1 5,1 2,0 3,0 4,0 2,-1 3,-3 3,-5 0,-2 -1,-3 -2,-5 -1,-1 -3,-1 -4,-1 -2,0 -4,0 -5,1 -1,1 -2,3 -2,4z"/>
     <path class="fil30" d="M887 491c0,0 -1,-2 -2,-4 -2,-2 -4,-4 -8,-4l0 0c-7,0 -11,5 -11,5l0 1 1 0 0 0c1,-1 4,-5 10,-5l0 0c3,0 6,2 7,4 1,1 1,2 2,2 0,0 0,1 0,1l0 0c0,0 0,0 1,0 0,0 0,0 0,-1z"/>
    </g>
    <g>
     <path class="fil29" d="M911 492c0,0 3,-7 10,-7 7,0 11,5 11,5 0,0 -2,6 -10,6 -8,0 -10,-4 -10,-4z"/>
     <path class="fil30" d="M928 490c0,2 -1,4 -2,5 -1,1 -3,1 -5,1 -2,0 -3,0 -4,0 -2,-1 -3,-3 -3,-5 0,-2 1,-3 2,-5 1,-1 3,-1 4,-1 2,0 4,0 5,1 1,1 2,3 2,4z"/>
     <path class="fil30" d="M911 491c0,0 1,-2 2,-4 2,-2 4,-4 8,-4l0 0c7,0 11,5 11,5l0 1 -1 0 0 0c-1,-1 -4,-5 -10,-5l0 0c-3,0 -6,2 -7,4 -1,1 -1,2 -2,2 0,0 0,1 0,1l0 0c0,0 0,0 -1,0 0,0 0,0 0,-1z"/>
    </g>
   </g>
  </g>
 </g>
</svg>
