<?xml version="1.0" encoding="UTF-8"?>
<!DOCTYPE svg PUBLIC "-//W3C//DTD SVG 1.1//EN" "http://www.w3.org/Graphics/SVG/1.1/DTD/svg11.dtd">
<!-- Creator: CorelDRAW X6 -->
<svg xmlns="http://www.w3.org/2000/svg" xml:space="preserve" width="58.5443mm" height="50mm" version="1.1" style="shape-rendering:geometricPrecision; text-rendering:geometricPrecision; image-rendering:optimizeQuality; fill-rule:evenodd; clip-rule:evenodd"
viewBox="0 0 1802 1539"
 xmlns:xlink="http://www.w3.org/1999/xlink">
 <defs>
  <style type="text/css">
   <![CDATA[
    .str2 {stroke:#31314B;stroke-width:2.34502}
    .str1 {stroke:#00A0E3;stroke-width:6.15491}
    .str0 {stroke:#898989;stroke-width:6.15491}
    .fil3 {fill:none}
    .fil21 {fill:#84919A}
    .fil2 {fill:#00A0E3}
    .fil1 {fill:#898989}
    .fil0 {fill:#B0CB1F}
    .fil17 {fill:#F6AC80}
    .fil23 {fill:black}
    .fil31 {fill:#291FAC}
    .fil30 {fill:#31314B}
    .fil24 {fill:#995342}
    .fil20 {fill:#C11C56}
    .fil27 {fill:#DE5A62}
    .fil16 {fill:#E62F67}
    .fil26 {fill:#ECB82D}
    .fil18 {fill:#F0E3E7}
    .fil22 {fill:#FFAF82}
    .fil28 {fill:white}
    .fil29 {fill:#2B2A29;fill-rule:nonzero}
    .fil32 {fill:#FEFEFE;fill-rule:nonzero}
    .fil8 {fill:#3F3F3F;fill-rule:nonzero}
    .fil11 {fill:#464646;fill-rule:nonzero}
    .fil7 {fill:#545454;fill-rule:nonzero}
    .fil19 {fill:#C11C56;fill-rule:nonzero}
    .fil12 {fill:#EBEBEB;fill-rule:nonzero}
    .fil9 {fill:#EDEDED;fill-rule:nonzero}
    .fil6 {fill:#EF9300;fill-rule:nonzero}
    .fil25 {fill:#F78967;fill-rule:nonzero}
    .fil14 {fill:#FF8A00;fill-rule:nonzero}
    .fil15 {fill:#FFAF82;fill-rule:nonzero}
    .fil4 {fill:#FFBA00;fill-rule:nonzero}
    .fil13 {fill:#FFDD82;fill-rule:nonzero}
    .fil10 {fill:white;fill-rule:nonzero}
    .fil5 {fill:url(#id1);fill-rule:nonzero}
   ]]>
  </style>
    <clipPath id="id0">
     <path d="M901 0c425,0 769,344 769,769 0,425 -344,769 -769,769 -425,0 -769,-344 -769,-769 0,-425 344,-769 769,-769z"/>
    </clipPath>
  <linearGradient id="id1" gradientUnits="userSpaceOnUse" x1="900.592" y1="909.689" x2="900.592" y2="1118.26">
   <stop offset="0" style="stop-color:#FFD42A"/>
   <stop offset="1" style="stop-color:#FFBA00"/>
  </linearGradient>
 </defs>
 <g id="Layer_x0020_1">
  <metadata id="CorelCorpID_0Corel-Layer"/>
  <g id="_1761303808">
   <path class="fil0" d="M901 0c425,0 769,344 769,769 0,425 -344,769 -769,769 -425,0 -769,-344 -769,-769 0,-425 344,-769 769,-769z"/>
   <g style="clip-path:url(#id0)">
    <g>
     <rect class="fil1 str0" x="-108" y="1052" width="2062" height="531"/>
     <rect class="fil2 str1" x="-108" y="-143" width="2062" height="1195"/>
    </g>
   </g>
   <path class="fil3" d="M901 0c425,0 769,344 769,769 0,425 -344,769 -769,769 -425,0 -769,-344 -769,-769 0,-425 344,-769 769,-769z"/>
   <g>
    <path class="fil4" d="M1322 753c0,0 209,26 275,45 66,19 170,50 184,176 0,0 20,11 20,29 0,18 -2,79 -22,125l-1685 0 -86 -80c0,0 -8,-17 -8,-33 -1,-16 1,-57 4,-61 2,-4 18,-19 38,-32 0,0 -7,-42 5,-84 12,-42 27,-86 65,-87l1210 0z"/>
    <path class="fil5" d="M1757 898c12,21 21,46 25,77 0,0 20,11 20,29 0,18 -2,79 -22,125l-1685 0 -86 -80c0,0 -8,-17 -8,-33 -1,-16 1,-57 4,-61 2,-4 18,-19 38,-32 0,0 -2,-11 -2,-26l1717 0z"/>
    <g>
     <path class="fil6" d="M1755 895c1,2 2,3 3,5l-99 0c-9,0 -41,-10 -65,-21 -25,-12 -187,-66 -231,-78 -35,-9 -64,-30 -79,-48l6 0c15,16 42,35 74,43 44,11 207,66 232,78 25,12 56,21 63,21l96 0z"/>
     <path class="fil6" d="M629 1130c-10,-38 -36,-144 -35,-217 1,-83 9,-132 50,-159l9 0c-45,26 -53,74 -54,159 -1,73 26,181 35,217l-5 0z"/>
     <path class="fil6" d="M1258 833c-7,-46 -49,-69 -76,-80l12 0c27,13 62,37 68,79 6,41 23,179 -4,297l-5 0c27,-117 10,-256 4,-297z"/>
    </g>
    <path class="fil7" d="M25 1039c7,0 22,0 34,-21l0 0c35,-60 100,-101 175,-101 101,0 184,74 199,171l0 0c4,18 20,40 36,40 16,0 800,0 837,0 37,0 40,-40 40,-40l0 1c15,-97 98,-171 199,-171 111,0 202,90 202,202 0,2 0,5 0,7 8,0 17,0 20,0 5,0 18,-7 18,-7 0,0 0,24 0,33 0,8 -25,33 -49,33l-6 0 -355 0 -19 0 -931 0 -35 0 -259 0c0,0 -48,-11 -77,-32l0 0c0,0 -29,-19 -34,-30 -5,-11 -11,-30 -12,-38 -1,-8 -3,-45 -3,-45 0,0 13,0 21,0z"/>
    <g>
     <path class="fil8" d="M1390 1118c0,86 70,155 155,155 86,0 155,-70 155,-155 0,-86 -70,-155 -155,-155 -86,0 -155,70 -155,155z"/>
     <path class="fil9" d="M1439 1118c0,59 48,106 106,106 59,0 106,-48 106,-106 0,-59 -48,-106 -106,-106 -59,0 -106,48 -106,106z"/>
     <path class="fil8" d="M78 1118c0,86 70,155 155,155 86,0 155,-70 155,-155 0,-86 -70,-155 -155,-155 -86,0 -155,70 -155,155z"/>
     <path class="fil9" d="M128 1118c0,59 48,106 106,106 59,0 106,-48 106,-106 0,-59 -48,-106 -106,-106 -59,0 -106,48 -106,106z"/>
    </g>
    <path class="fil10" d="M1679 907c19,33 51,60 72,60 21,0 22,-27 4,-60 -19,-33 -51,-60 -72,-60 -21,0 -22,27 -4,60z"/>
    <path class="fil7" d="M1322 753c0,0 1,28 -28,28 -28,0 -1183,-28 -1183,-28 0,0 2,-10 13,-25 11,-15 106,-162 127,-167 21,-5 334,-15 414,-15 80,0 397,10 418,16 21,6 163,109 238,190z"/>
    <g>
     <path class="fil11" d="M599 765l28 -210 36 5 21 207c-29,-1 -57,-1 -85,-2z"/>
     <path class="fil11" d="M1178 778c-32,-46 -122,-174 -181,-216l67 6c0,0 125,124 197,212 -20,0 -48,-1 -83,-2z"/>
     <path class="fil11" d="M125 729c11,-15 106,-162 127,-167 6,-1 36,-3 77,-5l17 2 -120 198c-71,-2 -115,-3 -115,-3 0,0 2,-10 13,-25z"/>
    </g>
    <path class="fil12" d="M1112 579c0,0 -21,-29 -84,-32 -63,-3 -324,-19 -503,-17 -179,2 -230,9 -249,9 -19,0 -88,4 -88,8 0,4 42,19 53,22 12,3 344,-8 870,11z"/>
    <path class="fil6" d="M689 833c0,19 16,35 35,35 19,0 35,-16 35,-35 0,-19 -16,-35 -35,-35 -19,0 -35,16 -35,35z"/>
    <path class="fil13" d="M662 833c0,6 28,11 62,11 34,0 62,-5 62,-11 0,-6 -28,-11 -62,-11 -34,0 -62,5 -62,11z"/>
    <path class="fil14" d="M51 898c-2,16 8,29 24,29 16,0 31,-13 33,-29l12 -75c3,-16 -8,-29 -24,-29 -16,0 -31,13 -33,29l-12 75z"/>
   </g>
   <g>
    <g>
     <g>
      <g>
       <path class="fil15" d="M1017 876c0,0 -3,10 -6,17 -3,7 -1,13 -3,19 -2,6 6,6 7,-1 1,-7 1,-10 2,-10 1,0 5,16 6,21 1,5 0,17 1,18 2,2 6,-5 5,-17 -1,-12 0,-12 0,-12 0,0 1,5 2,10 1,5 1,11 1,15 0,4 3,5 4,3 1,-2 3,-14 1,-19 -1,-5 -3,-13 -3,-13 0,0 5,11 6,14 1,3 -1,14 2,16 1,1 4,0 4,-16 0,0 -1,-8 -3,-12 0,0 3,4 4,8 1,4 2,8 2,13 0,4 4,4 4,-4 0,-7 -1,-16 -3,-20 -2,-4 -5,-27 -11,-35l-22 5z"/>
      </g>
     </g>
     <g>
      <path class="fil15" d="M947 629c0,0 18,85 33,113 0,0 8,37 36,135 0,0 15,6 23,-5 0,0 -16,-108 -24,-143 0,0 -27,-121 -53,-142 0,0 -14,15 -16,41z"/>
     </g>
    </g>
    <g>
     <g>
      <g>
       <path class="fil15" d="M789 876c0,0 3,10 6,17 3,7 1,13 3,19 2,6 -6,6 -7,-1 -1,-7 -1,-10 -2,-10 -1,0 -5,16 -6,21 -1,5 0,17 -1,18 -2,2 -6,-5 -5,-17 1,-12 0,-12 0,-12 0,0 -1,5 -2,10 -1,5 -1,11 -1,15 0,4 -3,5 -4,3 -1,-2 -3,-14 -1,-19 1,-5 3,-13 3,-13 0,0 -5,11 -6,14 -1,3 1,14 -2,16 -1,1 -4,0 -4,-16 0,0 1,-8 3,-12 0,0 -3,4 -4,8 -1,4 -2,8 -2,13 0,4 -4,4 -4,-4 0,-7 1,-16 3,-20 2,-4 5,-27 11,-35l22 5z"/>
      </g>
     </g>
     <g>
      <path class="fil15" d="M859 629c0,0 -18,85 -33,113 0,0 -8,37 -36,135 0,0 -15,6 -23,-5 0,0 16,-108 24,-143 0,0 27,-121 53,-142 0,0 14,15 16,41z"/>
     </g>
    </g>
    <g>
     <path class="fil16" d="M947 694l62 -13 -14 -69c-4,-17 -20,-28 -37,-25 -17,4 -28,20 -25,37l14 69z"/>
     <path class="fil16" d="M861 694l-62 -13 14 -69c4,-17 20,-28 37,-25 17,4 28,20 25,37l-14 69z"/>
     <path class="fil16" d="M901 562l-70 28c-5,2 -7,7 -6,12l37 125 83 0 35 -127c1,-5 -1,-10 -6,-12l-73 -27z"/>
     <path class="fil17" d="M853 581l48 -20 52 19c0,0 -3,23 -50,23 -47,0 -50,-23 -50,-23z"/>
     <path class="fil18" d="M853 692l-16 -55c0,0 -1,-1 -1,-1 0,0 -1,1 -1,1l16 55c0,0 1,1 1,1 0,0 1,-1 1,-1z"/>
     <path class="fil18" d="M956 693l16 -55c0,0 0,-1 -1,-1 0,0 -1,0 -1,1l-16 55c0,0 0,1 1,1 0,0 1,0 1,-1z"/>
    </g>
    <path class="fil19" d="M949 691c0,0 -38,27 -92,2 0,0 50,14 92,-2z"/>
    <path class="fil20" d="M869 1297c0,0 1,-1 1,-2 0,-1 1,-3 2,-4 0,-2 1,-3 1,-4 0,-1 0,-3 -1,-6 -1,-3 -1,-4 -2,-5 0,-1 -2,-3 -2,-4 0,-1 -2,-2 -2,-3 0,-1 -1,-1 -1,-2 0,-1 0,-1 -1,-2 0,0 0,-1 -1,-1 -1,-1 -1,-1 -1,-1 -1,0 -2,0 -2,0 -1,0 -2,1 -3,1 -1,0 -2,1 -2,2 -1,1 -3,3 -4,4 -1,2 -4,4 -5,6 -1,2 -3,4 -4,5 -1,1 -2,3 -3,4 -1,1 -2,4 -3,5 -1,1 -3,6 -4,7 0,1 -3,4 -3,5 0,1 -4,6 -5,7 -1,1 -3,4 -3,4 -1,1 -2,2 -3,3 -1,1 -2,2 -3,2 0,0 -2,0 -3,1 -1,1 -3,3 -4,4 -1,1 -4,3 -5,4 -1,1 -3,2 -3,3 -1,1 -1,1 -1,3 0,1 0,2 0,2 0,0 0,2 3,3 3,1 9,2 16,3 6,0 10,1 14,0 5,0 10,-2 13,-4 3,-2 4,-4 4,-5 0,-1 1,-2 1,-3 0,-1 2,-6 2,-7 0,-2 3,-8 4,-9 1,-1 4,-8 5,-9 1,-1 3,-4 3,-4 0,0 2,-2 2,-2l0 0z"/>
    <path class="fil21" d="M801 1335c0,0 0,2 2,3 2,1 9,2 10,3 2,0 11,1 16,1 0,0 4,0 8,-1 0,0 5,-1 7,-2 0,0 4,-2 6,-5 1,-2 2,-4 2,-6 0,0 2,-6 3,-9 1,-2 3,-8 4,-10 1,-2 3,-5 4,-7 1,-2 2,-3 3,-3 0,0 1,-1 1,-1l0 0 0 0c0,0 -1,3 -2,6 0,2 -1,6 -1,7 0,2 -1,6 -1,7 0,1 0,3 -1,5 0,1 -1,4 -1,4 0,0 0,1 0,1 0,0 -2,2 -3,2 -1,0 -2,1 -2,1 0,0 0,0 -1,0 -1,0 -2,0 -2,0 0,0 -2,2 -4,4 -1,2 -3,3 -4,4 -1,1 -2,2 -4,2 -1,1 -5,1 -7,2 -2,0 -7,1 -12,1 0,0 -5,0 -8,-1 -4,0 -8,-1 -10,-2 -2,0 -5,-1 -6,-2 -1,-1 -1,-1 -1,-2 0,-1 0,-1 0,-1z"/>
    <path class="fil15" d="M860 867c0,0 11,176 10,215l-1 203 -23 0c-2,-80 -29,-145 -20,-201 18,-67 20,-108 7,-170 0,0 -8,-45 26,-46z"/>
    <path class="fil22" d="M853 1282c-1,1 -6,0 -7,2 -2,3 -6,12 -7,15 -1,2 -4,8 -6,10 -2,3 -12,10 -14,11 -3,2 12,8 20,6 5,-1 8,-3 11,-7 0,0 2,-3 3,-6 2,-7 16,-23 17,-29 0,-2 -12,-6 -15,-2z"/>
    <path class="fil20" d="M936 1297c0,0 -1,-1 -1,-2 0,-1 -1,-3 -2,-4 0,-2 -1,-3 -1,-4 0,-1 0,-3 1,-6 1,-3 1,-4 2,-5 0,-1 2,-3 2,-4 0,-1 2,-2 2,-3 0,-1 1,-1 1,-2 0,-1 0,-1 1,-2 0,0 0,-1 1,-1 1,-1 1,-1 1,-1 1,0 2,0 2,0 1,0 2,1 3,1 1,0 2,1 2,2 1,1 3,3 4,4 1,2 4,4 5,6 1,2 3,4 4,5 1,1 2,3 3,4 1,1 2,4 3,5 1,1 3,6 4,7 0,1 3,4 3,5 0,1 4,6 5,7 1,1 3,4 3,4 1,1 2,2 3,3 1,1 2,2 3,2 0,0 2,0 3,1 1,1 3,3 4,4 1,1 4,3 5,4 1,1 3,2 3,3 1,1 1,1 1,3 0,1 0,2 0,2 0,0 0,2 -3,3 -3,1 -9,2 -16,3 -6,0 -10,1 -14,0 -5,0 -10,-2 -13,-4 -3,-2 -4,-4 -4,-5 0,-1 -1,-2 -1,-3 0,-1 -2,-6 -2,-7 0,-2 -3,-8 -4,-9 -1,-1 -4,-8 -5,-9 -1,-1 -3,-4 -3,-4 0,0 -2,-2 -2,-2l0 0z"/>
    <path class="fil21" d="M1004 1335c0,0 0,2 -2,3 -2,1 -9,2 -10,3 -2,0 -11,1 -16,1 0,0 -4,0 -8,-1 0,0 -5,-1 -7,-2 0,0 -4,-2 -6,-5 -1,-2 -2,-4 -2,-6 0,0 -2,-6 -3,-9 -1,-2 -3,-8 -4,-10 -1,-2 -3,-5 -4,-7 -1,-2 -2,-3 -3,-3 0,0 -1,-1 -1,-1l0 0 0 0c0,0 1,3 2,6 0,2 1,6 1,7 0,2 1,6 1,7 0,1 0,3 1,5 0,1 1,4 1,4 0,0 0,1 0,1 0,0 2,2 3,2 1,0 2,1 2,1 0,0 0,0 1,0 1,0 2,0 2,0 0,0 2,2 4,4 1,2 3,3 4,4 1,1 2,2 4,2 1,1 5,1 7,2 2,0 7,1 12,1 0,0 5,0 8,-1 4,0 8,-1 10,-2 2,0 5,-1 6,-2 1,-1 1,-1 1,-2 0,-1 0,-1 0,-1z"/>
    <path class="fil22" d="M952 1282c1,1 6,0 7,2 2,3 6,12 7,15 1,2 4,8 6,10 2,3 12,10 14,11 3,2 -12,8 -20,6 -5,-1 -8,-3 -11,-7 0,0 -2,-3 -3,-6 -2,-7 -16,-23 -17,-29 0,-2 12,-6 15,-2z"/>
    <path class="fil15" d="M946 867c0,0 -11,176 -10,215l1 203 23 0c2,-80 29,-145 20,-201 17,-55 -11,-104 -7,-170 0,0 8,-45 -26,-46z"/>
    <path class="fil23" d="M920 417c0,0 20,-9 38,7 17,16 5,27 20,35 15,8 4,30 22,40 18,10 6,35 -12,39 0,0 -9,23 -28,21 0,0 -18,20 -52,7l-13 -5 25 -144z"/>
    <path class="fil23" d="M852 424c0,0 -23,3 -27,23 -4,20 -3,16 -15,26 -13,10 3,22 -7,33 -5,5 -8,10 -8,15 -1,9 5,17 14,19 6,2 11,7 14,15 7,15 31,8 31,8 0,0 23,14 37,3 14,-10 -7,-148 -7,-148l-32 6z"/>
    <polygon class="fil24" points="884,545 917,570 913,536 "/>
    <g>
     <g>
      <path class="fil15" d="M920 541l-1 13 -1 16c0,0 -3,6 -17,6 -14,0 -17,-4 -17,-4l-1 -7 -2 -23 38 0z"/>
     </g>
     <g>
      <path class="fil25" d="M920 541l-1 13c-6,4 -20,13 -36,11l-2 -23 38 0z"/>
     </g>
    </g>
    <path class="fil23" d="M924 418c0,0 -9,-21 -40,-21 -32,0 -41,33 -41,33l46 27 36 -38z"/>
    <path class="fil17" d="M859 494c3,7 3,18 -4,21 -7,2 -15,-7 -18,-14 -3,-7 -1,-13 5,-16 7,-3 13,1 16,8z"/>
    <path class="fil24" d="M843 495l0 0c0,0 1,0 1,0 1,0 3,0 5,1 2,1 3,3 4,7 0,0 0,1 1,0 0,0 1,0 0,-1 -1,-4 -3,-6 -5,-8 -2,-1 -4,-2 -5,-2 -1,0 -2,0 -2,0 0,0 -1,0 0,1 0,0 0,1 1,0z"/>
    <path class="fil26" d="M866 530c-2,5 -7,8 -13,8 -4,0 -7,-2 -10,-4 -3,-3 -4,-6 -4,-10 0,-4 2,-7 4,-10 3,-3 6,-4 10,-4l0 -2c-9,0 -16,7 -16,16 0,9 7,16 16,16 6,0 12,-4 14,-9l-2 -1z"/>
    <path class="fil17" d="M944 494c-3,7 -3,18 4,21 7,2 15,-7 18,-14 3,-7 1,-13 -5,-16 -7,-3 -13,1 -16,8z"/>
    <path class="fil24" d="M960 494c0,0 -1,0 -2,0 -1,0 -3,0 -5,2 -2,1 -4,4 -5,8 0,0 0,1 0,1 0,0 1,0 1,0 1,-4 3,-6 4,-7 2,-1 3,-1 5,-1 0,0 1,0 1,0l0 0 0 0c0,0 1,0 1,0 0,0 0,-1 0,-1z"/>
    <path class="fil26" d="M935 531c3,5 8,9 14,9 9,0 16,-7 16,-16 0,-9 -7,-16 -16,-16l0 2c4,0 7,2 10,4 3,3 4,6 4,10 0,4 -2,7 -4,10 -3,3 -6,4 -10,4 -5,0 -10,-3 -13,-8l-2 1z"/>
    <path class="fil23" d="M957 467c0,30 -25,54 -56,54 -31,0 -56,-24 -56,-54 0,-30 25,-54 56,-54 31,0 56,24 56,54z"/>
    <path class="fil17" d="M901 420l0 0c-26,0 -49,20 -49,45l1 30c0,0 1,42 40,55 4,1 9,1 14,0 40,-13 40,-55 40,-55l1 -30c0,-25 -23,-45 -49,-45z"/>
    <path class="fil27" d="M891 518c0,0 0,6 9,6 8,0 9,-6 9,-6l-18 0z"/>
    <path class="fil24" d="M898 501l0 7c0,0 0,1 1,1l5 0c0,0 1,0 1,-1 0,0 0,-1 -1,-1l-4 0 0 -6c0,0 0,-1 -1,-1 0,0 -1,0 -1,1z"/>
    <path class="fil28" d="M890 491c0,0 -3,-9 -12,-9 -8,0 -13,6 -13,6 0,0 2,7 12,8 10,0 13,-5 13,-5z"/>
    <path class="fil23" d="M870 489c0,2 1,4 2,6 2,1 3,1 6,1 2,0 4,0 5,0 2,-1 3,-4 3,-6 0,-2 -1,-4 -2,-6 -1,-1 -3,-1 -5,-2 -3,0 -5,0 -7,1 -1,1 -2,3 -2,5z"/>
    <path class="fil23" d="M891 491c0,0 -1,-2 -3,-5 -2,-2 -5,-5 -9,-5l0 0c-9,0 -13,6 -13,6l0 1 1 0 0 0c1,-1 5,-6 12,-6l0 0c4,0 7,2 9,4 1,1 2,2 2,3 0,0 0,1 0,1l0 0c0,0 0,0 1,0 0,0 0,0 0,-1z"/>
    <path class="fil28" d="M912 491c0,0 3,-9 12,-9 8,0 13,6 13,6 0,0 -2,7 -12,8 -10,0 -13,-5 -13,-5z"/>
    <path class="fil23" d="M932 489c0,2 -1,4 -2,6 -2,1 -3,1 -6,1 -2,0 -4,0 -5,0 -2,-1 -3,-4 -3,-6 0,-2 1,-4 2,-6 1,-1 3,-2 5,-2 3,0 5,0 7,1 1,1 2,3 2,5z"/>
    <path class="fil23" d="M912 491l0 0c0,-1 1,-3 3,-5 2,-2 4,-3 8,-4l0 0c4,0 7,1 9,3 1,1 2,1 2,2 0,0 0,1 1,1l0 0 1 0 0 -1c0,0 -5,-6 -13,-6l0 0c-4,0 -7,2 -9,5 -2,2 -3,5 -3,5 0,0 0,1 0,1 0,0 1,0 1,0z"/>
    <path class="fil27" d="M909 518c0,0 -8,-5 -18,0 0,0 10,4 18,0z"/>
    <path class="fil24" d="M889 518c0,0 5,3 11,3 3,0 7,-1 11,-3 0,0 0,-1 0,-1 0,0 -1,0 -1,0 -4,2 -7,2 -11,2 -3,0 -6,-1 -8,-1 -1,0 -2,-1 -2,-1 0,0 0,0 -1,0l0 0c0,0 -1,0 -1,0 0,0 0,1 0,1z"/>
    <path class="fil23" d="M924 418c0,0 -2,23 -27,27 -25,4 -20,20 -50,16 0,0 -11,-17 5,-35 11,-12 32,-21 47,-20 5,1 17,10 24,12z"/>
    <path class="fil23" d="M922 421c0,0 -11,16 36,46 0,0 8,-11 3,-21 -5,-10 -38,-26 -38,-26z"/>
    <path class="fil29" d="M885 471c0,2 -1,3 -3,3 -5,0 -16,1 -22,7 0,0 2,-10 21,-12 1,0 3,1 3,2z"/>
    <path class="fil29" d="M915 471c0,2 1,3 3,3 5,0 16,1 22,6 0,0 -2,-10 -22,-12 -1,0 -3,1 -3,2z"/>
    <g>
     <polygon class="fil23" points="946,740 863,740 863,728 946,728 "/>
     <path class="fil30" d="M870 778c-20,-3 -37,10 -41,30 -5,20 -8,44 -9,73 -2,72 2,134 5,166 2,16 16,29 32,29 17,0 31,-13 32,-30l14 -227c2,-20 -13,-38 -33,-42 0,0 0,0 -1,0z"/>
     <path class="fil30 str2" d="M889 1044l-10 222 -53 0 -1 -223c0,-18 15,-32 32,-32 18,0 32,15 32,32z"/>
     <path class="fil30" d="M939 778c20,-3 37,10 41,30 5,20 8,44 9,73 2,72 -2,134 -5,166 -2,16 -16,29 -32,29 -17,0 -31,-13 -32,-30l-14 -227c-2,-20 13,-38 33,-42 0,0 0,0 1,0z"/>
     <path class="fil30" d="M920 1044l10 222 53 0 1 -223c0,-18 -15,-32 -32,-32 -18,0 -32,15 -32,32z"/>
     <path class="fil30" d="M946 740l-83 0c0,0 -21,15 -33,62l63 36c7,4 16,4 24,0l63 -36c-13,-46 -33,-62 -33,-62z"/>
     <path class="fil31" d="M866 756c0,0 0,0 0,0 0,1 -1,8 -4,16 -4,7 -10,15 -21,18 0,0 -1,1 -1,1 0,0 1,1 1,1 12,-4 19,-13 23,-21 3,-8 4,-15 4,-15 0,0 0,-1 -1,-1 0,0 -1,0 -1,1z"/>
     <path class="fil31" d="M940 756c0,0 0,7 4,15 3,8 10,17 23,21 0,0 1,0 1,-1 0,0 0,-1 -1,-1 -12,-3 -18,-12 -21,-20 -2,-4 -3,-8 -3,-10 0,-1 0,-2 -1,-3 0,0 0,-1 0,-1 0,0 0,0 0,0 0,0 0,-1 -1,-1 0,0 -1,0 -1,1z"/>
    </g>
   </g>
   <path class="fil32" d="M886 315c16,1 33,6 44,-5 22,-23 28,-34 32,-35 15,-4 27,-20 42,-17 10,2 19,10 29,10 28,0 31,-51 59,-53 16,-1 30,16 45,11 8,-2 13,-10 19,-17 14,-15 35,-23 55,-20 20,3 39,16 48,34 5,10 7,22 13,31 6,10 18,18 28,14 9,-3 14,-12 23,-14 11,-2 20,8 26,17 6,9 12,21 23,23 8,2 16,-1 23,-3 34,-7 67,14 96,34 -10,-1 -21,-2 -31,-2l-600 0c19,-11 -4,-12 26,-10z"/>
  </g>
 </g>
</svg>
