<?xml version="1.0" encoding="UTF-8"?>
<!DOCTYPE svg PUBLIC "-//W3C//DTD SVG 1.1//EN" "http://www.w3.org/Graphics/SVG/1.1/DTD/svg11.dtd">
<!-- Creator: CorelDRAW X6 -->
<svg xmlns="http://www.w3.org/2000/svg" xml:space="preserve" width="50mm" height="50mm" version="1.1" style="shape-rendering:geometricPrecision; text-rendering:geometricPrecision; image-rendering:optimizeQuality; fill-rule:evenodd; clip-rule:evenodd"
viewBox="0 0 1497 1497"
 xmlns:xlink="http://www.w3.org/1999/xlink">
 <defs>
  <style type="text/css">
   <![CDATA[
    .str2 {stroke:#31314B;stroke-width:2.28144}
    .str1 {stroke:#A2D9F7;stroke-width:5.98802}
    .str0 {stroke:#B0CB1F;stroke-width:5.98802}
    .str3 {stroke:#FFAF82;stroke-width:5.98802}
    .fil28 {fill:none}
    .fil14 {fill:#84919A}
    .fil1 {fill:#A2D9F7}
    .fil0 {fill:#B0CB1F}
    .fil17 {fill:black}
    .fil19 {fill:#291FAC}
    .fil18 {fill:#31314B}
    .fil5 {fill:#524798}
    .fil4 {fill:#5E54AC}
    .fil11 {fill:#80B4FB}
    .fil10 {fill:#8B5E5E}
    .fil26 {fill:#995342}
    .fil8 {fill:#9DC6FB}
    .fil9 {fill:#AA8080}
    .fil13 {fill:#C11C56}
    .fil7 {fill:#D8E2F1}
    .fil25 {fill:#DE5A62}
    .fil3 {fill:#E7A52E}
    .fil6 {fill:#E7ECF6}
    .fil2 {fill:#EAB14D}
    .fil15 {fill:#FFAF82}
    .fil12 {fill:#FFD064}
    .fil27 {fill:white}
    .fil23 {fill:#727271;fill-rule:nonzero}
    .fil21 {fill:#C11C56;fill-rule:nonzero}
    .fil20 {fill:#E62F67;fill-rule:nonzero}
    .fil22 {fill:#F78967;fill-rule:nonzero}
    .fil16 {fill:#FFAF82;fill-rule:nonzero}
    .fil24 {fill:white;fill-rule:nonzero}
   ]]>
  </style>
   <clipPath id="id0">
    <path d="M749 0c413,0 749,335 749,749 0,413 -335,749 -749,749 -413,0 -749,-335 -749,-749 0,-413 335,-749 749,-749z"/>
   </clipPath>
 </defs>
 <g id="Layer_x0020_1">
  <metadata id="CorelCorpID_0Corel-Layer"/>
  <path class="fil0" d="M749 0c413,0 749,335 749,749 0,413 -335,749 -749,749 -413,0 -749,-335 -749,-749 0,-413 335,-749 749,-749z"/>
  <g style="clip-path:url(#id0)">
   <g id="_1327704288">
    <rect class="fil0 str0" x="-233" y="1024" width="2006" height="516"/>
    <rect class="fil1 str1" x="-233" y="-139" width="2006" height="1163"/>
    <g>
     <path class="fil2" d="M760 534l162 162c6,6 14,9 22,9l230 0 0 430 -838 0 0 -430 230 0c8,0 16,-3 22,-9l162 -162c3,-3 8,-3 10,0z"/>
     <path class="fil3" d="M944 705c-8,0 -16,-3 -22,-9l-162 -162c-3,-3 -8,-3 -10,0l-162 162c-6,6 -14,9 -22,9l-230 0 0 41 230 0c19,0 37,-8 51,-21l125 -125c7,-7 19,-7 26,0l125 125c14,14 32,21 51,21l170 0c10,0 19,8 19,19l0 371 41 0 0 -430 -230 0z"/>
     <path class="fil4" d="M733 462c12,-12 32,-12 45,0l180 180 217 0 -87 -235c-5,-15 -19,-24 -35,-24l-593 0c-15,0 -29,10 -35,24l-87 235 217 0 180 -180z"/>
     <path class="fil5" d="M1087 406c-5,-15 -19,-24 -35,-24l-56 0c15,0 29,10 35,24l87 235 56 0 -87 -235z"/>
     <path class="fil6" d="M1211 686c0,10 -8,19 -19,19l-248 0c-8,0 -16,-3 -22,-9l-162 -162c-3,-3 -8,-3 -10,0l-162 162c-6,6 -14,9 -22,9l-248 0c-10,0 -19,-8 -19,-19l0 -26c0,-10 8,-19 19,-19l235 0 180 -180c12,-12 32,-12 45,0l180 180 235 0c10,0 19,8 19,19l0 26z"/>
     <path class="fil7" d="M1192 642l-63 0c10,0 19,8 19,19l0 26c0,10 -8,19 -19,19l63 0c10,0 19,-8 19,-19l0 -26c0,-10 -8,-19 -19,-19z"/>
     <path class="fil8" d="M928 860l0 167 185 0 0 -167c0,-10 -8,-18 -18,-18l-149 0c-10,0 -18,8 -18,18z"/>
     <path class="fil9" d="M928 1027l0 41c0,10 8,18 18,18l149 0c10,0 18,-8 18,-18l0 -41 -185 0z"/>
     <path class="fil8" d="M583 860l0 167 -185 0 0 -167c0,-10 8,-18 18,-18l149 0c10,0 18,8 18,18z"/>
     <path class="fil9" d="M583 1027l0 41c0,10 -8,18 -18,18l-149 0c-10,0 -18,-8 -18,-18l0 -41 185 0z"/>
     <path class="fil10" d="M859 860l0 274 -208 0 0 -114 9 -14 -9 -14 0 -133c0,-10 8,-18 18,-18l171 0c10,0 18,8 18,18z"/>
     <path class="fil8" d="M711 949l0 -37c0,-6 5,-11 11,-11l67 0c6,0 11,5 11,11l0 37c0,6 -5,11 -11,11l-67 0c-6,0 -11,-5 -11,-11z"/>
     <path class="fil8" d="M815 714c0,33 -27,59 -59,59 -33,0 -59,-27 -59,-59 0,-33 27,-59 59,-59 33,0 59,27 59,59z"/>
     <path class="fil4" d="M1193 1198l-875 0c-10,0 -18,-8 -18,-18l0 -26c0,-10 8,-18 18,-18l875 0c10,0 18,8 18,18l0 26c0,10 -8,18 -18,18z"/>
     <path class="fil5" d="M1148 1135l0 63 45 0c10,0 18,-8 18,-18l0 -26c0,-10 -8,-18 -18,-18l-45 0z"/>
     <polygon class="fil11" points="1113,921 1034,921 1034,842 1006,842 1006,921 928,921 928,948 1006,948 1006,1027 1034,1027 1034,948 1113,948 "/>
     <polygon class="fil11" points="583,921 504,921 504,842 476,842 476,921 398,921 398,948 476,948 476,1027 504,1027 504,948 583,948 "/>
     <path class="fil12" d="M651 993l33 0c8,0 14,6 14,14 0,8 -6,14 -14,14l-33 0 0 -28z"/>
    </g>
    <g>
     <path class="fil13" d="M949 2136c0,0 1,-2 2,-3 1,-1 2,-4 2,-6 1,-2 1,-5 1,-6 0,-2 0,-5 -1,-8 -1,-4 -2,-7 -3,-7 0,-1 -2,-4 -3,-5 -1,-1 -2,-3 -3,-4 0,-1 -1,-2 -2,-3 0,-1 -1,-2 -1,-3 0,-1 0,-1 -1,-2 -1,-1 -1,-1 -2,-1 -1,0 -2,0 -3,0 -1,0 -3,1 -4,2 -1,1 -3,2 -4,3 -1,1 -4,4 -6,7 -2,2 -5,7 -7,9 -2,2 -5,6 -6,8 -1,2 -3,5 -4,7 -1,2 -3,6 -4,8 -1,2 -5,9 -6,10 -1,1 -4,6 -4,7 -1,1 -6,9 -7,11 -1,2 -4,5 -5,6 -1,1 -3,3 -4,4 -1,1 -3,2 -4,3 0,0 -2,0 -4,2 -1,1 -4,4 -5,5 -2,1 -6,4 -8,5 -2,1 -4,3 -5,5 -1,1 -2,2 -2,4 0,2 0,3 0,3 0,0 0,3 5,4 5,2 14,3 24,4 10,1 14,1 22,1 7,-1 14,-3 19,-6 5,-3 6,-6 7,-7 1,-1 1,-3 2,-5 0,-2 3,-8 3,-11 1,-2 5,-12 5,-14 1,-2 7,-13 7,-14 1,-1 4,-5 5,-6 1,-1 2,-3 2,-3l1 0z"/>
     <path class="fil14" d="M847 2193c0,0 0,2 3,4 3,2 13,4 16,4 2,0 17,2 24,2 0,0 6,1 13,-1 0,0 7,-1 11,-3 0,0 6,-3 9,-7 2,-4 3,-5 4,-9 0,0 3,-9 4,-13 1,-4 5,-12 7,-15 2,-4 4,-8 6,-10 2,-3 4,-5 4,-5 0,0 2,-2 2,-2l0 0 0 0c0,0 -2,5 -2,9 -1,4 -2,8 -2,11 0,3 -2,9 -2,10 0,1 -1,5 -1,7 0,2 -1,6 -1,7 0,1 0,1 0,1 0,0 -3,3 -4,3 -1,1 -3,2 -3,2 0,0 -1,0 -1,0 -1,0 -3,0 -3,0 0,0 -4,3 -6,6 -2,2 -5,5 -6,6 -1,1 -4,2 -5,3 -2,1 -7,2 -10,3 -3,1 -10,2 -19,1 0,0 -7,0 -13,-1 -5,0 -12,-2 -15,-3 -3,-1 -7,-2 -9,-3 -2,-1 -2,-2 -2,-3 0,-1 1,-2 1,-2z"/>
     <path class="fil15" d="M925 2113c-2,2 -9,-1 -11,4 -3,5 -9,18 -11,22 -1,3 -7,12 -9,15 -3,4 -18,14 -21,16 -4,3 18,12 29,10 8,-2 13,-5 16,-10 0,0 4,-4 5,-9 2,-11 23,-35 26,-44 1,-2 -18,-8 -23,-4z"/>
     <path class="fil13" d="M1054 2136c0,0 -1,-2 -2,-3 -1,-1 -2,-4 -2,-6 -1,-2 -1,-5 -1,-6 0,-2 0,-5 1,-8 1,-4 2,-7 3,-7 0,-1 2,-4 3,-5 1,-1 2,-3 3,-4 0,-1 1,-2 2,-3 0,-1 1,-2 1,-3 0,-1 0,-1 1,-2 1,-1 1,-1 2,-1 1,0 2,0 3,0 1,0 3,1 4,2 1,1 3,2 4,3 1,1 4,4 6,7 2,2 5,7 7,9 2,2 5,6 6,8 1,2 3,5 4,7 1,2 3,6 4,8 1,2 5,9 6,10 1,1 4,6 4,7 1,1 6,9 7,11 1,2 4,5 5,6 1,1 3,3 4,4 1,1 3,2 4,3 0,0 2,0 4,2 1,1 4,4 5,5 2,1 6,4 8,5 2,1 4,3 5,5 1,1 2,2 2,4 0,2 0,3 0,3 0,0 0,3 -5,4 -5,2 -14,3 -24,4 -10,1 -14,1 -22,1 -7,-1 -14,-3 -19,-6 -5,-3 -6,-6 -7,-7 -1,-1 -1,-3 -2,-5 0,-2 -3,-8 -3,-11 -1,-2 -5,-12 -5,-14 -1,-2 -7,-13 -7,-14 -1,-1 -4,-5 -5,-6 -1,-1 -2,-3 -2,-3l-1 0z"/>
     <path class="fil14" d="M1156 2193c0,0 0,2 -3,4 -3,2 -13,4 -16,4 -2,0 -17,2 -24,2 0,0 -6,1 -13,-1 0,0 -7,-1 -11,-3 0,0 -6,-3 -9,-7 -2,-4 -3,-5 -4,-9 0,0 -3,-9 -4,-13 -1,-4 -5,-12 -7,-15 -2,-4 -4,-8 -6,-10 -2,-3 -4,-5 -4,-5 0,0 -2,-2 -2,-2l0 0 0 0c0,0 2,5 2,9 1,4 2,8 2,11 0,3 2,9 2,10 0,1 1,5 1,7 0,2 1,6 1,7 0,1 0,1 0,1 0,0 3,3 4,3 1,1 3,2 3,2 0,0 1,0 1,0 1,0 3,0 3,0 0,0 4,3 6,6 2,2 5,5 6,6 1,1 4,2 5,3 2,1 7,2 10,3 3,1 10,2 19,1 0,0 7,0 13,-1 5,0 12,-2 15,-3 3,-1 7,-2 9,-3 2,-1 2,-2 2,-3 0,-1 -1,-2 -1,-2z"/>
     <path class="fil15" d="M1078 2113c2,2 9,-1 11,4 3,5 9,18 11,22 1,3 7,12 9,15 3,4 18,14 21,16 4,3 -18,12 -29,10 -8,-2 -13,-5 -16,-10 0,0 -4,-4 -5,-9 -2,-11 -23,-35 -26,-44 -1,-2 18,-8 23,-4z"/>
     <path class="fil16" d="M934 1488c0,0 17,265 15,324l-1 305 -34 0c-3,-121 -17,-220 -3,-305 -26,-83 -10,-155 -15,-254 0,0 -12,-68 39,-69z"/>
     <path class="fil16" d="M1069 1488c0,0 -17,265 -15,324l1 305 34 0c3,-121 43,-218 30,-303 26,-83 -16,-157 -11,-256 0,0 12,-68 -39,-69z"/>
     <polygon class="fil17" points="1068,1314 943,1314 943,1295 1068,1295 "/>
     <path class="fil18" d="M953 1369c-30,-5 -35,21 -42,51 -7,30 -12,67 -13,110 -3,108 -18,196 -13,245 3,25 23,43 48,43 25,0 46,-19 48,-44l21 -342c3,-31 -19,-58 -49,-63 0,0 -1,0 -1,0z"/>
     <path class="fil18 str2" d="M982 1770l-15 335 -80 0 -2 -336c0,-26 22,-48 48,-48 27,0 49,22 48,49z"/>
     <path class="fil18" d="M1058 1369c30,-5 30,16 37,46 7,30 12,67 13,110 3,108 22,201 17,249 -3,25 -23,43 -48,43 -25,0 -46,-19 -48,-44l-21 -342c-3,-31 19,-58 49,-63 0,0 1,0 1,0z"/>
     <path class="fil18" d="M1029 1770l15 335 80 0 2 -336c0,-26 -22,-48 -48,-48 -27,0 -49,22 -48,49z"/>
     <path class="fil18" d="M1068 1314l-124 0c0,0 -32,22 -50,93l94 54c11,7 25,7 35,0l94 -54c-19,-69 -50,-94 -50,-94z"/>
     <path class="fil19" d="M948 1337c0,0 0,0 0,0 0,2 -1,13 -7,24 -5,11 -15,23 -31,27 -1,0 -1,1 -1,2 0,1 1,1 2,1 19,-5 29,-19 34,-31 5,-12 6,-23 6,-23 0,-1 -1,-1 -1,-1 -1,0 -1,1 -1,1z"/>
     <path class="fil19" d="M1059 1337c0,0 1,11 6,23 5,12 15,26 34,31 1,0 1,0 2,-1 0,-1 0,-1 -1,-2 -18,-5 -27,-18 -32,-30 -3,-6 -4,-11 -5,-15 0,-2 -1,-4 -1,-5 0,-1 0,-1 0,-1 0,0 0,0 0,0 0,-1 -1,-1 -1,-1 -1,0 -1,1 -1,1z"/>
     <path class="fil20" d="M1181 1825c0,0 -106,42 -165,42 -63,0 -200,-21 -200,-21l97 -613c-37,-23 -15,-108 -7,-104l-9 -62 80 -34 51 -1 83 31 -9 66c12,1 37,81 -5,97l83 599z"/>
     <path class="fil21" d="M1075 1244c0,0 -57,40 -138,2 0,0 76,20 138,-2z"/>
     <g>
      <g>
       <g>
        <path class="fil16" d="M815 1501c0,0 4,15 9,26 5,11 2,19 5,29 3,10 -9,9 -11,-1 -2,-10 -1,-15 -3,-15 -2,0 -8,25 -9,32 -1,7 1,25 -2,28 -3,3 -9,-7 -7,-26 2,-19 1,-18 1,-18 0,0 -2,7 -4,15 -2,8 -2,17 -2,23 0,5 -5,8 -7,5 -2,-3 -4,-21 -2,-29 2,-7 5,-20 5,-20 0,0 -7,17 -8,21 -1,4 1,21 -3,24 -2,1 -7,0 -6,-24 0,0 2,-11 4,-18 0,0 -4,5 -6,12 -2,6 -3,13 -3,19 -1,6 -6,5 -6,-6 0,-11 2,-23 5,-29 3,-6 8,-41 17,-53l33 7z"/>
       </g>
      </g>
      <g>
       <path class="fil20" d="M920 1129c0,0 -28,127 -50,170 0,0 -11,56 -54,204 0,0 -22,9 -35,-8 0,0 24,-163 36,-215 0,0 40,-183 80,-213 0,0 20,23 23,62z"/>
      </g>
     </g>
     <g>
      <g>
       <g>
        <path class="fil16" d="M1193 1501c0,0 -4,15 -9,26 -5,11 -2,19 -5,29 -3,10 9,9 11,-1 2,-10 1,-15 3,-15 2,0 8,25 9,32 1,7 -1,25 2,28 3,3 9,-7 7,-26 -2,-19 -1,-18 -1,-18 0,0 2,7 4,15 2,8 2,17 2,23 0,5 5,8 7,5 2,-3 4,-21 2,-29 -2,-7 -5,-20 -5,-20 0,0 7,17 8,21 1,4 -1,21 3,24 2,1 7,0 6,-24 0,0 -2,-11 -4,-18 0,0 4,5 6,12 2,6 3,13 3,19 1,6 6,5 6,-6 0,-11 -2,-23 -5,-29 -3,-6 -8,-41 -17,-53l-33 7z"/>
       </g>
      </g>
      <g>
       <path class="fil20" d="M1088 1129c0,0 27,124 49,166 0,0 12,60 55,208 0,0 22,9 35,-8 0,0 -21,-162 -33,-214 0,0 -53,-184 -82,-217 0,0 -21,27 -24,66z"/>
      </g>
     </g>
     <g>
      <g>
       <path class="fil16" d="M1031 994l-1 19 -1 24c0,0 -5,9 -26,9 -21,0 -26,-6 -26,-6l-1 -11 -3 -35 57 0z"/>
      </g>
      <g>
       <path class="fil22" d="M1031 994l-1 19c-9,7 -30,20 -54,16l-3 -35 57 0z"/>
      </g>
     </g>
     <path class="fil16" d="M1077 896c0,2 0,5 -1,7 -5,49 -20,110 -74,110 -52,0 -73,-58 -80,-105 0,-3 -1,-7 -1,-10 -5,-45 30,-85 75,-85l4 0c34,0 62,22 72,52 1,4 2,7 3,11 1,7 2,13 1,21z"/>
     <path class="fil23" d="M954 980c0,0 -87,-1 -70,-117 0,0 24,-117 88,-109 0,0 66,-35 116,38 0,0 39,51 30,112 0,0 -5,68 -67,76 -2,0 72,-82 -41,-128 0,0 20,27 41,31 0,0 -42,7 -81,-37 0,0 -22,52 -41,68 0,0 -4,40 26,66z"/>
     <g>
      <g>
       <g>
        <path class="fil16" d="M933 911c0,0 -10,-9 -17,-3 -9,7 0,33 17,31l1 -27z"/>
       </g>
      </g>
     </g>
     <path class="fil24" d="M936 938c0,4 -3,7 -7,7 -4,0 -7,-3 -7,-7 0,-4 3,-7 7,-7 4,0 7,3 7,7z"/>
     <path class="fil23" d="M982 889c0,2 -3,4 -5,4 -8,-2 -25,-4 -34,3 0,0 6,-14 36,-11 2,0 4,2 4,5z"/>
     <g>
      <g>
       <g>
        <path class="fil16" d="M1064 911c0,0 10,-9 17,-3 9,7 0,33 -17,31l-1 -27z"/>
       </g>
      </g>
     </g>
     <path class="fil24" d="M1075 938c0,4 -3,7 -7,7 -4,0 -7,-3 -7,-7 0,-4 3,-7 7,-7 4,0 7,3 7,7z"/>
     <g>
      <path class="fil25" d="M984 972c0,0 1,12 17,12 16,0 17,-12 17,-12l-34 0z"/>
      <path class="fil25" d="M1018 972c0,0 -15,-9 -34,0 0,0 19,8 34,0z"/>
      <path class="fil26" d="M980 971c0,0 9,5 21,5 6,0 14,-1 21,-5 1,0 1,-1 1,-2 0,-1 -1,-1 -2,-1 -7,4 -14,5 -20,5 -6,0 -11,-1 -14,-2 -2,-1 -3,-1 -4,-2 0,0 -1,0 -1,-1l0 0c-1,0 -1,0 -2,0 0,1 0,1 0,2z"/>
     </g>
     <path class="fil26" d="M997 935l0 9c0,0 0,1 1,1l6 0c0,0 1,0 1,-1 0,0 0,-1 -1,-1l-6 0 0 -8c0,0 0,-1 -1,-1 0,0 -1,0 -1,1z"/>
     <g>
      <path class="fil27" d="M979 913c0,0 -4,-11 -14,-11 -10,0 -16,8 -16,8 0,0 3,9 15,10 12,1 16,-6 16,-6z"/>
      <path class="fil17" d="M953 910c0,3 1,6 3,7 2,1 4,1 7,2 3,0 5,0 7,0 2,-2 4,-4 4,-8 0,-3 -1,-5 -3,-7 -2,-1 -4,-2 -7,-2 -3,0 -6,1 -8,2 -2,2 -3,4 -3,7z"/>
      <path class="fil17" d="M979 913c0,0 -1,-3 -3,-6 -2,-3 -6,-6 -12,-6l0 0c-11,0 -17,8 -17,8l0 1 1 0 0 0c1,-1 7,-7 15,-7l0 0c5,0 8,3 11,5 1,1 2,3 2,4 0,1 0,1 1,1l0 0c0,0 0,1 1,0 0,0 0,0 0,-1z"/>
     </g>
     <g>
      <path class="fil27" d="M1016 913c0,0 4,-11 14,-11 10,0 16,8 16,8 0,0 -3,9 -15,10 -12,1 -16,-6 -16,-6z"/>
      <path class="fil17" d="M1041 910c0,3 -1,6 -3,7 -2,1 -4,1 -7,2 -3,0 -5,0 -7,0 -2,-2 -4,-4 -4,-8 0,-3 1,-5 3,-7 2,-1 4,-2 7,-2 3,0 6,1 8,2 2,2 3,4 3,7z"/>
      <path class="fil17" d="M1015 913c0,0 1,-3 3,-6 2,-3 6,-6 12,-6l0 0c11,0 17,8 17,8l0 1 -1 0 0 0c-1,-1 -7,-7 -15,-7l0 0c-5,0 -8,3 -11,5 -1,1 -2,3 -2,4 0,1 0,1 -1,1l0 0c0,0 0,1 -1,0 0,0 0,0 0,-1z"/>
     </g>
     <path class="fil23" d="M1012 889c0,2 3,4 5,4 8,-2 25,-4 34,3 0,0 -6,-14 -36,-11 -2,0 -4,2 -4,5z"/>
     <path class="fil15 str3" d="M977 1033l51 0 0 56c0,14 -11,26 -26,26l0 0c-14,0 -26,-11 -26,-26l0 -56z"/>
    </g>
   </g>
  </g>
  <path class="fil28" d="M749 0c413,0 749,335 749,749 0,413 -335,749 -749,749 -413,0 -749,-335 -749,-749 0,-413 335,-749 749,-749z"/>
 </g>
</svg>
