<?xml version="1.0" encoding="UTF-8"?>
<!DOCTYPE svg PUBLIC "-//W3C//DTD SVG 1.1//EN" "http://www.w3.org/Graphics/SVG/1.1/DTD/svg11.dtd">
<!-- Creator: CorelDRAW X6 -->
<svg xmlns="http://www.w3.org/2000/svg" xml:space="preserve" width="50mm" height="50.0001mm" version="1.1" style="shape-rendering:geometricPrecision; text-rendering:geometricPrecision; image-rendering:optimizeQuality; fill-rule:evenodd; clip-rule:evenodd"
viewBox="0 0 885 885"
 xmlns:xlink="http://www.w3.org/1999/xlink">
 <defs>
  <style type="text/css">
   <![CDATA[
    .str0 {stroke:#31314B;stroke-width:1.34948}
    .str1 {stroke:#00A0E3;stroke-width:14.9948;stroke-linecap:round}
    .fil18 {fill:none}
    .fil7 {fill:#84919A}
    .fil21 {fill:#D9DADA}
    .fil3 {fill:#F6AC80}
    .fil19 {fill:#FEFEFE}
    .fil20 {fill:#FFED00}
    .fil9 {fill:black}
    .fil0 {fill:#0C3853}
    .fil17 {fill:#291FAC}
    .fil16 {fill:#31314B}
    .fil10 {fill:#995342}
    .fil6 {fill:#C11C56}
    .fil13 {fill:#DE5A62}
    .fil2 {fill:#E62F67}
    .fil12 {fill:#ECB82D}
    .fil4 {fill:#F0E3E7}
    .fil8 {fill:#FFAF82}
    .fil14 {fill:white}
    .fil15 {fill:#2B2A29;fill-rule:nonzero}
    .fil5 {fill:#C11C56;fill-rule:nonzero}
    .fil11 {fill:#F78967;fill-rule:nonzero}
    .fil1 {fill:#FFAF82;fill-rule:nonzero}
   ]]>
  </style>
   <clipPath id="id0">
    <path d="M885 443c0,245 -198,443 -443,443 -245,0 -443,-198 -443,-443 0,-245 198,-443 443,-443 245,0 443,198 443,443z"/>
   </clipPath>
     <clipPath id="id1">
      <path d="M399 831c13,0 23,11 23,23 0,13 -11,23 -23,23 -13,0 -23,-11 -23,-23 0,-13 11,-23 23,-23z"/>
     </clipPath>
     <clipPath id="id2">
      <path d="M885 443c0,245 -198,443 -443,443 -245,0 -443,-198 -443,-443 0,-245 198,-443 443,-443 245,0 443,198 443,443z"/>
     </clipPath>
 </defs>
 <g id="Layer_x0020_1">
  <metadata id="CorelCorpID_0Corel-Layer"/>
  <path class="fil0" d="M885 443c0,245 -198,443 -443,443 -245,0 -443,-198 -443,-443 0,-245 198,-443 443,-443 245,0 443,198 443,443z"/>
  <g style="clip-path:url(#id0)">
   <g id="_1169643056">
    <g>
     <g>
      <g>
       <g>
        <path id="1" class="fil1" d="M706 1320c0,0 -7,24 -15,41 -8,17 -2,31 -7,46 -5,16 14,14 17,-2 4,-16 2,-24 5,-25 3,-1 13,39 15,51 1,11 -1,40 3,45 4,4 15,-12 11,-41 -3,-30 -1,-29 -1,-29 0,0 3,12 6,24 3,12 3,28 2,36 -1,8 8,13 11,8 3,-5 7,-34 3,-46 -3,-12 -8,-31 -8,-31 0,0 11,27 13,34 2,7 -1,33 5,38 2,2 10,-1 9,-38 0,0 -3,-18 -7,-30 0,0 6,8 9,20 3,10 4,20 5,31 1,10 10,9 10,-9 0,-18 -3,-38 -8,-47 -5,-10 -12,-65 -27,-85l-52 11z"/>
       </g>
      </g>
      <g>
       <path class="fil1" d="M538 725c0,0 44,204 80,273 0,0 18,90 87,326 0,0 36,14 57,-13 0,0 -38,-261 -58,-344 0,0 -64,-293 -128,-341 0,0 -33,37 -37,99z"/>
      </g>
     </g>
     <g>
      <g>
       <g>
        <path class="fil1" d="M158 1320c0,0 7,24 15,41 8,17 2,31 7,46 5,16 -14,14 -17,-2 -4,-16 -2,-24 -5,-25 -3,-1 -13,39 -15,51 -1,11 1,40 -3,45 -4,4 -15,-12 -11,-41 3,-30 1,-29 1,-29 0,0 -3,12 -6,24 -3,12 -3,28 -2,36 1,8 -8,13 -11,8 -3,-5 -7,-34 -3,-46 3,-12 8,-31 8,-31 0,0 -11,27 -13,34 -2,7 1,33 -5,38 -2,2 -10,-1 -9,-38 0,0 3,-18 7,-30 0,0 -6,8 -9,20 -3,10 -4,20 -5,31 -1,10 -10,9 -10,-9 0,-18 3,-38 8,-47 5,-10 12,-65 27,-85l52 11z"/>
       </g>
      </g>
      <g>
       <path class="fil1" d="M326 725c0,0 -44,204 -80,273 0,0 -18,90 -87,326 0,0 -36,14 -57,-13 0,0 38,-261 58,-344 0,0 64,-293 128,-341 0,0 33,37 37,99z"/>
      </g>
     </g>
     <g>
      <path class="fil2" d="M539 882l149 -31 -34 -167c-8,-41 -49,-68 -90,-59 -41,8 -68,49 -59,90l34 167z"/>
      <path class="fil2" d="M331 883l-149 -31 34 -167c8,-41 49,-68 90,-59 41,8 68,49 59,90l-34 167z"/>
      <path class="fil2" d="M426 564l-168 68c-12,5 -18,17 -14,29l90 301 199 0 85 -305c3,-12 -3,-25 -15,-29l-176 -64z"/>
      <path class="fil3" d="M310 611l117 -47 125 46c0,0 -7,57 -121,57 -114,0 -120,-55 -120,-55z"/>
      <path class="fil4" d="M311 878l-39 -132c0,-1 -2,-2 -3,-1 -1,0 -2,2 -1,3l39 132c0,1 2,2 3,1 1,0 2,-2 1,-3z"/>
      <path class="fil4" d="M560 879l39 -132c0,-1 0,-2 -1,-3 -1,0 -2,0 -3,1l-39 132c0,1 0,2 1,3 1,0 2,0 3,-1z"/>
     </g>
     <path class="fil5" d="M542 877c0,0 -91,64 -221,4 0,0 122,33 221,-4z"/>
     <path class="fil6" d="M350 2338c0,0 2,-3 3,-5 1,-2 3,-6 4,-10 1,-4 1,-7 2,-10 0,-3 0,-8 -2,-14 -1,-6 -4,-11 -4,-12 -1,-1 -4,-7 -5,-9 -1,-2 -4,-5 -4,-6 -1,-1 -2,-3 -3,-5 -1,-2 -1,-3 -1,-4 0,-1 0,-2 -2,-3 -1,-2 -2,-2 -3,-2 -1,0 -4,0 -5,1 -2,1 -4,2 -6,3 -2,1 -4,2 -6,4 -1,2 -7,7 -10,11 -3,4 -9,11 -11,14 -3,4 -8,9 -9,12 -2,3 -6,8 -7,11 -1,3 -5,10 -6,12 -1,2 -8,14 -9,16 -1,2 -6,10 -7,11 -1,2 -9,15 -12,18 -2,3 -7,9 -8,10 -2,1 -4,5 -6,7 -2,2 -5,4 -6,4 0,0 -4,1 -6,3 -2,2 -6,6 -9,8 -3,2 -10,7 -12,9 -2,2 -6,6 -8,8 -1,2 -3,4 -3,6 0,2 0,4 0,4 0,0 0,5 8,7 8,2 22,5 38,6 15,1 23,2 35,1 12,-1 23,-5 31,-10 8,-5 10,-9 11,-12 1,-2 2,-5 3,-8 1,-3 4,-13 5,-17 1,-4 7,-20 9,-23 1,-3 11,-20 12,-22 1,-2 7,-8 7,-9 1,-1 4,-4 4,-4l1 -1z"/>
     <path class="fil7" d="M186 2429c0,0 0,4 5,6 5,3 21,6 25,6 4,1 28,3 39,3 0,0 10,1 20,-1 0,0 11,-2 17,-5 0,0 10,-6 14,-11 4,-6 4,-8 6,-15 0,0 4,-15 7,-21 2,-6 8,-19 11,-24 3,-6 7,-12 10,-16 3,-4 6,-8 7,-8 1,0 3,-3 3,-3l1 0 0 0c0,0 -3,8 -4,14 -1,6 -3,13 -3,18 0,4 -2,14 -3,16 0,2 -1,8 -2,12 0,4 -1,10 -1,11 0,1 0,2 0,2 0,0 -5,4 -7,5 -2,1 -5,3 -5,3 0,0 -1,-1 -2,-1 -1,0 -4,0 -4,0 0,0 -6,6 -9,9 -3,4 -7,7 -9,9 -2,2 -6,4 -8,5 -3,1 -11,3 -16,4 -5,1 -17,3 -30,2 0,0 -12,-1 -20,-2 -8,-1 -19,-3 -23,-4 -5,-1 -12,-3 -14,-5 -2,-2 -3,-3 -3,-4 0,-1 1,-3 1,-3z"/>
     <path class="fil1" d="M327 1301c0,0 27,424 24,518l-2 488 -55 1c-5,-193 -69,-348 -47,-486 43,-162 48,-260 18,-411 0,0 -19,-109 63,-111z"/>
     <path class="fil8" d="M311 2301c-3,2 -14,-1 -18,6 -4,8 -15,29 -18,36 -2,4 -10,19 -15,25 -4,6 -29,23 -34,26 -7,5 29,19 47,15 12,-3 20,-8 26,-16 0,0 6,-6 8,-15 4,-18 38,-56 41,-71 1,-4 -29,-13 -37,-6z"/>
     <path class="fil6" d="M512 2338c0,0 -2,-3 -3,-5 -1,-2 -3,-6 -4,-10 -1,-4 -1,-7 -2,-10 0,-3 0,-8 2,-14 1,-6 4,-11 4,-12 1,-1 4,-7 5,-9 1,-2 4,-5 4,-6 1,-1 2,-3 3,-5 1,-2 1,-3 1,-4 0,-1 0,-2 2,-3 1,-2 2,-2 3,-2 1,0 4,0 5,1 2,1 4,2 6,3 2,1 4,2 6,4 1,2 7,7 10,11 3,4 9,11 11,14 3,4 8,9 9,12 2,3 6,8 7,11 1,3 5,10 6,12 1,2 8,14 9,16 1,2 6,10 7,11 1,2 9,15 12,18 2,3 7,9 8,10 2,1 4,5 6,7 2,2 5,4 6,4 0,0 4,1 6,3 2,2 6,6 9,8 3,2 10,7 12,9 2,2 6,6 8,8 1,2 3,4 3,6 0,2 0,4 0,4 0,0 0,5 -8,7 -8,2 -22,5 -38,6 -15,1 -23,2 -35,1 -12,-1 -23,-5 -31,-10 -8,-5 -10,-9 -11,-12 -1,-2 -2,-5 -3,-8 -1,-3 -4,-13 -5,-17 -1,-4 -7,-20 -9,-23 -1,-3 -11,-20 -12,-22 -1,-2 -7,-8 -7,-9 -1,-1 -4,-4 -4,-4l-1 -1z"/>
     <path class="fil7" d="M676 2429c0,0 0,4 -5,6 -5,3 -21,6 -25,6 -4,1 -28,3 -39,3 0,0 -10,1 -20,-1 0,0 -11,-2 -17,-5 0,0 -10,-6 -14,-11 -4,-6 -4,-8 -6,-15 0,0 -4,-15 -7,-21 -2,-6 -8,-19 -11,-24 -3,-6 -7,-12 -10,-16 -3,-4 -6,-8 -7,-8 -1,0 -3,-3 -3,-3l-1 0 0 0c0,0 3,8 4,14 1,6 3,13 3,18 0,4 2,14 3,16 0,2 1,8 2,12 0,4 1,10 1,11 0,1 0,2 0,2 0,0 5,4 7,5 2,1 5,3 5,3 0,0 1,-1 2,-1 1,0 4,0 4,0 0,0 6,6 9,9 3,4 7,7 9,9 2,2 6,4 8,5 3,1 11,3 16,4 5,1 17,3 30,2 0,0 12,-1 20,-2 8,-1 19,-3 23,-4 5,-1 12,-3 14,-5 2,-2 3,-3 3,-4 0,-1 -1,-3 -1,-3z"/>
     <path class="fil8" d="M550 2301c3,2 14,-1 18,6 4,8 15,29 18,36 2,4 10,19 15,25 4,6 29,23 34,26 7,5 -29,19 -47,15 -12,-3 -20,-8 -26,-16 0,0 -6,-6 -8,-15 -4,-18 -38,-56 -41,-71 -1,-4 29,-13 37,-6z"/>
     <path class="fil1" d="M535 1301c0,0 -27,424 -24,518l2 488 55 1c5,-193 69,-348 47,-486 41,-133 -26,-252 -18,-411 0,0 19,-109 -63,-111z"/>
     <path class="fil9" d="M472 215c0,0 49,-22 91,17 41,39 12,65 49,84 37,19 10,73 53,97 43,24 15,84 -29,93 0,0 -21,56 -67,50 0,0 -43,48 -126,17l-31 -13 61 -347z"/>
     <path class="fil9" d="M310 231c0,0 -55,7 -66,56 -11,49 -7,38 -37,63 -30,25 8,53 -16,79 -12,13 -18,23 -19,35 -2,21 13,40 33,46 14,4 25,17 34,35 17,36 76,20 76,20 0,0 56,33 90,8 34,-24 -17,-357 -17,-357l-77 14z"/>
     <polygon class="fil10" points="386,523 464,583 456,502 "/>
     <g>
      <g>
       <path class="fil1" d="M472 515l-2 30 -2 38c0,0 -8,14 -42,14 -34,0 -41,-10 -41,-10l-1 -17 -5 -56 92 0z"/>
      </g>
      <g>
       <path class="fil11" d="M472 515l-2 30c-14,11 -48,31 -86,26l-5 -56 92 0z"/>
      </g>
     </g>
     <path class="fil9" d="M483 218c0,0 -21,-52 -97,-52 -76,0 -100,79 -100,79l111 64 86 -92z"/>
     <path class="fil3" d="M326 401c8,17 7,44 -9,50 -16,6 -35,-16 -43,-33 -8,-17 -3,-32 13,-38 16,-6 31,3 39,20z"/>
     <path class="fil10" d="M287 403l0 0c0,0 2,0 3,0 3,0 7,1 11,3 4,3 8,8 11,17 0,1 1,1 2,1 1,0 1,-1 1,-2 -3,-10 -7,-16 -12,-19 -5,-3 -9,-4 -13,-4 -3,0 -4,0 -4,0 -1,0 -1,1 -1,2 0,1 1,1 2,1z"/>
     <path class="fil12" d="M344 488c-5,11 -17,19 -30,19 -9,0 -18,-4 -24,-10 -6,-6 -10,-14 -10,-24 0,-9 4,-18 10,-24 6,-6 14,-10 24,-10l0 -5c-21,0 -38,17 -38,38 0,21 17,38 38,38 15,0 28,-9 34,-21l-4 -2z"/>
     <path class="fil3" d="M529 401c-8,17 -7,44 9,50 16,6 35,-16 43,-33 8,-17 3,-32 -13,-38 -16,-6 -31,3 -39,20z"/>
     <path class="fil10" d="M569 400c0,0 -2,0 -4,0 -3,0 -8,1 -13,4 -5,3 -9,9 -12,19 0,1 0,2 1,2 1,0 2,0 2,-1 3,-9 7,-14 11,-17 4,-3 8,-3 11,-3 1,0 2,0 3,0l1 0 0 0c1,0 2,0 2,-1 0,-1 0,-2 -1,-2z"/>
     <path class="fil12" d="M509 490c6,13 19,21 34,21 21,0 38,-17 38,-38 0,-21 -17,-38 -38,-38l0 5c9,0 18,4 24,10 6,6 10,14 10,24 0,9 -4,18 -10,24 -6,6 -14,10 -24,10 -13,0 -25,-8 -30,-19l-4 2z"/>
     <path class="fil9" d="M562 336c0,72 -61,130 -135,130 -75,0 -135,-58 -135,-130 0,-72 61,-130 135,-130 75,0 135,58 135,130z"/>
     <path class="fil3" d="M427 222l0 0c-62,0 -118,48 -118,108l4 72c0,0 1,101 98,132 11,3 22,3 33,0 96,-31 98,-132 98,-132l4 -72c0,-60 -55,-108 -118,-108z"/>
     <path class="fil13" d="M404 459c0,0 1,15 21,15 20,0 21,-15 21,-15l-43 0z"/>
     <path class="fil10" d="M419 417l0 17c0,1 1,2 2,2l12 0c1,0 2,-1 2,-2 0,-1 -1,-2 -2,-2l-11 0 0 -15c0,-1 -1,-2 -2,-2 -1,0 -2,1 -2,2z"/>
     <path class="fil14" d="M401 393c0,0 -8,-21 -28,-22 -20,-1 -32,15 -32,15 0,0 5,17 29,19 24,1 31,-12 31,-12z"/>
     <path class="fil9" d="M352 387c0,6 2,11 5,14 4,2 8,3 14,3 5,0 9,0 13,-1 4,-3 7,-9 8,-15 0,-5 -2,-10 -5,-14 -4,-2 -8,-4 -13,-4 -6,0 -12,1 -16,3 -3,3 -5,8 -6,13z"/>
     <path class="fil9" d="M402 392c0,0 -2,-6 -6,-11 -5,-6 -12,-11 -23,-11l0 0c-21,0 -32,15 -32,15l0 2 2 0 0 -1c2,-3 13,-14 30,-14l0 0c10,0 16,5 21,10 2,3 4,5 5,7 0,1 1,2 1,2l0 1c0,1 1,1 2,1 1,0 1,-1 1,-2z"/>
     <path class="fil14" d="M452 393c0,0 8,-21 28,-22 20,-1 32,15 32,15 0,0 -5,17 -29,19 -24,1 -31,-12 -31,-12z"/>
     <path class="fil9" d="M502 387c0,6 -2,11 -5,14 -4,2 -8,3 -14,3 -5,0 -9,0 -13,-1 -4,-3 -7,-9 -8,-15 0,-5 2,-10 5,-14 4,-2 8,-4 13,-4 6,0 12,1 16,3 3,3 5,8 6,13z"/>
     <path class="fil9" d="M454 393l0 -1c1,-2 3,-7 7,-11 4,-4 10,-8 19,-8l0 0c10,0 17,4 23,7 3,2 5,4 6,5 1,1 1,1 1,2l0 1 2 0 0 -2c0,0 -11,-15 -32,-15l0 0c-11,0 -18,6 -23,11 -5,6 -6,11 -6,11 0,1 0,1 1,2 1,0 1,0 2,-1z"/>
     <path class="fil13" d="M447 459c0,0 -20,-11 -43,0 0,0 24,10 43,0z"/>
     <path class="fil10" d="M398 458c0,0 11,6 27,6 8,0 17,-2 27,-6 1,0 1,-1 1,-2 0,-1 -1,-1 -2,-1 -9,4 -18,6 -25,6 -8,0 -14,-1 -18,-3 -2,-1 -4,-1 -5,-2 -1,0 -1,-1 -1,-1l0 0c-1,0 -2,0 -2,1 0,1 0,2 1,2z"/>
     <path class="fil9" d="M483 218c0,0 -5,57 -64,66 -60,9 -47,47 -120,38 0,0 -26,-41 13,-84 26,-28 76,-52 113,-48 12,1 41,24 59,28z"/>
     <path class="fil9" d="M476 225c0,0 -26,38 86,112 0,0 18,-26 6,-50 -12,-24 -92,-62 -92,-62z"/>
     <path class="fil15" d="M389 345c0,4 -2,7 -6,7 -13,0 -40,3 -53,17 0,0 4,-24 52,-30 4,0 7,2 7,6z"/>
     <path class="fil15" d="M459 346c0,4 3,7 7,7 13,0 40,2 53,15 0,0 -5,-24 -52,-28 -4,0 -7,2 -7,6z"/>
     <g>
      <polygon class="fil9" points="535,995 335,995 335,964 535,964 "/>
      <path class="fil16" d="M351 1084c-48,-7 -88,24 -99,72 -11,48 -19,107 -21,177 -5,173 4,323 12,401 4,39 38,69 77,69 40,0 74,-31 77,-71l34 -547c4,-49 -30,-93 -79,-100 -1,0 -1,0 -2,0z"/>
      <path class="fil16 str0" d="M397 1726l-23 536 -129 0 -2 -539c1,-42 35,-76 77,-76 43,0 78,35 77,78z"/>
      <path class="fil16" d="M518 1084c48,-7 88,24 99,72 11,48 19,107 21,177 5,173 -4,323 -12,401 -4,39 -38,69 -77,69 -40,0 -74,-31 -77,-71l-34 -547c-4,-49 30,-93 79,-100 1,0 1,0 2,0z"/>
      <path class="fil16" d="M473 1726l23 536 129 0 2 -539c-1,-42 -35,-76 -77,-76 -43,0 -78,35 -77,78z"/>
      <path class="fil16" d="M535 995l-199 0c0,0 -52,36 -80,150l151 87c18,11 39,11 57,0l151 -86c-31,-110 -80,-150 -80,-150z"/>
      <path class="fil17" d="M343 1032c0,0 0,0 0,1 0,4 -2,20 -11,38 -8,18 -23,36 -50,44 -1,0 -2,2 -1,3 0,1 2,2 3,1 30,-9 46,-30 54,-50 8,-19 9,-36 9,-37 0,-1 -1,-2 -2,-2 -1,0 -2,1 -2,2z"/>
      <path class="fil17" d="M521 1033c0,0 1,17 9,37 8,19 24,41 54,50 1,0 2,0 3,-1 0,-1 0,-2 -1,-3 -28,-8 -43,-29 -52,-47 -4,-9 -6,-18 -8,-25 -1,-3 -1,-6 -1,-8 0,-1 0,-2 0,-2 0,0 0,-1 0,-1 0,-1 -1,-2 -2,-2 -1,0 -2,1 -2,2z"/>
     </g>
    </g>
    <path class="fil18 str1" d="M328 597c0,0 32,229 97,258 0,0 41,0 105,-258"/>
    <g>
     <rect class="fil19" x="364" y="816" width="129.325" height="76.8461"/>
     <path class="fil20" d="M399 831c13,0 23,11 23,23 0,13 -11,23 -23,23 -13,0 -23,-11 -23,-23 0,-13 11,-23 23,-23z"/>
    </g>
    <g style="clip-path:url(#id1)">
     <g>
      <g>
       <g>
        <g>
         <g>
          <path id="1" class="fil1" d="M414 900c0,0 0,1 -1,2 0,1 0,2 0,2 0,1 1,1 1,0 0,-1 0,-1 0,-1 0,0 1,2 1,3 0,1 0,2 0,2 0,0 1,-1 1,-2 0,-2 0,-2 0,-2 0,0 0,1 0,1 0,1 0,1 0,2 0,0 0,1 1,0 0,0 0,-2 0,-2 0,-1 0,-2 0,-2 0,0 1,1 1,2 0,0 0,2 0,2 0,0 1,0 0,-2 0,0 0,-1 0,-2 0,0 0,0 0,1 0,1 0,1 0,2 0,1 1,0 1,0 0,-1 0,-2 0,-2 0,-1 -1,-3 -1,-5l-3 1z"/>
         </g>
        </g>
        <g>
         <path class="fil1" d="M405 868c0,0 2,11 4,14 0,0 1,5 5,17 0,0 2,1 3,-1 0,0 -2,-14 -3,-18 0,0 -3,-16 -7,-18 0,0 -2,2 -2,5z"/>
        </g>
       </g>
       <g>
        <g>
         <g>
          <path class="fil1" d="M385 900c0,0 0,1 1,2 0,1 0,2 0,2 0,1 -1,1 -1,0 0,-1 0,-1 0,-1 0,0 -1,2 -1,3 0,1 0,2 0,2 0,0 -1,-1 -1,-2 0,-2 0,-2 0,-2 0,0 0,1 0,1 0,1 0,1 0,2 0,0 0,1 -1,0 0,0 0,-2 0,-2 0,-1 0,-2 0,-2 0,0 -1,1 -1,2 0,0 0,2 0,2 0,0 -1,0 0,-2 0,0 0,-1 0,-2 0,0 0,0 0,1 0,1 0,1 0,2 0,1 -1,0 -1,0 0,-1 0,-2 0,-2 0,-1 1,-3 1,-5l3 1z"/>
         </g>
        </g>
        <g>
         <path class="fil1" d="M394 868c0,0 -2,11 -4,14 0,0 -1,5 -5,17 0,0 -2,1 -3,-1 0,0 2,-14 3,-18 0,0 3,-16 7,-18 0,0 2,2 2,5z"/>
        </g>
       </g>
       <g>
        <path class="fil2" d="M405 876l8 -2 -2 -9c0,-2 -3,-4 -5,-3 -2,0 -4,3 -3,5l2 9z"/>
        <path class="fil2" d="M394 876l-8 -2 2 -9c0,-2 3,-4 5,-3 2,0 4,3 3,5l-2 9z"/>
        <path class="fil2" d="M399 859l-9 4c-1,0 -1,1 -1,2l5 16 11 0 5 -16c0,-1 0,-1 -1,-2l-9 -3z"/>
        <path class="fil3" d="M393 862l6 -3 7 2c0,0 0,3 -6,3 -6,0 -6,-3 -6,-3z"/>
        <path class="fil4" d="M393 876l-2 -7c0,0 0,0 0,0 0,0 0,0 0,0l2 7c0,0 0,0 0,0 0,0 0,0 0,0z"/>
        <path class="fil4" d="M407 876l2 -7c0,0 0,0 0,0 0,0 0,0 0,0l-2 7c0,0 0,0 0,0 0,0 0,0 0,0z"/>
       </g>
       <path class="fil5" d="M406 876c0,0 -5,3 -12,0 0,0 6,2 12,0z"/>
       <path class="fil6" d="M395 954c0,0 0,0 0,0 0,0 0,0 0,-1 0,0 0,0 0,-1 0,0 0,0 0,-1 0,0 0,-1 0,-1 0,0 0,0 0,0 0,0 0,0 0,0 0,0 0,0 0,0 0,0 0,0 0,0 0,0 0,0 0,0 0,0 0,0 0,0 0,0 0,0 0,0 0,0 0,0 0,0 0,0 0,0 0,0 0,0 0,0 -1,1 0,0 0,1 -1,1 0,0 0,1 -1,1 0,0 0,0 0,1 0,0 0,1 0,1 0,0 0,1 0,1 0,0 0,1 0,1 0,0 0,1 -1,1 0,0 0,0 0,1 0,0 0,0 0,0 0,0 0,0 0,0 0,0 0,0 0,0 0,0 0,0 0,0 0,0 -1,0 -1,0 0,0 0,0 0,0 0,0 0,0 0,0 0,0 0,0 0,0 0,0 0,0 0,0 0,0 1,0 2,0 1,0 1,0 2,0 1,0 1,0 2,-1 0,0 1,-1 1,-1 0,0 0,0 0,0 0,0 0,-1 0,-1 0,0 0,-1 0,-1 0,0 1,-1 1,-1 0,0 0,0 0,0 0,0 0,0 0,0l0 0z"/>
       <path class="fil7" d="M387 958c0,0 0,0 0,0 0,0 1,0 1,0 0,0 1,0 2,0 0,0 1,0 1,0 0,0 1,0 1,0 0,0 1,0 1,-1 0,0 0,0 0,-1 0,0 0,-1 0,-1 0,0 0,-1 1,-1 0,0 0,-1 1,-1 0,0 0,0 0,0 0,0 0,0 0,0l0 0 0 0c0,0 0,0 0,1 0,0 0,1 0,1 0,0 0,1 0,1 0,0 0,0 0,1 0,0 0,1 0,1 0,0 0,0 0,0 0,0 0,0 0,0 0,0 0,0 0,0 0,0 0,0 0,0 0,0 0,0 0,0 0,0 0,0 0,0 0,0 0,0 0,0 0,0 0,0 0,0 0,0 -1,0 -1,0 0,0 -1,0 -2,0 0,0 -1,0 -1,0 0,0 -1,0 -1,0 0,0 -1,0 -1,0 0,0 0,0 0,0 0,0 0,0 0,0z"/>
       <path class="fil1" d="M394 899c0,0 1,22 1,27l0 26 -3 0c0,-10 -4,-18 -3,-26 2,-9 3,-14 1,-22 0,0 -1,-6 3,-6z"/>
       <path class="fil8" d="M393 952c0,0 -1,0 -1,0 0,0 -1,2 -1,2 0,0 -1,1 -1,1 0,0 -2,1 -2,1 0,0 2,1 3,1 1,0 1,0 1,-1 0,0 0,0 0,-1 0,-1 2,-3 2,-4 0,0 -2,-1 -2,0z"/>
       <path class="fil6" d="M404 954c0,0 0,0 0,0 0,0 0,0 0,-1 0,0 0,0 0,-1 0,0 0,0 0,-1 0,0 0,-1 0,-1 0,0 0,0 0,0 0,0 0,0 0,0 0,0 0,0 0,0 0,0 0,0 0,0 0,0 0,0 0,0 0,0 0,0 0,0 0,0 0,0 0,0 0,0 0,0 0,0 0,0 0,0 0,0 0,0 0,0 1,1 0,0 0,1 1,1 0,0 0,1 1,1 0,0 0,0 0,1 0,0 0,1 0,1 0,0 0,1 0,1 0,0 0,1 0,1 0,0 0,1 1,1 0,0 0,0 0,1 0,0 0,0 0,0 0,0 0,0 0,0 0,0 0,0 0,0 0,0 0,0 0,0 0,0 1,0 1,0 0,0 0,0 0,0 0,0 0,0 0,0 0,0 0,0 0,0 0,0 0,0 0,0 0,0 -1,0 -2,0 -1,0 -1,0 -2,0 -1,0 -1,0 -2,-1 0,0 -1,-1 -1,-1 0,0 0,0 0,0 0,0 0,-1 0,-1 0,0 0,-1 0,-1 0,0 -1,-1 -1,-1 0,0 0,0 0,0 0,0 0,0 0,0l0 0z"/>
       <path class="fil7" d="M413 958c0,0 0,0 0,0 0,0 -1,0 -1,0 0,0 -1,0 -2,0 0,0 -1,0 -1,0 0,0 -1,0 -1,0 0,0 -1,0 -1,-1 0,0 0,0 0,-1 0,0 0,-1 0,-1 0,0 0,-1 -1,-1 0,0 0,-1 -1,-1 0,0 0,0 0,0 0,0 0,0 0,0l0 0 0 0c0,0 0,0 0,1 0,0 0,1 0,1 0,0 0,1 0,1 0,0 0,0 0,1 0,0 0,1 0,1 0,0 0,0 0,0 0,0 0,0 0,0 0,0 0,0 0,0 0,0 0,0 0,0 0,0 0,0 0,0 0,0 0,0 0,0 0,0 0,0 0,0 0,0 0,0 0,0 0,0 1,0 1,0 0,0 1,0 2,0 0,0 1,0 1,0 0,0 1,0 1,0 0,0 1,0 1,0 0,0 0,0 0,0 0,0 0,0 0,0z"/>
       <path class="fil8" d="M406 952c0,0 1,0 1,0 0,0 1,2 1,2 0,0 1,1 1,1 0,0 2,1 2,1 0,0 -2,1 -3,1 -1,0 -1,0 -1,-1 0,0 0,0 0,-1 0,-1 -2,-3 -2,-4 0,0 2,-1 2,0z"/>
       <path class="fil1" d="M405 899c0,0 -1,22 -1,27l0 26 3 0c0,-10 4,-18 3,-26 2,-7 -1,-13 -1,-22 0,0 1,-6 -3,-6z"/>
       <path class="fil9" d="M402 841c0,0 3,-1 5,1 2,2 1,3 3,4 2,1 1,4 3,5 2,1 1,4 -2,5 0,0 -1,3 -4,3 0,0 -2,3 -7,1l-2 -1 3 -18z"/>
       <path class="fil9" d="M393 842c0,0 -3,0 -4,3 -1,3 0,2 -2,3 -2,1 0,3 -1,4 -1,1 -1,1 -1,2 0,1 1,2 2,2 1,0 1,1 2,2 1,2 4,1 4,1 0,0 3,2 5,0 2,-1 -1,-19 -1,-19l-4 1z"/>
       <polygon class="fil10" points="397,857 401,860 401,856 "/>
       <g>
        <g>
         <path class="fil1" d="M402 857l0 2 0 2c0,0 0,1 -2,1 -2,0 -2,-1 -2,-1l0 -1 0 -3 5 0z"/>
        </g>
        <g>
         <path class="fil11" d="M402 857l0 2c-1,1 -3,2 -5,1l0 -3 5 0z"/>
        </g>
       </g>
       <path class="fil9" d="M402 841c0,0 -1,-3 -5,-3 -4,0 -5,4 -5,4l6 3 5 -5z"/>
       <path class="fil3" d="M394 851c0,1 0,2 0,3 -1,0 -2,-1 -2,-2 0,-1 0,-2 1,-2 1,0 2,0 2,1z"/>
       <path class="fil10" d="M392 851l0 0c0,0 0,0 0,0 0,0 0,0 1,0 0,0 0,0 1,1 0,0 0,0 0,0 0,0 0,0 0,0 0,-1 0,-1 -1,-1 0,0 -1,0 -1,0 0,0 0,0 0,0 0,0 0,0 0,0 0,0 0,0 0,0z"/>
       <path class="fil12" d="M395 855c0,1 -1,1 -2,1 0,0 -1,0 -1,-1 0,0 -1,-1 -1,-1 0,0 0,-1 1,-1 0,0 1,-1 1,-1l0 0c-1,0 -2,1 -2,2 0,1 1,2 2,2 1,0 1,0 2,-1l0 0z"/>
       <path class="fil3" d="M405 851c0,1 0,2 0,3 1,0 2,-1 2,-2 0,-1 0,-2 -1,-2 -1,0 -2,0 -2,1z"/>
       <path class="fil10" d="M407 851c0,0 0,0 0,0 0,0 0,0 -1,0 0,0 0,0 -1,1 0,0 0,0 0,0 0,0 0,0 0,0 0,0 0,-1 1,-1 0,0 0,0 1,0 0,0 0,0 0,0l0 0 0 0c0,0 0,0 0,0 0,0 0,0 0,0z"/>
       <path class="fil12" d="M404 856c0,1 1,1 2,1 1,0 2,-1 2,-2 0,-1 -1,-2 -2,-2l0 0c0,0 1,0 1,1 0,0 1,1 1,1 0,0 0,1 -1,1 0,0 -1,1 -1,1 -1,0 -1,0 -2,-1l0 0z"/>
       <path class="fil9" d="M407 847c0,4 -3,7 -7,7 -4,0 -7,-3 -7,-7 0,-4 3,-7 7,-7 4,0 7,3 7,7z"/>
       <path class="fil3" d="M400 841l0 0c-3,0 -6,3 -6,6l0 4c0,0 0,5 5,7 1,0 1,0 2,0 5,-2 5,-7 5,-7l0 -4c0,-3 -3,-6 -6,-6z"/>
       <path class="fil13" d="M398 854c0,0 0,1 1,1 1,0 1,-1 1,-1l-2 0z"/>
       <path class="fil10" d="M399 852l0 1c0,0 0,0 0,0l1 0c0,0 0,0 0,0 0,0 0,0 0,0l-1 0 0 -1c0,0 0,0 0,0 0,0 0,0 0,0z"/>
       <path class="fil14" d="M398 850c0,0 0,-1 -1,-1 -1,0 -2,1 -2,1 0,0 0,1 2,1 1,0 2,-1 2,-1z"/>
       <path class="fil9" d="M395 850c0,0 0,1 0,1 0,0 0,0 1,0 0,0 0,0 1,0 0,0 0,0 0,-1 0,0 0,-1 0,-1 0,0 0,0 -1,0 0,0 -1,0 -1,0 0,0 0,0 0,1z"/>
       <path class="fil9" d="M398 850c0,0 0,0 0,-1 0,0 -1,-1 -1,-1l0 0c-1,0 -2,1 -2,1l0 0 0 0 0 0c0,0 1,-1 2,-1l0 0c1,0 1,0 1,1 0,0 0,0 0,0 0,0 0,0 0,0l0 0c0,0 0,0 0,0 0,0 0,0 0,0z"/>
       <path class="fil14" d="M401 850c0,0 0,-1 1,-1 1,0 2,1 2,1 0,0 0,1 -2,1 -1,0 -2,-1 -2,-1z"/>
       <path class="fil9" d="M403 850c0,0 0,1 0,1 0,0 0,0 -1,0 0,0 0,0 -1,0 0,0 0,0 0,-1 0,0 0,-1 0,-1 0,0 0,0 1,0 0,0 1,0 1,0 0,0 0,0 0,1z"/>
       <path class="fil9" d="M401 850l0 0c0,0 0,0 0,-1 0,0 1,0 1,0l0 0c1,0 1,0 1,0 0,0 0,0 0,0 0,0 0,0 0,0l0 0 0 0 0 0c0,0 -1,-1 -2,-1l0 0c-1,0 -1,0 -1,1 0,0 0,1 0,1 0,0 0,0 0,0 0,0 0,0 0,0z"/>
       <path class="fil13" d="M401 854c0,0 -1,-1 -2,0 0,0 1,1 2,0z"/>
       <path class="fil10" d="M398 854c0,0 1,0 1,0 0,0 1,0 1,0 0,0 0,0 0,0 0,0 0,0 0,0 0,0 -1,0 -1,0 0,0 -1,0 -1,0 0,0 0,0 0,0 0,0 0,0 0,0l0 0c0,0 0,0 0,0 0,0 0,0 0,0z"/>
       <path class="fil9" d="M402 841c0,0 0,3 -3,3 -3,0 -2,2 -6,2 0,0 -1,-2 1,-4 1,-1 4,-3 6,-3 1,0 2,1 3,1z"/>
       <path class="fil9" d="M402 841c0,0 -1,2 5,6 0,0 1,-1 0,-3 -1,-1 -5,-3 -5,-3z"/>
       <path class="fil15" d="M397 848c0,0 0,0 0,0 -1,0 -2,0 -3,1 0,0 0,-1 3,-2 0,0 0,0 0,0z"/>
       <path class="fil15" d="M401 848c0,0 0,0 0,0 1,0 2,0 3,1 0,0 0,-1 -3,-1 0,0 0,0 0,0z"/>
       <g>
        <polygon class="fil9" points="405,882 395,882 395,881 405,881 "/>
        <path class="fil16" d="M395 887c-3,0 -5,1 -5,4 -1,3 -1,6 -1,9 0,9 0,17 1,21 0,2 2,4 4,4 2,0 4,-2 4,-4l2 -29c0,-3 -2,-5 -4,-5 0,0 0,0 0,0z"/>
        <path class="fil16 str0" d="M398 921l-1 28 -7 0 0 -29c0,-2 2,-4 4,-4 2,0 4,2 4,4z"/>
        <path class="fil16" d="M404 887c3,0 5,1 5,4 1,3 1,6 1,9 0,9 0,17 -1,21 0,2 -2,4 -4,4 -2,0 -4,-2 -4,-4l-2 -29c0,-3 2,-5 4,-5 0,0 0,0 0,0z"/>
        <path class="fil16" d="M402 921l1 28 7 0 0 -29c0,-2 -2,-4 -4,-4 -2,0 -4,2 -4,4z"/>
        <path class="fil16" d="M405 882l-11 0c0,0 -3,2 -4,8l8 5c1,1 2,1 3,0l8 -5c-2,-6 -4,-8 -4,-8z"/>
        <path class="fil17" d="M395 884c0,0 0,0 0,0 0,0 0,1 -1,2 0,1 -1,2 -3,2 0,0 0,0 0,0 0,0 0,0 0,0 2,0 2,-2 3,-3 0,-1 0,-2 0,-2 0,0 0,0 0,0 0,0 0,0 0,0z"/>
        <path class="fil17" d="M404 884c0,0 0,1 1,2 0,1 1,2 3,3 0,0 0,0 0,0 0,0 0,0 0,0 -2,0 -2,-2 -3,-3 0,0 0,-1 0,-1 0,0 0,0 0,0 0,0 0,0 0,0 0,0 0,0 0,0 0,0 0,0 0,0 0,0 0,0 0,0z"/>
       </g>
      </g>
     </g>
    </g>
    <g style="clip-path:url(#id2)">
     <path class="fil18" d="M399 831c13,0 23,11 23,23 0,13 -11,23 -23,23 -13,0 -23,-11 -23,-23 0,-13 11,-23 23,-23z"/>
     <rect class="fil21" x="429" y="835" width="46.8564" height="3.27984"/>
     <rect class="fil21" x="429" y="848" width="46.8564" height="3.27984"/>
     <rect class="fil21" x="429" y="861" width="46.8564" height="3.27984"/>
     <rect class="fil21" x="429" y="873" width="46.8564" height="3.27984"/>
    </g>
   </g>
  </g>
  <path class="fil18" d="M885 443c0,245 -198,443 -443,443 -245,0 -443,-198 -443,-443 0,-245 198,-443 443,-443 245,0 443,198 443,443z"/>
 </g>
</svg>
