<?xml version="1.0" encoding="UTF-8"?>
<!DOCTYPE svg PUBLIC "-//W3C//DTD SVG 1.1//EN" "http://www.w3.org/Graphics/SVG/1.1/DTD/svg11.dtd">
<!-- Creator: CorelDRAW X6 -->
<svg xmlns="http://www.w3.org/2000/svg" xml:space="preserve" width="49.9999mm" height="50mm" version="1.1" style="shape-rendering:geometricPrecision; text-rendering:geometricPrecision; image-rendering:optimizeQuality; fill-rule:evenodd; clip-rule:evenodd"
viewBox="0 0 4923 4923"
 xmlns:xlink="http://www.w3.org/1999/xlink">
 <defs>
  <style type="text/css">
   <![CDATA[
    .str0 {stroke:#31314B;stroke-width:7.503}
    .fil22 {fill:none}
    .fil6 {fill:#84919A}
    .fil2 {fill:#F6AC80}
    .fil8 {fill:black}
    .fil0 {fill:#0C3853}
    .fil16 {fill:#291FAC}
    .fil15 {fill:#31314B}
    .fil21 {fill:#828282}
    .fil18 {fill:#939393}
    .fil9 {fill:#995342}
    .fil20 {fill:#9B9B9B}
    .fil5 {fill:#C11C56}
    .fil12 {fill:#DE5A62}
    .fil19 {fill:#EAEAEA}
    .fil11 {fill:#ECB82D}
    .fil3 {fill:#F0E3E7}
    .fil17 {fill:whitesmoke}
    .fil7 {fill:#FFAF82}
    .fil13 {fill:white}
    .fil14 {fill:#2B2A29;fill-rule:nonzero}
    .fil4 {fill:#C11C56;fill-rule:nonzero}
    .fil10 {fill:#F78967;fill-rule:nonzero}
    .fil1 {fill:#FFAF82;fill-rule:nonzero}
   ]]>
  </style>
   <clipPath id="id0">
    <path d="M4923 2462c0,1360 -1102,2462 -2461,2462 -1360,0 -2462,-1102 -2462,-2462 0,-1359 1102,-2462 2462,-2462 1360,0 2461,1102 2461,2462z"/>
   </clipPath>
 </defs>
 <g id="Layer_x0020_1">
  <metadata id="CorelCorpID_0Corel-Layer"/>
  <path class="fil0" d="M4923 2462c0,1360 -1102,2462 -2461,2462 -1360,0 -2462,-1102 -2462,-2462 0,-1359 1102,-2462 2462,-2462 1360,0 2461,1102 2461,2462z"/>
  <g style="clip-path:url(#id0)">
   <g id="_1824106096">
    <g>
     <g>
      <g>
       <path id="1" class="fil1" d="M3926 7342c0,0 -40,132 -84,228 -44,96 -14,170 -40,257 -26,87 77,80 97,-11 20,-91 11,-134 30,-137 19,-3 73,219 81,282 8,64 -5,223 19,248 24,25 81,-65 63,-231 -18,-166 -5,-162 -5,-162 0,0 16,64 32,134 16,69 17,154 13,201 -3,47 45,71 59,45 14,-25 37,-190 18,-255 -19,-64 -42,-175 -42,-175 0,0 63,148 74,187 11,38 -7,184 26,211 14,11 58,-4 51,-212 0,0 -15,-102 -37,-164 0,0 34,47 51,110 15,56 23,114 28,170 5,56 54,49 54,-50 0,-99 -17,-209 -45,-262 -28,-53 -69,-362 -151,-475l-291 61z"/>
      </g>
     </g>
     <g>
      <path class="fil1" d="M2992 4032c0,0 245,1135 444,1515 0,0 102,501 483,1815 0,0 199,79 315,-72 0,0 -213,-1451 -324,-1913 0,0 -358,-1628 -710,-1897 0,0 -182,206 -208,552z"/>
     </g>
    </g>
    <g>
     <g>
      <g>
       <path class="fil1" d="M876 7342c0,0 40,132 84,228 44,96 14,170 40,257 26,87 -77,80 -97,-11 -20,-91 -11,-134 -30,-137 -19,-3 -73,219 -81,282 -8,64 5,223 -19,248 -24,25 -81,-65 -63,-231 18,-166 5,-162 5,-162 0,0 -16,64 -32,134 -16,69 -17,154 -13,201 3,47 -45,71 -59,45 -14,-25 -37,-190 -18,-255 19,-64 42,-175 42,-175 0,0 -63,148 -74,187 -11,38 7,184 -26,211 -14,11 -58,-4 -51,-212 0,0 15,-102 37,-164 0,0 -34,47 -51,110 -15,56 -23,114 -28,170 -5,56 -54,49 -54,-50 0,-99 17,-209 45,-262 28,-53 69,-362 151,-475l291 61z"/>
      </g>
     </g>
     <g>
      <path class="fil1" d="M1810 4032c0,0 -245,1135 -444,1515 0,0 -102,501 -483,1815 0,0 -199,79 -315,-72 0,0 213,-1451 324,-1913 0,0 358,-1628 710,-1897 0,0 182,206 208,552z"/>
     </g>
    </g>
    <path class="fil2" d="M1723 3398l648 -262 694 253c0,0 -41,314 -673,314 -632,0 -669,-305 -669,-305z"/>
    <path class="fil3" d="M1728 4881l-218 -731c-2,-6 -9,-10 -15,-8 -6,2 -10,9 -8,15l218 731c2,6 9,10 15,8 6,-2 10,-9 8,-15z"/>
    <path class="fil3" d="M3116 4888l218 -731c2,-6 -2,-13 -8,-15 -6,-2 -13,2 -15,8l-218 731c-2,6 2,13 8,15 6,2 13,-2 15,-8z"/>
    <path class="fil4" d="M3012 4873c0,0 -503,356 -1228,22 0,0 677,182 1228,-22z"/>
    <path class="fil5" d="M1944 12998c0,0 10,-16 16,-29 6,-13 16,-34 22,-57 5,-22 7,-41 8,-58 1,-17 -1,-42 -8,-76 -8,-34 -20,-59 -23,-67 -4,-7 -22,-40 -28,-48 -6,-8 -21,-28 -25,-36 -4,-8 -12,-17 -15,-27 -3,-10 -6,-18 -7,-24 -2,-6 -2,-10 -9,-18 -7,-8 -11,-10 -17,-11 -7,-1 -21,1 -30,4 -8,3 -24,12 -34,17 -10,5 -24,14 -32,23 -7,9 -39,37 -56,59 -18,22 -48,59 -63,79 -16,21 -44,53 -53,68 -9,15 -31,44 -39,59 -8,15 -27,55 -35,69 -8,14 -46,80 -51,89 -5,8 -34,54 -39,63 -5,9 -51,83 -64,99 -13,16 -37,48 -46,56 -8,8 -24,28 -36,38 -12,10 -27,22 -34,25 0,0 -21,3 -34,14 -13,11 -34,35 -49,47 -14,12 -55,38 -69,48 -14,10 -36,31 -43,44 -7,13 -14,20 -14,34 0,14 2,24 2,24 0,0 2,25 44,39 43,14 124,29 210,35 86,6 128,11 193,6 65,-5 128,-26 171,-54 43,-28 54,-53 60,-65 6,-13 13,-29 17,-46 4,-18 24,-75 30,-96 5,-21 41,-109 49,-126 8,-17 59,-112 66,-124 7,-12 36,-47 41,-52 5,-5 21,-23 21,-23l5 -3z"/>
    <path class="fil6" d="M1035 13504c0,0 2,21 29,35 27,14 118,31 139,34 21,3 154,17 218,15 0,0 54,5 113,-8 0,0 61,-13 93,-30 0,0 58,-31 77,-63 20,-33 24,-47 33,-83 0,0 25,-83 37,-115 13,-32 45,-105 59,-136 14,-31 36,-68 54,-91 17,-23 32,-42 36,-45 4,-3 15,-16 15,-16l3 -3 2 -1c0,0 -15,45 -22,78 -6,32 -15,74 -18,98 -3,24 -14,79 -16,91 -2,12 -6,45 -8,64 -2,20 -7,54 -8,59 -1,5 -3,12 -3,12 0,0 -27,24 -36,30 -10,6 -28,15 -28,15 0,0 -5,-3 -13,-3 -8,0 -23,-1 -23,-1 0,0 -33,31 -51,52 -18,21 -41,40 -52,51 -11,11 -32,21 -47,28 -15,7 -62,17 -88,23 -26,6 -93,19 -165,12 0,0 -67,-4 -114,-8 -47,-4 -104,-17 -129,-23 -26,-6 -64,-16 -78,-30 -14,-13 -14,-16 -15,-24 -1,-8 5,-17 5,-17z"/>
    <path class="fil1" d="M1817 7232c0,0 151,2358 133,2881l-13 2716 -306 4c-28,-1073 -386,-1937 -264,-2701 241,-898 268,-1443 98,-2282 0,0 -107,-608 351,-617z"/>
    <path class="fil7" d="M1731 12796c-16,14 -79,-6 -100,32 -25,46 -82,159 -99,199 -10,23 -58,103 -82,137 -24,34 -160,128 -187,147 -39,27 162,106 263,85 69,-15 114,-44 143,-88 0,0 32,-34 42,-84 21,-100 209,-309 228,-395 4,-21 -159,-75 -206,-33z"/>
    <path class="fil5" d="M2848 12998c0,0 -10,-16 -16,-29 -6,-13 -16,-34 -22,-57 -5,-22 -7,-41 -8,-58 -1,-17 1,-42 8,-76 8,-34 20,-59 23,-67 4,-7 22,-40 28,-48 6,-8 21,-28 25,-36 4,-8 12,-17 15,-27 3,-10 6,-18 7,-24 2,-6 2,-10 9,-18 7,-8 11,-10 17,-11 7,-1 21,1 30,4 8,3 24,12 34,17 10,5 24,14 32,23 7,9 39,37 56,59 18,22 48,59 63,79 16,21 44,53 53,68 9,15 31,44 39,59 8,15 27,55 35,69 8,14 46,80 51,89 5,8 34,54 39,63 5,9 51,83 64,99 13,16 37,48 46,56 8,8 24,28 36,38 12,10 27,22 34,25 0,0 21,3 34,14 13,11 34,35 49,47 14,12 55,38 69,48 14,10 36,31 43,44 7,13 14,20 14,34 0,14 -2,24 -2,24 0,0 -2,25 -44,39 -43,14 -124,29 -210,35 -86,6 -128,11 -193,6 -65,-5 -128,-26 -171,-54 -43,-28 -54,-53 -60,-65 -6,-13 -13,-29 -17,-46 -4,-18 -24,-75 -30,-96 -5,-21 -41,-109 -49,-126 -8,-17 -59,-112 -66,-124 -7,-12 -36,-47 -41,-52 -5,-5 -21,-23 -21,-23l-5 -3z"/>
    <path class="fil6" d="M3757 13504c0,0 -2,21 -29,35 -27,14 -118,31 -139,34 -21,3 -154,17 -218,15 0,0 -54,5 -113,-8 0,0 -61,-13 -93,-30 0,0 -58,-31 -77,-63 -20,-33 -24,-47 -33,-83 0,0 -25,-83 -37,-115 -13,-32 -45,-105 -59,-136 -14,-31 -36,-68 -54,-91 -17,-23 -32,-42 -36,-45 -4,-3 -15,-16 -15,-16l-3 -3 -2 -1c0,0 15,45 22,78 6,32 15,74 18,98 3,24 14,79 16,91 2,12 6,45 8,64 2,20 7,54 8,59 1,5 3,12 3,12 0,0 27,24 36,30 10,6 28,15 28,15 0,0 5,-3 13,-3 8,0 23,-1 23,-1 0,0 33,31 51,52 18,21 41,40 52,51 11,11 32,21 47,28 15,7 62,17 88,23 26,6 93,19 165,12 0,0 67,-4 114,-8 47,-4 104,-17 129,-23 26,-6 64,-16 78,-30 14,-13 14,-16 15,-24 1,-8 -5,-17 -5,-17z"/>
    <path class="fil7" d="M3061 12796c16,14 79,-6 100,32 25,46 82,159 99,199 10,23 58,103 82,137 24,34 160,128 187,147 39,27 -162,106 -263,85 -69,-15 -114,-44 -143,-88 0,0 -32,-34 -42,-84 -21,-100 -209,-309 -228,-395 -4,-21 159,-75 206,-33z"/>
    <path class="fil1" d="M2976 7232c0,0 -151,2358 -133,2881l13 2716 306 4c28,-1073 386,-1937 264,-2701 228,-738 -142,-1400 -98,-2282 0,0 107,-608 -351,-617z"/>
    <path class="fil8" d="M2625 1196c0,0 274,-120 505,97 230,217 68,362 271,469 203,107 55,405 292,540 237,135 81,469 -163,516 0,0 -117,309 -374,279 0,0 -238,264 -702,97l-171 -70 342 -1928z"/>
    <path class="fil8" d="M1721 1287c0,0 -308,40 -368,314 -60,274 -38,209 -207,349 -169,139 45,297 -90,437 -69,71 -101,129 -108,197 -12,118 70,224 184,256 78,22 142,96 188,196 92,199 421,113 421,113 0,0 311,181 501,47 190,-134 -97,-1987 -97,-1987l-426 80z"/>
    <polygon class="fil9" points="2147,2907 2582,3244 2534,2791 "/>
    <g>
     <g>
      <path class="fil1" d="M2622 2862l-9 168 -11 211c0,0 -42,79 -231,79 -189,0 -228,-54 -228,-54l-8 -94 -25 -311 512 0z"/>
     </g>
     <g>
      <path class="fil10" d="M2622 2862l-9 168c-79,59 -265,175 -477,142l-25 -311 512 0z"/>
     </g>
    </g>
    <path class="fil8" d="M2687 1211c0,0 -117,-287 -541,-287 -423,0 -554,441 -554,441l616 356 479 -510z"/>
    <path class="fil2" d="M1811 2232c42,94 38,246 -51,279 -89,34 -196,-88 -238,-181 -42,-94 -16,-176 73,-209 89,-34 173,18 215,111z"/>
    <path class="fil9" d="M1595 2242l1 0c3,-1 9,-2 19,-2 16,0 38,3 61,19 22,16 45,44 59,96 1,5 6,7 11,6 5,-1 7,-6 6,-11 -15,-55 -40,-87 -66,-105 -26,-18 -52,-22 -71,-22 -14,0 -24,2 -24,3 -5,1 -7,6 -6,11 1,5 6,7 11,6z"/>
    <path class="fil11" d="M1910 2715c-31,62 -94,104 -168,104 -52,0 -98,-21 -132,-55 -34,-34 -55,-80 -55,-132 0,-52 21,-98 55,-132 34,-34 80,-55 132,-55l0 -27c-118,0 -214,96 -214,214 0,118 96,214 214,214 84,0 157,-49 192,-119l-24 -12z"/>
    <path class="fil2" d="M2943 2232c-42,94 -38,246 51,279 89,34 196,-88 238,-181 42,-94 16,-176 -73,-209 -89,-34 -173,18 -216,111z"/>
    <path class="fil9" d="M3163 2225c-1,0 -10,-3 -24,-3 -18,0 -45,4 -71,22 -26,18 -50,51 -66,105 -1,5 1,9 6,11 5,1 9,-1 11,-6 14,-52 37,-80 59,-96 22,-16 45,-19 61,-19 6,0 11,1 15,1l4 1 1 0c5,1 9,-2 11,-6 1,-5 -1,-9 -6,-11z"/>
    <path class="fil11" d="M2828 2727c35,71 108,119 192,119 118,0 214,-96 214,-214 0,-118 -96,-214 -214,-214l0 27c52,0 98,21 132,55 34,34 55,80 55,132 0,52 -21,98 -55,132 -34,34 -80,55 -132,55 -74,0 -137,-42 -168,-104l-24 12z"/>
    <path class="fil8" d="M3127 1870c0,398 -336,721 -751,721 -415,0 -751,-323 -751,-721 0,-398 336,-721 751,-721 415,0 751,323 751,721z"/>
    <path class="fil2" d="M2376 1233l0 0c-347,0 -654,269 -654,600l20 398c0,0 7,564 542,735 59,19 124,19 183,0 535,-172 542,-735 542,-735l20 -398c0,-331 -307,-600 -654,-600z"/>
    <path class="fil12" d="M2244 2550c0,0 6,83 119,83 113,0 119,-83 119,-83l-239 0z"/>
    <path class="fil9" d="M2330 2319l0 92c0,5 4,9 9,9l68 1c5,0 9,-4 9,-9 0,-5 -4,-9 -9,-9l-59 -1 0 -84c0,-5 -4,-9 -9,-9 -5,0 -9,4 -9,9z"/>
    <path class="fil13" d="M2230 2184c0,0 -45,-114 -155,-120 -110,-5 -176,82 -176,82 0,0 28,97 162,104 134,6 170,-66 170,-66z"/>
    <path class="fil8" d="M1954 2153c-1,31 10,60 30,80 21,9 46,15 77,17 27,1 51,-1 70,-5 25,-19 41,-48 43,-82 1,-30 -9,-57 -27,-78 -20,-12 -44,-20 -72,-21 -34,-2 -64,6 -89,16 -19,19 -30,44 -32,72z"/>
    <path class="fil8" d="M2237 2182c0,0 -11,-31 -36,-62 -25,-31 -66,-62 -125,-63l-2 0c-116,0 -178,84 -179,85l1 9 9 -1 3 -3c13,-15 70,-76 166,-76l2 0c54,1 91,29 115,58 12,14 20,29 26,40 3,5 5,10 6,13l2 5c1,4 5,5 9,4 3,-1 5,-5 4,-9z"/>
    <path class="fil13" d="M2515 2184c0,0 45,-114 155,-120 110,-5 176,82 176,82 0,0 -28,97 -162,104 -134,6 -170,-66 -170,-66z"/>
    <path class="fil8" d="M2791 2153c1,31 -10,60 -30,80 -21,9 -46,15 -77,17 -27,1 -51,-1 -70,-5 -25,-19 -41,-48 -43,-82 -1,-30 9,-57 27,-78 20,-12 44,-20 72,-21 34,-2 64,6 89,16 19,19 31,44 32,72z"/>
    <path class="fil8" d="M2522 2186l2 -5c5,-11 18,-39 41,-63 24,-25 58,-47 106,-47l2 0c55,0 97,20 125,40 14,10 25,20 32,27 4,4 6,7 8,9l3 3 9 1 1 -9c-1,-1 -63,-85 -179,-85l-2 0c-59,1 -100,32 -125,63 -25,31 -36,61 -36,62 -1,3 1,7 4,9 3,1 7,-1 9,-4z"/>
    <path class="fil12" d="M2483 2550c0,0 -109,-60 -239,0 0,0 131,56 239,0z"/>
    <path class="fil9" d="M2212 2547c1,0 61,35 149,35 44,0 95,-9 149,-35 4,-2 6,-7 4,-12 -2,-4 -7,-6 -12,-4 -51,25 -100,33 -142,33 -42,0 -77,-8 -102,-17 -12,-4 -22,-8 -29,-11 -3,-2 -6,-3 -7,-4l-2 -1c-4,-2 -9,-1 -12,3 -2,4 -1,9 3,12z"/>
    <path class="fil8" d="M2687 1211c0,0 -28,314 -356,364 -334,51 -262,262 -668,211 0,0 -147,-230 71,-467 144,-157 425,-288 627,-266 68,7 229,136 326,157z"/>
    <path class="fil8" d="M2648 1250c0,0 -145,210 479,620 0,0 102,-145 34,-277 -67,-132 -513,-343 -513,-343z"/>
    <path class="fil14" d="M2162 1920c3,21 -14,40 -35,41 -71,2 -220,16 -293,92 0,0 24,-132 287,-165 20,-2 38,12 41,32z"/>
    <path class="fil14" d="M2554 1921c-2,21 15,40 36,40 71,0 221,9 295,83 0,0 -28,-131 -292,-156 -20,-2 -38,13 -40,33z"/>
    <g>
     <polygon class="fil8" points="2973,5531 1865,5531 1865,5362 2973,5362 "/>
     <path class="fil15" d="M1953 6028c-269,-41 -491,133 -552,398 -63,269 -108,595 -119,982 -26,963 21,1796 68,2229 24,219 209,385 430,385 225,0 412,-172 431,-396l191 -3040c23,-273 -169,-516 -440,-557 -3,0 -6,-1 -9,-1z"/>
     <path class="fil15 str0" d="M2205 9598l-130 2982 -716 0 -13 -2995c4,-235 195,-423 430,-423 240,0 433,196 430,435z"/>
     <path class="fil15" d="M2882 6028c269,-41 491,133 552,398 62,269 108,595 119,982 26,963 -21,1796 -68,2229 -24,219 -209,385 -430,385 -225,0 -412,-172 -431,-396l-191 -3040c-23,-273 169,-516 440,-557 3,0 6,-1 9,-1z"/>
     <path class="fil15" d="M2630 9598l130 2982 716 0 13 -2995c-4,-235 -195,-423 -430,-423 -240,0 -433,196 -430,435z"/>
     <path class="fil15" d="M2973 5531l-1108 0c0,0 -287,199 -445,832l840 481c98,59 218,59 316,0l839 -480c-170,-614 -442,-833 -442,-833z"/>
     <path class="fil16" d="M1908 5740c0,0 0,1 0,4 -2,20 -12,113 -59,211 -47,98 -130,201 -278,244 -6,2 -10,9 -8,15 2,6 9,10 15,8 166,-48 256,-169 302,-277 47,-108 52,-203 52,-203 0,-7 -5,-12 -11,-13 -7,0 -12,5 -13,11z"/>
     <path class="fil16" d="M2898 5741c0,1 6,96 52,203 47,107 136,228 302,277 6,2 13,-2 15,-8 2,-6 -2,-13 -8,-15 -158,-46 -242,-160 -287,-263 -23,-52 -35,-101 -42,-137 -4,-18 -6,-33 -7,-43 -1,-5 -1,-9 -1,-12 0,-3 0,-4 0,-4 0,-7 -6,-12 -13,-11 -7,0 -12,6 -11,13z"/>
    </g>
    <path class="fil17" d="M2654 3948c11,-112 -199,-243 -238,-304 -39,62 -249,192 -238,304 12,127 -373,-321 -392,-519l-1 3c-4,25 -38,103 102,303 122,173 500,852 530,1104 30,-252 406,-931 528,-1104 140,-199 107,-277 102,-303l-1 -3c-20,198 -404,646 -392,519z"/>
    <path class="fil18" d="M3892 3729c3,5 6,13 9,23l1 -3c-3,-7 -7,-14 -11,-20z"/>
    <polygon class="fil18" points="3891,3728 3891,3728 3891,3728 "/>
    <path class="fil18" d="M3516 4719c6,-140 -32,-975 366,-998 -76,-47 -587,-222 -699,-265 26,24 53,54 73,90 71,127 75,205 125,242 50,37 -391,66 -391,66l278 210c0,0 -311,356 -522,510 -65,48 -270,229 -320,311 11,50 27,117 33,153 379,-8 737,-100 1056,-259 0,-25 0,-45 0,-60z"/>
    <path class="fil19" d="M1786 3428c20,198 404,646 392,519 -11,-112 199,-243 238,-304 39,62 249,192 238,304 -12,127 373,-321 392,-519 -13,-67 -48,-81 -48,-81l4 -1c-30,-29 -69,-70 -108,-136 -7,-13 -18,-10 -36,5 -51,42 -164,186 -441,399 -278,-213 -390,-357 -441,-399 -18,-15 -29,-17 -36,-5 -39,65 -79,107 -108,136l4 1c0,0 -36,14 -48,81z"/>
    <path class="fil20" d="M2426 4886c-59,-51 -275,-264 -340,-311 -211,-154 -522,-510 -522,-510l278 -210c0,0 -441,-29 -391,-66 50,-37 54,-115 125,-242 22,-39 50,-70 78,-95 -131,49 -677,237 -701,269 400,21 362,858 368,999 1,18 1,44 0,76 327,157 694,245 1081,245 19,0 37,-1 56,-1 -6,-35 -22,-102 -33,-153z"/>
    <path class="fil21" d="M1576 3546c-71,127 -75,205 -125,242 -50,37 391,66 391,66l-278 210c0,0 311,356 522,510 65,48 281,260 340,311 50,-82 254,-264 320,-311 211,-154 522,-510 522,-510l-278 -210c0,0 441,-29 391,-66 -50,-37 -54,-115 -125,-242 -20,-36 -47,-66 -73,-90 -35,-32 -70,-55 -88,-70 -51,-43 -83,-41 -94,-39l-4 1c0,0 36,14 48,81l1 3c4,25 38,103 -102,303 -122,173 -498,852 -528,1104 -30,-252 -408,-931 -530,-1104 -140,-199 -107,-277 -102,-303l1 -3c13,-67 48,-81 48,-81l-4 -1c-10,-2 -43,-4 -94,39 -17,14 -49,36 -83,66 -28,25 -57,56 -78,95z"/>
    <path class="fil21" d="M1322 4719c-6,-140 32,-978 -368,-999 -22,-1 -93,327 -166,727 162,137 341,254 534,347 1,-31 1,-58 0,-76z"/>
    <path class="fil21" d="M3891 3728l0 0c-3,-5 -5,-7 -7,-7l-2 0c-398,24 -360,858 -366,998 -1,15 -1,36 0,60 192,-96 370,-215 531,-355 -58,-316 -114,-583 -145,-672 -3,-10 -7,-18 -9,-23l-1 -1z"/>
   </g>
  </g>
  <path class="fil22" d="M4923 2462c0,1360 -1102,2462 -2461,2462 -1360,0 -2462,-1102 -2462,-2462 0,-1359 1102,-2462 2462,-2462 1360,0 2461,1102 2461,2462z"/>
 </g>
</svg>
