<?xml version="1.0" encoding="UTF-8"?>
<!DOCTYPE svg PUBLIC "-//W3C//DTD SVG 1.1//EN" "http://www.w3.org/Graphics/SVG/1.1/DTD/svg11.dtd">
<!-- Creator: CorelDRAW X6 -->
<svg xmlns="http://www.w3.org/2000/svg" xml:space="preserve" width="49.9999mm" height="50mm" version="1.1" style="shape-rendering:geometricPrecision; text-rendering:geometricPrecision; image-rendering:optimizeQuality; fill-rule:evenodd; clip-rule:evenodd"
viewBox="0 0 3879 3879"
 xmlns:xlink="http://www.w3.org/1999/xlink">
 <defs>
  <style type="text/css">
   <![CDATA[
    .str0 {stroke:#31314B;stroke-width:5.91089}
    .str1 {stroke:#FEFEFE;stroke-width:15.5141}
    .fil50 {fill:none}
    .fil7 {fill:#84919A}
    .fil18 {fill:#2B2A29}
    .fil2 {fill:#EF7F1A}
    .fil3 {fill:#F6AC80}
    .fil19 {fill:#FEFEFE}
    .fil9 {fill:black}
    .fil17 {fill:#291FAC}
    .fil16 {fill:#31314B}
    .fil10 {fill:#995342}
    .fil6 {fill:#C11C56}
    .fil13 {fill:#DE5A62}
    .fil12 {fill:#ECB82D}
    .fil4 {fill:#F0E3E7}
    .fil0 {fill:#F8B133}
    .fil8 {fill:#FFAF82}
    .fil14 {fill:white}
    .fil15 {fill:#2B2A29;fill-rule:nonzero}
    .fil31 {fill:#4F1A0F;fill-rule:nonzero}
    .fil25 {fill:#4F2A18;fill-rule:nonzero}
    .fil39 {fill:#4F7728;fill-rule:nonzero}
    .fil47 {fill:#501813;fill-rule:nonzero}
    .fil24 {fill:#562D1D;fill-rule:nonzero}
    .fil37 {fill:#5B8A34;fill-rule:nonzero}
    .fil23 {fill:#62331A;fill-rule:nonzero}
    .fil43 {fill:#672318;fill-rule:nonzero}
    .fil38 {fill:#6B9A3D;fill-rule:nonzero}
    .fil29 {fill:#AF2838;fill-rule:nonzero}
    .fil5 {fill:#C11C56;fill-rule:nonzero}
    .fil28 {fill:#C32F3A;fill-rule:nonzero}
    .fil49 {fill:#C33146;fill-rule:nonzero}
    .fil26 {fill:#C38A52;fill-rule:nonzero}
    .fil42 {fill:#CCBDAA;fill-rule:nonzero}
    .fil46 {fill:#D63D4D;fill-rule:nonzero}
    .fil21 {fill:#DBA569;fill-rule:nonzero}
    .fil41 {fill:#DD2A2A;fill-rule:nonzero}
    .fil48 {fill:#E2ACB6;fill-rule:nonzero}
    .fil40 {fill:#ED3634;fill-rule:nonzero}
    .fil36 {fill:#F2E4CC;fill-rule:nonzero}
    .fil44 {fill:#F67587;fill-rule:nonzero}
    .fil30 {fill:#F6A8AA;fill-rule:nonzero}
    .fil45 {fill:#F6C6CD;fill-rule:nonzero}
    .fil11 {fill:#F78967;fill-rule:nonzero}
    .fil20 {fill:#F9DBC1;fill-rule:nonzero}
    .fil1 {fill:#FFAF82;fill-rule:nonzero}
    .fil34 {fill:#FFFDFD;fill-rule:nonzero}
    .fil22 {fill:white;fill-rule:nonzero}
    .fil27 {fill:#F2E1D1;fill-rule:nonzero;fill-opacity:0.160784}
    .fil33 {fill:#E4DDCC;fill-rule:nonzero;fill-opacity:0.188235}
    .fil32 {fill:white;fill-rule:nonzero;fill-opacity:0.188235}
    .fil35 {fill:#EFE4D3;fill-rule:nonzero;fill-opacity:0.431373}
   ]]>
  </style>
   <clipPath id="id0">
    <path d="M3879 1939c0,1071 -868,1939 -1939,1939 -1071,0 -1939,-868 -1939,-1939 0,-1071 868,-1939 1939,-1939 1071,0 1939,868 1939,1939z"/>
   </clipPath>
 </defs>
 <g id="Layer_x0020_1">
  <metadata id="CorelCorpID_0Corel-Layer"/>
  <path class="fil0" d="M3879 1939c0,1071 -868,1939 -1939,1939 -1071,0 -1939,-868 -1939,-1939 0,-1071 868,-1939 1939,-1939 1071,0 1939,868 1939,1939z"/>
  <g style="clip-path:url(#id0)">
   <g id="_1478027472">
    <g>
     <g>
      <g>
       <path id="1" class="fil1" d="M3076 5784c0,0 -31,104 -66,180 -35,76 -11,134 -32,202 -21,68 61,63 77,-8 16,-72 9,-105 24,-108 15,-2 58,172 64,222 6,50 -4,176 15,195 19,20 64,-51 50,-182 -14,-131 -4,-128 -4,-128 0,0 12,51 25,105 13,55 13,121 11,158 -2,37 36,56 47,36 11,-20 29,-150 14,-201 -15,-51 -33,-138 -33,-138 0,0 50,117 58,147 9,30 -6,145 21,166 11,9 46,-3 40,-167 0,0 -12,-80 -29,-130 0,0 27,37 40,87 12,44 18,90 22,134 4,44 42,38 42,-40 0,-78 -13,-164 -35,-206 -22,-42 -54,-285 -119,-374l-229 48z"/>
      </g>
     </g>
     <g>
      <path class="fil1" d="M2340 3176c0,0 193,894 350,1194 0,0 80,395 380,1430 0,0 157,62 248,-57 0,0 -168,-1143 -255,-1507 0,0 -282,-1282 -559,-1495 0,0 -143,162 -164,435z"/>
     </g>
    </g>
    <g>
     <g>
      <g>
       <path class="fil1" d="M673 5784c0,0 31,104 66,180 35,76 11,134 32,202 21,68 -61,63 -77,-8 -16,-72 -9,-105 -24,-108 -15,-2 -58,172 -64,222 -6,50 4,176 -15,195 -19,20 -64,-51 -50,-182 14,-131 4,-128 4,-128 0,0 -12,51 -25,105 -13,55 -13,121 -11,158 2,37 -36,56 -47,36 -11,-20 -29,-150 -14,-201 15,-51 33,-138 33,-138 0,0 -50,117 -58,147 -9,30 6,145 -21,166 -11,9 -46,-3 -40,-167 0,0 12,-80 29,-130 0,0 -27,37 -40,87 -12,44 -18,90 -22,134 -4,44 -42,38 -42,-40 0,-78 13,-164 35,-206 22,-42 54,-285 119,-374l229 48z"/>
      </g>
     </g>
     <g>
      <path class="fil1" d="M1409 3176c0,0 -193,894 -350,1194 0,0 -80,395 -380,1430 0,0 -157,62 -248,-57 0,0 168,-1143 255,-1507 0,0 282,-1282 559,-1495 0,0 143,162 164,435z"/>
     </g>
    </g>
    <path class="fil2" d="M2343 3864l654 -134 -150 -730c-37,-181 -214,-297 -394,-260 -181,37 -297,214 -260,394l150 730z"/>
    <path class="fil2" d="M1432 3868l-654 -134 150 -730c37,-181 214,-297 394,-260 181,37 297,214 260,394l-150 730z"/>
    <path class="fil2" d="M1851 2470l-738 299c-50,20 -77,76 -62,128l394 1320 871 0 373 -1337c15,-54 -14,-109 -67,-128l-773 -282z"/>
    <path class="fil3" d="M1340 2677l510 -207 547 199c0,0 -32,248 -530,248 -498,0 -527,-240 -527,-240z"/>
    <path class="fil4" d="M1344 3846l-172 -576c-2,-5 -7,-8 -12,-6 -5,1 -8,7 -6,12l172 576c2,5 7,8 12,6 5,-2 8,-7 6,-12z"/>
    <path class="fil4" d="M2438 3851l172 -576c1,-5 -1,-10 -6,-12 -5,-2 -10,1 -12,6l-172 576c-2,5 1,10 6,12 5,1 10,-1 12,-6z"/>
    <path class="fil5" d="M2356 3839c0,0 -396,280 -967,17 0,0 533,144 967,-17z"/>
    <path class="fil6" d="M1514 10240c0,0 7,-12 12,-22 5,-10 13,-27 17,-45 4,-17 6,-32 7,-45 1,-13 0,-33 -7,-59 -6,-27 -15,-47 -18,-52 -3,-6 -17,-31 -22,-38 -5,-7 -17,-22 -20,-28 -3,-6 -10,-14 -12,-21 -2,-7 -5,-14 -6,-19 -1,-5 -1,-7 -7,-14 -6,-7 -8,-8 -14,-9 -5,-1 -17,0 -23,3 -7,2 -19,9 -27,13 -7,4 -19,11 -25,18 -6,7 -30,29 -45,46 -14,17 -37,46 -50,62 -12,16 -35,42 -42,54 -7,12 -24,35 -30,47 -6,12 -21,44 -27,55 -6,11 -36,63 -40,70 -4,7 -27,43 -31,50 -4,7 -40,65 -51,78 -10,13 -30,38 -36,44 -7,6 -19,22 -28,30 -10,7 -22,17 -27,20 0,0 -17,3 -27,11 -10,9 -27,28 -38,37 -11,9 -44,30 -55,38 -11,8 -28,24 -34,35 -5,10 -11,16 -11,27 0,11 1,19 1,19 0,0 1,20 35,31 34,11 98,23 165,27 67,5 101,8 152,5 52,-4 101,-20 135,-42 34,-22 42,-42 47,-52 5,-10 10,-22 14,-37 3,-14 19,-59 23,-76 4,-17 32,-86 38,-99 6,-13 46,-88 52,-98 6,-10 29,-37 32,-41 4,-4 17,-18 17,-18l4 -2z"/>
    <path class="fil7" d="M798 10638c0,0 1,16 22,27 21,11 93,25 110,27 17,2 121,13 171,12 0,0 43,4 89,-6 0,0 48,-10 74,-24 0,0 45,-24 61,-50 15,-26 19,-37 26,-66 0,0 20,-66 30,-91 10,-25 35,-82 47,-107 11,-25 29,-53 42,-72 14,-18 25,-33 29,-35 3,-2 12,-12 12,-12l2 -2 1 0c0,0 -12,36 -17,61 -5,25 -12,59 -14,77 -2,19 -11,62 -12,72 -2,10 -5,35 -7,51 -2,15 -6,43 -6,47 0,4 -2,10 -2,10 0,0 -21,19 -29,23 -7,5 -22,12 -22,12 0,0 -4,-2 -10,-2 -6,0 -18,-1 -18,-1 0,0 -26,24 -40,41 -14,17 -32,32 -41,40 -9,9 -25,16 -37,22 -12,6 -49,13 -69,18 -21,5 -73,15 -130,10 0,0 -52,-3 -89,-7 -37,-3 -82,-13 -102,-18 -20,-5 -51,-13 -62,-23 -11,-10 -11,-13 -12,-19 0,-6 4,-14 4,-14z"/>
    <path class="fil1" d="M1414 5697c0,0 119,1858 105,2270l-10 2139 -241 3c-22,-845 -304,-1526 -208,-2128 190,-708 211,-1137 77,-1798 0,0 -84,-479 277,-486z"/>
    <path class="fil8" d="M1346 10080c-12,11 -62,-5 -78,25 -19,36 -65,125 -78,157 -7,18 -46,81 -65,108 -19,27 -126,101 -148,116 -31,21 127,84 207,67 55,-12 89,-35 112,-69 0,0 25,-27 33,-67 16,-79 165,-243 179,-311 3,-16 -125,-59 -163,-26z"/>
    <path class="fil6" d="M2226 10240c0,0 -7,-12 -12,-22 -5,-10 -13,-27 -17,-45 -4,-17 -6,-32 -7,-45 -1,-13 0,-33 7,-59 6,-27 15,-47 18,-52 3,-6 17,-31 22,-38 5,-7 17,-22 20,-28 3,-6 10,-14 12,-21 2,-7 5,-14 6,-19 1,-5 1,-7 7,-14 6,-7 8,-8 14,-9 5,-1 17,0 23,3 7,2 19,9 27,13 7,4 19,11 25,18 6,7 30,29 45,46 14,17 37,46 50,62 12,16 35,42 42,54 7,12 24,35 30,47 6,12 21,44 27,55 6,11 36,63 40,70 4,7 27,43 31,50 4,7 40,65 51,78 10,13 30,38 36,44 7,6 19,22 28,30 10,7 22,17 27,20 0,0 17,3 27,11 10,9 27,28 38,37 11,9 44,30 55,38 11,8 28,24 34,35 5,10 11,16 11,27 0,11 -1,19 -1,19 0,0 -1,20 -35,31 -34,11 -98,23 -165,27 -67,5 -101,8 -152,5 -52,-4 -101,-20 -135,-42 -34,-22 -42,-42 -47,-52 -5,-10 -10,-22 -14,-37 -3,-14 -19,-59 -23,-76 -4,-17 -32,-86 -38,-99 -6,-13 -46,-88 -52,-98 -6,-10 -29,-37 -32,-41 -4,-4 -17,-18 -17,-18l-4 -2z"/>
    <path class="fil7" d="M2942 10638c0,0 -1,16 -22,27 -21,11 -93,25 -110,27 -17,2 -121,13 -171,12 0,0 -43,4 -89,-6 0,0 -48,-10 -74,-24 0,0 -45,-24 -61,-50 -15,-26 -19,-37 -26,-66 0,0 -20,-66 -30,-91 -10,-25 -35,-82 -47,-107 -11,-25 -29,-53 -42,-72 -14,-18 -25,-33 -29,-35 -3,-2 -12,-12 -12,-12l-2 -2 -1 0c0,0 12,36 17,61 5,25 12,59 14,77 2,19 11,62 12,72 2,10 5,35 7,51 2,15 6,43 6,47 0,4 2,10 2,10 0,0 21,19 29,23 7,5 22,12 22,12 0,0 4,-2 10,-2 6,0 18,-1 18,-1 0,0 26,24 40,41 14,17 32,32 41,40 9,9 25,16 37,22 12,6 49,13 69,18 21,5 73,15 130,10 0,0 52,-3 89,-7 37,-3 82,-13 102,-18 20,-5 51,-13 62,-23 11,-10 11,-13 12,-19 0,-6 -4,-14 -4,-14z"/>
    <path class="fil8" d="M2394 10080c12,11 62,-5 78,25 19,36 65,125 78,157 7,18 46,81 65,108 19,27 126,101 148,116 31,21 -127,84 -207,67 -55,-12 -89,-35 -112,-69 0,0 -25,-27 -33,-67 -16,-79 -165,-243 -179,-311 -3,-16 125,-59 163,-26z"/>
    <path class="fil1" d="M2327 5697c0,0 -119,1858 -105,2270l10 2139 241 3c22,-845 304,-1526 208,-2128 180,-581 -112,-1103 -77,-1798 0,0 84,-479 -277,-486z"/>
    <path class="fil9" d="M2051 942c0,0 216,-94 398,76 182,171 53,285 214,369 160,85 43,319 230,425 187,107 64,369 -129,407 0,0 -92,244 -295,220 0,0 -187,208 -553,76l-134 -55 269 -1519z"/>
    <path class="fil9" d="M1339 1014c0,0 -243,31 -290,247 -47,216 -30,165 -163,275 -133,110 35,234 -71,344 -54,56 -80,102 -85,155 -9,93 55,176 145,202 61,17 112,76 148,155 72,157 332,89 332,89 0,0 245,143 395,37 150,-106 -76,-1565 -76,-1565l-335 63z"/>
    <polygon class="fil10" points="1674,2290 2017,2556 1979,2199 "/>
    <g>
     <g>
      <path class="fil1" d="M2048 2255l-7 133 -9 166c0,0 -33,62 -182,62 -149,0 -179,-43 -179,-43l-6 -74 -20 -245 403 0z"/>
     </g>
     <g>
      <path class="fil11" d="M2048 2255l-7 133c-62,46 -209,138 -376,112l-20 -245 403 0z"/>
     </g>
    </g>
    <path class="fil9" d="M2100 954c0,0 -93,-226 -426,-226 -333,0 -437,347 -437,347l485 281 377 -402z"/>
    <path class="fil3" d="M1409 1758c33,74 30,193 -40,220 -70,26 -154,-69 -187,-143 -33,-74 -13,-138 57,-165 70,-26 137,14 170,88z"/>
    <path class="fil10" d="M1239 1766l1 0c2,0 7,-1 15,-1 12,0 30,3 48,15 17,12 35,35 46,76 1,4 5,6 8,5 4,-1 6,-5 5,-8 -12,-43 -31,-69 -52,-83 -20,-14 -41,-18 -56,-18 -11,0 -19,2 -19,2 -4,1 -6,5 -5,8 1,4 5,6 8,5z"/>
    <path class="fil12" d="M1488 2139c-24,49 -74,82 -132,82 -41,0 -77,-16 -104,-43 -27,-27 -43,-63 -43,-104 0,-41 16,-77 43,-104 27,-27 63,-43 104,-43l0 -21c-93,0 -168,75 -168,168 0,93 75,168 168,168 66,0 124,-38 151,-94l-19 -9z"/>
    <path class="fil3" d="M2301 1758c-33,74 -30,193 40,220 70,26 154,-69 187,-143 33,-74 13,-138 -57,-165 -70,-26 -137,14 -170,88z"/>
    <path class="fil10" d="M2475 1753c0,0 -8,-2 -19,-2 -14,0 -35,3 -56,18 -20,14 -40,40 -52,83 -1,4 1,7 5,8 4,1 7,-1 8,-5 11,-41 29,-63 46,-76 18,-12 35,-15 48,-15 5,0 9,0 12,1l3 1 1 0c4,1 7,-1 8,-5 1,-4 -1,-7 -5,-8z"/>
    <path class="fil12" d="M2211 2148c27,56 85,94 151,94 93,0 168,-75 168,-168 0,-93 -75,-168 -168,-168l0 21c41,0 77,16 104,43 27,27 43,63 43,104 0,41 -16,77 -43,104 -27,27 -63,43 -104,43 -58,0 -108,-33 -132,-82l-19 9z"/>
    <path class="fil9" d="M2446 1473c0,314 -265,568 -592,568 -327,0 -592,-254 -592,-568 0,-314 265,-568 592,-568 327,0 592,254 592,568z"/>
    <path class="fil3" d="M1854 971l0 0c-274,0 -515,212 -515,473l16 313c0,0 6,444 427,579 47,15 98,15 144,0 422,-135 427,-579 427,-579l16 -313c0,-261 -242,-473 -515,-473z"/>
    <path class="fil13" d="M1751 2009c0,0 5,65 94,65 89,0 94,-65 94,-65l-188 0z"/>
    <path class="fil10" d="M1818 1827l0 73c0,4 3,7 7,7l53 1c4,0 7,-3 7,-7 0,-4 -3,-7 -7,-7l-47 -1 0 -66c0,-4 -3,-7 -7,-7 -4,0 -7,3 -7,7z"/>
    <path class="fil14" d="M1740 1721c0,0 -36,-90 -122,-94 -87,-4 -139,65 -139,65 0,0 22,77 127,82 105,5 134,-52 134,-52z"/>
    <path class="fil9" d="M1523 1696c-1,24 8,47 23,63 16,7 36,12 60,13 22,1 40,-1 55,-4 20,-15 33,-38 34,-65 1,-23 -7,-45 -21,-61 -16,-9 -34,-16 -56,-17 -27,-1 -50,4 -70,13 -15,15 -24,35 -25,57z"/>
    <path class="fil9" d="M1745 1719c0,0 -8,-24 -28,-48 -20,-24 -52,-49 -99,-49l-2 0c-91,0 -141,66 -141,67l1 7 7 -1 2 -3c10,-12 55,-60 130,-60l2 0c43,0 72,23 91,46 9,11 16,23 20,31 2,4 4,8 5,10l1 4c1,3 4,4 7,3 3,-1 4,-4 3,-7z"/>
    <path class="fil14" d="M1964 1721c0,0 36,-90 122,-94 87,-4 139,65 139,65 0,0 -22,77 -127,82 -105,5 -134,-52 -134,-52z"/>
    <path class="fil9" d="M2182 1696c1,24 -8,47 -23,63 -16,7 -36,12 -60,13 -22,1 -40,-1 -55,-4 -20,-15 -33,-38 -34,-65 -1,-23 7,-45 21,-61 16,-9 34,-16 56,-17 27,-1 50,4 70,13 15,15 24,35 25,57z"/>
    <path class="fil9" d="M1969 1723l1 -4c4,-9 14,-30 33,-50 19,-20 46,-37 83,-37l2 0c43,0 76,16 99,31 11,8 20,16 26,22 3,3 5,5 6,7l2 3 7 1 1 -7c0,0 -50,-67 -141,-67l-2 0c-47,0 -79,25 -99,49 -20,24 -28,48 -28,48 -1,3 0,6 3,7 3,1 6,0 7,-3z"/>
    <path class="fil13" d="M1939 2009c0,0 -86,-48 -188,0 0,0 103,44 188,0z"/>
    <path class="fil10" d="M1725 2006c1,0 48,28 117,28 35,0 75,-7 117,-27 3,-2 5,-6 3,-9 -2,-3 -6,-5 -9,-3 -41,20 -79,26 -112,26 -33,0 -61,-7 -80,-13 -10,-3 -17,-7 -23,-9 -3,-1 -5,-2 -6,-3l-2 -1c-3,-2 -7,-1 -9,2 -2,3 -1,7 2,9z"/>
    <path class="fil9" d="M2100 954c0,0 -22,248 -280,287 -263,40 -206,206 -526,166 0,0 -116,-181 56,-368 113,-124 335,-227 494,-210 53,6 180,107 257,124z"/>
    <path class="fil9" d="M2069 985c0,0 -114,165 377,488 0,0 80,-114 27,-218 -53,-104 -404,-270 -404,-270z"/>
    <path class="fil15" d="M1686 1512c2,17 -11,32 -28,32 -56,2 -174,12 -231,72 0,0 19,-104 226,-130 16,-2 30,9 32,25z"/>
    <path class="fil15" d="M1995 1513c-2,17 12,31 28,31 56,0 174,7 233,66 0,0 -22,-104 -230,-123 -16,-1 -30,10 -31,26z"/>
    <g>
     <polygon class="fil9" points="2325,4357 1452,4357 1452,4224 2325,4224 "/>
     <path class="fil16" d="M1522 4749c-212,-32 -387,105 -435,314 -49,212 -85,468 -94,774 -20,759 17,1415 54,1756 19,173 165,303 339,303 177,0 324,-135 339,-312l150 -2395c18,-215 -133,-406 -346,-439 -2,0 -5,-1 -7,-1z"/>
     <path class="fil16 str0" d="M1720 7561l-102 2349 -564 0 -11 -2359c3,-185 154,-333 339,-333 189,0 341,154 339,343z"/>
     <path class="fil16" d="M2253 4749c212,-32 387,105 435,314 49,212 85,468 94,774 20,759 -17,1415 -54,1756 -19,173 -165,303 -339,303 -177,0 -324,-135 -339,-312l-150 -2395c-18,-215 133,-406 346,-439 2,0 5,-1 7,-1z"/>
     <path class="fil16" d="M2054 7561l102 2349 564 0 11 -2359c-3,-185 -154,-333 -339,-333 -189,0 -341,154 -339,343z"/>
     <path class="fil16" d="M2325 4357l-873 0c0,0 -226,157 -350,656l662 379c77,46 172,46 249,0l661 -378c-134,-484 -348,-656 -348,-656z"/>
     <path class="fil17" d="M1486 4522c0,0 0,1 0,3 -1,16 -10,89 -47,166 -37,77 -102,158 -219,192 -5,1 -8,7 -6,12 1,5 7,8 12,6 131,-38 201,-133 238,-218 37,-85 41,-160 41,-160 0,-5 -4,-10 -9,-10 -5,0 -10,4 -10,9z"/>
     <path class="fil17" d="M2266 4523c0,1 4,75 41,160 37,85 107,180 238,218 5,1 10,-1 12,-6 1,-5 -1,-10 -6,-12 -124,-36 -190,-126 -226,-207 -18,-41 -28,-79 -33,-108 -3,-14 -4,-26 -5,-34 0,-4 -1,-7 -1,-9 0,-2 0,-3 0,-3 0,-5 -5,-9 -10,-9 -5,0 -9,5 -9,10z"/>
    </g>
    <path class="fil9" d="M1355 3486c0,0 -7,-695 -29,-803l-103 33c16,217 24,769 24,769l102 1 5 0z"/>
    <path class="fil9" d="M2403 3486l104 -1c0,0 8,-554 24,-771l-102 -33c-22,108 -29,805 -29,805l0 0 4 0z"/>
    <path class="fil18" d="M2403 3256l-4 0 -522 5 -522 -5 -5 0 -102 -1c-8,17 -8,244 -14,535 193,111 401,172 617,172 237,0 462,-73 670,-205 -6,-275 -6,-486 -13,-502l-105 1z"/>
    <rect class="fil19 str1" x="1152" y="3808" width="1437" height="103" rx="51" ry="51"/>
    <g>
     <g>
      <path class="fil20" d="M2047 3792l0 -30c0,0 135,-10 170,-16 0,0 120,-12 255,-58l1 48c0,0 -381,82 -425,56z"/>
      <path class="fil21" d="M2046 3743l0 28c0,0 76,2 149,-13l277 -54 0 -61 -425 100z"/>
      <path class="fil21" d="M2047 3842l3 36c0,0 48,6 88,-7 0,0 316,-52 332,-50l0 -39c0,0 -402,77 -424,60z"/>
      <path class="fil22" d="M2046 3806l1 41c0,0 38,6 122,-9l302 -49 0 -43c0,0 -147,35 -172,37 0,0 -175,38 -253,22z"/>
      <path class="fil23" d="M2046 3792l-1 18c0,0 108,0 144,-6 0,0 252,-20 282,-46l0 -29c0,0 -239,59 -426,64z"/>
      <path class="fil24" d="M2050 3733c-3,2 -7,5 -8,9 -1,4 2,9 6,8 3,-1 5,-5 7,-7 6,-5 16,1 23,-2 3,-1 5,-3 8,-5 14,-8 32,2 48,-2 11,-2 20,-11 31,-16 16,-7 34,-5 51,-7 22,-3 42,-15 64,-20 30,-7 62,-1 91,-12 14,-5 26,-14 40,-18 11,-3 23,-4 34,-2 7,1 14,3 20,1 7,-3 10,-10 9,-17 -1,-7 -5,-13 -10,-18 -10,-10 -25,-15 -39,-17 -23,-3 -47,0 -70,4 -35,7 -68,19 -101,31 -45,16 -90,32 -131,55 -10,6 -21,12 -32,17 -13,6 -27,9 -39,15l-1 1z"/>
      <path class="fil25" d="M2043 3749c0,0 -10,-6 24,-33 0,0 151,-146 169,-183 0,0 14,-2 24,1 0,0 150,10 207,97 0,0 2,-4 0,0 -2,4 -351,55 -425,118z"/>
      <path class="fil26" d="M2057 3854c0,1 -1,2 -2,2 -1,0 -2,-1 -2,-2 0,-1 1,-2 2,-2 1,0 2,1 2,2z"/>
      <path class="fil26" d="M2073 3861c0,2 -1,3 -3,3 -2,0 -3,-1 -3,-3 0,-2 1,-3 3,-3 2,0 3,1 3,3z"/>
      <path class="fil26" d="M2072 3853c0,1 -1,2 -2,2 -1,0 -2,-1 -2,-2 0,-1 1,-2 2,-2 1,0 2,1 2,2z"/>
      <path class="fil26" d="M2059 3867c0,1 -1,2 -2,2 -1,0 -2,-1 -2,-2 0,-1 1,-2 2,-2 1,0 2,1 2,2z"/>
      <path class="fil26" d="M2084 3855c0,1 -1,2 -2,2 -1,0 -2,-1 -2,-2 0,-1 1,-2 2,-2 1,0 2,1 2,2z"/>
      <path class="fil26" d="M2100 3873c0,1 -1,2 -2,2 -1,0 -2,-1 -2,-2 0,-1 1,-2 2,-2 1,0 2,1 2,2z"/>
      <path class="fil26" d="M2098 3854c0,1 -1,2 -2,2 -1,0 -2,-1 -2,-2 0,-1 1,-2 2,-2 1,0 2,1 2,2z"/>
      <path class="fil26" d="M2086 3868c0,1 -1,2 -2,2 -1,0 -2,-1 -2,-2 0,-1 1,-2 2,-2 1,0 2,1 2,2z"/>
      <path class="fil26" d="M2103 3864c0,2 -1,3 -3,3 -2,0 -3,-1 -3,-3 0,-2 1,-3 3,-3 2,0 3,1 3,3z"/>
      <path class="fil26" d="M2072 3872c0,1 -1,2 -2,2 -1,0 -2,-1 -2,-2 0,-1 1,-2 2,-2 1,0 2,1 2,2z"/>
      <path class="fil26" d="M2111 3849c0,1 -1,2 -2,2 -1,0 -2,-1 -2,-2 0,-1 1,-2 2,-2 1,0 2,1 2,2z"/>
      <path class="fil26" d="M2165 3847c0,2 -1,3 -3,3 -2,0 -3,-1 -3,-3 0,-2 1,-3 3,-3 2,0 3,1 3,3z"/>
      <path class="fil26" d="M2125 3848c0,1 -1,2 -2,2 -1,0 -2,-1 -2,-2 0,-1 1,-2 2,-2 1,0 2,1 2,2z"/>
      <path class="fil26" d="M2118 3860c0,1 -1,2 -2,2 -1,0 -2,-1 -2,-2 0,-1 1,-2 2,-2 1,0 2,1 2,2z"/>
      <path class="fil26" d="M2137 3850c0,1 -1,2 -2,2 -1,0 -2,-1 -2,-2 0,-1 1,-2 2,-2 1,0 2,1 2,2z"/>
      <path class="fil26" d="M2180 3842c0,1 -1,2 -2,2 -1,0 -2,-1 -2,-2 0,-1 1,-2 2,-2 1,0 2,1 2,2z"/>
      <path class="fil26" d="M2151 3848c0,1 -1,2 -2,2 -1,0 -2,-1 -2,-2 0,-1 1,-2 2,-2 1,0 2,1 2,2z"/>
      <path class="fil26" d="M2139 3862c0,1 -1,2 -2,2 -1,0 -2,-1 -2,-2 0,-1 1,-2 2,-2 1,0 2,1 2,2z"/>
      <path class="fil26" d="M2156 3858c0,2 -1,3 -3,3 -2,0 -3,-1 -3,-3 0,-2 1,-3 3,-3 2,0 3,1 3,3z"/>
      <path class="fil26" d="M2126 3867c0,1 -1,2 -2,2 -1,0 -2,-1 -2,-2 0,-1 1,-2 2,-2 1,0 2,1 2,2z"/>
      <path class="fil26" d="M2175 3856c0,2 -1,3 -3,3 -2,0 -3,-1 -3,-3 0,-2 1,-3 3,-3 2,0 3,1 3,3z"/>
      <path class="fil26" d="M2235 3836c0,2 -1,3 -3,3 -2,0 -3,-1 -3,-3 0,-2 1,-3 3,-3 2,0 3,1 3,3z"/>
      <path class="fil26" d="M2197 3840c0,1 -1,2 -2,2 -1,0 -2,-1 -2,-2 0,-1 1,-2 2,-2 1,0 2,1 2,2z"/>
      <path class="fil26" d="M2190 3852c0,1 -1,2 -2,2 -1,0 -2,-1 -2,-2 0,-1 1,-2 2,-2 1,0 2,1 2,2z"/>
      <path class="fil26" d="M2209 3842c0,1 -1,2 -2,2 -1,0 -2,-1 -2,-2 0,-1 1,-2 2,-2 1,0 2,1 2,2z"/>
      <path class="fil26" d="M2251 3838c0,1 -1,2 -2,2 -1,0 -2,-1 -2,-2 0,-1 1,-2 2,-2 1,0 2,1 2,2z"/>
      <path class="fil26" d="M2224 3840c0,1 -1,2 -2,2 -1,0 -2,-1 -2,-2 0,-1 1,-2 2,-2 1,0 2,1 2,2z"/>
      <path class="fil26" d="M2211 3855c0,1 -1,2 -2,2 -1,0 -2,-1 -2,-2 0,-1 1,-2 2,-2 1,0 2,1 2,2z"/>
      <path class="fil26" d="M2228 3850c0,2 -1,3 -3,3 -2,0 -3,-1 -3,-3 0,-2 1,-3 3,-3 2,0 3,1 3,3z"/>
      <path class="fil26" d="M2201 3851c0,1 -1,2 -2,2 -1,0 -2,-1 -2,-2 0,-1 1,-2 2,-2 1,0 2,1 2,2z"/>
      <path class="fil26" d="M2293 3826c0,2 -1,3 -3,3 -2,0 -3,-1 -3,-3 0,-2 1,-3 3,-3 2,0 3,1 3,3z"/>
      <path class="fil26" d="M2258 3831c0,1 -1,2 -2,2 -1,0 -2,-1 -2,-2 0,-1 1,-2 2,-2 1,0 2,1 2,2z"/>
      <path class="fil26" d="M2250 3845c0,1 -1,2 -2,2 -1,0 -2,-1 -2,-2 0,-1 1,-2 2,-2 1,0 2,1 2,2z"/>
      <path class="fil26" d="M2310 3823c0,1 -1,2 -2,2 -1,0 -2,-1 -2,-2 0,-1 1,-2 2,-2 1,0 2,1 2,2z"/>
      <path class="fil26" d="M2280 3828c0,1 -1,2 -2,2 -1,0 -2,-1 -2,-2 0,-1 1,-2 2,-2 1,0 2,1 2,2z"/>
      <path class="fil26" d="M2267 3842c0,1 -1,2 -2,2 -1,0 -2,-1 -2,-2 0,-1 1,-2 2,-2 1,0 2,1 2,2z"/>
      <path class="fil26" d="M2279 3836c0,2 -1,3 -3,3 -2,0 -3,-1 -3,-3 0,-2 1,-3 3,-3 2,0 3,1 3,3z"/>
      <path class="fil26" d="M2303 3835c0,2 -1,3 -3,3 -2,0 -3,-1 -3,-3 0,-2 1,-3 3,-3 2,0 3,1 3,3z"/>
      <path class="fil26" d="M2363 3816c0,2 -1,3 -3,3 -2,0 -3,-1 -3,-3 0,-2 1,-3 3,-3 2,0 3,1 3,3z"/>
      <path class="fil26" d="M2325 3819c0,1 -1,2 -2,2 -1,0 -2,-1 -2,-2 0,-1 1,-2 2,-2 1,0 2,1 2,2z"/>
      <path class="fil26" d="M2318 3831c0,1 -1,2 -2,2 -1,0 -2,-1 -2,-2 0,-1 1,-2 2,-2 1,0 2,1 2,2z"/>
      <path class="fil26" d="M2337 3821c0,1 -1,2 -2,2 -1,0 -2,-1 -2,-2 0,-1 1,-2 2,-2 1,0 2,1 2,2z"/>
      <path class="fil26" d="M2383 3813c0,1 -1,2 -2,2 -1,0 -2,-1 -2,-2 0,-1 1,-2 2,-2 1,0 2,1 2,2z"/>
      <path class="fil26" d="M2352 3820c0,1 -1,2 -2,2 -1,0 -2,-1 -2,-2 0,-1 1,-2 2,-2 1,0 2,1 2,2z"/>
      <path class="fil26" d="M2339 3834c0,1 -1,2 -2,2 -1,0 -2,-1 -2,-2 0,-1 1,-2 2,-2 1,0 2,1 2,2z"/>
      <path class="fil26" d="M2362 3830c0,2 -1,3 -3,3 -2,0 -3,-1 -3,-3 0,-2 1,-3 3,-3 2,0 3,1 3,3z"/>
      <path class="fil26" d="M2329 3830c0,1 -1,2 -2,2 -1,0 -2,-1 -2,-2 0,-1 1,-2 2,-2 1,0 2,1 2,2z"/>
      <path class="fil26" d="M2375 3825c0,2 -1,3 -3,3 -2,0 -3,-1 -3,-3 0,-2 1,-3 3,-3 2,0 3,1 3,3z"/>
      <path class="fil26" d="M2397 3819c0,2 -1,3 -3,3 -2,0 -3,-1 -3,-3 0,-2 1,-3 3,-3 2,0 3,1 3,3z"/>
      <path class="fil26" d="M2374 3811c0,2 -1,3 -3,3 -2,0 -3,-1 -3,-3 0,-2 1,-3 3,-3 2,0 3,1 3,3z"/>
      <path class="fil26" d="M2418 3805c0,2 -1,3 -3,3 -2,0 -3,-1 -3,-3 0,-2 1,-3 3,-3 2,0 3,1 3,3z"/>
      <path class="fil26" d="M2438 3803c0,1 -1,2 -2,2 -1,0 -2,-1 -2,-2 0,-1 1,-2 2,-2 1,0 2,1 2,2z"/>
      <path class="fil26" d="M2427 3812c0,1 -1,2 -2,2 -1,0 -2,-1 -2,-2 0,-1 1,-2 2,-2 1,0 2,1 2,2z"/>
      <path class="fil26" d="M2407 3809c0,1 -1,2 -2,2 -1,0 -2,-1 -2,-2 0,-1 1,-2 2,-2 1,0 2,1 2,2z"/>
      <path class="fil26" d="M2417 3819c0,2 -1,3 -3,3 -2,0 -3,-1 -3,-3 0,-2 1,-3 3,-3 2,0 3,1 3,3z"/>
      <path class="fil26" d="M2447 3812c0,2 -1,3 -3,3 -2,0 -3,-1 -3,-3 0,-2 1,-3 3,-3 2,0 3,1 3,3z"/>
      <path class="fil26" d="M2070 3748c0,1 -1,2 -2,2 -1,0 -2,-1 -2,-2 0,-1 1,-2 2,-2 1,0 2,1 2,2z"/>
      <path class="fil26" d="M2077 3758c0,2 -1,3 -3,3 -2,0 -3,-1 -3,-3 0,-2 1,-3 3,-3 2,0 3,1 3,3z"/>
      <path class="fil26" d="M2084 3746c0,1 -1,2 -2,2 -1,0 -2,-1 -2,-2 0,-1 1,-2 2,-2 1,0 2,1 2,2z"/>
      <path class="fil26" d="M2059 3761c0,1 -1,2 -2,2 -1,0 -2,-1 -2,-2 0,-1 1,-2 2,-2 1,0 2,1 2,2z"/>
      <path class="fil26" d="M2424 3671c0,1 -1,2 -2,2 -1,0 -2,-1 -2,-2 0,-1 1,-2 2,-2 1,0 2,1 2,2z"/>
      <path class="fil26" d="M2112 3767c0,1 -1,2 -2,2 -1,0 -2,-1 -2,-2 0,-1 1,-2 2,-2 1,0 2,1 2,2z"/>
      <path class="fil26" d="M2111 3747c0,1 -1,2 -2,2 -1,0 -2,-1 -2,-2 0,-1 1,-2 2,-2 1,0 2,1 2,2z"/>
      <path class="fil26" d="M2098 3761c0,1 -1,2 -2,2 -1,0 -2,-1 -2,-2 0,-1 1,-2 2,-2 1,0 2,1 2,2z"/>
      <path class="fil26" d="M2115 3757c0,2 -1,3 -3,3 -2,0 -3,-1 -3,-3 0,-2 1,-3 3,-3 2,0 3,1 3,3z"/>
      <path class="fil26" d="M2085 3765c0,1 -1,2 -2,2 -1,0 -2,-1 -2,-2 0,-1 1,-2 2,-2 1,0 2,1 2,2z"/>
      <path class="fil26" d="M2123 3743c0,1 -1,2 -2,2 -1,0 -2,-1 -2,-2 0,-1 1,-2 2,-2 1,0 2,1 2,2z"/>
      <path class="fil26" d="M2177 3740c0,2 -1,3 -3,3 -2,0 -3,-1 -3,-3 0,-2 1,-3 3,-3 2,0 3,1 3,3z"/>
      <path class="fil26" d="M2138 3741c0,1 -1,2 -2,2 -1,0 -2,-1 -2,-2 0,-1 1,-2 2,-2 1,0 2,1 2,2z"/>
      <path class="fil26" d="M2354 3699c0,1 -1,2 -2,2 -1,0 -2,-1 -2,-2 0,-1 1,-2 2,-2 1,0 2,1 2,2z"/>
      <path class="fil26" d="M2150 3743c0,1 -1,2 -2,2 -1,0 -2,-1 -2,-2 0,-1 1,-2 2,-2 1,0 2,1 2,2z"/>
      <path class="fil26" d="M2187 3729c0,1 -1,2 -2,2 -1,0 -2,-1 -2,-2 0,-1 1,-2 2,-2 1,0 2,1 2,2z"/>
      <path class="fil26" d="M2166 3731c0,1 -1,2 -2,2 -1,0 -2,-1 -2,-2 0,-1 1,-2 2,-2 1,0 2,1 2,2z"/>
      <path class="fil26" d="M2152 3756c0,1 -1,2 -2,2 -1,0 -2,-1 -2,-2 0,-1 1,-2 2,-2 1,0 2,1 2,2z"/>
      <path class="fil26" d="M2169 3752c0,2 -1,3 -3,3 -2,0 -3,-1 -3,-3 0,-2 1,-3 3,-3 2,0 3,1 3,3z"/>
      <path class="fil26" d="M2138 3760c0,1 -1,2 -2,2 -1,0 -2,-1 -2,-2 0,-1 1,-2 2,-2 1,0 2,1 2,2z"/>
      <path class="fil26" d="M2187 3749c0,2 -1,3 -3,3 -2,0 -3,-1 -3,-3 0,-2 1,-3 3,-3 2,0 3,1 3,3z"/>
      <path class="fil26" d="M2244 3727c0,2 -1,3 -3,3 -2,0 -3,-1 -3,-3 0,-2 1,-3 3,-3 2,0 3,1 3,3z"/>
      <path class="fil26" d="M2208 3720c0,1 -1,2 -2,2 -1,0 -2,-1 -2,-2 0,-1 1,-2 2,-2 1,0 2,1 2,2z"/>
      <path class="fil26" d="M2203 3746c0,1 -1,2 -2,2 -1,0 -2,-1 -2,-2 0,-1 1,-2 2,-2 1,0 2,1 2,2z"/>
      <path class="fil26" d="M2222 3735c0,1 -1,2 -2,2 -1,0 -2,-1 -2,-2 0,-1 1,-2 2,-2 1,0 2,1 2,2z"/>
      <path class="fil26" d="M2261 3720c0,1 -1,2 -2,2 -1,0 -2,-1 -2,-2 0,-1 1,-2 2,-2 1,0 2,1 2,2z"/>
      <path class="fil26" d="M2236 3734c0,1 -1,2 -2,2 -1,0 -2,-1 -2,-2 0,-1 1,-2 2,-2 1,0 2,1 2,2z"/>
      <path class="fil26" d="M2224 3748c0,1 -1,2 -2,2 -1,0 -2,-1 -2,-2 0,-1 1,-2 2,-2 1,0 2,1 2,2z"/>
      <path class="fil26" d="M2241 3744c0,2 -1,3 -3,3 -2,0 -3,-1 -3,-3 0,-2 1,-3 3,-3 2,0 3,1 3,3z"/>
      <path class="fil26" d="M2213 3744c0,1 -1,2 -2,2 -1,0 -2,-1 -2,-2 0,-1 1,-2 2,-2 1,0 2,1 2,2z"/>
      <path class="fil26" d="M2305 3719c0,2 -1,3 -3,3 -2,0 -3,-1 -3,-3 0,-2 1,-3 3,-3 2,0 3,1 3,3z"/>
      <path class="fil26" d="M2267 3709c0,1 -1,2 -2,2 -1,0 -2,-1 -2,-2 0,-1 1,-2 2,-2 1,0 2,1 2,2z"/>
      <path class="fil26" d="M2263 3738c0,1 -1,2 -2,2 -1,0 -2,-1 -2,-2 0,-1 1,-2 2,-2 1,0 2,1 2,2z"/>
      <path class="fil26" d="M2322 3717c0,1 -1,2 -2,2 -1,0 -2,-1 -2,-2 0,-1 1,-2 2,-2 1,0 2,1 2,2z"/>
      <path class="fil26" d="M2292 3721c0,1 -1,2 -2,2 -1,0 -2,-1 -2,-2 0,-1 1,-2 2,-2 1,0 2,1 2,2z"/>
      <path class="fil26" d="M2280 3735c0,1 -1,2 -2,2 -1,0 -2,-1 -2,-2 0,-1 1,-2 2,-2 1,0 2,1 2,2z"/>
      <path class="fil26" d="M2291 3730c0,2 -1,3 -3,3 -2,0 -3,-1 -3,-3 0,-2 1,-3 3,-3 2,0 3,1 3,3z"/>
      <path class="fil26" d="M2315 3728c0,2 -1,3 -3,3 -2,0 -3,-1 -3,-3 0,-2 1,-3 3,-3 2,0 3,1 3,3z"/>
      <path class="fil26" d="M2375 3709c0,2 -1,3 -3,3 -2,0 -3,-1 -3,-3 0,-2 1,-3 3,-3 2,0 3,1 3,3z"/>
      <path class="fil26" d="M2338 3712c0,1 -1,2 -2,2 -1,0 -2,-1 -2,-2 0,-1 1,-2 2,-2 1,0 2,1 2,2z"/>
      <path class="fil26" d="M2331 3725c0,1 -1,2 -2,2 -1,0 -2,-1 -2,-2 0,-1 1,-2 2,-2 1,0 2,1 2,2z"/>
      <path class="fil26" d="M2350 3715c0,1 -1,2 -2,2 -1,0 -2,-1 -2,-2 0,-1 1,-2 2,-2 1,0 2,1 2,2z"/>
      <path class="fil26" d="M2402 3683c0,1 -1,2 -2,2 -1,0 -2,-1 -2,-2 0,-1 1,-2 2,-2 1,0 2,1 2,2z"/>
      <path class="fil26" d="M2364 3713c0,1 -1,2 -2,2 -1,0 -2,-1 -2,-2 0,-1 1,-2 2,-2 1,0 2,1 2,2z"/>
      <path class="fil26" d="M2367 3692c0,1 -1,2 -2,2 -1,0 -2,-1 -2,-2 0,-1 1,-2 2,-2 1,0 2,1 2,2z"/>
      <path class="fil26" d="M2332 3698c0,2 -1,3 -3,3 -2,0 -3,-1 -3,-3 0,-2 1,-3 3,-3 2,0 3,1 3,3z"/>
      <path class="fil26" d="M2342 3724c0,1 -1,2 -2,2 -1,0 -2,-1 -2,-2 0,-1 1,-2 2,-2 1,0 2,1 2,2z"/>
      <path class="fil26" d="M2290 3705c0,2 -1,3 -3,3 -2,0 -3,-1 -3,-3 0,-2 1,-3 3,-3 2,0 3,1 3,3z"/>
      <path class="fil26" d="M2403 3703c0,2 -1,3 -3,3 -2,0 -3,-1 -3,-3 0,-2 1,-3 3,-3 2,0 3,1 3,3z"/>
      <path class="fil26" d="M2386 3704c0,2 -1,3 -3,3 -2,0 -3,-1 -3,-3 0,-2 1,-3 3,-3 2,0 3,1 3,3z"/>
      <path class="fil26" d="M2432 3685c0,2 -1,3 -3,3 -2,0 -3,-1 -3,-3 0,-2 1,-3 3,-3 2,0 3,1 3,3z"/>
      <path class="fil26" d="M2451 3683c0,1 -1,2 -2,2 -1,0 -2,-1 -2,-2 0,-1 1,-2 2,-2 1,0 2,1 2,2z"/>
      <path class="fil26" d="M2440 3705c0,1 -1,2 -2,2 -1,0 -2,-1 -2,-2 0,-1 1,-2 2,-2 1,0 2,1 2,2z"/>
      <path class="fil26" d="M2417 3697c0,1 -1,2 -2,2 -1,0 -2,-1 -2,-2 0,-1 1,-2 2,-2 1,0 2,1 2,2z"/>
      <path class="fil26" d="M2429 3702c0,2 -1,3 -3,3 -2,0 -3,-1 -3,-3 0,-2 1,-3 3,-3 2,0 3,1 3,3z"/>
      <path class="fil26" d="M2464 3694c0,2 -1,3 -3,3 -2,0 -3,-1 -3,-3 0,-2 1,-3 3,-3 2,0 3,1 3,3z"/>
      <path class="fil24" d="M2093 3735c6,-3 31,0 36,5 5,5 7,12 9,18 3,10 7,20 10,30 1,3 2,6 4,8 2,2 7,2 8,-1 1,-1 1,-3 1,-4 -1,-15 -4,-29 -4,-44 0,-15 6,-30 18,-38 2,-1 5,-3 6,-5 1,-2 1,-6 -1,-7 -2,-1 -3,0 -5,0 -13,4 -25,8 -38,13l-45 25z"/>
      <path class="fil23" d="M2340 3686c10,-4 33,8 37,17 3,5 6,11 11,13 5,1 11,-3 13,-8 2,-5 2,-11 2,-16 0,-4 0,-9 0,-13 0,-4 0,-9 4,-12 4,-2 9,0 11,4 3,3 4,8 7,11 3,3 8,6 11,4 3,-2 4,-7 5,-10 1,-4 2,-8 6,-9 4,0 7,3 10,4 4,1 9,-3 9,-8 0,-5 -3,-9 -7,-11 -4,-2 -9,-2 -13,-2 -34,0 -65,22 -99,25l-8 12z"/>
      <path class="fil27" d="M2383 3707c0,0 23,20 17,-24 0,0 0,23 -17,21 -4,-1 0,3 0,3z"/>
      <path class="fil27" d="M2426 3678c0,0 12,16 16,-12 0,0 -6,16 -16,12z"/>
      <path class="fil27" d="M2451 3662c0,0 10,9 12,-4 0,0 10,-6 4,-26 0,0 -3,31 -16,30z"/>
     </g>
     <g>
      <g>
       <path class="fil28" d="M1271 3665c0,0 74,-106 120,-118l183 4c0,0 93,56 78,124 0,0 -251,271 -380,-10z"/>
       <path class="fil29" d="M1291 3638c6,7 16,7 24,4 8,-3 14,-10 19,-17 4,25 31,43 55,38 5,10 16,16 27,16 11,0 22,-6 27,-16 10,13 28,25 43,18 12,-5 17,-19 27,-27 6,9 17,15 28,14 11,-1 21,-8 26,-18 9,8 22,11 33,7 11,-4 19,-15 21,-26 6,7 16,10 25,7 1,0 2,-1 3,-2 1,-2 0,-4 -1,-6 -9,-14 -26,-21 -43,-25 -21,-5 -43,-7 -64,-8 -78,-6 -158,-5 -233,20 -1,0 -2,1 -2,2 0,1 2,1 2,0l-16 20z"/>
       <path class="fil30" d="M1311 3591c0,0 -27,31 -16,40 1,1 2,1 3,1 18,6 30,-13 30,-13 0,0 -6,28 15,27 21,-1 21,-6 21,-6 0,0 -2,27 30,31 0,0 24,4 32,-23 0,0 16,40 48,29 0,0 22,-3 23,-34 0,0 16,34 44,21 0,0 13,-4 11,-19 0,0 53,31 53,-18 0,0 29,20 45,-5 0,0 -10,-32 -52,-68l-215 -10c0,0 -70,44 -72,48z"/>
       <path class="fil31" d="M1471 3505c0,0 -80,-18 -160,86 0,0 6,5 13,1 0,0 26,-9 29,-10 0,0 15,-8 14,9 0,0 0,38 16,41 0,0 20,5 29,-28 0,0 8,-29 23,-14 0,0 23,43 39,43 0,0 15,3 24,-36 0,0 6,-18 18,-9 0,0 19,39 41,46 0,0 25,8 23,-19 0,0 -27,-46 -5,-39l43 24c0,0 21,10 19,-7 0,0 -42,-101 -164,-89z"/>
       <path class="fil32" d="M1299 3612c0,0 -13,17 5,19 0,0 11,0 18,-15 0,0 -18,17 -23,-4z"/>
       <path class="fil32" d="M1334 3617c0,0 -14,31 23,22 0,0 -19,0 -23,-22z"/>
       <path class="fil32" d="M1371 3642c0,0 2,24 21,25 0,0 28,-2 29,-25 0,0 -33,23 -49,0z"/>
       <path class="fil32" d="M1431 3645c0,0 30,60 60,3 0,0 -27,25 -60,-3z"/>
       <path class="fil32" d="M1502 3644c0,0 25,29 44,0 0,0 -12,46 -44,0z"/>
       <path class="fil32" d="M1554 3639c0,0 28,23 45,-11 0,0 -6,46 -45,11z"/>
       <path class="fil33" d="M1611 3623c0,0 29,6 35,-8 0,0 -3,29 -35,8z"/>
       <path class="fil32" d="M1317 3579c1,-2 -8,13 2,13 0,0 16,-6 22,-9 0,0 -30,11 -24,-4z"/>
       <path class="fil32" d="M1372 3604c0,0 3,23 15,23 0,0 14,3 21,-27 0,0 -23,41 -37,4z"/>
       <path class="fil32" d="M1450 3604c0,0 10,24 23,23 0,0 12,2 18,-23 0,0 -15,37 -41,0z"/>
       <path class="fil32" d="M1543 3619c0,0 26,22 32,-4 0,0 -7,14 -32,4z"/>
       <path class="fil32" d="M1629 3586c0,0 -8,15 -24,3 0,0 23,24 26,0l-2 -3z"/>
      </g>
      <g>
       <g>
        <path class="fil34" d="M1268 3657c1,4 52,184 52,184 0,0 126,87 292,-4l53 -178 -12 5 5 8 -16 4 0 11 -16 -1 -2 11 -16 -3 -5 11 -17 -4 -6 10 -19 -3 -8 11 -18 -5 -11 10 -17 -8 -12 10 -16 -8 -13 7 -17 -7 -13 8 -14 -10 -13 6 -14 -9 -17 5 -6 -11 -19 4 -6 -10 -16 4 -5 -11 -14 3 -6 -9 -14 -4 -2 -9 -14 -2 4 -8 -12 -7z"/>
        <path class="fil35" d="M1320 3841c-3,-2 255,-7 318,-93l-26 90c0,0 -149,91 -292,4z"/>
        <polygon class="fil36" points="1324,3843 1276,3672 1290,3675 1329,3846 "/>
        <polygon class="fil36" points="1299,3685 1339,3853 1346,3855 1306,3687 "/>
        <polygon class="fil36" points="1321,3696 1363,3862 1367,3863 1331,3705 1326,3693 "/>
        <path class="fil36" d="M1343 3703c0,2 38,166 38,166l4 0 -32 -157 -6 -10 -4 1z"/>
        <path class="fil36" d="M1368 3709c0,2 30,164 30,164l6 1 -26 -155 -6 -11 -3 1z"/>
        <polygon class="fil36" points="1395,3713 1417,3875 1424,3877 1407,3721 "/>
        <polygon class="fil36" points="1436,3726 1445,3878 1437,3877 1422,3716 "/>
        <polygon class="fil36" points="1450,3718 1457,3878 1467,3878 1466,3725 "/>
        <polygon class="fil36" points="1480,3718 1478,3878 1489,3877 1495,3726 "/>
        <polygon class="fil36" points="1507,3716 1500,3875 1511,3874 1524,3724 "/>
        <polygon class="fil36" points="1534,3715 1520,3872 1532,3869 1552,3720 "/>
        <polygon class="fil36" points="1579,3712 1549,3864 1538,3867 1560,3709 "/>
        <polygon class="fil36" points="1585,3703 1555,3863 1569,3857 1602,3707 "/>
        <path class="fil36" d="M1607 3695c0,2 -33,160 -33,160l10 -4 38 -153 -16 -3z"/>
        <path class="fil36" d="M1641 3687c0,2 -46,159 -46,159l-6 2 40 -161 12 0z"/>
        <polygon class="fil36" points="1652,3674 1604,3841 1599,3843 1647,3675 "/>
       </g>
      </g>
      <g>
       <g>
        <path class="fil37" d="M1491 3529c2,2 69,-36 69,-36 0,0 -51,-44 -76,28 0,0 3,4 7,8z"/>
        <path class="fil38" d="M1489 3529c2,-1 71,-36 71,-36 0,0 0,62 -73,42 0,0 -3,-5 2,-6z"/>
       </g>
       <g>
        <path class="fil38" d="M1486 3524c0,-2 -9,-51 -9,-51 0,0 -30,33 11,63 0,0 0,-3 -2,-12z"/>
        <path class="fil39" d="M1485 3525c0,-2 -9,-52 -9,-52 0,0 40,15 11,63 0,0 -1,-2 -3,-11z"/>
       </g>
      </g>
      <g>
       <path class="fil40" d="M1477 3490c0,0 -21,-15 -35,0 0,0 -26,38 14,53l3 1c0,0 47,21 46,-41 0,0 -4,-19 -28,-13z"/>
       <path class="fil41" d="M1489 3489c0,0 3,58 -30,55 0,0 29,15 43,-16 0,0 15,-33 -13,-39z"/>
      </g>
     </g>
     <g>
      <polygon class="fil42" points="1680,3684 1697,3683 1713,3665 1717,3727 1691,3703 1686,3689 "/>
      <g>
       <path class="fil43" d="M1700 3721c0,0 -1,-49 19,-71l261 8c0,0 25,36 15,65 0,0 -261,51 -296,-3z"/>
       <path class="fil44" d="M1973 3625c0,0 22,-30 -26,-51 0,0 -77,-20 -92,-45l-5 -6c0,0 -22,11 3,39 0,0 111,53 121,63z"/>
       <path class="fil44" d="M1878 3669c0,0 24,23 39,20 0,0 31,1 26,-37 0,0 -1,-16 -34,-35 0,0 -90,-32 -103,-76l2 -13c0,0 -37,17 -4,60l45 57c0,0 38,13 27,23z"/>
       <path class="fil44" d="M1763 3562c0,0 -41,-3 -41,39 0,0 4,79 69,87 0,0 18,0 25,-14 0,0 -68,-39 -53,-112z"/>
       <path class="fil45" d="M1804 3531c0,0 -57,13 -41,78 0,0 23,60 70,78 0,0 34,23 51,-13 0,0 10,-11 -24,-36 0,0 -102,-69 -55,-108z"/>
       <path class="fil45" d="M1830 3535c0,0 1,24 63,41 0,0 80,22 90,59 0,0 18,39 -42,40 0,0 12,-37 -24,-48 0,0 -99,-32 -109,-87l22 -6z"/>
       <path class="fil46" d="M1844 3487c0,0 -30,-18 -39,1 0,0 -33,55 29,76 0,0 67,18 63,-54 0,0 -7,-44 -53,-23z"/>
       <path class="fil45" d="M1722 3601c0,-4 -29,30 -1,60 0,0 22,17 38,12 0,0 -37,-50 -37,-72z"/>
       <path class="fil43" d="M1845 3407l3 6 -13 31c0,0 -4,5 -1,13l8 40c0,0 5,1 5,-3l-8 -42c0,0 -1,-8 4,-14l12 -27 -7 -8 -3 4z"/>
       <polygon class="fil43" points="1848,3407 1830,3410 1832,3413 1850,3409 "/>
       <path class="fil37" d="M1842 3409c0,0 -8,-14 -33,-7l-23 14c0,0 17,27 40,11 0,0 11,-4 16,-18z"/>
       <path class="fil47" d="M1705 3679c0,0 198,88 280,-12 0,0 13,11 15,46 0,0 -250,86 -298,14 0,0 -12,-30 3,-48z"/>
      </g>
      <path class="fil48" d="M1942 3665c0,0 53,-15 6,-50 0,0 -74,-43 -95,-47l-4 -4 17 1c0,0 75,22 104,49 0,0 33,24 8,52 0,0 -18,18 -37,9 0,0 -1,-2 1,-10z"/>
      <g>
       <path class="fil22" d="M1680 3684c1,3 44,162 44,162 0,0 105,76 244,-3l44 -157 -10 5 4 7 -13 4 0 10 -13 -1 -2 10 -13 -3 -4 10 -14 -4 -5 8 -16 -3 -7 10 -15 -5 -9 8 -14 -7 -10 9 -13 -7 -11 6 -14 -6 -11 7 -12 -9 -11 5 -12 -8 -14 5 -5 -10 -16 4 -5 -9 -13 3 -4 -10 -12 3 -5 -8 -11 -3 -2 -8 -12 -2 3 -7 -10 -6z"/>
       <path class="fil35" d="M1723 3845c-3,-2 214,-6 266,-82l-22 79c0,0 -125,80 -244,3z"/>
       <polygon class="fil36" points="1727,3848 1687,3697 1699,3699 1731,3850 "/>
       <polygon class="fil36" points="1706,3709 1739,3856 1745,3858 1712,3710 "/>
       <polygon class="fil36" points="1724,3717 1759,3864 1763,3865 1733,3726 1728,3716 "/>
       <path class="fil36" d="M1743 3724c0,2 31,146 31,146l4 0 -27 -138 -5 -9 -3 1z"/>
       <path class="fil36" d="M1764 3729c0,1 25,144 25,144l5 1 -22 -136 -5 -10 -3 1z"/>
       <polygon class="fil36" points="1786,3733 1805,3876 1811,3877 1797,3739 "/>
       <polygon class="fil36" points="1821,3744 1829,3878 1821,3878 1809,3735 "/>
       <polygon class="fil36" points="1832,3737 1838,3878 1847,3878 1846,3744 "/>
       <polygon class="fil36" points="1857,3737 1856,3878 1865,3877 1870,3744 "/>
       <polygon class="fil36" points="1880,3735 1874,3876 1883,3874 1894,3743 "/>
       <polygon class="fil36" points="1903,3734 1891,3873 1901,3870 1918,3739 "/>
       <polygon class="fil36" points="1941,3732 1915,3866 1906,3868 1925,3729 "/>
       <polygon class="fil36" points="1946,3724 1921,3865 1932,3860 1960,3727 "/>
       <path class="fil36" d="M1964 3717c0,2 -28,141 -28,141l9 -4 32 -135 -13 -3z"/>
       <path class="fil36" d="M1992 3710c0,2 -39,140 -39,140l-5 1 34 -142 10 0z"/>
       <polygon class="fil36" points="2001,3698 1962,3845 1958,3847 1998,3699 "/>
      </g>
      <path class="fil49" d="M1856 3485c0,0 14,41 -11,34 0,0 -19,2 -24,-10 0,0 -8,56 21,56 3,0 57,17 55,-55 0,0 -15,-40 -42,-26z"/>
     </g>
    </g>
   </g>
  </g>
  <path class="fil50" d="M3879 1939c0,1071 -868,1939 -1939,1939 -1071,0 -1939,-868 -1939,-1939 0,-1071 868,-1939 1939,-1939 1071,0 1939,868 1939,1939z"/>
 </g>
</svg>
