<?xml version="1.0" encoding="UTF-8"?>
<!DOCTYPE svg PUBLIC "-//W3C//DTD SVG 1.1//EN" "http://www.w3.org/Graphics/SVG/1.1/DTD/svg11.dtd">
<!-- Creator: CorelDRAW X6 -->
<svg xmlns="http://www.w3.org/2000/svg" xml:space="preserve" width="49.9999mm" height="50mm" version="1.1" style="shape-rendering:geometricPrecision; text-rendering:geometricPrecision; image-rendering:optimizeQuality; fill-rule:evenodd; clip-rule:evenodd"
viewBox="0 0 1531 1531"
 xmlns:xlink="http://www.w3.org/1999/xlink">
 <defs>
  <style type="text/css">
   <![CDATA[
    .str1 {stroke:#2B2A29;stroke-width:2.33263}
    .str0 {stroke:#31314B;stroke-width:2.33263}
    .fil26 {fill:none}
    .fil4 {fill:#84919A}
    .fil22 {fill:#2B2A29}
    .fil2 {fill:#F6AC80}
    .fil6 {fill:black}
    .fil21 {fill:#111C14}
    .fil0 {fill:#15AFA7}
    .fil14 {fill:#291FAC}
    .fil13 {fill:#31314B}
    .fil20 {fill:#3A3A3A}
    .fil19 {fill:#534D46}
    .fil7 {fill:#995342}
    .fil3 {fill:#C11C56}
    .fil10 {fill:#DE5A62}
    .fil17 {fill:#E2AE83}
    .fil23 {fill:#E7B240}
    .fil25 {fill:#EABC60}
    .fil24 {fill:#EAEAEA}
    .fil9 {fill:#ECB82D}
    .fil18 {fill:#EDB888}
    .fil16 {fill:whitesmoke}
    .fil15 {fill:#F7DDCB}
    .fil5 {fill:#FFAF82}
    .fil11 {fill:white}
    .fil12 {fill:#2B2A29;fill-rule:nonzero}
    .fil8 {fill:#F78967;fill-rule:nonzero}
    .fil1 {fill:#FFAF82;fill-rule:nonzero}
   ]]>
  </style>
   <clipPath id="id0">
    <path d="M1531 765c0,423 -343,765 -765,765 -423,0 -765,-343 -765,-765 0,-423 343,-765 765,-765 423,0 765,343 765,765z"/>
   </clipPath>
 </defs>
 <g id="Layer_x0020_1">
  <metadata id="CorelCorpID_0Corel-Layer"/>
  <path class="fil0" d="M1531 765c0,423 -343,765 -765,765 -423,0 -765,-343 -765,-765 0,-423 343,-765 765,-765 423,0 765,343 765,765z"/>
  <g style="clip-path:url(#id0)">
   <g id="_1159531440">
    <g>
     <g>
      <g>
       <path id="1" class="fil1" d="M1221 2282c0,0 -12,41 -26,71 -14,30 -4,53 -13,80 -8,27 24,25 30,-3 6,-28 4,-42 9,-43 6,-1 23,68 25,88 2,20 -2,69 6,77 7,8 25,-20 20,-72 -6,-52 -1,-50 -1,-50 0,0 5,20 10,42 5,22 5,48 4,62 -1,15 14,22 18,14 4,-8 11,-59 5,-79 -6,-20 -13,-54 -13,-54 0,0 20,46 23,58 3,12 -2,57 8,66 4,3 18,-1 16,-66 0,0 -5,-32 -12,-51 0,0 11,15 16,34 5,17 7,35 9,53 2,17 17,15 17,-16 0,-31 -5,-65 -14,-81 -9,-16 -21,-112 -47,-148l-91 19z"/>
      </g>
     </g>
     <g>
      <path class="fil1" d="M930 1253c0,0 76,353 138,471 0,0 32,156 150,564 0,0 62,25 98,-22 0,0 -66,-451 -101,-595 0,0 -111,-506 -221,-590 0,0 -56,64 -65,172z"/>
     </g>
    </g>
    <g>
     <g>
      <g>
       <path class="fil1" d="M272 2282c0,0 12,41 26,71 14,30 4,53 13,80 8,27 -24,25 -30,-3 -6,-28 -4,-42 -9,-43 -6,-1 -23,68 -25,88 -2,20 2,69 -6,77 -7,8 -25,-20 -20,-72 6,-52 1,-50 1,-50 0,0 -5,20 -10,42 -5,22 -5,48 -4,62 1,15 -14,22 -18,14 -4,-8 -11,-59 -5,-79 6,-20 13,-54 13,-54 0,0 -20,46 -23,58 -3,12 2,57 -8,66 -4,3 -18,-1 -16,-66 0,0 5,-32 12,-51 0,0 -11,15 -16,34 -5,17 -7,35 -9,53 -2,17 -17,15 -17,-16 0,-31 5,-65 14,-81 9,-16 21,-112 47,-148l91 19z"/>
      </g>
     </g>
     <g>
      <path class="fil1" d="M563 1253c0,0 -76,353 -138,471 0,0 -32,156 -150,564 0,0 -62,25 -98,-22 0,0 66,-451 101,-595 0,0 111,-506 221,-590 0,0 56,64 65,172z"/>
     </g>
    </g>
    <path class="fil2" d="M737 975l-291 137c-20,9 -30,35 -24,59l156 607 344 0 147 -614c6,-25 -6,-50 -26,-59l-305 -129z"/>
    <path class="fil2" d="M536 1072l210 -85 225 82c0,0 -13,102 -219,102 -205,0 -217,-99 -217,-99z"/>
    <path class="fil3" d="M604 4041c0,0 3,-5 5,-9 2,-4 5,-11 7,-18 2,-7 2,-13 3,-18 0,-5 0,-13 -3,-23 -2,-11 -6,-18 -7,-21 -1,-2 -7,-12 -9,-15 -2,-3 -7,-9 -8,-11 -1,-2 -4,-5 -5,-8 -1,-3 -2,-6 -2,-7 0,-2 0,-3 -3,-6 -2,-3 -3,-3 -5,-3 -2,0 -7,0 -9,1 -3,1 -8,4 -11,5 -3,2 -8,4 -10,7 -2,3 -12,11 -18,18 -6,7 -15,18 -20,25 -5,6 -14,16 -16,21 -3,5 -10,14 -12,18 -2,5 -8,17 -11,22 -2,4 -14,25 -16,28 -1,3 -11,17 -12,20 -1,3 -16,26 -20,31 -4,5 -12,15 -14,17 -3,2 -7,9 -11,12 -4,3 -9,7 -11,8 0,0 -7,1 -11,4 -4,3 -11,11 -15,15 -4,4 -17,12 -22,15 -4,3 -11,10 -13,14 -2,4 -4,6 -4,11 0,4 0,7 0,7 0,0 0,8 14,12 13,4 39,9 65,11 27,2 40,3 60,2 20,-1 40,-8 53,-17 13,-9 17,-16 19,-20 2,-4 4,-9 5,-14 1,-6 8,-23 9,-30 2,-7 13,-34 15,-39 2,-5 18,-35 21,-39 2,-4 11,-15 13,-16 1,-1 7,-7 7,-7l1 -1z"/>
    <path class="fil4" d="M322 4198c0,0 0,6 9,11 8,4 37,10 43,11 7,1 48,5 68,5 0,0 17,1 35,-2 0,0 19,-4 29,-9 0,0 18,-10 24,-20 6,-10 8,-15 10,-26 0,0 8,-26 12,-36 4,-10 14,-33 18,-42 4,-10 11,-21 17,-28 5,-7 10,-13 11,-14 1,-1 5,-5 5,-5l1 -1 0 0c0,0 -5,14 -7,24 -2,10 -5,23 -6,31 -1,7 -4,24 -5,28 -1,4 -2,14 -3,20 -1,6 -2,17 -2,18 0,1 -1,4 -1,4 0,0 -8,7 -11,9 -3,2 -9,5 -9,5 0,0 -2,-1 -4,-1 -2,0 -7,0 -7,0 0,0 -10,10 -16,16 -6,7 -13,12 -16,16 -3,3 -10,6 -15,9 -5,2 -19,5 -27,7 -8,2 -29,6 -51,4 0,0 -21,-1 -35,-3 -15,-1 -32,-5 -40,-7 -8,-2 -20,-5 -24,-9 -4,-4 -4,-5 -5,-8 0,-2 1,-5 1,-5z"/>
    <path class="fil1" d="M565 2248c0,0 47,733 41,896l-4 844 -95 1c-9,-334 -120,-602 -82,-840 75,-279 83,-449 31,-710 0,0 -33,-189 109,-192z"/>
    <path class="fil5" d="M538 3978c-5,4 -25,-2 -31,10 -8,14 -26,49 -31,62 -3,7 -18,32 -26,43 -8,11 -50,40 -58,46 -12,8 50,33 82,26 22,-5 35,-14 44,-27 0,0 10,-11 13,-26 6,-31 65,-96 71,-123 1,-6 -49,-23 -64,-10z"/>
    <path class="fil3" d="M885 4041c0,0 -3,-5 -5,-9 -2,-4 -5,-11 -7,-18 -2,-7 -2,-13 -3,-18 0,-5 0,-13 3,-23 2,-11 6,-18 7,-21 1,-2 7,-12 9,-15 2,-3 7,-9 8,-11 1,-2 4,-5 5,-8 1,-3 2,-6 2,-7 0,-2 0,-3 3,-6 2,-3 3,-3 5,-3 2,0 7,0 9,1 3,1 8,4 11,5 3,2 8,4 10,7 2,3 12,11 18,18 6,7 15,18 20,25 5,6 14,16 16,21 3,5 10,14 12,18 2,5 8,17 11,22 2,4 14,25 16,28 1,3 11,17 12,20 1,3 16,26 20,31 4,5 12,15 14,17 3,2 7,9 11,12 4,3 9,7 11,8 0,0 7,1 11,4 4,3 11,11 15,15 4,4 17,12 22,15 4,3 11,10 13,14 2,4 4,6 4,11 0,4 0,7 0,7 0,0 0,8 -14,12 -13,4 -39,9 -65,11 -27,2 -40,3 -60,2 -20,-1 -40,-8 -53,-17 -13,-9 -17,-16 -19,-20 -2,-4 -4,-9 -5,-14 -1,-6 -8,-23 -9,-30 -2,-7 -13,-34 -15,-39 -2,-5 -18,-35 -21,-39 -2,-4 -11,-15 -13,-16 -1,-1 -7,-7 -7,-7l-1 -1z"/>
    <path class="fil4" d="M1168 4198c0,0 0,6 -9,11 -8,4 -37,10 -43,11 -7,1 -48,5 -68,5 0,0 -17,1 -35,-2 0,0 -19,-4 -29,-9 0,0 -18,-10 -24,-20 -6,-10 -8,-15 -10,-26 0,0 -8,-26 -12,-36 -4,-10 -14,-33 -18,-42 -4,-10 -11,-21 -17,-28 -5,-7 -10,-13 -11,-14 -1,-1 -5,-5 -5,-5l-1 -1 0 0c0,0 5,14 7,24 2,10 5,23 6,31 1,7 4,24 5,28 1,4 2,14 3,20 1,6 2,17 2,18 0,1 1,4 1,4 0,0 8,7 11,9 3,2 9,5 9,5 0,0 2,-1 4,-1 2,0 7,0 7,0 0,0 10,10 16,16 6,7 13,12 16,16 3,3 10,6 15,9 5,2 19,5 27,7 8,2 29,6 51,4 0,0 21,-1 35,-3 15,-1 32,-5 40,-7 8,-2 20,-5 24,-9 4,-4 4,-5 5,-8 0,-2 -1,-5 -1,-5z"/>
    <path class="fil5" d="M952 3978c5,4 25,-2 31,10 8,14 26,49 31,62 3,7 18,32 26,43 8,11 50,40 58,46 12,8 -50,33 -82,26 -22,-5 -35,-14 -44,-27 0,0 -10,-11 -13,-26 -6,-31 -65,-96 -71,-123 -1,-6 49,-23 64,-10z"/>
    <path class="fil1" d="M925 2248c0,0 -47,733 -41,896l4 844 95 1c9,-334 120,-602 82,-840 71,-229 -44,-435 -31,-710 0,0 33,-189 -109,-192z"/>
    <path class="fil6" d="M816 372c0,0 85,-37 157,30 72,67 21,112 84,146 63,33 17,126 91,168 74,42 25,146 -51,160 0,0 -36,96 -116,87 0,0 -74,82 -218,30l-53 -22 106 -599z"/>
    <path class="fil6" d="M535 400c0,0 -96,12 -114,98 -19,85 -12,65 -64,108 -53,43 14,92 -28,136 -21,22 -31,40 -33,61 -4,37 22,70 57,80 24,7 44,30 58,61 29,62 131,35 131,35 0,0 97,56 156,15 59,-42 -30,-618 -30,-618l-132 25z"/>
    <polygon class="fil7" points="667,904 803,1009 788,868 "/>
    <g>
     <g>
      <path class="fil1" d="M815 890l-3 52 -3 66c0,0 -13,25 -72,25 -59,0 -71,-17 -71,-17l-2 -29 -8 -97 159 0z"/>
     </g>
     <g>
      <path class="fil8" d="M815 890l-3 52c-24,18 -82,54 -148,44l-8 -97 159 0z"/>
     </g>
    </g>
    <path class="fil6" d="M835 376c0,0 -37,-89 -168,-89 -132,0 -172,137 -172,137l191 111 149 -158z"/>
    <path class="fil2" d="M563 694c13,29 12,76 -16,87 -28,10 -61,-27 -74,-56 -13,-29 -5,-55 23,-65 28,-10 54,5 67,35z"/>
    <path class="fil7" d="M496 697l0 0c1,0 3,-1 6,-1 5,0 12,1 19,6 7,5 14,14 18,30 0,1 2,2 3,2 1,0 2,-2 2,-3 -5,-17 -12,-27 -20,-33 -8,-6 -16,-7 -22,-7 -4,0 -7,1 -8,1 -1,0 -2,2 -2,3 0,1 2,2 3,2z"/>
    <path class="fil9" d="M594 844c-9,19 -29,32 -52,32 -16,0 -31,-6 -41,-17 -11,-11 -17,-25 -17,-41 0,-16 6,-31 17,-41 11,-11 25,-17 41,-17l0 -8c-37,0 -66,30 -66,66 0,37 30,66 66,66 26,0 49,-15 60,-37l-7 -4z"/>
    <path class="fil2" d="M915 694c-13,29 -12,76 16,87 28,10 61,-27 74,-56 13,-29 5,-55 -23,-65 -28,-10 -54,5 -67,35z"/>
    <path class="fil7" d="M983 692c0,0 -3,-1 -8,-1 -6,0 -14,1 -22,7 -8,6 -16,16 -20,33 0,1 0,3 2,3 1,0 3,0 3,-2 4,-16 11,-25 18,-30 7,-5 14,-6 19,-6 2,0 3,0 5,0l1 0 0 0c1,0 3,0 3,-2 0,-1 0,-3 -2,-3z"/>
    <path class="fil9" d="M879 848c11,22 33,37 60,37 37,0 66,-30 66,-66 0,-37 -30,-66 -66,-66l0 8c16,0 31,6 41,17 11,11 17,25 17,41 0,16 -6,31 -17,41 -11,11 -25,17 -41,17 -23,0 -43,-13 -52,-32l-7 4z"/>
    <path class="fil6" d="M972 581c0,124 -105,224 -234,224 -129,0 -234,-100 -234,-224 0,-124 105,-224 234,-224 129,0 234,100 234,224z"/>
    <path class="fil2" d="M739 383l0 0c-108,0 -203,84 -203,187l6 124c0,0 2,175 169,229 18,6 39,6 57,0 166,-53 169,-229 169,-229l6 -124c0,-103 -95,-187 -203,-187z"/>
    <path class="fil10" d="M698 793c0,0 2,26 37,26 35,0 37,-26 37,-26l-74 0z"/>
    <path class="fil7" d="M724 721l0 29c0,1 1,3 3,3l21 0c1,0 3,-1 3,-3 0,-1 -1,-3 -3,-3l-18 0 0 -26c0,-1 -1,-3 -3,-3 -1,0 -3,1 -3,3z"/>
    <path class="fil11" d="M693 679c0,0 -14,-36 -48,-37 -34,-2 -55,26 -55,26 0,0 9,30 50,32 42,2 53,-21 53,-21z"/>
    <path class="fil6" d="M608 669c0,10 3,19 9,25 6,3 14,5 24,5 8,0 16,0 22,-1 8,-6 13,-15 13,-25 0,-9 -3,-18 -8,-24 -6,-4 -14,-6 -22,-7 -11,-1 -20,2 -28,5 -6,6 -9,14 -10,22z"/>
    <path class="fil6" d="M695 678c0,0 -3,-10 -11,-19 -8,-10 -21,-19 -39,-20l-1 0c-36,0 -55,26 -56,26l0 3 3 0 1 -1c4,-5 22,-24 51,-24l1 0c17,0 28,9 36,18 4,4 6,9 8,12 1,2 1,3 2,4l1 1c0,1 2,2 3,1 1,0 2,-2 1,-3z"/>
    <path class="fil11" d="M782 679c0,0 14,-36 48,-37 34,-2 55,26 55,26 0,0 -9,30 -50,32 -42,2 -53,-21 -53,-21z"/>
    <path class="fil6" d="M868 669c0,10 -3,19 -9,25 -6,3 -14,5 -24,5 -8,0 -16,0 -22,-1 -8,-6 -13,-15 -13,-25 0,-9 3,-18 8,-24 6,-4 14,-6 22,-7 11,-1 20,2 28,5 6,6 9,14 10,22z"/>
    <path class="fil6" d="M784 680l1 -1c1,-3 5,-12 13,-20 7,-8 18,-14 33,-15l1 0c17,0 30,6 39,12 4,3 8,6 10,9 1,1 2,2 3,3l1 1 3 0 0 -3c0,0 -20,-26 -56,-26l-1 0c-18,0 -31,10 -39,20 -8,10 -11,19 -11,19 0,1 0,2 1,3 1,0 2,0 3,-1z"/>
    <path class="fil10" d="M772 793c0,0 -34,-19 -74,0 0,0 41,17 74,0z"/>
    <path class="fil7" d="M688 792c0,0 19,11 46,11 14,0 30,-3 46,-11 1,-1 2,-2 1,-4 -1,-1 -2,-2 -4,-1 -16,8 -31,10 -44,10 -13,0 -24,-3 -32,-5 -4,-1 -7,-3 -9,-4 -1,0 -2,-1 -2,-1l-1 0c-1,-1 -3,0 -4,1 -1,1 0,3 1,4z"/>
    <path class="fil6" d="M835 376c0,0 -9,98 -111,113 -104,16 -81,81 -208,66 0,0 -46,-71 22,-145 45,-49 132,-89 195,-83 21,2 71,42 101,49z"/>
    <path class="fil6" d="M823 389c0,0 -45,65 149,193 0,0 32,-45 11,-86 -21,-41 -159,-107 -159,-107z"/>
    <path class="fil12" d="M672 597c1,7 -4,12 -11,13 -22,1 -69,5 -91,29 0,0 7,-41 89,-51 6,-1 12,4 13,10z"/>
    <path class="fil12" d="M794 597c-1,7 5,12 11,12 22,0 69,3 92,26 0,0 -9,-41 -91,-49 -6,-1 -12,4 -12,10z"/>
    <g>
     <polygon class="fil6" points="924,1720 580,1720 580,1667 924,1667 "/>
     <path class="fil13" d="M607 1874c-84,-13 -153,41 -172,124 -19,84 -34,185 -37,305 -8,299 7,558 21,693 7,68 65,120 134,120 70,0 128,-53 134,-123l59 -945c7,-85 -53,-160 -137,-173 -1,0 -2,0 -3,0z"/>
     <path class="fil13 str0" d="M686 2984l-40 927 -223 0 -4 -931c1,-73 61,-132 134,-132 74,0 135,61 134,135z"/>
     <path class="fil13" d="M896 1874c84,-13 153,41 172,124 19,84 34,185 37,305 8,299 -7,558 -21,693 -7,68 -65,120 -134,120 -70,0 -128,-53 -134,-123l-59 -945c-7,-85 53,-160 137,-173 1,0 2,0 3,0z"/>
     <path class="fil13" d="M818 2984l40 927 223 0 4 -931c-1,-73 -61,-132 -134,-132 -75,0 -135,61 -134,135z"/>
     <path class="fil13" d="M924 1720l-344 0c0,0 -89,62 -138,259l261 150c30,18 68,18 98,0l261 -149c-53,-191 -137,-259 -137,-259z"/>
     <path class="fil14" d="M593 1784c0,0 0,0 0,1 -1,6 -4,35 -18,66 -15,31 -40,62 -86,76 -2,1 -3,3 -3,5 1,2 3,3 5,3 52,-15 79,-53 94,-86 15,-33 16,-63 16,-63 0,-2 -1,-4 -4,-4 -2,0 -4,1 -4,4z"/>
     <path class="fil14" d="M901 1785c0,0 2,30 16,63 15,33 42,71 94,86 2,1 4,-1 5,-3 1,-2 -1,-4 -3,-5 -49,-14 -75,-50 -89,-82 -7,-16 -11,-31 -13,-43 -1,-6 -2,-10 -2,-13 0,-2 0,-3 0,-4 0,-1 0,-1 0,-1 0,-2 -2,-4 -4,-4 -2,0 -4,2 -4,4z"/>
    </g>
    <polygon class="fil15" points="925,1198 926,1198 926,1198 "/>
    <polygon class="fil16" points="926,1198 926,1199 927,1198 926,1198 "/>
    <path class="fil17" d="M-853 982l1 2c0,-2 0,-3 1,-4 82,-62 114,-105 130,-117 -4,-13 -6,-26 -8,-38 -1,1 -3,3 -4,4 -11,10 -22,18 -35,26 -11,6 -22,11 -34,15 -11,3 -22,6 -33,7 -14,1 -28,1 -42,-1 -11,-2 -22,-5 -33,-9 -12,-5 -23,-11 -34,-18 -13,-8 -24,-18 -35,-29l-1 -1c-1,13 -3,28 -8,43 13,7 44,52 133,120z"/>
    <path class="fil18" d="M-943 848c11,7 22,13 34,18 11,4 22,7 33,9 14,2 28,3 42,1 11,-1 22,-3 33,-7 12,-4 23,-9 34,-15 13,-7 24,-16 35,-26 1,-1 3,-3 4,-4 2,-2 4,-4 6,-5 47,-45 46,-159 57,-151 26,17 42,-34 45,-65 2,-19 -3,-32 -10,-35 -2,7 -5,13 -7,15 -12,11 -18,38 -18,42l-16 0c-12,-13 -7,-57 -35,-94 -10,-14 -14,-30 -16,-44 -59,12 -117,14 -124,15l0 0 0 0 0 0 0 0c-2,0 -8,0 -17,-1 -17,12 -36,23 -31,11 7,-16 -25,9 -52,27 -28,18 -27,14 -17,-2 9,-16 -43,17 -50,30 -7,14 -9,55 -9,55l-20 0c0,-30 -21,-42 -21,-42 0,0 -2,-5 -3,-13 -8,2 -13,14 -11,35 3,31 20,82 45,65 11,-8 11,105 57,150l1 1c11,11 23,20 35,29z"/>
    <path class="fil19" d="M-722 489c2,14 6,30 16,44 28,37 23,81 35,94l16 0c1,-4 6,-31 18,-42 3,-2 5,-8 7,-15 8,-25 12,-73 7,-117 -26,17 -63,28 -100,36z"/>
    <path class="fil19" d="M-1045 624l20 0c0,0 2,-41 9,-55 7,-14 59,-46 50,-30 -9,16 -10,21 17,2 28,-18 59,-43 52,-27 -5,12 14,1 31,-11 -43,-3 -150,-13 -207,-50 -3,20 -5,41 -4,66 1,22 4,40 7,51 2,8 3,13 3,13 0,0 21,12 21,42z"/>
    <g>
     <path class="fil20" d="M691 376c-13,-14 -26,-34 -28,-60 -3,-37 10,-18 27,-24 17,-6 24,-23 35,-23 11,0 18,17 35,23 17,6 29,-13 27,24 -2,26 -14,46 -28,59 107,5 222,34 227,46 34,-40 46,-35 9,-83 -38,-50 -117,-119 -267,-119l0 0 -1 0 -1 0 0 0c-150,1 -229,70 -267,119 -37,48 -24,42 10,84 -1,-11 112,-41 220,-47z"/>
     <path class="fil21" d="M474 432l-4 -8c1,3 2,5 4,8z"/>
     <path class="fil22 str1" d="M579 413c-4,0 -7,0 -11,1 4,0 7,-1 11,-1zm-11 1c-4,0 -7,1 -11,1 4,0 7,-1 11,-1zm-57 5c-4,0 -8,1 -12,1 4,0 8,-1 12,-1zm-41 5l0 0 4 8 0 1 0 0c1,0 1,1 2,1 -1,0 -2,-1 -2,-1 6,11 16,21 29,29 57,37 164,48 207,50 9,1 15,1 17,1l0 0 0 0 0 0 0 0c8,0 65,-2 124,-15 36,-8 73,-19 100,-36 16,-10 28,-23 34,-38l0 -1c-5,-12 -120,-41 -227,-46 -14,14 -29,22 -35,22 -6,0 -21,-7 -34,-22 -108,6 -221,36 -220,47l0 0zm39 18c5,1 11,1 17,2 -6,-1 -12,-1 -17,-2zm72 7c4,0 7,1 11,1 -4,0 -7,-1 -11,-1z"/>
     <path class="fil23" d="M761 293c-17,-6 -24,-23 -35,-23 -11,0 -18,17 -35,23 -17,6 -29,-13 -27,24 2,26 14,46 28,60 14,14 29,22 34,22 6,0 21,-8 35,-22 13,-14 26,-34 28,-59 3,-37 -10,-18 -27,-24z"/>
    </g>
    <polygon class="fil17" points="743,1100 743,1100 743,1099 "/>
    <path class="fil17" d="M721 1248l-1 -1c0,1 1,2 1,4l0 -3z"/>
    <path class="fil16" d="M1136 1134c10,4 17,8 22,10 -4,-3 -12,-6 -22,-10z"/>
    <path class="fil16" d="M1026 1448c-3,11 -68,51 -84,51 -16,0 -85,-42 -87,-48 -3,-6 -5,-53 6,-53 11,0 146,0 157,0 8,0 11,39 8,51zm85 -260c-6,2 -23,-4 -43,-13l0 0 -20 -10 0 0c-5,-3 -11,-6 -16,-9l0 0 -17 -10 0 0c-7,-4 -13,-8 -19,-11l0 0 -1 0c-6,-4 -12,-7 -17,-10l0 0c-5,-3 -11,-7 -15,-10l0 0 -1 0c-2,-1 -4,-3 -6,-4l-8 -5c-2,-1 -4,-3 -6,-3 -26,-16 -34,-4 -14,-59 -8,-4 -15,-9 -21,-13 0,61 -104,214 -101,172 1,-10 -3,-21 -9,-32 -2,25 -14,43 -25,74 -1,2 -3,4 -5,6 3,35 14,196 25,369 98,-10 190,-48 270,-107 0,-109 5,-216 19,-245 13,-27 22,-55 31,-77z"/>
    <path class="fil24" d="M1018 1398c-11,0 -146,0 -157,0 -11,0 -9,47 -6,53 3,6 71,48 87,48 16,0 81,-39 84,-51 3,-11 1,-51 -8,-51z"/>
    <path class="fil6" d="M1032 1156c5,3 11,6 16,9 2,-5 29,-56 35,-55 -5,-2 -10,-4 -15,-7l0 0c-13,6 -21,25 -36,52z"/>
    <path class="fil6" d="M995 1134c6,4 13,8 19,11 1,-2 28,-53 33,-51 -3,-1 -7,-3 -10,-4 -3,-1 -5,-2 -8,-3 -13,8 -20,20 -35,47z"/>
    <path class="fil6" d="M1068 1175c20,10 37,16 43,13 13,-30 27,-49 51,-41 1,0 2,1 3,2 1,0 -1,-2 -8,-5 -5,-2 -12,-6 -22,-10 -8,-4 -19,-8 -31,-14 -13,6 -22,28 -37,55z"/>
    <path class="fil6" d="M962 1114c5,3 10,6 15,10 0,0 28,-46 33,-45 -6,-3 -12,-5 -17,-8 -12,8 -17,15 -32,43z"/>
    <path class="fil6" d="M977 1124c5,3 11,7 17,10l-17 -10z"/>
    <path class="fil6" d="M961 1114l-6 -4c2,1 4,3 6,4z"/>
    <path class="fil6" d="M941 1101c2,1 3,2 6,3l0 0c0,0 21,-44 27,-42 -29,-13 -46,-20 -46,-20l0 0c-20,55 -12,43 14,59z"/>
    <path class="fil25" d="M1048 1165l0 0 20 10 0 0c15,-27 25,-49 37,-55 0,0 -17,-7 -22,-10l0 0c-5,-2 -32,50 -35,55z"/>
    <path class="fil25" d="M1014 1146l0 0 17 10 0 0c15,-27 23,-46 36,-52l0 0c-1,0 -14,-6 -20,-9l0 0c-5,-2 -32,49 -33,51z"/>
    <path class="fil25" d="M977 1124l0 0 0 0 17 10 1 0c15,-27 22,-39 35,-47l0 0c0,0 -14,-6 -19,-8l0 0c-6,-2 -33,45 -33,45z"/>
    <path class="fil25" d="M946 1105l0 0 8 5 6 4 1 0 0 0c15,-27 20,-35 32,-43l0 0c0,0 -14,-6 -20,-9l0 0c-6,-2 -27,42 -27,42z"/>
    <path class="fil16" d="M327 1144c5,-2 12,-6 22,-10 -10,4 -17,7 -22,10z"/>
    <path class="fil16" d="M459 1448c-3,-11 -1,-51 8,-51 11,0 146,0 157,0 11,0 9,47 6,53 -3,6 -71,48 -87,48 -16,0 -81,-39 -84,-51zm7 -102l158 0 0 36 -158 0 0 -36zm255 -95c0,-1 -1,-2 -1,-4 -1,-1 -3,-3 -3,-5 -11,-32 -24,-50 -25,-76 -8,12 -13,24 -12,36 3,42 -103,-114 -101,-174 -7,4 -14,9 -21,13 20,55 12,43 -14,59 -2,1 -3,2 -6,3l-8 5c-2,1 -4,3 -6,4l-1 0 0 0c-5,3 -10,6 -15,10l0 0c-5,3 -11,7 -17,10l-1 0c-6,4 -13,8 -19,11l0 0 -17 10 0 0c-6,3 -11,6 -16,9l0 0 -20 10 0 0c-20,10 -36,16 -43,14 9,22 19,50 31,77 14,29 19,139 19,250 81,58 174,95 272,103 11,-170 21,-328 25,-368z"/>
    <path class="fil6" d="M766 1248c2,-1 4,-3 5,-6 11,-31 23,-49 25,-74 -17,-29 -49,-56 -53,-69l0 0c0,12 -32,38 -51,67 1,26 14,44 25,76 1,2 2,3 3,5l1 1 0 3c-3,40 -14,198 -25,368 14,1 28,2 43,2 17,0 35,-1 52,-3 -11,-173 -21,-335 -25,-369z"/>
    <path class="fil24" d="M630 1451c3,-6 5,-53 -6,-53 -11,0 -146,0 -157,0 -8,0 -11,39 -8,51 3,11 68,51 84,51 16,0 85,-42 87,-48z"/>
    <path class="fil24" d="M680 1203c-1,-12 4,-24 12,-36 18,-29 50,-55 51,-67l0 0 0 0c4,13 36,41 53,69 6,11 10,22 9,32 -3,42 101,-111 101,-172 0,-2 0,-3 0,-5 -1,-9 -21,-22 -39,-61 -2,-4 -5,-3 -9,2 -13,14 -42,60 -114,129 -1,1 -1,3 -1,4l-1 -2c-78,-75 -105,-124 -117,-132 -3,-2 -5,-2 -6,1 -18,39 -38,52 -39,61l0 3c-2,60 104,216 101,174z"/>
    <polygon class="fil24" points="624,1382 624,1346 466,1346 466,1382 "/>
    <path class="fil6" d="M374 1189c7,2 23,-4 43,-14 -15,-27 -25,-49 -37,-55 -13,5 -23,10 -31,14 -10,4 -17,8 -22,10 -7,4 -9,5 -7,5 1,-1 2,-1 3,-2 25,-8 39,11 52,41z"/>
    <path class="fil6" d="M471 1146c7,-4 13,-8 19,-11 -15,-27 -22,-39 -35,-47 -3,1 -5,2 -8,3 -3,2 -7,3 -10,4 6,-2 32,49 33,51z"/>
    <path class="fil6" d="M437 1165c5,-3 11,-6 16,-9 -15,-27 -24,-46 -36,-52l0 0c-5,2 -10,5 -15,7 5,-2 32,50 35,54z"/>
    <path class="fil6" d="M539 1105l0 0c2,-1 4,-3 6,-3 26,-16 34,-4 14,-59l0 0c0,0 -16,7 -46,20 6,-2 27,42 27,42z"/>
    <path class="fil6" d="M508 1124c6,-3 11,-7 15,-10 -15,-27 -20,-35 -32,-43 -5,2 -11,5 -17,8 6,-2 33,45 33,45z"/>
    <path class="fil6" d="M491 1134c6,-4 12,-7 17,-10l-17 10z"/>
    <path class="fil6" d="M530 1110l-6 4c2,-1 4,-3 6,-4z"/>
    <path class="fil25" d="M417 1175l0 0 20 -10 0 0c-2,-5 -29,-56 -35,-54l0 0c-5,2 -22,10 -22,10 13,6 22,28 37,55z"/>
    <path class="fil25" d="M454 1156l0 0 17 -10 0 0c-1,-2 -28,-53 -33,-51l0 0c-5,2 -19,8 -20,9l0 0c13,6 21,25 36,52z"/>
    <path class="fil25" d="M490 1134l0 0 1 0 17 -10 0 0c0,0 -28,-46 -33,-45l0 0c-6,2 -19,8 -19,8 13,8 20,20 35,47z"/>
    <path class="fil25" d="M523 1114l0 0 1 0 6 -4 8 -5 0 0c0,0 -21,-44 -27,-42l0 0c-5,2 -20,9 -20,9l0 0c12,8 17,16 32,43z"/>
    <path class="fil24" d="M406 1266c-13,-27 -22,-55 -31,-77 -13,-30 -27,-50 -52,-41 -1,0 -2,1 -3,2 -27,14 -47,95 -67,187 48,72 106,133 172,180 0,-111 -5,-221 -19,-250z"/>
    <path class="fil24" d="M1166 1149c-1,-1 -2,-1 -3,-2 -25,-8 -39,11 -51,41 -10,22 -19,50 -31,77 -13,29 -19,136 -19,245 65,-48 132,-75 179,-148 -19,-90 -48,-201 -75,-214z"/>
   </g>
  </g>
  <path class="fil26" d="M1531 765c0,423 -343,765 -765,765 -423,0 -765,-343 -765,-765 0,-423 343,-765 765,-765 423,0 765,343 765,765z"/>
 </g>
</svg>
