<?xml version="1.0" encoding="UTF-8"?>
<!DOCTYPE svg PUBLIC "-//W3C//DTD SVG 1.1//EN" "http://www.w3.org/Graphics/SVG/1.1/DTD/svg11.dtd">
<!-- Creator: CorelDRAW X6 -->
<svg xmlns="http://www.w3.org/2000/svg" xml:space="preserve" width="50mm" height="50mm" version="1.1" style="shape-rendering:geometricPrecision; text-rendering:geometricPrecision; image-rendering:optimizeQuality; fill-rule:evenodd; clip-rule:evenodd"
viewBox="0 0 3425 3425"
 xmlns:xlink="http://www.w3.org/1999/xlink">
 <defs>
  <style type="text/css">
   <![CDATA[
    .str2 {stroke:#498690;stroke-width:12.0822}
    .str1 {stroke:#A2D9F7;stroke-width:13.6986}
    .str0 {stroke:#B0CB1F;stroke-width:13.6986}
    .fil60 {fill:none}
    .fil39 {fill:none;fill-rule:nonzero}
    .fil52 {fill:#84919A}
    .fil3 {fill:#009846}
    .fil4 {fill:#727271}
    .fil2 {fill:#A2D9F7}
    .fil1 {fill:#B0CB1F}
    .fil5 {fill:#E31E24}
    .fil0 {fill:#EF7F1A}
    .fil59 {fill:black}
    .fil46 {fill:#1F0F0A}
    .fil54 {fill:#31314B}
    .fil7 {fill:#365E7D}
    .fil6 {fill:#407093}
    .fil57 {fill:#995342}
    .fil10 {fill:#BED8FB}
    .fil51 {fill:#C11C56}
    .fil9 {fill:#CBE2FF}
    .fil56 {fill:#DE5A62}
    .fil11 {fill:#E4F6FF}
    .fil8 {fill:#EABC6B}
    .fil12 {fill:#F4FBFF}
    .fil53 {fill:#FFAF82}
    .fil58 {fill:white}
    .fil55 {fill:#2B2A29;fill-rule:nonzero}
    .fil27 {fill:#003A44;fill-rule:nonzero}
    .fil26 {fill:#003F51;fill-rule:nonzero}
    .fil35 {fill:#030000;fill-rule:nonzero}
    .fil33 {fill:#060F15;fill-rule:nonzero}
    .fil42 {fill:#090000;fill-rule:nonzero}
    .fil32 {fill:#0F1A22;fill-rule:nonzero}
    .fil34 {fill:#170300;fill-rule:nonzero}
    .fil45 {fill:#1F0F0A;fill-rule:nonzero}
    .fil18 {fill:#2E1500;fill-rule:nonzero}
    .fil37 {fill:#368390;fill-rule:nonzero}
    .fil41 {fill:#3B7A7F;fill-rule:nonzero}
    .fil40 {fill:#498690;fill-rule:nonzero}
    .fil36 {fill:#5297A5;fill-rule:nonzero}
    .fil25 {fill:#60CEBB;fill-rule:nonzero}
    .fil24 {fill:#7BDECE;fill-rule:nonzero}
    .fil31 {fill:#ADEEF0;fill-rule:nonzero}
    .fil23 {fill:#B4C862;fill-rule:nonzero}
    .fil48 {fill:#C11C56;fill-rule:nonzero}
    .fil28 {fill:#D0FEFF;fill-rule:nonzero}
    .fil14 {fill:#E5E5E5;fill-rule:nonzero}
    .fil47 {fill:#E62F67;fill-rule:nonzero}
    .fil20 {fill:#F2813D;fill-rule:nonzero}
    .fil21 {fill:#F3E93B;fill-rule:nonzero}
    .fil13 {fill:#F3F3F3;fill-rule:nonzero}
    .fil50 {fill:#F78967;fill-rule:nonzero}
    .fil29 {fill:#F7FFFF;fill-rule:nonzero}
    .fil30 {fill:#FAFAFA;fill-rule:nonzero}
    .fil19 {fill:#FEFEFE;fill-rule:nonzero}
    .fil16 {fill:#FF9E54;fill-rule:nonzero}
    .fil17 {fill:#FFA587;fill-rule:nonzero}
    .fil38 {fill:#FFAE5F;fill-rule:nonzero}
    .fil49 {fill:#FFAF82;fill-rule:nonzero}
    .fil15 {fill:#FFB76A;fill-rule:nonzero}
    .fil43 {fill:#FFFEFF;fill-rule:nonzero}
    .fil22 {fill:white;fill-rule:nonzero}
    .fil44 {fill:#F3E93B;fill-rule:nonzero;fill-opacity:0.301961}
   ]]>
  </style>
   <clipPath id="id0">
    <path d="M1712 0c946,0 1712,767 1712,1712 0,946 -767,1712 -1712,1712 -946,0 -1712,-767 -1712,-1712 0,-946 767,-1712 1712,-1712z"/>
   </clipPath>
 </defs>
 <g id="Layer_x0020_1">
  <metadata id="CorelCorpID_0Corel-Layer"/>
  <path class="fil0" d="M1712 0c946,0 1712,767 1712,1712 0,946 -767,1712 -1712,1712 -946,0 -1712,-767 -1712,-1712 0,-946 767,-1712 1712,-1712z"/>
  <g style="clip-path:url(#id0)">
   <g id="_1169538992">
    <rect class="fil1 str0" x="-917" y="2342" width="4589" height="1182"/>
    <rect class="fil2 str1" x="-917" y="-318" width="4589" height="2660"/>
    <g>
     <path class="fil3" d="M2776 2467c-8,-16 -20,-29 -34,-38 -20,-13 -34,-33 -39,-56 -10,-47 -42,-88 -91,-106 -67,-25 -143,4 -177,67 -40,74 -8,166 67,200 25,11 192,91 240,61 43,-27 58,-83 35,-128z"/>
     <path class="fil3" d="M649 2467c8,-16 20,-29 34,-38 20,-13 34,-33 39,-56 10,-47 42,-88 91,-106 67,-25 143,4 177,67 40,74 8,166 -67,200 -30,14 -192,91 -240,61 -43,-27 -58,-83 -35,-128z"/>
     <g>
      <polygon class="fil4" points="2367,1156 1712,828 862,1254 862,2602 2367,2602 "/>
      <path class="fil4" d="M1712 828l-272 136 776 389c33,17 55,51 55,88l0 1161 293 0 0 -1348 -851 -426z"/>
     </g>
     <path class="fil5" d="M2461 1122l-726 -364c-14,-7 -31,-7 -46,0l-990 496c-17,9 -28,26 -28,45l0 80c0,38 40,62 74,45l944 -473c14,-7 31,-7 46,0l777 389 0 -162 -51 -58z"/>
     <path class="fil5" d="M2725 1254l-263 -132 0 194 218 109c34,17 74,-8 74,-45l0 -80c0,-19 -11,-37 -28,-45z"/>
     <path class="fil6" d="M2563 2680l23 -16 0 -62c0,-43 -35,-78 -78,-78l-1862 0c-43,0 -78,35 -78,78 0,43 35,78 78,78l1917 0z"/>
     <path class="fil7" d="M2778 2524l-293 0c43,0 78,35 78,78l0 78 215 0c43,0 78,-35 78,-78 0,-43 -35,-78 -78,-78z"/>
     <polygon class="fil8" points="1068,1751 1520,1751 1520,2524 1068,2524 "/>
     <path class="fil9" d="M2317 2087l-546 0c-22,0 -39,-18 -39,-39l0 -257c0,-22 18,-39 39,-39l546 0c22,0 39,18 39,39l0 257c0,22 -18,39 -39,39z"/>
     <path class="fil10" d="M2317 1751l-273 0 0 336 273 0c22,0 39,-18 39,-39l0 -257c0,-22 -18,-39 -39,-39z"/>
     <path class="fil11" d="M1561 1785l-535 0c-19,0 -35,-15 -35,-35 0,-19 15,-35 35,-35l535 0c19,0 35,15 35,35 0,19 -15,35 -35,35z"/>
     <path class="fil12" d="M1362 2202c-19,0 -35,-15 -35,-35l0 -60c0,-19 15,-35 35,-35 19,0 35,15 35,35l0 60c0,19 -15,35 -35,35z"/>
    </g>
    <path class="fil9" d="M2317 2083l-546 0c-22,0 -39,-18 -39,-39l0 -257c0,-22 18,-39 39,-39l546 0c22,0 39,18 39,39l0 257c0,22 -18,39 -39,39z"/>
    <path class="fil10" d="M2317 1747l-273 0 0 336 273 0c22,0 39,-18 39,-39l0 -257c0,-22 -18,-39 -39,-39z"/>
    <g>
     <g>
      <g>
       <g>
        <path class="fil13" d="M1486 1511c0,42 -34,77 -77,77 -42,0 -77,-34 -77,-77 0,-42 34,-77 77,-77 42,0 77,34 77,77z"/>
        <path class="fil14" d="M1486 1511c0,36 -29,65 -65,65 -36,0 -65,-29 -65,-65 0,-36 29,-65 65,-65 36,0 65,29 65,65z"/>
        <path class="fil13" d="M1666 1511c0,42 -34,77 -77,77 -42,0 -77,-34 -77,-77 0,-42 34,-77 77,-77 42,0 77,34 77,77z"/>
        <path class="fil14" d="M1641 1511c0,36 -29,64 -64,64 -36,0 -64,-29 -64,-64 0,-36 29,-64 64,-64 36,0 64,29 64,64z"/>
       </g>
       <g>
        <g>
         <g>
          <path class="fil15" d="M1387 1475c0,13 -9,23 -19,23 -11,0 -19,-10 -19,-23 0,-13 9,-23 19,-23 11,0 19,10 19,23z"/>
         </g>
         <g>
          <path class="fil16" d="M1650 1475c0,13 -9,23 -19,23 -11,0 -19,-10 -19,-23 0,-13 9,-23 19,-23 11,0 19,10 19,23z"/>
         </g>
        </g>
        <g>
         <g>
          <polygon class="fil15" points="1527,1749 1472,1749 1472,1630 1527,1630 "/>
         </g>
         <g>
          <path class="fil16" d="M1499 1668c-15,0 -28,-12 -28,-28l0 -6 55 0 0 6c0,15 -12,28 -28,28z"/>
         </g>
        </g>
        <g>
         <g>
          <path class="fil15" d="M1499 1639c-73,0 -132,-59 -132,-132l0 -82c0,-73 59,-132 132,-132 73,0 132,59 132,132l0 82c0,73 -59,132 -132,132z"/>
         </g>
         <g>
          <path class="fil16" d="M1631 1425l0 82c0,73 -59,132 -132,132 -26,0 -50,-7 -70,-20 15,6 30,9 47,9 73,0 132,-59 132,-132l0 -82c0,-36 -15,-69 -39,-93 -7,-7 -15,-13 -23,-18 17,7 33,17 46,30 24,24 39,57 39,93z"/>
         </g>
        </g>
        <g>
         <g>
          <path class="fil17" d="M1437 1490c0,11 -9,19 -19,19 -11,0 -19,-9 -19,-19 0,-11 9,-19 19,-19 11,0 19,9 19,19z"/>
         </g>
         <g>
          <path class="fil17" d="M1577 1490c0,11 -9,19 -19,19 -11,0 -19,-9 -19,-19 0,-11 9,-19 19,-19 11,0 19,9 19,19z"/>
         </g>
        </g>
        <g>
         <g>
          <g>
           <path class="fil18" d="M1446 1444c0,9 -6,16 -12,16 -7,0 -12,-7 -12,-16 0,-9 6,-16 12,-16 7,0 12,7 12,16z"/>
          </g>
         </g>
         <g>
          <g>
           <path class="fil18" d="M1530 1444c0,9 6,16 12,16 7,0 12,-7 12,-16 0,-9 -6,-16 -12,-16 -7,0 -12,7 -12,16z"/>
          </g>
         </g>
         <path class="fil19" d="M1408 1418c-1,0 -3,-1 -3,-2 -1,-2 -1,-4 1,-5 25,-17 45,0 45,0 2,1 2,4 0,6 -1,2 -4,2 -6,0 -1,-1 -15,-13 -36,0 -1,0 -1,1 -2,1z"/>
         <path class="fil19" d="M1527 1418c-1,0 -3,-1 -3,-2 -1,-2 -1,-4 1,-5 25,-17 45,0 45,0 2,1 2,4 0,6 -1,2 -4,2 -6,0 -1,-1 -15,-13 -36,0 -1,0 -1,1 -2,1z"/>
        </g>
        <path class="fil20" d="M1488 1506c0,0 -1,0 -1,0 -4,-2 -8,-6 -9,-11 -1,-5 -1,-10 2,-14l3 -6c1,-1 2,-1 3,-1 1,1 1,2 1,3l-3 6c-2,3 -3,7 -1,11 1,4 4,7 7,9 1,0 1,2 1,3 0,1 -1,1 -2,1z"/>
        <g>
         <path class="fil16" d="M1524 1382l-72 0c-1,0 -2,-1 -2,-2 0,-1 1,-2 2,-2l72 0c1,0 2,1 2,2 0,1 -1,2 -2,2z"/>
        </g>
        <g>
         <path class="fil16" d="M1517 1372l-59 0c-1,0 -2,-1 -2,-2 0,-1 1,-2 2,-2l59 0c1,0 2,1 2,2 0,1 -1,2 -2,2z"/>
        </g>
        <g>
         <path class="fil21" d="M1361 1503c8,0 8,-12 0,-12 -8,0 -8,12 0,12z"/>
        </g>
        <g>
         <path class="fil21" d="M1632 1502c8,0 8,-12 0,-12 -8,0 -8,12 0,12z"/>
        </g>
       </g>
       <path class="fil20" d="M1485 1556c-26,0 -42,-17 -42,-17 -1,-2 -1,-4 0,-6 2,-1 4,-1 6,0 1,1 32,33 76,0 2,-1 4,-1 5,1 1,2 1,4 -1,5 -17,13 -32,17 -44,17z"/>
       <g>
        <path class="fil13" d="M1546 1302c0,0 -45,-5 -54,9 -9,14 -68,17 -73,40 -6,24 -51,53 -51,100 0,0 -23,-4 -16,-50 8,-46 66,-128 131,-127 66,1 63,29 63,29z"/>
       </g>
       <path class="fil13" d="M1641 1421c-1,14 -4,22 -6,26 -1,2 -3,3 -3,4 0,0 0,0 -1,0 0,0 -14,-5 -14,-21 0,-16 -11,-42 -18,-66 -3,-10 -4,-16 -5,-20 -1,-4 -3,-6 -6,-8 -2,-1 -6,-2 -11,-2 -19,-2 -30,-30 -31,-32 0,0 0,0 0,0 0,0 -19,-1 -6,-13 13,-13 55,2 77,32 21,30 26,73 24,100z"/>
       <g>
        <g>
         <path class="fil16" d="M1444 1524c0,0 -9,7 -8,16 0,0 -10,-9 8,-16z"/>
        </g>
        <g>
         <path class="fil16" d="M1528 1524c0,0 9,7 8,16 0,0 10,-9 -8,-16z"/>
        </g>
       </g>
       <path class="fil22" d="M1527 1290c0,0 -82,-22 -118,33 0,0 7,-9 24,-11 0,0 -28,21 -29,43 0,0 29,-60 108,-59 0,0 -15,-5 -29,-2 0,0 24,-5 43,-4z"/>
       <path class="fil22" d="M1558 1299c0,0 4,10 31,30 27,20 29,39 29,39 0,0 -1,-27 -16,-41 0,0 13,10 16,22 0,0 -3,-35 -25,-42 -22,-8 -35,-17 -35,-17l14 17 -14 -8z"/>
       <path class="fil14" d="M1546 1302c0,0 -45,-5 -54,9 -9,14 -68,17 -73,40 -6,24 -51,53 -51,100 -17,-31 61,-120 74,-123 13,-3 9,-5 48,-22 39,-17 56,-4 56,-4z"/>
       <path class="fil14" d="M1588 1337c-2,-1 -6,-2 -11,-2 -19,-2 -30,-30 -31,-32 1,2 16,24 31,27 3,1 7,3 11,8z"/>
       <path class="fil14" d="M1635 1447c0,2 -1,3 -3,4 0,0 0,0 -1,0 0,0 -14,-5 -14,-21 0,-16 -11,-42 -18,-66 -3,-10 -4,-16 -5,-20 11,17 22,43 24,57 3,17 19,36 17,45z"/>
      </g>
      <g>
       <g>
        <g>
         <polygon class="fil16" points="1480,2954 1420,2954 1420,2245 1480,2245 "/>
        </g>
        <g>
         <path class="fil15" d="M1480 2954l0 20c0,11 -9,19 -19,19l-116 0c0,-7 2,-14 5,-19 7,-12 19,-20 34,-20l96 0z"/>
        </g>
        <g>
         <path class="fil23" d="M1480 2974c0,11 -9,19 -19,19l-116 0c0,-7 2,-14 5,-19l130 0z"/>
        </g>
       </g>
       <g>
        <g>
         <polygon class="fil15" points="1519,2954 1579,2954 1579,2245 1519,2245 "/>
        </g>
        <g>
         <polygon class="fil15" points="1480,2954 1420,2954 1420,2245 1480,2245 "/>
        </g>
        <g>
         <path class="fil16" d="M1420 2466l0 334c19,-6 39,-9 60,-11l0 -323 -60 0z"/>
        </g>
        <g>
         <path class="fil16" d="M1519 2466l0 327c20,-2 40,-4 60,-5l0 -323 -60 0z"/>
        </g>
        <g>
         <path class="fil15" d="M1519 2954l0 20c0,11 9,19 19,19l116 0c0,-7 -2,-14 -5,-19 -7,-12 -19,-20 -34,-20l-96 0z"/>
        </g>
        <g>
         <path class="fil23" d="M1519 2974c0,11 9,19 19,19l116 0c0,-7 -2,-14 -5,-19l-130 0z"/>
        </g>
       </g>
      </g>
      <g>
       <g>
        <path class="fil24" d="M1299 2006l0 0c-20,-6 -32,-27 -26,-47l61 -209c6,-20 27,-32 47,-26l0 0c20,6 32,27 26,47l-61 209c-6,20 -27,32 -47,26z"/>
       </g>
       <g>
        <path class="fil25" d="M1407 1772c2,-8 2,-17 -1,-24 0,3 0,11 -2,9 -46,-56 -82,157 -64,235 2,-3 4,-7 6,-11l61 -209z"/>
       </g>
      </g>
      <g>
       <path class="fil24" d="M1700 2006c20,-6 32,-27 26,-47l-61 -209c-6,-20 -27,-32 -47,-26 -20,6 -32,27 -26,47l61 209c6,20 27,32 47,26z"/>
      </g>
      <g>
       <path class="fil25" d="M1612 1745c-3,-3 -8,-5 -14,-6 -7,9 -9,21 -6,33l61 209c2,7 6,13 11,18 8,-66 9,-132 -9,-195 -13,-20 -27,-40 -43,-58z"/>
      </g>
      <g>
       <polygon class="fil26" points="1650,2739 1349,2739 1364,1965 1634,1965 "/>
      </g>
      <g>
       <path class="fil27" d="M1478 2312c67,16 98,70 110,129 19,79 36,154 61,227l-14 -704 -270 0 -7 347c39,-8 81,-8 121,1z"/>
      </g>
      <g>
       <path class="fil15" d="M1635 2134l-271 0 -19 -302c0,-86 69,-155 155,-155 86,0 155,69 155,155l-19 302z"/>
      </g>
      <g>
       <path class="fil28" d="M1654 1832l-19 302 -271 0 -19 -302c0,-65 40,-120 96,-143 10,-4 20,-7 31,-9 0,25 14,37 28,37l0 0c13,-1 27,-13 27,-37 32,6 60,21 82,43 28,28 45,67 45,109z"/>
      </g>
      <g>
       <path class="fil28" d="M1440 2212c0,0 12,-506 0,-524l0 524z"/>
      </g>
      <g>
       <path class="fil28" d="M1558 2212c0,0 -12,-506 0,-524l0 524z"/>
      </g>
      <g>
       <path class="fil28" d="M1500 1716c-45,25 -62,-7 -59,-23 0,-3 2,-5 3,-6 11,-8 28,-3 28,-3 0,25 14,32 28,32z"/>
      </g>
      <g>
       <path class="fil28" d="M1499 1716c45,25 62,-7 59,-23 0,-3 -2,-5 -3,-6 -11,-8 -28,-3 -28,-3 0,25 -14,32 -28,32z"/>
      </g>
      <g>
       <path class="fil29" d="M1500 1716c-45,25 -62,-11 -59,-28 0,-3 2,-5 3,-6 11,-8 28,-3 28,-3 0,25 14,37 28,37z"/>
      </g>
      <g>
       <path class="fil29" d="M1499 1716c45,25 62,-11 59,-28 0,-3 -2,-5 -3,-6 -11,-8 -28,-3 -28,-3 0,25 -14,37 -28,37z"/>
      </g>
      <g>
       <g>
        <g>
         <path class="fil29" d="M1507 1750c0,5 -4,9 -9,9 -5,0 -9,-4 -9,-9 0,-5 4,-9 9,-9 5,0 9,4 9,9z"/>
        </g>
        <g>
         <path class="fil30" d="M1492 1756c2,2 4,3 6,3 5,0 9,-4 9,-9 0,-1 0,-3 -1,-4 -4,5 -9,8 -15,10z"/>
        </g>
        <g>
         <g>
          <path class="fil28" d="M1500 1747c0,1 -1,2 -2,2 -1,0 -2,-1 -2,-2 0,-1 1,-2 2,-2 1,0 2,1 2,2z"/>
         </g>
         <g>
          <path class="fil28" d="M1500 1753c0,1 -1,2 -2,2 -1,0 -2,-1 -2,-2 0,-1 1,-2 2,-2 1,0 2,1 2,2z"/>
         </g>
        </g>
       </g>
       <g>
        <g>
         <path class="fil29" d="M1507 1806c0,5 -4,9 -9,9 -5,0 -9,-4 -9,-9 0,-5 4,-9 9,-9 5,0 9,4 9,9z"/>
        </g>
        <g>
         <path class="fil30" d="M1492 1812c2,2 4,3 6,3 5,0 9,-4 9,-9 0,-1 0,-3 -1,-4 -4,5 -9,8 -15,10z"/>
        </g>
        <g>
         <g>
          <path class="fil28" d="M1500 1803c0,1 -1,2 -2,2 -1,0 -2,-1 -2,-2 0,-1 1,-2 2,-2 1,0 2,1 2,2z"/>
         </g>
         <g>
          <path class="fil28" d="M1500 1810c0,1 -1,2 -2,2 -1,0 -2,-1 -2,-2 0,-1 1,-2 2,-2 1,0 2,1 2,2z"/>
         </g>
        </g>
       </g>
       <g>
        <g>
         <path class="fil29" d="M1507 1863c0,5 -4,9 -9,9 -5,0 -9,-4 -9,-9 0,-5 4,-9 9,-9 5,0 9,4 9,9z"/>
        </g>
        <g>
         <path class="fil30" d="M1492 1869c2,2 4,3 6,3 5,0 9,-4 9,-9 0,-1 0,-3 -1,-4 -4,5 -9,8 -15,10z"/>
        </g>
        <g>
         <g>
          <path class="fil28" d="M1500 1859c0,1 -1,2 -2,2 -1,0 -2,-1 -2,-2 0,-1 1,-2 2,-2 1,0 2,1 2,2z"/>
         </g>
         <g>
          <path class="fil28" d="M1500 1866c0,1 -1,2 -2,2 -1,0 -2,-1 -2,-2 0,-1 1,-2 2,-2 1,0 2,1 2,2z"/>
         </g>
        </g>
       </g>
       <g>
        <g>
         <path class="fil29" d="M1507 1919c0,5 -4,9 -9,9 -5,0 -9,-4 -9,-9 0,-5 4,-9 9,-9 5,0 9,4 9,9z"/>
        </g>
        <g>
         <path class="fil30" d="M1492 1925c2,2 4,3 6,3 5,0 9,-4 9,-9 0,-1 0,-3 -1,-4 -4,5 -9,8 -15,10z"/>
        </g>
        <g>
         <g>
          <path class="fil28" d="M1500 1916c0,1 -1,2 -2,2 -1,0 -2,-1 -2,-2 0,-1 1,-2 2,-2 1,0 2,1 2,2z"/>
         </g>
         <g>
          <path class="fil28" d="M1500 1922c0,1 -1,2 -2,2 -1,0 -2,-1 -2,-2 0,-1 1,-2 2,-2 1,0 2,1 2,2z"/>
         </g>
        </g>
       </g>
      </g>
      <g>
       <path class="fil31" d="M1621 1920c-38,69 -142,84 -203,42 -30,-21 -53,-50 -70,-83l16 255 271 0 18 -283c-9,24 -20,47 -32,70z"/>
      </g>
      <g>
       <path class="fil24" d="M1654 1832l-11 380 -85 0 0 -524c19,8 36,19 51,34 28,28 45,67 45,110z"/>
       <path class="fil24" d="M1440 1689l0 524 -85 0 -11 -380c0,-65 40,-120 96,-143z"/>
      </g>
      <g>
       <g>
        <g>
         <g>
          <g>
           <path class="fil24" d="M1438 2185l0 0c-17,11 -40,5 -50,-12l-110 -179c-11,-17 -5,-40 12,-50l0 0c17,-11 40,-5 50,12l110 179c11,17 5,40 -12,50z"/>
          </g>
          <g>
           <path class="fil25" d="M1450 2134l-110 -179c-2,-3 -4,-5 -6,-7 10,76 82,119 101,196 3,13 4,26 5,39 15,-11 20,-32 10,-49z"/>
          </g>
          <g>
           <g>
            <path class="fil15" d="M1470 2236c-1,0 -1,1 -2,1 -2,1 -3,2 -5,2 -12,4 -26,-1 -33,-12l-33 -53c-8,-13 -4,-31 9,-39 5,-3 10,-4 15,-4 4,0 9,1 13,3 5,2 9,6 12,11l33 53c8,13 4,31 -9,39z"/>
           </g>
           <g>
            <path class="fil16" d="M1470 2236c-1,0 -1,1 -2,1 -2,1 -3,1 -5,2 2,-38 -10,-73 -28,-106 5,2 9,6 12,11l33 53c8,13 4,31 -9,39z"/>
           </g>
           <g>
            <path class="fil15" d="M1500 2205c14,16 35,64 19,78 -16,14 -62,-13 -76,-28 -14,-16 -12,-39 3,-53 16,-14 39,-12 53,3z"/>
           </g>
           <g>
            <path class="fil16" d="M1519 2284c16,-14 -5,-63 -19,-78 -9,-10 -21,-14 -33,-12 9,9 20,17 18,31 -1,13 -13,39 -11,53 17,9 36,14 45,6z"/>
           </g>
          </g>
         </g>
        </g>
       </g>
       <g>
        <g>
         <g>
          <g>
           <path class="fil24" d="M1667 2213c20,2 38,-13 40,-33l19 -209c2,-20 -13,-38 -33,-40 -20,-2 -38,13 -40,33l-19 209c-2,20 13,38 33,40z"/>
          </g>
          <g>
           <path class="fil25" d="M1653 1964l-19 209c-1,10 2,20 9,27 29,-80 14,-175 27,-264 -9,6 -15,16 -16,27z"/>
          </g>
          <g>
           <g>
            <path class="fil15" d="M1661 2273c1,0 1,0 2,0 2,0 4,0 5,0 13,-2 23,-12 24,-26l6 -62c1,-16 -10,-30 -26,-31 -5,0 -11,1 -15,3 -4,2 -7,5 -10,8 -3,4 -5,9 -6,15l-6 62c-1,16 10,30 26,31z"/>
           </g>
           <g>
            <path class="fil16" d="M1661 2273c1,0 1,0 2,0 2,0 4,0 5,0 -18,-33 -23,-70 -22,-108 -3,4 -5,9 -6,15l-6 62c-1,16 10,30 26,31z"/>
           </g>
           <g>
            <path class="fil15" d="M1620 2259c-6,20 -3,73 17,79 20,6 50,-39 55,-59 6,-20 -6,-41 -26,-46 -20,-6 -41,6 -46,26z"/>
           </g>
           <g>
            <path class="fil16" d="M1638 2338c-20,-6 -23,-59 -17,-79 3,-12 13,-22 24,-26 -5,12 -10,24 -2,36 7,11 29,29 33,43 -11,16 -26,29 -38,26z"/>
           </g>
          </g>
         </g>
        </g>
       </g>
      </g>
      <path class="fil24" d="M1334 1750c0,0 11,-44 107,-61 0,30 0,58 0,58l-107 3z"/>
      <path class="fil24" d="M1665 1750c0,0 -11,-44 -107,-61 0,30 0,58 0,58l107 3z"/>
     </g>
     <g>
      <g>
       <g>
        <g>
         <g>
          <g>
           <path class="fil15" d="M1795 1358c0,13 -9,24 -20,24 -11,0 -20,-11 -20,-24 0,-13 9,-24 20,-24 11,0 20,11 20,24z"/>
          </g>
          <g>
           <path class="fil16" d="M2067 1358c0,13 -9,24 -20,24 -11,0 -20,-11 -20,-24 0,-13 9,-24 20,-24 11,0 20,11 20,24z"/>
          </g>
         </g>
         <g>
          <g>
           <polygon class="fil15" points="1940,1640 1883,1640 1883,1517 1940,1517 "/>
          </g>
          <g>
           <path class="fil16" d="M1911 1557c-16,0 -28,-13 -28,-28l0 -6 57 0 0 6c0,16 -13,28 -28,28z"/>
          </g>
         </g>
         <g>
          <g>
           <path class="fil15" d="M1911 1527c-75,0 -136,-61 -136,-136l0 -84c0,-75 61,-136 136,-136 75,0 136,61 136,136l0 84c0,75 -61,136 -136,136z"/>
          </g>
          <g>
           <path class="fil16" d="M2047 1307l0 84c0,75 -61,136 -136,136 -27,0 -51,-8 -72,-21 15,6 31,9 48,9 75,0 136,-61 136,-136l0 -84c0,-37 -15,-71 -40,-96 -7,-7 -15,-14 -24,-19 18,7 34,17 48,31 25,25 40,58 40,96z"/>
          </g>
         </g>
         <g>
          <g>
           <path class="fil17" d="M1847 1373c0,11 -9,20 -20,20 -11,0 -20,-9 -20,-20 0,-11 9,-20 20,-20 11,0 20,9 20,20z"/>
          </g>
          <g>
           <path class="fil17" d="M1991 1373c0,11 -9,20 -20,20 -11,0 -20,-9 -20,-20 0,-11 9,-20 20,-20 11,0 20,9 20,20z"/>
          </g>
         </g>
         <g>
          <g>
           <g>
            <path class="fil18" d="M1856 1326c0,9 -6,16 -13,16 -7,0 -13,-7 -13,-16 0,-9 6,-16 13,-16 7,0 13,7 13,16z"/>
           </g>
          </g>
          <g>
           <g>
            <path class="fil18" d="M1943 1326c0,9 6,16 13,16 7,0 13,-7 13,-16 0,-9 -6,-16 -13,-16 -7,0 -13,7 -13,16z"/>
           </g>
          </g>
          <path class="fil19" d="M1817 1299c-1,0 -3,-1 -3,-2 -1,-2 -1,-4 1,-5 26,-18 46,0 47,0 2,1 2,4 0,6 -1,2 -4,2 -6,0 -1,-1 -16,-14 -37,0 -1,0 -1,1 -2,1z"/>
          <path class="fil19" d="M1940 1299c-1,0 -3,-1 -3,-2 -1,-2 -1,-4 1,-5 26,-18 46,0 47,0 2,1 2,4 0,6 -1,2 -4,2 -6,0 -1,-1 -16,-14 -37,0 -1,0 -1,1 -2,1z"/>
         </g>
         <path class="fil20" d="M1899 1389c0,0 -1,0 -1,0 -5,-2 -8,-6 -9,-11 -1,-5 -1,-10 2,-15l3 -6c1,-1 2,-1 3,-1 1,1 1,2 1,3l-3 6c-2,3 -3,8 -2,11 1,4 4,7 7,9 1,0 1,2 1,3 0,1 -1,1 -2,1z"/>
         <g>
          <path class="fil16" d="M1937 1261l-74 0c-1,0 -2,-1 -2,-2 0,-1 1,-2 2,-2l74 0c1,0 2,1 2,2 0,1 -1,2 -2,2z"/>
         </g>
         <g>
          <path class="fil16" d="M1930 1252l-61 0c-1,0 -2,-1 -2,-2 0,-1 1,-2 2,-2l61 0c1,0 2,1 2,2 0,1 -1,2 -2,2z"/>
         </g>
        </g>
        <g>
         <path class="fil20" d="M1896 1432c-21,0 -34,-7 -34,-8 -2,-1 -2,-4 -1,-5 1,-2 4,-2 5,-1 0,0 27,15 64,0 2,-1 4,0 5,2 1,2 0,4 -2,5 -14,6 -26,8 -37,8z"/>
        </g>
        <g>
         <g>
          <path class="fil16" d="M1862 1393c0,0 -20,19 -22,32 0,0 -12,-20 22,-32z"/>
         </g>
         <g>
          <path class="fil16" d="M1934 1393c0,0 20,19 22,32 0,0 12,-20 -22,-32z"/>
         </g>
        </g>
       </g>
      </g>
      <g>
       <g>
        <g>
         <path class="fil32" d="M1933 2021l-43 0 -123 0 0 198 0 721 123 0 0 -699c0,-12 10,-22 22,-22 12,0 22,10 22,22l0 699 123 0 0 -721 0 -198 -123 0z"/>
        </g>
        <g>
         <path class="fil33" d="M1863 2221c-32,72 -16,152 -8,232 16,144 28,179 8,322 -7,57 -16,122 -59,165l85 0 0 -699c0,-12 10,-22 22,-22 12,0 22,10 22,22l0 699 108 0 0 -44c-86,-248 -28,-409 -74,-675 -8,-48 -84,-44 -104,0z"/>
        </g>
        <g>
         <g>
          <path class="fil34" d="M1889 2940l0 53 -190 0c0,-6 1,-12 4,-17 4,-8 12,-15 21,-18l57 -18 108 0z"/>
         </g>
         <g>
          <path class="fil35" d="M1889 2977l0 17 -190 0c0,-6 1,-12 4,-17l186 0z"/>
         </g>
        </g>
        <g>
         <g>
          <path class="fil34" d="M1934 2940l0 53 190 0c0,-6 -1,-12 -4,-17 -4,-8 -12,-15 -21,-18l-57 -18 -108 0z"/>
         </g>
         <g>
          <path class="fil35" d="M1934 2977l0 17 190 0c0,-6 -1,-12 -4,-17l-186 0z"/>
         </g>
        </g>
       </g>
       <g>
        <polygon class="fil33" points="1767,2121 1794,2074 1805,2074 1767,2140 "/>
       </g>
       <g>
        <polygon class="fil33" points="2056,2121 2029,2074 2018,2074 2056,2140 "/>
       </g>
       <g>
        <g>
         <g>
          <g>
           <g>
            <path class="fil36" d="M1804 1642c0,1 0,2 0,3l-58 481c-2,13 -11,24 -23,29 0,0 0,0 0,0 -5,2 -10,2 -16,2 -19,-2 -33,-20 -30,-39l58 -481c2,-16 14,-28 29,-30 3,-1 7,-1 10,0 18,2 31,18 31,35z"/>
           </g>
          </g>
         </g>
         <g>
          <g>
           <g>
            <path class="fil37" d="M1804 1642c0,1 0,2 0,3l-58 481c-2,13 -11,24 -23,29 0,0 0,0 0,0 -4,1 -7,1 -11,0 -13,-2 -24,-9 -31,-19 23,-31 63,-52 63,-94 12,-147 33,-256 28,-409 3,-1 -2,-26 1,-26 18,2 31,18 31,35z"/>
           </g>
          </g>
         </g>
         <path class="fil38" d="M1748 2147c6,23 -9,46 -31,51 -23,5 -46,-9 -51,-32 -5,-23 9,-46 32,-51 23,-5 46,9 51,32z"/>
        </g>
       </g>
       <g>
        <g>
         <g>
          <g>
           <g>
            <path class="fil36" d="M2017 1642c0,1 0,2 0,3l58 481c2,13 11,24 23,29 0,0 0,0 0,0 5,2 10,2 16,2 19,-2 33,-20 30,-39l-58 -481c-2,-16 -14,-28 -29,-30 -3,-1 -7,-1 -10,0 -18,2 -31,18 -31,35z"/>
           </g>
          </g>
         </g>
         <g>
          <g>
           <g>
            <path class="fil37" d="M2017 1642c0,1 0,2 0,3l58 481c2,13 11,24 23,29 0,0 0,0 0,0 4,1 7,1 11,0 13,-2 24,-9 31,-19 -23,-31 -63,-52 -63,-94 -12,-147 -25,-282 -20,-435 -3,-1 -7,-1 -10,0 -18,2 -31,18 -31,35z"/>
           </g>
          </g>
         </g>
         <path class="fil38" d="M2073 2147c-6,23 9,46 31,51 23,5 46,-9 51,-32 5,-23 -9,-46 -32,-51 -23,-5 -46,9 -51,32z"/>
        </g>
       </g>
       <g>
        <path class="fil36" d="M2056 1667l0 398 -289 0 0 -398c0,-60 49,-109 109,-109l71 0c60,0 109,49 109,109z"/>
       </g>
       <g>
        <path class="fil37" d="M1955 1997c-64,13 -140,8 -188,-35l0 107 289 0 0 -155c-21,40 -51,72 -100,84z"/>
       </g>
       <g>
        <line class="fil39 str2" x1="1901" y1="1579" x2="1901" y2= "2068" />
       </g>
       <g>
        <g>
         <g>
          <path class="fil40" d="M1924 1618c0,5 -4,9 -9,9 -5,0 -9,-4 -9,-9 0,-5 4,-9 9,-9 5,0 9,4 9,9z"/>
         </g>
         <g>
          <path class="fil41" d="M1908 1624c2,2 4,3 6,3 5,0 9,-4 9,-9 0,-1 0,-3 -1,-4 -4,5 -9,8 -15,10z"/>
         </g>
         <g>
          <g>
           <path class="fil36" d="M1916 1615c0,1 -1,2 -2,2 -1,0 -2,-1 -2,-2 0,-1 1,-2 2,-2 1,0 2,1 2,2z"/>
          </g>
          <g>
           <path class="fil36" d="M1916 1621c0,1 -1,2 -2,2 -1,0 -2,-1 -2,-2 0,-1 1,-2 2,-2 1,0 2,1 2,2z"/>
          </g>
         </g>
        </g>
        <g>
         <g>
          <path class="fil40" d="M1924 1692c0,5 -4,9 -9,9 -5,0 -9,-4 -9,-9 0,-5 4,-9 9,-9 5,0 9,4 9,9z"/>
         </g>
         <g>
          <path class="fil41" d="M1908 1698c2,2 4,3 6,3 5,0 9,-4 9,-9 0,-1 0,-3 -1,-4 -4,5 -9,8 -15,10z"/>
         </g>
         <g>
          <g>
           <path class="fil36" d="M1916 1689c0,1 -1,2 -2,2 -1,0 -2,-1 -2,-2 0,-1 1,-2 2,-2 1,0 2,1 2,2z"/>
          </g>
          <g>
           <path class="fil36" d="M1916 1695c0,1 -1,2 -2,2 -1,0 -2,-1 -2,-2 0,-1 1,-2 2,-2 1,0 2,1 2,2z"/>
          </g>
         </g>
        </g>
        <g>
         <g>
          <path class="fil40" d="M1924 1766c0,5 -4,9 -9,9 -5,0 -9,-4 -9,-9 0,-5 4,-9 9,-9 5,0 9,4 9,9z"/>
         </g>
         <g>
          <path class="fil41" d="M1908 1772c2,2 4,3 6,3 5,0 9,-4 9,-9 0,-1 0,-3 -1,-4 -4,5 -9,8 -15,10z"/>
         </g>
         <g>
          <g>
           <path class="fil36" d="M1916 1763c0,1 -1,2 -2,2 -1,0 -2,-1 -2,-2 0,-1 1,-2 2,-2 1,0 2,1 2,2z"/>
          </g>
          <g>
           <path class="fil36" d="M1916 1769c0,1 -1,2 -2,2 -1,0 -2,-1 -2,-2 0,-1 1,-2 2,-2 1,0 2,1 2,2z"/>
          </g>
         </g>
        </g>
        <g>
         <g>
          <path class="fil40" d="M1924 1840c0,5 -4,9 -9,9 -5,0 -9,-4 -9,-9 0,-5 4,-9 9,-9 5,0 9,4 9,9z"/>
         </g>
         <g>
          <path class="fil41" d="M1908 1846c2,2 4,3 6,3 5,0 9,-4 9,-9 0,-1 0,-3 -1,-4 -4,5 -9,8 -15,10z"/>
         </g>
         <g>
          <g>
           <path class="fil36" d="M1916 1836c0,1 -1,2 -2,2 -1,0 -2,-1 -2,-2 0,-1 1,-2 2,-2 1,0 2,1 2,2z"/>
          </g>
          <g>
           <path class="fil36" d="M1916 1843c0,1 -1,2 -2,2 -1,0 -2,-1 -2,-2 0,-1 1,-2 2,-2 1,0 2,1 2,2z"/>
          </g>
         </g>
        </g>
        <g>
         <g>
          <path class="fil40" d="M1924 1913c0,5 -4,9 -9,9 -5,0 -9,-4 -9,-9 0,-5 4,-9 9,-9 5,0 9,4 9,9z"/>
         </g>
         <g>
          <path class="fil41" d="M1908 1919c2,2 4,3 6,3 5,0 9,-4 9,-9 0,-1 0,-3 -1,-4 -4,5 -9,8 -15,10z"/>
         </g>
         <g>
          <g>
           <path class="fil36" d="M1916 1910c0,1 -1,2 -2,2 -1,0 -2,-1 -2,-2 0,-1 1,-2 2,-2 1,0 2,1 2,2z"/>
          </g>
          <g>
           <path class="fil36" d="M1916 1917c0,1 -1,2 -2,2 -1,0 -2,-1 -2,-2 0,-1 1,-2 2,-2 1,0 2,1 2,2z"/>
          </g>
         </g>
        </g>
        <g>
         <g>
          <path class="fil40" d="M1924 1987c0,5 -4,9 -9,9 -5,0 -9,-4 -9,-9 0,-5 4,-9 9,-9 5,0 9,4 9,9z"/>
         </g>
         <g>
          <path class="fil41" d="M1908 1993c2,2 4,3 6,3 5,0 9,-4 9,-9 0,-1 0,-3 -1,-4 -4,5 -9,8 -15,10z"/>
         </g>
         <g>
          <g>
           <path class="fil36" d="M1916 1984c0,1 -1,2 -2,2 -1,0 -2,-1 -2,-2 0,-1 1,-2 2,-2 1,0 2,1 2,2z"/>
          </g>
          <g>
           <path class="fil36" d="M1916 1991c0,1 -1,2 -2,2 -1,0 -2,-1 -2,-2 0,-1 1,-2 2,-2 1,0 2,1 2,2z"/>
          </g>
         </g>
        </g>
       </g>
       <g>
        <path class="fil38" d="M1940 1558c-4,12 -16,20 -29,20 -13,0 -25,-8 -29,-20l58 0z"/>
       </g>
       <g>
        <polygon class="fil42" points="2056,2074 1767,2074 1767,2041 2056,2041 "/>
       </g>
       <g>
        <polygon class="fil43" points="1925,2074 1898,2074 1898,2041 1925,2041 "/>
       </g>
       <g>
        <path class="fil36" d="M1737 1630c0,0 11,-66 127,-71l0 71 -127 0z"/>
       </g>
       <g>
        <path class="fil36" d="M2084 1630c0,0 -11,-66 -127,-71l0 71 127 0z"/>
       </g>
      </g>
      <path class="fil13" d="M1951 1176c0,0 0,0 0,0 -2,2 -13,13 -69,29 -43,13 -62,27 -73,30 0,0 0,0 0,0 0,0 0,0 0,0 -5,1 -8,0 -12,-4 -2,-2 -1,-7 2,-12l0 0c16,-27 88,-79 153,-43z"/>
      <path class="fil13" d="M1808 1236c0,0 0,1 0,1l0 0c-4,33 -32,97 -32,97l-9 2c-18,-48 32,-117 32,-117l0 0c9,-3 11,4 9,17z"/>
      <path class="fil13" d="M2053 1336l-4 -1 0 0 -5 -1c0,0 -48,-87 -37,-104 0,0 1,-1 1,-1 3,-3 8,-2 18,3 0,0 46,56 27,105z"/>
      <path class="fil13" d="M2026 1231c-4,0 -9,0 -13,0 -2,0 -4,-1 -6,-1 -34,-9 -54,-51 -56,-54 0,0 0,0 0,0 0,0 44,2 75,55z"/>
      <g>
       <polygon class="fil40" points="1879,1542 1911,1578 1879,1618 1864,1558 "/>
      </g>
      <g>
       <polygon class="fil40" points="1940,1542 1908,1578 1940,1618 1955,1558 "/>
      </g>
      <path class="fil22" d="M1911 1176c0,0 -47,-11 -88,30 0,0 15,-8 24,-9 0,0 -27,12 -32,30 0,0 64,-36 84,-37 0,0 -11,-2 -26,2 0,0 25,-13 38,-16z"/>
      <path class="fil22" d="M1969 1187c0,0 17,30 42,37 0,0 -11,-9 -12,-14 0,0 11,4 14,9 0,0 -11,-16 -26,-24 0,0 5,4 6,8 0,0 -20,-8 -23,-17z"/>
      <path class="fil14" d="M2049 1335l-5 -1c0,0 -48,-87 -37,-104 -34,-9 -54,-51 -56,-54 2,2 39,41 57,52 2,1 4,2 5,3 0,0 0,0 0,0 0,0 27,101 36,104z"/>
      <path class="fil14" d="M1808 1237c-4,33 -32,97 -32,97 -10,-18 27,-88 32,-97z"/>
      <path class="fil14" d="M1951 1176c-2,2 -13,13 -69,29 -43,13 -62,27 -73,30 4,-2 65,-33 83,-38 17,-5 56,-19 60,-21z"/>
     </g>
     <g>
      <path class="fil44" d="M1747 1805c3,-22 8,-46 14,-58 0,0 -12,74 -6,136 -3,-11 -13,-48 -9,-78z"/>
     </g>
     <g>
      <path class="fil44" d="M1282 1805c-3,-22 -8,-46 -14,-58 0,0 12,74 6,136 3,-11 13,-48 9,-78z"/>
     </g>
    </g>
    <g>
     <path class="fil45" d="M1602 2462c0,0 -133,-53 -141,-332 0,0 -11,-100 51,-273 0,0 83,-190 190,-137 0,0 144,-70 219,122 0,0 42,112 37,259 0,0 -17,223 -91,359 -5,8 -175,-62 -39,-294 0,0 91,-157 -5,-224 0,0 -91,-47 -98,-104 0,0 -5,69 70,102 0,0 -59,-14 -80,-55 0,0 6,26 52,54 0,0 -101,-18 -113,-135 0,0 -32,46 -48,92 0,0 -18,41 -56,65 -19,120 92,265 70,367 0,0 -48,78 -18,133z"/>
     <rect class="fil46" x="1599" y="1906" width="239" height="468"/>
     <path class="fil47" d="M1903 2832l59 360c0,0 -119,61 -255,61 -145,0 -243,-61 -243,-61l59 -360 -4 -78c-86,-54 -54,-219 -35,-210l-20 -145 186 -79 120 -1 194 72 -21 153c27,2 68,155 -31,193l-8 95z"/>
     <path class="fil48" d="M1878 2763c0,0 -131,93 -321,6 0,0 177,48 321,-6z"/>
     <g>
      <g>
       <g>
        <path class="fil49" d="M1274 3407c0,0 10,34 22,60 12,25 4,44 11,67 7,23 -20,21 -25,-3 -5,-24 -3,-35 -8,-36 -5,-1 -19,57 -21,74 -2,17 1,58 -5,65 -6,6 -21,-17 -16,-60 5,-43 1,-42 1,-42 0,0 -4,17 -8,35 -4,18 -4,40 -4,52 1,12 -12,18 -15,12 -4,-7 -10,-50 -5,-67 5,-17 11,-46 11,-46 0,0 -17,39 -19,49 -3,10 2,48 -7,55 -4,3 -15,-1 -13,-55 0,0 4,-27 10,-43 0,0 -9,12 -13,29 -4,15 -6,30 -7,44 -1,15 -14,13 -14,-13 0,-26 4,-54 12,-68 7,-14 18,-94 39,-124l76 16z"/>
       </g>
      </g>
      <g>
       <path class="fil47" d="M1518 2543c0,0 -64,296 -116,396 0,0 -27,131 -126,474 0,0 -52,21 -82,-19 0,0 56,-379 85,-500 0,0 94,-425 185,-495 0,0 47,54 54,144z"/>
      </g>
     </g>
     <g>
      <g>
       <g>
        <path class="fil49" d="M2151 3407c0,0 -10,34 -22,60 -12,25 -4,44 -11,67 -7,23 20,21 25,-3 5,-24 3,-35 8,-36 5,-1 19,57 21,74 2,17 -1,58 5,65 6,6 21,-17 16,-60 -5,-43 -1,-42 -1,-42 0,0 4,17 8,35 4,18 4,40 4,52 -1,12 12,18 15,12 4,-7 10,-50 5,-67 -5,-17 -11,-46 -11,-46 0,0 17,39 19,49 3,10 -2,48 7,55 4,3 15,-1 13,-55 0,0 -4,-27 -10,-43 0,0 9,12 13,29 4,15 6,30 7,44 1,15 14,13 14,-13 0,-26 -4,-54 -12,-68 -7,-14 -18,-94 -39,-124l-76 16z"/>
       </g>
      </g>
      <g>
       <path class="fil47" d="M1907 2543c0,0 62,287 114,387 0,0 29,140 128,483 0,0 52,21 82,-19 0,0 -48,-377 -77,-498 0,0 -124,-428 -192,-505 0,0 -49,62 -55,152z"/>
      </g>
     </g>
     <g>
      <g>
       <path class="fil49" d="M1776 2230l-2 44 -3 55c0,0 -11,21 -60,21 -49,0 -59,-14 -59,-14l-2 -24 -7 -81 134 0z"/>
      </g>
      <g>
       <path class="fil50" d="M1776 2230l-2 44c-21,15 -69,46 -125,37l-7 -81 134 0z"/>
      </g>
     </g>
     <path class="fil49" d="M1882 2001c0,5 -1,11 -2,16 -12,113 -46,256 -171,256 -122,0 -170,-135 -185,-245 -1,-8 -2,-16 -3,-24 -11,-105 70,-197 175,-198l9 0c78,1 143,52 167,121 3,8 5,17 7,26 3,15 4,31 2,48z"/>
     <path class="fil51" d="M1673 4884c0,0 2,-4 4,-7 2,-3 4,-9 6,-15 1,-6 2,-11 2,-15 0,-4 0,-11 -2,-20 -2,-9 -5,-15 -6,-17 -1,-2 -6,-10 -7,-13 -2,-2 -6,-7 -6,-9 -1,-2 -3,-5 -4,-7 -1,-2 -2,-5 -2,-6 0,-2 0,-2 -2,-5 -2,-2 -3,-3 -5,-3 -2,0 -6,0 -8,1 -2,1 -6,3 -9,4 -2,1 -6,4 -8,6 -2,2 -10,10 -15,15 -5,6 -12,15 -17,21 -4,5 -11,14 -14,18 -2,4 -8,12 -10,15 -2,4 -7,14 -9,18 -2,4 -12,21 -13,23 -1,2 -9,14 -10,17 -1,2 -13,22 -17,26 -3,4 -10,13 -12,15 -2,2 -6,7 -9,10 -3,2 -7,6 -9,6 0,0 -6,1 -9,4 -3,3 -9,9 -13,12 -4,3 -14,10 -18,13 -4,3 -9,8 -11,11 -2,3 -4,5 -4,9 0,4 0,6 0,6 0,0 0,7 12,10 11,4 32,8 55,9 22,2 33,3 50,2 17,-1 34,-7 45,-14 11,-7 14,-14 16,-17 2,-3 3,-7 5,-12 1,-5 6,-20 8,-25 1,-6 11,-28 13,-33 2,-4 15,-29 17,-32 2,-3 10,-12 11,-14 1,-1 6,-6 6,-6l1 -1z"/>
     <path class="fil52" d="M1435 5016c0,0 0,5 7,9 7,4 31,8 36,9 6,1 40,4 57,4 0,0 14,1 30,-2 0,0 16,-3 24,-8 0,0 15,-8 20,-17 5,-9 6,-12 9,-22 0,0 6,-22 10,-30 3,-8 12,-27 15,-35 4,-8 10,-18 14,-24 5,-6 8,-11 10,-12 1,-1 4,-4 4,-4l1 -1 0 0c0,0 -4,12 -6,20 -2,8 -4,19 -5,26 -1,6 -4,21 -4,24 -1,3 -2,12 -2,17 -1,5 -2,14 -2,15 0,1 -1,3 -1,3 0,0 -7,6 -10,8 -2,2 -7,4 -7,4 0,0 -1,-1 -3,-1 -2,0 -6,0 -6,0 0,0 -9,8 -13,14 -5,6 -11,10 -14,13 -3,3 -8,5 -12,7 -4,2 -16,4 -23,6 -7,2 -24,5 -43,3 0,0 -17,-1 -30,-2 -12,-1 -27,-4 -34,-6 -7,-2 -17,-4 -20,-8 -4,-3 -4,-4 -4,-6 0,-2 1,-5 1,-5z"/>
     <path class="fil49" d="M1640 3379c0,0 40,616 35,752l-3 709 -80 1c-7,-280 -101,-506 -69,-705 -60,-193 37,-366 26,-596 0,0 -28,-159 92,-161z"/>
     <path class="fil53" d="M1617 4831c-4,4 -21,-2 -26,8 -6,12 -21,41 -26,52 -2,6 -15,27 -22,36 -6,9 -42,33 -49,38 -10,7 42,28 69,22 18,-4 30,-12 37,-23 0,0 8,-9 11,-22 5,-26 55,-81 59,-103 1,-5 -41,-19 -54,-9z"/>
     <path class="fil51" d="M1777 4884c0,0 -2,-4 -4,-7 -2,-3 -4,-9 -6,-15 -1,-6 -2,-11 -2,-15 0,-4 0,-11 2,-20 2,-9 5,-15 6,-17 1,-2 6,-10 7,-13 2,-2 6,-7 6,-9 1,-2 3,-5 4,-7 1,-2 2,-5 2,-6 0,-2 0,-2 2,-5 2,-2 3,-3 5,-3 2,0 6,0 8,1 2,1 6,3 9,4 2,1 6,4 8,6 2,2 10,10 15,15 5,6 12,15 17,21 4,5 11,14 14,18 2,4 8,12 10,15 2,4 7,14 9,18 2,4 12,21 13,23 1,2 9,14 10,17 1,2 13,22 17,26 3,4 10,13 12,15 2,2 6,7 9,10 3,2 7,6 9,6 0,0 6,1 9,4 3,3 9,9 13,12 4,3 14,10 18,13 4,3 9,8 11,11 2,3 4,5 4,9 0,4 0,6 0,6 0,0 0,7 -12,10 -11,4 -32,8 -55,9 -22,2 -33,3 -50,2 -17,-1 -34,-7 -45,-14 -11,-7 -14,-14 -16,-17 -2,-3 -3,-7 -5,-12 -1,-5 -6,-20 -8,-25 -1,-6 -11,-28 -13,-33 -2,-4 -15,-29 -17,-32 -2,-3 -10,-12 -11,-14 -1,-1 -6,-6 -6,-6l-1 -1z"/>
     <path class="fil52" d="M2014 5016c0,0 0,5 -7,9 -7,4 -31,8 -36,9 -6,1 -40,4 -57,4 0,0 -14,1 -30,-2 0,0 -16,-3 -24,-8 0,0 -15,-8 -20,-17 -5,-9 -6,-12 -9,-22 0,0 -6,-22 -10,-30 -3,-8 -12,-27 -15,-35 -4,-8 -10,-18 -14,-24 -5,-6 -8,-11 -10,-12 -1,-1 -4,-4 -4,-4l-1 -1 0 0c0,0 4,12 6,20 2,8 4,19 5,26 1,6 4,21 4,24 1,3 2,12 2,17 1,5 2,14 2,15 0,1 1,3 1,3 0,0 7,6 10,8 2,2 7,4 7,4 0,0 1,-1 3,-1 2,0 6,0 6,0 0,0 9,8 13,14 5,6 11,10 14,13 3,3 8,5 12,7 4,2 16,4 23,6 7,2 24,5 43,3 0,0 17,-1 30,-2 12,-1 27,-4 34,-6 7,-2 17,-4 20,-8 4,-3 4,-4 4,-6 0,-2 -1,-5 -1,-5z"/>
     <path class="fil53" d="M1832 4831c4,4 21,-2 26,8 6,12 21,41 26,52 2,6 15,27 22,36 6,9 42,33 49,38 10,7 -42,28 -69,22 -18,-4 -30,-12 -37,-23 0,0 -8,-9 -11,-22 -5,-26 -55,-81 -59,-103 -1,-5 41,-19 54,-9z"/>
     <path class="fil49" d="M1810 3379c0,0 -40,616 -35,752l3 709 80 1c7,-280 101,-506 69,-705 60,-193 -37,-366 -26,-596 0,0 28,-159 -92,-161z"/>
     <path class="fil54" d="M1473 3184c0,0 -46,231 -63,947 0,0 307,126 596,0 0,0 -15,-865 -44,-939l-429 -10 -60 3z"/>
     <g>
      <g>
       <g>
        <path class="fil49" d="M1547 2036c0,0 -22,-22 -40,-8 -21,17 1,78 39,71l2 -64z"/>
       </g>
      </g>
     </g>
     <path class="fil22" d="M1555 2101c0,9 -7,16 -16,16 -9,0 -16,-7 -16,-16 0,-9 7,-16 16,-16 9,0 16,7 16,16z"/>
     <path class="fil55" d="M1661 1975c1,6 -4,10 -9,11 -19,1 -58,4 -76,24 0,0 6,-35 75,-43 5,-1 10,3 11,8z"/>
     <path class="fil55" d="M1733 1975c-1,6 4,10 9,10 19,0 58,2 77,22 0,0 -7,-34 -76,-41 -5,0 -10,3 -10,9z"/>
     <g>
      <g>
       <g>
        <path class="fil49" d="M1852 2036c0,0 22,-22 40,-8 21,17 -1,78 -39,71l-2 -64z"/>
       </g>
      </g>
     </g>
     <path class="fil22" d="M1879 2101c0,9 -7,16 -16,16 -9,0 -16,-7 -16,-16 0,-9 7,-16 16,-16 9,0 16,7 16,16z"/>
     <polygon class="fil53" points="1651,2336 1717,2627 1770,2329 1697,2336 "/>
     <path class="fil45" d="M1470 2028c7,-43 20,-97 43,-162 0,0 83,-190 190,-137 0,0 144,-70 219,122 0,0 27,72 35,177l-89 0c-3,-29 -15,-57 -43,-76 0,0 -91,-47 -98,-104 0,0 -5,69 70,102 0,0 -59,-14 -80,-55 0,0 6,26 52,54 0,0 -101,-18 -113,-135 0,0 -32,46 -48,92 0,0 -18,41 -56,65 -3,19 -3,38 0,57l-81 0z"/>
     <g>
      <path class="fil56" d="M1667 2178c0,0 2,27 39,27 37,0 39,-27 39,-27l-79 0z"/>
      <path class="fil56" d="M1746 2178c0,0 -36,-20 -79,0 0,0 43,18 79,0z"/>
      <path class="fil57" d="M1657 2177c0,0 20,12 49,12 15,0 31,-3 49,-12 1,-1 2,-2 1,-4 -1,-1 -2,-2 -4,-1 -17,8 -33,11 -47,11 -14,0 -25,-3 -34,-5 -4,-1 -7,-3 -9,-4 -1,-1 -2,-1 -2,-1l-1 0c-1,-1 -3,0 -4,1 -1,1 0,3 1,4z"/>
     </g>
     <path class="fil57" d="M1696 2093l0 20c0,1 1,2 2,2l15 0c1,0 2,-1 2,-2 0,-1 -1,-2 -2,-2l-13 0 0 -18c0,-1 -1,-2 -2,-2 -1,0 -2,1 -2,2z"/>
     <g>
      <path class="fil58" d="M1654 2042c0,0 -10,-25 -34,-26 -24,-1 -38,18 -38,18 0,0 6,21 35,22 29,1 37,-14 37,-14z"/>
      <path class="fil59" d="M1594 2035c0,7 2,13 6,17 4,2 10,3 17,4 6,0 11,0 15,-1 5,-4 9,-10 9,-18 0,-6 -2,-12 -6,-17 -4,-3 -9,-4 -15,-5 -7,0 -14,1 -19,4 -4,4 -7,9 -7,16z"/>
      <path class="fil59" d="M1655 2041c0,0 -2,-7 -8,-13 -5,-7 -14,-13 -27,-14l-1 0c-25,0 -39,18 -39,18l0 2 2 0 1 -1c3,-3 15,-16 36,-16l1 0c12,0 20,6 25,12 3,3 4,6 6,9 1,1 1,2 1,3l0 1c0,1 1,1 2,1 1,0 1,-1 1,-2z"/>
     </g>
     <g>
      <path class="fil58" d="M1740 2042c0,0 10,-25 34,-26 24,-1 38,18 38,18 0,0 -6,21 -35,22 -29,1 -37,-14 -37,-14z"/>
      <path class="fil59" d="M1800 2035c0,7 -2,13 -6,17 -4,2 -10,3 -17,4 -6,0 -11,0 -15,-1 -5,-4 -9,-10 -9,-18 0,-6 2,-12 6,-17 4,-3 9,-4 15,-5 7,0 14,1 19,4 4,4 7,9 7,16z"/>
      <path class="fil59" d="M1739 2041c0,0 2,-7 8,-13 5,-7 14,-13 27,-14l1 0c25,0 39,18 39,18l0 2 -2 0 -1 -1c-3,-3 -15,-16 -36,-16l-1 0c-12,0 -20,6 -25,12 -3,3 -4,6 -6,9 -1,1 -1,2 -1,3l0 1c0,1 -1,1 -2,1 -1,0 -1,-1 -1,-2z"/>
     </g>
    </g>
   </g>
  </g>
  <path class="fil60" d="M1712 0c946,0 1712,767 1712,1712 0,946 -767,1712 -1712,1712 -946,0 -1712,-767 -1712,-1712 0,-946 767,-1712 1712,-1712z"/>
 </g>
</svg>
