<?xml version="1.0" encoding="UTF-8"?>
<!DOCTYPE svg PUBLIC "-//W3C//DTD SVG 1.1//EN" "http://www.w3.org/Graphics/SVG/1.1/DTD/svg11.dtd">
<!-- Creator: CorelDRAW X6 -->
<svg xmlns="http://www.w3.org/2000/svg" xml:space="preserve" width="50mm" height="50mm" version="1.1" style="shape-rendering:geometricPrecision; text-rendering:geometricPrecision; image-rendering:optimizeQuality; fill-rule:evenodd; clip-rule:evenodd"
viewBox="0 0 3425 3425"
 xmlns:xlink="http://www.w3.org/1999/xlink">
 <defs>
  <style type="text/css">
   <![CDATA[
    .str3 {stroke:#31314B;stroke-width:5.21918}
    .str2 {stroke:#498690;stroke-width:12.0822}
    .str0 {stroke:#A2D9F7;stroke-width:13.6986}
    .str1 {stroke:#B0CB1F;stroke-width:13.6986}
    .str4 {stroke:#FFAF82;stroke-width:13.6986}
    .fil59 {fill:none}
    .fil39 {fill:none;fill-rule:nonzero}
    .fil46 {fill:#84919A}
    .fil2 {fill:#009846}
    .fil3 {fill:#727271}
    .fil1 {fill:#A2D9F7}
    .fil12 {fill:#B0CB1F}
    .fil4 {fill:#E31E24}
    .fil0 {fill:#EF7F1A}
    .fil49 {fill:black}
    .fil51 {fill:#291FAC}
    .fil50 {fill:#31314B}
    .fil6 {fill:#365E7D}
    .fil5 {fill:#407093}
    .fil57 {fill:#995342}
    .fil9 {fill:#BED8FB}
    .fil45 {fill:#C11C56}
    .fil8 {fill:#CBE2FF}
    .fil56 {fill:#DE5A62}
    .fil10 {fill:#E4F6FF}
    .fil7 {fill:#EABC6B}
    .fil11 {fill:#F4FBFF}
    .fil47 {fill:#FFAF82}
    .fil58 {fill:white}
    .fil55 {fill:#727271;fill-rule:nonzero}
    .fil27 {fill:#003A44;fill-rule:nonzero}
    .fil26 {fill:#003F51;fill-rule:nonzero}
    .fil35 {fill:#030000;fill-rule:nonzero}
    .fil33 {fill:#060F15;fill-rule:nonzero}
    .fil42 {fill:#090000;fill-rule:nonzero}
    .fil32 {fill:#0F1A22;fill-rule:nonzero}
    .fil34 {fill:#170300;fill-rule:nonzero}
    .fil18 {fill:#2E1500;fill-rule:nonzero}
    .fil37 {fill:#368390;fill-rule:nonzero}
    .fil41 {fill:#3B7A7F;fill-rule:nonzero}
    .fil40 {fill:#498690;fill-rule:nonzero}
    .fil36 {fill:#5297A5;fill-rule:nonzero}
    .fil25 {fill:#60CEBB;fill-rule:nonzero}
    .fil24 {fill:#7BDECE;fill-rule:nonzero}
    .fil31 {fill:#ADEEF0;fill-rule:nonzero}
    .fil23 {fill:#B4C862;fill-rule:nonzero}
    .fil53 {fill:#C11C56;fill-rule:nonzero}
    .fil28 {fill:#D0FEFF;fill-rule:nonzero}
    .fil14 {fill:#E5E5E5;fill-rule:nonzero}
    .fil52 {fill:#E62F67;fill-rule:nonzero}
    .fil20 {fill:#F2813D;fill-rule:nonzero}
    .fil21 {fill:#F3E93B;fill-rule:nonzero}
    .fil13 {fill:#F3F3F3;fill-rule:nonzero}
    .fil54 {fill:#F78967;fill-rule:nonzero}
    .fil29 {fill:#F7FFFF;fill-rule:nonzero}
    .fil30 {fill:#FAFAFA;fill-rule:nonzero}
    .fil19 {fill:#FEFEFE;fill-rule:nonzero}
    .fil16 {fill:#FF9E54;fill-rule:nonzero}
    .fil17 {fill:#FFA587;fill-rule:nonzero}
    .fil38 {fill:#FFAE5F;fill-rule:nonzero}
    .fil48 {fill:#FFAF82;fill-rule:nonzero}
    .fil15 {fill:#FFB76A;fill-rule:nonzero}
    .fil43 {fill:#FFFEFF;fill-rule:nonzero}
    .fil22 {fill:white;fill-rule:nonzero}
    .fil44 {fill:#F3E93B;fill-rule:nonzero;fill-opacity:0.301961}
   ]]>
  </style>
   <clipPath id="id0">
    <path d="M1712 0c946,0 1712,767 1712,1712 0,946 -767,1712 -1712,1712 -946,0 -1712,-767 -1712,-1712 0,-946 767,-1712 1712,-1712z"/>
   </clipPath>
 </defs>
 <g id="Layer_x0020_1">
  <metadata id="CorelCorpID_0Corel-Layer"/>
  <path class="fil0" d="M1712 0c946,0 1712,767 1712,1712 0,946 -767,1712 -1712,1712 -946,0 -1712,-767 -1712,-1712 0,-946 767,-1712 1712,-1712z"/>
  <g style="clip-path:url(#id0)">
   <g id="_1495901264">
    <rect class="fil1 str0" x="-917" y="-318" width="4589" height="2660"/>
    <g>
     <path class="fil2" d="M2776 2423c-8,-16 -20,-29 -34,-38 -20,-13 -34,-33 -39,-56 -10,-47 -42,-88 -91,-106 -67,-25 -143,4 -177,67 -40,74 -8,166 67,200 25,11 192,91 240,61 43,-27 58,-83 35,-128z"/>
     <path class="fil2" d="M649 2423c8,-16 20,-29 34,-38 20,-13 34,-33 39,-56 10,-47 42,-88 91,-106 67,-25 143,4 177,67 40,74 8,166 -67,200 -30,14 -192,91 -240,61 -43,-27 -58,-83 -35,-128z"/>
     <g>
      <polygon class="fil3" points="2367,1112 1712,784 862,1210 862,2558 2367,2558 "/>
      <path class="fil3" d="M1712 784l-272 136 776 389c33,17 55,51 55,88l0 1161 293 0 0 -1348 -851 -426z"/>
     </g>
     <path class="fil4" d="M2461 1077l-726 -364c-14,-7 -31,-7 -46,0l-990 496c-17,9 -28,26 -28,45l0 80c0,38 40,62 74,45l944 -473c14,-7 31,-7 46,0l777 389 0 -162 -51 -58z"/>
     <path class="fil4" d="M2725 1209l-263 -132 0 194 218 109c34,17 74,-8 74,-45l0 -80c0,-19 -11,-37 -28,-45z"/>
     <path class="fil5" d="M2563 2636l23 -16 0 -62c0,-43 -35,-78 -78,-78l-1862 0c-43,0 -78,35 -78,78 0,43 35,78 78,78l1917 0z"/>
     <path class="fil6" d="M2778 2480l-293 0c43,0 78,35 78,78l0 78 215 0c43,0 78,-35 78,-78 0,-43 -35,-78 -78,-78z"/>
     <polygon class="fil7" points="1068,1706 1520,1706 1520,2480 1068,2480 "/>
     <path class="fil8" d="M2317 2043l-546 0c-22,0 -39,-18 -39,-39l0 -257c0,-22 18,-39 39,-39l546 0c22,0 39,18 39,39l0 257c0,22 -18,39 -39,39z"/>
     <path class="fil9" d="M2317 1706l-273 0 0 336 273 0c22,0 39,-18 39,-39l0 -257c0,-22 -18,-39 -39,-39z"/>
     <path class="fil10" d="M1561 1741l-535 0c-19,0 -35,-15 -35,-35 0,-19 15,-35 35,-35l535 0c19,0 35,15 35,35 0,19 -15,35 -35,35z"/>
     <path class="fil11" d="M1362 2157c-19,0 -35,-15 -35,-35l0 -60c0,-19 15,-35 35,-35 19,0 35,15 35,35l0 60c0,19 -15,35 -35,35z"/>
    </g>
    <rect class="fil12 str1" x="-917" y="2342" width="4589" height="1182"/>
    <g>
     <g>
      <g>
       <g>
        <path class="fil13" d="M1486 1511c0,42 -34,77 -77,77 -42,0 -77,-34 -77,-77 0,-42 34,-77 77,-77 42,0 77,34 77,77z"/>
        <path class="fil14" d="M1486 1511c0,36 -29,65 -65,65 -36,0 -65,-29 -65,-65 0,-36 29,-65 65,-65 36,0 65,29 65,65z"/>
        <path class="fil13" d="M1666 1511c0,42 -34,77 -77,77 -42,0 -77,-34 -77,-77 0,-42 34,-77 77,-77 42,0 77,34 77,77z"/>
        <path class="fil14" d="M1641 1511c0,36 -29,64 -64,64 -36,0 -64,-29 -64,-64 0,-36 29,-64 64,-64 36,0 64,29 64,64z"/>
       </g>
       <g>
        <g>
         <g>
          <path class="fil15" d="M1387 1475c0,13 -9,23 -19,23 -11,0 -19,-10 -19,-23 0,-13 9,-23 19,-23 11,0 19,10 19,23z"/>
         </g>
         <g>
          <path class="fil16" d="M1650 1475c0,13 -9,23 -19,23 -11,0 -19,-10 -19,-23 0,-13 9,-23 19,-23 11,0 19,10 19,23z"/>
         </g>
        </g>
        <g>
         <g>
          <polygon class="fil15" points="1527,1749 1472,1749 1472,1630 1527,1630 "/>
         </g>
         <g>
          <path class="fil16" d="M1499 1668c-15,0 -28,-12 -28,-28l0 -6 55 0 0 6c0,15 -12,28 -28,28z"/>
         </g>
        </g>
        <g>
         <g>
          <path class="fil15" d="M1499 1639c-73,0 -132,-59 -132,-132l0 -82c0,-73 59,-132 132,-132 73,0 132,59 132,132l0 82c0,73 -59,132 -132,132z"/>
         </g>
         <g>
          <path class="fil16" d="M1631 1425l0 82c0,73 -59,132 -132,132 -26,0 -50,-7 -70,-20 15,6 30,9 47,9 73,0 132,-59 132,-132l0 -82c0,-36 -15,-69 -39,-93 -7,-7 -15,-13 -23,-18 17,7 33,17 46,30 24,24 39,57 39,93z"/>
         </g>
        </g>
        <g>
         <g>
          <path class="fil17" d="M1437 1490c0,11 -9,19 -19,19 -11,0 -19,-9 -19,-19 0,-11 9,-19 19,-19 11,0 19,9 19,19z"/>
         </g>
         <g>
          <path class="fil17" d="M1577 1490c0,11 -9,19 -19,19 -11,0 -19,-9 -19,-19 0,-11 9,-19 19,-19 11,0 19,9 19,19z"/>
         </g>
        </g>
        <g>
         <g>
          <g>
           <path class="fil18" d="M1446 1444c0,9 -6,16 -12,16 -7,0 -12,-7 -12,-16 0,-9 6,-16 12,-16 7,0 12,7 12,16z"/>
          </g>
         </g>
         <g>
          <g>
           <path class="fil18" d="M1530 1444c0,9 6,16 12,16 7,0 12,-7 12,-16 0,-9 -6,-16 -12,-16 -7,0 -12,7 -12,16z"/>
          </g>
         </g>
         <path class="fil19" d="M1408 1418c-1,0 -3,-1 -3,-2 -1,-2 -1,-4 1,-5 25,-17 45,0 45,0 2,1 2,4 0,6 -1,2 -4,2 -6,0 -1,-1 -15,-13 -36,0 -1,0 -1,1 -2,1z"/>
         <path class="fil19" d="M1527 1418c-1,0 -3,-1 -3,-2 -1,-2 -1,-4 1,-5 25,-17 45,0 45,0 2,1 2,4 0,6 -1,2 -4,2 -6,0 -1,-1 -15,-13 -36,0 -1,0 -1,1 -2,1z"/>
        </g>
        <path class="fil20" d="M1488 1506c0,0 -1,0 -1,0 -4,-2 -8,-6 -9,-11 -1,-5 -1,-10 2,-14l3 -6c1,-1 2,-1 3,-1 1,1 1,2 1,3l-3 6c-2,3 -3,7 -1,11 1,4 4,7 7,9 1,0 1,2 1,3 0,1 -1,1 -2,1z"/>
        <g>
         <path class="fil16" d="M1524 1382l-72 0c-1,0 -2,-1 -2,-2 0,-1 1,-2 2,-2l72 0c1,0 2,1 2,2 0,1 -1,2 -2,2z"/>
        </g>
        <g>
         <path class="fil16" d="M1517 1372l-59 0c-1,0 -2,-1 -2,-2 0,-1 1,-2 2,-2l59 0c1,0 2,1 2,2 0,1 -1,2 -2,2z"/>
        </g>
        <g>
         <path class="fil21" d="M1361 1503c8,0 8,-12 0,-12 -8,0 -8,12 0,12z"/>
        </g>
        <g>
         <path class="fil21" d="M1632 1502c8,0 8,-12 0,-12 -8,0 -8,12 0,12z"/>
        </g>
       </g>
       <path class="fil20" d="M1485 1556c-26,0 -42,-17 -42,-17 -1,-2 -1,-4 0,-6 2,-1 4,-1 6,0 1,1 32,33 76,0 2,-1 4,-1 5,1 1,2 1,4 -1,5 -17,13 -32,17 -44,17z"/>
       <g>
        <path class="fil13" d="M1546 1302c0,0 -45,-5 -54,9 -9,14 -68,17 -73,40 -6,24 -51,53 -51,100 0,0 -23,-4 -16,-50 8,-46 66,-128 131,-127 66,1 63,29 63,29z"/>
       </g>
       <path class="fil13" d="M1641 1421c-1,14 -4,22 -6,26 -1,2 -3,3 -3,4 0,0 0,0 -1,0 0,0 -14,-5 -14,-21 0,-16 -11,-42 -18,-66 -3,-10 -4,-16 -5,-20 -1,-4 -3,-6 -6,-8 -2,-1 -6,-2 -11,-2 -19,-2 -30,-30 -31,-32 0,0 0,0 0,0 0,0 -19,-1 -6,-13 13,-13 55,2 77,32 21,30 26,73 24,100z"/>
       <g>
        <g>
         <path class="fil16" d="M1444 1524c0,0 -9,7 -8,16 0,0 -10,-9 8,-16z"/>
        </g>
        <g>
         <path class="fil16" d="M1528 1524c0,0 9,7 8,16 0,0 10,-9 -8,-16z"/>
        </g>
       </g>
       <path class="fil22" d="M1527 1290c0,0 -82,-22 -118,33 0,0 7,-9 24,-11 0,0 -28,21 -29,43 0,0 29,-60 108,-59 0,0 -15,-5 -29,-2 0,0 24,-5 43,-4z"/>
       <path class="fil22" d="M1558 1299c0,0 4,10 31,30 27,20 29,39 29,39 0,0 -1,-27 -16,-41 0,0 13,10 16,22 0,0 -3,-35 -25,-42 -22,-8 -35,-17 -35,-17l14 17 -14 -8z"/>
       <path class="fil14" d="M1546 1302c0,0 -45,-5 -54,9 -9,14 -68,17 -73,40 -6,24 -51,53 -51,100 -17,-31 61,-120 74,-123 13,-3 9,-5 48,-22 39,-17 56,-4 56,-4z"/>
       <path class="fil14" d="M1588 1337c-2,-1 -6,-2 -11,-2 -19,-2 -30,-30 -31,-32 1,2 16,24 31,27 3,1 7,3 11,8z"/>
       <path class="fil14" d="M1635 1447c0,2 -1,3 -3,4 0,0 0,0 -1,0 0,0 -14,-5 -14,-21 0,-16 -11,-42 -18,-66 -3,-10 -4,-16 -5,-20 11,17 22,43 24,57 3,17 19,36 17,45z"/>
      </g>
      <g>
       <g>
        <g>
         <polygon class="fil16" points="1480,2954 1420,2954 1420,2245 1480,2245 "/>
        </g>
        <g>
         <path class="fil15" d="M1480 2954l0 20c0,11 -9,19 -19,19l-116 0c0,-7 2,-14 5,-19 7,-12 19,-20 34,-20l96 0z"/>
        </g>
        <g>
         <path class="fil23" d="M1480 2974c0,11 -9,19 -19,19l-116 0c0,-7 2,-14 5,-19l130 0z"/>
        </g>
       </g>
       <g>
        <g>
         <polygon class="fil15" points="1519,2954 1579,2954 1579,2245 1519,2245 "/>
        </g>
        <g>
         <polygon class="fil15" points="1480,2954 1420,2954 1420,2245 1480,2245 "/>
        </g>
        <g>
         <path class="fil16" d="M1420 2466l0 334c19,-6 39,-9 60,-11l0 -323 -60 0z"/>
        </g>
        <g>
         <path class="fil16" d="M1519 2466l0 327c20,-2 40,-4 60,-5l0 -323 -60 0z"/>
        </g>
        <g>
         <path class="fil15" d="M1519 2954l0 20c0,11 9,19 19,19l116 0c0,-7 -2,-14 -5,-19 -7,-12 -19,-20 -34,-20l-96 0z"/>
        </g>
        <g>
         <path class="fil23" d="M1519 2974c0,11 9,19 19,19l116 0c0,-7 -2,-14 -5,-19l-130 0z"/>
        </g>
       </g>
      </g>
      <g>
       <g>
        <path class="fil24" d="M1299 2006l0 0c-20,-6 -32,-27 -26,-47l61 -209c6,-20 27,-32 47,-26l0 0c20,6 32,27 26,47l-61 209c-6,20 -27,32 -47,26z"/>
       </g>
       <g>
        <path class="fil25" d="M1407 1772c2,-8 2,-17 -1,-24 0,3 0,11 -2,9 -46,-56 -82,157 -64,235 2,-3 4,-7 6,-11l61 -209z"/>
       </g>
      </g>
      <g>
       <path class="fil24" d="M1700 2006c20,-6 32,-27 26,-47l-61 -209c-6,-20 -27,-32 -47,-26 -20,6 -32,27 -26,47l61 209c6,20 27,32 47,26z"/>
      </g>
      <g>
       <path class="fil25" d="M1612 1745c-3,-3 -8,-5 -14,-6 -7,9 -9,21 -6,33l61 209c2,7 6,13 11,18 8,-66 9,-132 -9,-195 -13,-20 -27,-40 -43,-58z"/>
      </g>
      <g>
       <polygon class="fil26" points="1650,2739 1349,2739 1364,1965 1634,1965 "/>
      </g>
      <g>
       <path class="fil27" d="M1478 2312c67,16 98,70 110,129 19,79 36,154 61,227l-14 -704 -270 0 -7 347c39,-8 81,-8 121,1z"/>
      </g>
      <g>
       <path class="fil15" d="M1635 2134l-271 0 -19 -302c0,-86 69,-155 155,-155 86,0 155,69 155,155l-19 302z"/>
      </g>
      <g>
       <path class="fil28" d="M1654 1832l-19 302 -271 0 -19 -302c0,-65 40,-120 96,-143 10,-4 20,-7 31,-9 0,25 14,37 28,37l0 0c13,-1 27,-13 27,-37 32,6 60,21 82,43 28,28 45,67 45,109z"/>
      </g>
      <g>
       <path class="fil28" d="M1440 2212c0,0 12,-506 0,-524l0 524z"/>
      </g>
      <g>
       <path class="fil28" d="M1558 2212c0,0 -12,-506 0,-524l0 524z"/>
      </g>
      <g>
       <path class="fil28" d="M1500 1716c-45,25 -62,-7 -59,-23 0,-3 2,-5 3,-6 11,-8 28,-3 28,-3 0,25 14,32 28,32z"/>
      </g>
      <g>
       <path class="fil28" d="M1499 1716c45,25 62,-7 59,-23 0,-3 -2,-5 -3,-6 -11,-8 -28,-3 -28,-3 0,25 -14,32 -28,32z"/>
      </g>
      <g>
       <path class="fil29" d="M1500 1716c-45,25 -62,-11 -59,-28 0,-3 2,-5 3,-6 11,-8 28,-3 28,-3 0,25 14,37 28,37z"/>
      </g>
      <g>
       <path class="fil29" d="M1499 1716c45,25 62,-11 59,-28 0,-3 -2,-5 -3,-6 -11,-8 -28,-3 -28,-3 0,25 -14,37 -28,37z"/>
      </g>
      <g>
       <g>
        <g>
         <path class="fil29" d="M1507 1750c0,5 -4,9 -9,9 -5,0 -9,-4 -9,-9 0,-5 4,-9 9,-9 5,0 9,4 9,9z"/>
        </g>
        <g>
         <path class="fil30" d="M1492 1756c2,2 4,3 6,3 5,0 9,-4 9,-9 0,-1 0,-3 -1,-4 -4,5 -9,8 -15,10z"/>
        </g>
        <g>
         <g>
          <path class="fil28" d="M1500 1747c0,1 -1,2 -2,2 -1,0 -2,-1 -2,-2 0,-1 1,-2 2,-2 1,0 2,1 2,2z"/>
         </g>
         <g>
          <path class="fil28" d="M1500 1753c0,1 -1,2 -2,2 -1,0 -2,-1 -2,-2 0,-1 1,-2 2,-2 1,0 2,1 2,2z"/>
         </g>
        </g>
       </g>
       <g>
        <g>
         <path class="fil29" d="M1507 1806c0,5 -4,9 -9,9 -5,0 -9,-4 -9,-9 0,-5 4,-9 9,-9 5,0 9,4 9,9z"/>
        </g>
        <g>
         <path class="fil30" d="M1492 1812c2,2 4,3 6,3 5,0 9,-4 9,-9 0,-1 0,-3 -1,-4 -4,5 -9,8 -15,10z"/>
        </g>
        <g>
         <g>
          <path class="fil28" d="M1500 1803c0,1 -1,2 -2,2 -1,0 -2,-1 -2,-2 0,-1 1,-2 2,-2 1,0 2,1 2,2z"/>
         </g>
         <g>
          <path class="fil28" d="M1500 1810c0,1 -1,2 -2,2 -1,0 -2,-1 -2,-2 0,-1 1,-2 2,-2 1,0 2,1 2,2z"/>
         </g>
        </g>
       </g>
       <g>
        <g>
         <path class="fil29" d="M1507 1863c0,5 -4,9 -9,9 -5,0 -9,-4 -9,-9 0,-5 4,-9 9,-9 5,0 9,4 9,9z"/>
        </g>
        <g>
         <path class="fil30" d="M1492 1869c2,2 4,3 6,3 5,0 9,-4 9,-9 0,-1 0,-3 -1,-4 -4,5 -9,8 -15,10z"/>
        </g>
        <g>
         <g>
          <path class="fil28" d="M1500 1859c0,1 -1,2 -2,2 -1,0 -2,-1 -2,-2 0,-1 1,-2 2,-2 1,0 2,1 2,2z"/>
         </g>
         <g>
          <path class="fil28" d="M1500 1866c0,1 -1,2 -2,2 -1,0 -2,-1 -2,-2 0,-1 1,-2 2,-2 1,0 2,1 2,2z"/>
         </g>
        </g>
       </g>
       <g>
        <g>
         <path class="fil29" d="M1507 1919c0,5 -4,9 -9,9 -5,0 -9,-4 -9,-9 0,-5 4,-9 9,-9 5,0 9,4 9,9z"/>
        </g>
        <g>
         <path class="fil30" d="M1492 1925c2,2 4,3 6,3 5,0 9,-4 9,-9 0,-1 0,-3 -1,-4 -4,5 -9,8 -15,10z"/>
        </g>
        <g>
         <g>
          <path class="fil28" d="M1500 1916c0,1 -1,2 -2,2 -1,0 -2,-1 -2,-2 0,-1 1,-2 2,-2 1,0 2,1 2,2z"/>
         </g>
         <g>
          <path class="fil28" d="M1500 1922c0,1 -1,2 -2,2 -1,0 -2,-1 -2,-2 0,-1 1,-2 2,-2 1,0 2,1 2,2z"/>
         </g>
        </g>
       </g>
      </g>
      <g>
       <path class="fil31" d="M1621 1920c-38,69 -142,84 -203,42 -30,-21 -53,-50 -70,-83l16 255 271 0 18 -283c-9,24 -20,47 -32,70z"/>
      </g>
      <g>
       <path class="fil24" d="M1654 1832l-11 380 -85 0 0 -524c19,8 36,19 51,34 28,28 45,67 45,110z"/>
       <path class="fil24" d="M1440 1689l0 524 -85 0 -11 -380c0,-65 40,-120 96,-143z"/>
      </g>
      <g>
       <g>
        <g>
         <g>
          <g>
           <path class="fil24" d="M1438 2185l0 0c-17,11 -40,5 -50,-12l-110 -179c-11,-17 -5,-40 12,-50l0 0c17,-11 40,-5 50,12l110 179c11,17 5,40 -12,50z"/>
          </g>
          <g>
           <path class="fil25" d="M1450 2134l-110 -179c-2,-3 -4,-5 -6,-7 10,76 82,119 101,196 3,13 4,26 5,39 15,-11 20,-32 10,-49z"/>
          </g>
          <g>
           <g>
            <path class="fil15" d="M1470 2236c-1,0 -1,1 -2,1 -2,1 -3,2 -5,2 -12,4 -26,-1 -33,-12l-33 -53c-8,-13 -4,-31 9,-39 5,-3 10,-4 15,-4 4,0 9,1 13,3 5,2 9,6 12,11l33 53c8,13 4,31 -9,39z"/>
           </g>
           <g>
            <path class="fil16" d="M1470 2236c-1,0 -1,1 -2,1 -2,1 -3,1 -5,2 2,-38 -10,-73 -28,-106 5,2 9,6 12,11l33 53c8,13 4,31 -9,39z"/>
           </g>
           <g>
            <path class="fil15" d="M1500 2205c14,16 35,64 19,78 -16,14 -62,-13 -76,-28 -14,-16 -12,-39 3,-53 16,-14 39,-12 53,3z"/>
           </g>
           <g>
            <path class="fil16" d="M1519 2284c16,-14 -5,-63 -19,-78 -9,-10 -21,-14 -33,-12 9,9 20,17 18,31 -1,13 -13,39 -11,53 17,9 36,14 45,6z"/>
           </g>
          </g>
         </g>
        </g>
       </g>
       <g>
        <g>
         <g>
          <g>
           <path class="fil24" d="M1667 2213c20,2 38,-13 40,-33l19 -209c2,-20 -13,-38 -33,-40 -20,-2 -38,13 -40,33l-19 209c-2,20 13,38 33,40z"/>
          </g>
          <g>
           <path class="fil25" d="M1653 1964l-19 209c-1,10 2,20 9,27 29,-80 14,-175 27,-264 -9,6 -15,16 -16,27z"/>
          </g>
          <g>
           <g>
            <path class="fil15" d="M1661 2273c1,0 1,0 2,0 2,0 4,0 5,0 13,-2 23,-12 24,-26l6 -62c1,-16 -10,-30 -26,-31 -5,0 -11,1 -15,3 -4,2 -7,5 -10,8 -3,4 -5,9 -6,15l-6 62c-1,16 10,30 26,31z"/>
           </g>
           <g>
            <path class="fil16" d="M1661 2273c1,0 1,0 2,0 2,0 4,0 5,0 -18,-33 -23,-70 -22,-108 -3,4 -5,9 -6,15l-6 62c-1,16 10,30 26,31z"/>
           </g>
           <g>
            <path class="fil15" d="M1620 2259c-6,20 -3,73 17,79 20,6 50,-39 55,-59 6,-20 -6,-41 -26,-46 -20,-6 -41,6 -46,26z"/>
           </g>
           <g>
            <path class="fil16" d="M1638 2338c-20,-6 -23,-59 -17,-79 3,-12 13,-22 24,-26 -5,12 -10,24 -2,36 7,11 29,29 33,43 -11,16 -26,29 -38,26z"/>
           </g>
          </g>
         </g>
        </g>
       </g>
      </g>
      <path class="fil24" d="M1334 1750c0,0 11,-44 107,-61 0,30 0,58 0,58l-107 3z"/>
      <path class="fil24" d="M1665 1750c0,0 -11,-44 -107,-61 0,30 0,58 0,58l107 3z"/>
     </g>
     <g>
      <g>
       <g>
        <g>
         <g>
          <g>
           <path class="fil15" d="M1795 1358c0,13 -9,24 -20,24 -11,0 -20,-11 -20,-24 0,-13 9,-24 20,-24 11,0 20,11 20,24z"/>
          </g>
          <g>
           <path class="fil16" d="M2067 1358c0,13 -9,24 -20,24 -11,0 -20,-11 -20,-24 0,-13 9,-24 20,-24 11,0 20,11 20,24z"/>
          </g>
         </g>
         <g>
          <g>
           <polygon class="fil15" points="1940,1640 1883,1640 1883,1517 1940,1517 "/>
          </g>
          <g>
           <path class="fil16" d="M1911 1557c-16,0 -28,-13 -28,-28l0 -6 57 0 0 6c0,16 -13,28 -28,28z"/>
          </g>
         </g>
         <g>
          <g>
           <path class="fil15" d="M1911 1527c-75,0 -136,-61 -136,-136l0 -84c0,-75 61,-136 136,-136 75,0 136,61 136,136l0 84c0,75 -61,136 -136,136z"/>
          </g>
          <g>
           <path class="fil16" d="M2047 1307l0 84c0,75 -61,136 -136,136 -27,0 -51,-8 -72,-21 15,6 31,9 48,9 75,0 136,-61 136,-136l0 -84c0,-37 -15,-71 -40,-96 -7,-7 -15,-14 -24,-19 18,7 34,17 48,31 25,25 40,58 40,96z"/>
          </g>
         </g>
         <g>
          <g>
           <path class="fil17" d="M1847 1373c0,11 -9,20 -20,20 -11,0 -20,-9 -20,-20 0,-11 9,-20 20,-20 11,0 20,9 20,20z"/>
          </g>
          <g>
           <path class="fil17" d="M1991 1373c0,11 -9,20 -20,20 -11,0 -20,-9 -20,-20 0,-11 9,-20 20,-20 11,0 20,9 20,20z"/>
          </g>
         </g>
         <g>
          <g>
           <g>
            <path class="fil18" d="M1856 1326c0,9 -6,16 -13,16 -7,0 -13,-7 -13,-16 0,-9 6,-16 13,-16 7,0 13,7 13,16z"/>
           </g>
          </g>
          <g>
           <g>
            <path class="fil18" d="M1943 1326c0,9 6,16 13,16 7,0 13,-7 13,-16 0,-9 -6,-16 -13,-16 -7,0 -13,7 -13,16z"/>
           </g>
          </g>
          <path class="fil19" d="M1817 1299c-1,0 -3,-1 -3,-2 -1,-2 -1,-4 1,-5 26,-18 46,0 47,0 2,1 2,4 0,6 -1,2 -4,2 -6,0 -1,-1 -16,-14 -37,0 -1,0 -1,1 -2,1z"/>
          <path class="fil19" d="M1940 1299c-1,0 -3,-1 -3,-2 -1,-2 -1,-4 1,-5 26,-18 46,0 47,0 2,1 2,4 0,6 -1,2 -4,2 -6,0 -1,-1 -16,-14 -37,0 -1,0 -1,1 -2,1z"/>
         </g>
         <path class="fil20" d="M1899 1389c0,0 -1,0 -1,0 -5,-2 -8,-6 -9,-11 -1,-5 -1,-10 2,-15l3 -6c1,-1 2,-1 3,-1 1,1 1,2 1,3l-3 6c-2,3 -3,8 -2,11 1,4 4,7 7,9 1,0 1,2 1,3 0,1 -1,1 -2,1z"/>
         <g>
          <path class="fil16" d="M1937 1261l-74 0c-1,0 -2,-1 -2,-2 0,-1 1,-2 2,-2l74 0c1,0 2,1 2,2 0,1 -1,2 -2,2z"/>
         </g>
         <g>
          <path class="fil16" d="M1930 1252l-61 0c-1,0 -2,-1 -2,-2 0,-1 1,-2 2,-2l61 0c1,0 2,1 2,2 0,1 -1,2 -2,2z"/>
         </g>
        </g>
        <g>
         <path class="fil20" d="M1896 1432c-21,0 -34,-7 -34,-8 -2,-1 -2,-4 -1,-5 1,-2 4,-2 5,-1 0,0 27,15 64,0 2,-1 4,0 5,2 1,2 0,4 -2,5 -14,6 -26,8 -37,8z"/>
        </g>
        <g>
         <g>
          <path class="fil16" d="M1862 1393c0,0 -20,19 -22,32 0,0 -12,-20 22,-32z"/>
         </g>
         <g>
          <path class="fil16" d="M1934 1393c0,0 20,19 22,32 0,0 12,-20 -22,-32z"/>
         </g>
        </g>
       </g>
      </g>
      <g>
       <g>
        <g>
         <path class="fil32" d="M1933 2021l-43 0 -123 0 0 198 0 721 123 0 0 -699c0,-12 10,-22 22,-22 12,0 22,10 22,22l0 699 123 0 0 -721 0 -198 -123 0z"/>
        </g>
        <g>
         <path class="fil33" d="M1863 2221c-32,72 -16,152 -8,232 16,144 28,179 8,322 -7,57 -16,122 -59,165l85 0 0 -699c0,-12 10,-22 22,-22 12,0 22,10 22,22l0 699 108 0 0 -44c-86,-248 -28,-409 -74,-675 -8,-48 -84,-44 -104,0z"/>
        </g>
        <g>
         <g>
          <path class="fil34" d="M1889 2940l0 53 -190 0c0,-6 1,-12 4,-17 4,-8 12,-15 21,-18l57 -18 108 0z"/>
         </g>
         <g>
          <path class="fil35" d="M1889 2977l0 17 -190 0c0,-6 1,-12 4,-17l186 0z"/>
         </g>
        </g>
        <g>
         <g>
          <path class="fil34" d="M1934 2940l0 53 190 0c0,-6 -1,-12 -4,-17 -4,-8 -12,-15 -21,-18l-57 -18 -108 0z"/>
         </g>
         <g>
          <path class="fil35" d="M1934 2977l0 17 190 0c0,-6 -1,-12 -4,-17l-186 0z"/>
         </g>
        </g>
       </g>
       <g>
        <polygon class="fil33" points="1767,2121 1794,2074 1805,2074 1767,2140 "/>
       </g>
       <g>
        <polygon class="fil33" points="2056,2121 2029,2074 2018,2074 2056,2140 "/>
       </g>
       <g>
        <g>
         <g>
          <g>
           <g>
            <path class="fil36" d="M1804 1642c0,1 0,2 0,3l-58 481c-2,13 -11,24 -23,29 0,0 0,0 0,0 -5,2 -10,2 -16,2 -19,-2 -33,-20 -30,-39l58 -481c2,-16 14,-28 29,-30 3,-1 7,-1 10,0 18,2 31,18 31,35z"/>
           </g>
          </g>
         </g>
         <g>
          <g>
           <g>
            <path class="fil37" d="M1804 1642c0,1 0,2 0,3l-58 481c-2,13 -11,24 -23,29 0,0 0,0 0,0 -4,1 -7,1 -11,0 -13,-2 -24,-9 -31,-19 23,-31 63,-52 63,-94 12,-147 33,-256 28,-409 3,-1 -2,-26 1,-26 18,2 31,18 31,35z"/>
           </g>
          </g>
         </g>
         <path class="fil38" d="M1748 2147c6,23 -9,46 -31,51 -23,5 -46,-9 -51,-32 -5,-23 9,-46 32,-51 23,-5 46,9 51,32z"/>
        </g>
       </g>
       <g>
        <g>
         <g>
          <g>
           <g>
            <path class="fil36" d="M2017 1642c0,1 0,2 0,3l58 481c2,13 11,24 23,29 0,0 0,0 0,0 5,2 10,2 16,2 19,-2 33,-20 30,-39l-58 -481c-2,-16 -14,-28 -29,-30 -3,-1 -7,-1 -10,0 -18,2 -31,18 -31,35z"/>
           </g>
          </g>
         </g>
         <g>
          <g>
           <g>
            <path class="fil37" d="M2017 1642c0,1 0,2 0,3l58 481c2,13 11,24 23,29 0,0 0,0 0,0 4,1 7,1 11,0 13,-2 24,-9 31,-19 -23,-31 -63,-52 -63,-94 -12,-147 -25,-282 -20,-435 -3,-1 -7,-1 -10,0 -18,2 -31,18 -31,35z"/>
           </g>
          </g>
         </g>
         <path class="fil38" d="M2073 2147c-6,23 9,46 31,51 23,5 46,-9 51,-32 5,-23 -9,-46 -32,-51 -23,-5 -46,9 -51,32z"/>
        </g>
       </g>
       <g>
        <path class="fil36" d="M2056 1667l0 398 -289 0 0 -398c0,-60 49,-109 109,-109l71 0c60,0 109,49 109,109z"/>
       </g>
       <g>
        <path class="fil37" d="M1955 1997c-64,13 -140,8 -188,-35l0 107 289 0 0 -155c-21,40 -51,72 -100,84z"/>
       </g>
       <g>
        <line class="fil39 str2" x1="1901" y1="1579" x2="1901" y2= "2068" />
       </g>
       <g>
        <g>
         <g>
          <path class="fil40" d="M1924 1618c0,5 -4,9 -9,9 -5,0 -9,-4 -9,-9 0,-5 4,-9 9,-9 5,0 9,4 9,9z"/>
         </g>
         <g>
          <path class="fil41" d="M1908 1624c2,2 4,3 6,3 5,0 9,-4 9,-9 0,-1 0,-3 -1,-4 -4,5 -9,8 -15,10z"/>
         </g>
         <g>
          <g>
           <path class="fil36" d="M1916 1615c0,1 -1,2 -2,2 -1,0 -2,-1 -2,-2 0,-1 1,-2 2,-2 1,0 2,1 2,2z"/>
          </g>
          <g>
           <path class="fil36" d="M1916 1621c0,1 -1,2 -2,2 -1,0 -2,-1 -2,-2 0,-1 1,-2 2,-2 1,0 2,1 2,2z"/>
          </g>
         </g>
        </g>
        <g>
         <g>
          <path class="fil40" d="M1924 1692c0,5 -4,9 -9,9 -5,0 -9,-4 -9,-9 0,-5 4,-9 9,-9 5,0 9,4 9,9z"/>
         </g>
         <g>
          <path class="fil41" d="M1908 1698c2,2 4,3 6,3 5,0 9,-4 9,-9 0,-1 0,-3 -1,-4 -4,5 -9,8 -15,10z"/>
         </g>
         <g>
          <g>
           <path class="fil36" d="M1916 1689c0,1 -1,2 -2,2 -1,0 -2,-1 -2,-2 0,-1 1,-2 2,-2 1,0 2,1 2,2z"/>
          </g>
          <g>
           <path class="fil36" d="M1916 1695c0,1 -1,2 -2,2 -1,0 -2,-1 -2,-2 0,-1 1,-2 2,-2 1,0 2,1 2,2z"/>
          </g>
         </g>
        </g>
        <g>
         <g>
          <path class="fil40" d="M1924 1766c0,5 -4,9 -9,9 -5,0 -9,-4 -9,-9 0,-5 4,-9 9,-9 5,0 9,4 9,9z"/>
         </g>
         <g>
          <path class="fil41" d="M1908 1772c2,2 4,3 6,3 5,0 9,-4 9,-9 0,-1 0,-3 -1,-4 -4,5 -9,8 -15,10z"/>
         </g>
         <g>
          <g>
           <path class="fil36" d="M1916 1763c0,1 -1,2 -2,2 -1,0 -2,-1 -2,-2 0,-1 1,-2 2,-2 1,0 2,1 2,2z"/>
          </g>
          <g>
           <path class="fil36" d="M1916 1769c0,1 -1,2 -2,2 -1,0 -2,-1 -2,-2 0,-1 1,-2 2,-2 1,0 2,1 2,2z"/>
          </g>
         </g>
        </g>
        <g>
         <g>
          <path class="fil40" d="M1924 1840c0,5 -4,9 -9,9 -5,0 -9,-4 -9,-9 0,-5 4,-9 9,-9 5,0 9,4 9,9z"/>
         </g>
         <g>
          <path class="fil41" d="M1908 1846c2,2 4,3 6,3 5,0 9,-4 9,-9 0,-1 0,-3 -1,-4 -4,5 -9,8 -15,10z"/>
         </g>
         <g>
          <g>
           <path class="fil36" d="M1916 1836c0,1 -1,2 -2,2 -1,0 -2,-1 -2,-2 0,-1 1,-2 2,-2 1,0 2,1 2,2z"/>
          </g>
          <g>
           <path class="fil36" d="M1916 1843c0,1 -1,2 -2,2 -1,0 -2,-1 -2,-2 0,-1 1,-2 2,-2 1,0 2,1 2,2z"/>
          </g>
         </g>
        </g>
        <g>
         <g>
          <path class="fil40" d="M1924 1913c0,5 -4,9 -9,9 -5,0 -9,-4 -9,-9 0,-5 4,-9 9,-9 5,0 9,4 9,9z"/>
         </g>
         <g>
          <path class="fil41" d="M1908 1919c2,2 4,3 6,3 5,0 9,-4 9,-9 0,-1 0,-3 -1,-4 -4,5 -9,8 -15,10z"/>
         </g>
         <g>
          <g>
           <path class="fil36" d="M1916 1910c0,1 -1,2 -2,2 -1,0 -2,-1 -2,-2 0,-1 1,-2 2,-2 1,0 2,1 2,2z"/>
          </g>
          <g>
           <path class="fil36" d="M1916 1917c0,1 -1,2 -2,2 -1,0 -2,-1 -2,-2 0,-1 1,-2 2,-2 1,0 2,1 2,2z"/>
          </g>
         </g>
        </g>
        <g>
         <g>
          <path class="fil40" d="M1924 1987c0,5 -4,9 -9,9 -5,0 -9,-4 -9,-9 0,-5 4,-9 9,-9 5,0 9,4 9,9z"/>
         </g>
         <g>
          <path class="fil41" d="M1908 1993c2,2 4,3 6,3 5,0 9,-4 9,-9 0,-1 0,-3 -1,-4 -4,5 -9,8 -15,10z"/>
         </g>
         <g>
          <g>
           <path class="fil36" d="M1916 1984c0,1 -1,2 -2,2 -1,0 -2,-1 -2,-2 0,-1 1,-2 2,-2 1,0 2,1 2,2z"/>
          </g>
          <g>
           <path class="fil36" d="M1916 1991c0,1 -1,2 -2,2 -1,0 -2,-1 -2,-2 0,-1 1,-2 2,-2 1,0 2,1 2,2z"/>
          </g>
         </g>
        </g>
       </g>
       <g>
        <path class="fil38" d="M1940 1558c-4,12 -16,20 -29,20 -13,0 -25,-8 -29,-20l58 0z"/>
       </g>
       <g>
        <polygon class="fil42" points="2056,2074 1767,2074 1767,2041 2056,2041 "/>
       </g>
       <g>
        <polygon class="fil43" points="1925,2074 1898,2074 1898,2041 1925,2041 "/>
       </g>
       <g>
        <path class="fil36" d="M1737 1630c0,0 11,-66 127,-71l0 71 -127 0z"/>
       </g>
       <g>
        <path class="fil36" d="M2084 1630c0,0 -11,-66 -127,-71l0 71 127 0z"/>
       </g>
      </g>
      <path class="fil13" d="M1951 1176c0,0 0,0 0,0 -2,2 -13,13 -69,29 -43,13 -62,27 -73,30 0,0 0,0 0,0 0,0 0,0 0,0 -5,1 -8,0 -12,-4 -2,-2 -1,-7 2,-12l0 0c16,-27 88,-79 153,-43z"/>
      <path class="fil13" d="M1808 1236c0,0 0,1 0,1l0 0c-4,33 -32,97 -32,97l-9 2c-18,-48 32,-117 32,-117l0 0c9,-3 11,4 9,17z"/>
      <path class="fil13" d="M2053 1336l-4 -1 0 0 -5 -1c0,0 -48,-87 -37,-104 0,0 1,-1 1,-1 3,-3 8,-2 18,3 0,0 46,56 27,105z"/>
      <path class="fil13" d="M2026 1231c-4,0 -9,0 -13,0 -2,0 -4,-1 -6,-1 -34,-9 -54,-51 -56,-54 0,0 0,0 0,0 0,0 44,2 75,55z"/>
      <g>
       <polygon class="fil40" points="1879,1542 1911,1578 1879,1618 1864,1558 "/>
      </g>
      <g>
       <polygon class="fil40" points="1940,1542 1908,1578 1940,1618 1955,1558 "/>
      </g>
      <path class="fil22" d="M1911 1176c0,0 -47,-11 -88,30 0,0 15,-8 24,-9 0,0 -27,12 -32,30 0,0 64,-36 84,-37 0,0 -11,-2 -26,2 0,0 25,-13 38,-16z"/>
      <path class="fil22" d="M1969 1187c0,0 17,30 42,37 0,0 -11,-9 -12,-14 0,0 11,4 14,9 0,0 -11,-16 -26,-24 0,0 5,4 6,8 0,0 -20,-8 -23,-17z"/>
      <path class="fil14" d="M2049 1335l-5 -1c0,0 -48,-87 -37,-104 -34,-9 -54,-51 -56,-54 2,2 39,41 57,52 2,1 4,2 5,3 0,0 0,0 0,0 0,0 27,101 36,104z"/>
      <path class="fil14" d="M1808 1237c-4,33 -32,97 -32,97 -10,-18 27,-88 32,-97z"/>
      <path class="fil14" d="M1951 1176c-2,2 -13,13 -69,29 -43,13 -62,27 -73,30 4,-2 65,-33 83,-38 17,-5 56,-19 60,-21z"/>
     </g>
     <g>
      <path class="fil44" d="M1747 1805c3,-22 8,-46 14,-58 0,0 -12,74 -6,136 -3,-11 -13,-48 -9,-78z"/>
     </g>
     <g>
      <path class="fil44" d="M1282 1805c-3,-22 -8,-46 -14,-58 0,0 12,74 6,136 3,-11 13,-48 9,-78z"/>
     </g>
    </g>
    <g>
     <path class="fil45" d="M1586 4887c0,0 2,-4 4,-7 2,-3 4,-9 6,-15 1,-6 2,-10 2,-15 0,-4 0,-11 -2,-19 -2,-9 -5,-15 -6,-17 -1,-2 -6,-10 -7,-12 -1,-2 -5,-7 -6,-9 -1,-2 -3,-4 -4,-7 -1,-2 -1,-5 -2,-6 0,-2 0,-2 -2,-5 -2,-2 -3,-3 -4,-3 -2,0 -5,0 -8,1 -2,1 -6,3 -9,4 -2,1 -6,4 -8,6 -2,2 -10,10 -15,15 -5,6 -12,15 -16,20 -4,5 -11,14 -14,18 -2,4 -8,11 -10,15 -2,4 -7,14 -9,18 -2,4 -12,21 -13,23 -1,2 -9,14 -10,16 -1,2 -13,21 -17,26 -3,4 -10,12 -12,14 -2,2 -6,7 -9,10 -3,2 -7,6 -9,6 0,0 -5,1 -9,4 -3,3 -9,9 -12,12 -4,3 -14,10 -18,12 -4,3 -9,8 -11,11 -2,3 -4,5 -4,9 0,4 0,6 0,6 0,0 0,7 11,10 11,4 32,7 54,9 22,1 33,3 50,1 17,-1 33,-7 44,-14 11,-7 14,-14 15,-17 1,-3 3,-7 4,-12 1,-5 6,-19 8,-25 1,-5 10,-28 12,-32 2,-4 15,-29 17,-32 2,-3 9,-12 11,-13 1,-1 5,-6 5,-6l1 -1z"/>
     <path class="fil46" d="M1353 5017c0,0 0,5 7,9 7,4 30,8 36,9 5,1 39,4 56,4 0,0 14,1 29,-2 0,0 16,-3 24,-8 0,0 15,-8 20,-16 5,-8 6,-12 9,-21 0,0 6,-21 10,-30 3,-8 12,-27 15,-35 4,-8 9,-17 14,-23 4,-6 8,-11 9,-12 1,-1 4,-4 4,-4l1 -1 0 0c0,0 -4,12 -6,20 -2,8 -4,19 -5,25 -1,6 -4,20 -4,23 -1,3 -2,12 -2,17 -1,5 -2,14 -2,15 0,1 -1,3 -1,3 0,0 -7,6 -9,8 -2,2 -7,4 -7,4 0,0 -1,-1 -3,-1 -2,0 -6,0 -6,0 0,0 -8,8 -13,13 -5,5 -10,10 -13,13 -3,3 -8,5 -12,7 -4,2 -16,4 -23,6 -7,2 -24,5 -42,3 0,0 -17,-1 -29,-2 -12,-1 -27,-4 -33,-6 -7,-2 -17,-4 -20,-8 -4,-3 -4,-4 -4,-6 0,-2 1,-4 1,-4z"/>
     <path class="fil47" d="M1531 4835c-4,4 -20,-2 -26,8 -6,12 -21,41 -25,51 -2,6 -15,27 -21,35 -6,9 -41,33 -48,38 -10,7 42,27 67,22 18,-4 29,-11 37,-23 0,0 8,-9 11,-22 5,-26 54,-79 58,-101 1,-5 -41,-19 -53,-9z"/>
     <path class="fil45" d="M1828 4887c0,0 -2,-4 -4,-7 -2,-3 -4,-9 -6,-15 -1,-6 -2,-10 -2,-15 0,-4 0,-11 2,-19 2,-9 5,-15 6,-17 1,-2 6,-10 7,-12 1,-2 5,-7 6,-9 1,-2 3,-4 4,-7 1,-2 1,-5 2,-6 0,-2 0,-2 2,-5 2,-2 3,-3 4,-3 2,0 5,0 8,1 2,1 6,3 9,4 2,1 6,4 8,6 2,2 10,10 15,15 5,6 12,15 16,20 4,5 11,14 14,18 2,4 8,11 10,15 2,4 7,14 9,18 2,4 12,21 13,23 1,2 9,14 10,16 1,2 13,21 17,26 3,4 10,12 12,14 2,2 6,7 9,10 3,2 7,6 9,6 0,0 5,1 9,4 3,3 9,9 12,12 4,3 14,10 18,12 4,3 9,8 11,11 2,3 4,5 4,9 0,4 0,6 0,6 0,0 0,7 -11,10 -11,4 -32,7 -54,9 -22,1 -33,3 -50,1 -17,-1 -33,-7 -44,-14 -11,-7 -14,-14 -15,-17 -1,-3 -3,-7 -4,-12 -1,-5 -6,-19 -8,-25 -1,-5 -10,-28 -12,-32 -2,-4 -15,-29 -17,-32 -2,-3 -9,-12 -11,-13 -1,-1 -5,-6 -5,-6l-1 -1z"/>
     <path class="fil46" d="M2061 5017c0,0 0,5 -7,9 -7,4 -30,8 -36,9 -5,1 -40,4 -56,4 0,0 -14,1 -29,-2 0,0 -16,-3 -24,-8 0,0 -15,-8 -20,-16 -5,-8 -6,-12 -9,-21 0,0 -6,-21 -10,-30 -3,-8 -12,-27 -15,-35 -4,-8 -9,-17 -14,-23 -4,-6 -8,-11 -9,-12 -1,-1 -4,-4 -4,-4l-1 -1 0 0c0,0 4,12 6,20 2,8 4,19 5,25 1,6 4,20 4,23 1,3 2,12 2,17 1,5 2,14 2,15 0,1 1,3 1,3 0,0 7,6 9,8 2,2 7,4 7,4 0,0 1,-1 3,-1 2,0 6,0 6,0 0,0 8,8 13,13 5,5 10,10 13,13 3,3 8,5 12,7 4,2 16,4 23,6 7,2 24,5 42,3 0,0 17,-1 29,-2 12,-1 27,-4 33,-6 7,-2 17,-4 20,-8 4,-3 4,-4 4,-6 0,-2 -1,-4 -1,-4z"/>
     <path class="fil47" d="M1883 4835c4,4 20,-2 26,8 6,12 21,41 25,51 2,6 15,27 21,35 6,9 41,33 48,38 10,7 -42,27 -67,22 -18,-4 -29,-11 -37,-23 0,0 -8,-9 -11,-22 -5,-26 -54,-79 -58,-101 -1,-5 41,-19 53,-9z"/>
     <path class="fil48" d="M1554 3405c0,0 39,606 34,740l-3 698 -79 1c-7,-276 -39,-502 -8,-699 -59,-190 -24,-356 -35,-582 0,0 -27,-156 90,-159z"/>
     <path class="fil48" d="M1861 3405c0,0 -39,606 -34,740l3 698 79 1c7,-276 99,-498 68,-694 59,-190 -37,-360 -25,-587 0,0 27,-156 -90,-159z"/>
     <polygon class="fil49" points="1859,3005 1574,3005 1574,2961 1859,2961 "/>
     <path class="fil50" d="M1597 3133c-69,-11 -79,48 -95,116 -16,69 -28,153 -31,252 -7,248 -41,448 -29,559 6,56 54,99 110,99 58,0 106,-44 111,-102l49 -781c6,-70 -43,-133 -113,-143 -1,0 -2,0 -2,0z"/>
     <path class="fil50 str3" d="M1661 4050l-33 766 -184 0 -3 -770c1,-60 50,-109 110,-109 62,0 111,50 110,112z"/>
     <path class="fil50" d="M1835 3133c69,-11 69,36 85,105 16,69 28,153 31,252 7,248 51,459 39,571 -6,56 -54,99 -110,99 -58,0 -106,-44 -111,-102l-49 -781c-6,-70 43,-133 113,-143 1,0 2,0 2,0z"/>
     <path class="fil50" d="M1770 4050l33 766 184 0 3 -770c-1,-60 -50,-109 -110,-109 -62,0 -111,50 -110,112z"/>
     <path class="fil50" d="M1859 3005l-285 0c0,0 -74,51 -114,214l216 124c25,15 56,15 81,0l216 -123c-44,-158 -114,-214 -114,-214z"/>
     <path class="fil51" d="M1585 3059c0,0 0,0 0,1 0,5 -3,29 -15,54 -12,25 -33,52 -71,63 -2,0 -3,2 -2,4 0,2 2,3 4,2 43,-12 66,-44 78,-71 12,-28 13,-52 13,-52 0,-2 -1,-3 -3,-3 -2,0 -3,1 -3,3z"/>
     <path class="fil51" d="M1839 3059c0,0 1,25 13,52 12,28 35,59 78,71 2,0 3,0 4,-2 0,-2 0,-3 -2,-4 -41,-12 -62,-41 -74,-68 -6,-13 -9,-26 -11,-35 -1,-5 -1,-8 -2,-11 0,-1 0,-2 0,-3 0,-1 0,-1 0,-1 0,-2 -2,-3 -3,-3 -2,0 -3,2 -3,3z"/>
     <path class="fil52" d="M2117 4175c0,0 -243,97 -377,97 -143,0 -459,-49 -459,-49l222 -1402c-84,-53 -35,-248 -17,-239l-20 -142 183 -78 118 -1 191 71 -21 151c27,2 86,185 -12,222l191 1370z"/>
     <path class="fil53" d="M1875 2846c0,0 -129,91 -316,6 0,0 174,47 316,-6z"/>
     <g>
      <g>
       <g>
        <path class="fil48" d="M1281 3433c0,0 10,34 22,59 11,25 4,44 10,66 7,22 -20,21 -25,-3 -5,-23 -3,-34 -8,-35 -5,-1 -19,56 -21,73 -2,16 1,57 -5,64 -6,6 -21,-17 -16,-59 5,-43 1,-42 1,-42 0,0 -4,17 -8,34 -4,18 -4,39 -3,52 1,12 -12,18 -15,12 -4,-7 -9,-49 -5,-65 5,-17 11,-45 11,-45 0,0 -16,38 -19,48 -3,10 2,47 -7,54 -4,3 -15,-1 -13,-54 0,0 4,-26 10,-42 0,0 -9,12 -13,28 -4,14 -6,29 -7,44 -1,14 -14,13 -14,-13 0,-26 4,-54 11,-67 7,-14 18,-93 39,-122l75 16z"/>
       </g>
      </g>
      <g>
       <path class="fil52" d="M1521 2582c0,0 -63,292 -114,389 0,0 -26,129 -124,466 0,0 -51,20 -81,-18 0,0 55,-373 83,-492 0,0 92,-418 182,-488 0,0 47,53 53,142z"/>
      </g>
     </g>
     <g>
      <g>
       <g>
        <path class="fil48" d="M2144 3433c0,0 -10,34 -22,59 -11,25 -4,44 -10,66 -7,22 20,21 25,-3 5,-23 3,-34 8,-35 5,-1 19,56 21,73 2,16 -1,57 5,64 6,6 21,-17 16,-59 -5,-43 -1,-42 -1,-42 0,0 4,17 8,34 4,18 4,39 3,52 -1,12 12,18 15,12 4,-7 9,-49 5,-65 -5,-17 -11,-45 -11,-45 0,0 16,38 19,48 3,10 -2,47 7,54 4,3 15,-1 13,-54 0,0 -4,-26 -10,-42 0,0 9,12 13,28 4,14 6,29 7,44 1,14 14,13 14,-13 0,-26 -4,-54 -11,-67 -7,-14 -18,-93 -39,-122l-75 16z"/>
       </g>
      </g>
      <g>
       <path class="fil52" d="M1904 2582c0,0 61,283 112,381 0,0 28,138 126,475 0,0 51,20 81,-18 0,0 -47,-371 -76,-490 0,0 -122,-422 -189,-497 0,0 -48,61 -55,150z"/>
      </g>
     </g>
     <g>
      <g>
       <path class="fil48" d="M1775 2274l-2 43 -3 54c0,0 -11,20 -59,20 -49,0 -59,-14 -59,-14l-2 -24 -7 -80 131 0z"/>
      </g>
      <g>
       <path class="fil54" d="M1775 2274l-2 43c-20,15 -68,45 -123,37l-7 -80 131 0z"/>
      </g>
     </g>
     <path class="fil48" d="M1879 2049c0,5 -1,11 -2,16 -11,111 -46,252 -168,252 -120,0 -167,-133 -182,-241 -1,-8 -2,-16 -3,-23 -11,-103 69,-194 173,-195l9 0c77,1 141,51 164,119 3,8 5,17 7,25 3,15 4,31 2,47z"/>
     <path class="fil55" d="M1597 2243c0,0 -199,-3 -160,-267 0,0 56,-267 201,-249 0,0 151,-80 265,87 0,0 90,116 69,255 0,0 -12,156 -154,173 -5,0 165,-188 -94,-294 0,0 45,62 93,71 0,0 -97,15 -186,-84 0,0 -50,119 -95,155 0,0 -8,91 60,151z"/>
     <g>
      <g>
       <g>
        <path class="fil48" d="M1549 2083c0,0 -22,-22 -40,-8 -21,17 1,77 38,70l2 -63z"/>
       </g>
      </g>
     </g>
     <path class="fil22" d="M1558 2147c0,9 -7,16 -16,16 -9,0 -16,-7 -16,-16 0,-9 7,-16 16,-16 9,0 16,7 16,16z"/>
     <path class="fil55" d="M1663 2033c-1,5 -6,9 -11,8 -18,-4 -56,-9 -79,6 0,0 14,-32 81,-25 5,1 9,5 8,10z"/>
     <g>
      <g>
       <g>
        <path class="fil48" d="M1850 2083c0,0 22,-22 40,-8 21,17 -1,77 -38,70l-2 -63z"/>
       </g>
      </g>
     </g>
     <path class="fil22" d="M1876 2147c0,9 -7,16 -16,16 -9,0 -16,-7 -16,-16 0,-9 7,-16 16,-16 9,0 16,7 16,16z"/>
     <g>
      <path class="fil56" d="M1668 2223c0,0 2,27 39,27 37,0 39,-27 39,-27l-78 0z"/>
      <path class="fil56" d="M1745 2223c0,0 -35,-20 -78,0 0,0 43,18 78,0z"/>
      <path class="fil57" d="M1657 2222c0,0 20,11 48,11 14,0 31,-3 48,-11 1,-1 2,-2 1,-4 -1,-1 -2,-2 -4,-1 -17,8 -32,11 -46,11 -14,0 -25,-3 -33,-5 -4,-1 -7,-3 -9,-4 -1,-1 -2,-1 -2,-1l-1 0c-1,-1 -3,0 -4,1 -1,1 0,3 1,4z"/>
     </g>
     <path class="fil57" d="M1696 2139l0 20c0,1 1,2 2,2l14 0c1,0 2,-1 2,-2 0,-1 -1,-2 -2,-2l-13 0 0 -18c0,-1 -1,-2 -2,-2 -1,0 -2,1 -2,2z"/>
     <g>
      <path class="fil58" d="M1654 2089c0,0 -10,-24 -33,-25 -23,-1 -37,17 -37,17 0,0 6,21 34,22 28,1 36,-14 36,-14z"/>
      <path class="fil49" d="M1596 2082c0,7 2,13 6,17 4,2 10,3 16,4 6,0 11,0 15,-1 5,-4 9,-10 9,-17 0,-6 -2,-12 -6,-17 -4,-2 -9,-4 -15,-5 -7,0 -14,1 -19,3 -4,4 -6,9 -7,15z"/>
      <path class="fil49" d="M1656 2088c0,0 -2,-7 -8,-13 -5,-7 -14,-13 -27,-13l-1 0c-25,0 -38,18 -38,18l0 2 2 0 1 -1c3,-3 15,-16 35,-16l0 0c12,0 19,6 24,12 3,3 4,6 5,8 1,1 1,2 1,3l0 1c0,1 1,1 2,1 1,0 1,-1 1,-2z"/>
     </g>
     <g>
      <path class="fil58" d="M1740 2089c0,0 10,-24 33,-25 23,-1 37,17 37,17 0,0 -6,21 -34,22 -28,1 -36,-14 -36,-14z"/>
      <path class="fil49" d="M1798 2082c0,7 -2,13 -6,17 -4,2 -10,3 -16,4 -6,0 -11,0 -15,-1 -5,-4 -9,-10 -9,-17 0,-6 2,-12 6,-17 4,-2 9,-4 15,-5 7,0 14,1 19,3 4,4 6,9 7,15z"/>
      <path class="fil49" d="M1738 2088c0,0 2,-7 8,-13 5,-7 14,-13 27,-13l1 0c25,0 38,18 38,18l0 2 -2 0 -1 -1c-3,-3 -15,-16 -35,-16l0 0c-12,0 -19,6 -24,12 -3,3 -4,6 -5,8 -1,1 -1,2 -1,3l0 1c0,1 -1,1 -2,1 -1,0 -1,-1 -1,-2z"/>
     </g>
     <path class="fil55" d="M1730 2033c1,5 6,9 11,8 18,-4 56,-9 79,6 0,0 -14,-32 -81,-25 -5,1 -9,5 -8,10z"/>
     <path class="fil47 str4" d="M1652 2362l117 0 0 128c0,32 -26,58 -58,58l0 0c-32,0 -58,-26 -58,-58l0 -128z"/>
    </g>
   </g>
  </g>
  <path class="fil59" d="M1712 0c946,0 1712,767 1712,1712 0,946 -767,1712 -1712,1712 -946,0 -1712,-767 -1712,-1712 0,-946 767,-1712 1712,-1712z"/>
 </g>
</svg>
