<?xml version="1.0" encoding="UTF-8"?>
<!DOCTYPE svg PUBLIC "-//W3C//DTD SVG 1.1//EN" "http://www.w3.org/Graphics/SVG/1.1/DTD/svg11.dtd">
<!-- Creator: CorelDRAW X6 -->
<svg xmlns="http://www.w3.org/2000/svg" xml:space="preserve" width="50mm" height="50mm" version="1.1" style="shape-rendering:geometricPrecision; text-rendering:geometricPrecision; image-rendering:optimizeQuality; fill-rule:evenodd; clip-rule:evenodd"
viewBox="0 0 5907 5907"
 xmlns:xlink="http://www.w3.org/1999/xlink">
 <defs>
  <style type="text/css">
   <![CDATA[
    .str3 {stroke:#31314B;stroke-width:9.0025}
    .str1 {stroke:#00A0E3;stroke-width:23.6286}
    .str0 {stroke:#898989;stroke-width:23.6286}
    .str2 {stroke:#162644;stroke-width:41.6808}
    .fil3 {fill:none}
    .fil31 {fill:#84919A}
    .fil2 {fill:#00A0E3}
    .fil1 {fill:#898989}
    .fil0 {fill:#B0CB1F}
    .fil27 {fill:#F6AC80}
    .fil33 {fill:black}
    .fil6 {fill:#0F110E}
    .fil5 {fill:#162D3D}
    .fil41 {fill:#291FAC}
    .fil40 {fill:#31314B}
    .fil13 {fill:#3F5259}
    .fil10 {fill:#595959}
    .fil34 {fill:#995342}
    .fil22 {fill:#B6B5B5}
    .fil30 {fill:#C11C56}
    .fil37 {fill:#DE5A62}
    .fil26 {fill:#E62F67}
    .fil36 {fill:#ECB82D}
    .fil28 {fill:#F0E3E7}
    .fil19 {fill:#F27E31}
    .fil11 {fill:#F6F6F6}
    .fil17 {fill:#FDC333}
    .fil32 {fill:#FFAF82}
    .fil38 {fill:white}
    .fil39 {fill:#2B2A29;fill-rule:nonzero}
    .fil4 {fill:#FEFEFE;fill-rule:nonzero}
    .fil9 {fill:#0F110E;fill-rule:nonzero}
    .fil21 {fill:#3B425B;fill-rule:nonzero}
    .fil24 {fill:#3F5259;fill-rule:nonzero}
    .fil29 {fill:#C11C56;fill-rule:nonzero}
    .fil7 {fill:#DB3333;fill-rule:nonzero}
    .fil8 {fill:#F2AA1C;fill-rule:nonzero}
    .fil35 {fill:#F78967;fill-rule:nonzero}
    .fil14 {fill:#FDC333;fill-rule:nonzero}
    .fil25 {fill:#FFAF82;fill-rule:nonzero}
    .fil20 {fill:#607985;fill-opacity:0.168627}
    .fil12 {fill:#3B425B;fill-opacity:0.388235}
    .fil16 {fill:#607985;fill-opacity:0.388235}
    .fil18 {fill:#BA7985;fill-opacity:0.388235}
    .fil23 {fill:#C4BAAA;fill-opacity:0.388235}
    .fil15 {fill:#BA7985;fill-rule:nonzero;fill-opacity:0.388235}
   ]]>
  </style>
    <clipPath id="id0">
     <path d="M2954 0c1631,0 2954,1322 2954,2954 0,1631 -1322,2954 -2954,2954 -1631,0 -2954,-1322 -2954,-2954 0,-1631 1322,-2954 2954,-2954z"/>
    </clipPath>
 </defs>
 <g id="Layer_x0020_1">
  <metadata id="CorelCorpID_0Corel-Layer"/>
  <g id="_987936848">
   <path class="fil0" d="M2954 0c1631,0 2954,1322 2954,2954 0,1631 -1322,2954 -2954,2954 -1631,0 -2954,-1322 -2954,-2954 0,-1631 1322,-2954 2954,-2954z"/>
   <g style="clip-path:url(#id0)">
    <g>
     <rect class="fil1 str0" x="-920" y="4040" width="7915" height="2038"/>
     <rect class="fil2 str1" x="-920" y="-549" width="7915" height="4589"/>
    </g>
   </g>
   <path class="fil3" d="M2954 0c1631,0 2954,1322 2954,2954 0,1631 -1322,2954 -2954,2954 -1631,0 -2954,-1322 -2954,-2954 0,-1631 1322,-2954 2954,-2954z"/>
   <path class="fil4" d="M982 1210c61,5 127,24 169,-20 83,-88 109,-131 124,-134 59,-14 103,-79 162,-64 38,9 71,38 111,38 107,-2 119,-197 226,-205 60,-4 115,60 173,43 31,-9 51,-39 73,-64 53,-58 135,-87 212,-76 77,11 148,62 183,132 20,39 28,83 51,121 23,37 67,68 109,54 33,-11 54,-46 88,-53 42,-9 78,29 101,65 23,36 46,79 87,89 30,7 60,-4 90,-11 131,-27 258,55 367,132 -40,-3 -80,-8 -120,-8l-2303 0c71,-41 -16,-47 99,-37z"/>
   <g>
    <path class="fil5" d="M1455 3543l-192 401c29,14 64,4 81,-23l212 -350 -101 -28z"/>
    <path class="fil6" d="M2085 4011l-455 247c-45,24 -73,72 -73,123 0,77 63,140 140,140l767 0c44,0 85,-20 111,-55l33 -43c51,-67 32,-162 -40,-205l-344 -204c-42,-25 -95,-26 -138,-3z"/>
    <path class="fil7" d="M1301 3467l-72 -2c-21,-1 -39,17 -38,38l1 85c0,12 6,23 15,29l69 52c24,18 59,1 60,-30l1 -135c0,-20 -16,-37 -36,-38z"/>
    <g>
     <path class="fil8" d="M1349 3488l-45 -37c-5,-4 -11,-7 -18,-7l-11 0c-16,0 -30,12 -30,29l-4 225c-1,57 46,102 102,100 0,0 9,-105 9,-113l5 -174c0,-9 -4,-17 -10,-23z"/>
     <path class="fil9" d="M1505 3393c-75,0 -44,0 -143,0 -24,0 -43,19 -44,42l-10 325c-1,37 41,58 70,35l161 -334c20,-29 0,-68 -36,-68z"/>
    </g>
    <path class="fil10" d="M3019 3670c0,0 100,-55 100,-174l-124 -82 0 240 24 16z"/>
    <g>
     <path class="fil6" d="M1706 3944c-251,0 -455,203 -455,454 0,251 204,454 455,454 251,0 455,-203 455,-454 0,-251 -204,-454 -455,-454zm0 740l0 0c-158,0 -287,-128 -287,-286 0,-158 128,-286 287,-286 158,0 287,128 287,286 0,158 -128,286 -287,286z"/>
     <path class="fil11" d="M1706 4097c-167,0 -302,135 -302,301 0,167 135,301 302,301 167,0 302,-135 302,-301 0,-167 -135,-301 -302,-301zm23 46l0 0c30,3 58,10 84,22l-84 141 0 -163zm-46 156l0 0 -74 -138c23,-10 48,-16 74,-18l0 156zm-67 113l0 0 -149 80c-10,-25 -16,-52 -17,-80l166 0zm-165 -46l0 0c4,-31 13,-60 27,-86l145 86 -172 0zm232 287l0 0c-33,-3 -64,-12 -93,-26l93 -155 0 182zm46 -175l0 0 83 153c-26,12 -53,19 -83,22l0 -175zm67 -113l0 0 142 -77c11,24 19,50 22,77l-165 0zm166 46l0 0c-2,32 -9,63 -22,91l-152 -91 174 0zm-47 -162l0 0 -147 80 85 -142c24,17 46,38 63,62zm-347 -68l0 0 78 145 -143 -86c18,-23 40,-43 65,-59zm-81 351l0 0 156 -85 -92 155c-26,-19 -47,-43 -64,-70zm364 77l0 0 -86 -159 153 91c-18,26 -41,49 -67,68z"/>
     <path class="fil6" d="M1706 4288c-61,0 -111,50 -111,111 0,61 50,111 111,111 61,0 111,-50 111,-111 0,-61 -50,-111 -111,-111z"/>
     <path class="fil12" d="M1706 3944c-233,0 -426,175 -452,402l906 85c1,-11 1,-21 1,-32 0,-251 -204,-454 -455,-454z"/>
    </g>
    <g>
     <path class="fil6" d="M4109 3970c-237,85 -360,345 -276,581 84,236 345,359 581,275 237,-85 360,-345 276,-581 -84,-236 -345,-359 -581,-275zm249 697l0 0c-149,53 -313,-24 -366,-173 -53,-149 25,-313 174,-366 149,-53 313,24 366,173 53,149 -25,313 -174,366z"/>
     <path class="fil11" d="M4160 4114c-157,56 -239,229 -183,386 56,157 229,238 386,182 157,-56 239,-229 183,-386 -56,-157 -229,-238 -386,-182zm37 36l0 0c29,-8 58,-10 87,-7l-32 161 -55 -154zm10 162l0 0 -117 -105c19,-17 40,-31 64,-42l52 147zm-25 129l0 0 -113 126c-18,-20 -32,-44 -43,-70l156 -56zm-170 12l0 0c-7,-30 -8,-61 -4,-90l165 33 -162 58zm315 193l0 0c-32,8 -65,10 -96,6l35 -178 61 171zm-16 -180l0 0 129 116c-20,19 -44,36 -71,48l-59 -164zm25 -129l0 0 108 -120c19,19 35,40 47,65l-155 55zm172 -13l0 0c9,31 13,62 10,93l-174 -34 163 -58zm-99 -137l0 0 -112 125 32 -162c29,8 56,20 80,37zm-350 53l0 0 123 110 -164 -32c9,-28 23,-54 41,-78zm42 357l0 0 119 -132 -35 177c-30,-9 -59,-25 -84,-45zm368 -50l0 0 -134 -121 175 34c-8,31 -22,60 -41,86z"/>
     <path class="fil6" d="M4224 4294c-58,21 -88,84 -67,142 21,58 84,88 142,67 58,-21 88,-84 67,-142 -21,-58 -84,-88 -142,-67z"/>
     <path class="fil12" d="M4109 3970c-220,79 -342,309 -291,530l882 -225c-3,-10 -6,-20 -10,-31 -84,-236 -345,-359 -581,-275z"/>
    </g>
    <path class="fil5" d="M2323 4428l-64 0c-44,0 -80,-36 -80,-80l0 -148c0,-44 36,-80 80,-80l64 0c44,0 80,36 80,80l0 148c0,44 -36,80 -80,80z"/>
    <path class="fil13" d="M2346 4426l0 -41c0,-29 23,-52 52,-52l96 0c29,0 52,23 52,52l0 41c0,29 -23,52 -52,52l-96 0c-29,0 -52,-23 -52,-52z"/>
    <g>
     <path class="fil9" d="M2500 4532c-21,0 -41,-1 -60,-4 -66,-8 -109,-28 -127,-60 -21,-35 -89,-34 -121,-33l-2 -81c48,-1 148,-3 193,73 5,6 36,20 96,23 66,3 123,-10 137,-24 47,-47 86,-124 86,-125l73 36c-2,4 -45,90 -102,146 -35,35 -105,48 -173,48z"/>
    </g>
    <g>
     <g>
      <polygon class="fil9" points="4167,4071 4259,4022 4402,4291 4311,4340 "/>
      <polygon class="fil9" points="4057,4027 4096,4006 4307,4401 4268,4422 "/>
      <polygon class="fil9" points="4148,4081 4278,4011 4075,3630 3945,3700 "/>
     </g>
     <path class="fil6" d="M4271 4438c27,14 61,3 75,-24l22 -42 64 -124c14,-27 4,-61 -24,-75 -8,-4 -17,-6 -25,-6 -20,0 -40,11 -50,30l-58 112 -28 54c-14,27 -3,61 24,75z"/>
     <path class="fil12" d="M4276 4308c31,21 61,42 92,64l64 -124c14,-27 4,-61 -24,-75 -8,-4 -17,-6 -25,-6 -20,0 -40,11 -50,30l-58 112z"/>
    </g>
    <path class="fil14" d="M4707 4040c0,0 -415,-22 -536,15 -7,2 -14,4 -20,7 -112,51 -268,236 -268,236l-153 0c-32,-468 264,-669 580,-656 45,2 86,31 126,22 106,-23 321,274 271,376z"/>
    <path class="fil15" d="M4436 3664c-5,6 -9,12 -13,18 -84,124 -168,248 -252,372 -7,2 -14,4 -20,7 -112,51 -268,236 -268,236l-153 0c-32,-468 264,-669 580,-656 45,2 87,10 126,22z"/>
    <path class="fil13" d="M4370 3677c0,0 -415,457 -490,567 -58,85 -115,130 -162,154 -71,36 -121,24 -121,24l-1056 0c-53,0 -101,-28 -129,-73l-177 -294 -48 -80 0 -700 832 130 0 265c-82,59 -108,176 -113,280 -2,38 7,74 24,104 33,58 95,98 167,98l371 0c22,0 43,-4 62,-11 51,-17 93,-56 115,-107 57,-136 137,-362 124,-540 -11,-141 -58,-294 -101,-409 -40,-105 -76,-178 -76,-178l257 -119c0,0 445,730 522,888z"/>
    <path class="fil16" d="M4370 3677c0,0 -415,457 -490,567 -58,85 -115,130 -162,154l-152 24 -197 31c0,0 0,-29 25,-31 268,-24 516,-440 557,-566 48,-147 -200,-712 -200,-712l-83 -57c-40,-105 -76,-178 -76,-178l257 -119c0,0 445,730 522,888z"/>
    <path class="fil6" d="M3880 4244c-146,213 -283,178 -283,178l-1056 0c-53,0 -101,-28 -129,-73l-177 -294 695 0c33,58 95,98 167,98l371 0c22,0 43,-4 62,-11l350 101z"/>
    <path class="fil17" d="M4423 3683c0,0 -287,-30 -440,-46 -57,-6 -104,-45 -121,-100 -89,-287 -165,-536 -133,-624 36,-96 136,-125 136,-125 0,0 83,91 186,225 14,19 29,38 44,59 13,17 25,34 38,52 14,19 27,39 41,59 12,17 23,34 35,52 13,19 25,39 37,58 81,130 150,268 177,390z"/>
    <path class="fil17" d="M3857 4245c-4,-2 -490,150 -1156,131 -306,-9 -270,97 -270,97 0,0 726,15 1016,0 200,-11 340,-70 444,-215 -11,-5 -23,-9 -34,-14z"/>
    <path class="fil18" d="M3857 4245c-4,-2 -490,150 -1156,131 -306,-9 -270,97 -270,97 0,0 726,15 1016,0 200,-11 340,-70 444,-215 -11,-5 -23,-9 -34,-14z"/>
    <path class="fil17" d="M3195 4248c0,0 -708,12 -783,0 -65,-10 -788,-533 -980,-672 -31,-23 -41,-66 -21,-99 35,-58 99,-108 154,-143 58,-37 109,-58 109,-58l1446 221c-30,177 -124,268 -124,268l117 282 83 201z"/>
    <path class="fil15" d="M2995 3765l117 282 -1285 -560 -261 -153c58,-37 109,-58 109,-58l372 57 1073 164c-29,171 -118,262 -124,268l0 0z"/>
    <path class="fil9" d="M3119 3497c-29,171 -118,262 -124,268l0 0 -949 -432 1073 164z"/>
    <path class="fil13" d="M3119 3497c0,0 -538,39 -673,-44 -136,-83 -340,-48 -598,-57 -168,-6 -232,-94 -257,-154 -13,-32 -14,-56 -14,-56 -29,-86 101,-79 371,-70 271,9 725,-44 944,0 76,15 127,66 161,126 63,112 67,254 67,254z"/>
    <path class="fil17" d="M4071 2736c-5,2 -11,4 -17,5l-228 -3 8 18 15 33 -50 25 -203 100 -94 -197 -29 -61 -6 -13c-10,-21 -8,-45 4,-64 4,-7 9,-13 16,-18l121 -94c9,-7 16,-15 20,-26l42 -92c11,-24 34,-40 61,-40l79 0c74,20 133,68 178,122 34,41 60,85 79,123 27,54 40,94 40,94 15,34 -1,74 -33,88z"/>
    <path class="fil19" d="M4071 2736c-72,-29 -142,-63 -133,-87 34,-89 -74,-198 -31,-220 14,-7 42,-5 79,1 83,99 119,217 119,217 15,34 -1,74 -33,88z"/>
    <path class="fil20" d="M4071 2736c-5,2 -11,4 -17,5l-228 -3 8 18 15 33 -50 25c-98,-35 -197,-68 -297,-97l-29 -61 -6 -13c-10,-21 -8,-45 4,-64 197,-24 397,-32 595,-25 27,54 40,94 40,94 15,34 -1,74 -33,88z"/>
    <path class="fil6" d="M3583 2572c-22,-21 -57,-21 -79,1l-78 77c-21,22 -21,57 1,79 22,21 57,21 79,-1l78 -77c21,-22 21,-57 -1,-79z"/>
    <path class="fil6" d="M3474 2262c0,75 -28,136 -62,136 -34,0 -62,-61 -62,-136 0,-75 28,-136 62,-136 34,0 62,61 62,136z"/>
    <path class="fil3 str2" d="M3412 2262c0,0 95,-8 127,60 32,68 122,275 122,275"/>
    <path class="fil21" d="M2483 3980l-7 95 -427 -234c-11,-6 -15,-21 -9,-32l16 -28 21 -36c6,-11 21,-15 32,-9l167 96 154 89 0 0 43 25c11,6 15,21 9,32z"/>
    <path class="fil21" d="M2694 4046l0 0 -218 29 -215 -168c-9,-5 -13,-16 -11,-26 1,-2 1,-4 3,-6l24 -41 13 -22c6,-11 21,-15 32,-9l365 211c11,6 15,21 9,32z"/>
    <g>
     <g>
      <path class="fil13" d="M1526 4054c-129,70 -251,189 -198,273 53,84 181,128 476,154 269,24 419,-6 458,-26l0 -101c0,0 -62,-62 -220,-167 -159,-106 -396,-197 -515,-132z"/>
      <path class="fil22" d="M1553 4152c-131,44 -163,141 -101,176 62,35 330,88 489,88 159,0 190,-57 110,-110 -79,-53 -353,-203 -498,-154z"/>
     </g>
     <path class="fil9" d="M1546 4244c0,11 -9,20 -20,20 -11,0 -20,-9 -20,-20 0,-11 9,-20 20,-20 11,0 20,9 20,20z"/>
     <path class="fil9" d="M1976 4320c8,7 9,20 2,28 -7,8 -20,9 -28,2 -8,-7 -9,-20 -2,-28 7,-8 20,-9 28,-2z"/>
    </g>
    <path class="fil12" d="M3849 2789l-254 124 -123 -257c59,16 118,33 176,49 61,17 123,34 185,51l15 33z"/>
    <path class="fil23" d="M3119 3497c0,0 -538,39 -673,-44 -136,-83 -340,-48 -598,-57 -168,-6 -232,-94 -257,-154l1462 0c63,112 67,254 67,254z"/>
    <polygon class="fil13" points="3702,2616 3620,2616 3620,2579 3702,2579 "/>
    <path class="fil19" d="M3959 3393l7 31c20,88 94,153 184,162l206 21c0,0 -256,-217 -397,-214z"/>
    <g>
     <path class="fil19" d="M4173 3182l-206 0c-16,0 -29,-13 -29,-29l0 -29 194 0c14,19 27,39 41,59z"/>
     <path class="fil19" d="M4245 3293l-87 0c-16,0 -29,-13 -29,-29l0 -29 79 0c13,19 25,39 37,58z"/>
    </g>
    <g>
     <path class="fil24" d="M1806 4334l-172 -26c-8,-1 -15,4 -16,12 -1,8 4,15 12,16l172 26c8,1 15,-4 16,-12 1,-8 -4,-15 -12,-16z"/>
     <path class="fil24" d="M1814 4279l-172 -26c-8,-1 -15,4 -16,12 -1,8 4,15 12,16l172 26c8,1 15,-4 16,-12 1,-8 -4,-15 -12,-16z"/>
     <path class="fil24" d="M1823 4224l-172 -26c-8,-1 -15,4 -16,12 -1,8 4,15 12,16l172 26c8,1 15,-4 16,-12 1,-8 -4,-15 -12,-16z"/>
    </g>
    <path class="fil18" d="M2694 4046l-218 29 -427 -234c-11,-6 -15,-21 -9,-32l16 -28c56,28 132,68 193,100 60,32 106,56 106,56l75 -15 0 0 263 123z"/>
   </g>
   <g>
    <g>
     <g>
      <g>
       <path class="fil25" d="M3399 3361c0,0 -11,38 -24,65 -13,27 -4,49 -12,73 -8,25 22,23 28,-3 6,-26 3,-38 9,-39 5,-1 21,63 23,81 2,18 -2,64 5,71 7,7 23,-19 18,-66 -5,-47 -1,-46 -1,-46 0,0 4,18 9,38 5,20 5,44 4,58 -1,14 13,20 17,13 4,-7 11,-54 5,-73 -5,-18 -12,-50 -12,-50 0,0 18,42 21,53 3,11 -2,53 8,60 4,3 17,-1 14,-61 0,0 -4,-29 -11,-47 0,0 10,13 15,32 4,16 7,33 8,49 1,16 15,14 15,-14 0,-28 -5,-60 -13,-75 -8,-15 -20,-104 -43,-136l-83 18z"/>
      </g>
     </g>
     <g>
      <path class="fil25" d="M3131 2413c0,0 70,325 127,434 0,0 29,143 138,520 0,0 57,23 90,-21 0,0 -61,-416 -93,-548 0,0 -103,-466 -203,-543 0,0 -52,59 -60,158z"/>
     </g>
    </g>
    <g>
     <g>
      <g>
       <path class="fil25" d="M2526 3361c0,0 11,38 24,65 13,27 4,49 12,73 8,25 -22,23 -28,-3 -6,-26 -3,-38 -9,-39 -5,-1 -21,63 -23,81 -2,18 1,64 -5,71 -7,7 -23,-19 -18,-66 5,-47 1,-46 1,-46 0,0 -4,18 -9,38 -5,20 -5,44 -4,58 1,14 -13,20 -17,13 -4,-7 -11,-54 -5,-73 5,-18 12,-50 12,-50 0,0 -18,42 -21,53 -3,11 2,53 -7,60 -4,3 -17,-1 -14,-61 0,0 4,-29 11,-47 0,0 -10,13 -15,32 -4,16 -7,33 -8,49 -1,16 -15,14 -15,-14 0,-28 5,-60 13,-75 8,-15 20,-104 43,-136l83 18z"/>
      </g>
     </g>
     <g>
      <path class="fil25" d="M2793 2413c0,0 -70,325 -127,434 0,0 -29,143 -138,520 0,0 -57,23 -90,-21 0,0 61,-416 93,-548 0,0 103,-466 203,-543 0,0 52,59 60,158z"/>
     </g>
    </g>
    <g>
     <path class="fil26" d="M3133 2663l238 -49 -55 -265c-13,-66 -78,-108 -143,-94 -66,13 -108,78 -94,143l55 265z"/>
     <path class="fil26" d="M2801 2665l-238 -49 55 -265c13,-66 78,-108 143,-94 66,13 108,78 94,143l-55 266z"/>
     <path class="fil26" d="M2954 2157l-268 109c-18,7 -28,28 -22,46l143 480 317 0 136 -486c5,-19 -5,-40 -24,-46l-281 -102z"/>
     <path class="fil27" d="M2768 2232l186 -75 199 72c0,0 -12,90 -193,90 -181,0 -192,-87 -192,-87z"/>
     <path class="fil28" d="M2770 2657l-63 -209c-1,-2 -2,-3 -4,-2 -2,1 -3,2 -2,4l63 209c1,2 2,3 4,2 2,-1 3,-2 2,-4z"/>
     <path class="fil28" d="M3167 2659l63 -209c1,-2 0,-4 -2,-4 -2,-1 -4,0 -4,2l-63 209c-1,2 0,4 2,4 2,1 4,0 4,-2z"/>
    </g>
    <path class="fil29" d="M3137 2654c0,0 -144,102 -352,6 0,0 194,52 352,-6z"/>
    <path class="fil30" d="M2831 4981c0,0 3,-5 5,-8 2,-4 5,-10 6,-16 2,-6 2,-12 2,-16 0,-5 0,-12 -2,-22 -2,-10 -6,-17 -7,-19 -1,-2 -6,-11 -8,-14 -2,-2 -6,-8 -7,-10 -1,-2 -3,-5 -4,-8 -1,-3 -2,-5 -2,-7 0,-2 0,-3 -3,-5 -2,-2 -3,-3 -5,-3 -2,0 -6,0 -8,1 -2,1 -7,3 -10,5 -3,2 -7,4 -9,7 -2,3 -11,11 -16,17 -5,6 -14,17 -18,23 -5,6 -13,15 -15,20 -3,4 -9,13 -11,17 -2,4 -8,16 -10,20 -2,4 -13,23 -15,25 -1,2 -10,16 -11,18 -1,3 -15,24 -18,28 -4,5 -11,14 -13,16 -2,2 -7,8 -10,11 -3,3 -8,6 -10,7 0,0 -6,1 -10,4 -4,3 -10,10 -14,13 -4,3 -16,11 -20,14 -4,3 -10,9 -12,13 -2,4 -4,6 -4,10 0,4 0,7 0,7 0,0 0,7 13,11 12,4 36,8 60,10 24,2 37,3 55,2 19,-1 37,-7 49,-15 12,-8 15,-15 17,-19 2,-4 4,-8 5,-13 1,-5 7,-21 8,-28 2,-6 12,-31 14,-36 2,-5 17,-32 19,-36 2,-3 10,-13 12,-15 1,-1 6,-6 6,-6l1 -1z"/>
    <path class="fil31" d="M2571 5126c0,0 0,6 8,10 8,4 34,9 40,10 6,1 44,5 62,4 0,0 16,1 32,-2 0,0 17,-4 27,-9 0,0 16,-9 22,-18 6,-9 7,-13 10,-24 0,0 7,-24 11,-33 4,-9 13,-30 17,-39 4,-9 10,-19 15,-26 5,-7 9,-12 10,-13 1,-1 4,-5 4,-5l1 -1 0 0c0,0 -4,13 -6,22 -2,9 -4,21 -5,28 -1,7 -4,23 -5,26 -1,3 -2,13 -2,18 -1,6 -2,16 -2,17 0,1 -1,3 -1,3 0,0 -8,7 -10,8 -3,2 -8,4 -8,4 0,0 -2,-1 -4,-1 -2,0 -7,0 -7,0 0,0 -9,9 -15,15 -5,6 -12,11 -15,15 -3,3 -9,6 -13,8 -4,2 -18,5 -25,7 -8,2 -27,5 -47,3 0,0 -19,-1 -33,-2 -13,-1 -30,-5 -37,-7 -7,-2 -18,-5 -22,-8 -4,-4 -4,-5 -4,-7 0,-2 1,-5 1,-5z"/>
    <path class="fil25" d="M2795 3330c0,0 43,675 38,825l-4 778 -88 1c-8,-307 -111,-555 -76,-774 69,-257 77,-413 28,-654 0,0 -31,-174 101,-177z"/>
    <path class="fil32" d="M2770 4923c-5,4 -23,-2 -28,9 -7,13 -24,45 -28,57 -3,7 -17,30 -24,39 -7,10 -46,37 -54,42 -11,8 46,30 75,24 20,-4 33,-13 41,-25 0,0 9,-10 12,-24 6,-29 60,-88 65,-113 1,-6 -45,-21 -59,-9z"/>
    <path class="fil30" d="M3090 4981c0,0 -3,-5 -5,-8 -2,-4 -5,-10 -6,-16 -2,-6 -2,-12 -2,-16 0,-5 0,-12 2,-22 2,-10 6,-17 7,-19 1,-2 6,-11 8,-14 2,-2 6,-8 7,-10 1,-2 3,-5 4,-8 1,-3 2,-5 2,-7 0,-2 0,-3 3,-5 2,-2 3,-3 5,-3 2,0 6,0 8,1 2,1 7,3 10,5 3,2 7,4 9,7 2,3 11,11 16,17 5,6 14,17 18,23 5,6 13,15 15,20 3,4 9,13 11,17 2,4 8,16 10,20 2,4 13,23 15,25 1,2 10,16 11,18 1,3 15,24 18,28 4,5 11,14 13,16 2,2 7,8 10,11 3,3 8,6 10,7 0,0 6,1 10,4 4,3 10,10 14,13 4,3 16,11 20,14 4,3 10,9 12,13 2,4 4,6 4,10 0,4 0,7 0,7 0,0 0,7 -13,11 -12,4 -36,8 -60,10 -25,2 -37,3 -55,2 -19,-1 -37,-7 -49,-15 -12,-8 -15,-15 -17,-19 -2,-4 -4,-8 -5,-13 -1,-5 -7,-21 -8,-28 -2,-6 -12,-31 -14,-36 -2,-5 -17,-32 -19,-36 -2,-3 -10,-13 -12,-15 -1,-1 -6,-6 -6,-6l-1 -1z"/>
    <path class="fil31" d="M3351 5126c0,0 0,6 -8,10 -8,4 -34,9 -40,10 -6,1 -44,5 -62,4 0,0 -16,1 -32,-2 0,0 -17,-4 -27,-9 0,0 -16,-9 -22,-18 -6,-9 -7,-13 -10,-24 0,0 -7,-24 -11,-33 -4,-9 -13,-30 -17,-39 -4,-9 -10,-19 -15,-26 -5,-7 -9,-12 -10,-13 -1,-1 -4,-5 -4,-5l-1 -1 0 0c0,0 4,13 6,22 2,9 4,21 5,28 1,7 4,23 5,26 1,3 2,13 2,18 1,6 2,16 2,17 0,1 1,3 1,3 0,0 8,7 10,8 3,2 8,4 8,4 0,0 2,-1 4,-1 2,0 7,0 7,0 0,0 9,9 15,15 5,6 12,11 15,15 3,3 9,6 13,8 4,2 18,5 25,7 8,2 27,5 47,3 0,0 19,-1 33,-2 13,-1 30,-5 37,-7 7,-2 18,-5 22,-8 4,-4 4,-5 4,-7 0,-2 -1,-5 -1,-5z"/>
    <path class="fil32" d="M3151 4923c5,4 23,-2 29,9 7,13 24,45 28,57 3,7 17,30 24,39 7,10 46,37 54,42 11,8 -46,30 -75,24 -20,-4 -33,-13 -41,-25 0,0 -9,-10 -12,-24 -6,-29 -60,-88 -65,-113 -1,-6 45,-21 59,-9z"/>
    <path class="fil25" d="M3127 3330c0,0 -43,675 -38,825l4 778 88 1c8,-307 111,-555 76,-774 65,-211 -41,-401 -28,-654 0,0 31,-174 -101,-177z"/>
    <path class="fil33" d="M3026 1601c0,0 79,-34 145,28 66,62 19,104 78,134 58,31 16,116 84,155 68,39 23,134 -47,148 0,0 -34,89 -107,80 0,0 -68,76 -201,28l-49 -20 98 -552z"/>
    <path class="fil33" d="M2768 1627c0,0 -88,11 -105,90 -17,78 -11,60 -59,100 -48,40 13,85 -26,125 -20,20 -29,37 -31,56 -3,34 20,64 53,73 22,6 41,27 54,56 26,57 121,32 121,32 0,0 89,52 144,13 55,-39 -28,-569 -28,-569l-122 23z"/>
    <polygon class="fil34" points="2889,2091 3014,2188 3000,2058 "/>
    <g>
     <g>
      <path class="fil25" d="M3025 2078l-3 48 -3 60c0,0 -12,23 -66,23 -54,0 -65,-16 -65,-16l-2 -27 -7 -89 146 0z"/>
     </g>
     <g>
      <path class="fil35" d="M3025 2078l-3 48c-23,17 -76,50 -137,41l-7 -89 146 0z"/>
     </g>
    </g>
    <path class="fil33" d="M3044 1606c0,0 -34,-82 -155,-82 -121,0 -159,126 -159,126l176 102 137 -146z"/>
    <path class="fil27" d="M2793 1898c12,27 11,70 -15,80 -26,10 -56,-25 -68,-52 -12,-27 -5,-50 21,-60 26,-10 50,5 62,32z"/>
    <path class="fil34" d="M2731 1901l0 0c1,0 3,0 5,0 5,0 11,1 17,5 6,5 13,13 17,27 0,1 2,2 3,2 1,0 2,-2 2,-3 -4,-16 -11,-25 -19,-30 -7,-5 -15,-6 -20,-6 -4,0 -7,1 -7,1 -1,0 -2,2 -2,3 0,1 2,2 3,2z"/>
    <path class="fil36" d="M2822 2036c-9,18 -27,30 -48,30 -15,0 -28,-6 -38,-16 -10,-10 -16,-23 -16,-38 0,-15 6,-28 16,-38 10,-10 23,-16 38,-16l0 -8c-34,0 -61,27 -61,61 0,34 27,61 61,61 24,0 45,-14 55,-34l-7 -3z"/>
    <path class="fil27" d="M3118 1898c-12,27 -11,70 15,80 26,10 56,-25 68,-52 12,-27 5,-50 -21,-60 -26,-10 -50,5 -62,32z"/>
    <path class="fil34" d="M3181 1896c0,0 -3,-1 -7,-1 -5,0 -13,1 -20,6 -7,5 -14,15 -19,30 0,1 0,3 2,3 1,0 3,0 3,-2 4,-15 10,-23 17,-27 6,-5 13,-5 17,-5 2,0 3,0 4,0l1 0 0 0c1,0 3,0 3,-2 0,-1 0,-3 -2,-3z"/>
    <path class="fil36" d="M3085 2040c10,20 31,34 55,34 34,0 61,-27 61,-61 0,-34 -27,-61 -61,-61l0 8c15,0 28,6 38,16 10,10 16,23 16,38 0,15 -6,28 -16,38 -10,10 -23,16 -38,16 -21,0 -39,-12 -48,-30l-7 3z"/>
    <path class="fil33" d="M3170 1794c0,114 -96,207 -215,207 -119,0 -215,-92 -215,-207 0,-114 96,-207 215,-207 119,0 215,92 215,207z"/>
    <path class="fil27" d="M2955 1612l0 0c-99,0 -187,77 -187,172l6 114c0,0 2,161 155,211 17,5 36,5 53,0 153,-49 155,-211 155,-211l6 -114c0,-95 -88,-172 -187,-172z"/>
    <path class="fil37" d="M2917 1989c0,0 2,24 34,24 32,0 34,-24 34,-24l-68 0z"/>
    <path class="fil34" d="M2942 1923l0 26c0,1 1,2 2,2l19 0c1,0 2,-1 2,-2 0,-1 -1,-2 -2,-3l-17 0 0 -24c0,-1 -1,-2 -2,-2 -1,0 -2,1 -2,2z"/>
    <path class="fil38" d="M2913 1884c0,0 -13,-33 -44,-34 -32,-2 -50,24 -50,24 0,0 8,28 46,30 38,2 49,-19 49,-19z"/>
    <path class="fil33" d="M2834 1875c0,9 3,17 8,23 6,3 13,4 22,5 8,0 14,0 20,-1 7,-5 12,-14 12,-23 0,-8 -3,-16 -8,-22 -6,-3 -12,-6 -20,-6 -10,0 -18,2 -25,5 -5,5 -9,13 -9,21z"/>
    <path class="fil33" d="M2915 1884c0,0 -3,-9 -10,-18 -7,-9 -19,-18 -36,-18l-1 0c-33,0 -51,24 -51,24l0 3 3 0 1 -1c4,-4 20,-22 47,-22l1 0c16,0 26,8 33,17 3,4 6,8 7,11 1,2 1,3 2,4l1 1c0,1 1,2 2,1 1,0 2,-1 1,-2z"/>
    <path class="fil38" d="M2995 1884c0,0 13,-33 44,-34 32,-2 50,24 50,24 0,0 -8,28 -46,30 -38,2 -49,-19 -49,-19z"/>
    <path class="fil33" d="M3074 1875c0,9 -3,17 -8,23 -6,3 -13,4 -22,5 -8,0 -14,0 -20,-1 -7,-5 -12,-14 -12,-23 0,-8 3,-16 8,-22 6,-3 12,-6 21,-6 10,0 18,2 25,5 5,5 9,13 9,21z"/>
    <path class="fil33" d="M2997 1885l1 -1c1,-3 5,-11 12,-18 7,-7 17,-13 30,-13l1 0c16,0 28,6 36,11 4,3 7,6 9,8 1,1 2,2 2,3l1 1 3 0 0 -3c0,0 -18,-24 -51,-24l-1 0c-17,0 -29,9 -36,18 -7,9 -10,17 -10,18 0,1 0,2 1,2 1,0 2,0 2,-1z"/>
    <path class="fil37" d="M2986 1989c0,0 -31,-17 -68,0 0,0 38,16 68,0z"/>
    <path class="fil34" d="M2908 1988c0,0 17,10 43,10 13,0 27,-3 43,-10 1,-1 2,-2 1,-3 -1,-1 -2,-2 -3,-1 -15,7 -29,9 -41,9 -12,0 -22,-2 -29,-5 -4,-1 -6,-2 -8,-3 -1,0 -2,-1 -2,-1l-1 0c-1,-1 -3,0 -3,1 -1,1 0,3 1,3z"/>
    <path class="fil33" d="M3044 1606c0,0 -8,90 -102,104 -96,15 -75,75 -191,61 0,0 -42,-66 20,-134 41,-45 122,-82 179,-76 19,2 65,39 93,45z"/>
    <path class="fil33" d="M3033 1617c0,0 -42,60 137,178 0,0 29,-41 10,-79 -19,-38 -147,-98 -147,-98z"/>
    <path class="fil39" d="M2894 1809c1,6 -4,11 -10,12 -20,1 -63,4 -84,26 0,0 7,-38 82,-47 6,-1 11,3 12,9z"/>
    <path class="fil39" d="M3006 1809c-1,6 4,11 10,11 20,0 63,3 85,24 0,0 -8,-38 -84,-45 -6,-1 -11,4 -11,9z"/>
    <g>
     <polygon class="fil33" points="3126,2843 2809,2843 2809,2794 3126,2794 "/>
     <path class="fil40" d="M2834 2985c-77,-12 -140,38 -158,114 -18,77 -31,170 -34,281 -7,276 6,514 20,638 7,63 60,110 123,110 64,0 118,-49 123,-113l55 -871c7,-78 -48,-148 -126,-160 -1,0 -2,0 -3,0z"/>
     <path class="fil40 str3" d="M2906 4007l-37 854 -205 0 -4 -858c1,-67 56,-121 123,-121 69,0 124,56 123,125z"/>
     <path class="fil40" d="M3100 2985c77,-12 140,38 158,114 18,77 31,170 34,281 7,276 -6,514 -20,638 -7,63 -60,110 -123,110 -64,0 -118,-49 -123,-113l-55 -871c-7,-78 48,-148 126,-160 1,0 2,0 3,0z"/>
     <path class="fil40" d="M3028 4007l37 854 205 0 4 -858c-1,-67 -56,-121 -123,-121 -69,0 -124,56 -123,125z"/>
     <path class="fil40" d="M3126 2843l-317 0c0,0 -82,57 -127,238l241 138c28,17 63,17 90,0l240 -138c-49,-176 -127,-239 -127,-239z"/>
     <path class="fil41" d="M2821 2902c0,0 0,0 0,1 0,6 -3,32 -17,60 -14,28 -37,57 -80,70 -2,1 -3,2 -2,4 1,2 2,3 4,2 48,-14 73,-48 87,-79 13,-31 15,-58 15,-58 0,-2 -1,-4 -3,-4 -2,0 -4,1 -4,3z"/>
     <path class="fil41" d="M3105 2903c0,0 2,27 15,58 13,31 39,65 87,79 2,1 4,-1 4,-2 1,-2 -1,-4 -2,-4 -45,-13 -69,-46 -82,-75 -6,-15 -10,-29 -12,-39 -1,-5 -2,-9 -2,-12 0,-1 0,-3 0,-3 0,-1 0,-1 0,-1 0,-2 -2,-3 -4,-3 -2,0 -3,2 -3,4z"/>
    </g>
   </g>
  </g>
 </g>
</svg>
