<?xml version="1.0" encoding="UTF-8"?>
<!DOCTYPE svg PUBLIC "-//W3C//DTD SVG 1.1//EN" "http://www.w3.org/Graphics/SVG/1.1/DTD/svg11.dtd">
<!-- Creator: CorelDRAW X6 -->
<svg xmlns="http://www.w3.org/2000/svg" xml:space="preserve" width="43.5522mm" height="131.166mm" version="1.1" style="shape-rendering:geometricPrecision; text-rendering:geometricPrecision; image-rendering:optimizeQuality; fill-rule:evenodd; clip-rule:evenodd"
viewBox="0 0 2845 8569"
 xmlns:xlink="http://www.w3.org/1999/xlink">
 <defs>
  <style type="text/css">
   <![CDATA[
    .str3 {stroke:#D16664;stroke-width:8.58466;stroke-linecap:round;stroke-linejoin:round}
    .str2 {stroke:#D16664;stroke-width:11.4527;stroke-linecap:round;stroke-linejoin:round}
    .str1 {stroke:#321A17;stroke-width:17.2869;stroke-linecap:round;stroke-linejoin:round}
    .str0 {stroke:white;stroke-width:23.0492;stroke-linecap:round;stroke-linejoin:round}
    .fil3 {fill:none;fill-rule:nonzero}
    .fil10 {fill:#727271}
    .fil9 {fill:black}
    .fil8 {fill:white}
    .fil5 {fill:#00A0E3;fill-rule:nonzero}
    .fil11 {fill:#727271;fill-rule:nonzero}
    .fil2 {fill:#B2B3B3;fill-rule:nonzero}
    .fil12 {fill:black;fill-rule:nonzero}
    .fil4 {fill:#2B2B2B;fill-rule:nonzero}
    .fil1 {fill:#59342F;fill-rule:nonzero}
    .fil6 {fill:#F78967;fill-rule:nonzero}
    .fil7 {fill:#FFA377;fill-rule:nonzero}
    .fil0 {fill:#FFAF82;fill-rule:nonzero}
   ]]>
  </style>
 </defs>
 <g id="Layer_x0020_1">
  <metadata id="CorelCorpID_0Corel-Layer"/>
  <g id="_1777247440">
   <g>
    <polygon class="fil0" points="1117,8254 1143,7516 888,7516 900,8242 "/>
    <g>
     <g>
      <path class="fil1" d="M967 8210c0,0 32,-96 -40,-141 -72,-45 -109,-27 -115,32 -5,59 -7,94 -7,94l162 15z"/>
      <path class="fil1" d="M850 8150c0,0 -167,117 -299,114 0,0 -226,4 -212,204l914 -1c0,0 55,-166 -50,-297 0,0 55,-174 -78,-156l-3 98c0,0 -16,39 -68,24 -52,-15 -119,-16 -205,15z"/>
     </g>
     <polygon class="fil2" points="339,8569 1254,8569 1254,8467 339,8467 "/>
     <path class="fil3 str0" d="M925 8243c0,0 -53,-73 -129,-60"/>
     <path class="fil3 str0" d="M861 8279c0,0 -53,-73 -129,-60"/>
     <path class="fil3 str0" d="M786 8301c0,0 -53,-73 -129,-60"/>
     <path class="fil3 str1" d="M1245 8255c0,0 -216,28 -229,207"/>
     <path class="fil3 str1" d="M566 8267c0,0 140,-4 134,192"/>
    </g>
   </g>
   <g>
    <polygon class="fil0" points="1747,8254 1720,7516 1976,7516 1964,8242 "/>
    <g>
     <g>
      <path class="fil1" d="M1896 8210c0,0 -32,-96 40,-141 72,-45 109,-27 115,32 5,59 7,94 7,94l-162 15z"/>
      <path class="fil1" d="M2013 8150c0,0 167,117 299,114 0,0 226,4 212,204l-914 -1c0,0 -55,-166 50,-297 0,0 -55,-174 78,-156l3 98c0,0 16,39 68,24 52,-15 119,-16 205,15z"/>
     </g>
     <polygon class="fil2" points="2525,8569 1610,8569 1610,8467 2525,8467 "/>
     <path class="fil3 str0" d="M1938 8243c0,0 53,-73 129,-60"/>
     <path class="fil3 str0" d="M2003 8279c0,0 53,-73 129,-60"/>
     <path class="fil3 str0" d="M2078 8301c0,0 53,-73 129,-60"/>
     <path class="fil3 str1" d="M1618 8255c0,0 216,28 229,207"/>
     <path class="fil3 str1" d="M2298 8267c0,0 -140,-4 -134,192"/>
    </g>
   </g>
   <g>
    <path class="fil4" d="M761 4605c-18,-304 42,-526 49,-523 480,-31 1250,-49 1250,-49 1,3 2,6 3,9 0,0 78,270 32,486 -467,286 -908,345 -1334,78z"/>
    <path class="fil4" d="M761 4458c0,0 -4,1396 39,1742l44 1827 357 -35c8,-838 106,-1263 57,-1802l171 -1635c0,0 -308,-108 -668,-97z"/>
    <path class="fil4" d="M2106 4458c0,0 4,1396 -39,1742l-44 1827 -357 -35c-8,-838 -106,-1263 -57,-1802l-171 -1635c0,0 308,-108 668,-97z"/>
   </g>
   <g>
    <g>
     <path class="fil5" d="M2158 4457c-146,79 -281,137 -417,172 -102,26 -204,40 -312,39 -95,1 -185,-10 -274,-30 -145,-34 -288,-95 -447,-181l60 -1287 -6 -1501 369 -102 111 -31c61,-17 124,-25 187,-26 63,1 126,9 187,26l125 35 355 98 -6 1501 68 1287z"/>
    </g>
   </g>
   <g>
    <g>
     <path class="fil0" d="M323 4168c0,0 26,88 56,151 29,64 9,113 27,170 18,58 -51,53 -65,-7 -13,-60 -8,-89 -20,-91 -13,-2 -49,145 -54,187 -5,42 3,148 -12,164 -16,16 -54,-43 -42,-153 12,-110 3,-108 3,-108 0,0 -10,43 -21,89 -11,46 -11,102 -9,133 2,31 -30,47 -39,30 -9,-17 -24,-126 -12,-169 13,-43 28,-116 28,-116 0,0 -42,99 -49,124 -7,25 5,122 -17,140 -9,7 -39,-2 -34,-141 0,0 10,-67 25,-109 0,0 -23,31 -34,73 -10,37 -15,76 -18,113 -3,37 -36,32 -36,-33 0,-66 11,-139 30,-174 19,-35 46,-240 100,-316l193 41z"/>
    </g>
   </g>
   <g>
    <g>
     <path class="fil0" d="M2522 4167c0,0 -26,88 -56,151 -29,64 -9,113 -27,170 -18,58 51,53 65,-7 13,-60 8,-89 20,-91 13,-2 49,145 54,187 5,42 -3,148 12,164 16,16 54,-43 42,-153 -12,-110 -3,-108 -3,-108 0,0 10,43 21,89 11,46 11,102 9,133 -2,31 30,47 39,30 9,-17 24,-126 12,-169 -13,-43 -28,-116 -28,-116 0,0 42,99 49,124 7,25 -5,122 17,140 9,7 39,-2 34,-141 0,0 -10,-67 -25,-109 0,0 23,31 34,73 10,37 15,76 18,113 3,37 36,32 36,-33 0,-66 -11,-139 -30,-174 -19,-35 -46,-240 -100,-316l-193 41z"/>
    </g>
   </g>
   <g>
    <path class="fil5" d="M951 1969c0,0 -158,731 -290,983 0,0 -73,356 -325,1228 0,0 -132,53 -209,-48 0,0 122,-960 196,-1266 0,0 330,-1060 441,-1197 0,0 170,69 188,299z"/>
   </g>
   <g>
    <path class="fil5" d="M1908 1969c0,0 158,731 290,983 0,0 73,356 325,1228 0,0 132,53 209,-48 0,0 -122,-960 -196,-1266 0,0 -330,-1060 -441,-1197 0,0 -170,69 -188,299z"/>
   </g>
   <g>
    <g>
     <path class="fil0" d="M1602 1341l-6 150 -7 188c0,0 -28,71 -153,71 -126,0 -151,-48 -151,-48l-5 -83 -17 -277 340 0z"/>
    </g>
    <g>
     <path class="fil6" d="M1602 1341l-6 150c-52,53 -176,156 -317,127l-17 -277 340 0z"/>
    </g>
   </g>
   <g>
    <g>
     <path class="fil7" d="M1048 833c0,0 -96,-94 -173,-33 -91,72 4,333 165,306l8 -273z"/>
    </g>
   </g>
   <g>
    <g>
     <path class="fil7" d="M1783 833c0,0 96,-94 173,-33 91,72 -4,333 -165,306l-8 -273z"/>
    </g>
   </g>
   <path class="fil0" d="M1421 1451c-365,0 -478,-446 -511,-773 -31,-301 196,-567 490,-570 4,0 8,0 12,0 5,0 10,0 15,0 291,4 517,262 492,561 -28,331 -133,783 -497,783z"/>
   <g>
    <path class="fil8" d="M1324 867c0,0 -29,-74 -100,-77 -71,-3 -113,53 -113,53 0,0 18,63 104,67 86,4 109,-43 109,-43z"/>
    <path class="fil9" d="M1147 847c-1,20 6,38 19,52 13,6 29,10 49,11 18,1 33,0 45,-3 16,-12 27,-31 28,-53 1,-19 -6,-37 -17,-50 -13,-8 -28,-13 -46,-14 -22,-1 -41,4 -57,11 -12,12 -20,28 -20,47z"/>
    <path class="fil9" d="M1328 865c0,0 -7,-20 -23,-40 -16,-20 -43,-40 -81,-40l-2 0c-75,0 -115,54 -115,55l1 6 6 -1 2 -2c8,-10 45,-49 107,-49l1 0c35,0 59,19 74,37 8,9 13,19 17,26 2,3 3,6 4,8l1 3c1,2 3,3 5,3 2,-1 3,-3 3,-6z"/>
   </g>
   <g>
    <path class="fil8" d="M1719 867c0,0 -29,-74 -100,-77 -71,-3 -113,53 -113,53 0,0 18,63 104,67 86,4 109,-43 109,-43z"/>
    <path class="fil9" d="M1542 847c-1,20 6,38 19,52 13,6 29,10 49,11 18,1 33,0 45,-3 16,-12 27,-31 28,-53 1,-19 -6,-37 -17,-50 -13,-8 -28,-13 -46,-14 -22,-1 -41,4 -57,11 -12,12 -20,28 -20,47z"/>
    <path class="fil9" d="M1724 865c0,0 -7,-20 -23,-40 -16,-20 -43,-40 -81,-40l-2 0c-75,0 -115,54 -115,55l1 6 6 -1 2 -2c8,-10 45,-49 107,-49l1 0c35,0 59,19 74,37 8,9 13,19 17,26 2,3 3,6 4,8l1 3c1,2 3,3 5,3 2,-1 3,-3 3,-6z"/>
   </g>
   <path class="fil10" d="M1172 650c0,0 -72,9 -106,31 -21,13 -21,38 5,47 24,8 75,3 105,-1 74,-8 124,-36 119,-59 -6,-30 -83,-25 -122,-18z"/>
   <path class="fil10" d="M1684 650c0,0 68,9 100,31 20,13 20,38 -5,47 -22,8 -71,3 -99,-1 -70,-8 -117,-36 -112,-59 6,-30 79,-25 116,-18z"/>
   <g>
    <line class="fil3 str2" x1="1398" y1="836" x2="1398" y2= "1052" />
    <path class="fil3 str2" d="M1398 1052c0,5 1,9 3,14 7,17 26,25 43,20"/>
    <line class="fil3 str2" x1="1443" y1="1085" x2="1480" y2= "1075" />
   </g>
   <path class="fil11" d="M985 983c0,0 -144,-335 -111,-608 0,0 68,-279 264,-279 0,0 120,-172 246,-55 0,0 209,-120 304,52 0,0 184,-18 227,175 0,0 117,55 34,408 0,0 -69,193 -81,271 0,0 -14,-176 5,-287 0,0 43,-222 -68,-301 0,0 -84,-89 -243,12 0,0 -123,106 -253,0 -130,-106 -200,-75 -268,2 0,0 -89,84 -60,217 0,0 28,273 4,393z"/>
   <line class="fil3 str2" x1="1299" y1="1203" x2="1537" y2= "1203" />
   <path class="fil3 str3" d="M1361 1274c0,0 50,16 114,0"/>
   <path class="fil12" d="M1762 854c-14,-1 -29,-2 -43,-2 -68,-2 -137,-5 -204,9 -20,4 -41,8 -60,16 -28,11 -55,12 -83,-1 -8,-4 -16,-6 -25,-8 -63,-14 -126,-21 -190,-18 -30,1 -59,2 -89,4 -13,1 -16,5 -14,19 2,19 4,38 6,57 1,9 3,16 10,22 4,3 7,8 9,12 7,10 12,21 19,31 4,5 9,10 15,13 7,4 15,6 22,8 56,12 112,15 168,12 31,-2 52,-17 63,-48 5,-13 10,-26 15,-40 4,-10 10,-15 20,-14 6,0 12,0 18,0 18,0 21,2 28,20 6,15 11,29 17,44 9,23 26,34 49,37 56,6 112,1 167,-8 27,-4 47,-16 59,-44 4,-9 10,-17 17,-24 6,-6 9,-12 9,-20 0,-3 1,-6 1,-9 2,-18 4,-35 5,-53 1,-11 -2,-13 -12,-14zm-397 63l0 0c-2,30 -11,57 -29,80 -9,11 -20,15 -33,16 -53,5 -107,3 -159,-11 -27,-7 -43,-23 -47,-52 -2,-18 -6,-35 -6,-53 0,-15 7,-23 21,-24 27,-3 49,-7 82,-8 34,-1 95,5 141,18 4,1 7,2 10,3 17,6 20,12 19,31zm355 63l0 0c-3,6 -10,10 -15,13 -21,11 -44,16 -67,18 -33,2 -67,2 -100,3 -34,1 -53,-20 -65,-51 -7,-18 -10,-36 -9,-56 1,-11 7,-17 16,-20 30,-12 61,-15 92,-18 21,-2 42,-2 71,-4 19,2 47,3 74,7 16,2 22,10 22,28 0,28 -6,55 -18,80z"/>
  </g>
 </g>
</svg>
