<?xml version="1.0" encoding="UTF-8"?>
<!DOCTYPE svg PUBLIC "-//W3C//DTD SVG 1.1//EN" "http://www.w3.org/Graphics/SVG/1.1/DTD/svg11.dtd">
<!-- Creator: CorelDRAW X6 -->
<svg xmlns="http://www.w3.org/2000/svg" xml:space="preserve" width="67.9023mm" height="50mm" version="1.1" style="shape-rendering:geometricPrecision; text-rendering:geometricPrecision; image-rendering:optimizeQuality; fill-rule:evenodd; clip-rule:evenodd"
viewBox="0 0 2310 1701"
 xmlns:xlink="http://www.w3.org/1999/xlink">
 <defs>
  <style type="text/css">
   <![CDATA[
    .str5 {stroke:#D16664;stroke-width:4.47025;stroke-linecap:round;stroke-linejoin:round}
    .str4 {stroke:#D16664;stroke-width:5.96374;stroke-linecap:round;stroke-linejoin:round}
    .str0 {stroke:#898989;stroke-width:6.80404}
    .str1 {stroke:#8FC8D1;stroke-width:6.80404}
    .str3 {stroke:#321A17;stroke-width:9.00174;stroke-linecap:round;stroke-linejoin:round}
    .str2 {stroke:white;stroke-width:12.0023;stroke-linecap:round;stroke-linejoin:round}
    .fil2 {fill:none}
    .fil18 {fill:none;fill-rule:nonzero}
    .fil25 {fill:#727271}
    .fil1 {fill:#898989}
    .fil24 {fill:black}
    .fil0 {fill:#8FC8D1}
    .fil23 {fill:white}
    .fil20 {fill:#00A0E3;fill-rule:nonzero}
    .fil26 {fill:#727271;fill-rule:nonzero}
    .fil17 {fill:#B2B3B3;fill-rule:nonzero}
    .fil6 {fill:#E31E24;fill-rule:nonzero}
    .fil3 {fill:#FEFEFE;fill-rule:nonzero}
    .fil27 {fill:black;fill-rule:nonzero}
    .fil19 {fill:#2B2B2B;fill-rule:nonzero}
    .fil4 {fill:#363636;fill-rule:nonzero}
    .fil10 {fill:#3F3F3F;fill-rule:nonzero}
    .fil9 {fill:#4D4D4D;fill-rule:nonzero}
    .fil14 {fill:#545454;fill-rule:nonzero}
    .fil16 {fill:#59342F;fill-rule:nonzero}
    .fil5 {fill:#595959;fill-rule:nonzero}
    .fil7 {fill:#C32650;fill-rule:nonzero}
    .fil8 {fill:#D4D4D4;fill-rule:nonzero}
    .fil11 {fill:#EDEDED;fill-rule:nonzero}
    .fil21 {fill:#F78967;fill-rule:nonzero}
    .fil13 {fill:#FF8A00;fill-rule:nonzero}
    .fil22 {fill:#FFA377;fill-rule:nonzero}
    .fil15 {fill:#FFAF82;fill-rule:nonzero}
    .fil12 {fill:white;fill-rule:nonzero}
   ]]>
  </style>
    <clipPath id="id0">
     <path d="M1155 0c470,0 851,381 851,851 0,470 -381,851 -851,851 -470,0 -851,-381 -851,-851 0,-470 381,-851 851,-851z"/>
    </clipPath>
 </defs>
 <g id="Layer_x0020_1">
  <metadata id="CorelCorpID_0Corel-Layer"/>
  <g id="_995031712">
   <path class="fil0" d="M1155 0c470,0 851,381 851,851 0,470 -381,851 -851,851 -470,0 -851,-381 -851,-851 0,-470 381,-851 851,-851z"/>
   <g style="clip-path:url(#id0)">
    <g>
     <rect class="fil1 str0" x="40" y="1163" width="2279" height="587"/>
     <rect class="fil0 str1" x="40" y="-158" width="2279" height="1321"/>
    </g>
   </g>
   <path class="fil2" d="M1155 0c470,0 851,381 851,851 0,470 -381,851 -851,851 -470,0 -851,-381 -851,-851 0,-470 381,-851 851,-851z"/>
   <path class="fil3" d="M1138 348c17,1 37,7 49,-6 24,-25 31,-38 36,-39 17,-4 30,-23 47,-18 11,3 21,11 32,11 31,0 34,-57 65,-59 17,-1 33,17 50,12 9,-3 15,-11 21,-18 15,-17 39,-25 61,-22 22,3 43,18 53,38 6,11 8,24 15,35 7,11 19,19 31,15 9,-3 16,-13 25,-15 12,-3 23,8 29,19 6,10 13,23 25,26 9,2 17,-1 26,-3 38,-8 74,16 106,38 -12,-1 -23,-2 -35,-2l-663 0c20,-12 -5,-13 28,-11z"/>
   <g>
    <polygon class="fil4" points="162,825 44,825 44,756 162,756 "/>
    <path class="fil5" d="M0 909c0,16 13,28 28,28l54 0c16,0 28,-13 28,-28l0 -237c0,-16 -13,-28 -28,-28l-54 0c-16,0 -28,13 -28,28l0 237z"/>
    <path class="fil6" d="M2292 1159c0,0 -69,76 -142,76 -73,0 -1585,0 -1651,0 -66,0 -339,-42 -360,-56 -21,-14 -44,-51 -47,-66 -3,-15 -11,-105 -9,-125 2,-20 35,-54 35,-86 0,-32 0,-161 0,-179 0,-18 26,-21 27,-30 2,-9 93,-201 153,-251 60,-50 631,-48 818,-34 187,14 294,60 413,142 119,82 193,133 211,139 18,6 194,26 294,48 100,22 154,40 170,53 16,13 51,40 72,120 0,0 22,11 27,23 5,12 17,147 -12,224z"/>
    <path class="fil6" d="M2302 933c0,1 1,1 1,2 5,12 17,147 -12,224 0,0 -69,76 -142,76 -73,0 -1585,0 -1651,0 -66,0 -339,-42 -360,-56 -21,-14 -44,-51 -47,-66 -3,-15 -11,-105 -9,-125 2,-20 35,-54 35,-86 0,-19 0,-74 0,-119l2184 149z"/>
    <g>
     <path class="fil7" d="M474 935c-20,-46 -48,-142 -45,-196 3,-53 115,-257 166,-287 44,-26 79,-28 182,-32 18,-1 37,-2 59,-3 156,-8 362,11 406,17 21,3 98,21 167,62 84,51 154,100 207,146 64,55 81,77 91,137 10,60 2,278 -10,398l-6 -1c13,-119 20,-337 11,-396 -10,-59 -27,-79 -89,-133 -53,-46 -122,-95 -206,-145 -68,-41 -143,-58 -165,-61 -30,-4 -135,-14 -248,-18 5,26 36,196 58,367 24,185 14,395 14,397l-6 0c0,-2 10,-211 -13,-396 -22,-174 -54,-346 -58,-367 -51,-1 -103,-2 -151,1 -22,1 -42,2 -59,3 -103,5 -137,6 -180,31 -49,30 -160,230 -163,282 -3,53 25,148 45,194l-5 2z"/>
     <path class="fil7" d="M2000 771c-17,-2 -34,-4 -49,-6 -32,-5 -56,-5 -71,-6 -16,-1 -25,-1 -29,-4 -1,-1 -7,-4 -13,-7 -22,-11 -61,-31 -75,-52 3,0 5,1 8,1 15,18 50,36 69,46 8,4 12,6 14,8 3,2 12,3 26,3 16,1 40,1 72,6 16,2 32,4 49,6 49,6 105,13 157,30 36,12 63,23 80,30 2,3 5,6 7,10 -16,-8 -45,-20 -88,-34 -51,-17 -107,-24 -156,-29z"/>
    </g>
    <path class="fil8" d="M398 896c160,0 293,117 316,271l988 0c24,-153 156,-271 316,-271 128,0 238,75 289,183 -3,29 -7,57 -16,80 0,0 -69,76 -142,76 -23,0 -190,0 -410,0 -14,0 -27,0 -41,0l-981 0c-13,0 -26,0 -38,0 -100,0 -168,0 -181,0 -66,0 -339,-42 -360,-56 -19,-13 -40,-45 -45,-62 42,-128 162,-221 304,-221z"/>
    <g>
     <path class="fil9" d="M2255 1191c-27,21 -66,43 -105,43 -21,0 -169,0 -368,0 0,-6 -1,-12 -1,-18 0,-131 107,-238 238,-238 123,0 224,93 237,213z"/>
     <path class="fil9" d="M162 1186c15,-117 115,-208 236,-208 131,0 238,107 238,238 0,6 0,12 -1,18 -76,0 -126,0 -136,0 -57,0 -265,-31 -337,-48z"/>
    </g>
    <path class="fil10" d="M1827 1216c0,106 86,192 192,192 106,0 192,-86 192,-192 0,-106 -86,-192 -192,-192 -106,0 -192,86 -192,192z"/>
    <path class="fil11" d="M1887 1216c0,72 59,131 131,131 72,0 131,-59 131,-131 0,-72 -59,-131 -131,-131 -72,0 -131,59 -131,131z"/>
    <path class="fil10" d="M206 1216c0,106 86,192 192,192 106,0 192,-86 192,-192 0,-106 -86,-192 -192,-192 -106,0 -192,86 -192,192z"/>
    <path class="fil11" d="M267 1216c0,72 59,131 131,131 72,0 131,-59 131,-131 0,-72 -59,-131 -131,-131 -72,0 -131,59 -131,131z"/>
    <path class="fil12" d="M2055 771c7,0 104,6 168,46 14,18 32,48 43,91 0,0 -43,-12 -94,-42 -52,-30 -125,-95 -117,-95z"/>
    <path class="fil13" d="M119 724c0,-18 26,-21 27,-30 0,0 0,-1 1,-2 29,0 82,0 91,0 12,0 18,4 14,17 -3,13 -91,106 -133,178 0,-46 0,-147 0,-163z"/>
    <path class="fil14" d="M1283 464c40,8 125,52 188,99 63,47 155,125 166,135 11,10 18,42 -19,41 -37,-1 -509,-29 -525,-31 -16,-2 -16,-20 -20,-45 -3,-25 -33,-165 -38,-186 -5,-21 -5,-30 5,-32 10,-2 129,-3 242,18z"/>
    <path class="fil14" d="M941 444c-11,0 -262,9 -288,12 -26,4 -59,21 -82,54 -23,33 -66,114 -71,137 -5,23 1,37 20,37 20,0 431,20 444,20 13,1 28,-4 25,-26 -3,-22 -28,-195 -30,-209 -2,-14 -2,-26 -19,-25z"/>
    <path class="fil14" d="M335 627c-14,19 -42,22 -73,26 -21,3 -72,7 -102,10 26,-54 82,-160 127,-207 35,0 130,0 141,0 14,0 41,4 20,38 -21,34 -99,116 -113,134z"/>
   </g>
   <g>
    <g>
     <polygon class="fil15" points="1118,1335 1121,1245 1090,1245 1091,1334 "/>
     <g>
      <g>
       <path class="fil16" d="M1099 1330c0,0 4,-12 -5,-17 -9,-6 -13,-3 -14,4 -1,7 -1,12 -1,12l20 2z"/>
       <path class="fil16" d="M1085 1322c0,0 -20,14 -36,14 0,0 -28,0 -26,25l112 0c0,0 7,-20 -6,-36 0,0 7,-21 -10,-19l0 12c0,0 -2,5 -8,3 -6,-2 -15,-2 -25,2z"/>
      </g>
      <polygon class="fil17" points="1023,1374 1134,1374 1134,1361 1023,1361 "/>
      <path class="fil18 str2" d="M1094 1334c0,0 -6,-9 -16,-7"/>
      <path class="fil18 str2" d="M1086 1338c0,0 -6,-9 -16,-7"/>
      <path class="fil18 str2" d="M1077 1341c0,0 -6,-9 -16,-7"/>
      <path class="fil18 str3" d="M1133 1335c0,0 -26,3 -28,25"/>
      <path class="fil18 str3" d="M1050 1337c0,0 17,-1 16,23"/>
     </g>
    </g>
    <g>
     <polygon class="fil15" points="1195,1335 1191,1245 1223,1245 1221,1334 "/>
     <g>
      <g>
       <path class="fil16" d="M1213 1330c0,0 -4,-12 5,-17 9,-6 13,-3 14,4 1,7 1,12 1,12l-20 2z"/>
       <path class="fil16" d="M1227 1322c0,0 20,14 36,14 0,0 28,0 26,25l-112 0c0,0 -7,-20 6,-36 0,0 -7,-21 10,-19l0 12c0,0 2,5 8,3 6,-2 15,-2 25,2z"/>
      </g>
      <polygon class="fil17" points="1290,1374 1178,1374 1178,1361 1290,1361 "/>
      <path class="fil18 str2" d="M1218 1334c0,0 6,-9 16,-7"/>
      <path class="fil18 str2" d="M1226 1338c0,0 6,-9 16,-7"/>
      <path class="fil18 str2" d="M1235 1341c0,0 6,-9 16,-7"/>
      <path class="fil18 str3" d="M1179 1335c0,0 26,3 28,25"/>
      <path class="fil18 str3" d="M1262 1337c0,0 -17,-1 -16,23"/>
     </g>
    </g>
    <g>
     <path class="fil19" d="M1074 890c-2,-37 5,-64 6,-64 59,-4 153,-6 153,-6 0,0 0,1 0,1 0,0 9,33 4,59 -57,35 -111,42 -163,9z"/>
     <path class="fil19" d="M1074 872c0,0 -1,170 5,213l5 223 44 -4c1,-102 13,-154 7,-220l21 -200c0,0 -38,-13 -82,-12z"/>
     <path class="fil19" d="M1238 872c0,0 1,170 -5,213l-5 223 -44 -4c-1,-102 -13,-154 -7,-220l-21 -200c0,0 38,-13 82,-12z"/>
    </g>
    <g>
     <g>
      <path class="fil20" d="M1245 872c-18,10 -34,17 -51,21 -12,3 -25,5 -38,5 -12,0 -23,-1 -33,-4 -18,-4 -35,-12 -55,-22l7 -157 -1 -183 45 -12 14 -4c7,-2 15,-3 23,-3 8,0 15,1 23,3l15 4 43 12 -1 183 8 157z"/>
     </g>
    </g>
    <g>
     <g>
      <path class="fil15" d="M1021 836c0,0 3,11 7,18 4,8 1,14 3,21 2,7 -6,7 -8,-1 -2,-7 -1,-11 -2,-11 -2,0 -6,18 -7,23 -1,5 0,18 -2,20 -2,2 -7,-5 -5,-19 1,-13 0,-13 0,-13 0,0 -1,5 -3,11 -1,6 -1,12 -1,16 0,4 -4,6 -5,4 -1,-2 -3,-15 -1,-21 2,-5 3,-14 3,-14 0,0 -5,12 -6,15 -1,3 1,15 -2,17 -1,1 -5,0 -4,-17 0,0 1,-8 3,-13 0,0 -3,4 -4,9 -1,5 -2,9 -2,14 0,5 -4,4 -4,-4 0,-8 1,-17 4,-21 2,-4 6,-29 12,-39l24 5z"/>
     </g>
    </g>
    <g>
     <g>
      <path class="fil15" d="M1289 836c0,0 -3,11 -7,18 -4,8 -1,14 -3,21 -2,7 6,7 8,-1 2,-7 1,-11 2,-11 2,0 6,18 7,23 1,5 0,18 2,20 2,2 7,-5 5,-19 -1,-13 0,-13 0,-13 0,0 1,5 3,11 1,6 1,12 1,16 0,4 4,6 5,4 1,-2 3,-15 1,-21 -2,-5 -3,-14 -3,-14 0,0 5,12 6,15 1,3 -1,15 2,17 1,1 5,0 4,-17 0,0 -1,-8 -3,-13 0,0 3,4 4,9 1,5 2,9 2,14 0,5 4,4 4,-4 0,-8 -1,-17 -4,-21 -2,-4 -6,-29 -12,-39l-24 5z"/>
     </g>
    </g>
    <g>
     <path class="fil20" d="M1097 568c0,0 -19,89 -35,120 0,0 -9,43 -40,150 0,0 -16,6 -26,-6 0,0 15,-117 24,-155 0,0 40,-129 54,-146 0,0 21,8 23,36z"/>
    </g>
    <g>
     <path class="fil20" d="M1214 568c0,0 19,89 35,120 0,0 9,43 40,150 0,0 16,6 26,-6 0,0 -15,-117 -24,-155 0,0 -40,-129 -54,-146 0,0 -21,8 -23,36z"/>
    </g>
    <g>
     <g>
      <path class="fil15" d="M1177 491l-1 18 -1 23c0,0 -3,9 -19,9 -15,0 -18,-6 -18,-6l-1 -10 -2 -34 41 0z"/>
     </g>
     <g>
      <path class="fil21" d="M1177 491l-1 18c-6,6 -22,19 -39,15l-2 -34 41 0z"/>
     </g>
    </g>
    <g>
     <g>
      <path class="fil22" d="M1109 429c0,0 -12,-11 -21,-4 -11,9 1,41 20,37l1 -33z"/>
     </g>
    </g>
    <g>
     <g>
      <path class="fil22" d="M1199 429c0,0 12,-11 21,-4 11,9 -1,41 -20,37l-1 -33z"/>
     </g>
    </g>
    <path class="fil15" d="M1155 505c-45,0 -58,-54 -62,-94 -4,-37 24,-69 60,-70 0,0 1,0 1,0 1,0 1,0 2,0 35,0 63,32 60,68 -3,40 -16,96 -61,96z"/>
    <g>
     <path class="fil23" d="M1143 433c0,0 -4,-9 -12,-9 -9,0 -14,6 -14,6 0,0 2,8 13,8 11,1 13,-5 13,-5z"/>
     <path class="fil24" d="M1121 431c0,2 1,5 2,6 2,1 4,1 6,1 2,0 4,0 6,0 2,-1 3,-4 3,-6 0,-2 -1,-4 -2,-6 -2,-1 -3,-2 -6,-2 -3,0 -5,0 -7,1 -1,1 -2,3 -3,6z"/>
     <path class="fil24" d="M1144 433c0,0 -1,-2 -3,-5 -2,-2 -5,-5 -10,-5l0 0c-9,0 -14,7 -14,7l0 1 1 0 0 0c1,-1 6,-6 13,-6l0 0c4,0 7,2 9,5 1,1 2,2 2,3 0,0 0,1 0,1l0 0c0,0 0,0 1,0 0,0 0,0 0,-1z"/>
    </g>
    <g>
     <path class="fil23" d="M1191 433c0,0 -4,-9 -12,-9 -9,0 -14,6 -14,6 0,0 2,8 13,8 11,1 13,-5 13,-5z"/>
     <path class="fil24" d="M1170 431c0,2 1,5 2,6 2,1 4,1 6,1 2,0 4,0 6,0 2,-1 3,-4 3,-6 0,-2 -1,-4 -2,-6 -2,-1 -3,-2 -6,-2 -3,0 -5,0 -7,1 -1,1 -2,3 -3,6z"/>
     <path class="fil24" d="M1192 433c0,0 -1,-2 -3,-5 -2,-2 -5,-5 -10,-5l0 0c-9,0 -14,7 -14,7l0 1 1 0 0 0c1,-1 6,-6 13,-6l0 0c4,0 7,2 9,5 1,1 2,2 2,3 0,0 0,1 0,1l0 0c0,0 0,0 1,0 0,0 0,0 0,-1z"/>
    </g>
    <path class="fil25" d="M1124 407c0,0 -9,1 -13,4 -3,2 -3,5 1,6 3,1 9,0 13,0 9,-1 15,-4 14,-7 -1,-4 -10,-3 -15,-2z"/>
    <path class="fil25" d="M1187 407c0,0 8,1 12,4 2,2 2,5 -1,6 -3,1 -9,0 -12,0 -9,-1 -14,-4 -14,-7 1,-4 10,-3 14,-2z"/>
    <g>
     <line class="fil18 str4" x1="1152" y1="430" x2="1152" y2= "456" />
     <path class="fil18 str4" d="M1152 456c0,1 0,1 0,2 1,2 3,3 5,2"/>
     <line class="fil18 str4" x1="1158" y1="460" x2="1162" y2= "459" />
    </g>
    <path class="fil26" d="M1102 448c0,0 -18,-41 -13,-74 0,0 8,-34 32,-34 0,0 15,-21 30,-7 0,0 25,-15 37,6 0,0 22,-2 28,21 0,0 14,7 4,50 0,0 -8,24 -10,33 0,0 -2,-21 1,-35 0,0 5,-27 -8,-37 0,0 -10,-11 -30,1 0,0 -15,13 -31,0 -16,-13 -24,-9 -33,0 0,0 -11,10 -7,26 0,0 3,33 1,48z"/>
    <line class="fil18 str4" x1="1140" y1="474" x2="1169" y2= "474" />
    <path class="fil18 str5" d="M1148 483c0,0 6,2 14,0"/>
    <path class="fil27" d="M1196 432c-2,0 -3,0 -5,0 -8,0 -17,-1 -25,1 -2,1 -5,1 -7,2 -3,1 -7,1 -10,0 -1,0 -2,-1 -3,-1 -8,-2 -15,-3 -23,-2 -4,0 -7,0 -11,0 -2,0 -2,1 -2,2 0,2 1,5 1,7 0,1 0,2 1,3 0,0 1,1 1,1 1,1 1,3 2,4 0,1 1,1 2,2 1,0 2,1 3,1 7,1 14,2 21,1 4,0 6,-2 8,-6 1,-2 1,-3 2,-5 0,-1 1,-2 2,-2 1,0 1,0 2,0 2,0 3,0 3,2 1,2 1,4 2,5 1,3 3,4 6,4 7,1 14,0 20,-1 3,-1 6,-2 7,-5 0,-1 1,-2 2,-3 1,-1 1,-1 1,-2 0,0 0,-1 0,-1 0,-2 0,-4 1,-7 0,-1 0,-2 -1,-2zm-48 8l0 0c0,4 -1,7 -4,10 -1,1 -2,2 -4,2 -7,1 -13,0 -19,-1 -3,-1 -5,-3 -6,-6 0,-2 -1,-4 -1,-6 0,-2 1,-3 3,-3 3,0 6,-1 10,-1 4,0 12,1 17,2 0,0 1,0 1,0 2,1 2,1 2,4zm43 8l0 0c0,1 -1,1 -2,2 -3,1 -5,2 -8,2 -4,0 -8,0 -12,0 -4,0 -6,-2 -8,-6 -1,-2 -1,-4 -1,-7 0,-1 1,-2 2,-2 4,-1 7,-2 11,-2 3,0 5,0 9,0 2,0 6,0 9,1 2,0 3,1 3,3 0,3 -1,7 -2,10z"/>
   </g>
  </g>
 </g>
</svg>
