<?xml version="1.0" encoding="UTF-8"?>
<!DOCTYPE svg PUBLIC "-//W3C//DTD SVG 1.1//EN" "http://www.w3.org/Graphics/SVG/1.1/DTD/svg11.dtd">
<!-- Creator: CorelDRAW X6 -->
<svg xmlns="http://www.w3.org/2000/svg" xml:space="preserve" width="42.1258mm" height="132.003mm" version="1.1" style="shape-rendering:geometricPrecision; text-rendering:geometricPrecision; image-rendering:optimizeQuality; fill-rule:evenodd; clip-rule:evenodd"
viewBox="0 0 1164 3648"
 xmlns:xlink="http://www.w3.org/1999/xlink">
 <defs>
  <style type="text/css">
   <![CDATA[
    .str2 {stroke:#D16664;stroke-width:4.84443;stroke-linecap:round;stroke-linejoin:round}
    .str1 {stroke:#321A17;stroke-width:7.31224;stroke-linecap:round;stroke-linejoin:round}
    .str0 {stroke:white;stroke-width:9.74965;stroke-linecap:round;stroke-linejoin:round}
    .fil3 {fill:none;fill-rule:nonzero}
    .fil12 {fill:black}
    .fil11 {fill:white}
    .fil5 {fill:#00A0E3;fill-rule:nonzero}
    .fil10 {fill:#2B2A29;fill-rule:nonzero}
    .fil2 {fill:#B2B3B3;fill-rule:nonzero}
    .fil4 {fill:#2B2B2B;fill-rule:nonzero}
    .fil1 {fill:#59342F;fill-rule:nonzero}
    .fil7 {fill:#E2E2E2;fill-rule:nonzero}
    .fil8 {fill:#F78967;fill-rule:nonzero}
    .fil9 {fill:#FFA377;fill-rule:nonzero}
    .fil0 {fill:#FFAF82;fill-rule:nonzero}
    .fil6 {fill:white;fill-rule:nonzero}
   ]]>
  </style>
 </defs>
 <g id="Layer_x0020_1">
  <metadata id="CorelCorpID_0Corel-Layer"/>
  <g id="_1602931808">
   <g>
    <polygon class="fil0" points="696,3515 685,3202 793,3202 788,3509 "/>
    <g>
     <g>
      <path class="fil1" d="M760 3496c0,0 -14,-41 17,-60 31,-19 46,-11 48,14 2,25 3,40 3,40l-68 6z"/>
      <path class="fil1" d="M809 3470c0,0 71,49 126,48 0,0 95,2 90,86l-387 0c0,0 -23,-70 21,-126 0,0 -23,-73 33,-66l1 41c0,0 7,17 29,10 22,-6 50,-7 87,6z"/>
     </g>
     <polygon class="fil2" points="1025,3648 639,3648 639,3604 1025,3604 "/>
     <path class="fil3 str0" d="M777 3510c0,0 22,-31 55,-25"/>
     <path class="fil3 str0" d="M805 3525c0,0 22,-31 55,-25"/>
     <path class="fil3 str0" d="M836 3535c0,0 22,-31 55,-25"/>
     <path class="fil3 str1" d="M642 3515c0,0 91,12 97,88"/>
     <path class="fil3 str1" d="M929 3520c0,0 -59,-2 -57,81"/>
    </g>
   </g>
   <g>
    <polygon class="fil0" points="444,3515 455,3202 347,3202 352,3509 "/>
    <g>
     <g>
      <path class="fil1" d="M380 3496c0,0 14,-41 -17,-60 -31,-19 -46,-11 -48,14 -2,25 -3,40 -3,40l68 6z"/>
      <path class="fil1" d="M331 3470c0,0 -71,49 -126,48 0,0 -95,2 -90,86l387 0c0,0 23,-70 -21,-126 0,0 23,-73 -33,-66l-1 41c0,0 -7,17 -29,10 -22,-6 -50,-7 -87,6z"/>
     </g>
     <polygon class="fil2" points="115,3648 501,3648 501,3604 115,3604 "/>
     <path class="fil3 str0" d="M363 3510c0,0 -22,-31 -55,-25"/>
     <path class="fil3 str0" d="M335 3525c0,0 -22,-31 -55,-25"/>
     <path class="fil3 str0" d="M304 3535c0,0 -22,-31 -55,-25"/>
     <path class="fil3 str1" d="M498 3515c0,0 -91,12 -97,88"/>
     <path class="fil3 str1" d="M211 3520c0,0 59,-2 57,81"/>
    </g>
   </g>
   <path class="fil4" d="M289 1971c-7,-129 18,-223 21,-221 203,-13 529,-21 529,-21 0,1 1,2 1,4 0,0 33,114 14,205 -197,121 -384,146 -564,33z"/>
   <path class="fil4" d="M289 1909c0,0 -2,590 16,737l19 773 151 -15c3,-355 45,-534 24,-762l72 -692c0,0 -130,-46 -283,-41z"/>
   <g>
    <g>
     <path class="fil5" d="M866 1779c-57,30 -110,52 -163,65 -40,10 -80,15 -122,15 -37,0 -72,-4 -107,-12 -57,-13 -113,-36 -175,-69l23 -488 -3 -569 144 -39 43 -12c24,-6 49,-10 73,-10 25,0 49,3 73,10l49 13 139 37 -3 569 27 488z"/>
    </g>
   </g>
   <g>
    <path class="fil6" d="M703 685l0 1159c-40,10 -80,15 -122,15 -37,0 -72,-4 -107,-12l0 -29 0 -30 -1 -70 0 -30 -1 -70 0 -30 0 -70 0 -30 -1 -70 0 -30 -1 -70 0 -30 -1 -70 0 -30 -1 -70 0 -30 -1 -70 0 -30 -1 -70 0 -30 -1 -70 0 -30 -1 -70 0 -30 0 -3 43 -12c24,-6 49,-10 73,-10 25,0 49,3 73,10l48 13 0 0z"/>
    <g>
     <g>
      <path class="fil7" d="M703 716l0 29c-42,7 -82,10 -120,10 -46,0 -87,-4 -119,-8l0 -30c55,8 145,15 238,-1l0 0z"/>
     </g>
     <g>
      <path class="fil7" d="M703 800l0 30c-41,7 -81,10 -118,10 -47,0 -88,-4 -120,-9l0 -30c55,8 145,16 238,-1z"/>
     </g>
     <g>
      <path class="fil7" d="M703 886l0 30c-40,7 -80,10 -116,10 -47,0 -89,-4 -121,-9l0 -30c55,9 144,17 237,0z"/>
     </g>
     <g>
      <path class="fil7" d="M703 987l0 30c-40,7 -79,10 -115,10 -47,0 -89,-5 -121,-10l0 -30c55,9 144,17 236,0z"/>
     </g>
     <g>
      <path class="fil7" d="M703 1087l0 30c-39,7 -78,10 -113,10 -47,0 -89,-5 -122,-10l0 -30c55,9 143,18 235,0z"/>
     </g>
     <g>
      <path class="fil7" d="M703 1188l0 30c-39,7 -77,10 -112,10 -48,0 -90,-5 -122,-10l0 -30c55,10 143,19 235,1z"/>
     </g>
     <g>
      <path class="fil7" d="M703 1288l0 30c-39,7 -76,10 -111,10 -48,0 -90,-5 -123,-11l0 -30c55,10 142,19 234,1z"/>
     </g>
     <g>
      <path class="fil7" d="M703 1389l0 30c-38,7 -75,10 -110,10 -48,0 -90,-5 -123,-11l0 -30c55,10 142,20 233,1z"/>
     </g>
     <g>
      <path class="fil7" d="M703 1490l0 30c-38,7 -75,10 -109,10 -48,0 -90,-5 -123,-12l0 -30c55,11 141,20 232,2z"/>
     </g>
     <g>
      <path class="fil7" d="M703 1590l0 30c-38,7 -74,10 -108,10 -48,0 -90,-6 -123,-12l0 -30c55,11 141,21 231,2z"/>
     </g>
     <g>
      <path class="fil7" d="M703 1691l0 30c-37,7 -73,10 -107,10 -48,0 -90,-6 -124,-12l0 -30c55,11 140,21 230,3z"/>
     </g>
     <g>
      <path class="fil7" d="M703 1791l0 30c-37,7 -73,10 -106,10 -48,0 -90,-6 -124,-13l0 -30c55,12 140,22 230,3z"/>
     </g>
    </g>
   </g>
   <g>
    <g>
     <path class="fil0" d="M137 1779c0,0 11,37 24,64 12,27 4,48 11,72 7,24 -22,23 -27,-3 -6,-26 -3,-38 -9,-38 -5,-1 -21,61 -23,79 -2,18 1,63 -5,70 -7,7 -23,-18 -18,-65 5,-47 1,-46 1,-46 0,0 -4,18 -9,38 -5,19 -5,43 -4,56 1,13 -13,20 -17,13 -4,-7 -10,-53 -5,-72 5,-18 12,-49 12,-49 0,0 -18,42 -21,52 -3,11 2,52 -7,59 -4,3 -16,-1 -14,-59 0,0 4,-29 10,-46 0,0 -10,13 -14,31 -4,16 -6,32 -8,48 -1,16 -15,14 -15,-14 0,-28 5,-59 13,-73 8,-15 19,-102 42,-133l82 17z"/>
    </g>
   </g>
   <g>
    <path class="fil5" d="M399 849c0,0 -67,309 -123,416 0,0 -31,150 -138,520 0,0 -56,22 -88,-20 0,0 52,-406 83,-536 0,0 140,-448 186,-506 0,0 72,29 79,126z"/>
   </g>
   <g>
    <g>
     <path class="fil0" d="M1027 1779c0,0 -11,37 -24,64 -12,27 -4,48 -11,72 -7,24 22,23 27,-3 6,-26 3,-38 9,-38 5,-1 21,61 23,79 2,18 -1,63 5,70 7,7 23,-18 18,-65 -5,-47 -1,-46 -1,-46 0,0 4,18 9,38 5,19 5,43 4,56 -1,13 13,20 17,13 4,-7 10,-53 5,-72 -5,-18 -12,-49 -12,-49 0,0 18,42 21,52 3,11 -2,52 7,59 4,3 16,-1 14,-59 0,0 -4,-29 -10,-46 0,0 10,13 14,31 4,16 6,32 8,48 1,16 15,14 15,-14 0,-28 -5,-59 -13,-73 -8,-15 -19,-102 -42,-133l-82 17z"/>
    </g>
   </g>
   <g>
    <path class="fil5" d="M765 849c0,0 67,309 123,416 0,0 31,150 138,520 0,0 56,22 88,-20 0,0 -52,-406 -83,-536 0,0 -140,-448 -186,-506 0,0 -72,29 -79,126z"/>
   </g>
   <g>
    <g>
     <path class="fil0" d="M657 590l-3 47 -3 59c0,0 -12,22 -65,22 -53,0 -64,-15 -64,-15l-2 -26 -7 -87 144 0z"/>
    </g>
    <g>
     <path class="fil8" d="M657 590l-3 47c-22,17 -75,49 -134,40l-7 -87 144 0z"/>
    </g>
   </g>
   <g>
    <g>
     <path class="fil9" d="M422 376c0,0 -41,-40 -73,-14 -38,31 2,141 70,129l3 -116z"/>
    </g>
   </g>
   <g>
    <g>
     <path class="fil9" d="M733 376c0,0 41,-40 73,-14 38,31 -2,141 -70,129l-3 -116z"/>
    </g>
   </g>
   <path class="fil0" d="M580 637c-140,0 -184,-167 -197,-289 -12,-113 76,-212 189,-213 2,0 3,0 5,0 2,0 4,0 6,0 112,1 199,98 189,210 -11,124 -51,293 -192,293z"/>
   <path class="fil10" d="M762 15c71,49 7,144 7,144 0,0 71,69 -2,233l-13 -3c8,-52 3,-116 0,-126 -10,-30 -62,-46 -60,-78 0,0 -161,50 -248,1 0,0 -7,41 -31,68 -20,22 -9,98 -6,131l-13 1c-8,-34 -27,-94 -29,-112 -1,-11 -6,-56 -8,-88 -2,-28 3,-56 16,-81 7,-14 17,-28 30,-38 47,-35 293,-97 357,-53z"/>
   <g>
    <g>
     <path class="fil11" d="M537 390c0,0 -12,-31 -42,-33 -30,-1 -48,22 -48,22 0,0 8,27 44,28 36,2 46,-18 46,-18z"/>
     <path class="fil12" d="M461 381c0,8 3,16 8,22 6,2 12,4 21,5 7,0 14,0 19,-1 7,-5 11,-13 12,-22 0,-8 -2,-16 -7,-21 -5,-3 -12,-5 -20,-6 -9,0 -17,2 -24,4 -5,5 -8,12 -9,20z"/>
     <path class="fil12" d="M538 389c0,0 -3,-8 -10,-17 -7,-8 -18,-17 -34,-17l-1 0c-32,0 -49,23 -49,23l0 3 3 0 1 -1c3,-4 19,-21 45,-21l1 0c15,0 25,8 31,16 3,4 6,8 7,11 1,1 1,3 2,4l1 1c0,1 1,1 2,1 1,0 1,-1 1,-2z"/>
    </g>
    <g>
     <path class="fil11" d="M707 390c0,0 -12,-31 -42,-33 -30,-1 -48,22 -48,22 0,0 8,27 44,28 36,2 46,-18 46,-18z"/>
     <path class="fil12" d="M632 381c0,8 3,16 8,22 6,2 12,4 21,5 7,0 14,0 19,-1 7,-5 11,-13 12,-22 0,-8 -2,-16 -7,-21 -5,-3 -12,-5 -20,-6 -9,0 -17,2 -24,4 -5,5 -8,12 -9,20z"/>
     <path class="fil12" d="M709 389c0,0 -3,-8 -10,-17 -7,-8 -18,-17 -34,-17l-1 0c-32,0 -49,23 -49,23l0 3 3 0 1 -1c3,-4 19,-21 45,-21l1 0c15,0 25,8 31,16 3,4 6,8 7,11 1,1 1,3 2,4l1 1c0,1 1,1 2,1 1,0 1,-1 1,-2z"/>
    </g>
   </g>
   <g>
    <path class="fil12" d="M487 298c0,0 -30,4 -45,13 -9,6 -9,16 2,20 10,3 32,1 44,0 31,-4 52,-15 50,-25 -3,-12 -35,-10 -52,-7z"/>
    <path class="fil12" d="M670 298c0,0 29,4 42,13 9,6 8,16 -2,20 -9,3 -30,1 -42,0 -30,-4 -49,-15 -47,-25 2,-12 33,-10 49,-7z"/>
   </g>
   <path class="fil6" d="M531 523l92 0c0,0 -15,29 -49,27 -34,-2 -43,-27 -43,-27z"/>
   <g>
    <line class="fil3 str2" x1="559" y1="377" x2="559" y2= "468" />
    <path class="fil3 str2" d="M559 468c0,2 0,4 1,6 3,7 11,10 18,8"/>
    <line class="fil3 str2" x1="579" y1="482" x2="594" y2= "478" />
   </g>
   <path class="fil4" d="M858 1909c0,0 2,590 -16,737l-19 773 -151 -15c-3,-355 -45,-534 -24,-762l-72 -692c0,0 130,-46 283,-41z"/>
  </g>
 </g>
</svg>
