<?xml version="1.0" encoding="UTF-8"?>
<!DOCTYPE svg PUBLIC "-//W3C//DTD SVG 1.1//EN" "http://www.w3.org/Graphics/SVG/1.1/DTD/svg11.dtd">
<!-- Creator: CorelDRAW X6 -->
<svg xmlns="http://www.w3.org/2000/svg" xml:space="preserve" width="50mm" height="50mm" version="1.1" style="shape-rendering:geometricPrecision; text-rendering:geometricPrecision; image-rendering:optimizeQuality; fill-rule:evenodd; clip-rule:evenodd"
viewBox="0 0 5907 5907"
 xmlns:xlink="http://www.w3.org/1999/xlink">
 <defs>
  <style type="text/css">
   <![CDATA[
    .str4 {stroke:#D16664;stroke-width:20.7105;stroke-linecap:round;stroke-linejoin:round}
    .str0 {stroke:#898989;stroke-width:23.6286}
    .str1 {stroke:#8FC8D1;stroke-width:23.6286}
    .str3 {stroke:#321A17;stroke-width:31.2606;stroke-linecap:round;stroke-linejoin:round}
    .str2 {stroke:white;stroke-width:41.6808;stroke-linecap:round;stroke-linejoin:round}
    .fil3 {fill:none}
    .fil8 {fill:none;fill-rule:nonzero}
    .fil1 {fill:#898989}
    .fil0 {fill:#B0CB1F}
    .fil17 {fill:black}
    .fil2 {fill:#8FC8D1}
    .fil16 {fill:white}
    .fil10 {fill:#00A0E3;fill-rule:nonzero}
    .fil15 {fill:#2B2A29;fill-rule:nonzero}
    .fil7 {fill:#B2B3B3;fill-rule:nonzero}
    .fil4 {fill:#FEFEFE;fill-rule:nonzero}
    .fil9 {fill:#2B2B2B;fill-rule:nonzero}
    .fil6 {fill:#59342F;fill-rule:nonzero}
    .fil12 {fill:#E2E2E2;fill-rule:nonzero}
    .fil13 {fill:#F78967;fill-rule:nonzero}
    .fil14 {fill:#FFA377;fill-rule:nonzero}
    .fil5 {fill:#FFAF82;fill-rule:nonzero}
    .fil11 {fill:white;fill-rule:nonzero}
   ]]>
  </style>
    <clipPath id="id0">
     <path d="M2954 0c1631,0 2954,1322 2954,2954 0,1631 -1322,2954 -2954,2954 -1631,0 -2954,-1322 -2954,-2954 0,-1631 1322,-2954 2954,-2954z"/>
    </clipPath>
    <clipPath id="id1">
     <rect x="712" y="2339" width="4484" height="2428"/>
    </clipPath>
 </defs>
 <g id="Layer_x0020_1">
  <metadata id="CorelCorpID_0Corel-Layer"/>
  <g id="_2136764544">
   <path class="fil0" d="M2954 0c1631,0 2954,1322 2954,2954 0,1631 -1322,2954 -2954,2954 -1631,0 -2954,-1322 -2954,-2954 0,-1631 1322,-2954 2954,-2954z"/>
   <g style="clip-path:url(#id0)">
    <g>
     <rect class="fil1 str0" x="-920" y="4040" width="7915" height="2038"/>
     <rect class="fil2 str1" x="-920" y="-549" width="7915" height="4589"/>
    </g>
   </g>
   <path class="fil3" d="M2954 0c1631,0 2954,1322 2954,2954 0,1631 -1322,2954 -2954,2954 -1631,0 -2954,-1322 -2954,-2954 0,-1631 1322,-2954 2954,-2954z"/>
   <path class="fil4" d="M982 1210c61,5 127,24 169,-20 83,-88 109,-131 124,-134 59,-14 103,-79 162,-64 38,9 71,38 111,38 107,-2 119,-197 226,-205 60,-4 115,60 173,43 31,-9 51,-39 73,-64 53,-58 135,-87 212,-76 77,11 148,62 183,132 20,39 28,83 51,121 23,37 67,68 109,54 33,-11 54,-46 88,-53 42,-9 78,29 101,65 23,36 46,79 87,89 30,7 60,-4 90,-11 131,-27 258,55 367,132 -40,-3 -80,-8 -120,-8l-2303 0c71,-41 -16,-47 99,-37z"/>
   <g style="clip-path:url(#id1)">
    <image x="712" y="2339" width="4484" height="2428" xlink:href="Man 1 - Bike_Images\Man 1 - Bike_ImgID1.png"/>
   </g>
   <g>
    <g>
     <polygon class="fil5" points="2870,4637 2859,4326 2967,4326 2962,4632 "/>
     <g>
      <g>
       <path class="fil6" d="M2933 4618c0,0 -13,-40 17,-60 31,-19 46,-11 48,13 2,25 3,40 3,40l-68 6z"/>
       <path class="fil6" d="M2983 4593c0,0 71,49 126,48 0,0 95,2 89,86l-385 0c0,0 -23,-70 21,-125 0,0 -23,-73 33,-66l1 41c0,0 7,17 28,10 22,-6 50,-7 86,6z"/>
      </g>
      <polygon class="fil7" points="3198,4770 2813,4770 2813,4727 3198,4727 "/>
      <path class="fil8 str2" d="M2951 4632c0,0 22,-31 54,-25"/>
      <path class="fil8 str2" d="M2978 4648c0,0 22,-31 54,-25"/>
      <path class="fil8 str2" d="M3010 4657c0,0 22,-31 54,-25"/>
      <path class="fil8 str3" d="M2816 4638c0,0 91,12 97,87"/>
      <path class="fil8 str3" d="M3102 4642c0,0 -59,-2 -56,81"/>
     </g>
    </g>
    <g>
     <polygon class="fil5" points="2619,4637 2630,4326 2522,4326 2527,4632 "/>
     <g>
      <g>
       <path class="fil6" d="M2556 4618c0,0 13,-40 -17,-60 -31,-19 -46,-11 -48,13 -2,25 -3,40 -3,40l68 6z"/>
       <path class="fil6" d="M2506 4593c0,0 -71,49 -126,48 0,0 -95,2 -89,86l385 0c0,0 23,-70 -21,-125 0,0 23,-73 -33,-66l-1 41c0,0 -7,17 -28,10 -22,-6 -50,-7 -86,6z"/>
      </g>
      <polygon class="fil7" points="2291,4770 2676,4770 2676,4727 2291,4727 "/>
      <path class="fil8 str2" d="M2538 4632c0,0 -22,-31 -54,-25"/>
      <path class="fil8 str2" d="M2511 4648c0,0 -22,-31 -54,-25"/>
      <path class="fil8 str2" d="M2479 4657c0,0 -22,-31 -54,-25"/>
      <path class="fil8 str3" d="M2673 4638c0,0 -91,12 -97,87"/>
      <path class="fil8 str3" d="M2387 4642c0,0 59,-2 56,81"/>
     </g>
    </g>
    <path class="fil9" d="M2465 3100c-7,-128 18,-222 21,-220 202,-13 526,-21 526,-21 0,1 1,2 1,4 0,0 33,114 14,205 -197,121 -382,145 -562,33z"/>
    <path class="fil9" d="M2465 3038c0,0 -2,588 16,734l19 770 150 -15c3,-353 45,-532 24,-759l72 -689c0,0 -130,-46 -281,-41z"/>
    <g>
     <g>
      <path class="fil10" d="M3039 2909c-57,30 -110,52 -163,65 -40,10 -80,15 -122,15 -37,0 -72,-4 -107,-11 -57,-13 -112,-36 -174,-68l23 -486 -3 -567 144 -39 43 -12c24,-6 48,-10 73,-10 24,0 49,3 73,10l49 13 138 37 -3 567 27 486z"/>
     </g>
    </g>
    <g>
     <path class="fil11" d="M2877 1819l0 1154c-40,10 -80,15 -122,15 -37,0 -72,-4 -107,-11l0 -29 0 -30 -1 -70 0 -30 -1 -70 0 -30 0 -70 0 -30 -1 -70 0 -30 -1 -70 0 -30 -1 -70 0 -30 -1 -70 0 -30 -1 -70 0 -30 -1 -70 0 -30 -1 -70 0 -30 -1 -70 0 -30 0 -3 43 -12c24,-6 48,-10 73,-10 24,0 49,3 73,10l48 13 0 0z"/>
     <g>
      <g>
       <path class="fil12" d="M2877 1850l0 29c-41,7 -82,10 -119,10 -46,0 -87,-4 -118,-8l0 -30c55,8 145,15 237,-1l0 0z"/>
      </g>
      <g>
       <path class="fil12" d="M2877 1934l0 30c-41,7 -81,10 -117,10 -46,0 -88,-4 -119,-9l0 -30c55,8 144,16 237,-1z"/>
      </g>
      <g>
       <path class="fil12" d="M2877 2020l0 30c-40,7 -80,10 -116,10 -47,0 -88,-4 -120,-9l0 -30c55,9 144,17 236,0z"/>
      </g>
      <g>
       <path class="fil12" d="M2877 2120l0 30c-40,7 -79,10 -114,10 -47,0 -89,-5 -121,-10l0 -30c55,9 143,17 235,0z"/>
      </g>
      <g>
       <path class="fil12" d="M2877 2220l0 30c-39,7 -77,10 -113,10 -47,0 -89,-5 -121,-10l0 -30c55,9 143,18 234,0z"/>
      </g>
      <g>
       <path class="fil12" d="M2877 2320l0 30c-39,7 -77,10 -112,10 -47,0 -90,-5 -122,-10l0 -30c55,10 142,18 234,1z"/>
      </g>
      <g>
       <path class="fil12" d="M2877 2420l0 30c-38,7 -76,10 -110,10 -47,0 -90,-5 -122,-11l0 -30c55,10 142,19 233,1z"/>
      </g>
      <g>
       <path class="fil12" d="M2877 2520l0 30c-38,7 -75,10 -109,10 -48,0 -90,-5 -123,-11l0 -30c55,10 141,20 232,1z"/>
      </g>
      <g>
       <path class="fil12" d="M2877 2621l0 30c-38,7 -74,10 -108,10 -48,0 -90,-5 -123,-12l0 -30c55,11 141,20 231,2z"/>
      </g>
      <g>
       <path class="fil12" d="M2877 2721l0 30c-37,7 -74,10 -107,10 -48,0 -90,-6 -123,-12l0 -30c55,11 140,21 230,2z"/>
      </g>
      <g>
       <path class="fil12" d="M2877 2821l0 30c-37,7 -73,10 -106,10 -48,0 -90,-6 -123,-12l0 -30c55,11 139,21 229,3z"/>
      </g>
      <g>
       <path class="fil12" d="M2877 2921l0 30c-37,7 -72,10 -105,10 -48,0 -90,-6 -123,-13l0 -30c54,12 139,22 229,3z"/>
      </g>
     </g>
    </g>
    <g>
     <g>
      <path class="fil5" d="M2313 2908c0,0 11,37 23,64 12,27 4,48 11,72 7,24 -22,22 -27,-3 -6,-25 -3,-37 -9,-38 -5,-1 -20,61 -23,79 -2,18 1,62 -5,69 -7,7 -23,-18 -18,-64 5,-46 1,-45 1,-45 0,0 -4,18 -9,37 -5,19 -5,43 -4,56 1,13 -13,20 -17,13 -4,-7 -10,-53 -5,-71 5,-18 12,-49 12,-49 0,0 -18,41 -21,52 -3,11 2,52 -7,59 -4,3 -16,-1 -14,-59 0,0 4,-28 10,-46 0,0 -10,13 -14,31 -4,16 -6,32 -8,48 -1,16 -15,14 -15,-14 0,-28 5,-58 12,-73 8,-15 19,-101 42,-133l81 17z"/>
     </g>
    </g>
    <g>
     <path class="fil10" d="M2575 1982c0,0 -66,308 -122,414 0,0 -31,150 -137,517 0,0 -56,22 -88,-20 0,0 51,-404 82,-533 0,0 139,-447 186,-504 0,0 72,29 79,126z"/>
    </g>
    <g>
     <g>
      <path class="fil5" d="M3200 2908c0,0 -11,37 -23,64 -12,27 -4,48 -11,72 -7,24 22,22 27,-3 6,-25 3,-37 8,-38 5,-1 20,61 23,79 2,18 -1,62 5,69 7,7 23,-18 18,-64 -5,-46 -1,-45 -1,-45 0,0 4,18 9,37 5,19 5,43 4,56 -1,13 13,20 17,13 4,-7 10,-53 5,-71 -5,-18 -12,-49 -12,-49 0,0 18,41 21,52 3,11 -2,52 7,59 4,3 16,-1 14,-59 0,0 -4,-28 -10,-46 0,0 10,13 14,31 4,16 6,32 8,48 1,16 15,14 15,-14 0,-28 -5,-58 -12,-73 -8,-15 -19,-101 -42,-133l-81 17z"/>
     </g>
    </g>
    <g>
     <path class="fil10" d="M2939 1982c0,0 66,308 122,414 0,0 31,150 137,517 0,0 56,22 88,-20 0,0 -51,-404 -82,-533 0,0 -139,-447 -186,-504 0,0 -72,29 -79,126z"/>
    </g>
    <g>
     <g>
      <path class="fil5" d="M2831 1725l-3 47 -3 59c0,0 -12,22 -65,22 -53,0 -64,-15 -64,-15l-2 -26 -7 -87 143 0z"/>
     </g>
     <g>
      <path class="fil13" d="M2831 1725l-3 47c-22,17 -74,49 -134,40l-7 -87 143 0z"/>
     </g>
    </g>
    <g>
     <g>
      <path class="fil14" d="M2598 1511c0,0 -40,-40 -73,-14 -38,31 2,140 70,129l3 -115z"/>
     </g>
    </g>
    <g>
     <g>
      <path class="fil14" d="M2907 1511c0,0 40,-40 73,-14 38,31 -2,140 -70,129l-3 -115z"/>
     </g>
    </g>
    <path class="fil5" d="M2754 1771c-140,0 -183,-166 -196,-288 -12,-112 75,-211 188,-212 2,0 3,0 5,0 2,0 4,0 6,0 111,1 198,98 189,209 -11,123 -51,291 -191,291z"/>
    <path class="fil15" d="M2936 1153c71,49 7,143 7,143 0,0 71,69 -2,232l-13 -3c8,-52 3,-116 0,-126 -10,-30 -62,-46 -59,-78 0,0 -160,50 -247,1 0,0 -7,41 -31,67 -20,22 -9,98 -6,130l-13 1c-8,-33 -27,-94 -29,-111 -1,-11 -6,-55 -8,-87 -2,-28 3,-56 16,-81 7,-14 17,-27 30,-37 47,-35 292,-97 356,-53z"/>
    <g>
     <g>
      <path class="fil16" d="M2711 1525c0,0 -12,-31 -42,-33 -30,-1 -48,22 -48,22 0,0 8,26 44,28 36,2 46,-18 46,-18z"/>
      <path class="fil17" d="M2636 1517c0,8 3,16 8,22 6,2 12,4 21,5 7,0 14,0 19,-1 7,-5 11,-13 12,-22 0,-8 -2,-15 -7,-21 -5,-3 -12,-5 -19,-6 -9,0 -17,2 -24,4 -5,5 -8,12 -9,20z"/>
      <path class="fil17" d="M2713 1525c0,0 -3,-8 -10,-17 -7,-8 -18,-17 -34,-17l-1 0c-31,0 -48,23 -49,23l0 3 3 0 1 -1c3,-4 19,-21 45,-21l1 0c15,0 25,8 31,16 3,4 6,8 7,11 1,1 1,3 2,4l1 1c0,1 1,1 2,1 1,0 1,-1 1,-2z"/>
     </g>
     <g>
      <path class="fil16" d="M2881 1525c0,0 -12,-31 -42,-33 -30,-1 -48,22 -48,22 0,0 8,26 44,28 36,2 46,-18 46,-18z"/>
      <path class="fil17" d="M2806 1517c0,8 3,16 8,22 6,2 12,4 21,5 7,0 14,0 19,-1 7,-5 11,-13 12,-22 0,-8 -2,-15 -7,-21 -5,-3 -12,-5 -19,-6 -9,0 -17,2 -24,4 -5,5 -8,12 -9,20z"/>
      <path class="fil17" d="M2883 1525c0,0 -3,-8 -10,-17 -7,-8 -18,-17 -34,-17l-1 0c-31,0 -48,23 -49,23l0 3 3 0 1 -1c3,-4 19,-21 45,-21l1 0c15,0 25,8 31,16 3,4 6,8 7,11 1,1 1,3 2,4l1 1c0,1 1,1 2,1 1,0 1,-1 1,-2z"/>
     </g>
    </g>
    <g>
     <path class="fil17" d="M2662 1434c0,0 -30,4 -45,13 -9,6 -9,16 2,20 10,3 31,1 44,0 31,-4 52,-15 50,-25 -3,-12 -35,-10 -52,-7z"/>
     <path class="fil17" d="M2844 1434c0,0 28,4 42,13 9,6 8,16 -2,20 -9,3 -30,1 -42,0 -30,-4 -49,-15 -47,-25 2,-12 33,-10 49,-7z"/>
    </g>
    <path class="fil11" d="M2706 1658l92 0c0,0 -15,29 -49,27 -34,-2 -42,-27 -42,-27z"/>
    <g>
     <line class="fil8 str4" x1="2734" y1="1512" x2="2734" y2= "1603" />
     <path class="fil8 str4" d="M2734 1603c0,2 0,4 1,6 3,7 11,10 18,8"/>
     <line class="fil8 str4" x1="2753" y1="1617" x2="2769" y2= "1613" />
    </g>
    <path class="fil9" d="M3032 3038c0,0 2,588 -16,734l-19 770 -150 -15c-3,-353 -45,-532 -24,-759l-72 -689c0,0 130,-46 281,-41z"/>
   </g>
  </g>
 </g>
</svg>
