<?xml version="1.0" encoding="UTF-8"?>
<!DOCTYPE svg PUBLIC "-//W3C//DTD SVG 1.1//EN" "http://www.w3.org/Graphics/SVG/1.1/DTD/svg11.dtd">
<!-- Creator: CorelDRAW X6 -->
<svg xmlns="http://www.w3.org/2000/svg" xml:space="preserve" width="50mm" height="50mm" version="1.1" style="shape-rendering:geometricPrecision; text-rendering:geometricPrecision; image-rendering:optimizeQuality; fill-rule:evenodd; clip-rule:evenodd"
viewBox="0 0 1497 1497"
 xmlns:xlink="http://www.w3.org/1999/xlink">
 <defs>
  <style type="text/css">
   <![CDATA[
    .str4 {stroke:#D16664;stroke-width:5.2485;stroke-linecap:round;stroke-linejoin:round}
    .str1 {stroke:#A2D9F7;stroke-width:5.98802}
    .str0 {stroke:#B0CB1F;stroke-width:5.98802}
    .str3 {stroke:#321A17;stroke-width:7.92216;stroke-linecap:round;stroke-linejoin:round}
    .str2 {stroke:white;stroke-width:10.5629;stroke-linecap:round;stroke-linejoin:round}
    .fil26 {fill:none}
    .fil16 {fill:none;fill-rule:nonzero}
    .fil1 {fill:#A2D9F7}
    .fil0 {fill:#B0CB1F}
    .fil25 {fill:black}
    .fil5 {fill:#524798}
    .fil4 {fill:#5E54AC}
    .fil11 {fill:#80B4FB}
    .fil10 {fill:#8B5E5E}
    .fil8 {fill:#9DC6FB}
    .fil9 {fill:#AA8080}
    .fil7 {fill:#D8E2F1}
    .fil3 {fill:#E7A52E}
    .fil6 {fill:#E7ECF6}
    .fil2 {fill:#EAB14D}
    .fil12 {fill:#FFD064}
    .fil24 {fill:white}
    .fil18 {fill:#00A0E3;fill-rule:nonzero}
    .fil23 {fill:#2B2A29;fill-rule:nonzero}
    .fil15 {fill:#B2B3B3;fill-rule:nonzero}
    .fil17 {fill:#2B2B2B;fill-rule:nonzero}
    .fil14 {fill:#59342F;fill-rule:nonzero}
    .fil20 {fill:#E2E2E2;fill-rule:nonzero}
    .fil21 {fill:#F78967;fill-rule:nonzero}
    .fil22 {fill:#FFA377;fill-rule:nonzero}
    .fil13 {fill:#FFAF82;fill-rule:nonzero}
    .fil19 {fill:white;fill-rule:nonzero}
   ]]>
  </style>
   <clipPath id="id0">
    <path d="M749 0c413,0 749,335 749,749 0,413 -335,749 -749,749 -413,0 -749,-335 -749,-749 0,-413 335,-749 749,-749z"/>
   </clipPath>
 </defs>
 <g id="Layer_x0020_1">
  <metadata id="CorelCorpID_0Corel-Layer"/>
  <path class="fil0" d="M749 0c413,0 749,335 749,749 0,413 -335,749 -749,749 -413,0 -749,-335 -749,-749 0,-413 335,-749 749,-749z"/>
  <g style="clip-path:url(#id0)">
   <g id="_1505159472">
    <rect class="fil0 str0" x="-233" y="1024" width="2006" height="516"/>
    <rect class="fil1 str1" x="-233" y="-139" width="2006" height="1163"/>
    <g>
     <path class="fil2" d="M760 534l162 162c6,6 14,9 22,9l230 0 0 430 -838 0 0 -430 230 0c8,0 16,-3 22,-9l162 -162c3,-3 8,-3 10,0z"/>
     <path class="fil3" d="M944 705c-8,0 -16,-3 -22,-9l-162 -162c-3,-3 -8,-3 -10,0l-162 162c-6,6 -14,9 -22,9l-230 0 0 41 230 0c19,0 37,-8 51,-21l125 -125c7,-7 19,-7 26,0l125 125c14,14 32,21 51,21l170 0c10,0 19,8 19,19l0 371 41 0 0 -430 -230 0z"/>
     <path class="fil4" d="M733 462c12,-12 32,-12 45,0l180 180 217 0 -87 -235c-5,-15 -19,-24 -35,-24l-593 0c-15,0 -29,10 -35,24l-87 235 217 0 180 -180z"/>
     <path class="fil5" d="M1087 407c-5,-15 -19,-24 -35,-24l-56 0c15,0 29,10 35,24l87 235 56 0 -87 -235z"/>
     <path class="fil6" d="M1211 686c0,10 -8,19 -19,19l-248 0c-8,0 -16,-3 -22,-9l-162 -162c-3,-3 -8,-3 -10,0l-162 162c-6,6 -14,9 -22,9l-248 0c-10,0 -19,-8 -19,-19l0 -26c0,-10 8,-19 19,-19l235 0 180 -180c12,-12 32,-12 45,0l180 180 235 0c10,0 19,8 19,19l0 26z"/>
     <path class="fil7" d="M1192 642l-63 0c10,0 19,8 19,19l0 26c0,10 -8,19 -19,19l63 0c10,0 19,-8 19,-19l0 -26c0,-10 -8,-19 -19,-19z"/>
     <path class="fil8" d="M928 860l0 167 185 0 0 -167c0,-10 -8,-18 -18,-18l-149 0c-10,0 -18,8 -18,18z"/>
     <path class="fil9" d="M928 1027l0 41c0,10 8,18 18,18l149 0c10,0 18,-8 18,-18l0 -41 -185 0z"/>
     <path class="fil8" d="M583 860l0 167 -185 0 0 -167c0,-10 8,-18 18,-18l149 0c10,0 18,8 18,18z"/>
     <path class="fil9" d="M583 1027l0 41c0,10 -8,18 -18,18l-149 0c-10,0 -18,-8 -18,-18l0 -41 185 0z"/>
     <path class="fil10" d="M859 860l0 274 -208 0 0 -114 9 -14 -9 -14 0 -133c0,-10 8,-18 18,-18l171 0c10,0 18,8 18,18z"/>
     <path class="fil8" d="M711 949l0 -37c0,-6 5,-11 11,-11l67 0c6,0 11,5 11,11l0 37c0,6 -5,11 -11,11l-67 0c-6,0 -11,-5 -11,-11z"/>
     <path class="fil8" d="M815 714c0,33 -27,59 -59,59 -33,0 -59,-27 -59,-59 0,-33 27,-59 59,-59 33,0 59,27 59,59z"/>
     <path class="fil4" d="M1193 1198l-875 0c-10,0 -18,-8 -18,-18l0 -26c0,-10 8,-18 18,-18l875 0c10,0 18,8 18,18l0 26c0,10 -8,18 -18,18z"/>
     <path class="fil5" d="M1148 1135l0 63 45 0c10,0 18,-8 18,-18l0 -26c0,-10 -8,-18 -18,-18l-45 0z"/>
     <polygon class="fil11" points="1113,921 1034,921 1034,842 1006,842 1006,921 928,921 928,948 1006,948 1006,1027 1034,1027 1034,948 1113,948 "/>
     <polygon class="fil11" points="583,921 504,921 504,842 476,842 476,921 398,921 398,948 476,948 476,1027 504,1027 504,948 583,948 "/>
     <path class="fil12" d="M651 993l33 0c8,0 14,6 14,14 0,8 -6,14 -14,14l-33 0 0 -28z"/>
    </g>
    <g>
     <g>
      <polygon class="fil13" points="1050,2151 1045,2026 1088,2026 1086,2149 "/>
      <g>
       <g>
        <path class="fil14" d="M1075 2144c0,0 -5,-16 7,-24 12,-8 19,-5 19,5 1,10 1,16 1,16l-27 3z"/>
        <path class="fil14" d="M1095 2134c0,0 28,20 51,19 0,0 38,1 36,34l-155 0c0,0 -9,-28 8,-50 0,0 -9,-29 13,-26l1 17c0,0 3,7 11,4 9,-3 20,-3 35,2z"/>
       </g>
       <polygon class="fil15" points="1181,2205 1026,2205 1026,2187 1181,2187 "/>
       <path class="fil16 str2" d="M1082 2150c0,0 9,-12 22,-10"/>
       <path class="fil16 str2" d="M1093 2156c0,0 9,-12 22,-10"/>
       <path class="fil16 str2" d="M1105 2159c0,0 9,-12 22,-10"/>
       <path class="fil16 str3" d="M1028 2152c0,0 37,5 39,35"/>
       <path class="fil16 str3" d="M1143 2153c0,0 -24,-1 -23,33"/>
      </g>
     </g>
     <g>
      <polygon class="fil13" points="949,2151 953,2026 910,2026 912,2149 "/>
      <g>
       <g>
        <path class="fil14" d="M923 2144c0,0 5,-16 -7,-24 -12,-8 -19,-5 -19,5 -1,10 -1,16 -1,16l27 3z"/>
        <path class="fil14" d="M903 2134c0,0 -28,20 -51,19 0,0 -38,1 -36,34l155 0c0,0 9,-28 -8,-50 0,0 9,-29 -13,-26l-1 17c0,0 -3,7 -11,4 -9,-3 -20,-3 -35,2z"/>
       </g>
       <polygon class="fil15" points="817,2205 972,2205 972,2187 817,2187 "/>
       <path class="fil16 str2" d="M916 2150c0,0 -9,-12 -22,-10"/>
       <path class="fil16 str2" d="M905 2156c0,0 -9,-12 -22,-10"/>
       <path class="fil16 str2" d="M893 2159c0,0 -9,-12 -22,-10"/>
       <path class="fil16 str3" d="M970 2152c0,0 -37,5 -39,35"/>
       <path class="fil16 str3" d="M855 2153c0,0 24,-1 23,33"/>
      </g>
     </g>
     <path class="fil17" d="M887 1534c-3,-51 7,-89 8,-88 81,-5 211,-8 211,-8 0,0 0,1 1,1 0,0 13,46 5,82 -79,48 -154,58 -226,13z"/>
     <path class="fil17" d="M887 1509c0,0 -1,236 7,295l7 309 60 -6c1,-142 18,-214 10,-305l29 -276c0,0 -52,-18 -113,-16z"/>
     <g>
      <g>
       <path class="fil18" d="M1117 1458c-23,12 -44,21 -65,26 -16,4 -32,6 -49,6 -15,0 -29,-1 -43,-5 -23,-5 -45,-14 -70,-27l9 -195 -1 -227 58 -16 17 -5c10,-3 19,-4 29,-4 10,0 20,1 29,4l20 5 56 15 -1 227 11 195z"/>
      </g>
     </g>
     <g>
      <path class="fil19" d="M1052 1020l0 463c-16,4 -32,6 -49,6 -15,0 -29,-1 -43,-5l0 -12 0 -12 0 -28 0 -12 0 -28 0 -12 0 -28 0 -12 0 -28 0 -12 0 -28 0 -12 0 -28 0 -12 0 -28 0 -12 0 -28 0 -12 0 -28 0 -12 0 -28 0 -12 0 -28 0 -12 0 -1 17 -5c10,-3 19,-4 29,-4 10,0 20,1 29,4l19 5 0 0z"/>
      <g>
       <g>
        <path class="fil20" d="M1052 1033l0 12c-17,3 -33,4 -48,4 -18,0 -35,-2 -47,-3l0 -12c22,3 58,6 95,0l0 0z"/>
       </g>
       <g>
        <path class="fil20" d="M1052 1066l0 12c-16,3 -32,4 -47,4 -19,0 -35,-2 -48,-4l0 -12c22,3 58,6 95,0z"/>
       </g>
       <g>
        <path class="fil20" d="M1052 1101l0 12c-16,3 -32,4 -46,4 -19,0 -35,-2 -48,-4l0 -12c22,3 58,7 95,0z"/>
       </g>
       <g>
        <path class="fil20" d="M1052 1141l0 12c-16,3 -32,4 -46,4 -19,0 -36,-2 -48,-4l0 -12c22,4 58,7 94,0z"/>
       </g>
       <g>
        <path class="fil20" d="M1052 1181l0 12c-16,3 -31,4 -45,4 -19,0 -36,-2 -49,-4l0 -12c22,4 57,7 94,0z"/>
       </g>
       <g>
        <path class="fil20" d="M1052 1221l0 12c-16,3 -31,4 -45,4 -19,0 -36,-2 -49,-4l0 -12c22,4 57,7 94,0z"/>
       </g>
       <g>
        <path class="fil20" d="M1052 1261l0 12c-15,3 -30,4 -44,4 -19,0 -36,-2 -49,-4l0 -12c22,4 57,8 93,0z"/>
       </g>
       <g>
        <path class="fil20" d="M1052 1302l0 12c-15,3 -30,4 -44,4 -19,0 -36,-2 -49,-5l0 -12c22,4 57,8 93,1z"/>
       </g>
       <g>
        <path class="fil20" d="M1052 1342l0 12c-15,3 -30,4 -43,4 -19,0 -36,-2 -49,-5l0 -12c22,4 56,8 93,1z"/>
       </g>
       <g>
        <path class="fil20" d="M1052 1382l0 12c-15,3 -30,4 -43,4 -19,0 -36,-2 -49,-5l0 -12c22,4 56,8 92,1z"/>
       </g>
       <g>
        <path class="fil20" d="M1052 1422l0 12c-15,3 -29,4 -43,4 -19,0 -36,-2 -49,-5l0 -12c22,5 56,9 92,1z"/>
       </g>
       <g>
        <path class="fil20" d="M1052 1462l0 12c-15,3 -29,4 -42,4 -19,0 -36,-2 -49,-5l0 -12c22,5 56,9 92,1z"/>
       </g>
      </g>
     </g>
     <g>
      <g>
       <path class="fil13" d="M826 1457c0,0 4,15 9,26 5,11 2,19 5,29 3,10 -9,9 -11,-1 -2,-10 -1,-15 -3,-15 -2,0 -8,25 -9,32 -1,7 1,25 -2,28 -3,3 -9,-7 -7,-26 2,-19 1,-18 1,-18 0,0 -2,7 -4,15 -2,8 -2,17 -2,23 0,5 -5,8 -7,5 -2,-3 -4,-21 -2,-29 2,-7 5,-20 5,-20 0,0 -7,17 -8,21 -1,4 1,21 -3,24 -2,1 -7,0 -6,-24 0,0 2,-11 4,-18 0,0 -4,5 -6,12 -2,6 -3,13 -3,19 -1,6 -6,5 -6,-6 0,-11 2,-23 5,-29 3,-6 8,-41 17,-53l33 7z"/>
      </g>
     </g>
     <g>
      <path class="fil18" d="M931 1086c0,0 -27,124 -49,166 0,0 -12,60 -55,208 0,0 -22,9 -35,-8 0,0 21,-162 33,-214 0,0 56,-179 75,-202 0,0 29,12 32,51z"/>
     </g>
     <g>
      <g>
       <path class="fil13" d="M1182 1457c0,0 -4,15 -9,26 -5,11 -2,19 -5,29 -3,10 9,9 11,-1 2,-10 1,-15 3,-15 2,0 8,25 9,32 1,7 -1,25 2,28 3,3 9,-7 7,-26 -2,-19 -1,-18 -1,-18 0,0 2,7 4,15 2,8 2,17 2,23 0,5 5,8 7,5 2,-3 4,-21 2,-29 -2,-7 -5,-20 -5,-20 0,0 7,17 8,21 1,4 -1,21 3,24 2,1 7,0 6,-24 0,0 -2,-11 -4,-18 0,0 4,5 6,12 2,6 3,13 3,19 1,6 6,5 6,-6 0,-11 -2,-23 -5,-29 -3,-6 -8,-41 -17,-53l-33 7z"/>
      </g>
     </g>
     <g>
      <path class="fil18" d="M1077 1086c0,0 27,124 49,166 0,0 12,60 55,208 0,0 22,9 35,-8 0,0 -21,-162 -33,-214 0,0 -56,-179 -75,-202 0,0 -29,12 -32,51z"/>
     </g>
     <g>
      <g>
       <path class="fil13" d="M1034 982l-1 19 -1 24c0,0 -5,9 -26,9 -21,0 -26,-6 -26,-6l-1 -11 -3 -35 57 0z"/>
      </g>
      <g>
       <path class="fil21" d="M1034 982l-1 19c-9,7 -30,20 -54,16l-3 -35 57 0z"/>
      </g>
     </g>
     <g>
      <g>
       <path class="fil22" d="M940 897c0,0 -16,-16 -29,-6 -15,12 1,56 28,52l1 -46z"/>
      </g>
     </g>
     <g>
      <g>
       <path class="fil22" d="M1064 897c0,0 16,-16 29,-6 15,12 -1,56 -28,52l-1 -46z"/>
      </g>
     </g>
     <path class="fil13" d="M1003 1001c-56,0 -73,-67 -79,-116 -5,-45 30,-85 75,-85 1,0 1,0 2,0 1,0 2,0 2,0 45,1 80,39 76,84 -4,49 -20,117 -77,117z"/>
     <path class="fil23" d="M1076 752c28,19 3,57 3,57 0,0 28,28 -1,93l-5 -1c3,-21 1,-46 0,-50 -4,-12 -25,-18 -24,-31 0,0 -64,20 -99,0 0,0 -3,17 -12,27 -8,9 -3,39 -2,52l-5 1c-3,-13 -11,-38 -12,-45 -1,-4 -2,-22 -3,-35 -1,-11 1,-22 6,-32 3,-6 7,-11 12,-15 19,-14 117,-39 143,-21z"/>
     <g>
      <g>
       <path class="fil24" d="M986 902c0,0 -5,-12 -17,-13 -12,-1 -19,9 -19,9 0,0 3,11 18,11 15,1 18,-7 18,-7z"/>
       <path class="fil25" d="M956 899c0,3 1,6 3,9 2,1 5,2 8,2 3,0 6,0 8,-1 3,-2 5,-5 5,-9 0,-3 -1,-6 -3,-8 -2,-1 -5,-2 -8,-2 -4,0 -7,1 -10,2 -2,2 -3,5 -3,8z"/>
       <path class="fil25" d="M986 902c0,0 -1,-3 -4,-7 -3,-3 -7,-7 -14,-7l0 0c-13,0 -19,9 -20,9l0 1 1 0 0 0c1,-2 8,-8 18,-8l0 0c6,0 10,3 13,6 1,2 2,3 3,4 0,1 1,1 1,1l0 1c0,0 1,1 1,0 0,0 1,-1 0,-1z"/>
      </g>
      <g>
       <path class="fil24" d="M1054 902c0,0 -5,-12 -17,-13 -12,-1 -19,9 -19,9 0,0 3,11 18,11 15,1 18,-7 18,-7z"/>
       <path class="fil25" d="M1024 899c0,3 1,6 3,9 2,1 5,2 8,2 3,0 6,0 8,-1 3,-2 5,-5 5,-9 0,-3 -1,-6 -3,-8 -2,-1 -5,-2 -8,-2 -4,0 -7,1 -10,2 -2,2 -3,5 -3,8z"/>
       <path class="fil25" d="M1055 902c0,0 -1,-3 -4,-7 -3,-3 -7,-7 -14,-7l0 0c-13,0 -19,9 -20,9l0 1 1 0 0 0c1,-2 8,-8 18,-8l0 0c6,0 10,3 13,6 1,2 2,3 3,4 0,1 1,1 1,1l0 1c0,0 1,1 1,0 0,0 1,-1 0,-1z"/>
      </g>
     </g>
     <g>
      <path class="fil25" d="M966 865c0,0 -12,2 -18,5 -4,2 -4,6 1,8 4,1 13,0 18,0 13,-1 21,-6 20,-10 -1,-5 -14,-4 -21,-3z"/>
      <path class="fil25" d="M1039 865c0,0 11,2 17,5 3,2 3,6 -1,8 -4,1 -12,0 -17,0 -12,-1 -20,-6 -19,-10 1,-5 13,-4 20,-3z"/>
     </g>
     <path class="fil19" d="M983 955l37 0c0,0 -6,11 -20,11 -14,-1 -17,-11 -17,-11z"/>
     <g>
      <line class="fil16 str4" x1="995" y1="897" x2="995" y2= "933" />
      <path class="fil16 str4" d="M995 933c0,1 0,2 0,2 1,3 4,4 7,3"/>
      <line class="fil16 str4" x1="1002" y1="939" x2="1009" y2= "937" />
     </g>
     <path class="fil17" d="M1114 1509c0,0 1,236 -7,295l-7 309 -60 -6c-1,-142 -18,-214 -10,-305l-29 -276c0,0 52,-18 113,-16z"/>
    </g>
   </g>
  </g>
  <path class="fil26" d="M749 0c413,0 749,335 749,749 0,413 -335,749 -749,749 -413,0 -749,-335 -749,-749 0,-413 335,-749 749,-749z"/>
 </g>
</svg>
