<?xml version="1.0" encoding="UTF-8"?>
<!DOCTYPE svg PUBLIC "-//W3C//DTD SVG 1.1//EN" "http://www.w3.org/Graphics/SVG/1.1/DTD/svg11.dtd">
<!-- Creator: CorelDRAW X6 -->
<svg xmlns="http://www.w3.org/2000/svg" xml:space="preserve" width="50mm" height="50mm" version="1.1" style="shape-rendering:geometricPrecision; text-rendering:geometricPrecision; image-rendering:optimizeQuality; fill-rule:evenodd; clip-rule:evenodd"
viewBox="0 0 5907 5907"
 xmlns:xlink="http://www.w3.org/1999/xlink">
 <defs>
  <style type="text/css">
   <![CDATA[
    .str5 {stroke:#D16664;stroke-width:15.524;stroke-linecap:round;stroke-linejoin:round}
    .str4 {stroke:#D16664;stroke-width:20.7105;stroke-linecap:round;stroke-linejoin:round}
    .str0 {stroke:#898989;stroke-width:23.6286}
    .str1 {stroke:#8FC8D1;stroke-width:23.6286}
    .str3 {stroke:#321A17;stroke-width:31.2606;stroke-linecap:round;stroke-linejoin:round}
    .str2 {stroke:white;stroke-width:41.6808;stroke-linecap:round;stroke-linejoin:round}
    .fil3 {fill:none}
    .fil8 {fill:none;fill-rule:nonzero}
    .fil15 {fill:#727271}
    .fil1 {fill:#898989}
    .fil0 {fill:#B0CB1F}
    .fil14 {fill:black}
    .fil2 {fill:#8FC8D1}
    .fil13 {fill:white}
    .fil10 {fill:#00A0E3;fill-rule:nonzero}
    .fil16 {fill:#727271;fill-rule:nonzero}
    .fil7 {fill:#B2B3B3;fill-rule:nonzero}
    .fil4 {fill:#FEFEFE;fill-rule:nonzero}
    .fil17 {fill:black;fill-rule:nonzero}
    .fil9 {fill:#2B2B2B;fill-rule:nonzero}
    .fil6 {fill:#59342F;fill-rule:nonzero}
    .fil11 {fill:#F78967;fill-rule:nonzero}
    .fil12 {fill:#FFA377;fill-rule:nonzero}
    .fil5 {fill:#FFAF82;fill-rule:nonzero}
   ]]>
  </style>
    <clipPath id="id0">
     <path d="M2954 0c1631,0 2954,1322 2954,2954 0,1631 -1322,2954 -2954,2954 -1631,0 -2954,-1322 -2954,-2954 0,-1631 1322,-2954 2954,-2954z"/>
    </clipPath>
    <clipPath id="id1">
     <rect x="712" y="2339" width="4484" height="2428"/>
    </clipPath>
 </defs>
 <g id="Layer_x0020_1">
  <metadata id="CorelCorpID_0Corel-Layer"/>
  <g id="_1771186272">
   <path class="fil0" d="M2954 0c1631,0 2954,1322 2954,2954 0,1631 -1322,2954 -2954,2954 -1631,0 -2954,-1322 -2954,-2954 0,-1631 1322,-2954 2954,-2954z"/>
   <g style="clip-path:url(#id0)">
    <g>
     <rect class="fil1 str0" x="-920" y="4040" width="7915" height="2038"/>
     <rect class="fil2 str1" x="-920" y="-549" width="7915" height="4589"/>
    </g>
   </g>
   <path class="fil3" d="M2954 0c1631,0 2954,1322 2954,2954 0,1631 -1322,2954 -2954,2954 -1631,0 -2954,-1322 -2954,-2954 0,-1631 1322,-2954 2954,-2954z"/>
   <path class="fil4" d="M982 1210c61,5 127,24 169,-20 83,-88 109,-131 124,-134 59,-14 103,-79 162,-64 38,9 71,38 111,38 107,-2 119,-197 226,-205 60,-4 115,60 173,43 31,-9 51,-39 73,-64 53,-58 135,-87 212,-76 77,11 148,62 183,132 20,39 28,83 51,121 23,37 67,68 109,54 33,-11 54,-46 88,-53 42,-9 78,29 101,65 23,36 46,79 87,89 30,7 60,-4 90,-11 131,-27 258,55 367,132 -40,-3 -80,-8 -120,-8l-2303 0c71,-41 -16,-47 99,-37z"/>
   <g style="clip-path:url(#id1)">
    <image x="712" y="2339" width="4484" height="2428" xlink:href="Man 3 - Bike_Images\Man 3 - Bike_ImgID1.png"/>
   </g>
   <g>
    <g>
     <polygon class="fil5" points="2824,4636 2835,4323 2727,4323 2732,4631 "/>
     <g>
      <g>
       <path class="fil6" d="M2760 4617c0,0 14,-41 -17,-60 -31,-19 -46,-11 -49,14 -2,25 -3,40 -3,40l69 6z"/>
       <path class="fil6" d="M2711 4592c0,0 -71,49 -127,48 0,0 -96,2 -90,86l387 0c0,0 23,-70 -21,-126 0,0 23,-74 -33,-66l-1 42c0,0 -7,17 -29,10 -22,-6 -51,-7 -87,6z"/>
      </g>
      <polygon class="fil7" points="2494,4770 2882,4770 2882,4726 2494,4726 "/>
      <path class="fil8 str2" d="M2743 4632c0,0 -22,-31 -55,-26"/>
      <path class="fil8 str2" d="M2715 4647c0,0 -22,-31 -55,-26"/>
      <path class="fil8 str2" d="M2684 4656c0,0 -22,-31 -55,-26"/>
      <path class="fil8 str3" d="M2878 4637c0,0 -92,12 -97,88"/>
      <path class="fil8 str3" d="M2590 4642c0,0 59,-2 57,81"/>
     </g>
    </g>
    <g>
     <polygon class="fil5" points="3091,4636 3080,4323 3188,4323 3183,4631 "/>
     <g>
      <g>
       <path class="fil6" d="M3154 4617c0,0 -14,-41 17,-60 31,-19 46,-11 49,14 2,25 3,40 3,40l-69 6z"/>
       <path class="fil6" d="M3204 4592c0,0 71,49 127,48 0,0 96,2 90,86l-387 0c0,0 -23,-70 21,-126 0,0 -23,-74 33,-66l1 42c0,0 7,17 29,10 22,-6 51,-7 87,6z"/>
      </g>
      <polygon class="fil7" points="3421,4770 3033,4770 3033,4726 3421,4726 "/>
      <path class="fil8 str2" d="M3172 4632c0,0 22,-31 55,-26"/>
      <path class="fil8 str2" d="M3200 4647c0,0 22,-31 55,-26"/>
      <path class="fil8 str2" d="M3231 4656c0,0 22,-31 55,-26"/>
      <path class="fil8 str3" d="M3037 4637c0,0 92,12 97,88"/>
      <path class="fil8 str3" d="M3324 4642c0,0 -59,-2 -57,81"/>
     </g>
    </g>
    <g>
     <path class="fil9" d="M2673 3089c-7,-129 18,-223 21,-222 203,-13 530,-21 530,-21 0,1 1,2 1,4 0,0 33,114 14,206 -198,121 -385,146 -565,33z"/>
     <path class="fil9" d="M2673 3027c0,0 -2,592 17,738l19 774 151 -15c3,-355 45,-536 24,-764l73 -693c0,0 -131,-46 -283,-41z"/>
     <path class="fil9" d="M3243 3027c0,0 2,592 -17,738l-19 774 -151 -15c-3,-355 -45,-536 -24,-764l-73 -693c0,0 131,-46 283,-41z"/>
    </g>
    <g>
     <g>
      <path class="fil10" d="M3265 3027c-62,33 -119,58 -177,73 -43,11 -87,17 -132,17 -40,0 -78,-4 -116,-13 -62,-14 -122,-40 -189,-77l25 -546 -3 -636 156 -43 47 -13c26,-7 53,-11 79,-11 27,0 53,4 79,11l53 15 151 42 -3 636 29 546z"/>
     </g>
    </g>
    <g>
     <g>
      <path class="fil5" d="M2488 2904c0,0 11,37 24,64 12,27 4,48 11,72 7,24 -22,23 -27,-3 -6,-26 -3,-38 -9,-39 -5,-1 -21,62 -23,79 -2,18 1,63 -5,70 -7,7 -23,-18 -18,-65 5,-47 1,-46 1,-46 0,0 -4,18 -9,38 -5,19 -5,43 -4,57 1,13 -13,20 -17,13 -4,-7 -10,-54 -5,-72 5,-18 12,-49 12,-49 0,0 -18,42 -21,53 -3,11 2,52 -7,59 -4,3 -16,-1 -14,-60 0,0 4,-29 10,-46 0,0 -10,13 -14,31 -4,16 -6,32 -8,48 -1,16 -15,14 -15,-14 0,-28 5,-59 13,-74 8,-15 19,-102 43,-134l82 17z"/>
     </g>
    </g>
    <g>
     <g>
      <path class="fil5" d="M3420 2904c0,0 -11,37 -24,64 -12,27 -4,48 -11,72 -7,24 22,23 27,-3 6,-26 3,-38 9,-39 5,-1 21,62 23,79 2,18 -1,63 5,70 7,7 23,-18 18,-65 -5,-47 -1,-46 -1,-46 0,0 4,18 9,38 5,19 5,43 4,57 -1,13 13,20 17,13 4,-7 10,-54 5,-72 -5,-18 -12,-49 -12,-49 0,0 18,42 21,53 3,11 -2,52 7,59 4,3 16,-1 14,-60 0,0 -4,-29 -10,-46 0,0 10,13 14,31 4,16 6,32 8,48 1,16 15,14 15,-14 0,-28 -5,-59 -13,-74 -8,-15 -19,-102 -43,-134l-82 17z"/>
     </g>
    </g>
    <g>
     <path class="fil10" d="M2753 1972c0,0 -67,310 -123,417 0,0 -31,151 -138,521 0,0 -56,22 -89,-20 0,0 52,-407 83,-537 0,0 140,-449 187,-507 0,0 72,29 80,127z"/>
    </g>
    <g>
     <path class="fil10" d="M3159 1972c0,0 67,310 123,417 0,0 31,151 138,521 0,0 56,22 89,-20 0,0 -52,-407 -83,-537 0,0 -140,-449 -187,-507 0,0 -72,29 -80,127z"/>
    </g>
    <g>
     <g>
      <path class="fil5" d="M3030 1706l-3 63 -3 80c0,0 -12,30 -65,30 -53,0 -64,-20 -64,-20l-2 -35 -7 -117 144 0z"/>
     </g>
     <g>
      <path class="fil11" d="M3030 1706l-3 63c-22,22 -75,66 -134,54l-7 -117 144 0z"/>
     </g>
    </g>
    <g>
     <g>
      <path class="fil12" d="M2795 1490c0,0 -41,-40 -73,-14 -38,31 2,141 70,130l3 -116z"/>
     </g>
    </g>
    <g>
     <g>
      <path class="fil12" d="M3106 1490c0,0 41,-40 73,-14 38,31 -2,141 -70,130l-3 -116z"/>
     </g>
    </g>
    <path class="fil5" d="M2953 1752c-155,0 -202,-189 -217,-328 -13,-128 83,-240 208,-242 2,0 3,0 5,0 2,0 4,0 6,0 123,2 219,111 208,238 -12,140 -56,332 -211,332z"/>
    <g>
     <path class="fil13" d="M2912 1505c0,0 -12,-31 -42,-33 -30,-1 -48,22 -48,22 0,0 8,27 44,28 37,2 46,-18 46,-18z"/>
     <path class="fil14" d="M2837 1496c0,8 3,16 8,22 6,2 12,4 21,5 7,0 14,0 19,-1 7,-5 11,-13 12,-22 0,-8 -2,-16 -7,-21 -5,-3 -12,-5 -20,-6 -9,0 -17,2 -24,5 -5,5 -8,12 -9,20z"/>
     <path class="fil14" d="M2914 1504c0,0 -3,-8 -10,-17 -7,-8 -18,-17 -34,-17l-1 0c-32,0 -49,23 -49,23l0 3 3 0 1 -1c3,-4 19,-21 45,-21l1 0c15,0 25,8 31,16 3,4 6,8 7,11 1,1 1,3 2,4l1 1c0,1 1,1 2,1 1,0 1,-1 1,-2z"/>
    </g>
    <g>
     <path class="fil13" d="M3079 1505c0,0 -12,-31 -42,-33 -30,-1 -48,22 -48,22 0,0 8,27 44,28 37,2 46,-18 46,-18z"/>
     <path class="fil14" d="M3004 1496c0,8 3,16 8,22 6,2 12,4 21,5 7,0 14,0 19,-1 7,-5 11,-13 12,-22 0,-8 -2,-16 -7,-21 -5,-3 -12,-5 -20,-6 -9,0 -17,2 -24,5 -5,5 -8,12 -9,20z"/>
     <path class="fil14" d="M3081 1504c0,0 -3,-8 -10,-17 -7,-8 -18,-17 -34,-17l-1 0c-32,0 -49,23 -49,23l0 3 3 0 1 -1c3,-4 19,-21 45,-21l1 0c15,0 25,8 31,16 3,4 6,8 7,11 1,1 1,3 2,4l1 1c0,1 1,1 2,1 1,0 1,-1 1,-2z"/>
    </g>
    <path class="fil15" d="M2847 1413c0,0 -30,4 -45,13 -9,6 -9,16 2,20 10,3 32,1 45,0 31,-4 52,-15 50,-25 -3,-13 -35,-10 -52,-8z"/>
    <path class="fil15" d="M3064 1413c0,0 29,4 43,13 9,6 8,16 -2,20 -9,3 -30,1 -42,0 -30,-4 -49,-15 -48,-25 2,-13 33,-10 49,-8z"/>
    <g>
     <line class="fil8 str4" x1="2943" y1="1492" x2="2943" y2= "1583" />
     <path class="fil8 str4" d="M2943 1583c0,2 0,4 1,6 3,7 11,10 18,8"/>
     <line class="fil8 str4" x1="2962" y1="1597" x2="2978" y2= "1593" />
    </g>
    <path class="fil16" d="M2768 1554c0,0 -61,-142 -47,-258 0,0 29,-118 112,-118 0,0 51,-73 104,-23 0,0 89,-51 129,22 0,0 78,-8 96,74 0,0 49,23 14,173 0,0 -29,82 -34,115 0,0 -6,-75 2,-122 0,0 18,-94 -29,-128 0,0 -36,-38 -103,5 0,0 -52,45 -107,0 -55,-45 -85,-32 -113,1 0,0 -38,36 -26,92 0,0 12,116 2,167z"/>
    <line class="fil8 str4" x1="2901" y1="1647" x2="3002" y2= "1647" />
    <path class="fil8 str5" d="M2928 1677c0,0 21,7 48,0"/>
    <path class="fil17" d="M3097 1499c-6,0 -12,-1 -18,-1 -29,-1 -58,-2 -87,4 -9,2 -17,3 -25,7 -12,5 -23,5 -35,0 -3,-2 -7,-3 -10,-3 -27,-6 -53,-9 -80,-8 -13,1 -25,1 -38,2 -6,0 -7,2 -6,8 1,8 2,16 2,24 0,4 1,7 4,9 2,1 3,3 4,5 3,4 5,9 8,13 2,2 4,4 6,5 3,2 6,3 9,3 24,5 47,6 71,5 13,-1 22,-7 27,-21 2,-6 4,-11 6,-17 2,-4 4,-6 8,-6 3,0 5,0 8,0 8,0 9,1 12,9 2,6 5,12 7,19 4,10 11,15 21,16 24,3 47,1 71,-3 11,-2 20,-7 25,-19 2,-4 4,-7 7,-10 3,-2 4,-5 4,-8 0,-1 0,-3 0,-4 1,-8 2,-15 2,-23 0,-4 -1,-5 -5,-6zm-168 27l0 0c-1,13 -5,24 -12,34 -4,5 -9,6 -14,7 -23,2 -45,1 -67,-5 -11,-3 -18,-10 -20,-22 -1,-7 -3,-15 -3,-22 0,-6 3,-10 9,-10 12,-1 21,-3 35,-3 14,0 40,2 60,7 2,0 3,1 4,1 7,3 9,5 8,13zm151 27l0 0c-1,2 -4,4 -7,6 -9,5 -19,7 -28,8 -14,1 -28,1 -42,1 -15,1 -22,-8 -27,-22 -3,-8 -4,-15 -4,-24 0,-5 3,-7 7,-9 13,-5 26,-6 39,-8 9,-1 18,-1 30,-2 8,1 20,1 31,3 7,1 9,4 9,12 0,12 -3,23 -8,34z"/>
   </g>
  </g>
 </g>
</svg>
