<?xml version="1.0" encoding="UTF-8"?>
<!DOCTYPE svg PUBLIC "-//W3C//DTD SVG 1.1//EN" "http://www.w3.org/Graphics/SVG/1.1/DTD/svg11.dtd">
<!-- Creator: CorelDRAW X6 -->
<svg xmlns="http://www.w3.org/2000/svg" xml:space="preserve" width="50mm" height="50mm" version="1.1" style="shape-rendering:geometricPrecision; text-rendering:geometricPrecision; image-rendering:optimizeQuality; fill-rule:evenodd; clip-rule:evenodd"
viewBox="0 0 5907 5907"
 xmlns:xlink="http://www.w3.org/1999/xlink">
 <defs>
  <style type="text/css">
   <![CDATA[
    .str4 {stroke:#EBECEC;stroke-width:9.0025}
    .str7 {stroke:black;stroke-width:20.6868;stroke-linecap:round;stroke-linejoin:round}
    .str5 {stroke:#D16664;stroke-width:20.7105;stroke-linecap:round;stroke-linejoin:round}
    .str0 {stroke:#898989;stroke-width:23.6286}
    .str1 {stroke:#8FC8D1;stroke-width:23.6286}
    .str6 {stroke:#005E99;stroke-width:29.9492}
    .str3 {stroke:#321A17;stroke-width:31.2606;stroke-linecap:round;stroke-linejoin:round}
    .str2 {stroke:white;stroke-width:41.6808;stroke-linecap:round;stroke-linejoin:round}
    .fil3 {fill:none}
    .fil7 {fill:none;fill-rule:nonzero}
    .fil1 {fill:#898989}
    .fil0 {fill:#B0CB1F}
    .fil14 {fill:black}
    .fil2 {fill:#8FC8D1}
    .fil13 {fill:white}
    .fil9 {fill:#00A0E3;fill-rule:nonzero}
    .fil5 {fill:#B2B3B3;fill-rule:nonzero}
    .fil4 {fill:#FEFEFE;fill-rule:nonzero}
    .fil16 {fill:#005E99;fill-rule:nonzero}
    .fil15 {fill:#1F0F0A;fill-rule:nonzero}
    .fil8 {fill:#2B2B2B;fill-rule:nonzero}
    .fil6 {fill:#59342F;fill-rule:nonzero}
    .fil11 {fill:#F78967;fill-rule:nonzero}
    .fil12 {fill:#FFA377;fill-rule:nonzero}
    .fil10 {fill:#FFAF82;fill-rule:nonzero}
   ]]>
  </style>
    <clipPath id="id0">
     <path d="M2954 0c1631,0 2954,1322 2954,2954 0,1631 -1322,2954 -2954,2954 -1631,0 -2954,-1322 -2954,-2954 0,-1631 1322,-2954 2954,-2954z"/>
    </clipPath>
    <clipPath id="id1">
     <rect x="712" y="2339" width="4484" height="2428"/>
    </clipPath>
 </defs>
 <g id="Layer_x0020_1">
  <metadata id="CorelCorpID_0Corel-Layer"/>
  <g id="_1834616656">
   <path class="fil0" d="M2954 0c1631,0 2954,1322 2954,2954 0,1631 -1322,2954 -2954,2954 -1631,0 -2954,-1322 -2954,-2954 0,-1631 1322,-2954 2954,-2954z"/>
   <g style="clip-path:url(#id0)">
    <g>
     <rect class="fil1 str0" x="-920" y="4040" width="7915" height="2038"/>
     <rect class="fil2 str1" x="-920" y="-549" width="7915" height="4589"/>
    </g>
   </g>
   <path class="fil3" d="M2954 0c1631,0 2954,1322 2954,2954 0,1631 -1322,2954 -2954,2954 -1631,0 -2954,-1322 -2954,-2954 0,-1631 1322,-2954 2954,-2954z"/>
   <path class="fil4" d="M982 1210c61,5 127,24 169,-20 83,-88 109,-131 124,-134 59,-14 103,-79 162,-64 38,9 71,38 111,38 107,-2 119,-197 226,-205 60,-4 115,60 173,43 31,-9 51,-39 73,-64 53,-58 135,-87 212,-76 77,11 148,62 183,132 20,39 28,83 51,121 23,37 67,68 109,54 33,-11 54,-46 88,-53 42,-9 78,29 101,65 23,36 46,79 87,89 30,7 60,-4 90,-11 131,-27 258,55 367,132 -40,-3 -80,-8 -120,-8l-2303 0c71,-41 -16,-47 99,-37z"/>
   <g style="clip-path:url(#id1)">
    <image x="712" y="2339" width="4484" height="2428" xlink:href="Man 2 - Bike_Images\Man 2 - Bike_ImgID1.png"/>
   </g>
   <g>
    <g>
     <polygon class="fil5" points="3068,4636 3057,4322 3165,4322 3160,4631 "/>
     <g>
      <g>
       <path class="fil6" d="M3131 4617c0,0 -14,-41 17,-60 31,-19 46,-11 49,14 2,25 3,40 3,40l-69 6z"/>
       <path class="fil6" d="M3181 4592c0,0 71,50 127,49 0,0 96,2 90,86l-388 0c0,0 -23,-70 21,-126 0,0 -23,-74 33,-66l1 42c0,0 7,17 29,10 22,-6 51,-7 87,6z"/>
      </g>
      <polygon class="fil5" points="3398,4770 3010,4770 3010,4726 3398,4726 "/>
      <path class="fil7 str2" d="M3149 4631c0,0 22,-31 55,-26"/>
      <path class="fil7 str2" d="M3177 4647c0,0 22,-31 55,-26"/>
      <path class="fil7 str2" d="M3208 4656c0,0 22,-31 55,-26"/>
      <path class="fil7 str3" d="M3013 4637c0,0 92,12 97,88"/>
      <path class="fil7 str3" d="M3302 4641c0,0 -60,-2 -57,82"/>
     </g>
    </g>
    <polygon class="fil5 str4" points="2814,4636 2825,4322 2717,4322 2722,4631 "/>
    <path class="fil8" d="M2655 3086c-7,-129 18,-223 21,-222 204,-13 531,-21 531,-21 0,1 1,2 1,4 0,0 33,115 14,206 -198,122 -386,147 -566,33z"/>
    <path class="fil8" d="M2655 3024c0,0 -2,593 17,740l19 776 152 -15c3,-356 45,-537 24,-765l73 -694c0,0 -131,-46 -284,-41z"/>
    <path class="fil8" d="M3226 3024c0,0 2,593 -17,740l-19 776 -151 -15c-3,-356 -45,-537 -24,-765l-73 -694c0,0 131,-46 284,-41z"/>
    <g>
     <g>
      <path class="fil9" d="M3239 2894c-57,30 -111,52 -164,65 -40,10 -80,15 -123,15 -37,0 -73,-4 -108,-12 -57,-13 -113,-36 -176,-69l24 -490 -3 -571 145 -39 44 -12c24,-6 49,-10 73,-10 25,0 49,3 73,10l49 13 140 37 -3 571 27 490z"/>
     </g>
    </g>
    <g>
     <g>
      <path class="fil10" d="M2507 2893c0,0 11,37 24,64 12,27 4,48 11,72 7,24 -22,23 -27,-3 -6,-26 -3,-38 -9,-39 -5,-1 -21,62 -23,80 -2,18 1,63 -5,70 -7,7 -23,-18 -18,-65 5,-47 1,-46 1,-46 0,0 -4,18 -9,38 -5,20 -5,43 -4,57 1,13 -13,20 -17,13 -4,-7 -10,-54 -5,-72 5,-18 12,-49 12,-49 0,0 -18,42 -21,53 -3,11 2,52 -7,60 -4,3 -16,-1 -14,-60 0,0 4,-29 10,-46 0,0 -10,13 -14,31 -4,16 -6,32 -8,48 -1,16 -15,14 -15,-14 0,-28 5,-59 13,-74 8,-15 19,-102 43,-134l82 17z"/>
     </g>
    </g>
    <g>
     <path class="fil9" d="M2770 1960c0,0 -67,310 -123,418 0,0 -31,151 -138,522 0,0 -56,22 -89,-20 0,0 52,-407 83,-538 0,0 140,-450 187,-508 0,0 72,29 80,127z"/>
    </g>
    <g>
     <g>
      <path class="fil10" d="M3401 2893c0,0 -11,37 -24,64 -12,27 -4,48 -11,72 -7,24 22,23 27,-3 6,-26 3,-38 9,-39 5,-1 21,62 23,80 2,18 -1,63 5,70 7,7 23,-18 18,-65 -5,-47 -1,-46 -1,-46 0,0 4,18 9,38 5,20 5,43 4,57 -1,13 13,20 17,13 4,-7 10,-54 5,-72 -5,-18 -12,-49 -12,-49 0,0 18,42 21,53 3,11 -2,52 7,60 4,3 16,-1 14,-60 0,0 -4,-29 -10,-46 0,0 10,13 14,31 4,16 6,32 8,48 1,16 15,14 15,-14 0,-28 -5,-59 -13,-74 -8,-15 -19,-102 -43,-134l-82 17z"/>
     </g>
    </g>
    <g>
     <path class="fil9" d="M3137 1960c0,0 67,310 123,418 0,0 31,151 138,522 0,0 56,22 89,-20 0,0 -52,-407 -83,-538 0,0 -140,-450 -187,-508 0,0 -72,29 -80,127z"/>
    </g>
    <g>
     <g>
      <path class="fil10" d="M3029 1700l-3 64 -3 80c0,0 -12,30 -65,30 -53,0 -64,-20 -64,-20l-2 -35 -7 -117 144 0z"/>
     </g>
     <g>
      <path class="fil11" d="M3029 1700l-3 64c-22,22 -75,66 -135,54l-7 -117 144 0z"/>
     </g>
    </g>
    <g>
     <g>
      <path class="fil12" d="M2793 1485c0,0 -41,-40 -73,-14 -39,31 2,142 70,130l3 -116z"/>
     </g>
    </g>
    <g>
     <g>
      <path class="fil12" d="M3105 1485c0,0 41,-40 73,-14 39,31 -2,142 -70,130l-3 -116z"/>
     </g>
    </g>
    <path class="fil10" d="M2951 1747c-141,0 -185,-168 -198,-290 -12,-113 76,-213 190,-214 2,0 3,0 5,0 2,0 4,0 6,0 112,2 200,98 190,210 -11,124 -51,294 -192,294z"/>
    <g>
     <g>
      <path class="fil13" d="M2912 1499c0,0 -12,-31 -42,-33 -30,-1 -48,22 -48,22 0,0 8,27 44,28 37,2 46,-18 46,-18z"/>
      <path class="fil14" d="M2836 1490c0,8 3,16 8,22 6,2 13,4 21,5 7,0 14,0 19,-1 7,-5 11,-13 12,-22 0,-8 -2,-16 -7,-21 -5,-3 -12,-6 -20,-6 -9,0 -18,2 -24,5 -5,5 -8,12 -9,20z"/>
      <path class="fil14" d="M2913 1498c0,0 -3,-8 -10,-17 -7,-8 -18,-17 -34,-17l-1 0c-32,0 -49,23 -49,23l0 3 3 0 1 -1c3,-4 19,-21 45,-21l1 0c15,0 25,8 32,16 3,4 6,8 7,11 1,1 1,3 2,4l1 1c0,1 1,1 2,1 1,0 1,-1 1,-2z"/>
     </g>
     <g>
      <path class="fil13" d="M2985 1499c0,0 12,-31 42,-33 30,-1 48,22 48,22 0,0 -8,27 -44,28 -37,2 -46,-18 -46,-18z"/>
      <path class="fil14" d="M3061 1490c0,8 -3,16 -8,22 -6,2 -13,4 -21,5 -7,0 -14,0 -19,-1 -7,-5 -11,-13 -12,-22 0,-8 2,-16 7,-21 5,-3 12,-6 20,-6 9,0 17,2 24,5 5,5 8,12 9,20z"/>
      <path class="fil14" d="M2983 1498c0,0 3,-8 10,-17 7,-8 18,-17 34,-17l1 0c32,0 49,23 49,23l0 3 -3 0 -1 -1c-3,-4 -19,-21 -45,-21l-1 0c-15,0 -25,8 -32,16 -3,4 -6,8 -7,11 -1,1 -1,3 -2,4l-1 1c0,1 -1,1 -2,1 -1,0 -1,-1 -1,-2z"/>
     </g>
    </g>
    <g>
     <path class="fil14" d="M2858 1407c0,0 -30,4 -45,13 -9,6 -9,16 2,20 10,3 32,1 45,0 32,-4 52,-15 50,-25 -3,-13 -35,-11 -52,-8z"/>
     <path class="fil14" d="M3042 1407c0,0 29,4 43,13 9,6 8,16 -2,20 -10,3 -30,1 -42,0 -30,-4 -50,-15 -48,-25 2,-13 33,-11 49,-8z"/>
    </g>
    <g>
     <line class="fil7 str5" x1="2931" y1="1484" x2="2931" y2= "1575" />
     <path class="fil7 str5" d="M2931 1575c0,2 0,4 1,6 3,7 11,10 18,8"/>
     <line class="fil7 str5" x1="2950" y1="1590" x2="2966" y2= "1585" />
    </g>
    <path class="fil15" d="M2772 1542c-18,-64 -77,-263 -23,-313 0,0 8,-80 90,-37 49,-138 338,24 299,44 27,52 60,156 24,156 16,72 -22,80 -32,140 0,0 7,-96 -24,-132 0,0 25,-64 -22,-90 0,0 -29,-23 -56,-3 0,0 -89,23 -142,-2 0,0 -47,-23 -70,7 0,0 -32,28 -12,93 0,0 -37,8 -32,137z"/>
    <line class="fil7 str6" x1="2947" y1="1879" x2="2947" y2= "2890" />
    <g>
     <path class="fil4" d="M2932 1940c0,5 -4,9 -9,9 -5,0 -9,-4 -9,-9 0,-5 4,-9 9,-9 5,0 9,4 9,9z"/>
     <path class="fil4" d="M2932 2044c0,5 -4,9 -9,9 -5,0 -9,-4 -9,-9 0,-5 4,-9 9,-9 5,0 9,4 9,9z"/>
     <path class="fil4" d="M2932 2148c0,5 -4,9 -9,9 -5,0 -9,-4 -9,-9 0,-5 4,-9 9,-9 5,0 9,4 9,9z"/>
     <path class="fil4" d="M2932 2252c0,5 -4,9 -9,9 -5,0 -9,-4 -9,-9 0,-5 4,-9 9,-9 5,0 9,4 9,9z"/>
     <path class="fil4" d="M2932 2356c0,5 -4,9 -9,9 -5,0 -9,-4 -9,-9 0,-5 4,-9 9,-9 5,0 9,4 9,9z"/>
    </g>
    <polygon class="fil9" points="2810,1893 2893,1793 2950,1873 3003,1793 3101,1893 "/>
    <g>
     <path class="fil16" d="M2947 1868l-39 -68c-6,-11 -15,-21 -26,-28l-20 -14c-4,-3 -10,-3 -14,-1l-20 11c-5,3 -7,8 -6,13l8 63c1,6 8,9 13,4l43 -45c2,-3 7,-2 8,1l51 75 0 -11z"/>
     <path class="fil16" d="M2947 1868l39 -68c6,-11 15,-21 26,-28l20 -14c4,-3 10,-3 14,-1l20 11c5,3 7,8 6,13l-8 63c-1,6 -8,9 -13,4l-43 -45c-2,-3 -7,-2 -8,1l-51 75 0 -11z"/>
    </g>
    <g>
     <path class="fil4" d="M2932 2446c0,5 -4,9 -9,9 -5,0 -9,-4 -9,-9 0,-5 4,-9 9,-9 5,0 9,4 9,9z"/>
     <path class="fil4" d="M2932 2549c0,5 -4,9 -9,9 -5,0 -9,-4 -9,-9 0,-5 4,-9 9,-9 5,0 9,4 9,9z"/>
     <path class="fil4" d="M2932 2653c0,5 -4,9 -9,9 -5,0 -9,-4 -9,-9 0,-5 4,-9 9,-9 5,0 9,4 9,9z"/>
     <path class="fil4" d="M2932 2757c0,5 -4,9 -9,9 -5,0 -9,-4 -9,-9 0,-5 4,-9 9,-9 5,0 9,4 9,9z"/>
     <path class="fil4" d="M2932 2861c0,5 -4,9 -9,9 -5,0 -9,-4 -9,-9 0,-5 4,-9 9,-9 5,0 9,4 9,9z"/>
    </g>
    <path class="fil7 str7" d="M2896 1638c0,0 47,25 105,0"/>
    <g>
     <g>
      <path class="fil6" d="M2750 4617c0,0 14,-41 -17,-60 -31,-19 -46,-11 -49,14 -2,25 -3,40 -3,40l69 6z"/>
      <path class="fil6" d="M2701 4592c0,0 -71,50 -127,49 0,0 -96,2 -90,86l388 0c0,0 23,-70 -21,-126 0,0 24,-74 -33,-66l-1 42c0,0 -7,17 -29,10 -22,-6 -51,-7 -87,6z"/>
     </g>
     <polygon class="fil5" points="2484,4770 2872,4770 2872,4726 2484,4726 "/>
     <path class="fil7 str2" d="M2733 4631c0,0 -22,-31 -55,-26"/>
     <path class="fil7 str2" d="M2705 4647c0,0 -22,-31 -55,-26"/>
     <path class="fil7 str2" d="M2674 4656c0,0 -22,-31 -55,-26"/>
     <path class="fil7 str3" d="M2869 4637c0,0 -92,12 -97,88"/>
     <path class="fil7 str3" d="M2580 4641c0,0 60,-2 57,82"/>
    </g>
   </g>
  </g>
 </g>
</svg>
