<?xml version="1.0" encoding="UTF-8"?>
<!DOCTYPE svg PUBLIC "-//W3C//DTD SVG 1.1//EN" "http://www.w3.org/Graphics/SVG/1.1/DTD/svg11.dtd">
<!-- Creator: CorelDRAW X6 -->
<svg xmlns="http://www.w3.org/2000/svg" xml:space="preserve" width="49.9999mm" height="50mm" version="1.1" style="shape-rendering:geometricPrecision; text-rendering:geometricPrecision; image-rendering:optimizeQuality; fill-rule:evenodd; clip-rule:evenodd"
viewBox="0 0 1473 1473"
 xmlns:xlink="http://www.w3.org/1999/xlink">
 <defs>
  <style type="text/css">
   <![CDATA[
    .str2 {stroke:#D16664;stroke-width:5.16269;stroke-linecap:round;stroke-linejoin:round}
    .str1 {stroke:#321A17;stroke-width:7.79263;stroke-linecap:round;stroke-linejoin:round}
    .str0 {stroke:white;stroke-width:10.3902;stroke-linecap:round;stroke-linejoin:round}
    .fil33 {fill:none}
    .fil18 {fill:none;fill-rule:nonzero}
    .fil26 {fill:black}
    .fil7 {fill:#093E8C}
    .fil8 {fill:#0B2A62}
    .fil1 {fill:#0C387D}
    .fil0 {fill:#15AFA7}
    .fil32 {fill:#202021}
    .fil31 {fill:#2C2A2D}
    .fil9 {fill:#3A3A3A}
    .fil4 {fill:#534D46}
    .fil30 {fill:#828282}
    .fil28 {fill:#939393}
    .fil27 {fill:#9B9B9B}
    .fil2 {fill:#C69A81}
    .fil3 {fill:#D1A385}
    .fil13 {fill:#E5E5E5}
    .fil10 {fill:#EACCB0}
    .fil6 {fill:#EAEAEA}
    .fil29 {fill:#EFEFEF}
    .fil14 {fill:#F2D4B6}
    .fil11 {fill:#F7F7F7}
    .fil12 {fill:#FCFCFC}
    .fil5 {fill:white}
    .fil20 {fill:#00A0E3;fill-rule:nonzero}
    .fil25 {fill:#2B2A29;fill-rule:nonzero}
    .fil17 {fill:#B2B3B3;fill-rule:nonzero}
    .fil34 {fill:black;fill-rule:nonzero}
    .fil19 {fill:#2B2B2B;fill-rule:nonzero}
    .fil16 {fill:#59342F;fill-rule:nonzero}
    .fil22 {fill:#E2E2E2;fill-rule:nonzero}
    .fil23 {fill:#F78967;fill-rule:nonzero}
    .fil24 {fill:#FFA377;fill-rule:nonzero}
    .fil15 {fill:#FFAF82;fill-rule:nonzero}
    .fil21 {fill:white;fill-rule:nonzero}
   ]]>
  </style>
   <clipPath id="id0">
    <path d="M1473 736c0,407 -330,736 -736,736 -407,0 -736,-330 -736,-736 0,-407 330,-736 736,-736 407,0 736,330 736,736z"/>
   </clipPath>
 </defs>
 <g id="Layer_x0020_1">
  <metadata id="CorelCorpID_0Corel-Layer"/>
  <path class="fil0" d="M1473 736c0,407 -330,736 -736,736 -407,0 -736,-330 -736,-736 0,-407 330,-736 736,-736 407,0 736,330 736,736z"/>
  <g style="clip-path:url(#id0)">
   <g id="_1077409552">
    <g>
     <path id="1" class="fil1" d="M1502 1118c-4,6 -46,99 -55,141 -1,3 -1,5 -2,8 36,-23 68,-52 94,-86 -14,-29 -26,-51 -38,-63z"/>
     <path class="fil2" d="M1249 1064c35,0 58,-19 70,-35 1,-9 0,-18 -4,-26l-4 -13c-2,2 -3,4 -5,5 -23,21 -32,29 -58,29 -26,0 -34,-8 -58,-29 -2,-2 -3,-3 -5,-5l-4 13c-4,8 -5,17 -4,26 12,16 35,35 70,35z"/>
     <polygon class="fil2" points="1186,990 1186,990 1186,990 "/>
     <polygon class="fil2" points="1312,990 1312,990 1312,990 "/>
     <path class="fil3" d="M1186 990l0 1c1,2 3,4 5,5 23,21 32,29 58,29 26,0 34,-8 58,-29 2,-2 4,-4 5,-5l0 0 0 0 0 0c18,-24 9,-64 23,-64 21,1 30,-17 25,-40 -3,-14 -14,-13 -20,-9 -2,5 -3,8 -4,8 -3,-1 -2,-29 3,-63 5,-36 -38,-20 -69,-21 -31,-1 -104,-8 -109,9 -5,17 8,68 3,70 -1,0 -1,0 -2,-1 0,2 0,2 0,1 -3,-7 -20,-14 -23,5 -5,23 4,41 25,40 13,-1 4,40 23,64l0 0 1 0z"/>
     <path class="fil4" d="M1164 880c4,-2 -9,-53 -3,-70 5,-17 79,-10 109,-9 31,1 74,-14 69,21 -5,33 -7,62 -3,63 1,0 3,-3 4,-8 3,-9 6,-22 6,-22 15,-9 10,-73 10,-83 0,-10 -15,-27 -22,-27 -7,0 -1,-28 -46,-39 -45,-12 -84,-6 -106,5 -22,11 -38,30 -48,33 -10,3 3,10 -4,17 -8,7 5,16 8,30 2,14 8,58 12,63 4,4 8,23 12,27 1,1 1,1 2,1z"/>
     <polygon class="fil5" points="1249,1177 1249,1178 "/>
     <path class="fil5" d="M1297 1077c4,-5 8,-10 12,-16 -29,21 -60,19 -60,19 0,0 -31,2 -60,-19 3,6 8,12 12,16 33,46 47,102 48,102 0,0 15,-56 48,-102z"/>
     <polygon class="fil5" points="1249,1178 1249,1178 "/>
     <path class="fil6" d="M1249 1079c0,0 31,2 60,-19 5,-10 9,-20 11,-31 -12,16 -35,35 -70,35 -35,0 -58,-19 -70,-35 1,10 5,21 11,31 29,21 60,19 60,19z"/>
     <path class="fil1" d="M994 1118l0 0c-12,11 -24,34 -38,63 26,34 58,63 94,87 -1,-3 -1,-5 -2,-8 -9,-43 -52,-139 -55,-142z"/>
     <path class="fil7" d="M1435 1264l-165 0 0 -8 165 0 0 8zm67 -146l0 0c3,-3 -27,-19 -66,-36 -24,-11 -44,-25 -64,-36 3,7 7,15 10,24 0,0 -58,10 -64,12 -6,2 -1,8 -9,16 -36,39 -53,73 -60,80l-1 1 0 0 3 0 0 146c71,-1 137,-22 193,-57 1,-3 1,-5 2,-8 9,-42 51,-135 55,-141z"/>
     <path class="fil7" d="M1061 1264l0 -8 165 0 0 8 -165 0zm183 -86l5 0 0 0c-7,-4 -22,-40 -60,-80 -8,-9 -3,-14 -9,-16 -6,-2 -64,-12 -64,-12 3,-8 6,-15 9,-21 -20,10 -41,22 -65,33 -38,17 -68,33 -66,36 3,3 46,98 55,142 1,3 1,5 2,8 56,36 122,57 193,57l0 -146z"/>
     <polygon class="fil6" points="1226,1256 1061,1256 1061,1264 1226,1264 "/>
     <polygon class="fil6" points="1270,1256 1270,1264 1435,1264 1435,1256 "/>
     <path class="fil6" d="M1252 1178l-3 0 -5 0 0 146c1,0 3,0 4,0 1,0 3,0 4,0l0 -146z"/>
     <path class="fil8" d="M1115 1069c0,0 58,10 64,12 6,2 1,8 9,16 38,40 53,76 60,80l0 0c0,0 -14,-56 -48,-102 -4,-5 -8,-10 -12,-16 -5,-10 -9,-20 -11,-31 -1,-9 0,-18 4,-26l4 -13 0 -1 -1 0 0 0c-16,4 -39,10 -62,58 -3,6 -6,13 -9,21z"/>
     <path class="fil8" d="M1311 990l0 0 4 13c4,8 5,17 4,26 -1,11 -5,21 -11,31 -3,6 -8,12 -12,16 -33,46 -48,102 -48,102l0 0 0 0 1 -1c7,-6 24,-41 60,-80 8,-9 3,-14 9,-16 6,-2 64,-12 64,-12 -3,-9 -7,-17 -10,-24 -22,-45 -45,-51 -60,-55l0 0 0 0z"/>
    </g>
    <g>
     <path class="fil9" d="M212 1018c5,-13 6,-27 6,-36 -3,-3 -6,-5 -10,-8 -23,-22 -23,-79 -29,-75 -13,9 -21,-17 -23,-32 -1,-12 3,-18 7,-18 2,2 5,1 8,6 2,5 5,-18 26,-36l26 -22c21,2 29,8 66,28 31,16 71,30 77,34 2,2 4,-7 14,-10l0 0c4,1 7,7 6,18 -2,15 -10,41 -23,32 -6,-4 -5,53 -29,75 -2,2 -3,3 -5,5 -1,1 -3,2 -4,3 0,10 1,23 6,36 2,-1 3,-1 4,0 1,1 1,2 2,3l53 0c0,0 68,-31 33,-59 -40,-33 5,-28 3,-64 -1,-23 -27,-30 -23,-56 6,-39 -8,-105 -56,-116 -83,-54 -162,-20 -190,36 -33,66 13,79 -26,109 -13,10 -18,26 -12,36 10,20 34,34 16,46 -26,19 -15,44 23,68l47 0c1,-1 1,-2 2,-3 1,-1 2,-1 4,0z"/>
     <path class="fil10" d="M273 1080c-4,5 -14,12 -21,20 9,11 16,22 22,31 5,-9 13,-19 21,-30 -8,-8 -17,-16 -22,-21z"/>
     <path class="fil10" d="M314 991c-5,3 -11,6 -17,8 -5,2 -11,3 -16,3 -7,1 -14,0 -21,-1 -6,-1 -11,-2 -16,-4 -6,-2 -12,-5 -17,-9 -3,-2 -5,-4 -8,-6 0,10 -1,23 -6,36 6,4 21,24 60,55 39,-30 54,-50 60,-54 -5,-13 -6,-27 -6,-36 -4,3 -8,7 -13,9z"/>
     <path class="fil11" d="M263 1149c2,-3 5,-9 11,-18 -6,-9 -13,-20 -22,-31 -6,6 -11,13 -10,20 2,18 -55,-48 -54,-74 -1,1 -3,2 -4,2 -14,6 -125,46 -129,51 -1,2 -2,4 -3,6l0 0c4,-6 7,-9 11,-8 58,23 51,143 52,172 0,5 0,13 -1,22 45,20 95,32 147,33 0,-96 0,-173 2,-175z"/>
     <path class="fil12" d="M433 1269c2,-28 -5,-149 52,-172 1,0 2,0 4,0 -19,-10 -113,-44 -126,-49 -2,-1 -4,-2 -5,-3 2,25 -56,93 -54,75 1,-6 -4,-13 -10,-19 -8,11 -16,21 -21,30 -5,9 -9,16 -11,18 -1,2 -2,79 -2,175 3,0 7,0 10,0 58,0 113,-13 163,-36 -1,-8 -1,-15 -1,-20z"/>
     <path class="fil13" d="M242 1120c-1,-6 4,-13 10,-20 7,-8 17,-15 21,-20 4,5 14,13 22,21 6,6 10,13 10,19 -2,18 56,-50 54,-75l0 0c0,-3 -10,-9 -19,-23 -1,-1 -1,-2 -2,-3 -1,-1 -2,-1 -4,0 -6,4 -21,24 -60,54 -40,-31 -54,-50 -60,-55 -2,-1 -3,-1 -4,0 -1,1 -1,2 -2,3 -9,14 -19,20 -19,23l0 1c-1,26 56,92 54,74z"/>
     <path class="fil14" d="M243 997c5,2 11,4 16,4 7,1 14,1 21,1 6,-1 11,-2 16,-3 6,-2 11,-4 17,-8 5,-3 9,-6 13,-9 1,-1 3,-2 4,-3 2,-2 3,-3 5,-5 23,-22 23,-79 29,-75 13,9 21,-17 23,-32 1,-11 -2,-17 -6,-18l0 0c-10,3 -11,12 -14,10 -6,-5 -45,-18 -77,-34 -37,-20 -45,-26 -66,-28l-26 22c-21,18 -23,40 -26,36 -3,-6 -6,-4 -8,-6 -5,-1 -9,6 -7,18 2,15 10,41 23,32 6,-4 5,53 29,75 3,3 6,6 10,8 3,2 5,4 8,6 5,4 11,7 17,9z"/>
     <path class="fil13" d="M489 1097c-1,0 -2,0 -4,0 -58,23 -51,143 -52,172 0,5 0,12 1,20 33,-16 64,-36 91,-59 -10,-68 -22,-128 -36,-132z"/>
     <path class="fil13" d="M115 1269c-2,-28 5,-149 -52,-172 -4,-2 -8,1 -11,8 -11,20 -21,72 -29,128 28,23 58,43 92,58 1,-9 2,-16 1,-22z"/>
    </g>
    <g>
     <polygon class="fil15" points="851,4094 840,3761 955,3761 949,4089 "/>
     <g>
      <g>
       <path class="fil16" d="M919 4074c0,0 -14,-43 18,-64 33,-21 49,-12 52,14 2,27 3,43 3,43l-73 7z"/>
       <path class="fil16" d="M972 4047c0,0 75,53 135,52 0,0 102,2 96,92l-412 0c0,0 -25,-75 22,-134 0,0 -25,-78 35,-71l1 44c0,0 7,18 30,11 23,-7 54,-7 92,7z"/>
      </g>
      <polygon class="fil17" points="1202,4236 790,4236 790,4190 1202,4190 "/>
      <path class="fil18 str0" d="M938 4089c0,0 24,-33 58,-27"/>
      <path class="fil18 str0" d="M967 4106c0,0 24,-33 58,-27"/>
      <path class="fil18 str0" d="M1001 4116c0,0 24,-33 58,-27"/>
      <path class="fil18 str1" d="M794 4095c0,0 97,13 103,93"/>
      <path class="fil18 str1" d="M1100 4100c0,0 -63,-2 -60,87"/>
     </g>
    </g>
    <g>
     <polygon class="fil15" points="582,4094 594,3761 479,3761 484,4089 "/>
     <g>
      <g>
       <path class="fil16" d="M515 4074c0,0 14,-43 -18,-64 -33,-21 -49,-12 -52,14 -2,27 -3,43 -3,43l73 7z"/>
       <path class="fil16" d="M462 4047c0,0 -75,53 -135,52 0,0 -102,2 -96,92l412 0c0,0 25,-75 -22,-134 0,0 25,-78 -35,-71l-1 44c0,0 -7,18 -30,11 -23,-7 -54,-7 -92,7z"/>
      </g>
      <polygon class="fil17" points="231,4236 644,4236 644,4190 231,4190 "/>
      <path class="fil18 str0" d="M496 4089c0,0 -24,-33 -58,-27"/>
      <path class="fil18 str0" d="M467 4106c0,0 -24,-33 -58,-27"/>
      <path class="fil18 str0" d="M433 4116c0,0 -24,-33 -58,-27"/>
      <path class="fil18 str1" d="M640 4095c0,0 -97,13 -103,93"/>
      <path class="fil18 str1" d="M334 4100c0,0 63,-2 60,87"/>
     </g>
    </g>
    <path class="fil19" d="M418 2449c-8,-137 19,-237 22,-236 216,-14 563,-22 563,-22 0,1 1,3 1,4 0,0 35,122 14,219 -210,129 -409,156 -601,35z"/>
    <path class="fil19" d="M418 2383c0,0 -2,629 18,785l20 824 161 -16c4,-378 48,-570 26,-812l77 -737c0,0 -139,-49 -301,-44z"/>
    <g>
     <g>
      <path class="fil20" d="M1032 2245c-61,32 -117,55 -174,70 -43,11 -85,16 -130,16 -40,0 -77,-4 -114,-12 -61,-14 -120,-38 -186,-73l25 -520 -3 -606 154 -41 46 -12c26,-7 52,-10 78,-10 26,0 52,4 78,10l52 14 148 40 -3 606 29 520z"/>
     </g>
    </g>
    <g>
     <path class="fil21" d="M858 1079l0 1236c-43,11 -85,16 -130,16 -40,0 -77,-4 -114,-12l0 -31 0 -32 -1 -75 0 -32 -1 -75 0 -32 -1 -75 0 -32 -1 -75 0 -32 -1 -75 0 -32 -1 -75 0 -32 -1 -75 0 -32 -1 -75 0 -32 -1 -75 0 -32 -1 -75 0 -32 -1 -75 0 -32 0 -3 46 -12c26,-7 52,-10 78,-10 26,0 52,4 78,10l52 14 1 0z"/>
     <g>
      <g>
       <path class="fil22" d="M858 1112l0 31c-44,8 -88,10 -127,10 -49,0 -93,-4 -127,-9l0 -32c59,9 155,16 254,-1l1 0z"/>
      </g>
      <g>
       <path class="fil22" d="M858 1201l0 32c-44,8 -86,10 -126,10 -50,0 -94,-4 -128,-9l0 -32c59,9 155,17 253,-1z"/>
      </g>
      <g>
       <path class="fil22" d="M858 1293l0 32c-43,8 -85,10 -124,10 -50,0 -94,-5 -129,-10l0 -32c59,9 154,18 253,0z"/>
      </g>
      <g>
       <path class="fil22" d="M858 1400l0 32c-43,8 -84,10 -122,10 -50,0 -95,-5 -129,-10l0 -32c59,10 153,18 252,0z"/>
      </g>
      <g>
       <path class="fil22" d="M858 1508l0 32c-42,8 -83,10 -121,10 -50,0 -95,-5 -130,-11l0 -32c59,10 153,19 251,1z"/>
      </g>
      <g>
       <path class="fil22" d="M858 1615l0 32c-42,8 -82,10 -119,10 -51,0 -96,-5 -130,-11l0 -32c59,10 152,20 250,1z"/>
      </g>
      <g>
       <path class="fil22" d="M858 1722l0 32c-41,8 -81,11 -118,11 -51,0 -96,-5 -131,-12l0 -32c59,11 152,20 249,1z"/>
      </g>
      <g>
       <path class="fil22" d="M858 1829l0 32c-41,8 -80,11 -117,11 -51,0 -96,-6 -131,-12l0 -32c59,11 151,21 248,2z"/>
      </g>
      <g>
       <path class="fil22" d="M858 1936l0 32c-40,8 -79,11 -116,11 -51,0 -96,-6 -131,-12l0 -32c58,12 150,22 247,2z"/>
      </g>
      <g>
       <path class="fil22" d="M858 2044l0 32c-40,8 -79,11 -115,11 -51,0 -96,-6 -131,-13l0 -32c58,12 150,22 247,2z"/>
      </g>
      <g>
       <path class="fil22" d="M858 2151l0 32c-40,8 -78,11 -114,11 -51,0 -96,-6 -132,-13l0 -32c58,12 149,23 246,3z"/>
      </g>
      <g>
       <path class="fil22" d="M858 2258l0 32c-39,8 -77,11 -113,11 -51,0 -96,-6 -132,-14l0 -32c58,12 149,23 245,3z"/>
      </g>
     </g>
    </g>
    <g>
     <g>
      <path class="fil15" d="M255 2244c0,0 12,40 25,68 13,29 4,51 12,77 8,26 -23,24 -29,-3 -6,-27 -3,-40 -9,-41 -6,-1 -22,65 -24,84 -2,19 2,67 -6,74 -7,7 -24,-19 -19,-69 5,-50 1,-49 1,-49 0,0 -5,19 -10,40 -5,21 -5,46 -4,60 1,14 -14,21 -18,14 -4,-8 -11,-57 -5,-76 6,-19 13,-52 13,-52 0,0 -19,44 -22,56 -3,11 2,55 -8,63 -4,3 -17,-1 -15,-63 0,0 5,-30 11,-49 0,0 -10,14 -15,33 -4,17 -7,34 -8,51 -1,17 -16,15 -16,-15 0,-30 5,-62 13,-78 8,-16 21,-108 45,-142l87 18z"/>
     </g>
    </g>
    <g>
     <path class="fil20" d="M535 1253c0,0 -71,329 -131,443 0,0 -33,160 -147,554 0,0 -60,24 -94,-22 0,0 55,-433 88,-571 0,0 149,-478 199,-539 0,0 77,31 85,135z"/>
    </g>
    <g>
     <g>
      <path class="fil15" d="M1204 2244c0,0 -12,40 -25,68 -13,29 -4,51 -12,77 -8,26 23,24 29,-3 6,-27 3,-40 9,-41 6,-1 22,65 24,84 2,19 -2,67 6,74 7,7 24,-19 19,-69 -5,-50 -1,-49 -1,-49 0,0 5,19 10,40 5,21 5,46 4,60 -1,14 14,21 18,14 4,-8 11,-57 5,-76 -6,-19 -13,-52 -13,-52 0,0 19,44 22,56 3,11 -2,55 8,63 4,3 17,-1 15,-63 0,0 -5,-30 -11,-49 0,0 10,14 15,33 4,17 7,34 8,51 1,17 16,15 16,-15 0,-30 -5,-62 -13,-78 -8,-16 -21,-108 -45,-142l-87 18z"/>
     </g>
    </g>
    <g>
     <path class="fil20" d="M924 1253c0,0 71,329 131,443 0,0 33,160 147,554 0,0 60,24 94,-22 0,0 -55,-433 -88,-571 0,0 -149,-478 -199,-539 0,0 -77,31 -85,135z"/>
    </g>
    <g>
     <g>
      <path class="fil15" d="M809 978l-3 50 -3 63c0,0 -13,24 -69,24 -57,0 -68,-16 -68,-16l-2 -28 -8 -93 153 0z"/>
     </g>
     <g>
      <path class="fil23" d="M809 978l-3 50c-24,18 -79,52 -143,43l-8 -93 153 0z"/>
     </g>
    </g>
    <g>
     <g>
      <path class="fil24" d="M559 749c0,0 -43,-42 -78,-15 -41,33 2,150 74,138l4 -123z"/>
     </g>
    </g>
    <g>
     <g>
      <path class="fil24" d="M890 749c0,0 43,-42 78,-15 41,33 -2,150 -74,138l-4 -123z"/>
     </g>
    </g>
    <path class="fil15" d="M727 1028c-150,0 -196,-178 -210,-308 -13,-120 80,-226 201,-227 2,0 3,0 5,0 2,0 4,0 6,0 119,2 212,104 202,223 -11,132 -54,312 -204,312z"/>
    <path class="fil25" d="M921 365c76,52 7,153 7,153 0,0 76,74 -2,248l-14 -3c9,-56 4,-124 0,-134 -11,-32 -66,-49 -64,-83 0,0 -171,54 -264,1 0,0 -7,44 -33,72 -21,23 -9,104 -6,140l-14 1c-8,-36 -29,-100 -31,-119 -1,-12 -6,-59 -9,-93 -2,-30 3,-60 17,-86 7,-15 18,-29 32,-40 50,-37 312,-103 381,-56z"/>
    <g>
     <g>
      <path class="fil5" d="M681 764c0,0 -13,-33 -45,-35 -32,-2 -51,24 -51,24 0,0 8,28 47,30 39,2 49,-19 49,-19z"/>
      <path class="fil26" d="M601 755c0,9 3,17 9,23 6,3 13,4 22,5 8,0 15,0 20,-1 7,-6 12,-14 12,-24 0,-9 -3,-17 -8,-23 -6,-3 -13,-6 -21,-6 -10,0 -19,2 -26,5 -5,5 -9,13 -9,21z"/>
      <path class="fil26" d="M683 764c0,0 -3,-9 -10,-18 -7,-9 -19,-18 -36,-18l-1 0c-34,0 -52,24 -52,25l0 3 3 0 1 -1c4,-4 20,-22 48,-22l1 0c16,0 27,8 33,17 3,4 6,8 8,12 1,2 1,3 2,4l1 1c0,1 1,2 2,1 1,0 2,-1 1,-2z"/>
     </g>
     <g>
      <path class="fil5" d="M863 764c0,0 -13,-33 -45,-35 -32,-2 -51,24 -51,24 0,0 8,28 47,30 39,2 49,-19 49,-19z"/>
      <path class="fil26" d="M783 755c0,9 3,17 9,23 6,3 13,4 22,5 8,0 15,0 20,-1 7,-6 12,-14 12,-24 0,-9 -3,-17 -8,-23 -6,-3 -13,-6 -21,-6 -10,0 -19,2 -26,5 -5,5 -9,13 -9,21z"/>
      <path class="fil26" d="M865 764c0,0 -3,-9 -10,-18 -7,-9 -19,-18 -36,-18l-1 0c-34,0 -52,24 -52,25l0 3 3 0 1 -1c4,-4 20,-22 48,-22l1 0c16,0 27,8 33,17 3,4 6,8 8,12 1,2 1,3 2,4l1 1c0,1 1,2 2,1 1,0 2,-1 1,-2z"/>
     </g>
    </g>
    <g>
     <path class="fil26" d="M628 666c0,0 -32,4 -48,14 -10,6 -9,17 2,21 11,4 34,1 47,0 33,-4 56,-16 54,-27 -3,-13 -38,-11 -55,-8z"/>
     <path class="fil26" d="M823 666c0,0 30,4 45,14 9,6 9,17 -2,21 -10,4 -32,1 -45,0 -32,-4 -53,-16 -51,-27 3,-13 35,-11 52,-8z"/>
    </g>
    <path class="fil21" d="M675 906l98 0c0,0 -16,31 -53,29 -36,-2 -45,-29 -45,-29z"/>
    <g>
     <line class="fil18 str2" x1="722" y1="750" x2="722" y2= "848" />
     <path class="fil18 str2" d="M722 848c0,2 0,4 1,6 3,7 12,11 19,9"/>
     <line class="fil18 str2" x1="743" y1="863" x2="759" y2= "858" />
    </g>
    <path class="fil19" d="M1024 2383c0,0 2,629 -18,785l-20 824 -161 -16c-4,-378 -48,-570 -26,-812l-77 -737c0,0 139,-49 301,-44z"/>
    <polygon class="fil10" points="706,1232 706,1232 706,1232 "/>
    <path class="fil27" d="M679 1403c3,-19 6,-37 8,-55l0 0 0 -1c9,-56 16,-100 18,-115l0 0c-1,-1 -2,-2 -3,-3l0 0 -1 -1 0 0c-1,-3 -3,-6 -4,-9l-1 -2c-8,-16 -15,-27 -18,-41 0,-1 0,-3 -1,-4l0 0c-6,8 -10,16 -9,24 3,33 -100,-88 -98,-135 -11,6 -23,12 -37,18l0 0c24,73 86,222 145,324z"/>
    <polygon class="fil27" points="329,1148 329,1148 329,1148 329,1148 "/>
    <path class="fil27" d="M788 1195c1,-8 -3,-16 -9,-24l0 0c0,1 0,3 -1,4 -1,3 -1,6 -2,8l0 0c-4,10 -10,20 -16,32l-1 2c-1,3 -3,6 -4,9l-1 1 0 0c-1,1 -2,2 -3,3 3,15 10,59 18,114 0,1 0,2 0,2l0 0c2,14 4,29 7,44 60,-102 121,-248 143,-315l0 0c-12,-5 -23,-10 -32,-15 0,47 -101,166 -98,134z"/>
    <path class="fil27" d="M1124 1148c2,0 4,1 6,1 -2,-1 -4,-2 -7,-3l0 0 1 2z"/>
    <path class="fil28" d="M329 1148l0 0c-2,0 -5,1 -8,1 -28,7 -47,75 -64,150 42,50 92,94 149,129 -1,-16 -2,-31 -4,-43 -10,-58 -81,-230 -72,-237z"/>
    <path class="fil28" d="M1130 1150l-1 0c-2,-1 -4,-1 -6,-1 4,18 -63,181 -73,237 -2,14 -4,31 -4,50 56,-33 107,-75 150,-124 -19,-80 -37,-154 -67,-162z"/>
    <path class="fil29" d="M747 1282l-15 0 0 -34 15 0 0 34zm0 48l-15 0 0 -34 15 0 0 34zm0 48l-15 0 0 -34 15 0 0 34zm0 48l-15 0 0 -34 15 0 0 34zm-22 -96l-15 0 0 -34 15 0 0 34zm0 48l-15 0 0 -34 15 0 0 34zm0 48l-15 0 0 -34 15 0 0 34zm-22 -145l-5 0c2,-12 4,-22 5,-31l0 31zm0 48l-12 0c2,-12 4,-24 5,-34l7 0 0 34zm22 -83l0 34 -15 0 0 -34 15 0zm29 48l7 0c2,11 4,22 5,34l-12 0 0 -34zm0 -44c1,8 3,19 5,30l-5 0 0 -30zm15 127l-15 0 0 -34 15 0 0 1c-8,-55 -16,-99 -18,-114l-1 1c-1,0 -2,1 -2,1l0 1 -8 0 -8 1 0 0 -3 0 -3 0 0 0 -8 -1 -8 0 0 -1c-1,0 -2,0 -3,-1l-1 -1 0 0c-3,15 -10,59 -18,115 0,-1 0,-2 0,-3l15 0 0 34 -15 0 0 -31c-3,17 -5,36 -8,55l0 0c0,-3 1,-6 1,-9l0 12c2,4 5,8 7,12l0 -24 15 0 0 34 -9 0c5,8 11,16 16,24l0 -10 15 0 0 26c2,-3 5,-6 7,-8l0 -18 13 0c3,-4 6,-9 9,-14l0 0 0 -34 15 0 0 11c2,-4 5,-7 7,-11 -2,-15 -5,-30 -7,-44l0 31z"/>
    <path class="fil5" d="M698 1218c1,3 3,6 4,9l0 0 0 0c-1,-3 -3,-6 -4,-9z"/>
    <polygon class="fil5" points="678,1171 678,1171 678,1171 "/>
    <path class="fil5" d="M778 1176c-1,3 -1,6 -2,8 1,-3 2,-6 2,-8z"/>
    <polygon class="fil5" points="779,1171 779,1171 779,1171 "/>
    <path class="fil5" d="M759 1218c-1,3 -3,6 -4,9 1,-3 3,-6 4,-9z"/>
    <path class="fil5" d="M710 1152l15 0 0 34 -15 0 0 -34zm22 0l15 0 0 34 -15 0 0 -34zm-25 81c1,0 2,1 3,1l0 -34 15 0 0 34 -7 0 8 1 0 0 3 0 3 0 0 0 8 -1 -7 0 0 -34 15 0 0 34c1,0 2,0 2,-1l1 -1c1,-1 3,-2 3,-3l0 -29 15 0c-3,5 -6,11 -9,17 6,-12 12,-22 16,-32l0 -17c-2,-3 -4,-5 -7,-8l0 27 -15 0 0 -34 8 0c-5,-5 -10,-9 -15,-14l-15 0 0 -14c-1,-2 -3,-3 -4,-4 -1,1 -2,3 -3,4l0 14 -15 0c-5,4 -10,9 -15,14l8 0 0 34 -15 0 0 -27c-2,3 -5,5 -7,8l0 17c-1,-3 -2,-6 -2,-8 3,14 10,25 18,41 -3,-6 -6,-12 -9,-17l15 0 0 29c1,1 2,2 3,3l0 0 1 1z"/>
    <polygon class="fil26" points="725,1200 710,1200 710,1233 710,1234 718,1234 725,1234 "/>
    <polygon class="fil26" points="710,1282 725,1282 725,1248 710,1248 "/>
    <polygon class="fil26" points="725,1152 710,1152 710,1186 725,1186 "/>
    <polygon class="fil26" points="710,1331 725,1331 725,1296 710,1296 "/>
    <path class="fil26" d="M710 1441l0 10c5,6 9,12 13,18l2 -2 0 -26 -15 0z"/>
    <polygon class="fil26" points="710,1427 725,1427 725,1393 710,1393 "/>
    <polygon class="fil26" points="710,1379 725,1379 725,1344 710,1344 "/>
    <path class="fil26" d="M679 1403l1 2 0 -12c-1,3 -1,6 -1,9z"/>
    <path class="fil26" d="M688 1186l15 0 0 -34 -8 0c-3,3 -5,5 -8,8l0 27z"/>
    <path class="fil26" d="M681 1167c-1,1 -2,2 -3,4l0 0c0,1 0,3 1,4 1,3 1,6 2,8l0 -17z"/>
    <path class="fil26" d="M703 1200l-15 0c3,5 6,11 9,17l1 2c1,3 3,6 4,9l0 0 1 1 0 0 0 -29z"/>
    <path class="fil26" d="M703 1393l-15 0 0 24c2,3 4,7 6,10l9 0 0 -34z"/>
    <path class="fil26" d="M703 1379l0 -34 -15 0c0,1 0,2 0,3l0 1 0 0 0 31 15 0z"/>
    <path class="fil26" d="M703 1282l0 -31c-1,8 -3,19 -5,31l5 0z"/>
    <path class="fil26" d="M690 1331l12 0 0 -34 -7 0c-2,11 -4,22 -5,34z"/>
    <path class="fil26" d="M754 1393l0 34 0 0c5,-7 10,-15 15,-23l0 -11 -15 0z"/>
    <path class="fil26" d="M754 1344l0 34 15 0 0 -31 0 0c0,-1 0,-2 0,-2l0 -1 -15 0z"/>
    <path class="fil26" d="M725 1124c-4,4 -9,9 -15,14l15 0 0 -14z"/>
    <path class="fil26" d="M747 1138c-6,-5 -11,-10 -15,-14l0 14 15 0z"/>
    <polygon class="fil26" points="732,1331 747,1331 747,1296 732,1296 "/>
    <polygon class="fil26" points="732,1427 747,1427 747,1393 732,1393 "/>
    <polygon class="fil26" points="732,1379 747,1379 747,1344 732,1344 "/>
    <polygon class="fil26" points="747,1200 732,1200 732,1234 739,1234 747,1234 747,1233 "/>
    <polygon class="fil26" points="732,1248 732,1282 747,1282 747,1248 "/>
    <path class="fil26" d="M732 1458c4,-5 9,-11 13,-18l-13 0 0 18z"/>
    <polygon class="fil26" points="747,1152 732,1152 732,1186 747,1186 "/>
    <path class="fil26" d="M754 1252l0 30 5 0c-2,-12 -4,-22 -5,-30z"/>
    <path class="fil26" d="M754 1200l0 29 0 0 1 -1c1,-3 3,-6 4,-9l1 -2c3,-6 6,-12 9,-17l-15 0z"/>
    <path class="fil26" d="M776 1184l0 0c1,-3 2,-6 2,-8 0,-1 0,-3 1,-4l0 0c-1,-1 -2,-2 -3,-4l0 17z"/>
    <path class="fil26" d="M754 1186l15 0 0 -27c-2,-3 -5,-5 -8,-8l-8 0 0 34z"/>
    <path class="fil26" d="M761 1296l-7 0 0 34 12 0c-2,-12 -4,-24 -5,-34z"/>
    <path class="fil30" d="M669 1195c-1,-8 3,-16 9,-24l0 0c1,-1 2,-2 3,-4 2,-3 4,-5 7,-8 2,-3 5,-5 8,-8 5,-5 10,-9 15,-14 6,-5 11,-10 15,-14 1,-2 3,-3 3,-4 1,1 2,3 4,4 4,4 9,9 15,14 5,4 10,9 15,14 3,3 5,5 8,8 2,3 5,5 7,8 1,1 2,2 3,4l0 0c6,8 10,16 9,24 -3,33 99,-87 98,-134 0,-1 0,-2 0,-3 -1,-7 -20,-17 -38,-47 -1,-2 -3,-3 -6,-1 -11,7 -38,44 -113,102 -75,-57 -102,-95 -113,-102 -3,-2 -5,-2 -6,1 -18,30 -37,40 -38,47l0 2c-2,47 101,168 98,135z"/>
    <path class="fil31" d="M688 1499c11,-6 23,-16 35,-30 -4,-6 -9,-12 -13,-18 -5,-7 -11,-15 -16,-24 -2,-3 -4,-7 -6,-10 -2,-4 -5,-8 -7,-12l-1 -2 0 0c-60,-102 -121,-251 -145,-324l0 0c-5,-12 -194,65 -205,70l0 0 0 0c-9,8 62,180 72,237 2,12 3,27 4,43 82,51 177,83 278,91 1,-12 2,-19 4,-20z"/>
    <path class="fil32" d="M1124 1148l-1 -2 0 0c-11,-5 -200,-82 -204,-70l0 0c-22,67 -82,213 -143,315 -2,4 -5,8 -7,11 -5,8 -10,16 -15,23 -3,5 -6,9 -9,14 -4,6 -9,12 -13,18 -2,3 -5,6 -7,8l-2 2c-12,14 -24,25 -35,30 -2,1 -3,8 -4,20 16,1 32,2 48,2 115,0 222,-31 315,-86 0,-19 2,-36 4,-50 10,-56 77,-219 73,-237z"/>
   </g>
  </g>
  <path class="fil33" d="M1473 736c0,407 -330,736 -736,736 -407,0 -736,-330 -736,-736 0,-407 330,-736 736,-736 407,0 736,330 736,736z"/>
  <path class="fil34" d="M882 766c-6,0 -13,-1 -19,-1 -31,-1 -62,-2 -92,4 -9,2 -18,4 -27,7 -13,5 -25,5 -37,0 -4,-2 -7,-3 -11,-4 -28,-6 -57,-9 -86,-8 -13,1 -27,1 -40,2 -6,0 -7,2 -6,8 1,8 2,17 3,25 0,4 1,7 5,10 2,1 3,3 4,5 3,5 6,10 9,14 2,2 4,4 7,6 3,2 7,3 10,4 25,5 50,7 76,5 14,-1 23,-8 28,-22 2,-6 5,-12 7,-18 2,-4 5,-7 9,-6 3,0 5,0 8,0 8,0 9,1 13,9 3,7 5,13 8,20 4,10 12,15 22,17 25,3 50,1 76,-3 12,-2 21,-7 27,-20 2,-4 4,-8 8,-11 3,-3 4,-5 4,-9 0,-1 0,-3 0,-4 1,-8 2,-16 2,-24 0,-5 -1,-6 -5,-6zm-179 29l0 0c-1,13 -5,25 -13,36 -4,5 -9,7 -15,7 -24,2 -48,1 -72,-5 -12,-3 -20,-10 -21,-24 -1,-8 -3,-16 -3,-24 0,-7 3,-10 9,-11 12,-1 22,-3 37,-3 15,0 43,2 64,8 2,0 3,1 5,2 7,3 9,5 9,14zm160 28l0 0c-1,3 -4,5 -7,6 -10,5 -20,7 -30,8 -15,1 -30,1 -45,1 -16,1 -24,-9 -29,-23 -3,-8 -5,-16 -4,-25 0,-5 3,-8 7,-9 13,-5 27,-7 41,-8 9,-1 19,-1 32,-2 9,1 21,1 33,3 7,1 10,5 10,13 0,13 -3,25 -8,36z"/>
 </g>
</svg>
