<?xml version="1.0" encoding="UTF-8"?>
<!DOCTYPE svg PUBLIC "-//W3C//DTD SVG 1.1//EN" "http://www.w3.org/Graphics/SVG/1.1/DTD/svg11.dtd">
<!-- Creator: CorelDRAW X6 -->
<svg xmlns="http://www.w3.org/2000/svg" xml:space="preserve" width="50.2mm" height="50.2mm" version="1.1" style="shape-rendering:geometricPrecision; text-rendering:geometricPrecision; image-rendering:optimizeQuality; fill-rule:evenodd; clip-rule:evenodd"
viewBox="0 0 5020 5020"
 xmlns:xlink="http://www.w3.org/1999/xlink">
 <defs>
  <style type="text/css">
   <![CDATA[
    .str2 {stroke:#D16664;stroke-width:17.53;stroke-linecap:round;stroke-linejoin:round}
    .str3 {stroke:#B0CB1F;stroke-width:20}
    .str1 {stroke:#321A17;stroke-width:26.46;stroke-linecap:round;stroke-linejoin:round}
    .str0 {stroke:white;stroke-width:35.28;stroke-linecap:round;stroke-linejoin:round}
    .fil14 {fill:none}
    .fil4 {fill:none;fill-rule:nonzero}
    .fil0 {fill:#B0CB1F}
    .fil13 {fill:black}
    .fil12 {fill:white}
    .fil6 {fill:#00A0E3;fill-rule:nonzero}
    .fil11 {fill:#2B2A29;fill-rule:nonzero}
    .fil3 {fill:#B2B3B3;fill-rule:nonzero}
    .fil5 {fill:#2B2B2B;fill-rule:nonzero}
    .fil2 {fill:#59342F;fill-rule:nonzero}
    .fil8 {fill:#E2E2E2;fill-rule:nonzero}
    .fil9 {fill:#F78967;fill-rule:nonzero}
    .fil10 {fill:#FFA377;fill-rule:nonzero}
    .fil1 {fill:#FFAF82;fill-rule:nonzero}
    .fil7 {fill:white;fill-rule:nonzero}
   ]]>
  </style>
   <clipPath id="id0">
    <path d="M2510 10c1381,0 2500,1119 2500,2500 0,1381 -1119,2500 -2500,2500 -1381,0 -2500,-1119 -2500,-2500 0,-1381 1119,-2500 2500,-2500z"/>
   </clipPath>
 </defs>
 <g id="Layer_x0020_1">
  <metadata id="CorelCorpID_0Corel-Layer"/>
  <path class="fil0" d="M2510 10c1381,0 2500,1119 2500,2500 0,1381 -1119,2500 -2500,2500 -1381,0 -2500,-1119 -2500,-2500 0,-1381 1119,-2500 2500,-2500z"/>
  <g style="clip-path:url(#id0)">
   <g id="_1824154672">
    <g>
     <g>
      <polygon id="1" class="fil1" points="2967,13127 2927,11996 3318,11996 3300,13108 "/>
      <g>
       <g>
        <path class="fil2" d="M3197 13059c0,0 -49,-147 62,-217 111,-70 168,-41 175,49 8,90 10,144 10,144l-248 23z"/>
        <path class="fil2" d="M3375 12967c0,0 256,179 457,175 0,0 346,6 324,312l-1399 -2c0,0 -85,-253 76,-455 0,0 -85,-266 120,-240l5 150c0,0 25,60 103,37 79,-23 183,-25 313,23z"/>
       </g>
       <polygon class="fil3" points="4158,13609 2758,13609 2758,13452 4158,13452 "/>
       <path class="fil4 str0" d="M3261 13110c0,0 81,-112 197,-92"/>
       <path class="fil4 str0" d="M3359 13166c0,0 81,-112 197,-92"/>
       <path class="fil4 str0" d="M3474 13199c0,0 81,-112 197,-92"/>
       <path class="fil4 str1" d="M2771 13129c0,0 331,43 351,317"/>
       <path class="fil4 str1" d="M3811 13146c0,0 -215,-7 -205,294"/>
      </g>
     </g>
     <g>
      <polygon class="fil1" points="2053,13127 2093,11996 1703,11996 1720,13108 "/>
      <g>
       <g>
        <path class="fil2" d="M1824 13059c0,0 49,-147 -62,-217 -111,-70 -168,-41 -175,49 -8,90 -10,144 -10,144l248 23z"/>
        <path class="fil2" d="M1645 12967c0,0 -256,179 -457,175 0,0 -346,6 -324,312l1399 -2c0,0 85,-253 -76,-455 0,0 85,-266 -120,-240l-5 150c0,0 -25,60 -103,37 -79,-23 -183,-25 -313,23z"/>
       </g>
       <polygon class="fil3" points="862,13609 2262,13609 2262,13452 862,13452 "/>
       <path class="fil4 str0" d="M1759 13110c0,0 -81,-112 -197,-92"/>
       <path class="fil4 str0" d="M1661 13166c0,0 -81,-112 -197,-92"/>
       <path class="fil4 str0" d="M1546 13199c0,0 -81,-112 -197,-92"/>
       <path class="fil4 str1" d="M2249 13129c0,0 -331,43 -351,317"/>
       <path class="fil4 str1" d="M1210 13146c0,0 215,-7 205,294"/>
      </g>
     </g>
     <path class="fil5" d="M1495 7542c-27,-465 64,-805 75,-800 734,-47 1913,-75 1913,-75 2,4 3,9 5,13 0,0 119,413 49,743 -715,438 -1390,528 -2042,119z"/>
     <path class="fil5" d="M1495 7316c0,0 -6,2136 60,2666l68 2796 546 -54c12,-1283 162,-1934 87,-2758l262 -2503c0,0 -472,-165 -1023,-148z"/>
     <g>
      <g>
       <path class="fil6" d="M3582 6847c-207,108 -399,188 -591,236 -145,36 -290,55 -442,54 -134,1 -262,-13 -388,-42 -206,-46 -408,-130 -633,-248l85 -1765 -9 -2059 523 -140 157 -42c87,-23 176,-35 265,-35 89,1 178,12 265,35l177 48 503 135 -9 2059 97 1765z"/>
      </g>
     </g>
     <g>
      <path class="fil7" d="M2991 2888l0 4195c-145,36 -290,55 -442,54 -134,1 -262,-13 -388,-42l-1 -104 -1 -109 -2 -254 -1 -109 -2 -254 -1 -109 -2 -254 -1 -109 -2 -254 -1 -109 -2 -254 -1 -109 -2 -254 -1 -109 -2 -254 -1 -108 -2 -255 -1 -108 -2 -255 -1 -108 -2 -254 -1 -108 -2 -255 -1 -108 0 -9 157 -42c87,-23 176,-35 265,-35 89,1 178,12 265,35l175 47 2 0z"/>
      <g>
       <g>
        <path class="fil8" d="M2991 3000l0 107c-151,26 -298,35 -433,35 -167,0 -316,-14 -430,-31l-1 -108c200,29 526,55 862,-4l2 0z"/>
       </g>
       <g>
        <path class="fil8" d="M2991 3303l0 107c-149,26 -294,35 -427,35 -169,0 -319,-15 -433,-32l-1 -108c200,30 525,58 860,-2z"/>
       </g>
       <g>
        <path class="fil8" d="M2991 3615l0 108c-146,26 -289,35 -421,35 -170,0 -321,-16 -436,-34l-1 -108c200,31 523,60 858,-1z"/>
       </g>
       <g>
        <path class="fil8" d="M2991 3979l0 108c-145,26 -285,35 -415,35 -170,0 -322,-17 -439,-35l-1 -108c200,32 521,62 855,0z"/>
       </g>
       <g>
        <path class="fil8" d="M2991 4344l0 108c-143,26 -282,36 -410,36 -171,0 -324,-17 -441,-37l-1 -108c200,34 519,65 852,2z"/>
       </g>
       <g>
        <path class="fil8" d="M2991 4707l0 108c-141,26 -278,36 -405,36 -172,0 -325,-18 -443,-38l-1 -109c199,35 517,67 849,3z"/>
       </g>
       <g>
        <path class="fil8" d="M2991 5071l0 108c-139,26 -276,36 -401,36 -172,0 -326,-18 -444,-39l-1 -109c199,36 515,69 846,4z"/>
       </g>
       <g>
        <path class="fil8" d="M2991 5435l0 108c-138,26 -273,36 -397,36 -173,0 -326,-19 -445,-41l-1 -109c199,37 513,71 843,5z"/>
       </g>
       <g>
        <path class="fil8" d="M2991 5799l0 108c-137,26 -270,36 -393,36 -173,0 -326,-20 -446,-42l-1 -109c199,39 511,73 840,7z"/>
       </g>
       <g>
        <path class="fil8" d="M2991 6163l0 108c-136,26 -267,37 -390,37 -173,0 -327,-20 -446,-44l-1 -109c199,40 509,75 837,8z"/>
       </g>
       <g>
        <path class="fil8" d="M2991 6527l0 109c-135,26 -265,37 -386,37 -173,0 -327,-21 -447,-45l-1 -109c198,41 507,77 834,9z"/>
       </g>
       <g>
        <path class="fil8" d="M2991 6891l0 109c-134,26 -263,37 -383,37 -173,0 -327,-21 -447,-46l-1 -109c198,42 505,79 831,10z"/>
       </g>
      </g>
     </g>
     <g>
      <g>
       <path class="fil1" d="M942 6845c0,0 40,134 85,232 45,98 14,173 41,261 27,88 -78,82 -99,-11 -20,-92 -12,-136 -31,-139 -19,-3 -74,222 -82,287 -8,65 5,227 -19,252 -24,25 -83,-66 -64,-234 18,-169 5,-165 5,-165 0,0 -16,65 -33,136 -17,70 -17,156 -14,204 3,48 -46,72 -60,46 -14,-26 -37,-193 -18,-259 19,-66 43,-178 43,-178 0,0 -64,151 -75,190 -11,39 7,187 -27,214 -14,11 -59,-4 -51,-215 0,0 15,-103 38,-167 0,0 -35,48 -52,112 -15,56 -23,116 -28,173 -5,57 -55,50 -55,-51 0,-101 17,-212 45,-266 28,-54 70,-368 154,-483l296 62z"/>
      </g>
     </g>
     <g>
      <path class="fil6" d="M1892 3480c0,0 -242,1118 -444,1505 0,0 -111,544 -498,1880 0,0 -202,80 -320,-73 0,0 187,-1469 300,-1938 0,0 505,-1623 675,-1832 0,0 261,106 288,458z"/>
     </g>
     <g>
      <g>
       <path class="fil1" d="M4165 6845c0,0 -40,134 -85,232 -45,98 -14,173 -41,261 -27,88 78,82 99,-11 20,-92 12,-136 31,-139 19,-3 74,222 82,287 8,65 -5,227 19,252 24,25 83,-66 64,-234 -18,-169 -5,-165 -5,-165 0,0 16,65 33,136 17,70 17,156 14,204 -3,48 46,72 60,46 14,-26 37,-193 18,-259 -19,-66 -43,-178 -43,-178 0,0 64,151 75,190 11,39 -7,187 27,214 14,11 59,-4 51,-215 0,0 -15,-103 -38,-167 0,0 35,48 52,112 15,56 23,116 28,173 5,57 55,50 55,-51 0,-101 -17,-212 -45,-266 -28,-54 -70,-368 -154,-483l-296 62z"/>
      </g>
     </g>
     <g>
      <path class="fil6" d="M3215 3480c0,0 242,1118 444,1505 0,0 111,544 498,1880 0,0 202,80 320,-73 0,0 -187,-1469 -300,-1938 0,0 -505,-1623 -675,-1832 0,0 -261,106 -288,458z"/>
     </g>
     <g>
      <g>
       <path class="fil1" d="M2824 2546l-9 171 -11 214c0,0 -43,81 -235,81 -192,0 -231,-55 -231,-55l-8 -95 -26 -316 520 0z"/>
      </g>
      <g>
       <path class="fil9" d="M2824 2546l-9 171c-80,60 -270,178 -485,145l-26 -316 520 0z"/>
      </g>
     </g>
     <g>
      <g>
       <path class="fil10" d="M1976 1768c0,0 -147,-144 -265,-50 -139,111 6,510 253,468l12 -418z"/>
      </g>
     </g>
     <g>
      <g>
       <path class="fil10" d="M3100 1768c0,0 147,-144 265,-50 139,111 -6,510 -253,468l-12 -418z"/>
      </g>
     </g>
     <path class="fil1" d="M2545 2714c-508,0 -665,-604 -712,-1046 -43,-408 273,-767 683,-771 5,0 11,0 16,0 7,0 14,0 20,0 405,5 720,355 685,758 -39,448 -185,1059 -693,1059z"/>
     <path class="fil11" d="M3205 464c258,176 25,520 25,520 0,0 257,251 -8,843l-47 -10c30,-189 12,-420 0,-456 -36,-108 -226,-166 -216,-283 0,0 -582,182 -897,3 0,0 -25,150 -111,244 -72,79 -31,355 -22,474l-48 5c-29,-121 -99,-340 -106,-404 -5,-41 -22,-202 -29,-317 -6,-101 12,-202 57,-293 25,-50 60,-100 109,-136 169,-126 1060,-351 1293,-191z"/>
     <g>
      <g>
       <path class="fil12" d="M2389 1819c0,0 -44,-113 -153,-118 -109,-5 -174,81 -174,81 0,0 28,96 159,102 132,6 167,-65 167,-65z"/>
       <path class="fil13" d="M2117 1789c-1,31 10,59 29,79 20,9 45,15 76,16 27,1 50,-1 69,-5 24,-19 41,-48 42,-81 1,-29 -9,-56 -27,-77 -20,-12 -43,-20 -71,-21 -34,-2 -63,6 -88,16 -18,18 -30,43 -31,71z"/>
       <path class="fil13" d="M2396 1817c0,0 -11,-30 -36,-61 -25,-30 -65,-61 -124,-62l-2 0c-114,0 -176,83 -177,84l1 9 9 -1 3 -3c13,-15 69,-75 163,-75l2 0c54,1 90,29 114,57 12,14 20,28 26,39 3,5 5,10 6,13l2 5c1,3 5,5 8,4 3,-1 5,-5 4,-8z"/>
      </g>
      <g>
       <path class="fil12" d="M3006 1819c0,0 -44,-113 -153,-118 -109,-5 -174,81 -174,81 0,0 28,96 159,102 132,6 167,-65 167,-65z"/>
       <path class="fil13" d="M2734 1789c-1,31 10,59 29,79 20,9 45,15 76,16 27,1 50,-1 69,-5 24,-19 41,-48 42,-81 1,-29 -9,-56 -27,-77 -20,-12 -43,-20 -71,-21 -34,-2 -63,6 -88,16 -18,18 -30,43 -31,71z"/>
       <path class="fil13" d="M3012 1817c0,0 -11,-30 -36,-61 -25,-30 -65,-61 -124,-62l-2 0c-114,0 -176,83 -177,84l1 9 9 -1 3 -3c13,-15 69,-75 163,-75l2 0c54,1 90,29 114,57 12,14 20,28 26,39 3,5 5,10 6,13l2 5c1,3 5,5 8,4 3,-1 5,-5 4,-8z"/>
      </g>
     </g>
     <g>
      <path class="fil13" d="M2210 1487c0,0 -110,14 -163,47 -33,20 -32,58 8,71 36,12 114,4 161,-1 114,-13 189,-55 182,-90 -9,-45 -128,-38 -187,-27z"/>
      <path class="fil13" d="M2871 1487c0,0 104,14 154,47 31,20 30,58 -7,71 -34,12 -108,4 -152,-1 -107,-13 -178,-55 -172,-90 9,-45 120,-38 177,-27z"/>
     </g>
     <path class="fil7" d="M2369 2300l333 0c0,0 -56,104 -179,98 -123,-6 -154,-98 -154,-98z"/>
     <g>
      <line class="fil4 str2" x1="2472" y1="1772" x2="2472" y2= "2103" />
      <path class="fil4 str2" d="M2472 2103c0,7 1,14 4,21 10,25 39,38 66,30"/>
      <line class="fil4 str2" x1="2542" y1="2154" x2="2598" y2= "2139" />
     </g>
     <path class="fil5" d="M3554 7316c0,0 6,2136 -60,2666l-68 2796 -546 -54c-12,-1283 -162,-1934 -87,-2758l-262 -2503c0,0 472,-165 1023,-148z"/>
    </g>
   </g>
  </g>
  <path class="fil14 str3" d="M2510 10c1381,0 2500,1119 2500,2500 0,1381 -1119,2500 -2500,2500 -1381,0 -2500,-1119 -2500,-2500 0,-1381 1119,-2500 2500,-2500z"/>
 </g>
</svg>
