<?xml version="1.0" encoding="UTF-8"?>
<!DOCTYPE svg PUBLIC "-//W3C//DTD SVG 1.1//EN" "http://www.w3.org/Graphics/SVG/1.1/DTD/svg11.dtd">
<!-- Creator: CorelDRAW X6 -->
<svg xmlns="http://www.w3.org/2000/svg" xml:space="preserve" width="50mm" height="50mm" version="1.1" style="shape-rendering:geometricPrecision; text-rendering:geometricPrecision; image-rendering:optimizeQuality; fill-rule:evenodd; clip-rule:evenodd"
viewBox="0 0 1497 1497"
 xmlns:xlink="http://www.w3.org/1999/xlink">
 <defs>
  <style type="text/css">
   <![CDATA[
    .str5 {stroke:#D16664;stroke-width:3.93413;stroke-linecap:round;stroke-linejoin:round}
    .str4 {stroke:#D16664;stroke-width:5.2485;stroke-linecap:round;stroke-linejoin:round}
    .str1 {stroke:#A2D9F7;stroke-width:5.98802}
    .str0 {stroke:#B0CB1F;stroke-width:5.98802}
    .str3 {stroke:#321A17;stroke-width:7.92216;stroke-linecap:round;stroke-linejoin:round}
    .str2 {stroke:white;stroke-width:10.5629;stroke-linecap:round;stroke-linejoin:round}
    .fil26 {fill:none}
    .fil16 {fill:none;fill-rule:nonzero}
    .fil23 {fill:#727271}
    .fil1 {fill:#A2D9F7}
    .fil0 {fill:#B0CB1F}
    .fil22 {fill:black}
    .fil5 {fill:#524798}
    .fil4 {fill:#5E54AC}
    .fil11 {fill:#80B4FB}
    .fil10 {fill:#8B5E5E}
    .fil8 {fill:#9DC6FB}
    .fil9 {fill:#AA8080}
    .fil7 {fill:#D8E2F1}
    .fil3 {fill:#E7A52E}
    .fil6 {fill:#E7ECF6}
    .fil2 {fill:#EAB14D}
    .fil12 {fill:#FFD064}
    .fil21 {fill:white}
    .fil18 {fill:#00A0E3;fill-rule:nonzero}
    .fil24 {fill:#727271;fill-rule:nonzero}
    .fil15 {fill:#B2B3B3;fill-rule:nonzero}
    .fil25 {fill:black;fill-rule:nonzero}
    .fil17 {fill:#2B2B2B;fill-rule:nonzero}
    .fil14 {fill:#59342F;fill-rule:nonzero}
    .fil19 {fill:#F78967;fill-rule:nonzero}
    .fil20 {fill:#FFA377;fill-rule:nonzero}
    .fil13 {fill:#FFAF82;fill-rule:nonzero}
   ]]>
  </style>
   <clipPath id="id0">
    <path d="M749 0c413,0 749,335 749,749 0,413 -335,749 -749,749 -413,0 -749,-335 -749,-749 0,-413 335,-749 749,-749z"/>
   </clipPath>
 </defs>
 <g id="Layer_x0020_1">
  <metadata id="CorelCorpID_0Corel-Layer"/>
  <path class="fil0" d="M749 0c413,0 749,335 749,749 0,413 -335,749 -749,749 -413,0 -749,-335 -749,-749 0,-413 335,-749 749,-749z"/>
  <g style="clip-path:url(#id0)">
   <g id="_1791716832">
    <rect class="fil0 str0" x="-233" y="1024" width="2006" height="516"/>
    <rect class="fil1 str1" x="-233" y="-139" width="2006" height="1163"/>
    <g>
     <path class="fil2" d="M760 534l162 162c6,6 14,9 22,9l230 0 0 430 -838 0 0 -430 230 0c8,0 16,-3 22,-9l162 -162c3,-3 8,-3 10,0z"/>
     <path class="fil3" d="M944 705c-8,0 -16,-3 -22,-9l-162 -162c-3,-3 -8,-3 -10,0l-162 162c-6,6 -14,9 -22,9l-230 0 0 41 230 0c19,0 37,-8 51,-21l125 -125c7,-7 19,-7 26,0l125 125c14,14 32,21 51,21l170 0c10,0 19,8 19,19l0 371 41 0 0 -430 -230 0z"/>
     <path class="fil4" d="M733 462c12,-12 32,-12 45,0l180 180 217 0 -87 -235c-5,-15 -19,-24 -35,-24l-593 0c-15,0 -29,10 -35,24l-87 235 217 0 180 -180z"/>
     <path class="fil5" d="M1087 406c-5,-15 -19,-24 -35,-24l-56 0c15,0 29,10 35,24l87 235 56 0 -87 -235z"/>
     <path class="fil6" d="M1211 686c0,10 -8,19 -19,19l-248 0c-8,0 -16,-3 -22,-9l-162 -162c-3,-3 -8,-3 -10,0l-162 162c-6,6 -14,9 -22,9l-248 0c-10,0 -19,-8 -19,-19l0 -26c0,-10 8,-19 19,-19l235 0 180 -180c12,-12 32,-12 45,0l180 180 235 0c10,0 19,8 19,19l0 26z"/>
     <path class="fil7" d="M1192 642l-63 0c10,0 19,8 19,19l0 26c0,10 -8,19 -19,19l63 0c10,0 19,-8 19,-19l0 -26c0,-10 -8,-19 -19,-19z"/>
     <path class="fil8" d="M928 860l0 167 185 0 0 -167c0,-10 -8,-18 -18,-18l-149 0c-10,0 -18,8 -18,18z"/>
     <path class="fil9" d="M928 1027l0 41c0,10 8,18 18,18l149 0c10,0 18,-8 18,-18l0 -41 -185 0z"/>
     <path class="fil8" d="M583 860l0 167 -185 0 0 -167c0,-10 8,-18 18,-18l149 0c10,0 18,8 18,18z"/>
     <path class="fil9" d="M583 1027l0 41c0,10 -8,18 -18,18l-149 0c-10,0 -18,-8 -18,-18l0 -41 185 0z"/>
     <path class="fil10" d="M859 860l0 274 -208 0 0 -114 9 -14 -9 -14 0 -133c0,-10 8,-18 18,-18l171 0c10,0 18,8 18,18z"/>
     <path class="fil8" d="M711 949l0 -37c0,-6 5,-11 11,-11l67 0c6,0 11,5 11,11l0 37c0,6 -5,11 -11,11l-67 0c-6,0 -11,-5 -11,-11z"/>
     <path class="fil8" d="M815 714c0,33 -27,59 -59,59 -33,0 -59,-27 -59,-59 0,-33 27,-59 59,-59 33,0 59,27 59,59z"/>
     <path class="fil4" d="M1193 1198l-875 0c-10,0 -18,-8 -18,-18l0 -26c0,-10 8,-18 18,-18l875 0c10,0 18,8 18,18l0 26c0,10 -8,18 -18,18z"/>
     <path class="fil5" d="M1148 1135l0 63 45 0c10,0 18,-8 18,-18l0 -26c0,-10 -8,-18 -18,-18l-45 0z"/>
     <polygon class="fil11" points="1113,921 1034,921 1034,842 1006,842 1006,921 928,921 928,948 1006,948 1006,1027 1034,1027 1034,948 1113,948 "/>
     <polygon class="fil11" points="583,921 504,921 504,842 476,842 476,921 398,921 398,948 476,948 476,1027 504,1027 504,948 583,948 "/>
     <path class="fil12" d="M651 993l33 0c8,0 14,6 14,14 0,8 -6,14 -14,14l-33 0 0 -28z"/>
    </g>
    <g>
     <g>
      <polygon class="fil13" points="952,2151 956,2025 913,2025 915,2149 "/>
      <g>
       <g>
        <path class="fil14" d="M926 2143c0,0 5,-16 -7,-24 -12,-8 -19,-5 -19,5 -1,10 -1,16 -1,16l28 3z"/>
        <path class="fil14" d="M906 2133c0,0 -29,20 -51,19 0,0 -38,1 -36,35l156 0c0,0 9,-28 -8,-51 0,0 9,-30 -13,-27l-1 17c0,0 -3,7 -11,4 -9,-3 -20,-3 -35,3z"/>
       </g>
       <polygon class="fil15" points="819,2205 975,2205 975,2187 819,2187 "/>
       <path class="fil16 str2" d="M919 2149c0,0 -9,-12 -22,-10"/>
       <path class="fil16 str2" d="M908 2155c0,0 -9,-12 -22,-10"/>
       <path class="fil16 str2" d="M896 2159c0,0 -9,-12 -22,-10"/>
       <path class="fil16 str3" d="M974 2151c0,0 -37,5 -39,35"/>
       <path class="fil16 str3" d="M858 2153c0,0 24,-1 23,33"/>
      </g>
     </g>
     <g>
      <polygon class="fil13" points="1059,2151 1055,2025 1098,2025 1096,2149 "/>
      <g>
       <g>
        <path class="fil14" d="M1084 2143c0,0 -5,-16 7,-24 12,-8 19,-5 19,5 1,10 1,16 1,16l-28 3z"/>
        <path class="fil14" d="M1104 2133c0,0 29,20 51,19 0,0 38,1 36,35l-156 0c0,0 -9,-28 8,-51 0,0 -9,-30 13,-27l1 17c0,0 3,7 11,4 9,-3 20,-3 35,3z"/>
       </g>
       <polygon class="fil15" points="1191,2205 1036,2205 1036,2187 1191,2187 "/>
       <path class="fil16 str2" d="M1092 2149c0,0 9,-12 22,-10"/>
       <path class="fil16 str2" d="M1103 2155c0,0 9,-12 22,-10"/>
       <path class="fil16 str2" d="M1115 2159c0,0 9,-12 22,-10"/>
       <path class="fil16 str3" d="M1037 2151c0,0 37,5 39,35"/>
       <path class="fil16 str3" d="M1153 2153c0,0 -24,-1 -23,33"/>
      </g>
     </g>
     <g>
      <path class="fil17" d="M891 1530c-3,-52 7,-90 8,-89 82,-5 213,-8 213,-8 0,0 0,1 1,1 0,0 13,46 5,83 -79,49 -155,59 -227,13z"/>
      <path class="fil17" d="M891 1505c0,0 -1,237 7,296l8 311 61 -6c1,-143 18,-215 10,-307l29 -278c0,0 -52,-18 -114,-16z"/>
      <path class="fil17" d="M1120 1505c0,0 1,237 -7,296l-8 311 -61 -6c-1,-143 -18,-215 -10,-307l-29 -278c0,0 52,-18 114,-16z"/>
     </g>
     <g>
      <g>
       <path class="fil18" d="M1129 1505c-25,13 -48,23 -71,29 -17,5 -35,7 -53,7 -16,0 -31,-2 -47,-5 -25,-6 -49,-16 -76,-31l10 -219 -1 -255 63 -17 19 -5c10,-3 21,-4 32,-4 11,0 21,1 32,4l21 6 60 17 -1 255 12 219z"/>
      </g>
     </g>
     <g>
      <g>
       <path class="fil13" d="M817 1456c0,0 5,15 9,26 5,11 2,19 5,29 3,10 -9,9 -11,-1 -2,-10 -1,-15 -3,-15 -2,0 -8,25 -9,32 -1,7 1,25 -2,28 -3,3 -9,-7 -7,-26 2,-19 1,-18 1,-18 0,0 -2,7 -4,15 -2,8 -2,17 -2,23 0,5 -5,8 -7,5 -2,-3 -4,-22 -2,-29 2,-7 5,-20 5,-20 0,0 -7,17 -8,21 -1,4 1,21 -3,24 -2,1 -7,0 -6,-24 0,0 2,-11 4,-19 0,0 -4,5 -6,12 -2,6 -3,13 -3,19 -1,6 -6,6 -6,-6 0,-11 2,-24 5,-30 3,-6 8,-41 17,-54l33 7z"/>
      </g>
     </g>
     <g>
      <g>
       <path class="fil13" d="M1191 1456c0,0 -5,15 -9,26 -5,11 -2,19 -5,29 -3,10 9,9 11,-1 2,-10 1,-15 3,-15 2,0 8,25 9,32 1,7 -1,25 2,28 3,3 9,-7 7,-26 -2,-19 -1,-18 -1,-18 0,0 2,7 4,15 2,8 2,17 2,23 0,5 5,8 7,5 2,-3 4,-22 2,-29 -2,-7 -5,-20 -5,-20 0,0 7,17 8,21 1,4 -1,21 3,24 2,1 7,0 6,-24 0,0 -2,-11 -4,-19 0,0 4,5 6,12 2,6 3,13 3,19 1,6 6,6 6,-6 0,-11 -2,-24 -5,-30 -3,-6 -8,-41 -17,-54l-33 7z"/>
      </g>
     </g>
     <g>
      <path class="fil18" d="M923 1081c0,0 -27,124 -49,167 0,0 -12,61 -55,209 0,0 -22,9 -36,-8 0,0 21,-163 33,-215 0,0 56,-180 75,-204 0,0 29,12 32,51z"/>
     </g>
     <g>
      <path class="fil18" d="M1086 1081c0,0 27,124 49,167 0,0 12,61 55,209 0,0 22,9 36,-8 0,0 -21,-163 -33,-215 0,0 -56,-180 -75,-204 0,0 -29,12 -32,51z"/>
     </g>
     <g>
      <g>
       <path class="fil13" d="M1034 975l-1 25 -1 32c0,0 -5,12 -26,12 -21,0 -26,-8 -26,-8l-1 -14 -3 -47 58 0z"/>
      </g>
      <g>
       <path class="fil19" d="M1034 975l-1 25c-9,9 -30,27 -54,22l-3 -47 58 0z"/>
      </g>
     </g>
     <g>
      <g>
       <path class="fil20" d="M940 888c0,0 -16,-16 -29,-6 -15,12 1,57 28,52l1 -46z"/>
      </g>
     </g>
     <g>
      <g>
       <path class="fil20" d="M1065 888c0,0 16,-16 29,-6 15,12 -1,57 -28,52l-1 -46z"/>
      </g>
     </g>
     <path class="fil13" d="M1004 993c-62,0 -81,-76 -87,-132 -5,-51 33,-96 83,-97 1,0 1,0 2,0 1,0 2,0 2,0 49,1 88,45 84,95 -5,56 -23,133 -85,133z"/>
     <g>
      <path class="fil21" d="M987 894c0,0 -5,-13 -17,-13 -12,-1 -19,9 -19,9 0,0 3,11 18,11 15,1 19,-7 19,-7z"/>
      <path class="fil22" d="M957 890c0,3 1,7 3,9 2,1 5,2 8,2 3,0 6,0 8,-1 3,-2 5,-5 5,-9 0,-3 -1,-6 -3,-9 -2,-1 -5,-2 -8,-2 -4,0 -7,1 -10,2 -2,2 -3,5 -3,8z"/>
      <path class="fil22" d="M988 894c0,0 -1,-3 -4,-7 -3,-3 -7,-7 -14,-7l0 0c-13,0 -20,9 -20,9l0 1 1 0 0 0c1,-2 8,-8 18,-8l0 0c6,0 10,3 13,6 1,2 2,3 3,4 0,1 1,1 1,1l0 1c0,0 1,1 1,0 0,0 1,-1 0,-1z"/>
     </g>
     <g>
      <path class="fil21" d="M1054 894c0,0 -5,-13 -17,-13 -12,-1 -19,9 -19,9 0,0 3,11 18,11 15,1 19,-7 19,-7z"/>
      <path class="fil22" d="M1024 890c0,3 1,7 3,9 2,1 5,2 8,2 3,0 6,0 8,-1 3,-2 5,-5 5,-9 0,-3 -1,-6 -3,-9 -2,-1 -5,-2 -8,-2 -4,0 -7,1 -10,2 -2,2 -3,5 -3,8z"/>
      <path class="fil22" d="M1055 894c0,0 -1,-3 -4,-7 -3,-3 -7,-7 -14,-7l0 0c-13,0 -20,9 -20,9l0 1 1 0 0 0c1,-2 8,-8 18,-8l0 0c6,0 10,3 13,6 1,2 2,3 3,4 0,1 1,1 1,1l0 1c0,0 1,1 1,0 0,0 1,-1 0,-1z"/>
     </g>
     <path class="fil23" d="M961 857c0,0 -12,2 -18,5 -4,2 -4,6 1,8 4,1 13,0 18,0 13,-1 21,-6 20,-10 -1,-5 -14,-4 -21,-3z"/>
     <path class="fil23" d="M1048 857c0,0 12,2 17,5 3,2 3,6 -1,8 -4,1 -12,0 -17,0 -12,-1 -20,-6 -19,-10 1,-5 13,-4 20,-3z"/>
     <g>
      <line class="fil16 str4" x1="1000" y1="889" x2="1000" y2= "925" />
      <path class="fil16 str4" d="M1000 925c0,1 0,2 0,2 1,3 4,4 7,3"/>
      <line class="fil16 str4" x1="1007" y1="931" x2="1014" y2= "929" />
     </g>
     <path class="fil24" d="M929 914c0,0 -25,-57 -19,-103 0,0 12,-48 45,-48 0,0 20,-29 42,-9 0,0 36,-20 52,9 0,0 31,-3 39,30 0,0 20,9 6,70 0,0 -12,33 -14,46 0,0 -2,-30 1,-49 0,0 7,-38 -11,-51 0,0 -14,-15 -41,2 0,0 -21,18 -43,0 -22,-18 -34,-13 -46,0 0,0 -15,14 -10,37 0,0 5,46 1,67z"/>
     <line class="fil16 str4" x1="983" y1="951" x2="1023" y2= "951" />
     <path class="fil16 str5" d="M993 963c0,0 9,3 19,0"/>
     <path class="fil25" d="M1061 892c-2,0 -5,0 -7,0 -12,0 -23,-1 -35,2 -3,1 -7,1 -10,3 -5,2 -9,2 -14,0 -1,-1 -3,-1 -4,-1 -11,-2 -21,-4 -32,-3 -5,0 -10,0 -15,1 -2,0 -3,1 -2,3 0,3 1,6 1,10 0,2 0,3 2,4 1,0 1,1 2,2 1,2 2,4 3,5 1,1 2,2 3,2 1,1 2,1 4,1 9,2 19,3 29,2 5,0 9,-3 11,-8 1,-2 2,-4 3,-7 1,-2 2,-2 3,-2 1,0 2,0 3,0 3,0 4,0 5,3 1,3 2,5 3,7 2,4 4,6 8,6 10,1 19,0 29,-1 5,-1 8,-3 10,-7 1,-2 2,-3 3,-4 1,-1 1,-2 2,-3 0,-1 0,-1 0,-2 0,-3 1,-6 1,-9 0,-2 0,-2 -2,-2zm-68 11l0 0c0,5 -2,10 -5,14 -1,2 -3,2 -6,3 -9,1 -18,1 -27,-2 -5,-1 -7,-4 -8,-9 0,-3 -1,-6 -1,-9 0,-2 1,-4 4,-4 5,-1 8,-1 14,-1 6,0 16,1 24,3 1,0 1,0 2,1 3,1 3,2 3,5zm60 11l0 0c0,1 -2,2 -3,2 -4,2 -8,3 -11,3 -6,0 -11,0 -17,1 -6,0 -9,-3 -11,-9 -1,-3 -2,-6 -2,-9 0,-2 1,-3 3,-3 5,-2 10,-3 16,-3 4,0 7,0 12,-1 3,0 8,1 13,1 3,0 4,2 4,5 0,5 -1,9 -3,14z"/>
    </g>
   </g>
  </g>
  <path class="fil26" d="M749 0c413,0 749,335 749,749 0,413 -335,749 -749,749 -413,0 -749,-335 -749,-749 0,-413 335,-749 749,-749z"/>
 </g>
</svg>
