<?xml version="1.0" encoding="UTF-8"?>
<!DOCTYPE svg PUBLIC "-//W3C//DTD SVG 1.1//EN" "http://www.w3.org/Graphics/SVG/1.1/DTD/svg11.dtd">
<!-- Creator: CorelDRAW X6 -->
<svg xmlns="http://www.w3.org/2000/svg" xml:space="preserve" width="49.9999mm" height="50mm" version="1.1" style="shape-rendering:geometricPrecision; text-rendering:geometricPrecision; image-rendering:optimizeQuality; fill-rule:evenodd; clip-rule:evenodd"
viewBox="0 0 4923 4923"
 xmlns:xlink="http://www.w3.org/1999/xlink">
 <defs>
  <style type="text/css">
   <![CDATA[
    .str2 {stroke:#D16664;stroke-width:17.2608;stroke-linecap:round;stroke-linejoin:round}
    .str1 {stroke:#321A17;stroke-width:26.0537;stroke-linecap:round;stroke-linejoin:round}
    .str0 {stroke:white;stroke-width:34.7383;stroke-linecap:round;stroke-linejoin:round}
    .fil17 {fill:none}
    .fil4 {fill:none;fill-rule:nonzero}
    .fil10 {fill:black}
    .fil0 {fill:#0C3853}
    .fil16 {fill:#191819}
    .fil15 {fill:#222123}
    .fil12 {fill:#9BAEC9}
    .fil13 {fill:#9D2B3B}
    .fil14 {fill:#C1D4F2}
    .fil18 {fill:#EACCB0}
    .fil9 {fill:white}
    .fil8 {fill:#2B2A29;fill-rule:nonzero}
    .fil3 {fill:#B2B3B3;fill-rule:nonzero}
    .fil5 {fill:#2B2B2B;fill-rule:nonzero}
    .fil2 {fill:#59342F;fill-rule:nonzero}
    .fil6 {fill:#F78967;fill-rule:nonzero}
    .fil7 {fill:#FFA377;fill-rule:nonzero}
    .fil1 {fill:#FFAF82;fill-rule:nonzero}
    .fil11 {fill:white;fill-rule:nonzero}
   ]]>
  </style>
   <clipPath id="id0">
    <path d="M4923 2462c0,1360 -1102,2462 -2461,2462 -1360,0 -2462,-1102 -2462,-2462 0,-1359 1102,-2462 2462,-2462 1360,0 2461,1102 2461,2462z"/>
   </clipPath>
 </defs>
 <g id="Layer_x0020_1">
  <metadata id="CorelCorpID_0Corel-Layer"/>
  <path class="fil0" d="M4923 2462c0,1360 -1102,2462 -2461,2462 -1360,0 -2462,-1102 -2462,-2462 0,-1359 1102,-2462 2462,-2462 1360,0 2461,1102 2461,2462z"/>
  <g style="clip-path:url(#id0)">
   <g id="_1150994656">
    <g>
     <polygon id="1" class="fil1" points="2873,13446 2834,12333 3218,12333 3201,13427 "/>
     <g>
      <g>
       <path class="fil2" d="M3099 13379c0,0 -48,-145 61,-213 109,-69 165,-41 173,48 8,89 10,142 10,142l-244 23z"/>
       <path class="fil2" d="M3275 13289c0,0 252,176 450,172 0,0 340,6 319,307l-1377 -2c0,0 -83,-250 75,-448 0,0 -83,-262 118,-236l5 148c0,0 24,59 102,36 78,-23 180,-25 308,22z"/>
      </g>
      <polygon class="fil3" points="4046,13921 2668,13921 2668,13766 4046,13766 "/>
      <path class="fil4 str0" d="M3163 13430c0,0 80,-110 194,-91"/>
      <path class="fil4 str0" d="M3260 13484c0,0 80,-110 194,-91"/>
      <path class="fil4 str0" d="M3372 13517c0,0 80,-110 194,-91"/>
      <path class="fil4 str1" d="M2680 13448c0,0 326,42 346,313"/>
      <path class="fil4 str1" d="M3704 13465c0,0 -212,-7 -202,290"/>
     </g>
    </g>
    <g>
     <polygon class="fil1" points="1973,13446 2013,12333 1628,12333 1646,13427 "/>
     <g>
      <g>
       <path class="fil2" d="M1747 13379c0,0 48,-145 -61,-213 -109,-69 -165,-41 -173,48 -8,89 -10,142 -10,142l244 23z"/>
       <path class="fil2" d="M1571 13289c0,0 -252,176 -450,172 0,0 -340,6 -319,307l1377 -2c0,0 83,-250 -75,-448 0,0 83,-262 -118,-236l-5 148c0,0 -24,59 -102,36 -78,-23 -180,-25 -308,22z"/>
      </g>
      <polygon class="fil3" points="801,13921 2179,13921 2179,13766 801,13766 "/>
      <path class="fil4 str0" d="M1684 13430c0,0 -80,-110 -194,-91"/>
      <path class="fil4 str0" d="M1587 13484c0,0 -80,-110 -194,-91"/>
      <path class="fil4 str0" d="M1475 13517c0,0 -80,-110 -194,-91"/>
      <path class="fil4 str1" d="M2167 13448c0,0 -326,42 -346,313"/>
      <path class="fil4 str1" d="M1143 13465c0,0 212,-7 202,290"/>
     </g>
    </g>
    <path class="fil5" d="M1424 7947c-26,-458 63,-793 73,-788 723,-46 1884,-74 1884,-74 2,4 3,9 5,13 0,0 117,407 48,732 -704,431 -1368,520 -2010,117z"/>
    <path class="fil5" d="M1424 7724c0,0 -6,2103 59,2625l67 2753 538 -53c12,-1264 160,-1904 86,-2715l258 -2464c0,0 -465,-163 -1007,-146z"/>
    <g>
     <g>
      <path class="fil1" d="M880 7261c0,0 40,132 84,228 44,96 14,170 40,257 27,87 -77,80 -97,-11 -20,-91 -11,-134 -30,-137 -19,-3 -73,219 -81,282 -8,64 5,223 -19,248 -24,25 -81,-65 -63,-231 18,-166 5,-162 5,-162 0,0 -16,64 -32,134 -16,69 -17,154 -13,201 3,47 -45,71 -59,45 -14,-25 -37,-190 -18,-255 19,-65 43,-175 43,-175 0,0 -63,148 -74,187 -11,38 7,185 -26,211 -14,11 -58,-4 -51,-212 0,0 15,-102 37,-165 0,0 -34,47 -51,110 -15,56 -23,114 -28,170 -5,56 -54,49 -54,-50 0,-99 17,-209 45,-262 28,-53 69,-362 151,-476l292 61z"/>
     </g>
    </g>
    <g>
     <g>
      <path class="fil1" d="M4053 7261c0,0 -40,132 -84,228 -44,96 -14,170 -40,257 -27,87 77,80 97,-11 20,-91 11,-134 30,-137 19,-3 73,219 81,282 8,64 -5,223 19,248 24,25 81,-65 63,-231 -18,-166 -5,-162 -5,-162 0,0 16,64 32,134 16,69 17,154 13,201 -3,47 45,71 59,45 14,-25 37,-190 18,-255 -19,-65 -43,-175 -43,-175 0,0 63,148 74,187 11,38 -7,185 26,211 14,11 58,-4 51,-212 0,0 -15,-102 -37,-165 0,0 34,47 51,110 15,56 23,114 28,170 5,56 54,49 54,-50 0,-99 -17,-209 -45,-262 -28,-53 -69,-362 -151,-476l-292 61z"/>
     </g>
    </g>
    <g>
     <g>
      <g>
       <path class="fil1" d="M2767 3027l-11 233 -14 292c0,0 -54,110 -295,110 -242,0 -291,-75 -291,-75l-10 -129 -32 -430 655 0z"/>
      </g>
      <g>
       <path class="fil6" d="M2767 3027l-11 233c-101,82 -340,242 -611,197l-32 -430 655 0z"/>
      </g>
     </g>
     <g>
      <g>
       <path class="fil7" d="M1897 2262c0,0 -145,-142 -261,-49 -137,109 6,502 249,461l12 -412z"/>
      </g>
     </g>
     <g>
      <g>
       <path class="fil7" d="M3004 2262c0,0 145,-142 261,-49 137,109 -6,502 -249,461l-12 -412z"/>
      </g>
     </g>
     <path class="fil1" d="M2458 3193c-500,0 -655,-594 -701,-1030 -42,-401 269,-755 673,-760 5,0 11,0 16,0 7,0 13,0 20,0 399,5 709,349 675,746 -38,441 -182,1043 -682,1043z"/>
     <path class="fil8" d="M3107 978c254,174 24,512 24,512 0,0 253,247 -7,830l-46 -9c30,-187 12,-414 0,-449 -35,-107 -222,-163 -213,-278 0,0 -573,179 -883,3 0,0 -24,148 -109,241 -71,78 -31,349 -21,466l-48 5c-28,-120 -97,-335 -104,-398 -5,-40 -22,-198 -29,-312 -6,-99 11,-199 56,-288 25,-49 59,-98 107,-134 166,-124 1043,-346 1274,-188z"/>
     <g>
      <g>
       <path class="fil9" d="M2304 2312c0,0 -44,-111 -151,-116 -107,-5 -171,80 -171,80 0,0 27,94 157,101 130,6 165,-64 165,-64z"/>
       <path class="fil10" d="M2036 2282c-1,30 10,58 29,78 20,9 44,15 74,16 27,1 49,-1 68,-5 24,-18 40,-47 42,-80 1,-29 -9,-55 -26,-75 -19,-11 -42,-20 -70,-21 -33,-2 -62,5 -86,16 -18,18 -30,43 -31,70z"/>
       <path class="fil10" d="M2311 2310c0,0 -10,-30 -35,-60 -25,-30 -64,-60 -122,-61l-2 0c-113,0 -173,82 -174,82l1 9 9 -1 3 -3c12,-15 68,-74 161,-74l2 0c53,1 89,28 112,56 12,14 20,28 25,39 3,5 5,10 6,13l2 5c1,3 5,5 8,4 3,-1 5,-5 4,-8z"/>
      </g>
      <g>
       <path class="fil9" d="M2912 2312c0,0 -44,-111 -151,-116 -107,-5 -171,80 -171,80 0,0 27,94 157,101 130,6 165,-64 165,-64z"/>
       <path class="fil10" d="M2644 2282c-1,30 10,58 29,78 20,9 44,15 74,16 27,1 49,-1 68,-5 24,-18 40,-47 42,-80 1,-29 -9,-55 -26,-75 -19,-11 -42,-20 -70,-21 -33,-2 -62,5 -86,16 -18,18 -30,43 -31,70z"/>
       <path class="fil10" d="M2918 2310c0,0 -10,-30 -35,-60 -25,-30 -64,-60 -122,-61l-2 0c-113,0 -173,82 -174,82l1 9 9 -1 3 -3c12,-15 68,-74 161,-74l2 0c53,1 89,28 112,56 12,14 20,28 25,39 3,5 5,10 6,13l2 5c1,3 5,5 8,4 3,-1 5,-5 4,-8z"/>
      </g>
     </g>
     <g>
      <path class="fil10" d="M2128 1985c0,0 -108,14 -160,47 -32,20 -31,57 8,70 36,12 113,4 158,-1 112,-13 186,-54 179,-89 -9,-45 -126,-37 -185,-27z"/>
      <path class="fil10" d="M2779 1985c0,0 102,14 151,47 30,20 30,57 -7,70 -34,12 -106,4 -149,-1 -106,-13 -176,-54 -169,-89 9,-45 119,-37 174,-27z"/>
     </g>
     <path class="fil11" d="M2284 2786l328 0c0,0 -55,102 -176,97 -121,-6 -152,-97 -152,-97z"/>
     <g>
      <line class="fil4 str2" x1="2386" y1="2266" x2="2386" y2= "2591" />
      <path class="fil4 str2" d="M2386 2591c0,7 1,14 4,21 10,25 39,37 65,30"/>
      <line class="fil4 str2" x1="2454" y1="2642" x2="2510" y2= "2627" />
     </g>
    </g>
    <path class="fil5" d="M3451 7724c0,0 6,2103 -59,2625l-67 2753 -538 -53c-12,-1264 -160,-1904 -86,-2715l-258 -2464c0,0 465,-163 1007,-146z"/>
    <g>
     <g>
      <path class="fil12" d="M2346 3951c-38,-84 -80,-132 -84,-202 -38,43 -67,88 -63,130 11,119 -336,-281 -379,-484 -4,36 -7,117 102,278 54,80 197,489 339,931 45,-297 87,-567 100,-638 -6,-4 -12,-9 -15,-15z"/>
      <path class="fil13" d="M2618 4627c-46,-306 -90,-588 -104,-662 6,-4 12,-9 15,-15 38,-84 80,-132 84,-202 -67,-75 -166,-144 -176,-178 -10,34 -108,103 -176,178 5,70 47,118 84,202 3,6 9,11 15,15 -13,72 -56,341 -100,638 46,144 92,292 135,433 9,0 18,1 27,1 28,0 55,-1 83,-2 31,-120 70,-262 113,-408z"/>
      <path class="fil14" d="M1860 3292c-9,8 -16,16 -22,22 -9,14 -17,34 -15,63 0,4 -1,9 -2,18 43,203 391,603 379,484 -4,-42 24,-87 63,-130 67,-75 166,-144 176,-178 10,34 108,103 176,178 38,43 67,88 63,130 -11,118 330,-275 378,-479 -1,-11 -3,-18 -2,-23 2,-33 -8,-55 -19,-68 -4,-4 -8,-8 -13,-13 -6,-5 -11,-7 -11,-7l4 0c-29,-28 -66,-68 -102,-129 -7,-11 -16,-10 -32,2 -49,38 -158,180 -436,393l-4 6 -4 -6c-275,-211 -385,-353 -434,-392 -17,-13 -27,-15 -34,-3 -36,61 -74,101 -102,129l2 0c0,0 -2,1 -6,3z"/>
      <path class="fil15" d="M1298 4749c288,159 614,258 960,282 -37,-84 -66,-148 -77,-167 -62,-108 -172,-297 -216,-363 -125,-186 -359,-505 -359,-505l272 -205c0,0 -432,-28 -383,-65 49,-37 53,-113 122,-237 20,-36 47,-66 73,-90 -66,19 -157,73 -266,117 -172,70 -433,118 -488,155 217,-52 326,611 361,1078z"/>
      <path class="fil10" d="M1617 3489c-69,124 -73,200 -122,237 -49,36 383,65 383,65l-272 205c0,0 234,318 359,505 44,66 154,255 216,363 11,20 40,83 77,167 45,3 91,5 137,6 -43,-141 -89,-289 -135,-433 -141,-441 -285,-851 -339,-931 -109,-161 -106,-243 -102,-278 1,-8 2,-14 2,-18 -1,-30 6,-50 15,-63 8,-12 17,-19 22,-22 3,-2 6,-3 6,-3l-2 0c-8,-1 -37,0 -88,43 -17,15 -50,36 -84,67 -26,24 -53,53 -73,90z"/>
      <path class="fil10" d="M1298 4749c-36,-467 -144,-1130 -361,-1078 -9,2 -18,5 -27,10 -50,25 -100,284 -163,646 161,166 347,309 552,422z"/>
     </g>
     <g>
      <path class="fil12" d="M2529 3951c-3,6 -8,11 -15,15 13,74 58,356 104,662 120,-410 267,-856 334,-954 104,-154 106,-235 102,-273 -48,204 -390,597 -378,479 4,-42 -24,-87 -63,-130 -5,70 -47,118 -84,202z"/>
      <polygon class="fil12" points="2996,3791 2999,3793 3000,3791 "/>
      <path class="fil16" d="M3257 3489c69,124 73,200 122,237 46,35 -337,62 -379,65l-1 2 269 203c0,0 -234,318 -359,505 -44,66 -154,255 -216,363 -17,30 -52,95 -90,166 365,-28 707,-140 1006,-316 38,-459 145,-1079 352,-1043 -82,-35 -312,-81 -468,-144 -135,-55 -241,-123 -308,-124 25,24 51,52 71,87z"/>
      <path class="fil10" d="M3020 3296c4,3 9,7 13,13 11,13 21,35 19,68 0,4 1,12 2,23 4,38 2,119 -102,273 -67,98 -214,544 -334,954 -43,147 -82,288 -113,408 33,-1 65,-3 98,-6 38,-72 72,-136 90,-166 62,-108 172,-297 216,-363 125,-186 359,-505 359,-505l-269 -203 -3 -2 4 0c42,-3 425,-30 379,-65 -49,-37 -53,-113 -122,-237 -20,-35 -45,-64 -71,-87 -35,-32 -69,-55 -86,-69 -49,-41 -77,-44 -87,-44l-4 0c0,0 5,2 11,7z"/>
      <path class="fil10" d="M3610 4714c201,-119 383,-267 540,-439 -59,-334 -107,-570 -154,-594 -12,-6 -23,-9 -34,-11 -207,-36 -314,584 -352,1043z"/>
     </g>
    </g>
   </g>
  </g>
  <path class="fil17" d="M4923 2462c0,1360 -1102,2462 -2461,2462 -1360,0 -2462,-1102 -2462,-2462 0,-1359 1102,-2462 2462,-2462 1360,0 2461,1102 2461,2462z"/>
  <path class="fil18" d="M2477 4004l0 -5 3 -6c-3,4 -5,6 -5,6l-3 -3 5 7z"/>
 </g>
</svg>
