<?xml version="1.0" encoding="UTF-8"?>
<!DOCTYPE svg PUBLIC "-//W3C//DTD SVG 1.1//EN" "http://www.w3.org/Graphics/SVG/1.1/DTD/svg11.dtd">
<!-- Creator: CorelDRAW X6 -->
<svg xmlns="http://www.w3.org/2000/svg" xml:space="preserve" width="50mm" height="50mm" version="1.1" style="shape-rendering:geometricPrecision; text-rendering:geometricPrecision; image-rendering:optimizeQuality; fill-rule:evenodd; clip-rule:evenodd"
viewBox="0 0 1497 1497"
 xmlns:xlink="http://www.w3.org/1999/xlink">
 <defs>
  <style type="text/css">
   <![CDATA[
    .str4 {stroke:#EBECEC;stroke-width:2.28144}
    .str7 {stroke:black;stroke-width:5.24251;stroke-linecap:round;stroke-linejoin:round}
    .str5 {stroke:#D16664;stroke-width:5.2485;stroke-linecap:round;stroke-linejoin:round}
    .str1 {stroke:#A2D9F7;stroke-width:5.98802}
    .str0 {stroke:#B0CB1F;stroke-width:5.98802}
    .str6 {stroke:#005E99;stroke-width:7.58982}
    .str3 {stroke:#321A17;stroke-width:7.92216;stroke-linecap:round;stroke-linejoin:round}
    .str2 {stroke:white;stroke-width:10.5629;stroke-linecap:round;stroke-linejoin:round}
    .fil26 {fill:none}
    .fil15 {fill:none;fill-rule:nonzero}
    .fil1 {fill:#A2D9F7}
    .fil0 {fill:#B0CB1F}
    .fil22 {fill:black}
    .fil5 {fill:#524798}
    .fil4 {fill:#5E54AC}
    .fil11 {fill:#80B4FB}
    .fil10 {fill:#8B5E5E}
    .fil8 {fill:#9DC6FB}
    .fil9 {fill:#AA8080}
    .fil7 {fill:#D8E2F1}
    .fil3 {fill:#E7A52E}
    .fil6 {fill:#E7ECF6}
    .fil2 {fill:#EAB14D}
    .fil12 {fill:#FFD064}
    .fil21 {fill:white}
    .fil17 {fill:#00A0E3;fill-rule:nonzero}
    .fil13 {fill:#B2B3B3;fill-rule:nonzero}
    .fil24 {fill:#FEFEFE;fill-rule:nonzero}
    .fil25 {fill:#005E99;fill-rule:nonzero}
    .fil23 {fill:#1F0F0A;fill-rule:nonzero}
    .fil16 {fill:#2B2B2B;fill-rule:nonzero}
    .fil14 {fill:#59342F;fill-rule:nonzero}
    .fil19 {fill:#F78967;fill-rule:nonzero}
    .fil20 {fill:#FFA377;fill-rule:nonzero}
    .fil18 {fill:#FFAF82;fill-rule:nonzero}
   ]]>
  </style>
   <clipPath id="id0">
    <path d="M749 0c413,0 749,335 749,749 0,413 -335,749 -749,749 -413,0 -749,-335 -749,-749 0,-413 335,-749 749,-749z"/>
   </clipPath>
 </defs>
 <g id="Layer_x0020_1">
  <metadata id="CorelCorpID_0Corel-Layer"/>
  <path class="fil0" d="M749 0c413,0 749,335 749,749 0,413 -335,749 -749,749 -413,0 -749,-335 -749,-749 0,-413 335,-749 749,-749z"/>
  <g style="clip-path:url(#id0)">
   <g id="_1824073360">
    <rect class="fil0 str0" x="-233" y="1024" width="2006" height="516"/>
    <rect class="fil1 str1" x="-233" y="-139" width="2006" height="1163"/>
    <g>
     <path class="fil2" d="M760 534l162 162c6,6 14,9 22,9l230 0 0 430 -838 0 0 -430 230 0c8,0 16,-3 22,-9l162 -162c3,-3 8,-3 10,0z"/>
     <path class="fil3" d="M944 705c-8,0 -16,-3 -22,-9l-162 -162c-3,-3 -8,-3 -10,0l-162 162c-6,6 -14,9 -22,9l-230 0 0 41 230 0c19,0 37,-8 51,-21l125 -125c7,-7 19,-7 26,0l125 125c14,14 32,21 51,21l170 0c10,0 19,8 19,19l0 371 41 0 0 -430 -230 0z"/>
     <path class="fil4" d="M733 462c12,-12 32,-12 45,0l180 180 217 0 -87 -235c-5,-15 -19,-24 -35,-24l-593 0c-15,0 -29,10 -35,24l-87 235 217 0 180 -180z"/>
     <path class="fil5" d="M1087 407c-5,-15 -19,-24 -35,-24l-56 0c15,0 29,10 35,24l87 235 56 0 -87 -235z"/>
     <path class="fil6" d="M1211 686c0,10 -8,19 -19,19l-248 0c-8,0 -16,-3 -22,-9l-162 -162c-3,-3 -8,-3 -10,0l-162 162c-6,6 -14,9 -22,9l-248 0c-10,0 -19,-8 -19,-19l0 -26c0,-10 8,-19 19,-19l235 0 180 -180c12,-12 32,-12 45,0l180 180 235 0c10,0 19,8 19,19l0 26z"/>
     <path class="fil7" d="M1192 642l-63 0c10,0 19,8 19,19l0 26c0,10 -8,19 -19,19l63 0c10,0 19,-8 19,-19l0 -26c0,-10 -8,-19 -19,-19z"/>
     <path class="fil8" d="M928 860l0 167 185 0 0 -167c0,-10 -8,-18 -18,-18l-149 0c-10,0 -18,8 -18,18z"/>
     <path class="fil9" d="M928 1027l0 41c0,10 8,18 18,18l149 0c10,0 18,-8 18,-18l0 -41 -185 0z"/>
     <path class="fil8" d="M583 860l0 167 -185 0 0 -167c0,-10 8,-18 18,-18l149 0c10,0 18,8 18,18z"/>
     <path class="fil9" d="M583 1027l0 41c0,10 -8,18 -18,18l-149 0c-10,0 -18,-8 -18,-18l0 -41 185 0z"/>
     <path class="fil10" d="M859 860l0 274 -208 0 0 -114 9 -14 -9 -14 0 -133c0,-10 8,-18 18,-18l171 0c10,0 18,8 18,18z"/>
     <path class="fil8" d="M711 949l0 -37c0,-6 5,-11 11,-11l67 0c6,0 11,5 11,11l0 37c0,6 -5,11 -11,11l-67 0c-6,0 -11,-5 -11,-11z"/>
     <path class="fil8" d="M815 714c0,33 -27,59 -59,59 -33,0 -59,-27 -59,-59 0,-33 27,-59 59,-59 33,0 59,27 59,59z"/>
     <path class="fil4" d="M1193 1198l-875 0c-10,0 -18,-8 -18,-18l0 -26c0,-10 8,-18 18,-18l875 0c10,0 18,8 18,18l0 26c0,10 -8,18 -18,18z"/>
     <path class="fil5" d="M1148 1135l0 63 45 0c10,0 18,-8 18,-18l0 -26c0,-10 -8,-18 -18,-18l-45 0z"/>
     <polygon class="fil11" points="1113,921 1034,921 1034,842 1006,842 1006,921 928,921 928,948 1006,948 1006,1027 1034,1027 1034,948 1113,948 "/>
     <polygon class="fil11" points="583,921 504,921 504,842 476,842 476,921 398,921 398,948 476,948 476,1027 504,1027 504,948 583,948 "/>
     <path class="fil12" d="M651 993l33 0c8,0 14,6 14,14 0,8 -6,14 -14,14l-33 0 0 -28z"/>
    </g>
    <g>
     <g>
      <polygon class="fil13" points="1037,2151 1032,2025 1076,2025 1074,2149 "/>
      <g>
       <g>
        <path class="fil14" d="M1062 2143c0,0 -5,-16 7,-24 12,-8 19,-5 20,5 1,10 1,16 1,16l-28 3z"/>
        <path class="fil14" d="M1082 2133c0,0 29,20 51,19 0,0 38,1 36,35l-156 0c0,0 -9,-28 8,-51 0,0 -9,-30 13,-27l1 17c0,0 3,7 12,4 9,-3 20,-3 35,3z"/>
       </g>
       <polygon class="fil13" points="1170,2205 1014,2205 1014,2187 1170,2187 "/>
       <path class="fil15 str2" d="M1070 2149c0,0 9,-12 22,-10"/>
       <path class="fil15 str2" d="M1081 2155c0,0 9,-12 22,-10"/>
       <path class="fil15 str2" d="M1093 2159c0,0 9,-12 22,-10"/>
       <path class="fil15 str3" d="M1015 2151c0,0 37,5 39,35"/>
       <path class="fil15 str3" d="M1131 2153c0,0 -24,-1 -23,33"/>
      </g>
     </g>
     <polygon class="fil13 str4" points="935,2151 940,2025 896,2025 898,2149 "/>
     <path class="fil16" d="M871 1529c-3,-52 7,-90 8,-89 82,-5 213,-8 213,-8 0,0 0,1 1,1 0,0 13,46 5,83 -80,49 -155,59 -227,13z"/>
     <path class="fil16" d="M871 1504c0,0 -1,238 7,297l8 311 61 -6c1,-143 18,-215 10,-307l29 -279c0,0 -53,-18 -114,-17z"/>
     <path class="fil16" d="M1101 1504c0,0 1,238 -7,297l-8 311 -61 -6c-1,-143 -18,-215 -10,-307l-29 -279c0,0 53,-18 114,-17z"/>
     <g>
      <g>
       <path class="fil17" d="M1106 1451c-23,12 -44,21 -66,26 -16,4 -32,6 -49,6 -15,0 -29,-1 -43,-5 -23,-5 -45,-15 -70,-28l9 -197 -1 -229 58 -16 18 -5c10,-3 20,-4 29,-4 10,0 20,1 29,4l20 5 56 15 -1 229 11 197z"/>
      </g>
     </g>
     <g>
      <g>
       <path class="fil18" d="M812 1451c0,0 5,15 10,26 5,11 2,19 5,29 3,10 -9,9 -11,-1 -2,-10 -1,-15 -3,-15 -2,0 -8,25 -9,32 -1,7 1,25 -2,28 -3,3 -9,-7 -7,-26 2,-19 1,-18 1,-18 0,0 -2,7 -4,15 -2,8 -2,17 -2,23 0,5 -5,8 -7,5 -2,-3 -4,-22 -2,-29 2,-7 5,-20 5,-20 0,0 -7,17 -8,21 -1,4 1,21 -3,24 -2,1 -7,0 -6,-24 0,0 2,-12 4,-19 0,0 -4,5 -6,12 -2,6 -3,13 -3,19 -1,6 -6,6 -6,-6 0,-11 2,-24 5,-30 3,-6 8,-41 17,-54l33 7z"/>
      </g>
     </g>
     <g>
      <path class="fil17" d="M917 1076c0,0 -27,125 -49,168 0,0 -12,61 -55,209 0,0 -23,9 -36,-8 0,0 21,-164 33,-216 0,0 56,-181 75,-204 0,0 29,12 32,51z"/>
     </g>
     <g>
      <g>
       <path class="fil18" d="M1171 1451c0,0 -5,15 -10,26 -5,11 -2,19 -5,29 -3,10 9,9 11,-1 2,-10 1,-15 3,-15 2,0 8,25 9,32 1,7 -1,25 2,28 3,3 9,-7 7,-26 -2,-19 -1,-18 -1,-18 0,0 2,7 4,15 2,8 2,17 2,23 0,5 5,8 7,5 2,-3 4,-22 2,-29 -2,-7 -5,-20 -5,-20 0,0 7,17 8,21 1,4 -1,21 3,24 2,1 7,0 6,-24 0,0 -2,-12 -4,-19 0,0 4,5 6,12 2,6 3,13 3,19 1,6 6,6 6,-6 0,-11 -2,-24 -5,-30 -3,-6 -8,-41 -17,-54l-33 7z"/>
      </g>
     </g>
     <g>
      <path class="fil17" d="M1065 1076c0,0 27,125 49,168 0,0 12,61 55,209 0,0 23,9 36,-8 0,0 -21,-164 -33,-216 0,0 -56,-181 -75,-204 0,0 -29,12 -32,51z"/>
     </g>
     <g>
      <g>
       <path class="fil18" d="M1021 972l-1 26 -1 32c0,0 -5,12 -26,12 -21,0 -26,-8 -26,-8l-1 -14 -3 -47 58 0z"/>
      </g>
      <g>
       <path class="fil19" d="M1021 972l-1 26c-9,9 -30,27 -54,22l-3 -47 58 0z"/>
      </g>
     </g>
     <g>
      <g>
       <path class="fil20" d="M927 886c0,0 -16,-16 -29,-6 -15,12 1,57 28,52l1 -47z"/>
      </g>
     </g>
     <g>
      <g>
       <path class="fil20" d="M1052 886c0,0 16,-16 29,-6 15,12 -1,57 -28,52l-1 -47z"/>
      </g>
     </g>
     <path class="fil18" d="M990 991c-57,0 -74,-67 -79,-116 -5,-45 30,-85 76,-86 1,0 1,0 2,0 1,0 2,0 2,0 45,1 80,40 76,84 -4,50 -21,118 -77,118z"/>
     <g>
      <g>
       <path class="fil21" d="M974 891c0,0 -5,-13 -17,-13 -12,-1 -19,9 -19,9 0,0 3,11 18,11 15,1 19,-7 19,-7z"/>
       <path class="fil22" d="M944 888c0,3 1,7 3,9 2,1 5,2 8,2 3,0 6,0 8,-1 3,-2 5,-5 5,-9 0,-3 -1,-6 -3,-9 -2,-1 -5,-2 -8,-2 -4,0 -7,1 -10,2 -2,2 -3,5 -3,8z"/>
       <path class="fil22" d="M975 891c0,0 -1,-3 -4,-7 -3,-3 -7,-7 -14,-7l0 0c-13,0 -20,9 -20,9l0 1 1 0 0 0c1,-2 8,-8 18,-8l0 0c6,0 10,3 13,6 1,2 2,3 3,4 0,1 1,1 1,1l0 1c0,0 1,1 1,0 0,0 1,-1 0,-1z"/>
      </g>
      <g>
       <path class="fil21" d="M1004 891c0,0 5,-13 17,-13 12,-1 19,9 19,9 0,0 -3,11 -18,11 -15,1 -19,-7 -19,-7z"/>
       <path class="fil22" d="M1034 888c0,3 -1,7 -3,9 -2,1 -5,2 -8,2 -3,0 -6,0 -8,-1 -3,-2 -5,-5 -5,-9 0,-3 1,-6 3,-9 2,-1 5,-2 8,-2 4,0 7,1 10,2 2,2 3,5 3,8z"/>
       <path class="fil22" d="M1003 891c0,0 1,-3 4,-7 3,-3 7,-7 14,-7l0 0c13,0 20,9 20,9l0 1 -1 0 0 0c-1,-2 -8,-8 -18,-8l0 0c-6,0 -10,3 -13,6 -1,2 -2,3 -3,4 0,1 -1,1 -1,1l0 1c0,0 -1,1 -1,0 0,0 -1,-1 0,-1z"/>
      </g>
     </g>
     <g>
      <path class="fil22" d="M953 855c0,0 -12,2 -18,5 -4,2 -4,6 1,8 4,1 13,0 18,0 13,-1 21,-6 20,-10 -1,-5 -14,-4 -21,-3z"/>
      <path class="fil22" d="M1026 855c0,0 12,2 17,5 3,2 3,6 -1,8 -4,1 -12,0 -17,0 -12,-1 -20,-6 -19,-10 1,-5 13,-4 20,-3z"/>
     </g>
     <g>
      <line class="fil15 str5" x1="982" y1="885" x2="982" y2= "922" />
      <path class="fil15 str5" d="M982 922c0,1 0,2 0,2 1,3 4,4 7,3"/>
      <line class="fil15 str5" x1="990" y1="928" x2="996" y2= "926" />
     </g>
     <path class="fil23" d="M918 909c-7,-26 -31,-106 -9,-126 0,0 3,-32 36,-15 20,-55 136,10 120,17 11,21 24,63 10,63 6,29 -9,32 -13,56 0,0 3,-39 -10,-53 0,0 10,-26 -9,-36 0,0 -12,-9 -22,-1 0,0 -36,9 -57,-1 0,0 -19,-9 -28,3 0,0 -13,11 -5,37 0,0 -15,3 -13,55z"/>
     <line class="fil15 str6" x1="988" y1="1044" x2="988" y2= "1450" />
     <g>
      <path class="fil24" d="M982 1069c0,2 -2,4 -4,4 -2,0 -4,-2 -4,-4 0,-2 2,-4 4,-4 2,0 4,2 4,4z"/>
      <path class="fil24" d="M982 1110c0,2 -2,4 -4,4 -2,0 -4,-2 -4,-4 0,-2 2,-4 4,-4 2,0 4,2 4,4z"/>
      <path class="fil24" d="M982 1152c0,2 -2,4 -4,4 -2,0 -4,-2 -4,-4 0,-2 2,-4 4,-4 2,0 4,2 4,4z"/>
      <path class="fil24" d="M982 1194c0,2 -2,4 -4,4 -2,0 -4,-2 -4,-4 0,-2 2,-4 4,-4 2,0 4,2 4,4z"/>
      <path class="fil24" d="M982 1236c0,2 -2,4 -4,4 -2,0 -4,-2 -4,-4 0,-2 2,-4 4,-4 2,0 4,2 4,4z"/>
     </g>
     <polygon class="fil17" points="933,1050 967,1010 989,1042 1011,1010 1050,1050 "/>
     <g>
      <path class="fil25" d="M988 1040l-16 -27c-3,-4 -6,-8 -10,-11l-8 -6c-2,-1 -4,-1 -6,0l-8 5c-2,1 -3,3 -3,5l3 25c0,2 3,4 5,2l17 -18c1,-1 3,-1 3,0l21 30 0 -5z"/>
      <path class="fil25" d="M988 1040l16 -27c3,-4 6,-8 10,-11l8 -6c2,-1 4,-1 6,0l8 5c2,1 3,3 3,5l-3 25c0,2 -3,4 -5,2l-17 -18c-1,-1 -3,-1 -3,0l-21 30 0 -5z"/>
     </g>
     <g>
      <path class="fil24" d="M982 1272c0,2 -2,4 -4,4 -2,0 -4,-2 -4,-4 0,-2 2,-4 4,-4 2,0 4,2 4,4z"/>
      <path class="fil24" d="M982 1313c0,2 -2,4 -4,4 -2,0 -4,-2 -4,-4 0,-2 2,-4 4,-4 2,0 4,2 4,4z"/>
      <path class="fil24" d="M982 1355c0,2 -2,4 -4,4 -2,0 -4,-2 -4,-4 0,-2 2,-4 4,-4 2,0 4,2 4,4z"/>
      <path class="fil24" d="M982 1397c0,2 -2,4 -4,4 -2,0 -4,-2 -4,-4 0,-2 2,-4 4,-4 2,0 4,2 4,4z"/>
      <path class="fil24" d="M982 1438c0,2 -2,4 -4,4 -2,0 -4,-2 -4,-4 0,-2 2,-4 4,-4 2,0 4,2 4,4z"/>
     </g>
     <path class="fil15 str7" d="M968 947c0,0 19,10 42,0"/>
     <g>
      <g>
       <path class="fil14" d="M910 2143c0,0 5,-16 -7,-24 -12,-8 -19,-5 -20,5 -1,10 -1,16 -1,16l28 3z"/>
       <path class="fil14" d="M890 2133c0,0 -29,20 -51,19 0,0 -38,1 -36,35l156 0c0,0 9,-28 -8,-51 0,0 9,-30 -13,-27l-1 17c0,0 -3,7 -12,4 -9,-3 -20,-3 -35,3z"/>
      </g>
      <polygon class="fil13" points="802,2205 958,2205 958,2187 802,2187 "/>
      <path class="fil15 str2" d="M902 2149c0,0 -9,-12 -22,-10"/>
      <path class="fil15 str2" d="M891 2155c0,0 -9,-12 -22,-10"/>
      <path class="fil15 str2" d="M879 2159c0,0 -9,-12 -22,-10"/>
      <path class="fil15 str3" d="M957 2151c0,0 -37,5 -39,35"/>
      <path class="fil15 str3" d="M841 2153c0,0 24,-1 23,33"/>
     </g>
    </g>
   </g>
  </g>
  <path class="fil26" d="M749 0c413,0 749,335 749,749 0,413 -335,749 -749,749 -413,0 -749,-335 -749,-749 0,-413 335,-749 749,-749z"/>
 </g>
</svg>
