<?xml version="1.0" encoding="UTF-8"?>
<!DOCTYPE svg PUBLIC "-//W3C//DTD SVG 1.1//EN" "http://www.w3.org/Graphics/SVG/1.1/DTD/svg11.dtd">
<!-- Creator: CorelDRAW X6 -->
<svg xmlns="http://www.w3.org/2000/svg" xml:space="preserve" width="42.1258mm" height="130.928mm" version="1.1" style="shape-rendering:geometricPrecision; text-rendering:geometricPrecision; image-rendering:optimizeQuality; fill-rule:evenodd; clip-rule:evenodd"
viewBox="0 0 4333 13467"
 xmlns:xlink="http://www.w3.org/1999/xlink">
 <defs>
  <style type="text/css">
   <![CDATA[
    .str2 {stroke:#EBECEC;stroke-width:7.8378}
    .str5 {stroke:black;stroke-width:18.0105;stroke-linecap:round;stroke-linejoin:round}
    .str3 {stroke:#D16664;stroke-width:18.0311;stroke-linecap:round;stroke-linejoin:round}
    .str4 {stroke:#005E99;stroke-width:26.0746}
    .str1 {stroke:#321A17;stroke-width:27.2163;stroke-linecap:round;stroke-linejoin:round}
    .str0 {stroke:white;stroke-width:36.2884;stroke-linecap:round;stroke-linejoin:round}
    .fil2 {fill:none;fill-rule:nonzero}
    .fil9 {fill:black}
    .fil8 {fill:white}
    .fil4 {fill:#00A0E3;fill-rule:nonzero}
    .fil0 {fill:#B2B3B3;fill-rule:nonzero}
    .fil11 {fill:#FEFEFE;fill-rule:nonzero}
    .fil12 {fill:#005E99;fill-rule:nonzero}
    .fil10 {fill:#1F0F0A;fill-rule:nonzero}
    .fil3 {fill:#2B2B2B;fill-rule:nonzero}
    .fil1 {fill:#59342F;fill-rule:nonzero}
    .fil6 {fill:#F78967;fill-rule:nonzero}
    .fil7 {fill:#FFA377;fill-rule:nonzero}
    .fil5 {fill:#FFAF82;fill-rule:nonzero}
   ]]>
  </style>
 </defs>
 <g id="Layer_x0020_1">
  <metadata id="CorelCorpID_0Corel-Layer"/>
  <g id="_1332138496">
   <g>
    <polygon class="fil0" points="2590,12971 2549,11808 2950,11808 2932,12951 "/>
    <g>
     <g>
      <path class="fil1" d="M2826 12901c0,0 -50,-151 64,-223 114,-72 172,-42 180,50 8,93 11,148 11,148l-255 24z"/>
      <path class="fil1" d="M3010 12806c0,0 264,184 470,180 0,0 355,6 334,320l-1439 -2c0,0 -87,-261 78,-468 0,0 -87,-273 123,-246l5 154c0,0 25,62 106,38 81,-24 188,-26 322,23z"/>
     </g>
     <polygon class="fil0" points="3815,13467 2375,13467 2375,13305 3815,13305 "/>
     <path class="fil2 str0" d="M2892 12953c0,0 83,-115 203,-95"/>
     <path class="fil2 str0" d="M2993 13010c0,0 83,-115 203,-95"/>
     <path class="fil2 str0" d="M3111 13045c0,0 83,-115 203,-95"/>
     <path class="fil2 str1" d="M2388 12973c0,0 340,44 361,326"/>
     <path class="fil2 str1" d="M3457 12990c0,0 -221,-7 -211,303"/>
    </g>
   </g>
   <polygon class="fil0 str2" points="1649,12971 1691,11808 1289,11808 1307,12951 "/>
   <path class="fil3" d="M1059 7226c-28,-479 66,-828 77,-823 755,-48 1968,-78 1968,-78 2,5 3,9 5,13 0,0 122,425 51,764 -735,451 -1430,543 -2100,122z"/>
   <path class="fil3" d="M1059 6994c0,0 -7,2197 61,2742l70 2876 562 -55c12,-1320 167,-1989 90,-2837l269 -2574c0,0 -486,-170 -1052,-153z"/>
   <path class="fil3" d="M3177 6994c0,0 7,2197 -61,2742l-70 2876 -562 -55c-12,-1320 -167,-1989 -90,-2837l-269 -2574c0,0 486,-170 1052,-153z"/>
   <g>
    <g>
     <path class="fil4" d="M3224 6512c-213,111 -410,193 -608,243 -149,37 -298,56 -454,55 -138,1 -269,-14 -399,-43 -212,-48 -420,-134 -651,-255l87 -1816 -9 -2118 538 -144 162 -43c89,-24 181,-36 272,-36 91,1 183,12 272,36l182 49 517 139 -9 2118 100 1816z"/>
    </g>
   </g>
   <g>
    <g>
     <path class="fil5" d="M509 6510c0,0 42,138 88,238 46,100 14,178 42,268 28,91 -81,84 -102,-11 -21,-95 -12,-140 -32,-143 -20,-3 -76,229 -85,295 -8,66 5,233 -19,259 -25,26 -85,-68 -66,-241 19,-173 5,-170 5,-170 0,0 -16,67 -34,140 -17,72 -17,161 -14,210 3,49 -47,74 -62,47 -15,-27 -39,-199 -18,-266 20,-67 44,-183 44,-183 0,0 -66,155 -78,195 -11,40 8,193 -27,221 -14,11 -61,-4 -53,-221 0,0 16,-106 39,-172 0,0 -36,49 -53,115 -15,58 -24,119 -29,178 -5,59 -56,51 -56,-53 0,-104 17,-218 47,-273 29,-55 72,-378 158,-497l305 64z"/>
    </g>
   </g>
   <g>
    <path class="fil4" d="M1486 3049c0,0 -248,1150 -457,1548 0,0 -114,560 -512,1934 0,0 -208,83 -329,-75 0,0 192,-1511 308,-1994 0,0 520,-1669 694,-1884 0,0 268,109 296,471z"/>
   </g>
   <g>
    <g>
     <path class="fil5" d="M3824 6510c0,0 -42,138 -88,238 -46,100 -14,178 -42,268 -28,91 81,84 102,-11 21,-95 12,-140 32,-143 20,-3 76,229 85,295 8,66 -5,233 19,259 25,26 85,-68 66,-241 -19,-173 -5,-170 -5,-170 0,0 16,67 34,140 17,72 17,161 14,210 -3,49 47,74 62,47 15,-27 39,-199 18,-266 -20,-67 -44,-183 -44,-183 0,0 66,155 78,195 11,40 -8,193 27,221 14,11 61,-4 53,-221 0,0 -16,-106 -39,-172 0,0 36,49 53,115 15,58 24,119 29,178 5,59 56,51 56,-53 0,-104 -17,-218 -47,-273 -29,-55 -72,-378 -158,-497l-305 64z"/>
    </g>
   </g>
   <g>
    <path class="fil4" d="M2847 3049c0,0 248,1150 457,1548 0,0 114,560 512,1934 0,0 208,83 329,-75 0,0 -192,-1511 -308,-1994 0,0 -520,-1669 -694,-1884 0,0 -268,109 -296,471z"/>
   </g>
   <g>
    <g>
     <path class="fil5" d="M2444 2087l-9 236 -12 295c0,0 -44,111 -241,111 -198,0 -238,-76 -238,-76l-8 -131 -27 -435 535 0z"/>
    </g>
    <g>
     <path class="fil6" d="M2444 2087l-9 236c-82,83 -277,245 -499,200l-27 -435 535 0z"/>
    </g>
   </g>
   <g>
    <g>
     <path class="fil7" d="M1572 1287c0,0 -151,-148 -272,-51 -143,114 7,525 260,481l12 -430z"/>
    </g>
   </g>
   <g>
    <g>
     <path class="fil7" d="M2728 1287c0,0 151,-148 272,-51 143,114 -7,525 -260,481l-12 -430z"/>
    </g>
   </g>
   <path class="fil5" d="M2158 2260c-523,0 -684,-621 -732,-1076 -44,-419 281,-789 703,-793 6,0 11,0 17,0 7,0 14,0 21,0 416,6 741,365 705,780 -40,461 -190,1089 -713,1089z"/>
   <g>
    <g>
     <path class="fil8" d="M2011 1340c0,0 -46,-116 -157,-121 -112,-5 -179,83 -179,83 0,0 28,99 164,105 136,6 172,-67 172,-67z"/>
     <path class="fil9" d="M1731 1308c-2,31 10,60 30,82 21,9 46,15 78,17 28,1 51,-1 71,-5 25,-19 42,-49 44,-83 1,-30 -9,-58 -28,-79 -20,-12 -44,-20 -73,-22 -35,-2 -65,6 -90,17 -19,19 -31,45 -32,73z"/>
     <path class="fil9" d="M2017 1338c0,0 -11,-31 -37,-62 -26,-31 -67,-63 -127,-64l-2 0c-118,0 -181,85 -182,86l1 10 10 -1 3 -3c13,-15 71,-77 168,-77l2 0c55,1 93,29 117,59 12,15 21,29 26,40 3,5 5,10 6,13l2 5c1,4 5,5 9,4 4,-1 5,-5 4,-9z"/>
    </g>
    <g>
     <path class="fil8" d="M2284 1340c0,0 46,-116 157,-121 112,-5 179,83 179,83 0,0 -28,99 -164,105 -136,6 -172,-67 -172,-67z"/>
     <path class="fil9" d="M2564 1308c2,31 -10,60 -30,82 -21,9 -46,15 -78,17 -28,1 -51,-1 -71,-5 -25,-19 -42,-49 -44,-83 -1,-30 9,-58 28,-79 20,-12 44,-20 73,-22 35,-2 65,6 90,17 19,19 31,45 32,73z"/>
     <path class="fil9" d="M2277 1338c0,0 11,-31 37,-62 26,-31 67,-63 127,-64l2 0c118,0 181,85 182,86l-1 10 -10 -1 -3 -3c-13,-15 -71,-77 -168,-77l-2 0c-55,1 -93,29 -117,59 -12,15 -21,29 -26,40 -3,5 -5,10 -6,13l-2 5c-1,4 -5,5 -9,4 -4,-1 -5,-5 -4,-9z"/>
    </g>
   </g>
   <g>
    <path class="fil9" d="M1813 998c0,0 -113,14 -167,49 -34,21 -33,60 8,73 37,12 118,4 165,-1 117,-13 194,-57 187,-93 -10,-47 -131,-39 -193,-28z"/>
    <path class="fil9" d="M2493 998c0,0 106,14 158,49 32,21 31,60 -7,73 -35,12 -111,4 -156,-1 -110,-13 -184,-57 -176,-93 9,-47 124,-39 182,-28z"/>
   </g>
   <g>
    <line class="fil2 str3" x1="2082" y1="1284" x2="2082" y2= "1624" />
    <path class="fil2 str3" d="M2082 1624c0,8 1,15 4,21 10,26 40,39 68,31"/>
    <line class="fil2 str3" x1="2154" y1="1677" x2="2212" y2= "1661" />
   </g>
   <path class="fil10" d="M1493 1502c-66,-237 -286,-977 -85,-1161 0,0 29,-297 334,-136 183,-512 1253,89 1109,161 98,192 223,578 91,580 59,265 -81,296 -120,517 0,0 25,-356 -91,-488 0,0 94,-238 -83,-334 0,0 -109,-84 -207,-11 0,0 -330,84 -526,-7 0,0 -174,-84 -261,26 0,0 -120,103 -44,345 0,0 -137,29 -118,508z"/>
   <line class="fil2 str4" x1="2141" y1="2751" x2="2141" y2= "6499" />
   <g>
    <path class="fil11" d="M2086 2977c0,18 -15,33 -33,33 -18,0 -33,-15 -33,-33 0,-18 15,-33 33,-33 18,0 33,15 33,33z"/>
    <path class="fil11" d="M2086 3363c0,18 -15,33 -33,33 -18,0 -33,-15 -33,-33 0,-18 15,-33 33,-33 18,0 33,15 33,33z"/>
    <path class="fil11" d="M2086 3748c0,18 -15,33 -33,33 -18,0 -33,-15 -33,-33 0,-18 15,-33 33,-33 18,0 33,15 33,33z"/>
    <path class="fil11" d="M2086 4133c0,18 -15,33 -33,33 -18,0 -33,-15 -33,-33 0,-18 15,-33 33,-33 18,0 33,15 33,33z"/>
    <path class="fil11" d="M2086 4519c0,18 -15,33 -33,33 -18,0 -33,-15 -33,-33 0,-18 15,-33 33,-33 18,0 33,15 33,33z"/>
   </g>
   <polygon class="fil4" points="1633,2801 1940,2431 2151,2727 2348,2431 2712,2801 "/>
   <g>
    <path class="fil12" d="M2141 2709l-143 -250c-24,-41 -56,-77 -95,-105l-73 -52c-15,-11 -36,-12 -52,-3l-73 42c-17,10 -26,29 -24,48l30 234c3,23 31,32 47,16l160 -167c9,-9 24,-8 31,3l190 277 0 -42z"/>
    <path class="fil12" d="M2141 2709l143 -250c24,-41 56,-77 95,-105l73 -52c15,-11 36,-12 52,-3l73 42c17,10 26,29 24,48l-30 234c-3,23 -31,32 -47,16l-160 -167c-9,-9 -24,-8 -31,3l-190 277 0 -42z"/>
   </g>
   <g>
    <path class="fil11" d="M2086 4850c0,18 -15,33 -33,33 -18,0 -33,-15 -33,-33 0,-18 15,-33 33,-33 18,0 33,15 33,33z"/>
    <path class="fil11" d="M2086 5235c0,18 -15,33 -33,33 -18,0 -33,-15 -33,-33 0,-18 15,-33 33,-33 18,0 33,15 33,33z"/>
    <path class="fil11" d="M2086 5621c0,18 -15,33 -33,33 -18,0 -33,-15 -33,-33 0,-18 15,-33 33,-33 18,0 33,15 33,33z"/>
    <path class="fil11" d="M2086 6006c0,18 -15,33 -33,33 -18,0 -33,-15 -33,-33 0,-18 15,-33 33,-33 18,0 33,15 33,33z"/>
    <path class="fil11" d="M2086 6391c0,18 -15,33 -33,33 -18,0 -33,-15 -33,-33 0,-18 15,-33 33,-33 18,0 33,15 33,33z"/>
   </g>
   <path class="fil2 str5" d="M1952 1857c0,0 174,92 390,0"/>
   <g>
    <g>
     <path class="fil1" d="M1414 12901c0,0 50,-151 -64,-223 -114,-72 -172,-42 -180,50 -8,93 -11,148 -11,148l255 24z"/>
     <path class="fil1" d="M1230 12806c0,0 -264,184 -470,180 0,0 -355,6 -334,320l1439 -2c0,0 87,-261 -78,-468 0,0 87,-273 -123,-246l-5 154c0,0 -25,62 -106,38 -81,-24 -188,-26 -322,23z"/>
    </g>
    <polygon class="fil0" points="425,13467 1864,13467 1864,13305 425,13305 "/>
    <path class="fil2 str0" d="M1347 12953c0,0 -83,-115 -203,-95"/>
    <path class="fil2 str0" d="M1246 13010c0,0 -83,-115 -203,-95"/>
    <path class="fil2 str0" d="M1128 13045c0,0 -83,-115 -203,-95"/>
    <path class="fil2 str1" d="M1851 12973c0,0 -340,44 -361,326"/>
    <path class="fil2 str1" d="M782 12990c0,0 221,-7 211,303"/>
   </g>
  </g>
 </g>
</svg>
