<?xml version="1.0" encoding="UTF-8"?>
<!DOCTYPE svg PUBLIC "-//W3C//DTD SVG 1.1//EN" "http://www.w3.org/Graphics/SVG/1.1/DTD/svg11.dtd">
<!-- Creator: CorelDRAW X6 -->
<svg xmlns="http://www.w3.org/2000/svg" xml:space="preserve" width="67.9023mm" height="50mm" version="1.1" style="shape-rendering:geometricPrecision; text-rendering:geometricPrecision; image-rendering:optimizeQuality; fill-rule:evenodd; clip-rule:evenodd"
viewBox="0 0 2310 1701"
 xmlns:xlink="http://www.w3.org/1999/xlink">
 <defs>
  <style type="text/css">
   <![CDATA[
    .str4 {stroke:#D16664;stroke-width:5.96374;stroke-linecap:round;stroke-linejoin:round}
    .str0 {stroke:#898989;stroke-width:6.80404}
    .str1 {stroke:#8FC8D1;stroke-width:6.80404}
    .str3 {stroke:#321A17;stroke-width:9.00174;stroke-linecap:round;stroke-linejoin:round}
    .str2 {stroke:white;stroke-width:12.0023;stroke-linecap:round;stroke-linejoin:round}
    .fil2 {fill:none}
    .fil18 {fill:none;fill-rule:nonzero}
    .fil1 {fill:#898989}
    .fil26 {fill:black}
    .fil0 {fill:#8FC8D1}
    .fil25 {fill:white}
    .fil20 {fill:#00A0E3;fill-rule:nonzero}
    .fil24 {fill:#2B2A29;fill-rule:nonzero}
    .fil17 {fill:#B2B3B3;fill-rule:nonzero}
    .fil6 {fill:#E31E24;fill-rule:nonzero}
    .fil3 {fill:#FEFEFE;fill-rule:nonzero}
    .fil19 {fill:#2B2B2B;fill-rule:nonzero}
    .fil4 {fill:#363636;fill-rule:nonzero}
    .fil10 {fill:#3F3F3F;fill-rule:nonzero}
    .fil9 {fill:#4D4D4D;fill-rule:nonzero}
    .fil14 {fill:#545454;fill-rule:nonzero}
    .fil16 {fill:#59342F;fill-rule:nonzero}
    .fil5 {fill:#595959;fill-rule:nonzero}
    .fil7 {fill:#C32650;fill-rule:nonzero}
    .fil8 {fill:#D4D4D4;fill-rule:nonzero}
    .fil21 {fill:#E2E2E2;fill-rule:nonzero}
    .fil11 {fill:#EDEDED;fill-rule:nonzero}
    .fil22 {fill:#F78967;fill-rule:nonzero}
    .fil13 {fill:#FF8A00;fill-rule:nonzero}
    .fil23 {fill:#FFA377;fill-rule:nonzero}
    .fil15 {fill:#FFAF82;fill-rule:nonzero}
    .fil12 {fill:white;fill-rule:nonzero}
   ]]>
  </style>
    <clipPath id="id0">
     <path d="M1155 0c470,0 851,381 851,851 0,470 -381,851 -851,851 -470,0 -851,-381 -851,-851 0,-470 381,-851 851,-851z"/>
    </clipPath>
 </defs>
 <g id="Layer_x0020_1">
  <metadata id="CorelCorpID_0Corel-Layer"/>
  <g id="_2136780288">
   <path class="fil0" d="M1155 0c470,0 851,381 851,851 0,470 -381,851 -851,851 -470,0 -851,-381 -851,-851 0,-470 381,-851 851,-851z"/>
   <g style="clip-path:url(#id0)">
    <g>
     <rect class="fil1 str0" x="40" y="1163" width="2279" height="587"/>
     <rect class="fil0 str1" x="40" y="-158" width="2279" height="1321"/>
    </g>
   </g>
   <path class="fil2" d="M1155 0c470,0 851,381 851,851 0,470 -381,851 -851,851 -470,0 -851,-381 -851,-851 0,-470 381,-851 851,-851z"/>
   <path class="fil3" d="M1138 348c17,1 37,7 49,-6 24,-25 31,-38 36,-39 17,-4 30,-23 47,-18 11,3 21,11 32,11 31,0 34,-57 65,-59 17,-1 33,17 50,12 9,-3 15,-11 21,-18 15,-17 39,-25 61,-22 22,3 43,18 53,38 6,11 8,24 15,35 7,11 19,19 31,15 9,-3 16,-13 25,-15 12,-3 23,8 29,19 6,10 13,23 25,26 9,2 17,-1 26,-3 38,-8 74,16 106,38 -12,-1 -23,-2 -35,-2l-663 0c20,-12 -5,-13 28,-11z"/>
   <g>
    <polygon class="fil4" points="162,825 44,825 44,756 162,756 "/>
    <path class="fil5" d="M0 909c0,16 13,28 28,28l54 0c16,0 28,-13 28,-28l0 -237c0,-16 -13,-28 -28,-28l-54 0c-16,0 -28,13 -28,28l0 237z"/>
    <path class="fil6" d="M2292 1159c0,0 -69,76 -142,76 -73,0 -1585,0 -1651,0 -66,0 -339,-42 -360,-56 -21,-14 -44,-51 -47,-66 -3,-15 -11,-105 -9,-125 2,-20 35,-54 35,-86 0,-32 0,-161 0,-179 0,-18 26,-21 27,-30 2,-9 93,-201 153,-251 60,-50 631,-48 818,-34 187,14 294,60 413,142 119,82 193,133 211,139 18,6 194,26 294,48 100,22 154,40 170,53 16,13 51,40 72,120 0,0 22,11 27,23 5,12 17,147 -12,224z"/>
    <path class="fil6" d="M2302 933c0,1 1,1 1,2 5,12 17,147 -12,224 0,0 -69,76 -142,76 -73,0 -1585,0 -1651,0 -66,0 -339,-42 -360,-56 -21,-14 -44,-51 -47,-66 -3,-15 -11,-105 -9,-125 2,-20 35,-54 35,-86 0,-19 0,-74 0,-119l2184 149z"/>
    <g>
     <path class="fil7" d="M474 935c-20,-46 -48,-142 -45,-196 3,-53 115,-257 166,-287 44,-26 79,-28 182,-32 18,-1 37,-2 59,-3 156,-8 362,11 406,17 21,3 98,21 167,62 84,51 154,100 207,146 64,55 81,77 91,137 10,60 2,278 -10,398l-6 -1c13,-119 20,-337 11,-396 -10,-59 -27,-79 -89,-133 -53,-46 -122,-95 -206,-145 -68,-41 -143,-58 -165,-61 -30,-4 -135,-14 -248,-18 5,26 36,196 58,367 24,185 14,395 14,397l-6 0c0,-2 10,-211 -13,-396 -22,-174 -54,-346 -58,-367 -51,-1 -103,-2 -151,1 -22,1 -42,2 -59,3 -103,5 -137,6 -180,31 -49,30 -160,230 -163,282 -3,53 25,148 45,194l-5 2z"/>
     <path class="fil7" d="M2000 771c-17,-2 -34,-4 -49,-6 -32,-5 -56,-5 -71,-6 -16,-1 -25,-1 -29,-4 -1,-1 -7,-4 -13,-7 -22,-11 -61,-31 -75,-52 3,0 5,1 8,1 15,18 50,36 69,46 8,4 12,6 14,8 3,2 12,3 26,3 16,1 40,1 72,6 16,2 32,4 49,6 49,6 105,13 157,30 36,12 63,23 80,30 2,3 5,6 7,10 -16,-8 -45,-20 -88,-34 -51,-17 -107,-24 -156,-29z"/>
    </g>
    <path class="fil8" d="M398 896c160,0 293,117 316,271l988 0c24,-153 156,-271 316,-271 128,0 238,75 289,183 -3,29 -7,57 -16,80 0,0 -69,76 -142,76 -23,0 -190,0 -410,0 -14,0 -27,0 -41,0l-981 0c-13,0 -26,0 -38,0 -100,0 -168,0 -181,0 -66,0 -339,-42 -360,-56 -19,-13 -40,-45 -45,-62 42,-128 162,-221 304,-221z"/>
    <g>
     <path class="fil9" d="M2255 1191c-27,21 -66,43 -105,43 -21,0 -169,0 -368,0 0,-6 -1,-12 -1,-18 0,-131 107,-238 238,-238 123,0 224,93 237,213z"/>
     <path class="fil9" d="M162 1186c15,-117 115,-208 236,-208 131,0 238,107 238,238 0,6 0,12 -1,18 -76,0 -126,0 -136,0 -57,0 -265,-31 -337,-48z"/>
    </g>
    <path class="fil10" d="M1827 1216c0,106 86,192 192,192 106,0 192,-86 192,-192 0,-106 -86,-192 -192,-192 -106,0 -192,86 -192,192z"/>
    <path class="fil11" d="M1887 1216c0,72 59,131 131,131 72,0 131,-59 131,-131 0,-72 -59,-131 -131,-131 -72,0 -131,59 -131,131z"/>
    <path class="fil10" d="M206 1216c0,106 86,192 192,192 106,0 192,-86 192,-192 0,-106 -86,-192 -192,-192 -106,0 -192,86 -192,192z"/>
    <path class="fil11" d="M267 1216c0,72 59,131 131,131 72,0 131,-59 131,-131 0,-72 -59,-131 -131,-131 -72,0 -131,59 -131,131z"/>
    <path class="fil12" d="M2055 771c7,0 104,6 168,46 14,18 32,48 43,91 0,0 -43,-12 -94,-42 -52,-30 -125,-95 -117,-95z"/>
    <path class="fil13" d="M119 724c0,-18 26,-21 27,-30 0,0 0,-1 1,-2 29,0 82,0 91,0 12,0 18,4 14,17 -3,13 -91,106 -133,178 0,-46 0,-147 0,-163z"/>
    <path class="fil14" d="M1283 464c40,8 125,52 188,99 63,47 155,125 166,135 11,10 18,42 -19,41 -37,-1 -509,-29 -525,-31 -16,-2 -16,-20 -20,-45 -3,-25 -33,-165 -38,-186 -5,-21 -5,-30 5,-32 10,-2 129,-3 242,18z"/>
    <path class="fil14" d="M941 444c-11,0 -262,9 -288,12 -26,4 -59,21 -82,54 -23,33 -66,114 -71,137 -5,23 1,37 20,37 20,0 431,20 444,20 13,1 28,-4 25,-26 -3,-22 -28,-195 -30,-209 -2,-14 -2,-26 -19,-25z"/>
    <path class="fil14" d="M335 627c-14,19 -42,22 -73,26 -21,3 -72,7 -102,10 26,-54 82,-160 127,-207 35,0 130,0 141,0 14,0 41,4 20,38 -21,34 -99,116 -113,134z"/>
   </g>
   <g>
    <g>
     <polygon class="fil15" points="1188,1335 1185,1246 1216,1246 1214,1334 "/>
     <g>
      <g>
       <path class="fil16" d="M1206 1330c0,0 -4,-12 5,-17 9,-6 13,-3 14,4 1,7 1,11 1,11l-20 2z"/>
       <path class="fil16" d="M1220 1323c0,0 20,14 36,14 0,0 27,0 26,25l-111 0c0,0 -7,-20 6,-36 0,0 -7,-21 9,-19l0 12c0,0 2,5 8,3 6,-2 14,-2 25,2z"/>
      </g>
      <polygon class="fil17" points="1282,1374 1171,1374 1171,1361 1282,1361 "/>
      <path class="fil18 str2" d="M1211 1334c0,0 6,-9 16,-7"/>
      <path class="fil18 str2" d="M1219 1338c0,0 6,-9 16,-7"/>
      <path class="fil18 str2" d="M1228 1341c0,0 6,-9 16,-7"/>
      <path class="fil18 str3" d="M1172 1335c0,0 26,3 28,25"/>
      <path class="fil18 str3" d="M1255 1337c0,0 -17,-1 -16,23"/>
     </g>
    </g>
    <g>
     <polygon class="fil15" points="1115,1335 1119,1246 1088,1246 1089,1334 "/>
     <g>
      <g>
       <path class="fil16" d="M1097 1330c0,0 4,-12 -5,-17 -9,-6 -13,-3 -14,4 -1,7 -1,11 -1,11l20 2z"/>
       <path class="fil16" d="M1083 1323c0,0 -20,14 -36,14 0,0 -27,0 -26,25l111 0c0,0 7,-20 -6,-36 0,0 7,-21 -9,-19l0 12c0,0 -2,5 -8,3 -6,-2 -14,-2 -25,2z"/>
      </g>
      <polygon class="fil17" points="1021,1374 1132,1374 1132,1361 1021,1361 "/>
      <path class="fil18 str2" d="M1092 1334c0,0 -6,-9 -16,-7"/>
      <path class="fil18 str2" d="M1084 1338c0,0 -6,-9 -16,-7"/>
      <path class="fil18 str2" d="M1075 1341c0,0 -6,-9 -16,-7"/>
      <path class="fil18 str3" d="M1131 1335c0,0 -26,3 -28,25"/>
      <path class="fil18 str3" d="M1049 1337c0,0 17,-1 16,23"/>
     </g>
    </g>
    <path class="fil19" d="M1071 893c-2,-37 5,-64 6,-63 58,-4 152,-6 152,-6 0,0 0,1 0,1 0,0 9,33 4,59 -57,35 -110,42 -162,9z"/>
    <path class="fil19" d="M1071 875c0,0 -1,169 5,211l5 222 43 -4c1,-102 13,-153 7,-219l21 -198c0,0 -37,-13 -81,-12z"/>
    <g>
     <g>
      <path class="fil20" d="M1236 838c-16,9 -32,15 -47,19 -11,3 -23,4 -35,4 -11,0 -21,-1 -31,-3 -16,-4 -32,-10 -50,-20l7 -140 -1 -163 41 -11 12 -3c7,-2 14,-3 21,-3 7,0 14,1 21,3l14 4 40 11 -1 163 8 140z"/>
     </g>
    </g>
    <g>
     <path class="fil12" d="M1190 524l0 332c-11,3 -23,4 -35,4 -11,0 -21,-1 -31,-3l0 -8 0 -9 0 -20 0 -9 0 -20 0 -9 0 -20 0 -9 0 -20 0 -9 0 -20 0 -9 0 -20 0 -9 0 -20 0 -9 0 -20 0 -9 0 -20 0 -9 0 -20 0 -9 0 -20 0 -9 0 -1 12 -3c7,-2 14,-3 21,-3 7,0 14,1 21,3l14 4 0 0z"/>
     <g>
      <g>
       <path class="fil21" d="M1190 533l0 8c-12,2 -24,3 -34,3 -13,0 -25,-1 -34,-2l0 -9c16,2 42,4 68,0l0 0z"/>
      </g>
      <g>
       <path class="fil21" d="M1190 557l0 8c-12,2 -23,3 -34,3 -13,0 -25,-1 -34,-3l0 -9c16,2 42,5 68,0z"/>
      </g>
      <g>
       <path class="fil21" d="M1190 582l0 9c-12,2 -23,3 -33,3 -13,0 -25,-1 -35,-3l0 -9c16,2 41,5 68,0z"/>
      </g>
      <g>
       <path class="fil21" d="M1190 610l0 9c-11,2 -23,3 -33,3 -14,0 -26,-1 -35,-3l0 -9c16,3 41,5 68,0z"/>
      </g>
      <g>
       <path class="fil21" d="M1190 639l0 9c-11,2 -22,3 -33,3 -14,0 -26,-1 -35,-3l0 -9c16,3 41,5 67,0z"/>
      </g>
      <g>
       <path class="fil21" d="M1190 668l0 9c-11,2 -22,3 -32,3 -14,0 -26,-1 -35,-3l0 -9c16,3 41,5 67,0z"/>
      </g>
      <g>
       <path class="fil21" d="M1190 697l0 9c-11,2 -22,3 -32,3 -14,0 -26,-1 -35,-3l0 -9c16,3 41,5 67,0z"/>
      </g>
      <g>
       <path class="fil21" d="M1190 726l0 9c-11,2 -22,3 -31,3 -14,0 -26,-2 -35,-3l0 -9c16,3 41,6 67,0z"/>
      </g>
      <g>
       <path class="fil21" d="M1190 755l0 9c-11,2 -21,3 -31,3 -14,0 -26,-2 -35,-3l0 -9c16,3 40,6 67,1z"/>
      </g>
      <g>
       <path class="fil21" d="M1190 783l0 9c-11,2 -21,3 -31,3 -14,0 -26,-2 -35,-3l0 -9c16,3 40,6 66,1z"/>
      </g>
      <g>
       <path class="fil21" d="M1190 812l0 9c-11,2 -21,3 -31,3 -14,0 -26,-2 -35,-4l0 -9c16,3 40,6 66,1z"/>
      </g>
      <g>
       <path class="fil21" d="M1190 841l0 9c-11,2 -21,3 -30,3 -14,0 -26,-2 -35,-4l0 -9c16,3 40,6 66,1z"/>
      </g>
     </g>
    </g>
    <g>
     <g>
      <path class="fil15" d="M1027 838c0,0 3,11 7,18 4,8 1,14 3,21 2,7 -6,6 -8,-1 -2,-7 -1,-11 -2,-11 -2,0 -6,18 -7,23 -1,5 0,18 -2,20 -2,2 -7,-5 -5,-19 1,-13 0,-13 0,-13 0,0 -1,5 -3,11 -1,6 -1,12 -1,16 0,4 -4,6 -5,4 -1,-2 -3,-15 -1,-21 2,-5 3,-14 3,-14 0,0 -5,12 -6,15 -1,3 1,15 -2,17 -1,1 -5,0 -4,-17 0,0 1,-8 3,-13 0,0 -3,4 -4,9 -1,4 -2,9 -2,14 0,5 -4,4 -4,-4 0,-8 1,-17 4,-21 2,-4 6,-29 12,-38l23 5z"/>
     </g>
    </g>
    <g>
     <path class="fil20" d="M1103 571c0,0 -19,89 -35,119 0,0 -9,43 -39,149 0,0 -16,6 -25,-6 0,0 15,-116 24,-154 0,0 40,-129 53,-145 0,0 21,8 23,36z"/>
    </g>
    <g>
     <g>
      <path class="fil15" d="M1283 838c0,0 -3,11 -7,18 -4,8 -1,14 -3,21 -2,7 6,6 8,-1 2,-7 1,-11 2,-11 2,0 6,18 7,23 1,5 0,18 2,20 2,2 7,-5 5,-19 -1,-13 0,-13 0,-13 0,0 1,5 3,11 1,6 1,12 1,16 0,4 4,6 5,4 1,-2 3,-15 1,-21 -2,-5 -3,-14 -3,-14 0,0 5,12 6,15 1,3 -1,15 2,17 1,1 5,0 4,-17 0,0 -1,-8 -3,-13 0,0 3,4 4,9 1,4 2,9 2,14 0,5 4,4 4,-4 0,-8 -1,-17 -4,-21 -2,-4 -6,-29 -12,-38l-23 5z"/>
     </g>
    </g>
    <g>
     <path class="fil20" d="M1207 571c0,0 19,89 35,119 0,0 9,43 39,149 0,0 16,6 25,-6 0,0 -15,-116 -24,-154 0,0 -40,-129 -53,-145 0,0 -21,8 -23,36z"/>
    </g>
    <g>
     <g>
      <path class="fil15" d="M1176 497l-1 14 -1 17c0,0 -3,6 -19,6 -15,0 -18,-4 -18,-4l-1 -8 -2 -25 41 0z"/>
     </g>
     <g>
      <path class="fil22" d="M1176 497l-1 14c-6,5 -21,14 -38,11l-2 -25 41 0z"/>
     </g>
    </g>
    <g>
     <g>
      <path class="fil23" d="M1109 435c0,0 -12,-11 -21,-4 -11,9 1,40 20,37l1 -33z"/>
     </g>
    </g>
    <g>
     <g>
      <path class="fil23" d="M1198 435c0,0 12,-11 21,-4 11,9 -1,40 -20,37l-1 -33z"/>
     </g>
    </g>
    <path class="fil15" d="M1154 510c-40,0 -53,-48 -56,-83 -3,-32 22,-61 54,-61 0,0 1,0 1,0 1,0 1,0 2,0 32,0 57,28 54,60 -3,35 -15,84 -55,84z"/>
    <path class="fil24" d="M1207 332c20,14 2,41 2,41 0,0 20,20 -1,67l-4 -1c2,-15 1,-33 0,-36 -3,-9 -18,-13 -17,-22 0,0 -46,14 -71,0 0,0 -2,12 -9,19 -6,6 -2,28 -2,38l-4 0c-2,-10 -8,-27 -8,-32 0,-3 -2,-16 -2,-25 -1,-8 1,-16 5,-23 2,-4 5,-8 9,-11 13,-10 84,-28 102,-15z"/>
    <g>
     <g>
      <path class="fil25" d="M1142 439c0,0 -4,-9 -12,-9 -9,0 -14,6 -14,6 0,0 2,8 13,8 10,1 13,-5 13,-5z"/>
      <path class="fil26" d="M1120 437c0,2 1,5 2,6 2,1 4,1 6,1 2,0 4,0 5,0 2,-1 3,-4 3,-6 0,-2 -1,-4 -2,-6 -2,-1 -3,-2 -6,-2 -3,0 -5,0 -7,1 -1,1 -2,3 -2,6z"/>
      <path class="fil26" d="M1142 439c0,0 -1,-2 -3,-5 -2,-2 -5,-5 -10,-5l0 0c-9,0 -14,7 -14,7l0 1 1 0 0 0c1,-1 6,-6 13,-6l0 0c4,0 7,2 9,5 1,1 2,2 2,3 0,0 0,1 0,1l0 0c0,0 0,0 1,0 0,0 0,0 0,-1z"/>
     </g>
     <g>
      <path class="fil25" d="M1191 439c0,0 -4,-9 -12,-9 -9,0 -14,6 -14,6 0,0 2,8 13,8 10,1 13,-5 13,-5z"/>
      <path class="fil26" d="M1169 437c0,2 1,5 2,6 2,1 4,1 6,1 2,0 4,0 5,0 2,-1 3,-4 3,-6 0,-2 -1,-4 -2,-6 -2,-1 -3,-2 -6,-2 -3,0 -5,0 -7,1 -1,1 -2,3 -2,6z"/>
      <path class="fil26" d="M1191 439c0,0 -1,-2 -3,-5 -2,-2 -5,-5 -10,-5l0 0c-9,0 -14,7 -14,7l0 1 1 0 0 0c1,-1 6,-6 13,-6l0 0c4,0 7,2 9,5 1,1 2,2 2,3 0,0 0,1 0,1l0 0c0,0 0,0 1,0 0,0 0,0 0,-1z"/>
     </g>
    </g>
    <g>
     <path class="fil26" d="M1128 413c0,0 -9,1 -13,4 -3,2 -3,5 1,6 3,1 9,0 13,0 9,-1 15,-4 14,-7 -1,-4 -10,-3 -15,-2z"/>
     <path class="fil26" d="M1180 413c0,0 8,1 12,4 2,2 2,5 -1,6 -3,1 -9,0 -12,0 -8,-1 -14,-4 -14,-7 1,-4 10,-3 14,-2z"/>
    </g>
    <path class="fil12" d="M1140 477l26 0c0,0 -4,8 -14,8 -10,0 -12,-8 -12,-8z"/>
    <g>
     <line class="fil18 str4" x1="1149" y1="436" x2="1149" y2= "462" />
     <path class="fil18 str4" d="M1149 462c0,1 0,1 0,2 1,2 3,3 5,2"/>
     <line class="fil18 str4" x1="1154" y1="466" x2="1159" y2= "465" />
    </g>
    <path class="fil19" d="M1234 875c0,0 1,169 -5,211l-5 222 -43 -4c-1,-102 -13,-153 -7,-219l-21 -198c0,0 37,-13 81,-12z"/>
   </g>
  </g>
 </g>
</svg>
