<?xml version="1.0" encoding="UTF-8"?>
<!DOCTYPE svg PUBLIC "-//W3C//DTD SVG 1.1//EN" "http://www.w3.org/Graphics/SVG/1.1/DTD/svg11.dtd">
<!-- Creator: CorelDRAW X6 -->
<svg xmlns="http://www.w3.org/2000/svg" xml:space="preserve" width="49.9999mm" height="50mm" version="1.1" style="shape-rendering:geometricPrecision; text-rendering:geometricPrecision; image-rendering:optimizeQuality; fill-rule:evenodd; clip-rule:evenodd"
viewBox="0 0 885 885"
 xmlns:xlink="http://www.w3.org/1999/xlink">
 <defs>
  <style type="text/css">
   <![CDATA[
    .str4 {stroke:black;stroke-width:1.34948}
    .str2 {stroke:#D16664;stroke-width:3.10451;stroke-linecap:round;stroke-linejoin:round}
    .str1 {stroke:#321A17;stroke-width:4.68599;stroke-linecap:round;stroke-linejoin:round}
    .str0 {stroke:white;stroke-width:6.24799;stroke-linecap:round;stroke-linejoin:round}
    .str3 {stroke:#2B2A29;stroke-width:14.9948;stroke-linecap:round}
    .fil14 {fill:none}
    .fil4 {fill:none;fill-rule:nonzero}
    .fil17 {fill:#B0CB1F}
    .fil16 {fill:#D9DADA}
    .fil15 {fill:#FEFEFE}
    .fil13 {fill:black}
    .fil0 {fill:#0C3853}
    .fil18 {fill:#EACCB0}
    .fil12 {fill:white}
    .fil6 {fill:#00A0E3;fill-rule:nonzero}
    .fil11 {fill:#2B2A29;fill-rule:nonzero}
    .fil3 {fill:#B2B3B3;fill-rule:nonzero}
    .fil5 {fill:#2B2B2B;fill-rule:nonzero}
    .fil2 {fill:#59342F;fill-rule:nonzero}
    .fil8 {fill:#E2E2E2;fill-rule:nonzero}
    .fil9 {fill:#F78967;fill-rule:nonzero}
    .fil10 {fill:#FFA377;fill-rule:nonzero}
    .fil1 {fill:#FFAF82;fill-rule:nonzero}
    .fil7 {fill:white;fill-rule:nonzero}
   ]]>
  </style>
   <clipPath id="id0">
    <path d="M885 443c0,245 -198,443 -443,443 -245,0 -443,-198 -443,-443 0,-245 198,-443 443,-443 245,0 443,198 443,443z"/>
   </clipPath>
     <clipPath id="id1">
      <path d="M399 831c13,0 23,11 23,23 0,13 -11,23 -23,23 -13,0 -23,-11 -23,-23 0,-13 11,-23 23,-23z"/>
     </clipPath>
     <clipPath id="id2">
      <path d="M885 443c0,245 -198,443 -443,443 -245,0 -443,-198 -443,-443 0,-245 198,-443 443,-443 245,0 443,198 443,443z"/>
     </clipPath>
 </defs>
 <g id="Layer_x0020_1">
  <metadata id="CorelCorpID_0Corel-Layer"/>
  <path class="fil0" d="M885 443c0,245 -198,443 -443,443 -245,0 -443,-198 -443,-443 0,-245 198,-443 443,-443 245,0 443,198 443,443z"/>
  <g style="clip-path:url(#id0)">
   <g id="_1073496240">
    <g>
     <g>
      <polygon id="1" class="fil1" points="505,2418 498,2218 567,2218 564,2415 "/>
      <g>
       <g>
        <path class="fil2" d="M546 2406c0,0 -9,-26 11,-38 20,-12 30,-7 31,9 1,16 2,26 2,26l-44 4z"/>
        <path class="fil2" d="M577 2390c0,0 45,32 81,31 0,0 61,1 57,55l-248 0c0,0 -15,-45 13,-81 0,0 -15,-47 21,-42l1 27c0,0 4,11 18,7 14,-4 32,-4 55,4z"/>
       </g>
       <polygon class="fil3" points="716,2504 468,2504 468,2476 716,2476 "/>
       <path class="fil4 str0" d="M557 2415c0,0 14,-20 35,-16"/>
       <path class="fil4 str0" d="M575 2425c0,0 14,-20 35,-16"/>
       <path class="fil4 str0" d="M595 2431c0,0 14,-20 35,-16"/>
       <path class="fil4 str1" d="M470 2419c0,0 59,8 62,56"/>
       <path class="fil4 str1" d="M654 2422c0,0 -38,-1 -36,52"/>
      </g>
     </g>
     <g>
      <polygon class="fil1" points="343,2418 350,2218 281,2218 284,2415 "/>
      <g>
       <g>
        <path class="fil2" d="M303 2406c0,0 9,-26 -11,-38 -20,-12 -30,-7 -31,9 -1,16 -2,26 -2,26l44 4z"/>
        <path class="fil2" d="M271 2390c0,0 -45,32 -81,31 0,0 -61,1 -57,55l248 0c0,0 15,-45 -13,-81 0,0 15,-47 -21,-42l-1 27c0,0 -4,11 -18,7 -14,-4 -32,-4 -55,4z"/>
       </g>
       <polygon class="fil3" points="132,2504 380,2504 380,2476 132,2476 "/>
       <path class="fil4 str0" d="M291 2415c0,0 -14,-20 -35,-16"/>
       <path class="fil4 str0" d="M274 2425c0,0 -14,-20 -35,-16"/>
       <path class="fil4 str0" d="M253 2431c0,0 -14,-20 -35,-16"/>
       <path class="fil4 str1" d="M378 2419c0,0 -59,8 -62,56"/>
       <path class="fil4 str1" d="M194 2422c0,0 38,-1 36,52"/>
      </g>
     </g>
     <path class="fil5" d="M244 1429c-5,-82 11,-143 13,-142 130,-8 339,-13 339,-13 0,1 1,2 1,2 0,0 21,73 9,132 -127,78 -246,94 -362,21z"/>
     <path class="fil5" d="M244 1389c0,0 -1,378 11,472l12 495 97 -10c2,-227 29,-342 15,-488l46 -443c0,0 -84,-29 -181,-26z"/>
     <g>
      <g>
       <path class="fil6" d="M614 1306c-37,19 -71,33 -105,42 -26,6 -51,10 -78,9 -24,0 -46,-2 -69,-7 -36,-8 -72,-23 -112,-44l15 -313 -2 -365 93 -25 28 -7c15,-4 31,-6 47,-6 16,0 31,2 47,6l31 8 89 24 -2 365 17 313z"/>
      </g>
     </g>
     <g>
      <path class="fil7" d="M509 605l0 743c-26,6 -51,10 -78,9 -24,0 -46,-2 -69,-7l0 -18 0 -19 0 -45 0 -19 0 -45 0 -19 0 -45 0 -19 0 -45 0 -19 0 -45 0 -19 0 -45 0 -19 0 -45 0 -19 0 -45 0 -19 0 -45 0 -19 0 -45 0 -19 0 -45 0 -19 0 -2 28 -7c15,-4 31,-6 47,-6 16,0 31,2 47,6l31 8 0 0z"/>
      <g>
       <g>
        <path class="fil8" d="M509 625l0 19c-27,5 -53,6 -77,6 -30,0 -56,-3 -76,-5l0 -19c35,5 93,10 153,-1l0 0z"/>
       </g>
       <g>
        <path class="fil8" d="M509 679l0 19c-26,5 -52,6 -76,6 -30,0 -56,-3 -77,-6l0 -19c35,5 93,10 152,0z"/>
       </g>
       <g>
        <path class="fil8" d="M509 734l0 19c-26,5 -51,6 -74,6 -30,0 -57,-3 -77,-6l0 -19c35,6 93,11 152,0z"/>
       </g>
       <g>
        <path class="fil8" d="M509 798l0 19c-26,5 -51,6 -74,6 -30,0 -57,-3 -78,-6l0 -19c35,6 92,11 151,0z"/>
       </g>
       <g>
        <path class="fil8" d="M509 863l0 19c-25,5 -50,6 -73,6 -30,0 -57,-3 -78,-6l0 -19c35,6 92,11 151,0z"/>
       </g>
       <g>
        <path class="fil8" d="M509 927l0 19c-25,5 -49,6 -72,6 -30,0 -58,-3 -78,-7l0 -19c35,6 92,12 150,1z"/>
       </g>
       <g>
        <path class="fil8" d="M509 992l0 19c-25,5 -49,6 -71,6 -30,0 -58,-3 -79,-7l0 -19c35,6 91,12 150,1z"/>
       </g>
       <g>
        <path class="fil8" d="M509 1056l0 19c-24,5 -48,6 -70,6 -31,0 -58,-3 -79,-7l0 -19c35,7 91,13 149,1z"/>
       </g>
       <g>
        <path class="fil8" d="M509 1121l0 19c-24,5 -48,6 -70,6 -31,0 -58,-3 -79,-7l0 -19c35,7 90,13 149,1z"/>
       </g>
       <g>
        <path class="fil8" d="M509 1185l0 19c-24,5 -47,6 -69,6 -31,0 -58,-4 -79,-8l0 -19c35,7 90,13 148,1z"/>
       </g>
       <g>
        <path class="fil8" d="M509 1250l0 19c-24,5 -47,6 -68,6 -31,0 -58,-4 -79,-8l0 -19c35,7 90,14 148,2z"/>
       </g>
       <g>
        <path class="fil8" d="M509 1314l0 19c-24,5 -47,6 -68,6 -31,0 -58,-4 -79,-8l0 -19c35,7 89,14 147,2z"/>
       </g>
      </g>
     </g>
     <g>
      <g>
       <path class="fil1" d="M146 1306c0,0 7,24 15,41 8,17 2,31 7,46 5,16 -14,14 -17,-2 -4,-16 -2,-24 -5,-25 -3,-1 -13,39 -15,51 -1,11 1,40 -3,45 -4,4 -15,-12 -11,-42 3,-30 1,-29 1,-29 0,0 -3,12 -6,24 -3,12 -3,28 -2,36 1,9 -8,13 -11,8 -3,-5 -7,-34 -3,-46 3,-12 8,-32 8,-32 0,0 -11,27 -13,34 -2,7 1,33 -5,38 -2,2 -10,-1 -9,-38 0,0 3,-18 7,-30 0,0 -6,8 -9,20 -3,10 -4,20 -5,31 -1,10 -10,9 -10,-9 0,-18 3,-38 8,-47 5,-10 12,-65 27,-86l52 11z"/>
      </g>
     </g>
     <g>
      <path class="fil6" d="M315 710c0,0 -43,198 -79,267 0,0 -20,96 -88,333 0,0 -36,14 -57,-13 0,0 33,-260 53,-343 0,0 89,-287 119,-324 0,0 46,19 51,81z"/>
     </g>
     <g>
      <g>
       <path class="fil1" d="M717 1306c0,0 -7,24 -15,41 -8,17 -2,31 -7,46 -5,16 14,14 17,-2 4,-16 2,-24 5,-25 3,-1 13,39 15,51 1,11 -1,40 3,45 4,4 15,-12 11,-42 -3,-30 -1,-29 -1,-29 0,0 3,12 6,24 3,12 3,28 2,36 -1,9 8,13 11,8 3,-5 7,-34 3,-46 -3,-12 -8,-32 -8,-32 0,0 11,27 13,34 2,7 -1,33 5,38 2,2 10,-1 9,-38 0,0 -3,-18 -7,-30 0,0 6,8 9,20 3,10 4,20 5,31 1,10 10,9 10,-9 0,-18 -3,-38 -8,-47 -5,-10 -12,-65 -27,-86l-52 11z"/>
      </g>
     </g>
     <g>
      <path class="fil6" d="M549 710c0,0 43,198 79,267 0,0 20,96 88,333 0,0 36,14 57,-13 0,0 -33,-260 -53,-343 0,0 -89,-287 -119,-324 0,0 -46,19 -51,81z"/>
     </g>
     <g>
      <g>
       <path class="fil1" d="M480 545l-2 30 -2 38c0,0 -8,14 -42,14 -34,0 -41,-10 -41,-10l-1 -17 -5 -56 92 0z"/>
      </g>
      <g>
       <path class="fil9" d="M480 545l-2 30c-14,11 -48,32 -86,26l-5 -56 92 0z"/>
      </g>
     </g>
     <g>
      <g>
       <path class="fil10" d="M329 407c0,0 -26,-25 -47,-9 -25,20 1,90 45,83l2 -74z"/>
      </g>
     </g>
     <g>
      <g>
       <path class="fil10" d="M529 407c0,0 26,-25 47,-9 25,20 -1,90 -45,83l-2 -74z"/>
      </g>
     </g>
     <path class="fil1" d="M430 574c-90,0 -118,-107 -126,-185 -8,-72 48,-136 121,-137 1,0 2,0 3,0 1,0 2,0 4,0 72,1 128,63 121,134 -7,79 -33,188 -123,188z"/>
     <path class="fil11" d="M547 176c46,31 4,92 4,92 0,0 45,45 -1,149l-8 -2c5,-34 2,-74 0,-81 -6,-19 -40,-29 -38,-50 0,0 -103,32 -159,1 0,0 -4,27 -20,43 -13,14 -6,63 -4,84l-9 1c-5,-21 -17,-60 -19,-72 -1,-7 -4,-36 -5,-56 -1,-18 2,-36 10,-52 4,-9 11,-18 19,-24 30,-22 188,-62 229,-34z"/>
     <g>
      <g>
       <path class="fil12" d="M403 416c0,0 -8,-20 -27,-21 -19,-1 -31,14 -31,14 0,0 5,17 28,18 23,1 30,-12 30,-12z"/>
       <path class="fil13" d="M355 410c0,5 2,10 5,14 4,2 8,3 13,3 5,0 9,0 12,-1 4,-3 7,-8 7,-14 0,-5 -2,-10 -5,-14 -3,-2 -8,-4 -13,-4 -6,0 -11,1 -16,3 -3,3 -5,8 -6,13z"/>
       <path class="fil13" d="M404 415c0,0 -2,-5 -6,-11 -4,-5 -12,-11 -22,-11l0 0c-20,0 -31,15 -31,15l0 2 2 0 0 -1c2,-3 12,-13 29,-13l0 0c10,0 16,5 20,10 2,3 4,5 5,7 0,1 1,2 1,2l0 1c0,1 1,1 1,1 1,0 1,-1 1,-2z"/>
      </g>
      <g>
       <path class="fil12" d="M512 416c0,0 -8,-20 -27,-21 -19,-1 -31,14 -31,14 0,0 5,17 28,18 23,1 30,-12 30,-12z"/>
       <path class="fil13" d="M464 410c0,5 2,10 5,14 4,2 8,3 13,3 5,0 9,0 12,-1 4,-3 7,-8 7,-14 0,-5 -2,-10 -5,-14 -3,-2 -8,-4 -13,-4 -6,0 -11,1 -16,3 -3,3 -5,8 -6,13z"/>
       <path class="fil13" d="M513 415c0,0 -2,-5 -6,-11 -4,-5 -12,-11 -22,-11l0 0c-20,0 -31,15 -31,15l0 2 2 0 0 -1c2,-3 12,-13 29,-13l0 0c10,0 16,5 20,10 2,3 4,5 5,7 0,1 1,2 1,2l0 1c0,1 1,1 1,1 1,0 1,-1 1,-2z"/>
      </g>
     </g>
     <g>
      <path class="fil13" d="M371 357c0,0 -19,2 -29,8 -6,4 -6,10 1,13 6,2 20,1 28,0 20,-2 33,-10 32,-16 -2,-8 -23,-7 -33,-5z"/>
      <path class="fil13" d="M488 357c0,0 18,2 27,8 5,4 5,10 -1,13 -6,2 -19,1 -27,0 -19,-2 -32,-10 -30,-16 2,-8 21,-7 31,-5z"/>
     </g>
     <path class="fil7" d="M399 501l59 0c0,0 -10,18 -32,17 -22,-1 -27,-17 -27,-17z"/>
     <g>
      <line class="fil4 str2" x1="417" y1="408" x2="417" y2= "466" />
      <path class="fil4 str2" d="M417 466c0,1 0,3 1,4 2,4 7,7 12,5"/>
      <line class="fil4 str2" x1="430" y1="475" x2="440" y2= "472" />
     </g>
     <path class="fil5" d="M609 1389c0,0 1,378 -11,472l-12 495 -97 -10c-2,-227 -29,-342 -15,-488l-46 -443c0,0 84,-29 181,-26z"/>
     <path class="fil14 str3" d="M328 597c0,0 32,229 97,258 0,0 41,0 105,-258"/>
     <rect class="fil15 str4" x="364" y="816" width="129.325" height="76.846"/>
     <rect class="fil16" x="429" y="835" width="46.8564" height="3.27984"/>
     <rect class="fil16" x="429" y="848" width="46.8564" height="3.27984"/>
     <rect class="fil16" x="429" y="861" width="46.8564" height="3.27984"/>
     <rect class="fil16" x="429" y="873" width="46.8564" height="3.27984"/>
     <path class="fil17" d="M399 831c13,0 23,11 23,23 0,13 -11,23 -23,23 -13,0 -23,-11 -23,-23 0,-13 11,-23 23,-23z"/>
    </g>
    <g style="clip-path:url(#id1)">
     <g>
      <g>
       <polygon id="1" class="fil1" points="404,954 403,943 407,943 407,954 "/>
       <g>
        <g>
         <path class="fil2" d="M406 953c0,0 0,-1 1,-2 1,-1 2,0 2,0 0,1 0,1 0,1l-2 0z"/>
         <path class="fil2" d="M408 952c0,0 2,2 4,2 0,0 3,0 3,3l-13 0c0,0 -1,-2 1,-4 0,0 -1,-2 1,-2l0 1c0,0 0,1 1,0 1,0 2,0 3,0z"/>
        </g>
        <polygon class="fil3" points="415,958 402,958 402,957 415,957 "/>
        <path class="fil4 str0" d="M407 954c0,0 1,-1 2,-1"/>
        <path class="fil4 str0" d="M407 954c0,0 1,-1 2,-1"/>
        <path class="fil4 str0" d="M409 955c0,0 1,-1 2,-1"/>
        <path class="fil4 str1" d="M402 954c0,0 3,0 3,3"/>
        <path class="fil4 str1" d="M412 954c0,0 -2,0 -2,3"/>
       </g>
      </g>
      <g>
       <polygon class="fil1" points="395,954 396,943 392,943 392,954 "/>
       <g>
        <g>
         <path class="fil2" d="M393 953c0,0 0,-1 -1,-2 -1,-1 -2,0 -2,0 0,1 0,1 0,1l2 0z"/>
         <path class="fil2" d="M391 952c0,0 -2,2 -4,2 0,0 -3,0 -3,3l13 0c0,0 1,-2 -1,-4 0,0 1,-2 -1,-2l0 1c0,0 0,1 -1,0 -1,0 -2,0 -3,0z"/>
        </g>
        <polygon class="fil3" points="384,958 397,958 397,957 384,957 "/>
        <path class="fil4 str0" d="M392 954c0,0 -1,-1 -2,-1"/>
        <path class="fil4 str0" d="M391 954c0,0 -1,-1 -2,-1"/>
        <path class="fil4 str0" d="M390 955c0,0 -1,-1 -2,-1"/>
        <path class="fil4 str1" d="M397 954c0,0 -3,0 -3,3"/>
        <path class="fil4 str1" d="M387 954c0,0 2,0 2,3"/>
       </g>
      </g>
      <path class="fil5" d="M390 901c0,-4 1,-8 1,-8 7,0 18,-1 18,-1 0,0 0,0 0,0 0,0 1,4 0,7 -7,4 -13,5 -19,1z"/>
      <path class="fil5" d="M390 899c0,0 0,20 1,25l1 26 5 -1c0,-12 2,-18 1,-26l2 -24c0,0 -4,-2 -10,-1z"/>
      <g>
       <g>
        <path class="fil6" d="M410 895c-2,1 -4,2 -6,2 -1,0 -3,1 -4,1 -1,0 -2,0 -4,0 -2,0 -4,-1 -6,-2l1 -17 0 -19 5 -1 1 0c1,0 2,0 2,0 1,0 2,0 2,0l2 0 5 1 0 19 1 17z"/>
       </g>
      </g>
      <g>
       <path class="fil7" d="M404 858l0 39c-1,0 -3,1 -4,1 -1,0 -2,0 -4,0l0 -1 0 -1 0 -2 0 -1 0 -2 0 -1 0 -2 0 -1 0 -2 0 -1 0 -2 0 -1 0 -2 0 -1 0 -2 0 -1 0 -2 0 -1 0 -2 0 -1 0 -2 0 -1 0 -2 0 -1 0 0 1 0c1,0 2,0 2,0 1,0 2,0 2,0l2 0 0 0z"/>
       <g>
        <g>
         <path class="fil8" d="M404 859l0 1c-1,0 -3,0 -4,0 -2,0 -3,0 -4,0l0 -1c2,0 5,1 8,0l0 0z"/>
        </g>
        <g>
         <path class="fil8" d="M404 862l0 1c-1,0 -3,0 -4,0 -2,0 -3,0 -4,0l0 -1c2,0 5,1 8,0z"/>
        </g>
        <g>
         <path class="fil8" d="M404 865l0 1c-1,0 -3,0 -4,0 -2,0 -3,0 -4,0l0 -1c2,0 5,1 8,0z"/>
        </g>
        <g>
         <path class="fil8" d="M404 868l0 1c-1,0 -3,0 -4,0 -2,0 -3,0 -4,0l0 -1c2,0 5,1 8,0z"/>
        </g>
        <g>
         <path class="fil8" d="M404 871l0 1c-1,0 -3,0 -4,0 -2,0 -3,0 -4,0l0 -1c2,0 5,1 8,0z"/>
        </g>
        <g>
         <path class="fil8" d="M404 875l0 1c-1,0 -3,0 -4,0 -2,0 -3,0 -4,0l0 -1c2,0 5,1 8,0z"/>
        </g>
        <g>
         <path class="fil8" d="M404 878l0 1c-1,0 -3,0 -4,0 -2,0 -3,0 -4,0l0 -1c2,0 5,1 8,0z"/>
        </g>
        <g>
         <path class="fil8" d="M404 882l0 1c-1,0 -3,0 -4,0 -2,0 -3,0 -4,0l0 -1c2,0 5,1 8,0z"/>
        </g>
        <g>
         <path class="fil8" d="M404 885l0 1c-1,0 -3,0 -4,0 -2,0 -3,0 -4,0l0 -1c2,0 5,1 8,0z"/>
        </g>
        <g>
         <path class="fil8" d="M404 888l0 1c-1,0 -3,0 -4,0 -2,0 -3,0 -4,0l0 -1c2,0 5,1 8,0z"/>
        </g>
        <g>
         <path class="fil8" d="M404 892l0 1c-1,0 -2,0 -4,0 -2,0 -3,0 -4,0l0 -1c2,0 5,1 8,0z"/>
        </g>
        <g>
         <path class="fil8" d="M404 895l0 1c-1,0 -2,0 -4,0 -2,0 -3,0 -4,0l0 -1c2,0 5,1 8,0z"/>
        </g>
       </g>
      </g>
      <g>
       <g>
        <path class="fil1" d="M385 895c0,0 0,1 1,2 0,1 0,2 0,2 0,1 -1,1 -1,0 0,-1 0,-1 0,-1 0,0 -1,2 -1,3 0,1 0,2 0,2 0,0 -1,-1 -1,-2 0,-2 0,-2 0,-2 0,0 0,1 0,1 0,1 0,1 0,2 0,0 0,1 -1,0 0,0 0,-2 0,-2 0,-1 0,-2 0,-2 0,0 -1,1 -1,2 0,0 0,2 0,2 0,0 -1,0 0,-2 0,0 0,-1 0,-2 0,0 0,0 0,1 0,1 0,1 0,2 0,1 -1,0 -1,0 0,-1 0,-2 0,-2 0,-1 1,-3 1,-5l3 1z"/>
       </g>
      </g>
      <g>
       <path class="fil6" d="M394 863c0,0 -2,11 -4,14 0,0 -1,5 -5,18 0,0 -2,1 -3,-1 0,0 2,-14 3,-18 0,0 5,-15 6,-17 0,0 2,1 3,4z"/>
      </g>
      <g>
       <g>
        <path class="fil1" d="M415 895c0,0 0,1 -1,2 0,1 0,2 0,2 0,1 1,1 1,0 0,-1 0,-1 0,-1 0,0 1,2 1,3 0,1 0,2 0,2 0,0 1,-1 1,-2 0,-2 0,-2 0,-2 0,0 0,1 0,1 0,1 0,1 0,2 0,0 0,1 1,0 0,0 0,-2 0,-2 0,-1 0,-2 0,-2 0,0 1,1 1,2 0,0 0,2 0,2 0,0 1,0 0,-2 0,0 0,-1 0,-2 0,0 0,0 0,1 0,1 0,1 0,2 0,1 1,0 1,0 0,-1 0,-2 0,-2 0,-1 -1,-3 -1,-5l-3 1z"/>
       </g>
      </g>
      <g>
       <path class="fil6" d="M406 863c0,0 2,11 4,14 0,0 1,5 5,18 0,0 2,1 3,-1 0,0 -2,-14 -3,-18 0,0 -5,-15 -6,-17 0,0 -2,1 -3,4z"/>
      </g>
      <g>
       <g>
        <path class="fil1" d="M402 854l0 2 0 2c0,0 0,1 -2,1 -2,0 -2,-1 -2,-1l0 -1 0 -3 5 0z"/>
       </g>
       <g>
        <path class="fil9" d="M402 854l0 2c-1,1 -3,2 -5,1l0 -3 5 0z"/>
       </g>
      </g>
      <g>
       <g>
        <path class="fil10" d="M394 847c0,0 -1,-1 -2,0 -1,1 0,5 2,4l0 -4z"/>
       </g>
      </g>
      <g>
       <g>
        <path class="fil10" d="M405 847c0,0 1,-1 2,0 1,1 0,5 -2,4l0 -4z"/>
       </g>
      </g>
      <path class="fil1" d="M400 856c-5,0 -6,-6 -7,-10 0,-4 3,-7 6,-7 0,0 0,0 0,0 0,0 0,0 0,0 4,0 7,3 6,7 0,4 -2,10 -7,10z"/>
      <path class="fil11" d="M406 835c2,2 0,5 0,5 0,0 2,2 0,8l0 0c0,-2 0,-4 0,-4 0,-1 -2,-2 -2,-3 0,0 -5,2 -8,0 0,0 0,1 -1,2 -1,1 0,3 0,4l0 0c0,-1 -1,-3 -1,-4 0,0 0,-2 0,-3 0,-1 0,-2 1,-3 0,0 1,-1 1,-1 2,-1 10,-3 12,-2z"/>
      <g>
       <g>
        <path class="fil12" d="M398 848c0,0 0,-1 -1,-1 -1,0 -2,1 -2,1 0,0 0,1 1,1 1,0 2,-1 2,-1z"/>
        <path class="fil13" d="M396 847c0,0 0,1 0,1 0,0 0,0 1,0 0,0 0,0 1,0 0,0 0,0 0,-1 0,0 0,-1 0,-1 0,0 0,0 -1,0 0,0 -1,0 -1,0 0,0 0,0 0,1z"/>
        <path class="fil13" d="M398 848c0,0 0,0 0,-1 0,0 -1,-1 -1,-1l0 0c-1,0 -2,1 -2,1l0 0 0 0 0 0c0,0 1,-1 2,-1l0 0c1,0 1,0 1,1 0,0 0,0 0,0 0,0 0,0 0,0l0 0c0,0 0,0 0,0 0,0 0,0 0,0z"/>
       </g>
       <g>
        <path class="fil12" d="M404 848c0,0 0,-1 -1,-1 -1,0 -2,1 -2,1 0,0 0,1 1,1 1,0 2,-1 2,-1z"/>
        <path class="fil13" d="M402 847c0,0 0,1 0,1 0,0 0,0 1,0 0,0 0,0 1,0 0,0 0,0 0,-1 0,0 0,-1 0,-1 0,0 0,0 -1,0 0,0 -1,0 -1,0 0,0 0,0 0,1z"/>
        <path class="fil13" d="M404 848c0,0 0,0 0,-1 0,0 -1,-1 -1,-1l0 0c-1,0 -2,1 -2,1l0 0 0 0 0 0c0,0 1,-1 2,-1l0 0c1,0 1,0 1,1 0,0 0,0 0,0 0,0 0,0 0,0l0 0c0,0 0,0 0,0 0,0 0,0 0,0z"/>
       </g>
      </g>
      <g>
       <path class="fil13" d="M397 845c0,0 -1,0 -2,0 0,0 0,1 0,1 0,0 1,0 2,0 1,0 2,-1 2,-1 0,0 -1,0 -2,0z"/>
       <path class="fil13" d="M403 845c0,0 1,0 1,0 0,0 0,1 0,1 0,0 -1,0 -1,0 -1,0 -2,-1 -2,-1 0,0 1,0 2,0z"/>
      </g>
      <path class="fil7" d="M398 852l3 0c0,0 -1,1 -2,1 -1,0 -1,-1 -1,-1z"/>
      <g>
       <line class="fil4" x1="399" y1="847" x2="399" y2= "850" />
       <path class="fil4" d="M399 850c0,0 0,0 0,0 0,0 0,0 1,0"/>
       <line class="fil4" x1="400" y1="851" x2="400" y2= "851" />
      </g>
      <path class="fil5" d="M409 899c0,0 0,20 -1,25l-1 26 -5 -1c0,-12 -2,-18 -1,-26l-2 -24c0,0 4,-2 10,-1z"/>
     </g>
    </g>
    <g style="clip-path:url(#id2)">
     <path class="fil14" d="M399 831c13,0 23,11 23,23 0,13 -11,23 -23,23 -13,0 -23,-11 -23,-23 0,-13 11,-23 23,-23z"/>
    </g>
   </g>
  </g>
  <path class="fil14" d="M885 443c0,245 -198,443 -443,443 -245,0 -443,-198 -443,-443 0,-245 198,-443 443,-443 245,0 443,198 443,443z"/>
  <path class="fil18" d="M445 720l0 -1 1 -1c0,1 -1,1 -1,1l-1 -1 1 1z"/>
 </g>
</svg>
