<?xml version="1.0" encoding="UTF-8"?>
<!DOCTYPE svg PUBLIC "-//W3C//DTD SVG 1.1//EN" "http://www.w3.org/Graphics/SVG/1.1/DTD/svg11.dtd">
<!-- Creator: CorelDRAW X6 -->
<svg xmlns="http://www.w3.org/2000/svg" xml:space="preserve" width="50.2mm" height="50.2mm" version="1.1" style="shape-rendering:geometricPrecision; text-rendering:geometricPrecision; image-rendering:optimizeQuality; fill-rule:evenodd; clip-rule:evenodd"
viewBox="0 0 3158 3158"
 xmlns:xlink="http://www.w3.org/1999/xlink">
 <defs>
  <style type="text/css">
   <![CDATA[
    .str3 {stroke:#31314B;stroke-width:4.79353}
    .str2 {stroke:#D16664;stroke-width:11.0276;stroke-linecap:round;stroke-linejoin:round}
    .str4 {stroke:#8FC8D1;stroke-width:12.5815}
    .str1 {stroke:#321A17;stroke-width:16.6453;stroke-linecap:round;stroke-linejoin:round}
    .str0 {stroke:white;stroke-width:22.1937;stroke-linecap:round;stroke-linejoin:round}
    .fil26 {fill:none}
    .fil4 {fill:none;fill-rule:nonzero}
    .fil19 {fill:#84919A}
    .fil15 {fill:#F6AC80}
    .fil13 {fill:black}
    .fil25 {fill:#291FAC}
    .fil24 {fill:#31314B}
    .fil0 {fill:#8FC8D1}
    .fil21 {fill:#995342}
    .fil18 {fill:#C11C56}
    .fil23 {fill:#DE5A62}
    .fil14 {fill:#E62F67}
    .fil22 {fill:#ECB82D}
    .fil16 {fill:#F0E3E7}
    .fil20 {fill:#FFAF82}
    .fil12 {fill:white}
    .fil6 {fill:#00A0E3;fill-rule:nonzero}
    .fil11 {fill:#2B2A29;fill-rule:nonzero}
    .fil3 {fill:#B2B3B3;fill-rule:nonzero}
    .fil27 {fill:#E31E24;fill-rule:nonzero}
    .fil5 {fill:#2B2B2B;fill-rule:nonzero}
    .fil2 {fill:#59342F;fill-rule:nonzero}
    .fil17 {fill:#C11C56;fill-rule:nonzero}
    .fil8 {fill:#E2E2E2;fill-rule:nonzero}
    .fil9 {fill:#F78967;fill-rule:nonzero}
    .fil10 {fill:#FFA377;fill-rule:nonzero}
    .fil1 {fill:#FFAF82;fill-rule:nonzero}
    .fil7 {fill:white;fill-rule:nonzero}
   ]]>
  </style>
    <clipPath id="id0">
     <path d="M1579 6c869,0 1573,704 1573,1573 0,869 -704,1573 -1573,1573 -869,0 -1573,-704 -1573,-1573 0,-869 704,-1573 1573,-1573z"/>
    </clipPath>
 </defs>
 <g id="Layer_x0020_1">
  <metadata id="CorelCorpID_0Corel-Layer"/>
  <g id="_2009168848">
   <path class="fil0" d="M1579 6c869,0 1573,704 1573,1573 0,869 -704,1573 -1573,1573 -869,0 -1573,-704 -1573,-1573 0,-869 704,-1573 1573,-1573z"/>
   <g style="clip-path:url(#id0)">
    <g>
     <g>
      <g>
       <polygon id="1" class="fil1" points="2393,5356 2379,4961 2515,4961 2509,5349 "/>
       <g>
        <g>
         <path class="fil2" d="M2473 5332c0,0 -17,-51 22,-76 39,-24 59,-14 61,17 3,32 4,50 4,50l-86 8z"/>
         <path class="fil2" d="M2536 5300c0,0 90,62 160,61 0,0 121,2 113,109l-488 -1c0,0 -30,-88 27,-159 0,0 -30,-93 42,-84l2 52c0,0 9,21 36,13 28,-8 64,-9 109,8z"/>
        </g>
        <polygon class="fil3" points="2809,5524 2320,5524 2320,5469 2809,5469 "/>
        <path class="fil4 str0" d="M2496 5350c0,0 28,-39 69,-32"/>
        <path class="fil4 str0" d="M2530 5369c0,0 28,-39 69,-32"/>
        <path class="fil4 str0" d="M2570 5381c0,0 28,-39 69,-32"/>
        <path class="fil4 str1" d="M2324 5357c0,0 116,15 123,111"/>
        <path class="fil4 str1" d="M2687 5362c0,0 -75,-2 -72,103"/>
       </g>
      </g>
      <g>
       <polygon class="fil1" points="2074,5356 2088,4961 1951,4961 1957,5349 "/>
       <g>
        <g>
         <path class="fil2" d="M1994 5332c0,0 17,-51 -22,-76 -39,-24 -59,-14 -61,17 -3,32 -4,50 -4,50l86 8z"/>
         <path class="fil2" d="M1931 5300c0,0 -90,62 -160,61 0,0 -121,2 -113,109l488 -1c0,0 30,-88 -27,-159 0,0 30,-93 -42,-84l-2 52c0,0 -9,21 -36,13 -28,-8 -64,-9 -109,8z"/>
        </g>
        <polygon class="fil3" points="1658,5524 2147,5524 2147,5469 1658,5469 "/>
        <path class="fil4 str0" d="M1971 5350c0,0 -28,-39 -69,-32"/>
        <path class="fil4 str0" d="M1937 5369c0,0 -28,-39 -69,-32"/>
        <path class="fil4 str0" d="M1897 5381c0,0 -28,-39 -69,-32"/>
        <path class="fil4 str1" d="M2142 5357c0,0 -116,15 -123,111"/>
        <path class="fil4 str1" d="M1779 5362c0,0 75,-2 72,103"/>
       </g>
      </g>
      <path class="fil5" d="M1879 3405c-9,-162 22,-281 26,-279 256,-16 668,-26 668,-26 1,2 1,3 2,5 0,0 41,144 17,260 -250,153 -485,184 -713,42z"/>
      <path class="fil5" d="M1879 3326c0,0 -2,746 21,931l24 977 191 -19c4,-448 57,-675 30,-963l91 -874c0,0 -165,-58 -357,-52z"/>
      <g>
       <g>
        <path class="fil6" d="M2608 3163c-72,38 -139,66 -206,82 -51,13 -101,19 -154,19 -47,0 -91,-5 -135,-15 -72,-16 -143,-45 -221,-87l30 -616 -3 -719 183 -49 55 -15c30,-8 61,-12 92,-12 31,0 62,4 92,12l62 17 176 47 -3 719 34 616z"/>
       </g>
      </g>
      <g>
       <path class="fil7" d="M2401 1780l0 1465c-51,13 -101,19 -154,19 -47,0 -91,-5 -135,-15l0 -36 0 -38 -1 -89 0 -38 -1 -89 0 -38 -1 -89 0 -38 -1 -89 0 -38 -1 -89 0 -38 -1 -89 0 -38 -1 -89 0 -38 -1 -89 0 -38 -1 -89 0 -38 -1 -89 0 -38 -1 -89 0 -38 0 -3 55 -15c30,-8 61,-12 92,-12 31,0 62,4 92,12l61 17 1 0z"/>
       <g>
        <g>
         <path class="fil8" d="M2401 1819l0 37c-53,9 -104,12 -151,12 -58,0 -110,-5 -150,-11l0 -38c70,10 184,19 301,-1l1 0z"/>
        </g>
        <g>
         <path class="fil8" d="M2401 1925l0 37c-52,9 -102,12 -149,12 -59,0 -111,-5 -151,-11l0 -38c70,10 183,20 300,-1z"/>
        </g>
        <g>
         <path class="fil8" d="M2401 2034l0 38c-51,9 -101,12 -147,12 -59,0 -112,-6 -152,-12l0 -38c70,11 183,21 299,0z"/>
        </g>
        <g>
         <path class="fil8" d="M2401 2161l0 38c-51,9 -100,12 -145,12 -60,0 -112,-6 -153,-12l0 -38c70,11 182,22 299,0z"/>
        </g>
        <g>
         <path class="fil8" d="M2401 2288l0 38c-50,9 -98,12 -143,12 -60,0 -113,-6 -154,-13l0 -38c70,12 181,23 297,1z"/>
        </g>
        <g>
         <path class="fil8" d="M2401 2416l0 38c-49,9 -97,12 -142,12 -60,0 -114,-6 -155,-13l0 -38c70,12 180,23 296,1z"/>
        </g>
        <g>
         <path class="fil8" d="M2401 2543l0 38c-49,9 -96,13 -140,13 -60,0 -114,-6 -155,-14l0 -38c70,13 180,24 295,1z"/>
        </g>
        <g>
         <path class="fil8" d="M2401 2670l0 38c-48,9 -95,13 -139,13 -60,0 -114,-7 -155,-14l0 -38c69,13 179,25 294,2z"/>
        </g>
        <g>
         <path class="fil8" d="M2401 2797l0 38c-48,9 -94,13 -137,13 -60,0 -114,-7 -156,-15l0 -38c69,14 178,26 293,2z"/>
        </g>
        <g>
         <path class="fil8" d="M2401 2924l0 38c-47,9 -93,13 -136,13 -60,0 -114,-7 -156,-15l0 -38c69,14 178,26 292,3z"/>
        </g>
        <g>
         <path class="fil8" d="M2401 3051l0 38c-47,9 -93,13 -135,13 -60,0 -114,-7 -156,-16l0 -38c69,14 177,27 291,3z"/>
        </g>
        <g>
         <path class="fil8" d="M2401 3178l0 38c-47,9 -92,13 -134,13 -60,0 -114,-7 -156,-16l0 -38c69,15 176,27 290,3z"/>
        </g>
       </g>
      </g>
      <g>
       <g>
        <path class="fil1" d="M1686 3162c0,0 14,47 30,81 16,34 5,60 14,91 9,31 -27,28 -35,-4 -7,-32 -4,-48 -11,-49 -7,-1 -26,78 -29,100 -3,23 2,79 -7,88 -8,9 -29,-23 -22,-82 6,-59 2,-58 2,-58 0,0 -6,23 -11,47 -6,25 -6,55 -5,71 1,17 -16,25 -21,16 -5,-9 -13,-68 -6,-90 7,-23 15,-62 15,-62 0,0 -23,53 -26,66 -4,14 3,65 -9,75 -5,4 -21,-1 -18,-75 0,0 5,-36 13,-58 0,0 -12,17 -18,39 -5,20 -8,40 -10,60 -2,20 -19,17 -19,-18 0,-35 6,-74 16,-93 10,-19 24,-128 54,-169l103 22z"/>
       </g>
      </g>
      <g>
       <path class="fil6" d="M2018 1987c0,0 -84,391 -155,526 0,0 -39,190 -174,657 0,0 -71,28 -112,-26 0,0 65,-513 105,-677 0,0 176,-567 236,-640 0,0 91,37 100,160z"/>
      </g>
      <g>
       <g>
        <path class="fil1" d="M2811 3162c0,0 -14,47 -30,81 -16,34 -5,60 -14,91 -9,31 27,28 35,-4 7,-32 4,-48 11,-49 7,-1 26,78 29,100 3,23 -2,79 7,88 8,9 29,-23 22,-82 -6,-59 -2,-58 -2,-58 0,0 6,23 11,47 6,25 6,55 5,71 -1,17 16,25 21,16 5,-9 13,-68 6,-90 -7,-23 -15,-62 -15,-62 0,0 23,53 26,66 4,14 -3,65 9,75 5,4 21,-1 18,-75 0,0 -5,-36 -13,-58 0,0 12,17 18,39 5,20 8,40 10,60 2,20 19,17 19,-18 0,-35 -6,-74 -16,-93 -10,-19 -24,-128 -54,-169l-103 22z"/>
       </g>
      </g>
      <g>
       <path class="fil6" d="M2480 1987c0,0 84,391 155,526 0,0 39,190 174,657 0,0 71,28 112,-26 0,0 -65,-513 -105,-677 0,0 -176,-567 -236,-640 0,0 -91,37 -100,160z"/>
      </g>
      <g>
       <g>
        <path class="fil1" d="M2343 1661l-3 60 -4 75c0,0 -15,28 -82,28 -67,0 -81,-19 -81,-19l-3 -33 -9 -110 182 0z"/>
       </g>
       <g>
        <path class="fil9" d="M2343 1661l-3 60c-28,21 -94,62 -169,51l-9 -110 182 0z"/>
       </g>
      </g>
      <g>
       <g>
        <path class="fil10" d="M2047 1389c0,0 -51,-50 -92,-17 -48,39 2,178 88,163l4 -146z"/>
       </g>
      </g>
      <g>
       <g>
        <path class="fil10" d="M2439 1389c0,0 51,-50 92,-17 48,39 -2,178 -88,163l-4 -146z"/>
       </g>
      </g>
      <path class="fil1" d="M2246 1719c-178,0 -232,-211 -249,-365 -15,-142 95,-268 239,-269 2,0 4,0 6,0 2,0 5,0 7,0 141,2 251,124 239,265 -14,156 -65,370 -242,370z"/>
      <path class="fil11" d="M2476 934c90,62 9,182 9,182 0,0 90,88 -3,294l-16 -3c10,-66 4,-147 0,-159 -12,-38 -79,-58 -75,-99 0,0 -203,64 -313,1 0,0 -9,52 -39,85 -25,28 -11,124 -8,165l-17 2c-10,-42 -34,-119 -37,-141 -2,-14 -8,-70 -10,-111 -2,-35 4,-71 20,-102 9,-17 21,-35 38,-47 59,-44 370,-123 452,-67z"/>
      <g>
       <g>
        <path class="fil12" d="M2191 1407c0,0 -16,-39 -53,-41 -38,-2 -61,28 -61,28 0,0 10,33 56,36 46,2 58,-23 58,-23z"/>
        <path class="fil13" d="M2096 1396c-1,11 3,20 10,28 7,3 16,5 26,6 9,0 17,0 24,-2 9,-7 14,-17 15,-28 0,-10 -3,-20 -9,-27 -7,-4 -15,-7 -25,-7 -12,-1 -22,2 -31,6 -6,6 -10,15 -11,25z"/>
        <path class="fil13" d="M2193 1406c0,0 -4,-11 -12,-21 -9,-11 -23,-21 -43,-22l-1 0c-40,0 -61,29 -62,29l0 3 3 0 1 -1c4,-5 24,-26 57,-26l1 0c19,0 31,10 40,20 4,5 7,10 9,14 1,2 2,3 2,4l1 2c0,1 2,2 3,1 1,0 2,-2 1,-3z"/>
       </g>
       <g>
        <path class="fil12" d="M2407 1407c0,0 -16,-39 -53,-41 -38,-2 -61,28 -61,28 0,0 10,33 56,36 46,2 58,-23 58,-23z"/>
        <path class="fil13" d="M2312 1396c-1,11 3,20 10,28 7,3 16,5 26,6 9,0 17,0 24,-2 9,-7 14,-17 15,-28 0,-10 -3,-20 -9,-27 -7,-4 -15,-7 -25,-7 -12,-1 -22,2 -31,6 -6,6 -10,15 -11,25z"/>
        <path class="fil13" d="M2409 1406c0,0 -4,-11 -12,-21 -9,-11 -23,-21 -43,-22l-1 0c-40,0 -61,29 -62,29l0 3 3 0 1 -1c4,-5 24,-26 57,-26l1 0c19,0 31,10 40,20 4,5 7,10 9,14 1,2 2,3 2,4l1 2c0,1 2,2 3,1 1,0 2,-2 1,-3z"/>
       </g>
      </g>
      <g>
       <path class="fil13" d="M2128 1291c0,0 -38,5 -57,17 -11,7 -11,20 3,25 13,4 40,1 56,0 40,-5 66,-19 63,-32 -3,-16 -45,-13 -65,-9z"/>
       <path class="fil13" d="M2359 1291c0,0 36,5 54,17 11,7 11,20 -3,25 -12,4 -38,1 -53,0 -37,-5 -62,-19 -60,-32 3,-16 42,-13 62,-9z"/>
      </g>
      <path class="fil7" d="M2184 1575l116 0c0,0 -19,36 -62,34 -43,-2 -54,-34 -54,-34z"/>
      <g>
       <line class="fil4 str2" x1="2220" y1="1391" x2="2220" y2= "1506" />
       <path class="fil4 str2" d="M2220 1506c0,3 0,5 1,7 4,9 14,13 23,11"/>
       <line class="fil4 str2" x1="2244" y1="1524" x2="2264" y2= "1519" />
      </g>
      <path class="fil5" d="M2598 3326c0,0 2,746 -21,931l-24 977 -191 -19c-4,-448 -57,-675 -30,-963l-91 -874c0,0 165,-58 357,-52z"/>
     </g>
     <g>
      <g>
       <g>
        <g>
         <path class="fil1" d="M1485 3302c0,0 -14,47 -30,81 -16,34 -5,60 -14,91 -9,31 27,28 34,-4 7,-32 4,-47 11,-49 7,-1 26,78 29,100 3,23 -2,79 7,88 8,9 29,-23 22,-82 -6,-59 -2,-58 -2,-58 0,0 6,23 11,47 6,25 6,54 5,71 -1,17 16,25 21,16 5,-9 13,-67 6,-90 -7,-23 -15,-62 -15,-62 0,0 22,53 26,66 4,14 -3,65 9,75 5,4 21,-1 18,-75 0,0 -5,-36 -13,-58 0,0 12,17 18,39 5,20 8,40 10,60 2,20 19,17 19,-18 0,-35 -6,-74 -16,-93 -10,-19 -24,-128 -54,-169l-103 22z"/>
        </g>
       </g>
       <g>
        <path class="fil1" d="M1154 2128c0,0 87,402 158,537 0,0 36,178 171,644 0,0 70,28 112,-25 0,0 -75,-515 -115,-678 0,0 -127,-577 -252,-673 0,0 -64,73 -74,196z"/>
       </g>
      </g>
      <g>
       <g>
        <g>
         <path class="fil1" d="M404 3302c0,0 14,47 30,81 16,34 5,60 14,91 9,31 -27,28 -34,-4 -7,-32 -4,-47 -11,-49 -7,-1 -26,78 -29,100 -3,23 2,79 -7,88 -8,9 -29,-23 -22,-82 6,-59 2,-58 2,-58 0,0 -6,23 -11,47 -6,25 -6,54 -5,71 1,17 -16,25 -21,16 -5,-9 -13,-67 -6,-90 7,-23 15,-62 15,-62 0,0 -22,53 -26,66 -4,14 3,65 -9,75 -5,4 -21,-1 -18,-75 0,0 5,-36 13,-58 0,0 -12,17 -18,39 -5,20 -8,40 -10,60 -2,20 -19,17 -19,-18 0,-35 6,-74 16,-93 10,-19 24,-128 54,-169l103 22z"/>
        </g>
       </g>
       <g>
        <path class="fil1" d="M735 2128c0,0 -87,402 -158,537 0,0 -36,178 -171,644 0,0 -70,28 -112,-25 0,0 75,-515 115,-678 0,0 127,-577 252,-673 0,0 64,73 74,196z"/>
       </g>
      </g>
      <g>
       <path class="fil14" d="M1155 2437l294 -60 -68 -329c-17,-81 -96,-134 -177,-117 -81,17 -134,96 -117,177l68 329z"/>
       <path class="fil14" d="M745 2439l-294 -60 68 -329c17,-81 96,-134 177,-117 81,17 134,96 117,177l-68 329z"/>
       <path class="fil14" d="M934 1810l-332 134c-23,9 -35,34 -28,58l177 594 392 0 168 -602c7,-24 -6,-49 -30,-58l-348 -127z"/>
       <path class="fil15" d="M704 1903l230 -93 246 90c0,0 -15,111 -239,111 -224,0 -237,-108 -237,-108z"/>
       <path class="fil16" d="M706 2429l-77 -259c-1,-2 -3,-4 -5,-3 -2,1 -4,3 -3,5l77 259c1,2 3,4 5,3 2,-1 4,-3 3,-5z"/>
       <path class="fil16" d="M1198 2431l77 -259c1,-2 -1,-5 -3,-5 -2,-1 -5,1 -5,3l-77 259c-1,2 1,5 3,5 2,1 5,-1 5,-3z"/>
      </g>
      <path class="fil17" d="M1161 2426c0,0 -178,126 -435,8 0,0 240,65 435,-8z"/>
      <path class="fil18" d="M782 5308c0,0 3,-6 6,-10 2,-4 6,-12 8,-20 2,-8 3,-14 3,-20 0,-6 0,-15 -3,-27 -3,-12 -7,-21 -8,-24 -1,-3 -8,-14 -10,-17 -2,-3 -7,-10 -9,-13 -1,-3 -4,-6 -5,-10 -1,-3 -2,-6 -3,-8 -1,-2 -1,-3 -3,-6 -3,-3 -4,-4 -6,-4 -2,0 -7,0 -10,1 -3,1 -9,4 -12,6 -3,2 -9,5 -11,8 -3,3 -14,13 -20,21 -6,8 -17,21 -22,28 -6,7 -16,19 -19,24 -3,5 -11,16 -14,21 -3,5 -10,20 -12,25 -3,5 -16,28 -18,31 -2,3 -12,19 -14,22 -2,3 -18,29 -23,35 -5,6 -13,17 -16,20 -3,3 -8,10 -13,13 -4,3 -10,8 -12,9 0,0 -7,1 -12,5 -5,4 -12,13 -17,17 -5,4 -20,13 -25,17 -5,4 -13,11 -15,16 -2,5 -5,7 -5,12 0,5 1,8 1,8 0,0 1,9 16,14 15,5 44,10 74,12 30,2 45,4 69,2 23,-2 46,-9 61,-19 15,-10 19,-19 21,-23 2,-4 5,-10 6,-16 1,-6 9,-27 10,-34 2,-7 14,-39 17,-45 3,-6 21,-40 23,-44 3,-4 13,-17 15,-18 2,-2 7,-8 7,-8l2 -1z"/>
      <path class="fil19" d="M460 5487c0,0 1,7 10,12 10,5 42,11 49,12 7,1 55,6 77,5 0,0 19,2 40,-3 0,0 22,-4 33,-11 0,0 20,-11 27,-22 7,-12 9,-17 12,-30 0,0 9,-30 13,-41 4,-11 16,-37 21,-48 5,-11 13,-24 19,-32 6,-8 11,-15 13,-16 1,-1 5,-6 5,-6l1 -1 1 0c0,0 -5,16 -8,28 -2,11 -5,26 -6,35 -1,8 -5,28 -6,32 -1,4 -2,16 -3,23 -1,7 -3,19 -3,21 0,2 -1,4 -1,4 0,0 -10,8 -13,10 -3,2 -10,5 -10,5 0,0 -2,-1 -5,-1 -3,0 -8,0 -8,0 0,0 -12,11 -18,18 -6,7 -14,14 -18,18 -4,4 -11,7 -17,10 -5,3 -22,6 -31,8 -9,2 -33,7 -58,4 0,0 -24,-1 -40,-3 -17,-1 -37,-6 -46,-8 -9,-2 -23,-6 -28,-10 -5,-5 -5,-6 -5,-9 0,-3 2,-6 2,-6z"/>
      <path class="fil1" d="M737 3263c0,0 54,836 47,1022l-5 963 -108 1c-10,-380 -137,-687 -94,-958 85,-319 95,-512 35,-809 0,0 -38,-216 125,-219z"/>
      <path class="fil20" d="M707 5236c-6,5 -28,-2 -35,11 -9,16 -29,56 -35,71 -3,8 -21,37 -29,49 -9,12 -57,45 -66,52 -14,10 57,38 93,30 25,-5 40,-16 51,-31 0,0 11,-12 15,-30 7,-36 74,-110 81,-140 2,-7 -56,-26 -73,-12z"/>
      <path class="fil18" d="M1103 5308c0,0 -3,-6 -6,-10 -2,-4 -6,-12 -8,-20 -2,-8 -3,-14 -3,-20 0,-6 0,-15 3,-27 3,-12 7,-21 8,-24 1,-3 8,-14 10,-17 2,-3 7,-10 9,-13 1,-3 4,-6 5,-10 1,-3 2,-6 3,-8 1,-2 1,-3 3,-6 3,-3 4,-4 6,-4 2,0 7,0 10,1 3,1 9,4 12,6 3,2 9,5 11,8 3,3 14,13 20,21 6,8 17,21 22,28 6,7 16,19 19,24 3,5 11,16 14,21 3,5 10,20 12,25 3,5 16,28 18,31 2,3 12,19 14,22 2,3 18,29 23,35 5,6 13,17 16,20 3,3 8,10 13,13 4,3 10,8 12,9 0,0 7,1 12,5 5,4 12,13 17,17 5,4 20,13 25,17 5,4 13,11 15,16 2,5 5,7 5,12 0,5 -1,8 -1,8 0,0 -1,9 -16,14 -15,5 -44,10 -74,12 -30,2 -45,4 -69,2 -23,-2 -46,-9 -61,-19 -15,-10 -19,-19 -21,-23 -2,-4 -5,-10 -6,-16 -1,-6 -9,-27 -10,-34 -2,-7 -14,-39 -17,-45 -3,-6 -21,-40 -23,-44 -3,-4 -13,-17 -15,-18 -2,-2 -7,-8 -7,-8l-2 -1z"/>
      <path class="fil19" d="M1425 5487c0,0 -1,7 -10,12 -10,5 -42,11 -49,12 -7,1 -55,6 -77,5 0,0 -19,2 -40,-3 0,0 -22,-4 -33,-11 0,0 -20,-11 -27,-22 -7,-12 -9,-17 -12,-30 0,0 -9,-30 -13,-41 -4,-11 -16,-37 -21,-48 -5,-11 -13,-24 -19,-32 -6,-8 -11,-15 -13,-16 -2,-1 -5,-6 -5,-6l-1 -1 -1 0c0,0 5,16 8,28 2,11 5,26 6,35 1,8 5,28 6,32 1,4 2,16 3,23 1,7 3,19 3,21 0,2 1,4 1,4 0,0 10,8 13,10 3,2 10,5 10,5 0,0 2,-1 5,-1 3,0 8,0 8,0 0,0 12,11 18,18 6,7 14,14 18,18 4,4 11,7 17,10 5,3 22,6 31,8 9,2 33,7 58,4 0,0 24,-1 40,-3 17,-1 37,-6 46,-8 9,-2 23,-6 28,-10 5,-5 5,-6 5,-9 0,-3 -2,-6 -2,-6z"/>
      <path class="fil20" d="M1178 5236c6,5 28,-2 35,11 9,16 29,56 35,71 3,8 21,37 29,49 9,12 57,45 66,52 14,10 -57,38 -93,30 -25,-5 -40,-16 -51,-31 0,0 -11,-12 -15,-30 -7,-36 -74,-110 -81,-140 -2,-7 56,-26 73,-12z"/>
      <path class="fil1" d="M1148 3263c0,0 -54,836 -47,1022l5 963 108 1c10,-380 137,-687 94,-958 81,-262 -50,-497 -35,-809 0,0 38,-216 -125,-219z"/>
      <path class="fil13" d="M1024 1122c0,0 97,-43 179,34 82,77 24,128 96,166 72,38 19,143 104,191 84,48 29,166 -58,183 0,0 -42,110 -133,99 0,0 -84,94 -249,34l-61 -25 121 -684z"/>
      <path class="fil13" d="M703 1154c0,0 -109,14 -131,111 -21,97 -13,74 -74,124 -60,49 16,105 -32,155 -24,25 -36,46 -38,70 -4,42 25,79 65,91 28,8 50,34 67,70 33,71 149,40 149,40 0,0 110,64 178,17 68,-48 -34,-705 -34,-705l-151 28z"/>
      <polygon class="fil21" points="854,1729 1008,1848 992,1688 "/>
      <g>
       <g>
        <path class="fil1" d="M1023 1713l-3 60 -4 75c0,0 -15,28 -82,28 -67,0 -81,-19 -81,-19l-3 -33 -9 -110 181 0z"/>
       </g>
       <g>
        <path class="fil9" d="M1023 1713l-3 60c-28,21 -94,62 -169,51l-9 -110 181 0z"/>
       </g>
      </g>
      <path class="fil13" d="M1046 1127c0,0 -42,-102 -192,-102 -150,0 -197,156 -197,156l218 126 170 -181z"/>
      <path class="fil15" d="M735 1489c15,33 14,87 -18,99 -32,12 -69,-31 -84,-64 -15,-33 -6,-62 26,-74 32,-12 62,6 76,40z"/>
      <path class="fil21" d="M658 1493l0 0c1,0 3,-1 7,-1 6,0 14,1 22,7 8,6 16,16 21,34 0,2 2,3 4,2 2,0 3,-2 2,-4 -5,-19 -14,-31 -23,-37 -9,-7 -19,-8 -25,-8 -5,0 -8,1 -9,1 -2,0 -3,2 -2,4 0,2 2,3 4,2z"/>
      <path class="fil22" d="M770 1661c-11,22 -33,37 -59,37 -18,0 -35,-7 -47,-19 -12,-12 -19,-29 -19,-47 0,-18 7,-35 19,-47 12,-12 29,-19 47,-19l0 -9c-42,0 -76,34 -76,76 0,42 34,76 76,76 30,0 56,-17 68,-42l-8 -4z"/>
      <path class="fil15" d="M1137 1489c-15,33 -14,87 18,99 32,12 69,-31 84,-64 15,-33 6,-62 -26,-74 -32,-12 -62,6 -76,40z"/>
      <path class="fil21" d="M1215 1487c0,0 -3,-1 -9,-1 -6,0 -16,1 -25,8 -9,6 -18,18 -23,37 0,2 1,3 2,4 2,0 3,-1 4,-2 5,-18 13,-28 21,-34 8,-6 16,-7 22,-7 2,0 4,0 5,0l1 0 0 0c2,0 3,-1 4,-2 0,-2 -1,-3 -2,-4z"/>
      <path class="fil22" d="M1096 1665c12,25 38,42 68,42 42,0 76,-34 76,-76 0,-42 -34,-76 -76,-76l0 9c18,0 35,7 47,19 12,12 19,29 19,47 0,18 -7,35 -19,47 -12,12 -29,19 -47,19 -26,0 -49,-15 -59,-37l-9 4z"/>
      <path class="fil13" d="M1202 1361c0,141 -119,256 -267,256 -147,0 -267,-115 -267,-256 0,-141 119,-256 267,-256 147,0 267,115 267,256z"/>
      <path class="fil15" d="M935 1135l0 0c-123,0 -232,95 -232,213l7 141c0,0 3,200 192,261 21,7 44,7 65,0 190,-61 192,-261 192,-261l7 -141c0,-118 -109,-213 -232,-213z"/>
      <path class="fil23" d="M889 1602c0,0 2,29 42,29 40,0 42,-29 42,-29l-85 0z"/>
      <path class="fil21" d="M919 1520l0 33c0,2 1,3 3,3l24 0c2,0 3,-1 3,-3 0,-2 -1,-3 -3,-3l-21 0 0 -30c0,-2 -1,-3 -3,-3 -2,0 -3,1 -3,3z"/>
      <path class="fil12" d="M884 1472c0,0 -16,-41 -55,-42 -39,-2 -62,29 -62,29 0,0 10,35 57,37 47,2 60,-23 60,-23z"/>
      <path class="fil13" d="M786 1461c-1,11 4,21 11,29 7,3 16,5 27,6 10,0 18,0 25,-2 9,-7 15,-17 15,-29 1,-11 -3,-20 -10,-28 -7,-4 -15,-7 -25,-8 -12,-1 -23,2 -32,6 -7,7 -11,16 -11,26z"/>
      <path class="fil13" d="M886 1472c0,0 -4,-11 -13,-22 -9,-11 -23,-22 -44,-22l-1 0c-41,0 -63,30 -63,30l0 3 3 0 1 -1c4,-5 25,-27 59,-27l1 0c19,0 32,10 41,21 4,5 7,10 9,14 1,2 2,4 2,5l1 2c0,1 2,2 3,1 1,0 2,-2 1,-3z"/>
      <path class="fil12" d="M985 1472c0,0 16,-41 55,-42 39,-2 62,29 62,29 0,0 -10,35 -57,37 -47,2 -60,-23 -60,-23z"/>
      <path class="fil13" d="M1083 1461c1,11 -4,21 -11,29 -7,3 -16,5 -27,6 -10,0 -18,0 -25,-2 -9,-7 -15,-17 -15,-29 -1,-11 3,-20 10,-28 7,-4 15,-7 25,-8 12,-1 23,2 32,6 7,7 11,16 11,26z"/>
      <path class="fil13" d="M987 1473l1 -2c2,-4 6,-14 15,-22 8,-9 21,-17 37,-17l1 0c19,0 34,7 44,14 5,4 9,7 11,10 1,1 2,2 3,3l1 1 3 0 0 -3c0,0 -22,-30 -63,-30l-1 0c-21,0 -36,11 -45,22 -9,11 -13,22 -13,22 0,1 0,3 1,3 1,0 3,0 3,-1z"/>
      <path class="fil23" d="M973 1602c0,0 -39,-21 -85,0 0,0 46,20 85,0z"/>
      <path class="fil21" d="M877 1601c0,0 22,12 53,12 16,0 34,-3 53,-12 2,-1 2,-3 1,-4 -1,-2 -3,-2 -4,-1 -18,9 -35,12 -50,12 -15,0 -27,-3 -36,-6 -4,-1 -8,-3 -10,-4 -1,-1 -2,-1 -3,-1l-1 0c-1,-1 -3,0 -4,1 -1,1 0,3 1,4z"/>
      <path class="fil13" d="M1046 1127c0,0 -10,112 -126,129 -119,18 -93,93 -237,75 0,0 -52,-81 25,-166 51,-56 151,-102 222,-94 24,3 81,48 116,56z"/>
      <path class="fil13" d="M1032 1141c0,0 -51,74 170,220 0,0 36,-51 12,-98 -24,-47 -182,-122 -182,-122z"/>
      <path class="fil11" d="M860 1379c1,8 -5,14 -12,14 -25,1 -78,6 -104,33 0,0 8,-47 102,-58 7,-1 14,4 14,11z"/>
      <path class="fil11" d="M999 1379c-1,8 5,14 13,14 25,0 78,3 105,30 0,0 -10,-47 -103,-55 -7,-1 -13,5 -14,12z"/>
      <g>
       <polygon class="fil13" points="1147,2659 754,2659 754,2599 1147,2599 "/>
       <path class="fil24" d="M786 2836c-95,-15 -174,47 -196,141 -22,96 -38,211 -42,348 -9,342 8,637 24,791 8,78 74,137 152,137 80,0 146,-61 153,-140l68 -1078c8,-97 -60,-183 -156,-198 -1,0 -2,0 -3,-1z"/>
       <path class="fil24 str3" d="M875 4102l-46 1058 -254 0 -5 -1062c1,-83 69,-150 152,-150 85,0 154,69 152,154z"/>
       <path class="fil24" d="M1115 2836c95,-15 174,47 196,141 22,96 38,211 42,348 9,342 -8,637 -24,791 -8,78 -74,137 -152,137 -80,0 -146,-61 -153,-140l-68 -1078c-8,-97 60,-183 156,-198 1,0 2,0 3,-1z"/>
       <path class="fil24" d="M1025 4102l46 1058 254 0 5 -1062c-1,-83 -69,-150 -152,-150 -85,0 -154,69 -152,154z"/>
       <path class="fil24" d="M1147 2659l-393 0c0,0 -102,71 -158,295l298 171c35,21 77,21 112,0l297 -170c-60,-218 -157,-295 -157,-295z"/>
       <path class="fil25" d="M770 2733c0,0 0,0 0,1 -1,7 -4,40 -21,75 -17,35 -46,71 -99,86 -2,1 -4,3 -3,5 1,2 3,4 5,3 59,-17 91,-60 107,-98 17,-38 19,-72 19,-72 0,-2 -2,-4 -4,-5 -2,0 -4,2 -5,4z"/>
       <path class="fil25" d="M1121 2734c0,0 2,34 19,72 17,38 48,81 107,98 2,1 5,-1 5,-3 1,-2 -1,-5 -3,-5 -56,-16 -86,-57 -102,-93 -8,-18 -13,-36 -15,-49 -1,-6 -2,-12 -2,-15 0,-2 0,-3 0,-4 0,-1 0,-1 0,-1 0,-2 -2,-4 -5,-4 -2,0 -4,2 -4,5z"/>
      </g>
     </g>
    </g>
   </g>
   <path class="fil26 str4" d="M1579 6c869,0 1573,704 1573,1573 0,869 -704,1573 -1573,1573 -869,0 -1573,-704 -1573,-1573 0,-869 704,-1573 1573,-1573z"/>
   <path class="fil27" d="M1579 558c39,-79 79,-118 157,-118 87,0 157,70 157,157 0,157 -157,315 -315,472 -157,-157 -315,-315 -315,-472 0,-87 70,-157 157,-157 79,0 118,39 157,118z"/>
  </g>
 </g>
</svg>
