<?xml version="1.0" encoding="UTF-8" standalone="no"?>
<svg width="142px" height="142px" viewBox="0 0 142 142" version="1.1" xmlns="http://www.w3.org/2000/svg" xmlns:xlink="http://www.w3.org/1999/xlink">
    <!-- Generator: Sketch 48.2 (47327) - http://www.bohemiancoding.com/sketch -->
    <title>Protection_ICON</title>
    <desc>Created with Sketch.</desc>
    <defs></defs>
    <g id="Recomendations" stroke="none" stroke-width="1" fill="none" fill-rule="evenodd" transform="translate(-425.000000, -507.000000)">
        <g id="Protection_ICON" transform="translate(426.000000, 508.000000)">
            <circle id="Oval-3" stroke="#D0021B" stroke-width="2" fill="#FFFFFF" cx="70" cy="70" r="70"></circle>
            <g id="Page-1" transform="translate(30.000000, 30.000000)" fill="#333333">
                <path d="M39.9507685,12.1073117 L39.9507685,54.3355115 C38.951446,55.0111068 37.9521235,55.7897447 36.9525894,56.6640197 L36.9525894,12.1073117 L39.9507685,12.1073117 Z" id="Fill-1"></path>
                <path d="M21.3336419,23.0284066 C21.2936521,23.1464718 14.9246902,17.3771457 0.00129067697,23.8688277 C-0.112754386,23.91982 7.42141373,5.88842803 35.0088934,3.09210232 C35.0099513,3.09210232 25.4938535,10.5543311 21.3336419,23.0284066 M56.1605499,21.9670893 C56.1605499,21.9670893 42.3253391,14.348075 23.3464632,22.6185637 C23.2353804,22.6676518 27.6207199,10.1385638 37.9122818,2.71526696 C37.51725,2.27368617 37.4042629,1.61819154 37.6822874,1.05240954 C38.0479087,0.308894968 38.9494783,0.000190427749 39.6948971,0.364753775 C40.4394696,0.73058664 40.7473278,1.63194465 40.3825529,2.37567081 C40.3256361,2.49140856 40.2536968,2.5933932 40.1735055,2.68627963 C43.1335991,4.3063966 50.5431428,9.39504924 56.1605499,21.9670893 M58.120263,21.9520666 C57.9232761,22.1039857 54.0008876,10.7271971 43.0168034,2.69347356 C43.0168034,2.69347356 69.2380698,4.10940967 79.901389,21.3306374 C79.901389,21.3306374 65.9912766,15.8520311 58.120263,21.9520666" id="Fill-3"></path>
                <path d="M21.3326263,23.0274756 C21.2934828,23.1463872 14.9247325,17.3770611 0.00133299425,23.8689547 C-0.112712069,23.919947 7.42039811,5.88834339 35.0099936,3.09201769 C35.01084,3.09201769 25.4938958,10.5542464 21.3326263,23.0274756 M58.1211516,21.951982 C57.9233184,22.1049589 54.0007183,10.7273241 43.0166341,2.69338893 C43.0166341,2.69338893 69.2381121,4.10847869 79.9014313,21.3305528 C79.9014313,21.3305528 65.9911074,15.8519464 58.1211516,21.951982" id="Fill-6"></path>
                <path d="M1.18294615,71.6214635 C1.1872835,71.6551984 1.1872835,71.6903791 1.19644013,71.7241141 C1.15547627,71.7101382 1.11258471,71.6262827 1.11258471,71.6214635 L1.18294615,71.6214635 Z" id="Fill-9"></path>
                <path d="M28.218261,56.0793642 C30.978617,56.0793642 33.558913,56.8537703 35.7115929,58.1990366 C35.4037347,58.6048593 35.1106876,59.0337449 34.8371064,59.4713055 C33.1930802,62.0786846 32.2917221,65.3557346 32.2917221,68.6712933 L32.0767504,74.2180305 L31.9559345,74.3286901 L31.9559345,75.3601738 L31.9559345,75.4771811 C31.9559345,75.5518711 32.0767504,76.1115171 32.0786546,76.1853607 L32.2117425,77.0661948 L5.29985817,77.0661948 C3.18314794,77.0661948 1.33621036,74.8113187 1.0495108,72.1491388 C1.06135964,72.1533705 0.975455567,71.663548 0.975455567,71.6053617 L0.975455567,69.0989094 C0.975455567,61.6669375 7.13071519,56.0793642 14.5607828,56.0793642 L16.0990158,56.0793642 L21.8393546,61.8186449 L27.5788469,56.0793642 L28.218261,56.0793642 Z" id="Fill-11"></path>
                <path d="M28.1323146,47.8555937 C24.9252997,53.4622098 18.9801454,52.3096987 15.8801932,49.2937464 C15.7980977,49.2207491 15.7221382,49.1437316 15.6451207,49.063752 C15.6353877,49.0499988 15.6212115,49.0387848 15.610209,49.0248201 C15.5022999,48.9099287 15.3965067,48.7910171 15.29558,48.6702013 C15.1286383,48.4651741 14.9707949,48.255492 14.822896,48.0386159 L14.686846,47.8397247 C14.6828258,47.8287222 14.6758435,47.8156039 14.6629367,47.8005812 C14.6138487,47.7235638 14.5649722,47.6478159 14.519058,47.5707984 C14.5220202,47.5707984 14.5220202,47.5737606 14.5258287,47.5737606 C13.9731651,46.6533598 13.6124103,45.7149742 13.3957458,45.0264721 C13.3885519,45.0224519 13.3847433,45.0184318 13.377761,45.0144117 C13.3079375,44.7875911 13.2476354,44.5637327 13.1957967,44.3388163 C13.1778118,44.266877 13.1649051,44.2029779 13.1488245,44.1509276 C13.13888,44.1050134 13.1289354,44.0641772 13.121953,44.0180514 C13.1077768,43.9691749 13.1039682,43.9412455 13.1039682,43.9412455 C12.5961609,41.3937454 13.115817,39.1720883 14.5389471,38.9822953 C16.7125741,38.7004623 18.451391,37.0794989 18.5595116,36.9764564 C16.7144783,39.4829087 17.7059721,42.5140953 17.7059721,42.5140953 C17.7059721,42.5140953 17.5100431,40.7981297 21.5333583,39.2160983 C25.557943,37.6311046 26.3484298,35.4534575 26.3484298,35.4534575 C27.6676709,39.0172071 30.2409845,39.2160983 30.2409845,39.2160983 C30.2409845,39.2160983 30.2420425,44.1600258 28.1323146,47.8555937 M33.9896606,44.7535256 C35.0048521,39.3620929 34.0846629,33.6975021 30.6616183,30.2257926 C28.785905,27.9753598 25.4470717,26.4781745 21.6364009,26.4781745 C18.3125903,26.4781745 15.3444565,27.6184136 13.3995544,29.4063186 C8.807495,33.18906 9.08044144,40.3853247 9.50107518,45.021394 C10.0958445,51.5513731 7.66323581,53.9907526 7.66323581,53.9907526 C11.6838004,53.8618965 15.6451207,52.0130546 15.6451207,52.0130546 C21.6922597,57.3575152 27.4569308,52.1469888 27.4569308,52.1469888 C29.9650759,53.7948236 35.1119148,53.9907526 35.1119148,53.9907526 C35.1119148,53.9907526 32.7364344,51.4172274 33.9896606,44.7535256" id="Fill-13"></path>
                <path d="M59.2735357,50.1931789 C58.3051048,50.6070419 57.2679084,50.8336509 56.1883946,50.8336509 C50.952901,50.8336509 46.6926091,45.5192356 46.6926091,38.9862943 C46.6926091,37.8549419 46.8244274,36.7576549 47.0633085,35.7183425 C47.9145205,34.6140732 49.1049055,33.8754251 50.4201265,33.5356174 C51.490542,33.2618246 52.6436879,33.2548422 53.7600176,33.5356174 C55.1651628,33.8904477 56.52122,34.7069596 57.5854995,36.0300093 C58.1292766,36.6977759 58.6997135,37.2593262 59.2724778,37.7201614 C61.9909397,39.9147354 64.8418547,39.9966193 65.64948,39.9746143 C65.3337931,44.7274794 62.7611142,48.6900692 59.2735357,50.1931789 M68.2896549,38.310699 C68.141756,38.2927141 67.9930108,38.310699 67.8491321,38.3587291 C67.7858677,36.6558818 67.4701808,35.0317447 66.9437539,33.5366753 C65.56146,29.6153448 62.7372049,26.602143 59.2735357,25.4568259 C58.2902938,25.1360609 57.2588102,24.9602326 56.1883946,24.9602326 C51.3587237,24.9602326 47.2082451,28.5030351 45.4343049,33.5366753 C44.9076663,35.0317447 44.5898636,36.6607483 44.5238486,38.3616913 C44.3808162,38.310699 44.2280509,38.2937721 44.079094,38.310699 C43.1589048,38.4376508 42.6079339,39.9705942 42.8499887,41.7364942 C43.0926783,43.5034521 44.0371999,44.829464 44.9586586,44.704628 C45.139565,44.6766986 45.3024865,44.5988348 45.4503854,44.4778074 C47.2351166,49.4877499 51.3745927,53.012356 56.1883946,53.012356 C57.2588102,53.012356 58.2902938,52.837374 59.2735357,52.5136469 C62.7213359,51.37637 65.5383971,48.3781909 66.9234416,44.4807696 C67.0713405,44.601797 67.2363779,44.6756407 67.4113598,44.704628 C68.332607,44.829464 69.2771286,43.5034521 69.5189718,41.7364942 C69.7629309,39.9705942 69.2113252,38.4376508 68.2896549,38.310699" id="Fill-15"></path>
                <path d="M78.9260603,68.7055491 C78.9260603,65.6453752 78.3243087,62.8120219 76.8082922,60.4028993 C74.0373568,55.9974591 69.4110205,53.0811639 63.8257746,53.0811639 L63.4489392,53.0811639 C62.4995511,54.0809096 61.5082689,54.1416349 60.4238886,54.4966768 C60.4238886,54.4966768 60.0550935,56.0772271 59.5362837,58.3069245 C59.3845763,58.9586106 59.223559,59.654095 59.0547131,60.3908388 C58.0450229,64.733861 56.7922199,70.146664 56.4183467,71.7604334 C56.4183467,70.146664 54.8763051,64.728783 53.8678844,60.3855492 C53.6981921,59.6481706 53.5752604,58.9444343 53.4222834,58.2910555 C52.9053779,56.0624161 52.5587994,54.4975232 52.5587994,54.4975232 C51.4723033,54.1424812 50.5030261,54.0809096 49.5536379,53.0811639 L49.1768026,53.0811639 C43.5904987,53.0811639 38.7455936,55.9974591 35.9744467,60.4028993 C34.4573723,62.8113871 33.6336665,65.7454556 33.6336665,68.8022441 L33.5350672,74.6286985 C33.5350672,74.7804059 33.5308355,74.0671482 33.5350672,76.0655816 L33.5456465,76.0655816 C33.541838,76.0655816 33.5350672,75.8747307 33.5350672,75.9458238 C33.5350672,78.4033997 35.5267299,80.0630833 37.9840942,80.0630833 L74.849637,80.0630833 C77.3089056,80.0643528 78.9260603,77.7347867 78.9260603,75.2782687 L78.9260603,75.040234 L78.9260603,68.7055491 Z" id="Fill-17"></path>
            </g>
        </g>
    </g>
</svg>