<?xml version="1.0" encoding="UTF-8" standalone="no"?>
<svg width="142px" height="142px" viewBox="0 0 142 142" version="1.1" xmlns="http://www.w3.org/2000/svg" xmlns:xlink="http://www.w3.org/1999/xlink">
    <!-- Generator: Sketch 48.2 (47327) - http://www.bohemiancoding.com/sketch -->
    <title>Regular_Income_ICON</title>
    <desc>Created with Sketch.</desc>
    <defs></defs>
    <g id="Recomendations" stroke="none" stroke-width="1" fill="none" fill-rule="evenodd" transform="translate(-665.000000, -287.000000)">
        <g id="Regular_Income_ICON" transform="translate(666.000000, 288.000000)">
            <circle id="Oval-3" stroke="#D0021B" stroke-width="2" fill="#FFFFFF" cx="70" cy="70" r="70"></circle>
            <g id="Page-1" transform="translate(22.000000, 20.000000)" fill="#333333">
                <path d="M56.9300271,92.8755827 C50.6899187,95.0731436 44.2386992,95.6617615 39.3015718,95.7709756 C39.8828726,93.4503794 41.3855827,87.3522764 42.7053659,81.5205691 C50.6820596,77.708916 55.322168,73.310542 56.8110569,72.1856098 C57.1728455,71.910542 57.4059079,71.6452304 57.5582114,71.4024119 C59.8110569,71.9612195 61.6966938,72.3978049 62.7769106,72.610813 C63.8010298,77.0636585 65.9731165,84.4788347 67.0254201,88.0154201 C63.8468293,89.9034959 60.3831436,91.6571545 56.9300271,92.8755827 Z M29.118103,83.1243631 C22.1801626,84.4940108 15.5549593,84.2791057 10.6029268,83.8208401 C11.5988618,81.1286992 14.8601084,72.3265312 16.7403252,67.1961789 C18.2739295,67.8411653 22.0294851,69.3528184 26.5541463,70.6894038 C30.7143089,71.914065 36.5587534,73.6316802 39.6842276,74.5457724 L40.0506233,76.2839837 C39.8598374,77.4167751 39.6639024,78.606206 39.4641734,79.8324932 C36.2693225,81.2297832 32.816206,82.3910298 29.118103,83.1243631 Z M37.1067209,62.2219241 L39.2953388,72.6669106 C36.9503523,71.8284282 33.2934417,70.5685366 28.4294851,69.0612195 C22.3788076,67.1820867 18.8381572,66.3910298 17.1525203,66.0736856 C17.4918157,65.1441463 17.7633604,64.3991599 17.9284011,63.9346612 C18.8102439,61.4796477 19.1059079,59.1270732 19.1991328,58.0747696 C24.0541463,59.3587805 31.7319241,61.1430623 37.1067209,62.2219241 Z M24.1796206,46.8747696 C23.615122,44.3251762 22.3300271,33.9888618 22.0934417,32.0576965 C28.0400542,33.7034959 38.5579404,36.5503794 41.3573984,37.306748 C39.2839566,44.3698916 37.217832,51.8170461 36.6481843,53.8750407 C34.1649864,53.6972629 29.3766396,53.5257182 25.0541463,53.4156911 C25.3010298,51.9923848 24.717561,49.2953659 24.1796206,46.8747696 Z M46.9945257,29.309458 C49.1143089,21.309458 54.9305691,5.47449864 54.9305691,5.47449864 C56.0774526,5.55390244 57.216748,5.59346883 58.3378862,5.60376694 L43.424607,54.8864228 C41.4598374,54.5509214 39.7573984,54.2707046 38.6847696,54.1029539 C40.2004878,49.9365583 45.1999458,36.0601355 46.9945257,29.309458 Z M71.1292141,4.45444444 L64.3500813,34.9197561 C63.1492683,34.5457724 61.9782656,34.1926558 60.9489973,33.8877778 L67.5885637,5.009729 C68.8479133,4.84360434 70.0332791,4.65281843 71.1292141,4.45444444 Z M76.120813,13.308103 C75.2709485,17.112439 73.0479133,27.21271 70.8807046,37.1045799 C70.316206,36.8934688 69.7031978,36.6744986 69.0590244,36.4517344 L75.9327371,3.42382114 C77.7503523,2.97205962 78.8023848,2.62897019 78.8023848,2.62897019 C78.8023848,2.62897019 77.9947967,4.93303523 76.120813,13.308103 Z M64.2449322,58.8875068 L68.3666125,39.6850678 C69.0503523,39.9026829 69.6685095,40.0921138 70.1942547,40.2482114 C68.3259621,48.7511924 66.618374,56.5669106 65.9934417,59.4186721 C65.4598374,59.2343902 64.8685095,59.0576965 64.2449322,58.8875068 Z M44.1823306,74.6251762 C44.6918157,72.0305962 45.0053659,69.8799187 45.1975068,68.1533604 C48.0273171,68.9457724 51.4682385,69.8609485 54.621897,70.6633875 C51.5655285,72.9918428 47.8316531,75.6018699 43.5040108,77.8904878 C43.7536043,76.7398103 43.9815176,75.6403523 44.1823306,74.6251762 Z M41.3690515,69.312168 C41.3061789,69.5522764 41.2435772,69.8471274 41.1717615,70.1823577 C41.0270461,69.0441463 40.8826016,67.9154201 40.7519783,66.8352033 C41.0937127,66.9503794 41.4880217,67.0731436 41.9256911,67.2037669 C41.7465583,67.8411653 41.5622764,68.5352033 41.3690515,69.312168 Z M43.2555014,63.2178591 C43.016206,63.805393 42.6809756,64.7154201 42.2904607,65.9726016 C41.5788076,65.7921138 40.9977778,65.6436043 40.5893767,65.5411653 C40.4704065,64.5349322 40.3614634,63.608103 40.2785366,62.8211111 C40.8592954,62.9221951 41.3804336,63.008103 41.8067209,63.0604065 C42.2316531,63.1167751 42.722981,63.1690786 43.2555014,63.2178591 Z M57.4319241,32.8715176 C57.0847696,32.7755827 56.7495393,32.6975339 56.4319241,32.6259892 L63.4912737,5.43872629 C64.5460163,5.35417344 65.7438482,5.2400813 66.7284011,5.1200271 L59.8790786,33.5679946 C58.7424932,33.2365583 57.8668835,32.9918428 57.4319241,32.8715176 Z M57.9408672,41.6178591 C58.0511653,39.4162331 58.1536043,37.3644715 58.2061789,36.2866938 C58.5105149,36.3929268 58.8254201,36.5043089 59.1481843,36.612981 L57.9408672,41.6178591 Z M54.1752846,56.7717886 C53.0527913,56.5720596 51.7302981,56.3365583 50.3275881,56.0894038 L55.7126829,35.3983469 C55.9519783,35.4866938 56.2105149,35.5801897 56.4766396,35.6747696 C56.2256911,38.1847967 55.4527913,45.9173171 55.2452033,48.6221951 C55.0866667,50.6571545 54.4685095,54.1311382 54.1752846,56.7717886 Z M59.1942547,57.713794 C58.6335501,57.5961789 58.1023848,57.4937398 57.6300271,57.405393 C58.0023848,54.7289702 57.5378862,51.1552575 57.61729,48.8728726 C57.6273171,48.6411653 57.6351762,48.3812737 57.6454743,48.0983469 L60.2297561,36.9880488 C61.3305691,37.3669106 62.4877507,37.7601355 63.617832,38.1387263 L59.1942547,57.713794 Z M65.424065,35.2576965 L72.0056369,4.2904878 C73.1384282,4.07151762 74.1611924,3.84766938 75.0481843,3.6403523 L67.9839566,36.0883198 C67.1519783,35.810542 66.2880217,35.5289702 65.424065,35.2576965 Z M67.2609214,39.3330352 L62.9893767,58.5598645 C62.1484553,58.3511924 61.2934417,58.1555285 60.4690515,57.9801897 L64.71729,38.5048509 C65.6059079,38.7967209 66.4633604,39.0758537 67.2609214,39.3330352 Z M59.1891057,5.60241192 C60.5522493,5.59482385 61.3395122,5.58452575 62.6321951,5.49888889 L55.3479133,32.4159621 C54.1522493,32.2289702 53.3571274,32.2623035 53.1834146,32.4967209 C52.8069919,32.9969919 52.8685095,34.0582385 53.4343631,34.4959079 C53.5148509,34.5625745 53.9601084,34.7444173 54.6503523,35.0040379 L49.0424932,55.8590515 C47.5999458,55.607019 46.1126829,55.3484824 44.7048238,55.106477 L59.1891057,5.60241192 Z M62.4544173,71.1219241 C59.3733875,70.3284282 50.9560434,68.1742276 45.3278591,66.7444173 C45.4611924,65.1585095 45.4750136,64.0357453 45.4647154,63.3715176 C50.2099729,63.6414363 56.8798916,63.6658266 61.2972358,63.5942818 C61.4457453,65.1379133 61.7758266,67.807832 62.4544173,71.1219241 Z M80.6815176,77.9969919 C79.6731165,79.009458 74.9869377,83.014065 68.9489973,86.8314092 C68.4934417,83.9219241 67.5999458,78.3487534 66.9305691,74.8734146 C66.1945257,71.0398103 64.2630894,65.6666396 63.4679675,63.5403523 C64.4267751,63.508374 65.1552304,63.4701626 65.5582114,63.4354743 C68.121084,63.1845257 68.4332791,62.4371003 68.5560434,60.9969919 C68.5831436,60.6796477 68.1888347,60.3506504 67.523252,60.0205691 C68.0083469,58.2923848 69.5584824,52.8346612 70.4928997,49.80729 C70.9254201,48.4224661 71.5731165,44.9560705 72.3500813,40.7167751 C73.7004878,40.7295122 74.0831436,39.8259892 74.3069919,38.8682656 C74.3571274,38.6560705 73.7977778,38.314065 72.8647154,37.8956369 C74.0254201,31.5595935 81.1742005,-2.7100271e-05 81.1742005,-2.7100271e-05 C81.1742005,-2.7100271e-05 75.0495393,1.87639566 68.6725745,3.12571816 C62.2994038,4.37747967 53.3010298,4.09455285 53.3010298,4.09455285 C53.3010298,4.09455285 42.522168,33.3465854 42.0099729,35.0642005 C40.8416802,34.9259892 38.920271,34.6341192 36.8031978,34.0544444 C33.3649864,33.1173171 20.6777236,29.6154201 19.8021138,29.2414363 C18.9267751,28.8666396 17.4891057,29.3043089 17.4891057,29.3043089 C17.3639024,29.805935 17.6145799,30.6804607 17.9256911,30.8658266 C17.9858537,30.9015989 18.8842276,31.1590515 20.2988618,31.5544444 C20.5368022,33.5576965 21.417561,41.0777507 21.7389702,44.3698916 C22.1137669,48.1804607 21.8630894,51.9948238 22.6129539,53.306748 C22.624607,53.3197561 22.6321951,53.3349322 22.6414092,53.3517344 C19.617832,53.2850678 17.1563144,53.2633875 16.4256911,53.306748 C12.7378862,53.3696206 13.3013008,55.806748 14.6758266,56.6810027 C14.9357182,56.8460434 15.8536043,57.1492954 17.2140379,57.5322222 C16.6815176,58.3642005 15.716477,60.01271 14.8639024,62.1823577 C13.7400542,65.0444173 9.63897019,80.5284282 8.82135501,83.6338482 C6.90617886,83.4227371 5.32135501,83.1921138 4.17609756,83.0601355 C-0.0122493225,82.5601355 -0.136368564,84.7449593 0.0503523035,85.1197561 C0.737615176,85.2452304 13.7376152,88.7484824 26.1777236,86.6826287 C31.0048238,85.8856098 35.2452033,84.6194851 38.9265041,83.1628455 C38.0793496,88.5184011 37.2996748,93.7509214 36.9964228,95.7888618 C34.3657995,95.7799187 32.3820596,95.6617615 31.4273171,95.6834417 C28.615122,95.7476694 28.1785366,98.310542 28.4896477,98.4343902 C28.4896477,98.4343902 29.4265041,99.4341192 30.4877507,99.4983469 C51.5858537,100.737371 57.8655285,97.6815447 66.9920867,92.7473984 C76.11729,87.808103 84.1145799,78.9940108 84.0568564,78.7452304 C83.9953388,78.4997019 82.3110569,76.3734146 80.6815176,77.9969919 Z" id="Fill-1"></path>
            </g>
        </g>
    </g>
</svg>