<?xml version="1.0" encoding="UTF-8" standalone="no"?>
<svg width="142px" height="142px" viewBox="0 0 142 142" version="1.1" xmlns="http://www.w3.org/2000/svg" xmlns:xlink="http://www.w3.org/1999/xlink">
    <!-- Generator: Sketch 48.2 (47327) - http://www.bohemiancoding.com/sketch -->
    <title>Saving_Unit_Linked_ICON</title>
    <desc>Created with Sketch.</desc>
    <defs></defs>
    <g id="Recomendations-Copy" stroke="none" stroke-width="1" fill="none" fill-rule="evenodd" transform="translate(-185.000000, -727.000000)">
        <g id="Saving_Unit_Linked_ICON" transform="translate(186.000000, 728.000000)">
            <circle id="Oval-3" stroke="#D0021B" stroke-width="2" fill="#FFFFFF" cx="70" cy="70" r="70"></circle>
            <g id="Page-1" transform="translate(25.000000, 33.000000)" fill="#333333">
                <path d="M2.63123437,0.169674888 C2.6473058,0.508856502 2.67683705,0.848710762 2.67683705,1.18789238 C2.67964955,16.3051009 2.67864509,31.4229821 2.67864509,46.5401906 L2.67864509,47.5782511 C7.76464955,43.1788117 12.6596049,38.9461883 17.6184442,34.6563901 C22.518221,38.1455717 27.3659665,41.5982623 32.2802076,45.0985426 C38.6221942,38.3648543 44.9067254,31.6915359 51.246904,24.9600336 C56.4883996,29.2960762 61.662596,33.57713 66.9087121,37.9168722 C72.6673058,28.5413677 78.3614129,19.270796 84.0868594,9.95095291 C82.9214799,9.43705157 81.8039129,8.94383408 80.5646049,8.39663677 C83.5611228,6.78026906 86.4417254,5.22679372 89.480029,3.58738789 C89.5760558,5.05829596 89.6556094,6.4029148 89.7554531,7.74702915 C89.8046719,8.41799327 89.8898504,9.08761211 89.9593594,9.75807175 L89.9593594,12.4306614 C88.8215022,11.9604821 87.6848504,11.4894619 86.5092254,11.0033072 C80.2042031,21.2660314 73.9387567,31.4626682 67.4911004,41.9564462 C62.1443371,37.2965247 56.9667254,32.7835762 51.6880647,28.1831839 C45.2130871,35.0574552 38.9677299,41.6887332 32.6699397,48.3741592 C27.6697165,44.8141816 22.750654,41.3107063 17.8233549,37.8031951 C17.6031763,37.9669843 17.4561228,38.0638453 17.3271496,38.175 C12.6529754,42.225 7.98643527,46.281222 3.2971942,50.3184417 C2.84558705,50.7077354 2.6643817,51.0919843 2.66538616,51.6306054 C2.68447098,58.4167601 2.67683705,65.202074 2.67683705,71.9883969 L2.67683705,72.8238229 L88.0796049,72.8238229 L88.0796049,74.9978139 L-6.02678571e-05,74.9978139 L-6.02678571e-05,0.168161435 C0.877640625,0.169674888 1.75453795,0.169674888 2.63123437,0.169674888" id="Fill-1"></path>
                <path d="M88.0928839,14.1811715 L88.0928839,70.6644114 C87.7294687,70.678537 87.3992009,70.7030886 87.0679286,70.7030886 C60.1565223,70.7054428 33.2451161,70.701407 6.33370982,70.7205774 C5.47770536,70.7215863 5.30031696,70.4980998 5.30312946,69.8278083 C5.33245982,64.0131222 5.30975893,58.1974271 5.34391071,52.382741 C5.34591964,51.9912612 5.57252679,51.5074608 5.89435714,51.2246132 C9.72578571,47.8444002 13.595183,44.49412 17.4561429,41.1367769 C17.5614107,41.0454652 17.6819464,40.9676065 17.8631518,40.8334137 C22.9007411,44.4147478 27.9182411,47.9826289 32.9688884,51.57338 C39.1935536,44.9779204 45.3762321,38.4260146 51.6481071,31.779602 C57.1678393,36.351407 62.6397589,40.8850392 68.2028839,45.494176 C74.8048259,34.9955213 81.3597589,24.5716984 87.9142902,14.1487164 C87.9741562,14.159815 88.0330179,14.1700729 88.0928839,14.1811715" id="Fill-4"></path>
            </g>
        </g>
    </g>
</svg>