<?xml version="1.0" encoding="UTF-8" standalone="no"?>
<svg width="142px" height="142px" viewBox="0 0 142 142" version="1.1" xmlns="http://www.w3.org/2000/svg" xmlns:xlink="http://www.w3.org/1999/xlink">
    <!-- Generator: Sketch 48.2 (47327) - http://www.bohemiancoding.com/sketch -->
    <title>Savings Traditional_ICON</title>
    <desc>Created with Sketch.</desc>
    <defs></defs>
    <g id="Recomendations" stroke="none" stroke-width="1" fill="none" fill-rule="evenodd" transform="translate(-185.000000, -507.000000)">
        <g id="Savings-Traditional_ICON" transform="translate(186.000000, 508.000000)">
            <circle id="Oval-3" stroke="#D0021B" stroke-width="2" fill="#FFFFFF" cx="70" cy="70" r="70"></circle>
            <path d="M44.9105784,50.6741577 L61.203673,50.6741577 L61.203673,50.7081307 C60.2441814,52.1872324 59.7021845,52.9774482 59.5776823,53.0791708 L55.2250151,53.0791708 C55.8233718,53.7792502 56.2302623,54.631717 56.4443118,55.6367678 L61.0854548,55.6367678 C61.1416183,55.6479612 61.1698964,55.6705444 61.1698964,55.7043211 C60.1308726,57.2625622 59.6006583,58.0415845 59.5776823,58.0415845 L56.5631191,58.0415845 C56.4951731,58.8433865 56.111455,59.8087694 55.4113757,60.9379296 C54.4854643,62.0782832 53.5990244,62.8178341 52.7522524,63.1565821 C51.1716245,63.9130213 49.6585498,64.2914372 48.2132247,64.2914372 L48.2132247,64.3254102 C48.2132247,64.4383263 48.5688611,64.9066823 49.2803302,65.7310674 L57.3254495,75.435954 L57.3254495,75.8931166 C57.3254495,75.938283 57.296975,75.9610626 57.2406152,75.9610626 L53.7009434,75.9610626 C47.3322834,68.5427746 44.1482479,64.8163495 44.1482479,64.7825728 L44.1482479,62.5299473 L44.1822209,62.445113 C44.746801,62.5244488 45.4074089,62.5639203 46.163848,62.5639203 C49.7319943,62.5639203 51.9506469,61.4066783 52.820002,59.0918017 C52.9555013,58.7530536 53.0232509,58.4029158 53.0232509,58.0415845 L43.335449,58.0415845 C43.2902825,58.0415845 43.267503,58.0191977 43.267503,57.9740313 C44.3403034,56.4155938 44.8877988,55.6367678 44.9105784,55.6367678 L52.5998649,55.6367678 L52.5998649,55.6027948 C52.1593942,54.7108564 51.306731,54.016472 50.0422679,53.5194451 C49.1389397,53.2258635 48.3259444,53.0791708 47.6032818,53.0791708 L43.301476,53.0791708 L43.301476,52.9945329 C44.3403034,51.4474852 44.8766054,50.6741577 44.9105784,50.6741577 M33,63.2272774 C33,74.0153723 41.7455914,82.7609637 52.5334899,82.7609637 C63.3215848,82.7609637 72.0671762,74.0153723 72.0671762,63.2272774 C72.0671762,52.4391824 63.3215848,43.6937875 52.5334899,43.6937875 C41.7497153,43.703999 33.0102115,52.4435027 33,63.2272774 M55.1026731,38.3140754 C55.203021,30.8614216 61.3258187,24.901223 68.7784725,25.0013746 C76.2311263,25.1015262 82.1915213,31.2245203 82.0911733,38.6771741 C82.0214599,43.8697401 78.9782259,48.5617444 74.2652093,50.7428892 C70.2377403,43.7695885 63.1124447,39.1482794 55.1026731,38.3140754 M90.5062644,75.8880109 C88.9694282,75.8880109 87.7238172,74.6422035 87.7238172,73.1055637 C87.7238172,71.5687276 88.9694282,70.3229202 90.5062644,70.3229202 C92.0431005,70.3229202 93.2887115,71.5687276 93.2887115,73.1055637 C93.2887115,74.6422035 92.0431005,75.8880109 90.5062644,75.8880109 M107.999411,85.7011005 L107.999411,80.1360098 C108.028867,77.879064 106.486336,75.9045064 104.289285,75.3872529 C103.460383,75.2044271 102.597508,75.2525391 101.794332,75.5262868 C100.282239,69.9498064 97.0968289,64.9708971 92.6673789,61.2609676 C92.1660317,58.5769046 92.7533914,55.8036871 94.29985,53.5534181 C94.8860314,52.5788056 94.5714375,51.313557 93.596825,50.7273756 C93.1871853,50.4811204 92.7042975,50.3847 92.2314248,50.4553952 C86.9909432,51.1324986 83.985806,53.5624514 82.2977605,55.7793366 C80.3277196,55.2235934 78.3030862,54.8846489 76.2596008,54.7683945 C76.2256278,54.7652525 76.1914584,54.7652525 76.1574854,54.7683945 C80.9347169,67.7480421 74.2856324,82.1429694 61.3057884,86.9200044 C53.6547951,89.7364245 45.1118634,88.6518416 38.407401,84.0130551 C38.3720534,84.1014241 38.356147,84.19647 38.3610563,84.2913194 C38.7119797,91.863566 42.0988712,98.9753116 47.7568476,104.019614 C49.6931119,105.713354 50.8134352,108.153519 50.8362148,110.725647 L50.8362148,114.04636 C50.8362148,115.070852 51.6666876,115.901129 52.6911796,115.901129 L63.9513617,115.901129 C64.9758536,115.901129 65.8063264,115.070852 65.8063264,114.04636 L65.8063264,111.18929 L66.5855452,111.18929 L74.7384747,111.18929 L74.7384747,114.04636 C74.7384747,115.070852 75.5689475,115.901129 76.5934395,115.901129 L87.8536216,115.901129 C88.8781135,115.901129 89.7085863,115.070852 89.7085863,114.04636 L89.7085863,111.505063 C89.680701,108.815501 90.8334263,106.249264 92.8623799,104.483453 C97.2346847,100.776862 100.37591,95.827213 101.868365,90.2925605 C102.67272,90.5629698 103.535595,90.6081362 104.363319,90.4221685 C106.524826,89.8840991 108.030831,87.9283936 107.999411,85.7011005" id="Page-1" fill="#333333"></path>
        </g>
    </g>
</svg>