<?xml version="1.0" encoding="UTF-8"?>
<!DOCTYPE svg PUBLIC "-//W3C//DTD SVG 1.1//EN" "http://www.w3.org/Graphics/SVG/1.1/DTD/svg11.dtd">
<!-- Creator: CorelDRAW X6 -->
<svg xmlns="http://www.w3.org/2000/svg" xml:space="preserve" width="50.2mm" height="50.2mm" version="1.1" style="shape-rendering:geometricPrecision; text-rendering:geometricPrecision; image-rendering:optimizeQuality; fill-rule:evenodd; clip-rule:evenodd"
viewBox="0 0 1398 1398"
 xmlns:xlink="http://www.w3.org/1999/xlink">
 <defs>
  <style type="text/css">
   <![CDATA[
    .str0 {stroke:#31314B;stroke-width:2.12277}
    .str1 {stroke:#FFED00;stroke-width:5.57159}
    .fil18 {fill:none}
    .fil7 {fill:#84919A}
    .fil3 {fill:#F6AC80}
    .fil0 {fill:#FFED00}
    .fil9 {fill:black}
    .fil17 {fill:#291FAC}
    .fil16 {fill:#31314B}
    .fil10 {fill:#995342}
    .fil6 {fill:#C11C56}
    .fil13 {fill:#DE5A62}
    .fil2 {fill:#E62F67}
    .fil12 {fill:#ECB82D}
    .fil4 {fill:#F0E3E7}
    .fil8 {fill:#FFAF82}
    .fil14 {fill:white}
    .fil15 {fill:#2B2A29;fill-rule:nonzero}
    .fil5 {fill:#C11C56;fill-rule:nonzero}
    .fil11 {fill:#F78967;fill-rule:nonzero}
    .fil1 {fill:#FFAF82;fill-rule:nonzero}
   ]]>
  </style>
   <clipPath id="id0">
    <path d="M699 3c385,0 696,312 696,696 0,385 -312,696 -696,696 -385,0 -696,-312 -696,-696 0,-385 312,-696 696,-696z"/>
   </clipPath>
 </defs>
 <g id="Layer_x0020_1">
  <metadata id="CorelCorpID_0Corel-Layer"/>
  <path class="fil0" d="M699 3c385,0 696,312 696,696 0,385 -312,696 -696,696 -385,0 -696,-312 -696,-696 0,-385 312,-696 696,-696z"/>
  <g style="clip-path:url(#id0)">
   <g id="_1505140752">
    <g>
     <g>
      <g>
       <g>
        <path id="1" class="fil1" d="M1139 2046c0,0 -11,37 -24,65 -12,27 -4,48 -11,73 -7,25 22,23 27,-3 6,-26 3,-38 9,-39 5,-1 21,62 23,80 2,18 -1,63 5,70 7,7 23,-18 18,-65 -5,-47 -1,-46 -1,-46 0,0 4,18 9,38 5,20 5,43 4,57 -1,13 13,20 17,13 4,-7 10,-54 5,-72 -5,-18 -12,-50 -12,-50 0,0 18,42 21,53 3,11 -2,52 7,60 4,3 16,-1 14,-60 0,0 -4,-29 -11,-47 0,0 10,13 14,31 4,16 6,32 8,48 1,16 15,14 15,-14 0,-28 -5,-59 -13,-74 -8,-15 -19,-102 -43,-134l-82 17z"/>
       </g>
      </g>
      <g>
       <path class="fil1" d="M875 1110c0,0 69,321 126,429 0,0 29,142 137,514 0,0 56,22 89,-20 0,0 -60,-411 -92,-541 0,0 -101,-461 -201,-537 0,0 -51,58 -59,156z"/>
      </g>
     </g>
     <g>
      <g>
       <g>
        <path class="fil1" d="M276 2046c0,0 11,37 24,65 12,27 4,48 11,73 7,25 -22,23 -27,-3 -6,-26 -3,-38 -9,-39 -5,-1 -21,62 -23,80 -2,18 1,63 -5,70 -7,7 -23,-18 -18,-65 5,-47 1,-46 1,-46 0,0 -4,18 -9,38 -5,20 -5,43 -4,57 1,13 -13,20 -17,13 -4,-7 -10,-54 -5,-72 5,-18 12,-50 12,-50 0,0 -18,42 -21,53 -3,11 2,52 -7,60 -4,3 -16,-1 -14,-60 0,0 4,-29 11,-47 0,0 -10,13 -14,31 -4,16 -6,32 -8,48 -1,16 -15,14 -15,-14 0,-28 5,-59 13,-74 8,-15 19,-102 43,-134l82 17z"/>
       </g>
      </g>
      <g>
       <path class="fil1" d="M541 1110c0,0 -69,321 -126,429 0,0 -29,142 -137,514 0,0 -56,22 -89,-20 0,0 60,-411 92,-541 0,0 101,-461 201,-537 0,0 51,58 59,156z"/>
      </g>
     </g>
     <g>
      <path class="fil2" d="M876 1357l235 -48 -54 -262c-13,-65 -77,-107 -142,-93 -65,13 -107,77 -93,142l54 262z"/>
      <path class="fil2" d="M549 1358l-235 -48 54 -262c13,-65 77,-107 142,-93 65,13 107,77 93,142l-54 262z"/>
      <path class="fil2" d="M699 856l-265 107c-18,7 -28,27 -22,46l142 474 313 0 134 -480c5,-19 -5,-39 -24,-46l-278 -101z"/>
      <path class="fil3" d="M516 930l183 -74 196 72c0,0 -12,89 -190,89 -179,0 -189,-86 -189,-86z"/>
      <path class="fil4" d="M517 1350l-62 -207c-1,-2 -2,-3 -4,-2 -2,1 -3,2 -2,4l62 207c1,2 2,3 4,2 2,-1 3,-2 2,-4z"/>
      <path class="fil4" d="M910 1352l62 -207c1,-2 0,-4 -2,-4 -2,-1 -4,0 -4,2l-62 207c-1,2 0,4 2,4 2,1 4,0 4,-2z"/>
     </g>
     <path class="fil5" d="M881 1348c0,0 -142,101 -347,6 0,0 191,52 347,-6z"/>
     <path class="fil6" d="M578 3646c0,0 3,-4 4,-8 2,-4 5,-10 6,-16 1,-6 2,-12 2,-16 0,-5 0,-12 -2,-21 -2,-10 -6,-17 -7,-19 -1,-2 -6,-11 -8,-14 -2,-2 -6,-8 -7,-10 -1,-2 -3,-5 -4,-8 -1,-3 -2,-5 -2,-7 0,-2 0,-3 -3,-5 -2,-2 -3,-3 -5,-3 -2,0 -6,0 -8,1 -2,1 -7,3 -10,5 -3,1 -7,4 -9,6 -2,3 -11,10 -16,17 -5,6 -13,17 -18,22 -4,6 -12,15 -15,19 -3,4 -9,13 -11,17 -2,4 -8,16 -10,20 -2,4 -13,23 -14,25 -1,2 -10,15 -11,18 -1,3 -14,23 -18,28 -4,5 -11,14 -13,16 -2,2 -7,8 -10,11 -3,3 -8,6 -10,7 0,0 -6,1 -10,4 -4,3 -10,10 -14,13 -4,3 -16,11 -20,14 -4,3 -10,9 -12,12 -2,4 -4,6 -4,10 0,4 0,7 0,7 0,0 0,7 13,11 12,4 35,8 59,10 24,2 36,3 55,2 19,-1 36,-7 48,-15 12,-8 15,-15 17,-19 2,-4 4,-8 5,-13 1,-5 7,-21 8,-27 1,-6 12,-31 14,-36 2,-5 17,-32 19,-35 2,-3 10,-13 12,-15 1,-1 6,-6 6,-6l1 -1z"/>
     <path class="fil7" d="M321 3790c0,0 0,6 8,10 8,4 33,9 39,10 6,1 43,5 62,4 0,0 15,1 32,-2 0,0 17,-4 26,-9 0,0 16,-9 22,-18 6,-9 7,-13 9,-24 0,0 7,-24 11,-33 4,-9 13,-30 17,-38 4,-9 10,-19 15,-26 5,-7 9,-12 10,-13 1,-1 4,-4 4,-4l1 -1 0 0c0,0 -4,13 -6,22 -2,9 -4,21 -5,28 -1,7 -4,22 -4,26 -1,3 -2,13 -2,18 -1,6 -2,15 -2,17 0,1 -1,3 -1,3 0,0 -8,7 -10,8 -3,2 -8,4 -8,4 0,0 -1,-1 -4,-1 -2,0 -7,0 -7,0 0,0 -9,9 -14,15 -5,6 -12,11 -15,14 -3,3 -9,6 -13,8 -4,2 -17,5 -25,7 -7,2 -26,5 -47,3 0,0 -19,-1 -32,-2 -13,-1 -29,-5 -37,-7 -7,-2 -18,-5 -22,-8 -4,-4 -4,-5 -4,-7 0,-2 1,-5 1,-5z"/>
     <path class="fil1" d="M542 2015c0,0 43,667 38,815l-4 768 -87 1c-8,-304 -109,-548 -75,-764 68,-254 76,-408 28,-646 0,0 -30,-172 99,-175z"/>
     <path class="fil8" d="M518 3589c-4,4 -22,-2 -28,9 -7,13 -23,45 -28,56 -3,6 -16,29 -23,39 -7,10 -45,36 -53,42 -11,8 46,30 74,24 20,-4 32,-13 40,-25 0,0 9,-10 12,-24 6,-28 59,-87 64,-112 1,-6 -45,-21 -58,-9z"/>
     <path class="fil6" d="M834 3646c0,0 -3,-4 -4,-8 -2,-4 -5,-10 -6,-16 -1,-6 -2,-12 -2,-16 0,-5 0,-12 2,-21 2,-10 6,-17 7,-19 1,-2 6,-11 8,-14 2,-2 6,-8 7,-10 1,-2 3,-5 4,-8 1,-3 2,-5 2,-7 0,-2 0,-3 3,-5 2,-2 3,-3 5,-3 2,0 6,0 8,1 2,1 7,3 10,5 3,1 7,4 9,6 2,3 11,10 16,17 5,6 13,17 18,22 4,6 12,15 15,19 3,4 9,13 11,17 2,4 8,16 10,20 2,4 13,23 14,25 1,2 10,15 11,18 1,3 14,23 18,28 4,5 11,14 13,16 2,2 7,8 10,11 3,3 8,6 10,7 0,0 6,1 10,4 4,3 10,10 14,13 4,3 16,11 20,14 4,3 10,9 12,12 2,4 4,6 4,10 0,4 0,7 0,7 0,0 0,7 -13,11 -12,4 -35,8 -59,10 -24,2 -36,3 -55,2 -19,-1 -36,-7 -48,-15 -12,-8 -15,-15 -17,-19 -2,-4 -4,-8 -5,-13 -1,-5 -7,-21 -8,-27 -1,-6 -12,-31 -14,-36 -2,-5 -17,-32 -19,-35 -2,-3 -10,-13 -12,-15 -1,-1 -6,-6 -6,-6l-1 -1z"/>
     <path class="fil7" d="M1091 3790c0,0 0,6 -8,10 -8,4 -33,9 -39,10 -6,1 -43,5 -62,4 0,0 -15,1 -32,-2 0,0 -17,-4 -26,-9 0,0 -16,-9 -22,-18 -6,-9 -7,-13 -9,-24 0,0 -7,-24 -11,-33 -4,-9 -13,-30 -17,-38 -4,-9 -10,-19 -15,-26 -5,-7 -9,-12 -10,-13 -1,-1 -4,-4 -4,-4l-1 -1 0 0c0,0 4,13 6,22 2,9 4,21 5,28 1,7 4,22 4,26 1,3 2,13 2,18 1,6 2,15 2,17 0,1 1,3 1,3 0,0 8,7 10,8 3,2 8,4 8,4 0,0 1,-1 4,-1 2,0 7,0 7,0 0,0 9,9 14,15 5,6 12,11 15,14 3,3 9,6 13,8 4,2 17,5 25,7 7,2 26,5 47,3 0,0 19,-1 32,-2 13,-1 29,-5 37,-7 7,-2 18,-5 22,-8 4,-4 4,-5 4,-7 0,-2 -1,-5 -1,-5z"/>
     <path class="fil8" d="M894 3589c4,4 22,-2 28,9 7,13 23,45 28,56 3,6 16,29 23,39 7,10 45,36 53,42 11,8 -46,30 -74,24 -20,-4 -32,-13 -40,-25 0,0 -9,-10 -12,-24 -6,-28 -59,-87 -64,-112 -1,-6 45,-21 58,-9z"/>
     <path class="fil1" d="M870 2015c0,0 -43,667 -38,815l4 768 87 1c8,-304 109,-548 75,-764 64,-209 -40,-396 -28,-646 0,0 30,-172 -99,-175z"/>
     <path class="fil9" d="M771 307c0,0 78,-34 143,27 65,61 19,102 77,133 58,30 16,114 83,153 67,38 23,133 -46,146 0,0 -33,87 -106,79 0,0 -67,75 -198,27l-48 -20 97 -545z"/>
     <path class="fil9" d="M515 333c0,0 -87,11 -104,89 -17,77 -11,59 -59,99 -48,39 13,84 -25,124 -19,20 -29,37 -30,56 -3,33 20,63 52,72 22,6 40,27 53,56 26,56 119,32 119,32 0,0 88,51 142,13 54,-38 -27,-562 -27,-562l-120 23z"/>
     <polygon class="fil10" points="636,791 759,887 745,759 "/>
     <g>
      <g>
       <path class="fil1" d="M770 779l-3 48 -3 60c0,0 -12,22 -65,22 -53,0 -64,-15 -64,-15l-2 -26 -7 -88 145 0z"/>
      </g>
      <g>
       <path class="fil11" d="M770 779l-3 48c-22,17 -75,50 -135,40l-7 -88 145 0z"/>
      </g>
     </g>
     <path class="fil9" d="M789 312c0,0 -33,-81 -153,-81 -120,0 -157,125 -157,125l174 101 136 -144z"/>
     <path class="fil3" d="M541 600c12,27 11,69 -14,79 -25,9 -55,-25 -67,-51 -12,-27 -5,-50 21,-59 25,-9 49,5 61,32z"/>
     <path class="fil10" d="M480 603l0 0c1,0 3,0 5,0 4,0 11,1 17,5 6,4 13,12 17,27 0,1 2,2 3,2 1,0 2,-2 2,-3 -4,-15 -11,-25 -19,-30 -7,-5 -15,-6 -20,-6 -4,0 -7,1 -7,1 -1,0 -2,2 -2,3 0,1 2,2 3,2z"/>
     <path class="fil12" d="M569 737c-9,17 -27,30 -47,30 -15,0 -28,-6 -37,-15 -10,-10 -15,-23 -15,-37 0,-15 6,-28 15,-37 10,-10 23,-15 37,-15l0 -8c-33,0 -60,27 -60,60 0,33 27,60 60,60 24,0 44,-14 54,-34l-7 -3z"/>
     <path class="fil3" d="M861 600c-12,27 -11,69 14,79 25,9 55,-25 67,-51 12,-27 5,-50 -21,-59 -25,-9 -49,5 -61,32z"/>
     <path class="fil10" d="M923 599c0,0 -3,-1 -7,-1 -5,0 -13,1 -20,6 -7,5 -14,14 -19,30 0,1 0,3 2,3 1,0 3,0 3,-2 4,-15 10,-23 17,-27 6,-4 13,-5 17,-5 2,0 3,0 4,0l1 0 0 0c1,0 3,0 3,-2 0,-1 0,-3 -2,-3z"/>
     <path class="fil12" d="M828 740c10,20 30,34 54,34 33,0 60,-27 60,-60 0,-33 -27,-60 -60,-60l0 8c15,0 28,6 37,15 10,10 15,23 15,37 0,15 -6,28 -15,37 -10,10 -23,15 -37,15 -21,0 -39,-12 -47,-30l-7 3z"/>
     <path class="fil9" d="M913 498c0,113 -95,204 -213,204 -117,0 -213,-91 -213,-204 0,-113 95,-204 213,-204 117,0 213,91 213,204z"/>
     <path class="fil3" d="M701 318l0 0c-98,0 -185,76 -185,170l6 113c0,0 2,160 153,208 17,5 35,5 52,0 151,-49 153,-208 153,-208l6 -113c0,-94 -87,-170 -185,-170z"/>
     <path class="fil13" d="M663 690c0,0 2,23 34,23 32,0 34,-23 34,-23l-68 0z"/>
     <path class="fil10" d="M687 625l0 26c0,1 1,2 2,2l19 0c1,0 2,-1 2,-2 0,-1 -1,-2 -2,-2l-17 0 0 -24c0,-1 -1,-2 -2,-2 -1,0 -2,1 -2,2z"/>
     <path class="fil14" d="M659 587c0,0 -13,-32 -44,-34 -31,-1 -50,23 -50,23 0,0 8,28 46,29 38,2 48,-19 48,-19z"/>
     <path class="fil9" d="M581 578c0,9 3,17 8,23 6,3 13,4 22,5 8,0 14,0 20,-1 7,-5 12,-14 12,-23 0,-8 -3,-16 -8,-22 -6,-3 -12,-6 -20,-6 -10,0 -18,2 -25,5 -5,5 -9,12 -9,20z"/>
     <path class="fil9" d="M661 586c0,0 -3,-9 -10,-17 -7,-9 -19,-18 -35,-18l-1 0c-33,0 -51,24 -51,24l0 3 3 0 1 -1c4,-4 20,-22 47,-22l1 0c15,0 26,8 33,16 3,4 6,8 7,11 1,2 1,3 2,4l1 1c0,1 1,2 2,1 1,0 2,-1 1,-2z"/>
     <path class="fil14" d="M740 587c0,0 13,-32 44,-34 31,-1 50,23 50,23 0,0 -8,28 -46,29 -38,2 -48,-19 -48,-19z"/>
     <path class="fil9" d="M818 578c0,9 -3,17 -8,23 -6,3 -13,4 -22,5 -8,0 -14,0 -20,-1 -7,-5 -12,-14 -12,-23 0,-8 3,-16 8,-22 6,-3 12,-6 20,-6 10,0 18,2 25,5 5,5 9,12 9,20z"/>
     <path class="fil9" d="M742 588l1 -1c1,-3 5,-11 12,-18 7,-7 16,-13 30,-13l1 0c15,0 27,6 35,11 4,3 7,6 9,8 1,1 2,2 2,3l1 1 3 0 0 -3c0,0 -18,-24 -51,-24l-1 0c-17,0 -28,9 -35,18 -7,9 -10,17 -10,17 0,1 0,2 1,2 1,0 2,0 2,-1z"/>
     <path class="fil13" d="M731 690c0,0 -31,-17 -68,0 0,0 37,16 68,0z"/>
     <path class="fil10" d="M654 690c0,0 17,10 42,10 12,0 27,-2 42,-10 1,-1 2,-2 1,-3 -1,-1 -2,-2 -3,-1 -15,7 -28,9 -40,9 -12,0 -22,-2 -29,-5 -3,-1 -6,-2 -8,-3 -1,0 -2,-1 -2,-1l-1 0c-1,-1 -3,0 -3,1 -1,1 0,3 1,3z"/>
     <path class="fil9" d="M789 312c0,0 -8,89 -101,103 -95,14 -74,74 -189,60 0,0 -42,-65 20,-132 41,-44 120,-81 177,-75 19,2 65,38 92,44z"/>
     <path class="fil9" d="M778 323c0,0 -41,59 135,175 0,0 29,-41 10,-78 -19,-37 -145,-97 -145,-97z"/>
     <path class="fil15" d="M640 512c1,6 -4,11 -10,12 -20,1 -62,4 -83,26 0,0 7,-37 81,-47 6,-1 11,3 12,9z"/>
     <path class="fil15" d="M751 512c-1,6 4,11 10,11 20,0 62,3 84,24 0,0 -8,-37 -83,-44 -6,-1 -11,4 -11,9z"/>
     <g>
      <polygon class="fil9" points="870,1534 556,1534 556,1486 870,1486 "/>
      <path class="fil16" d="M581 1675c-76,-12 -139,38 -156,113 -18,76 -31,168 -34,278 -7,272 6,508 19,631 7,62 59,109 122,109 64,0 117,-49 122,-112l54 -860c7,-77 -48,-146 -124,-158 -1,0 -2,0 -3,0z"/>
      <path class="fil16 str0" d="M652 2684l-37 844 -203 0 -4 -847c1,-66 55,-120 122,-120 68,0 122,55 122,123z"/>
      <path class="fil16" d="M844 1675c76,-12 139,38 156,113 18,76 31,168 34,278 7,272 -6,508 -19,631 -7,62 -59,109 -122,109 -64,0 -116,-49 -122,-112l-54 -860c-7,-77 48,-146 124,-158 1,0 2,0 3,0z"/>
      <path class="fil16" d="M772 2684l37 844 203 0 4 -847c-1,-66 -55,-120 -122,-120 -68,0 -123,55 -122,123z"/>
      <path class="fil16" d="M870 1534l-313 0c0,0 -81,56 -126,235l238 136c28,17 62,17 89,0l237 -136c-48,-174 -125,-236 -125,-236z"/>
      <path class="fil17" d="M568 1593c0,0 0,0 0,1 0,6 -3,32 -17,60 -13,28 -37,57 -79,69 -2,1 -3,2 -2,4 1,2 2,3 4,2 47,-14 72,-48 86,-78 13,-30 15,-57 15,-58 0,-2 -1,-3 -3,-4 -2,0 -3,1 -4,3z"/>
      <path class="fil17" d="M848 1593c0,0 2,27 15,58 13,30 38,65 86,78 2,1 4,-1 4,-2 1,-2 -1,-4 -2,-4 -45,-13 -68,-45 -81,-75 -6,-15 -10,-29 -12,-39 -1,-5 -2,-9 -2,-12 0,-1 0,-3 0,-3 0,-1 0,-1 0,-1 0,-2 -2,-3 -4,-3 -2,0 -3,2 -3,4z"/>
     </g>
    </g>
   </g>
  </g>
  <path class="fil18 str1" d="M699 3c385,0 696,312 696,696 0,385 -312,696 -696,696 -385,0 -696,-312 -696,-696 0,-385 312,-696 696,-696z"/>
 </g>
</svg>
